<?xml version="1.0" encoding="utf-8" ?>
<svg baseProfile="tiny" height="1313.6px" version="1.2" width="1532.0px" xmlns="http://www.w3.org/2000/svg" xmlns:ev="http://www.w3.org/2001/xml-events" xmlns:xlink="http://www.w3.org/1999/xlink"><defs /><rect fill="#fafafa" height="1313.6" width="1532.0" x="0" y="0" /><line stroke="#ececec" stroke-width="0.7" x1="220.0" x2="220.0" y1="220.0" y2="1093.6" /><line stroke="#ececec" stroke-width="0.7" x1="274.6" x2="274.6" y1="220.0" y2="1093.6" /><line stroke="#ececec" stroke-width="0.7" x1="329.2" x2="329.2" y1="220.0" y2="1093.6" /><line stroke="#ececec" stroke-width="0.7" x1="383.8" x2="383.8" y1="220.0" y2="1093.6" /><line stroke="#ececec" stroke-width="0.7" x1="438.4" x2="438.4" y1="220.0" y2="1093.6" /><line stroke="#ececec" stroke-width="0.7" x1="493.0" x2="493.0" y1="220.0" y2="1093.6" /><line stroke="#ececec" stroke-width="0.7" x1="547.6" x2="547.6" y1="220.0" y2="1093.6" /><line stroke="#ececec" stroke-width="0.7" x1="602.2" x2="602.2" y1="220.0" y2="1093.6" /><line stroke="#ececec" stroke-width="0.7" x1="656.8" x2="656.8" y1="220.0" y2="1093.6" /><line stroke="#ececec" stroke-width="0.7" x1="711.4" x2="711.4" y1="220.0" y2="1093.6" /><line stroke="#ececec" stroke-width="0.7" x1="766.0" x2="766.0" y1="220.0" y2="1093.6" /><line stroke="#ececec" stroke-width="0.7" x1="820.6" x2="820.6" y1="220.0" y2="1093.6" /><line stroke="#ececec" stroke-width="0.7" x1="875.2" x2="875.2" y1="220.0" y2="1093.6" /><line stroke="#ececec" stroke-width="0.7" x1="929.8" x2="929.8" y1="220.0" y2="1093.6" /><line stroke="#ececec" stroke-width="0.7" x1="984.4" x2="984.4" y1="220.0" y2="1093.6" /><line stroke="#ececec" stroke-width="0.7" x1="1039.0" x2="1039.0" y1="220.0" y2="1093.6" /><line stroke="#ececec" stroke-width="0.7" x1="1093.6" x2="1093.6" y1="220.0" y2="1093.6" /><line stroke="#ececec" stroke-width="0.7" x1="1148.2" x2="1148.2" y1="220.0" y2="1093.6" /><line stroke="#ececec" stroke-width="0.7" x1="1202.8" x2="1202.8" y1="220.0" y2="1093.6" /><line stroke="#ececec" stroke-width="0.7" x1="1257.4" x2="1257.4" y1="220.0" y2="1093.6" /><line stroke="#ececec" stroke-width="0.7" x1="1312.0" x2="1312.0" y1="220.0" y2="1093.6" /><line stroke="#d1d1d1" stroke-width="1.1" x1="220.0" x2="220.0" y1="220.0" y2="1093.6" /><line stroke="#d1d1d1" stroke-width="1.1" x1="329.2" x2="329.2" y1="220.0" y2="1093.6" /><line stroke="#d1d1d1" stroke-width="1.1" x1="438.4" x2="438.4" y1="220.0" y2="1093.6" /><line stroke="#d1d1d1" stroke-width="1.1" x1="547.6" x2="547.6" y1="220.0" y2="1093.6" /><line stroke="#d1d1d1" stroke-width="1.1" x1="656.8" x2="656.8" y1="220.0" y2="1093.6" /><line stroke="#d1d1d1" stroke-width="1.1" x1="766.0" x2="766.0" y1="220.0" y2="1093.6" /><line stroke="#d1d1d1" stroke-width="1.1" x1="875.2" x2="875.2" y1="220.0" y2="1093.6" /><line stroke="#d1d1d1" stroke-width="1.1" x1="984.4" x2="984.4" y1="220.0" y2="1093.6" /><line stroke="#d1d1d1" stroke-width="1.1" x1="1093.6" x2="1093.6" y1="220.0" y2="1093.6" /><line stroke="#d1d1d1" stroke-width="1.1" x1="1202.8" x2="1202.8" y1="220.0" y2="1093.6" /><line stroke="#d1d1d1" stroke-width="1.1" x1="1312.0" x2="1312.0" y1="220.0" y2="1093.6" /><line stroke="#d1d1d1" stroke-width="1.1" x1="220.0" x2="1312.0" y1="220.0" y2="220.0" /><line stroke="#d1d1d1" stroke-width="1.1" x1="220.0" x2="1312.0" y1="329.2" y2="329.2" /><line stroke="#d1d1d1" stroke-width="1.1" x1="220.0" x2="1312.0" y1="438.4" y2="438.4" /><line stroke="#d1d1d1" stroke-width="1.1" x1="220.0" x2="1312.0" y1="547.6" y2="547.6" /><line stroke="#d1d1d1" stroke-width="1.1" x1="220.0" x2="1312.0" y1="656.8" y2="656.8" /><line stroke="#d1d1d1" stroke-width="1.1" x1="220.0" x2="1312.0" y1="766.0" y2="766.0" /><line stroke="#d1d1d1" stroke-width="1.1" x1="220.0" x2="1312.0" y1="875.2" y2="875.2" /><line stroke="#d1d1d1" stroke-width="1.1" x1="220.0" x2="1312.0" y1="984.4" y2="984.4" /><line stroke="#d1d1d1" stroke-width="1.1" x1="220.0" x2="1312.0" y1="1093.6" y2="1093.6" /><line stroke="#ececec" stroke-width="0.7" x1="220.0" x2="1312.0" y1="220.0" y2="220.0" /><line stroke="#ececec" stroke-width="0.7" x1="220.0" x2="1312.0" y1="274.6" y2="274.6" /><line stroke="#ececec" stroke-width="0.7" x1="220.0" x2="1312.0" y1="329.2" y2="329.2" /><line stroke="#ececec" stroke-width="0.7" x1="220.0" x2="1312.0" y1="383.8" y2="383.8" /><line stroke="#ececec" stroke-width="0.7" x1="220.0" x2="1312.0" y1="438.4" y2="438.4" /><line stroke="#ececec" stroke-width="0.7" x1="220.0" x2="1312.0" y1="493.0" y2="493.0" /><line stroke="#ececec" stroke-width="0.7" x1="220.0" x2="1312.0" y1="547.6" y2="547.6" /><line stroke="#ececec" stroke-width="0.7" x1="220.0" x2="1312.0" y1="602.2" y2="602.2" /><line stroke="#ececec" stroke-width="0.7" x1="220.0" x2="1312.0" y1="656.8" y2="656.8" /><line stroke="#ececec" stroke-width="0.7" x1="220.0" x2="1312.0" y1="711.4" y2="711.4" /><line stroke="#ececec" stroke-width="0.7" x1="220.0" x2="1312.0" y1="766.0" y2="766.0" /><line stroke="#ececec" stroke-width="0.7" x1="220.0" x2="1312.0" y1="820.6" y2="820.6" /><line stroke="#ececec" stroke-width="0.7" x1="220.0" x2="1312.0" y1="875.2" y2="875.2" /><line stroke="#ececec" stroke-width="0.7" x1="220.0" x2="1312.0" y1="929.8" y2="929.8" /><line stroke="#ececec" stroke-width="0.7" x1="220.0" x2="1312.0" y1="984.4" y2="984.4" /><line stroke="#ececec" stroke-width="0.7" x1="220.0" x2="1312.0" y1="1039.0" y2="1039.0" /><line stroke="#ececec" stroke-width="0.7" x1="220.0" x2="1312.0" y1="1093.6" y2="1093.6" /><rect fill="none" height="873.6" stroke="#6a6a6a" stroke-dasharray="8,4" stroke-width="2" width="1092.0" x="220.0" y="220.0" /><rect fill="none" height="873.6" stroke="#1f1f1f" stroke-width="3.5" width="1092.0" x="220.0" y="220.0" /><text fill="#555555" font-size="10" x="222.0" y="160.0">Site Envelope = Building Footprint</text><rect fill="#dcecff" height="218.4" stroke="none" width="218.4" x="438.4" y="220.0" /><line stroke="#2f2f2f" stroke-width="2.2" x1="438.4" x2="656.8" y1="438.4" y2="438.4" /><line stroke="#2f2f2f" stroke-width="2.2" x1="438.4" x2="656.8" y1="220.0" y2="220.0" /><line stroke="#2f2f2f" stroke-width="2.2" x1="438.4" x2="438.4" y1="220.0" y2="438.4" /><line stroke="#2f2f2f" stroke-width="2.2" x1="656.8" x2="656.8" y1="220.0" y2="438.4" /><rect fill="#d9f2ff" height="327.6" stroke="none" width="382.2" x="929.8" y="220.0" /><line stroke="#2f2f2f" stroke-width="2.2" x1="929.8" x2="1312.0" y1="220.0" y2="220.0" /><line stroke="#2f2f2f" stroke-width="2.2" x1="929.8" x2="1312.0" y1="547.6" y2="547.6" /><line stroke="#2f2f2f" stroke-width="2.2" x1="929.8" x2="929.8" y1="220.0" y2="547.6" /><line stroke="#2f2f2f" stroke-width="2.2" x1="1312.0" x2="1312.0" y1="220.0" y2="547.6" /><rect fill="#f8f0d9" height="327.6" stroke="none" width="163.8" x="766.0" y="220.0" /><line stroke="#2f2f2f" stroke-width="2.2" x1="766.0" x2="929.8" y1="547.6" y2="547.6" /><line stroke="#2f2f2f" stroke-width="2.2" x1="766.0" x2="929.8" y1="220.0" y2="220.0" /><line stroke="#2f2f2f" stroke-width="2.2" x1="766.0" x2="766.0" y1="220.0" y2="547.6" /><line stroke="#2f2f2f" stroke-width="2.2" x1="929.8" x2="929.8" y1="220.0" y2="547.6" /><rect fill="#efe9ff" height="109.2" stroke="none" width="109.2" x="656.8" y="438.4" /><rect fill="#efe9ff" height="109.2" stroke="none" width="436.8" x="220.0" y="438.4" /><rect fill="#efe9ff" height="327.6" stroke="none" width="218.4" x="329.2" y="547.6" /><line stroke="#2f2f2f" stroke-width="2.2" x1="220.0" x2="766.0" y1="438.4" y2="438.4" /><line stroke="#2f2f2f" stroke-width="2.2" x1="220.0" x2="329.2" y1="547.6" y2="547.6" /><line stroke="#2f2f2f" stroke-width="2.2" x1="547.6" x2="766.0" y1="547.6" y2="547.6" /><line stroke="#2f2f2f" stroke-width="2.2" x1="329.2" x2="547.6" y1="875.2" y2="875.2" /><line stroke="#2f2f2f" stroke-width="2.2" x1="329.2" x2="329.2" y1="547.6" y2="875.2" /><line stroke="#2f2f2f" stroke-width="2.2" x1="547.6" x2="547.6" y1="547.6" y2="875.2" /><line stroke="#2f2f2f" stroke-width="2.2" x1="220.0" x2="220.0" y1="438.4" y2="547.6" /><line stroke="#2f2f2f" stroke-width="2.2" x1="766.0" x2="766.0" y1="438.4" y2="547.6" /><rect fill="#ffe2b8" height="546.0" stroke="none" width="764.4" x="547.6" y="547.6" /><line stroke="#2f2f2f" stroke-width="2.2" x1="547.6" x2="1312.0" y1="547.6" y2="547.6" /><line stroke="#2f2f2f" stroke-width="2.2" x1="547.6" x2="1312.0" y1="1093.6" y2="1093.6" /><line stroke="#2f2f2f" stroke-width="2.2" x1="547.6" x2="547.6" y1="547.6" y2="1093.6" /><line stroke="#2f2f2f" stroke-width="2.2" x1="1312.0" x2="1312.0" y1="547.6" y2="1093.6" /><rect fill="#f0f0f0" height="218.4" stroke="none" width="327.6" x="220.0" y="875.2" /><line stroke="#2f2f2f" stroke-width="2.2" x1="220.0" x2="547.6" y1="1093.6" y2="1093.6" /><line stroke="#2f2f2f" stroke-width="2.2" x1="220.0" x2="547.6" y1="875.2" y2="875.2" /><line stroke="#2f2f2f" stroke-width="2.2" x1="547.6" x2="547.6" y1="875.2" y2="1093.6" /><line stroke="#2f2f2f" stroke-width="2.2" x1="220.0" x2="220.0" y1="875.2" y2="1093.6" /><rect fill="#fbe7e6" height="218.4" stroke="none" width="109.2" x="656.8" y="220.0" /><line stroke="#2f2f2f" stroke-width="2.2" x1="656.8" x2="766.0" y1="438.4" y2="438.4" /><line stroke="#2f2f2f" stroke-width="2.2" x1="656.8" x2="766.0" y1="220.0" y2="220.0" /><line stroke="#2f2f2f" stroke-width="2.2" x1="656.8" x2="656.8" y1="220.0" y2="438.4" /><line stroke="#2f2f2f" stroke-width="2.2" x1="766.0" x2="766.0" y1="220.0" y2="438.4" /><rect fill="#e7fbfb" height="218.4" stroke="none" width="218.4" x="220.0" y="220.0" /><line stroke="#2f2f2f" stroke-width="2.2" x1="220.0" x2="438.4" y1="220.0" y2="220.0" /><line stroke="#2f2f2f" stroke-width="2.2" x1="220.0" x2="438.4" y1="438.4" y2="438.4" /><line stroke="#2f2f2f" stroke-width="2.2" x1="438.4" x2="438.4" y1="220.0" y2="438.4" /><line stroke="#2f2f2f" stroke-width="2.2" x1="220.0" x2="220.0" y1="220.0" y2="438.4" /><rect fill="none" height="54.6" stroke="#8a6b4a" stroke-width="1.0" width="244.608" x="960.376" y="602.2" /><rect fill="none" height="120.12" stroke="#8a6b4a" stroke-width="1.0" width="49.14" x="1155.844" y="602.2" /><circle cx="1035.1888" cy="629.5" fill="none" r="8.4" stroke="#8a6b4a" stroke-width="0.9" /><circle cx="1056.7888" cy="629.5" fill="none" r="8.4" stroke="#8a6b4a" stroke-width="0.9" /><rect fill="none" height="28.8288" stroke="#8a6b4a" stroke-width="0.9" width="33.4152" x="1163.215" y="652.6504" /><rect fill="none" height="65.52" stroke="#8a6b4a" stroke-width="1.0" width="163.8" x="853.36" y="776.92" /><rect fill="none" height="111.384" stroke="#7f7f7f" stroke-width="1.1" width="214.032" x="1013.884" y="278.968" /><line stroke="#7f7f7f" stroke-width="0.9" x1="1013.884" x2="1227.916" y1="317.9524" y2="317.9524" /><rect fill="none" height="48.048" stroke="#6f6f6f" stroke-width="1.0" width="74.256" x="259.312" y="259.312" /><rect fill="none" height="48.048" stroke="#6f6f6f" stroke-width="1.0" width="74.256" x="346.672" y="259.312" /><line stroke="#8f8f8f" stroke-width="0.8" x1="250.576" x2="407.824" y1="244.912" y2="244.912" /><circle cx="412.0" cy="246.4" fill="none" r="8.4" stroke="#7c7c7c" stroke-width="0.9" /><line stroke="#7c7c7c" stroke-width="0.8" x1="401.2" x2="422.8" y1="246.4" y2="246.4" /><line stroke="#7c7c7c" stroke-width="0.8" x1="412.0" x2="412.0" y1="235.6" y2="257.2" /><rect fill="none" height="109.2" rx="6" ry="6" stroke="#6f6f6f" stroke-width="1.0" width="135.408" x="482.08" y="268.048" /><circle cx="630.4" cy="246.4" fill="none" r="8.4" stroke="#7c7c7c" stroke-width="0.9" /><line stroke="#7c7c7c" stroke-width="0.8" x1="619.6" x2="641.2" y1="246.4" y2="246.4" /><line stroke="#7c7c7c" stroke-width="0.8" x1="630.4" x2="630.4" y1="235.6" y2="257.2" /><line stroke="#9a9a9a" stroke-width="0.9" x1="259.312" x2="508.288" y1="914.512" y2="914.512" /><line stroke="#9a9a9a" stroke-width="0.9" x1="259.312" x2="508.288" y1="1054.288" y2="1054.288" /><rect fill="#ffffff" height="327.6" stroke="#202020" stroke-dasharray="8,4" stroke-width="2.6" width="109.2" x="220.0" y="547.6" /><line stroke="#2a2a2a" stroke-width="1.4" x1="233.104" x2="316.096" y1="572.8" y2="572.8" /><line stroke="#2a2a2a" stroke-width="1.4" x1="233.104" x2="316.096" y1="598.0" y2="598.0" /><line stroke="#2a2a2a" stroke-width="1.4" x1="233.104" x2="316.096" y1="623.2" y2="623.2" /><line stroke="#2a2a2a" stroke-width="1.4" x1="233.104" x2="316.096" y1="648.4" y2="648.4" /><line stroke="#2a2a2a" stroke-width="1.4" x1="233.104" x2="316.096" y1="673.6" y2="673.6" /><line stroke="#2a2a2a" stroke-width="1.4" x1="233.104" x2="316.096" y1="698.8" y2="698.8" /><line stroke="#2a2a2a" stroke-width="1.4" x1="233.104" x2="316.096" y1="724.0" y2="724.0" /><line stroke="#2a2a2a" stroke-width="1.4" x1="233.104" x2="316.096" y1="749.2" y2="749.2" /><line stroke="#2a2a2a" stroke-width="1.4" x1="233.104" x2="316.096" y1="774.4" y2="774.4" /><line stroke="#2a2a2a" stroke-width="1.4" x1="233.104" x2="316.096" y1="799.6" y2="799.6" /><line stroke="#2a2a2a" stroke-width="1.4" x1="233.104" x2="316.096" y1="824.8" y2="824.8" /><line stroke="#2a2a2a" stroke-width="1.4" x1="233.104" x2="316.096" y1="850.0" y2="850.0" /><text fill="#202020" font-size="11" text-anchor="middle" x="274.6" y="711.4">Stair (UP)</text><text fill="#3a3a3a" font-size="9.0" text-anchor="middle" x="274.6" y="725.8">13R/12T</text><text fill="#4a4a4a" font-size="7.8" text-anchor="middle" x="274.6" y="734.1999999999999">H2730 R210 T228</text><line stroke="#ffffff" stroke-width="7" x1="220.0" x2="329.2" y1="547.6" y2="547.6" /><line stroke="#5e5e5e" stroke-width="1.0" x1="220.0" x2="329.2" y1="547.6" y2="547.6" /><line stroke="#ffffff" stroke-width="6" x1="766.0" x2="766.0" y1="447.4" y2="538.6" /><line stroke="#ffffff" stroke-width="6" x1="547.6" x2="547.6" y1="652.6" y2="770.2" /><line stroke="#595959" stroke-width="1.2" x1="547.6" x2="471.16" y1="652.6" y2="729.04" /><path d="M 547.5999999999999,729.04 A 76.44,76.44 0 0 1 471.15999999999997,729.04" fill="none" stroke="#7a7a7a" stroke-width="1.0" /><line stroke="#ffffff" stroke-width="6" x1="665.8" x2="757.0" y1="438.4" y2="438.4" /><line stroke="#ffffff" stroke-width="6" x1="280.06" x2="378.34" y1="438.4" y2="438.4" /><line stroke="#595959" stroke-width="1.2" x1="280.06" x2="343.942" y1="438.4" y2="374.518" /><path d="M 343.942,438.4 A 63.882,63.882 0 0 1 343.942,374.51800000000003" fill="none" stroke="#7a7a7a" stroke-width="1.0" /><line stroke="#ffffff" stroke-width="6" x1="438.4" x2="438.4" y1="280.06" y2="378.34" /><line stroke="#595959" stroke-width="1.2" x1="438.4" x2="374.518" y1="280.06" y2="343.942" /><path d="M 438.4,343.942 A 63.882,63.882 0 0 1 374.51800000000003,343.942" fill="none" stroke="#7a7a7a" stroke-width="1.0" /><line stroke="#ffffff" stroke-width="6" x1="1062.1" x2="1179.7" y1="547.6" y2="547.6" /><line stroke="#595959" stroke-width="1.2" x1="1062.1" x2="1138.54" y1="547.6" y2="624.04" /><path d="M 1138.54,547.5999999999999 A 76.44,76.44 0 0 1 1138.54,624.04" fill="none" stroke="#7a7a7a" stroke-width="1.0" /><line stroke="#ffffff" stroke-width="6" x1="547.6" x2="547.6" y1="935.26" y2="1033.54" /><line stroke="#595959" stroke-width="1.2" x1="547.6" x2="483.718" y1="935.26" y2="999.142" /><path d="M 547.5999999999999,999.142 A 63.882,63.882 0 0 1 483.718,999.142" fill="none" stroke="#7a7a7a" stroke-width="1.0" /><line stroke="#ffffff" stroke-width="7" x1="802.3" x2="893.5" y1="220.0" y2="220.0" /><line stroke="#595959" stroke-width="1.2" x1="802.3" x2="861.58" y1="220.0" y2="279.28" /><path d="M 861.5799999999999,220.0 A 59.28,59.28 0 0 1 861.5799999999999,279.28" fill="none" stroke="#7a7a7a" stroke-width="1.0" /><line stroke="#66a7ff" stroke-width="2.2" x1="1309.36" x2="1309.36" y1="607.66" y2="793.3" /><line stroke="#66a7ff" stroke-width="2.2" x1="1314.64" x2="1314.64" y1="607.66" y2="793.3" /><line stroke="#66a7ff" stroke-width="2.2" x1="1309.36" x2="1309.36" y1="847.9" y2="1033.54" /><line stroke="#66a7ff" stroke-width="2.2" x1="1314.64" x2="1314.64" y1="847.9" y2="1033.54" /><line stroke="#66a7ff" stroke-width="2.2" x1="665.632" x2="857.632" y1="1090.96" y2="1090.96" /><line stroke="#66a7ff" stroke-width="2.2" x1="665.632" x2="857.632" y1="1096.24" y2="1096.24" /><line stroke="#66a7ff" stroke-width="2.2" x1="1001.968" x2="1193.968" y1="1090.96" y2="1090.96" /><line stroke="#66a7ff" stroke-width="2.2" x1="1001.968" x2="1193.968" y1="1096.24" y2="1096.24" /><line stroke="#66a7ff" stroke-width="2.2" x1="1309.36" x2="1309.36" y1="328.12" y2="439.48" /><line stroke="#66a7ff" stroke-width="2.2" x1="1314.64" x2="1314.64" y1="328.12" y2="439.48" /><line stroke="#66a7ff" stroke-width="2.2" x1="1055.98" x2="1185.82" y1="217.36" y2="217.36" /><line stroke="#66a7ff" stroke-width="2.2" x1="1055.98" x2="1185.82" y1="222.64" y2="222.64" /><line stroke="#9a9a9a" stroke-width="0.8" x1="337.6" x2="539.2" y1="556.0" y2="556.0" /><line stroke="#9a9a9a" stroke-width="0.8" x1="337.6" x2="337.6" y1="552.64" y2="559.36" /><line stroke="#9a9a9a" stroke-width="0.8" x1="539.2" x2="539.2" y1="552.64" y2="559.36" /><text fill="#8a8a8a" font-size="7.6" text-anchor="start" x="344.32" y="553.36">1820mm</text><line stroke="#9a9a9a" stroke-width="0.8" x1="337.6" x2="337.6" y1="556.0" y2="866.8" /><line stroke="#9a9a9a" stroke-width="0.8" x1="334.24" x2="340.96" y1="556.0" y2="556.0" /><line stroke="#9a9a9a" stroke-width="0.8" x1="334.24" x2="340.96" y1="866.8" y2="866.8" /><text fill="#8a8a8a" font-size="7.6" text-anchor="start" x="341.68" y="563.6800000000001">2730mm</text><text fill="#1b1b1b" font-size="10" text-anchor="middle" x="547.5999999999999" y="314.8">Bath 1</text><text fill="#1b1b1b" font-size="10" text-anchor="middle" x="547.5999999999999" y="325.6">1820x1820mm</text><text fill="#1b1b1b" font-size="10" text-anchor="middle" x="547.5999999999999" y="336.4">3.3sqm / 2.0jo</text><text fill="#1b1b1b" font-size="10" text-anchor="middle" x="1120.9" y="369.4">Bedroom 1</text><text fill="#1b1b1b" font-size="10" text-anchor="middle" x="1120.9" y="380.2">3185x2730mm</text><text fill="#1b1b1b" font-size="10" text-anchor="middle" x="1120.9" y="391.0">8.7sqm / 5.4jo</text><text fill="#1b1b1b" font-size="10" text-anchor="middle" x="847.9" y="369.4">Entry</text><text fill="#1b1b1b" font-size="10" text-anchor="middle" x="847.9" y="380.2">1365x2730mm</text><text fill="#1b1b1b" font-size="10" text-anchor="middle" x="847.9" y="391.0">3.7sqm / 2.3jo</text><text fill="#1b1b1b" font-size="9" text-anchor="middle" x="463.2181818181818" y="597.7272727272727">Hall 1</text><text fill="#1b1b1b" font-size="9" text-anchor="middle" x="463.2181818181818" y="608.5272727272727">9.1sqm / 5.6jo</text><text fill="#1b1b1b" font-size="10" text-anchor="middle" x="929.8" y="806.1999999999999">Ldk</text><text fill="#1b1b1b" font-size="10" text-anchor="middle" x="929.8" y="817.0">6370x4550mm</text><text fill="#1b1b1b" font-size="10" text-anchor="middle" x="929.8" y="827.8">29.0sqm / 17.9jo</text><text fill="#1b1b1b" font-size="10" text-anchor="middle" x="383.79999999999995" y="970.0">Storage 1</text><text fill="#1b1b1b" font-size="10" text-anchor="middle" x="383.79999999999995" y="980.8">2730x1820mm</text><text fill="#1b1b1b" font-size="10" text-anchor="middle" x="383.79999999999995" y="991.6">5.0sqm / 3.1jo</text><text fill="#1b1b1b" font-size="10" text-anchor="middle" x="711.4" y="314.8">Toilet 1</text><text fill="#1b1b1b" font-size="10" text-anchor="middle" x="711.4" y="325.6">910x1820mm</text><text fill="#1b1b1b" font-size="10" text-anchor="middle" x="711.4" y="336.4">1.7sqm / 1.0jo</text><text fill="#1b1b1b" font-size="10" text-anchor="middle" x="329.2" y="314.8">Wash 1</text><text fill="#1b1b1b" font-size="10" text-anchor="middle" x="329.2" y="325.6">1820x1820mm</text><text fill="#1b1b1b" font-size="10" text-anchor="middle" x="329.2" y="336.4">3.3sqm / 2.0jo</text><text fill="#111111" font-size="14" x="220.0" y="180.0">F1 Plan  (9100 x 7280 mm)</text><text fill="#444444" font-size="10" x="220.0" y="198.0">Scale: 1px=8.3mm</text><rect fill="#ffffff" height="198" stroke="#777777" stroke-width="1" width="170" x="1400.0" y="150.0" /><text fill="#111111" font-size="11" x="1408.0" y="164.0">Legend</text><rect fill="#f8f0d9" height="12" stroke="#333333" stroke-width="1" width="12" x="1408.0" y="174.0" /><text fill="#222222" font-size="10" x="1426.0" y="184.0">Entry</text><rect fill="#efe9ff" height="12" stroke="#333333" stroke-width="1" width="12" x="1408.0" y="192.0" /><text fill="#222222" font-size="10" x="1426.0" y="202.0">Hall</text><rect fill="#ffe2b8" height="12" stroke="#333333" stroke-width="1" width="12" x="1408.0" y="210.0" /><text fill="#222222" font-size="10" x="1426.0" y="220.0">Ldk</text><rect fill="#d9f2ff" height="12" stroke="#333333" stroke-width="1" width="12" x="1408.0" y="228.0" /><text fill="#222222" font-size="10" x="1426.0" y="238.0">Bedroom</text><rect fill="#fbe7e6" height="12" stroke="#333333" stroke-width="1" width="12" x="1408.0" y="246.0" /><text fill="#222222" font-size="10" x="1426.0" y="256.0">Toilet</text><rect fill="#e7fbfb" height="12" stroke="#333333" stroke-width="1" width="12" x="1408.0" y="264.0" /><text fill="#222222" font-size="10" x="1426.0" y="274.0">Washroom</text><rect fill="#dcecff" height="12" stroke="#333333" stroke-width="1" width="12" x="1408.0" y="282.0" /><text fill="#222222" font-size="10" x="1426.0" y="292.0">Bath</text><rect fill="#f0f0f0" height="12" stroke="#333333" stroke-width="1" width="12" x="1408.0" y="300.0" /><text fill="#222222" font-size="10" x="1426.0" y="310.0">Storage</text><line stroke="#6aa4ff" stroke-width="4" x1="1408.0" x2="1435.0" y1="330.0" y2="330.0" /><text fill="#222222" font-size="10" x="1442.0" y="333.0">Window</text><line stroke="#666666" stroke-width="2.4" x1="1408.0" x2="1435.0" y1="346.0" y2="346.0" /><path d="M 1408.0,346.0 A 10,10 0 0 1 1418.0,336.0" fill="none" stroke="#666666" stroke-width="1.2" /><text fill="#222222" font-size="10" x="1442.0" y="349.0">Door</text><rect fill="#ffffff" height="68" stroke="#777777" stroke-width="1" width="200" x="1400.0" y="520.0" /><text fill="#111111" font-size="10" x="1408.0" y="533.0">Area (F1)</text><text fill="#222222" font-size="9" x="1408.0" y="550.0">F1: 66.2 sqm (20.0 tsubo)</text><text fill="#222222" font-size="9" x="1408.0" y="566.0">F2: 66.2 sqm (20.0 tsubo)</text><text fill="#222222" font-size="9" x="1408.0" y="582.0">Total: 132.5 sqm (40.1 tsubo)</text><line stroke="#111111" stroke-width="2" x1="175.0" x2="175.0" y1="238.0" y2="208.0" /><polygon fill="#111111" points="175.0,208.0 181.0,214.0 169.0,214.0" /><text fill="#111111" font-size="12" x="170.0" y="202.0">N</text><line stroke="#545454" stroke-width="1.0" x1="220.0" x2="1312.0" y1="148.0" y2="148.0" /><line stroke="#545454" stroke-width="0.8" x1="220.0" x2="220.0" y1="220.0" y2="148.0" /><line stroke="#545454" stroke-width="1.0" x1="220.0" x2="220.0" y1="145.0" y2="151.0" /><line stroke="#545454" stroke-width="0.8" x1="1312.0" x2="1312.0" y1="220.0" y2="148.0" /><line stroke="#545454" stroke-width="1.0" x1="1312.0" x2="1312.0" y1="145.0" y2="151.0" /><text fill="#545454" font-size="8.8" text-anchor="middle" x="766.0" y="145.0">9100mm</text><line stroke="#666666" stroke-width="1.0" x1="220.0" x2="1312.0" y1="166.0" y2="166.0" /><line stroke="#666666" stroke-width="0.8" x1="220.0" x2="220.0" y1="220.0" y2="166.0" /><line stroke="#666666" stroke-width="1.0" x1="220.0" x2="220.0" y1="163.0" y2="169.0" /><line stroke="#666666" stroke-width="0.8" x1="438.4" x2="438.4" y1="220.0" y2="166.0" /><line stroke="#666666" stroke-width="1.0" x1="438.4" x2="438.4" y1="163.0" y2="169.0" /><line stroke="#666666" stroke-width="0.8" x1="656.8" x2="656.8" y1="220.0" y2="166.0" /><line stroke="#666666" stroke-width="1.0" x1="656.8" x2="656.8" y1="163.0" y2="169.0" /><line stroke="#666666" stroke-width="0.8" x1="766.0" x2="766.0" y1="220.0" y2="166.0" /><line stroke="#666666" stroke-width="1.0" x1="766.0" x2="766.0" y1="163.0" y2="169.0" /><line stroke="#666666" stroke-width="0.8" x1="929.8" x2="929.8" y1="220.0" y2="166.0" /><line stroke="#666666" stroke-width="1.0" x1="929.8" x2="929.8" y1="163.0" y2="169.0" /><line stroke="#666666" stroke-width="0.8" x1="1312.0" x2="1312.0" y1="220.0" y2="166.0" /><line stroke="#666666" stroke-width="1.0" x1="1312.0" x2="1312.0" y1="163.0" y2="169.0" /><text fill="#666666" font-size="8.2" text-anchor="middle" x="329.2" y="163.0">1820</text><text fill="#666666" font-size="8.2" text-anchor="middle" x="547.5999999999999" y="163.0">1820</text><text fill="#666666" font-size="8.2" text-anchor="middle" x="711.4" y="163.0">910</text><text fill="#666666" font-size="8.2" text-anchor="middle" x="847.9" y="163.0">1365</text><text fill="#666666" font-size="8.2" text-anchor="middle" x="1120.9" y="163.0">3185</text><line stroke="#7a7a7a" stroke-width="1.0" x1="220.0" x2="1312.0" y1="184.0" y2="184.0" /><line stroke="#7a7a7a" stroke-width="0.8" x1="220.0" x2="220.0" y1="220.0" y2="184.0" /><line stroke="#7a7a7a" stroke-width="1.0" x1="220.0" x2="220.0" y1="181.0" y2="187.0" /><line stroke="#7a7a7a" stroke-width="0.8" x1="820.6" x2="820.6" y1="220.0" y2="184.0" /><line stroke="#7a7a7a" stroke-width="1.0" x1="820.6" x2="820.6" y1="181.0" y2="187.0" /><line stroke="#7a7a7a" stroke-width="0.8" x1="875.2" x2="875.2" y1="220.0" y2="184.0" /><line stroke="#7a7a7a" stroke-width="1.0" x1="875.2" x2="875.2" y1="181.0" y2="187.0" /><line stroke="#7a7a7a" stroke-width="0.8" x1="1039.0" x2="1039.0" y1="220.0" y2="184.0" /><line stroke="#7a7a7a" stroke-width="1.0" x1="1039.0" x2="1039.0" y1="181.0" y2="187.0" /><line stroke="#7a7a7a" stroke-width="0.8" x1="1202.8" x2="1202.8" y1="220.0" y2="184.0" /><line stroke="#7a7a7a" stroke-width="1.0" x1="1202.8" x2="1202.8" y1="181.0" y2="187.0" /><line stroke="#7a7a7a" stroke-width="0.8" x1="1312.0" x2="1312.0" y1="220.0" y2="184.0" /><line stroke="#7a7a7a" stroke-width="1.0" x1="1312.0" x2="1312.0" y1="181.0" y2="187.0" /><text fill="#7a7a7a" font-size="7.8" text-anchor="middle" x="520.3" y="181.0">5005</text><text fill="#7a7a7a" font-size="7.8" text-anchor="middle" x="957.1" y="181.0">1365</text><text fill="#7a7a7a" font-size="7.8" text-anchor="middle" x="1120.9" y="181.0">1365</text><text fill="#7a7a7a" font-size="7.8" text-anchor="middle" x="1257.3999999999999" y="181.0">910</text><line stroke="#545454" stroke-width="1.0" x1="220.0" x2="1312.0" y1="1165.6" y2="1165.6" /><line stroke="#545454" stroke-width="0.8" x1="220.0" x2="220.0" y1="1093.6" y2="1165.6" /><line stroke="#545454" stroke-width="1.0" x1="220.0" x2="220.0" y1="1162.6" y2="1168.6" /><line stroke="#545454" stroke-width="0.8" x1="1312.0" x2="1312.0" y1="1093.6" y2="1165.6" /><line stroke="#545454" stroke-width="1.0" x1="1312.0" x2="1312.0" y1="1162.6" y2="1168.6" /><text fill="#545454" font-size="8.8" text-anchor="middle" x="766.0" y="1175.6">9100mm</text><line stroke="#666666" stroke-width="1.0" x1="220.0" x2="1312.0" y1="1147.6" y2="1147.6" /><line stroke="#666666" stroke-width="0.8" x1="220.0" x2="220.0" y1="1093.6" y2="1147.6" /><line stroke="#666666" stroke-width="1.0" x1="220.0" x2="220.0" y1="1144.6" y2="1150.6" /><line stroke="#666666" stroke-width="0.8" x1="547.6" x2="547.6" y1="1093.6" y2="1147.6" /><line stroke="#666666" stroke-width="1.0" x1="547.6" x2="547.6" y1="1144.6" y2="1150.6" /><line stroke="#666666" stroke-width="0.8" x1="1312.0" x2="1312.0" y1="1093.6" y2="1147.6" /><line stroke="#666666" stroke-width="1.0" x1="1312.0" x2="1312.0" y1="1144.6" y2="1150.6" /><text fill="#666666" font-size="8.2" text-anchor="middle" x="383.79999999999995" y="1157.6">2730</text><text fill="#666666" font-size="8.2" text-anchor="middle" x="929.8" y="1157.6">6370</text><line stroke="#7a7a7a" stroke-width="1.0" x1="220.0" x2="1312.0" y1="1129.6" y2="1129.6" /><line stroke="#7a7a7a" stroke-width="0.8" x1="220.0" x2="220.0" y1="1093.6" y2="1129.6" /><line stroke="#7a7a7a" stroke-width="1.0" x1="220.0" x2="220.0" y1="1126.6" y2="1132.6" /><line stroke="#7a7a7a" stroke-width="0.8" x1="656.8" x2="656.8" y1="1093.6" y2="1129.6" /><line stroke="#7a7a7a" stroke-width="1.0" x1="656.8" x2="656.8" y1="1126.6" y2="1132.6" /><line stroke="#7a7a7a" stroke-width="0.8" x1="875.2" x2="875.2" y1="1093.6" y2="1129.6" /><line stroke="#7a7a7a" stroke-width="1.0" x1="875.2" x2="875.2" y1="1126.6" y2="1132.6" /><line stroke="#7a7a7a" stroke-width="0.8" x1="984.4" x2="984.4" y1="1093.6" y2="1129.6" /><line stroke="#7a7a7a" stroke-width="1.0" x1="984.4" x2="984.4" y1="1126.6" y2="1132.6" /><line stroke="#7a7a7a" stroke-width="0.8" x1="1202.8" x2="1202.8" y1="1093.6" y2="1129.6" /><line stroke="#7a7a7a" stroke-width="1.0" x1="1202.8" x2="1202.8" y1="1126.6" y2="1132.6" /><line stroke="#7a7a7a" stroke-width="0.8" x1="1312.0" x2="1312.0" y1="1093.6" y2="1129.6" /><line stroke="#7a7a7a" stroke-width="1.0" x1="1312.0" x2="1312.0" y1="1126.6" y2="1132.6" /><text fill="#7a7a7a" font-size="7.8" text-anchor="middle" x="438.4" y="1139.6">3640</text><text fill="#7a7a7a" font-size="7.8" text-anchor="middle" x="766.0" y="1139.6">1820</text><text fill="#7a7a7a" font-size="7.8" text-anchor="middle" x="929.8" y="1139.6">910</text><text fill="#7a7a7a" font-size="7.8" text-anchor="middle" x="1093.6" y="1139.6">1820</text><text fill="#7a7a7a" font-size="7.8" text-anchor="middle" x="1257.3999999999999" y="1139.6">910</text><line stroke="#545454" stroke-width="1.0" x1="148.0" x2="148.0" y1="220.0" y2="1093.6" /><line stroke="#545454" stroke-width="0.8" x1="220.0" x2="148.0" y1="220.0" y2="220.0" /><line stroke="#545454" stroke-width="1.0" x1="145.0" x2="151.0" y1="220.0" y2="220.0" /><line stroke="#545454" stroke-width="0.8" x1="220.0" x2="148.0" y1="1093.6" y2="1093.6" /><line stroke="#545454" stroke-width="1.0" x1="145.0" x2="151.0" y1="1093.6" y2="1093.6" /><text fill="#545454" font-size="8.8" x="144.0" y="656.8">7280mm</text><line stroke="#666666" stroke-width="1.0" x1="166.0" x2="166.0" y1="220.0" y2="1093.6" /><line stroke="#666666" stroke-width="0.8" x1="220.0" x2="166.0" y1="220.0" y2="220.0" /><line stroke="#666666" stroke-width="1.0" x1="163.0" x2="169.0" y1="220.0" y2="220.0" /><line stroke="#666666" stroke-width="0.8" x1="220.0" x2="166.0" y1="438.4" y2="438.4" /><line stroke="#666666" stroke-width="1.0" x1="163.0" x2="169.0" y1="438.4" y2="438.4" /><line stroke="#666666" stroke-width="0.8" x1="220.0" x2="166.0" y1="547.6" y2="547.6" /><line stroke="#666666" stroke-width="1.0" x1="163.0" x2="169.0" y1="547.6" y2="547.6" /><line stroke="#666666" stroke-width="0.8" x1="220.0" x2="166.0" y1="875.2" y2="875.2" /><line stroke="#666666" stroke-width="1.0" x1="163.0" x2="169.0" y1="875.2" y2="875.2" /><line stroke="#666666" stroke-width="0.8" x1="220.0" x2="166.0" y1="1093.6" y2="1093.6" /><line stroke="#666666" stroke-width="1.0" x1="163.0" x2="169.0" y1="1093.6" y2="1093.6" /><text fill="#666666" font-size="8.2" x="162.0" y="329.2">1820</text><text fill="#666666" font-size="8.2" x="162.0" y="493.0">910</text><text fill="#666666" font-size="8.2" x="162.0" y="711.4">2730</text><text fill="#666666" font-size="8.2" x="162.0" y="984.4">1820</text><line stroke="#545454" stroke-width="1.0" x1="1384.0" x2="1384.0" y1="220.0" y2="1093.6" /><line stroke="#545454" stroke-width="0.8" x1="1312.0" x2="1384.0" y1="220.0" y2="220.0" /><line stroke="#545454" stroke-width="1.0" x1="1381.0" x2="1387.0" y1="220.0" y2="220.0" /><line stroke="#545454" stroke-width="0.8" x1="1312.0" x2="1384.0" y1="1093.6" y2="1093.6" /><line stroke="#545454" stroke-width="1.0" x1="1381.0" x2="1387.0" y1="1093.6" y2="1093.6" /><text fill="#545454" font-size="8.8" x="1389.0" y="656.8">7280mm</text><line stroke="#666666" stroke-width="1.0" x1="1366.0" x2="1366.0" y1="220.0" y2="1093.6" /><line stroke="#666666" stroke-width="0.8" x1="1312.0" x2="1366.0" y1="220.0" y2="220.0" /><line stroke="#666666" stroke-width="1.0" x1="1363.0" x2="1369.0" y1="220.0" y2="220.0" /><line stroke="#666666" stroke-width="0.8" x1="1312.0" x2="1366.0" y1="547.6" y2="547.6" /><line stroke="#666666" stroke-width="1.0" x1="1363.0" x2="1369.0" y1="547.6" y2="547.6" /><line stroke="#666666" stroke-width="0.8" x1="1312.0" x2="1366.0" y1="1093.6" y2="1093.6" /><line stroke="#666666" stroke-width="1.0" x1="1363.0" x2="1369.0" y1="1093.6" y2="1093.6" /><text fill="#666666" font-size="8.2" x="1371.0" y="383.79999999999995">2730</text><text fill="#666666" font-size="8.2" x="1371.0" y="820.6">4550</text><line stroke="#7a7a7a" stroke-width="1.0" x1="1348.0" x2="1348.0" y1="220.0" y2="1093.6" /><line stroke="#7a7a7a" stroke-width="0.8" x1="1312.0" x2="1348.0" y1="220.0" y2="220.0" /><line stroke="#7a7a7a" stroke-width="1.0" x1="1345.0" x2="1351.0" y1="220.0" y2="220.0" /><line stroke="#7a7a7a" stroke-width="0.8" x1="1312.0" x2="1348.0" y1="329.2" y2="329.2" /><line stroke="#7a7a7a" stroke-width="1.0" x1="1345.0" x2="1351.0" y1="329.2" y2="329.2" /><line stroke="#7a7a7a" stroke-width="0.8" x1="1312.0" x2="1348.0" y1="438.4" y2="438.4" /><line stroke="#7a7a7a" stroke-width="1.0" x1="1345.0" x2="1351.0" y1="438.4" y2="438.4" /><line stroke="#7a7a7a" stroke-width="0.8" x1="1312.0" x2="1348.0" y1="602.2" y2="602.2" /><line stroke="#7a7a7a" stroke-width="1.0" x1="1345.0" x2="1351.0" y1="602.2" y2="602.2" /><line stroke="#7a7a7a" stroke-width="0.8" x1="1312.0" x2="1348.0" y1="820.6" y2="820.6" /><line stroke="#7a7a7a" stroke-width="1.0" x1="1345.0" x2="1351.0" y1="820.6" y2="820.6" /><line stroke="#7a7a7a" stroke-width="0.8" x1="1312.0" x2="1348.0" y1="1039.0" y2="1039.0" /><line stroke="#7a7a7a" stroke-width="1.0" x1="1345.0" x2="1351.0" y1="1039.0" y2="1039.0" /><line stroke="#7a7a7a" stroke-width="0.8" x1="1312.0" x2="1348.0" y1="1093.6" y2="1093.6" /><line stroke="#7a7a7a" stroke-width="1.0" x1="1345.0" x2="1351.0" y1="1093.6" y2="1093.6" /><text fill="#7a7a7a" font-size="7.8" x="1353.0" y="274.6">910</text><text fill="#7a7a7a" font-size="7.8" x="1353.0" y="383.79999999999995">910</text><text fill="#7a7a7a" font-size="7.8" x="1353.0" y="520.3">1365</text><text fill="#7a7a7a" font-size="7.8" x="1353.0" y="711.4">1820</text><text fill="#7a7a7a" font-size="7.8" x="1353.0" y="929.8">1820</text></svg>