<?xml version="1.0" encoding="utf-8" ?>
<svg baseProfile="tiny" height="1204.4px" version="1.2" width="1532.0px" xmlns="http://www.w3.org/2000/svg" xmlns:ev="http://www.w3.org/2001/xml-events" xmlns:xlink="http://www.w3.org/1999/xlink"><defs /><rect fill="#fafafa" height="1204.4" width="1532.0" x="0" y="0" /><line stroke="#ececec" stroke-width="0.7" x1="220.0" x2="220.0" y1="220.0" y2="984.4" /><line stroke="#ececec" stroke-width="0.7" x1="274.6" x2="274.6" y1="220.0" y2="984.4" /><line stroke="#ececec" stroke-width="0.7" x1="329.2" x2="329.2" y1="220.0" y2="984.4" /><line stroke="#ececec" stroke-width="0.7" x1="383.8" x2="383.8" y1="220.0" y2="984.4" /><line stroke="#ececec" stroke-width="0.7" x1="438.4" x2="438.4" y1="220.0" y2="984.4" /><line stroke="#ececec" stroke-width="0.7" x1="493.0" x2="493.0" y1="220.0" y2="984.4" /><line stroke="#ececec" stroke-width="0.7" x1="547.6" x2="547.6" y1="220.0" y2="984.4" /><line stroke="#ececec" stroke-width="0.7" x1="602.2" x2="602.2" y1="220.0" y2="984.4" /><line stroke="#ececec" stroke-width="0.7" x1="656.8" x2="656.8" y1="220.0" y2="984.4" /><line stroke="#ececec" stroke-width="0.7" x1="711.4" x2="711.4" y1="220.0" y2="984.4" /><line stroke="#ececec" stroke-width="0.7" x1="766.0" x2="766.0" y1="220.0" y2="984.4" /><line stroke="#ececec" stroke-width="0.7" x1="820.6" x2="820.6" y1="220.0" y2="984.4" /><line stroke="#ececec" stroke-width="0.7" x1="875.2" x2="875.2" y1="220.0" y2="984.4" /><line stroke="#ececec" stroke-width="0.7" x1="929.8" x2="929.8" y1="220.0" y2="984.4" /><line stroke="#ececec" stroke-width="0.7" x1="984.4" x2="984.4" y1="220.0" y2="984.4" /><line stroke="#ececec" stroke-width="0.7" x1="1039.0" x2="1039.0" y1="220.0" y2="984.4" /><line stroke="#ececec" stroke-width="0.7" x1="1093.6" x2="1093.6" y1="220.0" y2="984.4" /><line stroke="#ececec" stroke-width="0.7" x1="1148.2" x2="1148.2" y1="220.0" y2="984.4" /><line stroke="#ececec" stroke-width="0.7" x1="1202.8" x2="1202.8" y1="220.0" y2="984.4" /><line stroke="#ececec" stroke-width="0.7" x1="1257.4" x2="1257.4" y1="220.0" y2="984.4" /><line stroke="#ececec" stroke-width="0.7" x1="1312.0" x2="1312.0" y1="220.0" y2="984.4" /><line stroke="#d1d1d1" stroke-width="1.1" x1="220.0" x2="220.0" y1="220.0" y2="984.4" /><line stroke="#d1d1d1" stroke-width="1.1" x1="329.2" x2="329.2" y1="220.0" y2="984.4" /><line stroke="#d1d1d1" stroke-width="1.1" x1="438.4" x2="438.4" y1="220.0" y2="984.4" /><line stroke="#d1d1d1" stroke-width="1.1" x1="547.6" x2="547.6" y1="220.0" y2="984.4" /><line stroke="#d1d1d1" stroke-width="1.1" x1="656.8" x2="656.8" y1="220.0" y2="984.4" /><line stroke="#d1d1d1" stroke-width="1.1" x1="766.0" x2="766.0" y1="220.0" y2="984.4" /><line stroke="#d1d1d1" stroke-width="1.1" x1="875.2" x2="875.2" y1="220.0" y2="984.4" /><line stroke="#d1d1d1" stroke-width="1.1" x1="984.4" x2="984.4" y1="220.0" y2="984.4" /><line stroke="#d1d1d1" stroke-width="1.1" x1="1093.6" x2="1093.6" y1="220.0" y2="984.4" /><line stroke="#d1d1d1" stroke-width="1.1" x1="1202.8" x2="1202.8" y1="220.0" y2="984.4" /><line stroke="#d1d1d1" stroke-width="1.1" x1="1312.0" x2="1312.0" y1="220.0" y2="984.4" /><line stroke="#d1d1d1" stroke-width="1.1" x1="220.0" x2="1312.0" y1="220.0" y2="220.0" /><line stroke="#d1d1d1" stroke-width="1.1" x1="220.0" x2="1312.0" y1="329.2" y2="329.2" /><line stroke="#d1d1d1" stroke-width="1.1" x1="220.0" x2="1312.0" y1="438.4" y2="438.4" /><line stroke="#d1d1d1" stroke-width="1.1" x1="220.0" x2="1312.0" y1="547.6" y2="547.6" /><line stroke="#d1d1d1" stroke-width="1.1" x1="220.0" x2="1312.0" y1="656.8" y2="656.8" /><line stroke="#d1d1d1" stroke-width="1.1" x1="220.0" x2="1312.0" y1="766.0" y2="766.0" /><line stroke="#d1d1d1" stroke-width="1.1" x1="220.0" x2="1312.0" y1="875.2" y2="875.2" /><line stroke="#d1d1d1" stroke-width="1.1" x1="220.0" x2="1312.0" y1="984.4" y2="984.4" /><line stroke="#ececec" stroke-width="0.7" x1="220.0" x2="1312.0" y1="220.0" y2="220.0" /><line stroke="#ececec" stroke-width="0.7" x1="220.0" x2="1312.0" y1="274.6" y2="274.6" /><line stroke="#ececec" stroke-width="0.7" x1="220.0" x2="1312.0" y1="329.2" y2="329.2" /><line stroke="#ececec" stroke-width="0.7" x1="220.0" x2="1312.0" y1="383.8" y2="383.8" /><line stroke="#ececec" stroke-width="0.7" x1="220.0" x2="1312.0" y1="438.4" y2="438.4" /><line stroke="#ececec" stroke-width="0.7" x1="220.0" x2="1312.0" y1="493.0" y2="493.0" /><line stroke="#ececec" stroke-width="0.7" x1="220.0" x2="1312.0" y1="547.6" y2="547.6" /><line stroke="#ececec" stroke-width="0.7" x1="220.0" x2="1312.0" y1="602.2" y2="602.2" /><line stroke="#ececec" stroke-width="0.7" x1="220.0" x2="1312.0" y1="656.8" y2="656.8" /><line stroke="#ececec" stroke-width="0.7" x1="220.0" x2="1312.0" y1="711.4" y2="711.4" /><line stroke="#ececec" stroke-width="0.7" x1="220.0" x2="1312.0" y1="766.0" y2="766.0" /><line stroke="#ececec" stroke-width="0.7" x1="220.0" x2="1312.0" y1="820.6" y2="820.6" /><line stroke="#ececec" stroke-width="0.7" x1="220.0" x2="1312.0" y1="875.2" y2="875.2" /><line stroke="#ececec" stroke-width="0.7" x1="220.0" x2="1312.0" y1="929.8" y2="929.8" /><line stroke="#ececec" stroke-width="0.7" x1="220.0" x2="1312.0" y1="984.4" y2="984.4" /><rect fill="none" height="764.4" stroke="#6a6a6a" stroke-dasharray="8,4" stroke-width="2" width="1092.0" x="220.0" y="220.0" /><rect fill="none" height="764.4" stroke="#1f1f1f" stroke-width="3.5" width="1092.0" x="220.0" y="220.0" /><text fill="#555555" font-size="10" x="222.0" y="160.0">Site Envelope = Building Footprint</text><rect fill="#d9f2ff" height="382.2" stroke="none" width="546.0" x="220.0" y="602.2" /><line stroke="#2f2f2f" stroke-width="2.2" x1="220.0" x2="766.0" y1="984.4" y2="984.4" /><line stroke="#2f2f2f" stroke-width="2.2" x1="220.0" x2="766.0" y1="602.2" y2="602.2" /><line stroke="#2f2f2f" stroke-width="2.2" x1="220.0" x2="220.0" y1="602.2" y2="984.4" /><line stroke="#2f2f2f" stroke-width="2.2" x1="766.0" x2="766.0" y1="602.2" y2="984.4" /><rect fill="#d9f2ff" height="436.8" stroke="none" width="546.0" x="766.0" y="547.6" /><line stroke="#2f2f2f" stroke-width="2.2" x1="766.0" x2="1312.0" y1="547.6" y2="547.6" /><line stroke="#2f2f2f" stroke-width="2.2" x1="766.0" x2="1312.0" y1="984.4" y2="984.4" /><line stroke="#2f2f2f" stroke-width="2.2" x1="1312.0" x2="1312.0" y1="547.6" y2="984.4" /><line stroke="#2f2f2f" stroke-width="2.2" x1="766.0" x2="766.0" y1="547.6" y2="984.4" /><rect fill="#efe9ff" height="163.8" stroke="none" width="218.4" x="547.6" y="438.4" /><rect fill="#efe9ff" height="109.2" stroke="none" width="327.6" x="220.0" y="493.0" /><rect fill="#efe9ff" height="273.0" stroke="none" width="109.2" x="220.0" y="220.0" /><line stroke="#2f2f2f" stroke-width="2.2" x1="220.0" x2="766.0" y1="602.2" y2="602.2" /><line stroke="#2f2f2f" stroke-width="2.2" x1="220.0" x2="329.2" y1="220.0" y2="220.0" /><line stroke="#2f2f2f" stroke-width="2.2" x1="329.2" x2="547.6" y1="493.0" y2="493.0" /><line stroke="#2f2f2f" stroke-width="2.2" x1="547.6" x2="766.0" y1="438.4" y2="438.4" /><line stroke="#2f2f2f" stroke-width="2.2" x1="220.0" x2="220.0" y1="220.0" y2="602.2" /><line stroke="#2f2f2f" stroke-width="2.2" x1="329.2" x2="329.2" y1="220.0" y2="493.0" /><line stroke="#2f2f2f" stroke-width="2.2" x1="766.0" x2="766.0" y1="438.4" y2="602.2" /><line stroke="#2f2f2f" stroke-width="2.2" x1="547.6" x2="547.6" y1="438.4" y2="493.0" /><rect fill="#c5e8ff" height="327.6" stroke="none" width="546.0" x="766.0" y="220.0" /><line stroke="#2f2f2f" stroke-width="2.2" x1="766.0" x2="1312.0" y1="220.0" y2="220.0" /><line stroke="#2f2f2f" stroke-width="2.2" x1="766.0" x2="1312.0" y1="547.6" y2="547.6" /><line stroke="#2f2f2f" stroke-width="2.2" x1="766.0" x2="766.0" y1="220.0" y2="547.6" /><line stroke="#2f2f2f" stroke-width="2.2" x1="1312.0" x2="1312.0" y1="220.0" y2="547.6" /><rect fill="#ece7dd" height="218.4" stroke="none" width="218.4" x="547.6" y="220.0" /><line stroke="#2f2f2f" stroke-width="2.2" x1="547.6" x2="766.0" y1="438.4" y2="438.4" /><line stroke="#2f2f2f" stroke-width="2.2" x1="547.6" x2="766.0" y1="220.0" y2="220.0" /><line stroke="#2f2f2f" stroke-width="2.2" x1="547.6" x2="547.6" y1="220.0" y2="438.4" /><line stroke="#2f2f2f" stroke-width="2.2" x1="766.0" x2="766.0" y1="220.0" y2="438.4" /><rect fill="#f7f3ea" fill-opacity="0.35" height="382.2" stroke="#9a9a9a" stroke-dasharray="4,3" stroke-width="0.9" width="109.2" x="656.8" y="602.2" /><line stroke="#9c9c9c" stroke-opacity="0.7" stroke-width="0.8" x1="656.8" x2="676.0" y1="965.2" y2="984.4" /><line stroke="#9c9c9c" stroke-opacity="0.7" stroke-width="0.8" x1="656.8" x2="695.2" y1="946.0" y2="984.4" /><line stroke="#9c9c9c" stroke-opacity="0.7" stroke-width="0.8" x1="656.8" x2="714.4" y1="926.8" y2="984.4" /><line stroke="#9c9c9c" stroke-opacity="0.7" stroke-width="0.8" x1="656.8" x2="733.6" y1="907.6" y2="984.4" /><line stroke="#9c9c9c" stroke-opacity="0.7" stroke-width="0.8" x1="656.8" x2="752.8" y1="888.4" y2="984.4" /><line stroke="#9c9c9c" stroke-opacity="0.7" stroke-width="0.8" x1="656.8" x2="766.0" y1="869.2" y2="978.4" /><line stroke="#9c9c9c" stroke-opacity="0.7" stroke-width="0.8" x1="656.8" x2="766.0" y1="850.0" y2="959.2" /><line stroke="#9c9c9c" stroke-opacity="0.7" stroke-width="0.8" x1="656.8" x2="766.0" y1="830.8" y2="940.0" /><line stroke="#9c9c9c" stroke-opacity="0.7" stroke-width="0.8" x1="656.8" x2="766.0" y1="811.6" y2="920.8" /><line stroke="#9c9c9c" stroke-opacity="0.7" stroke-width="0.8" x1="656.8" x2="766.0" y1="792.4" y2="901.6" /><line stroke="#9c9c9c" stroke-opacity="0.7" stroke-width="0.8" x1="656.8" x2="766.0" y1="773.2" y2="882.4" /><line stroke="#9c9c9c" stroke-opacity="0.7" stroke-width="0.8" x1="656.8" x2="766.0" y1="754.0" y2="863.2" /><line stroke="#9c9c9c" stroke-opacity="0.7" stroke-width="0.8" x1="656.8" x2="766.0" y1="734.8" y2="844.0" /><line stroke="#9c9c9c" stroke-opacity="0.7" stroke-width="0.8" x1="656.8" x2="766.0" y1="715.6" y2="824.8" /><line stroke="#9c9c9c" stroke-opacity="0.7" stroke-width="0.8" x1="656.8" x2="766.0" y1="696.4" y2="805.6" /><line stroke="#9c9c9c" stroke-opacity="0.7" stroke-width="0.8" x1="656.8" x2="766.0" y1="677.2" y2="786.4" /><line stroke="#9c9c9c" stroke-opacity="0.7" stroke-width="0.8" x1="656.8" x2="766.0" y1="658.0" y2="767.2" /><line stroke="#9c9c9c" stroke-opacity="0.7" stroke-width="0.8" x1="656.8" x2="766.0" y1="638.8" y2="748.0" /><line stroke="#9c9c9c" stroke-opacity="0.7" stroke-width="0.8" x1="656.8" x2="766.0" y1="619.6" y2="728.8" /><line stroke="#9c9c9c" stroke-opacity="0.7" stroke-width="0.8" x1="658.6" x2="766.0" y1="602.2" y2="709.6" /><line stroke="#9c9c9c" stroke-opacity="0.7" stroke-width="0.8" x1="677.8" x2="766.0" y1="602.2" y2="690.4" /><line stroke="#9c9c9c" stroke-opacity="0.7" stroke-width="0.8" x1="697.0" x2="766.0" y1="602.2" y2="671.2" /><line stroke="#9c9c9c" stroke-opacity="0.7" stroke-width="0.8" x1="716.2" x2="766.0" y1="602.2" y2="652.0" /><line stroke="#9c9c9c" stroke-opacity="0.7" stroke-width="0.8" x1="735.4" x2="766.0" y1="602.2" y2="632.8" /><line stroke="#9c9c9c" stroke-opacity="0.7" stroke-width="0.8" x1="754.6" x2="766.0" y1="602.2" y2="613.6" /><rect fill="#f7f3ea" fill-opacity="0.35" height="436.8" stroke="#9a9a9a" stroke-dasharray="4,3" stroke-width="0.9" width="109.2" x="1202.8" y="547.6" /><line stroke="#9c9c9c" stroke-opacity="0.7" stroke-width="0.8" x1="1202.8" x2="1222.0" y1="965.2" y2="984.4" /><line stroke="#9c9c9c" stroke-opacity="0.7" stroke-width="0.8" x1="1202.8" x2="1241.2" y1="946.0" y2="984.4" /><line stroke="#9c9c9c" stroke-opacity="0.7" stroke-width="0.8" x1="1202.8" x2="1260.4" y1="926.8" y2="984.4" /><line stroke="#9c9c9c" stroke-opacity="0.7" stroke-width="0.8" x1="1202.8" x2="1279.6" y1="907.6" y2="984.4" /><line stroke="#9c9c9c" stroke-opacity="0.7" stroke-width="0.8" x1="1202.8" x2="1298.8" y1="888.4" y2="984.4" /><line stroke="#9c9c9c" stroke-opacity="0.7" stroke-width="0.8" x1="1202.8" x2="1312.0" y1="869.2" y2="978.4" /><line stroke="#9c9c9c" stroke-opacity="0.7" stroke-width="0.8" x1="1202.8" x2="1312.0" y1="850.0" y2="959.2" /><line stroke="#9c9c9c" stroke-opacity="0.7" stroke-width="0.8" x1="1202.8" x2="1312.0" y1="830.8" y2="940.0" /><line stroke="#9c9c9c" stroke-opacity="0.7" stroke-width="0.8" x1="1202.8" x2="1312.0" y1="811.6" y2="920.8" /><line stroke="#9c9c9c" stroke-opacity="0.7" stroke-width="0.8" x1="1202.8" x2="1312.0" y1="792.4" y2="901.6" /><line stroke="#9c9c9c" stroke-opacity="0.7" stroke-width="0.8" x1="1202.8" x2="1312.0" y1="773.2" y2="882.4" /><line stroke="#9c9c9c" stroke-opacity="0.7" stroke-width="0.8" x1="1202.8" x2="1312.0" y1="754.0" y2="863.2" /><line stroke="#9c9c9c" stroke-opacity="0.7" stroke-width="0.8" x1="1202.8" x2="1312.0" y1="734.8" y2="844.0" /><line stroke="#9c9c9c" stroke-opacity="0.7" stroke-width="0.8" x1="1202.8" x2="1312.0" y1="715.6" y2="824.8" /><line stroke="#9c9c9c" stroke-opacity="0.7" stroke-width="0.8" x1="1202.8" x2="1312.0" y1="696.4" y2="805.6" /><line stroke="#9c9c9c" stroke-opacity="0.7" stroke-width="0.8" x1="1202.8" x2="1312.0" y1="677.2" y2="786.4" /><line stroke="#9c9c9c" stroke-opacity="0.7" stroke-width="0.8" x1="1202.8" x2="1312.0" y1="658.0" y2="767.2" /><line stroke="#9c9c9c" stroke-opacity="0.7" stroke-width="0.8" x1="1202.8" x2="1312.0" y1="638.8" y2="748.0" /><line stroke="#9c9c9c" stroke-opacity="0.7" stroke-width="0.8" x1="1202.8" x2="1312.0" y1="619.6" y2="728.8" /><line stroke="#9c9c9c" stroke-opacity="0.7" stroke-width="0.8" x1="1202.8" x2="1312.0" y1="600.4" y2="709.6" /><line stroke="#9c9c9c" stroke-opacity="0.7" stroke-width="0.8" x1="1202.8" x2="1312.0" y1="581.2" y2="690.4" /><line stroke="#9c9c9c" stroke-opacity="0.7" stroke-width="0.8" x1="1202.8" x2="1312.0" y1="562.0" y2="671.2" /><line stroke="#9c9c9c" stroke-opacity="0.7" stroke-width="0.8" x1="1207.6" x2="1312.0" y1="547.6" y2="652.0" /><line stroke="#9c9c9c" stroke-opacity="0.7" stroke-width="0.8" x1="1226.8" x2="1312.0" y1="547.6" y2="632.8" /><line stroke="#9c9c9c" stroke-opacity="0.7" stroke-width="0.8" x1="1246.0" x2="1312.0" y1="547.6" y2="613.6" /><line stroke="#9c9c9c" stroke-opacity="0.7" stroke-width="0.8" x1="1265.2" x2="1312.0" y1="547.6" y2="594.4" /><line stroke="#9c9c9c" stroke-opacity="0.7" stroke-width="0.8" x1="1284.4" x2="1312.0" y1="547.6" y2="575.2" /><line stroke="#9c9c9c" stroke-opacity="0.7" stroke-width="0.8" x1="1303.6" x2="1312.0" y1="547.6" y2="556.0" /><rect fill="none" height="111.384" stroke="#7f7f7f" stroke-width="1.1" width="218.4" x="929.8" y="278.968" /><line stroke="#7f7f7f" stroke-width="0.9" x1="929.8" x2="1148.2" y1="317.9524" y2="317.9524" /><rect fill="none" height="129.948" stroke="#7f7f7f" stroke-width="1.1" width="218.4" x="383.8" y="670.996" /><line stroke="#7f7f7f" stroke-width="0.9" x1="383.8" x2="602.2" y1="716.4778" y2="716.4778" /><rect fill="none" height="148.512" stroke="#7f7f7f" stroke-width="1.1" width="218.4" x="929.8" y="626.224" /><line stroke="#7f7f7f" stroke-width="0.9" x1="929.8" x2="1148.2" y1="678.2032" y2="678.2032" /><line stroke="#9a9a9a" stroke-width="0.9" x1="573.808" x2="739.792" y1="259.312" y2="259.312" /><line stroke="#9a9a9a" stroke-width="0.9" x1="573.808" x2="739.792" y1="399.088" y2="399.088" /><line stroke="#9a9a9a" stroke-dasharray="5,3" stroke-width="0.7" x1="573.808" x2="739.792" y1="329.2" y2="329.2" /><rect fill="#f4f4f4" height="163.8" stroke="#202020" stroke-dasharray="4,3" stroke-width="2.6" width="109.2" x="329.2" y="329.2" /><line stroke="#b8b8b8" stroke-width="0.9" x1="334.6" x2="433.0" y1="338.8" y2="338.8" /><line stroke="#b8b8b8" stroke-width="0.9" x1="334.6" x2="433.0" y1="358.0" y2="358.0" /><line stroke="#b8b8b8" stroke-width="0.9" x1="334.6" x2="433.0" y1="377.2" y2="377.2" /><line stroke="#b8b8b8" stroke-width="0.9" x1="334.6" x2="433.0" y1="396.4" y2="396.4" /><line stroke="#b8b8b8" stroke-width="0.9" x1="334.6" x2="433.0" y1="415.6" y2="415.6" /><line stroke="#b8b8b8" stroke-width="0.9" x1="334.6" x2="433.0" y1="434.8" y2="434.8" /><line stroke="#b8b8b8" stroke-width="0.9" x1="334.6" x2="433.0" y1="454.0" y2="454.0" /><line stroke="#b8b8b8" stroke-width="0.9" x1="334.6" x2="433.0" y1="473.2" y2="473.2" /><line stroke="#b8b8b8" stroke-width="0.9" x1="334.6" x2="433.0" y1="492.4" y2="492.4" /><rect fill="#f4f4f4" height="109.2" stroke="#202020" stroke-dasharray="4,3" stroke-width="2.6" width="218.4" x="329.2" y="220.0" /><line stroke="#b8b8b8" stroke-width="0.9" x1="334.6" x2="542.2" y1="229.6" y2="229.6" /><line stroke="#b8b8b8" stroke-width="0.9" x1="334.6" x2="542.2" y1="248.8" y2="248.8" /><line stroke="#b8b8b8" stroke-width="0.9" x1="334.6" x2="542.2" y1="268.0" y2="268.0" /><line stroke="#b8b8b8" stroke-width="0.9" x1="334.6" x2="542.2" y1="287.2" y2="287.2" /><line stroke="#b8b8b8" stroke-width="0.9" x1="334.6" x2="542.2" y1="306.4" y2="306.4" /><line stroke="#b8b8b8" stroke-width="0.9" x1="334.6" x2="542.2" y1="325.6" y2="325.6" /><rect fill="#ffffff" height="163.8" stroke="#202020" stroke-dasharray="8,4" stroke-width="2.6" width="109.2" x="438.4" y="329.2" /><text fill="#555555" font-size="9" text-anchor="middle" x="438.4" y="356.5">Open To Below</text><rect fill="none" height="273.0" stroke="#7e7e7e" stroke-dasharray="3,2" stroke-width="2.0" width="218.4" x="329.2" y="220.0" /><text fill="#666666" font-size="8.5" text-anchor="middle" x="438.4" y="234.4">Guardrail</text><line stroke="#2a2a2a" stroke-width="1.4" x1="451.504" x2="534.496" y1="352.6" y2="352.6" /><line stroke="#2a2a2a" stroke-width="1.4" x1="451.504" x2="534.496" y1="376.0" y2="376.0" /><line stroke="#2a2a2a" stroke-width="1.4" x1="451.504" x2="534.496" y1="399.4" y2="399.4" /><line stroke="#2a2a2a" stroke-width="1.4" x1="451.504" x2="534.496" y1="422.8" y2="422.8" /><line stroke="#2a2a2a" stroke-width="1.4" x1="451.504" x2="534.496" y1="446.2" y2="446.2" /><line stroke="#2a2a2a" stroke-width="1.4" x1="451.504" x2="534.496" y1="469.6" y2="469.6" /><text fill="#202020" font-size="11" text-anchor="middle" x="493.0" y="411.1">Stair (DN)</text><text fill="#3a3a3a" font-size="9.0" text-anchor="middle" x="493.0" y="425.5">13R/12T</text><text fill="#4a4a4a" font-size="7.8" text-anchor="middle" x="493.0" y="433.9">H2730 R210 T228</text><line stroke="#ffffff" stroke-width="7" x1="547.6" x2="547.6" y1="438.4" y2="493.0" /><line stroke="#5e5e5e" stroke-width="1.0" x1="547.6" x2="547.6" y1="438.4" y2="493.0" /><line stroke="#ffffff" stroke-width="6" x1="766.0" x2="766.0" y1="447.4" y2="538.6" /><line stroke="#ffffff" stroke-width="6" x1="325.0" x2="442.6" y1="602.2" y2="602.2" /><line stroke="#595959" stroke-width="1.2" x1="325.0" x2="401.44" y1="602.2" y2="678.64" /><path d="M 401.44,602.2 A 76.44,76.44 0 0 1 401.44,678.64" fill="none" stroke="#7a7a7a" stroke-width="1.0" /><line stroke="#ffffff" stroke-width="6" x1="766.0" x2="766.0" y1="529.3" y2="620.5" /><line stroke="#ffffff" stroke-width="6" x1="766.0" x2="766.0" y1="280.06" y2="378.34" /><line stroke="#66a7ff" stroke-width="2.2" x1="1309.36" x2="1309.36" y1="328.12" y2="439.48" /><line stroke="#66a7ff" stroke-width="2.2" x1="1314.64" x2="1314.64" y1="328.12" y2="439.48" /><line stroke="#66a7ff" stroke-width="2.2" x1="826.06" x2="1011.7" y1="217.36" y2="217.36" /><line stroke="#66a7ff" stroke-width="2.2" x1="826.06" x2="1011.7" y1="222.64" y2="222.64" /><line stroke="#66a7ff" stroke-width="2.2" x1="1066.3" x2="1251.94" y1="217.36" y2="217.36" /><line stroke="#66a7ff" stroke-width="2.2" x1="1066.3" x2="1251.94" y1="222.64" y2="222.64" /><line stroke="#66a7ff" stroke-width="2.2" x1="217.36" x2="217.36" y1="728.38" y2="858.22" /><line stroke="#66a7ff" stroke-width="2.2" x1="222.64" x2="222.64" y1="728.38" y2="858.22" /><line stroke="#66a7ff" stroke-width="2.2" x1="268.084" x2="416.524" y1="981.76" y2="981.76" /><line stroke="#66a7ff" stroke-width="2.2" x1="268.084" x2="416.524" y1="987.04" y2="987.04" /><line stroke="#66a7ff" stroke-width="2.2" x1="460.276" x2="608.716" y1="981.76" y2="981.76" /><line stroke="#66a7ff" stroke-width="2.2" x1="460.276" x2="608.716" y1="987.04" y2="987.04" /><line stroke="#66a7ff" stroke-width="2.2" x1="814.084" x2="962.524" y1="981.76" y2="981.76" /><line stroke="#66a7ff" stroke-width="2.2" x1="814.084" x2="962.524" y1="987.04" y2="987.04" /><line stroke="#66a7ff" stroke-width="2.2" x1="1006.276" x2="1154.716" y1="981.76" y2="981.76" /><line stroke="#66a7ff" stroke-width="2.2" x1="1006.276" x2="1154.716" y1="987.04" y2="987.04" /><line stroke="#9a9a9a" stroke-width="0.8" x1="556.0" x2="757.6" y1="446.8" y2="446.8" /><line stroke="#9a9a9a" stroke-width="0.8" x1="556.0" x2="556.0" y1="443.44" y2="450.16" /><line stroke="#9a9a9a" stroke-width="0.8" x1="757.6" x2="757.6" y1="443.44" y2="450.16" /><text fill="#8a8a8a" font-size="7.6" text-anchor="start" x="562.72" y="444.15999999999997">1820mm</text><line stroke="#9a9a9a" stroke-width="0.8" x1="556.0" x2="556.0" y1="446.8" y2="593.8" /><line stroke="#9a9a9a" stroke-width="0.8" x1="552.64" x2="559.36" y1="446.8" y2="446.8" /><line stroke="#9a9a9a" stroke-width="0.8" x1="552.64" x2="559.36" y1="593.8" y2="593.8" /><text fill="#8a8a8a" font-size="7.6" text-anchor="start" x="560.0799999999999" y="454.48">1365mm</text><line stroke="#9a9a9a" stroke-width="0.8" x1="228.4" x2="320.8" y1="228.4" y2="228.4" /><line stroke="#9a9a9a" stroke-width="0.8" x1="228.4" x2="228.4" y1="225.04" y2="231.76" /><line stroke="#9a9a9a" stroke-width="0.8" x1="320.8" x2="320.8" y1="225.04" y2="231.76" /><text fill="#8a8a8a" font-size="7.6" text-anchor="start" x="235.12" y="225.76">910mm</text><line stroke="#9a9a9a" stroke-width="0.8" x1="228.4" x2="228.4" y1="228.4" y2="484.6" /><line stroke="#9a9a9a" stroke-width="0.8" x1="225.04" x2="231.76" y1="228.4" y2="228.4" /><line stroke="#9a9a9a" stroke-width="0.8" x1="225.04" x2="231.76" y1="484.6" y2="484.6" /><text fill="#8a8a8a" font-size="7.6" text-anchor="start" x="232.48" y="236.07999999999998">2275mm</text><text fill="#1b1b1b" font-size="10" text-anchor="middle" x="493.0" y="778.9">Bedroom 2</text><text fill="#1b1b1b" font-size="10" text-anchor="middle" x="493.0" y="789.6999999999999">4550x3185mm</text><text fill="#1b1b1b" font-size="10" text-anchor="middle" x="493.0" y="800.5">14.5sqm / 8.9jo</text><text fill="#1b1b1b" font-size="10" text-anchor="middle" x="1039.0" y="751.6">Bedroom 3</text><text fill="#1b1b1b" font-size="10" text-anchor="middle" x="1039.0" y="762.4">4550x3640mm</text><text fill="#1b1b1b" font-size="10" text-anchor="middle" x="1039.0" y="773.1999999999999">16.6sqm / 10.2jo</text><text fill="#1b1b1b" font-size="9" text-anchor="middle" x="448.035294117647" y="467.3588235294118">Hall 2</text><text fill="#1b1b1b" font-size="9" text-anchor="middle" x="448.035294117647" y="478.1588235294118">7.0sqm / 4.3jo</text><text fill="#1b1b1b" font-size="10" text-anchor="middle" x="1039.0" y="369.4">Master</text><text fill="#1b1b1b" font-size="10" text-anchor="middle" x="1039.0" y="380.2">4550x2730mm</text><text fill="#1b1b1b" font-size="10" text-anchor="middle" x="1039.0" y="391.0">12.4sqm / 7.7jo</text><text fill="#1b1b1b" font-size="10" text-anchor="middle" x="656.8" y="314.8">W.I.C</text><text fill="#1b1b1b" font-size="10" text-anchor="middle" x="656.8" y="325.6">to master</text><text fill="#1b1b1b" font-size="10" text-anchor="middle" x="656.8" y="336.4">1820x1820mm</text><text fill="#1b1b1b" font-size="10" text-anchor="middle" x="656.8" y="347.2">3.3sqm / 2.0jo</text><text fill="#4a4a4a" font-size="10" text-anchor="middle" x="711.4" y="793.3">CL</text><text fill="#4a4a4a" font-size="10" text-anchor="middle" x="1257.3999999999999" y="766.0">CL</text><text fill="#111111" font-size="14" x="220.0" y="180.0">F2 Plan  (9100 x 6370 mm)</text><text fill="#444444" font-size="10" x="220.0" y="198.0">Scale: 1px=8.3mm</text><rect fill="#ffffff" height="144" stroke="#777777" stroke-width="1" width="170" x="1400.0" y="150.0" /><text fill="#111111" font-size="11" x="1408.0" y="164.0">Legend</text><rect fill="#efe9ff" height="12" stroke="#333333" stroke-width="1" width="12" x="1408.0" y="174.0" /><text fill="#222222" font-size="10" x="1426.0" y="184.0">Hall</text><rect fill="#c5e8ff" height="12" stroke="#333333" stroke-width="1" width="12" x="1408.0" y="192.0" /><text fill="#222222" font-size="10" x="1426.0" y="202.0">Master Bedroom</text><rect fill="#d9f2ff" height="12" stroke="#333333" stroke-width="1" width="12" x="1408.0" y="210.0" /><text fill="#222222" font-size="10" x="1426.0" y="220.0">Bedroom</text><rect fill="#f7f3ea" height="12" stroke="#333333" stroke-width="1" width="12" x="1408.0" y="228.0" /><text fill="#222222" font-size="10" x="1426.0" y="238.0">Closet</text><rect fill="#ece7dd" height="12" stroke="#333333" stroke-width="1" width="12" x="1408.0" y="246.0" /><text fill="#222222" font-size="10" x="1426.0" y="256.0">Wic</text><line stroke="#6aa4ff" stroke-width="4" x1="1408.0" x2="1435.0" y1="276.0" y2="276.0" /><text fill="#222222" font-size="10" x="1442.0" y="279.0">Window</text><line stroke="#666666" stroke-width="2.4" x1="1408.0" x2="1435.0" y1="292.0" y2="292.0" /><path d="M 1408.0,292.0 A 10,10 0 0 1 1418.0,282.0" fill="none" stroke="#666666" stroke-width="1.2" /><text fill="#222222" font-size="10" x="1442.0" y="295.0">Door</text><rect fill="#ffffff" height="84" stroke="#777777" stroke-width="1" width="200" x="1400.0" y="520.0" /><text fill="#111111" font-size="10" x="1408.0" y="533.0">Area (F2)</text><text fill="#222222" font-size="9" x="1408.0" y="550.0">F1: in 58.0 sqm (17.5 tsubo), out 0.0 sqm (0.0 tsubo)</text><text fill="#222222" font-size="9" x="1408.0" y="566.0">F2: in 58.0 sqm (17.5 tsubo), out 0.0 sqm (0.0 tsubo)</text><text fill="#222222" font-size="9" x="1408.0" y="582.0">Total indoor: 115.9 sqm (35.1 tsubo)</text><text fill="#222222" font-size="9" x="1408.0" y="598.0">Total outdoor: 0.0 sqm (0.0 tsubo)</text><line stroke="#111111" stroke-width="2" x1="175.0" x2="175.0" y1="238.0" y2="208.0" /><polygon fill="#111111" points="175.0,208.0 181.0,214.0 169.0,214.0" /><text fill="#111111" font-size="12" x="170.0" y="202.0">N</text><line stroke="#545454" stroke-width="1.0" x1="220.0" x2="1312.0" y1="148.0" y2="148.0" /><line stroke="#545454" stroke-width="0.8" x1="220.0" x2="220.0" y1="220.0" y2="148.0" /><line stroke="#545454" stroke-width="1.0" x1="220.0" x2="220.0" y1="145.0" y2="151.0" /><line stroke="#545454" stroke-width="0.8" x1="1312.0" x2="1312.0" y1="220.0" y2="148.0" /><line stroke="#545454" stroke-width="1.0" x1="1312.0" x2="1312.0" y1="145.0" y2="151.0" /><text fill="#545454" font-size="8.8" text-anchor="middle" x="766.0" y="145.0">9100mm</text><line stroke="#666666" stroke-width="1.0" x1="220.0" x2="1312.0" y1="166.0" y2="166.0" /><line stroke="#666666" stroke-width="0.8" x1="220.0" x2="220.0" y1="220.0" y2="166.0" /><line stroke="#666666" stroke-width="1.0" x1="220.0" x2="220.0" y1="163.0" y2="169.0" /><line stroke="#666666" stroke-width="0.8" x1="329.2" x2="329.2" y1="220.0" y2="166.0" /><line stroke="#666666" stroke-width="1.0" x1="329.2" x2="329.2" y1="163.0" y2="169.0" /><line stroke="#666666" stroke-width="0.8" x1="547.6" x2="547.6" y1="220.0" y2="166.0" /><line stroke="#666666" stroke-width="1.0" x1="547.6" x2="547.6" y1="163.0" y2="169.0" /><line stroke="#666666" stroke-width="0.8" x1="766.0" x2="766.0" y1="220.0" y2="166.0" /><line stroke="#666666" stroke-width="1.0" x1="766.0" x2="766.0" y1="163.0" y2="169.0" /><line stroke="#666666" stroke-width="0.8" x1="1312.0" x2="1312.0" y1="220.0" y2="166.0" /><line stroke="#666666" stroke-width="1.0" x1="1312.0" x2="1312.0" y1="163.0" y2="169.0" /><text fill="#666666" font-size="8.2" text-anchor="middle" x="274.6" y="163.0">910</text><text fill="#666666" font-size="8.2" text-anchor="middle" x="438.4" y="163.0">1820</text><text fill="#666666" font-size="8.2" text-anchor="middle" x="656.8" y="163.0">1820</text><text fill="#666666" font-size="8.2" text-anchor="middle" x="1039.0" y="163.0">4550</text><line stroke="#7a7a7a" stroke-width="1.0" x1="220.0" x2="1312.0" y1="184.0" y2="184.0" /><line stroke="#7a7a7a" stroke-width="0.8" x1="220.0" x2="220.0" y1="220.0" y2="184.0" /><line stroke="#7a7a7a" stroke-width="1.0" x1="220.0" x2="220.0" y1="181.0" y2="187.0" /><line stroke="#7a7a7a" stroke-width="0.8" x1="820.6" x2="820.6" y1="220.0" y2="184.0" /><line stroke="#7a7a7a" stroke-width="1.0" x1="820.6" x2="820.6" y1="181.0" y2="187.0" /><line stroke="#7a7a7a" stroke-width="0.8" x1="1039.0" x2="1039.0" y1="220.0" y2="184.0" /><line stroke="#7a7a7a" stroke-width="1.0" x1="1039.0" x2="1039.0" y1="181.0" y2="187.0" /><line stroke="#7a7a7a" stroke-width="0.8" x1="1257.4" x2="1257.4" y1="220.0" y2="184.0" /><line stroke="#7a7a7a" stroke-width="1.0" x1="1257.4" x2="1257.4" y1="181.0" y2="187.0" /><line stroke="#7a7a7a" stroke-width="0.8" x1="1312.0" x2="1312.0" y1="220.0" y2="184.0" /><line stroke="#7a7a7a" stroke-width="1.0" x1="1312.0" x2="1312.0" y1="181.0" y2="187.0" /><text fill="#7a7a7a" font-size="7.8" text-anchor="middle" x="520.3" y="181.0">5005</text><text fill="#7a7a7a" font-size="7.8" text-anchor="middle" x="929.8" y="181.0">1820</text><text fill="#7a7a7a" font-size="7.8" text-anchor="middle" x="1148.1999999999998" y="181.0">1820</text><line stroke="#545454" stroke-width="1.0" x1="220.0" x2="1312.0" y1="1056.4" y2="1056.4" /><line stroke="#545454" stroke-width="0.8" x1="220.0" x2="220.0" y1="984.4" y2="1056.4" /><line stroke="#545454" stroke-width="1.0" x1="220.0" x2="220.0" y1="1053.4" y2="1059.4" /><line stroke="#545454" stroke-width="0.8" x1="1312.0" x2="1312.0" y1="984.4" y2="1056.4" /><line stroke="#545454" stroke-width="1.0" x1="1312.0" x2="1312.0" y1="1053.4" y2="1059.4" /><text fill="#545454" font-size="8.8" text-anchor="middle" x="766.0" y="1066.4">9100mm</text><line stroke="#666666" stroke-width="1.0" x1="220.0" x2="1312.0" y1="1038.4" y2="1038.4" /><line stroke="#666666" stroke-width="0.8" x1="220.0" x2="220.0" y1="984.4" y2="1038.4" /><line stroke="#666666" stroke-width="1.0" x1="220.0" x2="220.0" y1="1035.4" y2="1041.4" /><line stroke="#666666" stroke-width="0.8" x1="766.0" x2="766.0" y1="984.4" y2="1038.4" /><line stroke="#666666" stroke-width="1.0" x1="766.0" x2="766.0" y1="1035.4" y2="1041.4" /><line stroke="#666666" stroke-width="0.8" x1="1312.0" x2="1312.0" y1="984.4" y2="1038.4" /><line stroke="#666666" stroke-width="1.0" x1="1312.0" x2="1312.0" y1="1035.4" y2="1041.4" /><text fill="#666666" font-size="8.2" text-anchor="middle" x="493.0" y="1048.4">4550</text><text fill="#666666" font-size="8.2" text-anchor="middle" x="1039.0" y="1048.4">4550</text><line stroke="#7a7a7a" stroke-width="1.0" x1="220.0" x2="1312.0" y1="1020.4" y2="1020.4" /><line stroke="#7a7a7a" stroke-width="0.8" x1="220.0" x2="220.0" y1="984.4" y2="1020.4" /><line stroke="#7a7a7a" stroke-width="1.0" x1="220.0" x2="220.0" y1="1017.4" y2="1023.4" /><line stroke="#7a7a7a" stroke-width="0.8" x1="274.6" x2="274.6" y1="984.4" y2="1020.4" /><line stroke="#7a7a7a" stroke-width="1.0" x1="274.6" x2="274.6" y1="1017.4" y2="1023.4" /><line stroke="#7a7a7a" stroke-width="0.8" x1="438.4" x2="438.4" y1="984.4" y2="1020.4" /><line stroke="#7a7a7a" stroke-width="1.0" x1="438.4" x2="438.4" y1="1017.4" y2="1023.4" /><line stroke="#7a7a7a" stroke-width="0.8" x1="602.2" x2="602.2" y1="984.4" y2="1020.4" /><line stroke="#7a7a7a" stroke-width="1.0" x1="602.2" x2="602.2" y1="1017.4" y2="1023.4" /><line stroke="#7a7a7a" stroke-width="0.8" x1="820.6" x2="820.6" y1="984.4" y2="1020.4" /><line stroke="#7a7a7a" stroke-width="1.0" x1="820.6" x2="820.6" y1="1017.4" y2="1023.4" /><line stroke="#7a7a7a" stroke-width="0.8" x1="984.4" x2="984.4" y1="984.4" y2="1020.4" /><line stroke="#7a7a7a" stroke-width="1.0" x1="984.4" x2="984.4" y1="1017.4" y2="1023.4" /><line stroke="#7a7a7a" stroke-width="0.8" x1="1148.2" x2="1148.2" y1="984.4" y2="1020.4" /><line stroke="#7a7a7a" stroke-width="1.0" x1="1148.2" x2="1148.2" y1="1017.4" y2="1023.4" /><line stroke="#7a7a7a" stroke-width="0.8" x1="1312.0" x2="1312.0" y1="984.4" y2="1020.4" /><line stroke="#7a7a7a" stroke-width="1.0" x1="1312.0" x2="1312.0" y1="1017.4" y2="1023.4" /><text fill="#7a7a7a" font-size="7.8" text-anchor="middle" x="356.5" y="1030.4">1365</text><text fill="#7a7a7a" font-size="7.8" text-anchor="middle" x="520.3" y="1030.4">1365</text><text fill="#7a7a7a" font-size="7.8" text-anchor="middle" x="711.4" y="1030.4">1820</text><text fill="#7a7a7a" font-size="7.8" text-anchor="middle" x="902.5" y="1030.4">1365</text><text fill="#7a7a7a" font-size="7.8" text-anchor="middle" x="1066.3" y="1030.4">1365</text><text fill="#7a7a7a" font-size="7.8" text-anchor="middle" x="1230.1" y="1030.4">1365</text><line stroke="#545454" stroke-width="1.0" x1="148.0" x2="148.0" y1="220.0" y2="984.4" /><line stroke="#545454" stroke-width="0.8" x1="220.0" x2="148.0" y1="220.0" y2="220.0" /><line stroke="#545454" stroke-width="1.0" x1="145.0" x2="151.0" y1="220.0" y2="220.0" /><line stroke="#545454" stroke-width="0.8" x1="220.0" x2="148.0" y1="984.4" y2="984.4" /><line stroke="#545454" stroke-width="1.0" x1="145.0" x2="151.0" y1="984.4" y2="984.4" /><text fill="#545454" font-size="8.8" x="144.0" y="602.2">6370mm</text><line stroke="#666666" stroke-width="1.0" x1="166.0" x2="166.0" y1="220.0" y2="984.4" /><line stroke="#666666" stroke-width="0.8" x1="220.0" x2="166.0" y1="220.0" y2="220.0" /><line stroke="#666666" stroke-width="1.0" x1="163.0" x2="169.0" y1="220.0" y2="220.0" /><line stroke="#666666" stroke-width="0.8" x1="220.0" x2="166.0" y1="493.0" y2="493.0" /><line stroke="#666666" stroke-width="1.0" x1="163.0" x2="169.0" y1="493.0" y2="493.0" /><line stroke="#666666" stroke-width="0.8" x1="220.0" x2="166.0" y1="602.2" y2="602.2" /><line stroke="#666666" stroke-width="1.0" x1="163.0" x2="169.0" y1="602.2" y2="602.2" /><line stroke="#666666" stroke-width="0.8" x1="220.0" x2="166.0" y1="984.4" y2="984.4" /><line stroke="#666666" stroke-width="1.0" x1="163.0" x2="169.0" y1="984.4" y2="984.4" /><text fill="#666666" font-size="8.2" x="162.0" y="356.5">2275</text><text fill="#666666" font-size="8.2" x="162.0" y="547.5999999999999">910</text><text fill="#666666" font-size="8.2" x="162.0" y="793.3">3185</text><line stroke="#7a7a7a" stroke-width="1.0" x1="184.0" x2="184.0" y1="220.0" y2="984.4" /><line stroke="#7a7a7a" stroke-width="0.8" x1="220.0" x2="184.0" y1="220.0" y2="220.0" /><line stroke="#7a7a7a" stroke-width="1.0" x1="181.0" x2="187.0" y1="220.0" y2="220.0" /><line stroke="#7a7a7a" stroke-width="0.8" x1="220.0" x2="184.0" y1="711.4" y2="711.4" /><line stroke="#7a7a7a" stroke-width="1.0" x1="181.0" x2="187.0" y1="711.4" y2="711.4" /><line stroke="#7a7a7a" stroke-width="0.8" x1="220.0" x2="184.0" y1="875.2" y2="875.2" /><line stroke="#7a7a7a" stroke-width="1.0" x1="181.0" x2="187.0" y1="875.2" y2="875.2" /><line stroke="#7a7a7a" stroke-width="0.8" x1="220.0" x2="184.0" y1="984.4" y2="984.4" /><line stroke="#7a7a7a" stroke-width="1.0" x1="181.0" x2="187.0" y1="984.4" y2="984.4" /><text fill="#7a7a7a" font-size="7.8" x="180.0" y="465.7">4095</text><text fill="#7a7a7a" font-size="7.8" x="180.0" y="793.3">1365</text><text fill="#7a7a7a" font-size="7.8" x="180.0" y="929.8">910</text><line stroke="#545454" stroke-width="1.0" x1="1384.0" x2="1384.0" y1="220.0" y2="984.4" /><line stroke="#545454" stroke-width="0.8" x1="1312.0" x2="1384.0" y1="220.0" y2="220.0" /><line stroke="#545454" stroke-width="1.0" x1="1381.0" x2="1387.0" y1="220.0" y2="220.0" /><line stroke="#545454" stroke-width="0.8" x1="1312.0" x2="1384.0" y1="984.4" y2="984.4" /><line stroke="#545454" stroke-width="1.0" x1="1381.0" x2="1387.0" y1="984.4" y2="984.4" /><text fill="#545454" font-size="8.8" x="1389.0" y="602.2">6370mm</text><line stroke="#666666" stroke-width="1.0" x1="1366.0" x2="1366.0" y1="220.0" y2="984.4" /><line stroke="#666666" stroke-width="0.8" x1="1312.0" x2="1366.0" y1="220.0" y2="220.0" /><line stroke="#666666" stroke-width="1.0" x1="1363.0" x2="1369.0" y1="220.0" y2="220.0" /><line stroke="#666666" stroke-width="0.8" x1="1312.0" x2="1366.0" y1="547.6" y2="547.6" /><line stroke="#666666" stroke-width="1.0" x1="1363.0" x2="1369.0" y1="547.6" y2="547.6" /><line stroke="#666666" stroke-width="0.8" x1="1312.0" x2="1366.0" y1="984.4" y2="984.4" /><line stroke="#666666" stroke-width="1.0" x1="1363.0" x2="1369.0" y1="984.4" y2="984.4" /><text fill="#666666" font-size="8.2" x="1371.0" y="383.79999999999995">2730</text><text fill="#666666" font-size="8.2" x="1371.0" y="766.0">3640</text><line stroke="#7a7a7a" stroke-width="1.0" x1="1348.0" x2="1348.0" y1="220.0" y2="984.4" /><line stroke="#7a7a7a" stroke-width="0.8" x1="1312.0" x2="1348.0" y1="220.0" y2="220.0" /><line stroke="#7a7a7a" stroke-width="1.0" x1="1345.0" x2="1351.0" y1="220.0" y2="220.0" /><line stroke="#7a7a7a" stroke-width="0.8" x1="1312.0" x2="1348.0" y1="329.2" y2="329.2" /><line stroke="#7a7a7a" stroke-width="1.0" x1="1345.0" x2="1351.0" y1="329.2" y2="329.2" /><line stroke="#7a7a7a" stroke-width="0.8" x1="1312.0" x2="1348.0" y1="438.4" y2="438.4" /><line stroke="#7a7a7a" stroke-width="1.0" x1="1345.0" x2="1351.0" y1="438.4" y2="438.4" /><line stroke="#7a7a7a" stroke-width="0.8" x1="1312.0" x2="1348.0" y1="984.4" y2="984.4" /><line stroke="#7a7a7a" stroke-width="1.0" x1="1345.0" x2="1351.0" y1="984.4" y2="984.4" /><text fill="#7a7a7a" font-size="7.8" x="1353.0" y="274.6">910</text><text fill="#7a7a7a" font-size="7.8" x="1353.0" y="383.79999999999995">910</text><text fill="#7a7a7a" font-size="7.8" x="1353.0" y="711.4">4550</text></svg>