<?xml version="1.0" encoding="utf-8" ?>
<svg baseProfile="tiny" height="1313.6px" version="1.2" width="1532.0px" xmlns="http://www.w3.org/2000/svg" xmlns:ev="http://www.w3.org/2001/xml-events" xmlns:xlink="http://www.w3.org/1999/xlink"><defs /><rect fill="#fafafa" height="1313.6" width="1532.0" x="0" y="0" /><line stroke="#ececec" stroke-width="0.7" x1="220.0" x2="220.0" y1="220.0" y2="1093.6" /><line stroke="#ececec" stroke-width="0.7" x1="274.6" x2="274.6" y1="220.0" y2="1093.6" /><line stroke="#ececec" stroke-width="0.7" x1="329.2" x2="329.2" y1="220.0" y2="1093.6" /><line stroke="#ececec" stroke-width="0.7" x1="383.8" x2="383.8" y1="220.0" y2="1093.6" /><line stroke="#ececec" stroke-width="0.7" x1="438.4" x2="438.4" y1="220.0" y2="1093.6" /><line stroke="#ececec" stroke-width="0.7" x1="493.0" x2="493.0" y1="220.0" y2="1093.6" /><line stroke="#ececec" stroke-width="0.7" x1="547.6" x2="547.6" y1="220.0" y2="1093.6" /><line stroke="#ececec" stroke-width="0.7" x1="602.2" x2="602.2" y1="220.0" y2="1093.6" /><line stroke="#ececec" stroke-width="0.7" x1="656.8" x2="656.8" y1="220.0" y2="1093.6" /><line stroke="#ececec" stroke-width="0.7" x1="711.4" x2="711.4" y1="220.0" y2="1093.6" /><line stroke="#ececec" stroke-width="0.7" x1="766.0" x2="766.0" y1="220.0" y2="1093.6" /><line stroke="#ececec" stroke-width="0.7" x1="820.6" x2="820.6" y1="220.0" y2="1093.6" /><line stroke="#ececec" stroke-width="0.7" x1="875.2" x2="875.2" y1="220.0" y2="1093.6" /><line stroke="#ececec" stroke-width="0.7" x1="929.8" x2="929.8" y1="220.0" y2="1093.6" /><line stroke="#ececec" stroke-width="0.7" x1="984.4" x2="984.4" y1="220.0" y2="1093.6" /><line stroke="#ececec" stroke-width="0.7" x1="1039.0" x2="1039.0" y1="220.0" y2="1093.6" /><line stroke="#ececec" stroke-width="0.7" x1="1093.6" x2="1093.6" y1="220.0" y2="1093.6" /><line stroke="#ececec" stroke-width="0.7" x1="1148.2" x2="1148.2" y1="220.0" y2="1093.6" /><line stroke="#ececec" stroke-width="0.7" x1="1202.8" x2="1202.8" y1="220.0" y2="1093.6" /><line stroke="#ececec" stroke-width="0.7" x1="1257.4" x2="1257.4" y1="220.0" y2="1093.6" /><line stroke="#ececec" stroke-width="0.7" x1="1312.0" x2="1312.0" y1="220.0" y2="1093.6" /><line stroke="#d1d1d1" stroke-width="1.1" x1="220.0" x2="220.0" y1="220.0" y2="1093.6" /><line stroke="#d1d1d1" stroke-width="1.1" x1="329.2" x2="329.2" y1="220.0" y2="1093.6" /><line stroke="#d1d1d1" stroke-width="1.1" x1="438.4" x2="438.4" y1="220.0" y2="1093.6" /><line stroke="#d1d1d1" stroke-width="1.1" x1="547.6" x2="547.6" y1="220.0" y2="1093.6" /><line stroke="#d1d1d1" stroke-width="1.1" x1="656.8" x2="656.8" y1="220.0" y2="1093.6" /><line stroke="#d1d1d1" stroke-width="1.1" x1="766.0" x2="766.0" y1="220.0" y2="1093.6" /><line stroke="#d1d1d1" stroke-width="1.1" x1="875.2" x2="875.2" y1="220.0" y2="1093.6" /><line stroke="#d1d1d1" stroke-width="1.1" x1="984.4" x2="984.4" y1="220.0" y2="1093.6" /><line stroke="#d1d1d1" stroke-width="1.1" x1="1093.6" x2="1093.6" y1="220.0" y2="1093.6" /><line stroke="#d1d1d1" stroke-width="1.1" x1="1202.8" x2="1202.8" y1="220.0" y2="1093.6" /><line stroke="#d1d1d1" stroke-width="1.1" x1="1312.0" x2="1312.0" y1="220.0" y2="1093.6" /><line stroke="#d1d1d1" stroke-width="1.1" x1="220.0" x2="1312.0" y1="220.0" y2="220.0" /><line stroke="#d1d1d1" stroke-width="1.1" x1="220.0" x2="1312.0" y1="329.2" y2="329.2" /><line stroke="#d1d1d1" stroke-width="1.1" x1="220.0" x2="1312.0" y1="438.4" y2="438.4" /><line stroke="#d1d1d1" stroke-width="1.1" x1="220.0" x2="1312.0" y1="547.6" y2="547.6" /><line stroke="#d1d1d1" stroke-width="1.1" x1="220.0" x2="1312.0" y1="656.8" y2="656.8" /><line stroke="#d1d1d1" stroke-width="1.1" x1="220.0" x2="1312.0" y1="766.0" y2="766.0" /><line stroke="#d1d1d1" stroke-width="1.1" x1="220.0" x2="1312.0" y1="875.2" y2="875.2" /><line stroke="#d1d1d1" stroke-width="1.1" x1="220.0" x2="1312.0" y1="984.4" y2="984.4" /><line stroke="#d1d1d1" stroke-width="1.1" x1="220.0" x2="1312.0" y1="1093.6" y2="1093.6" /><line stroke="#ececec" stroke-width="0.7" x1="220.0" x2="1312.0" y1="220.0" y2="220.0" /><line stroke="#ececec" stroke-width="0.7" x1="220.0" x2="1312.0" y1="274.6" y2="274.6" /><line stroke="#ececec" stroke-width="0.7" x1="220.0" x2="1312.0" y1="329.2" y2="329.2" /><line stroke="#ececec" stroke-width="0.7" x1="220.0" x2="1312.0" y1="383.8" y2="383.8" /><line stroke="#ececec" stroke-width="0.7" x1="220.0" x2="1312.0" y1="438.4" y2="438.4" /><line stroke="#ececec" stroke-width="0.7" x1="220.0" x2="1312.0" y1="493.0" y2="493.0" /><line stroke="#ececec" stroke-width="0.7" x1="220.0" x2="1312.0" y1="547.6" y2="547.6" /><line stroke="#ececec" stroke-width="0.7" x1="220.0" x2="1312.0" y1="602.2" y2="602.2" /><line stroke="#ececec" stroke-width="0.7" x1="220.0" x2="1312.0" y1="656.8" y2="656.8" /><line stroke="#ececec" stroke-width="0.7" x1="220.0" x2="1312.0" y1="711.4" y2="711.4" /><line stroke="#ececec" stroke-width="0.7" x1="220.0" x2="1312.0" y1="766.0" y2="766.0" /><line stroke="#ececec" stroke-width="0.7" x1="220.0" x2="1312.0" y1="820.6" y2="820.6" /><line stroke="#ececec" stroke-width="0.7" x1="220.0" x2="1312.0" y1="875.2" y2="875.2" /><line stroke="#ececec" stroke-width="0.7" x1="220.0" x2="1312.0" y1="929.8" y2="929.8" /><line stroke="#ececec" stroke-width="0.7" x1="220.0" x2="1312.0" y1="984.4" y2="984.4" /><line stroke="#ececec" stroke-width="0.7" x1="220.0" x2="1312.0" y1="1039.0" y2="1039.0" /><line stroke="#ececec" stroke-width="0.7" x1="220.0" x2="1312.0" y1="1093.6" y2="1093.6" /><rect fill="none" height="873.6" stroke="#6a6a6a" stroke-dasharray="8,4" stroke-width="2" width="1092.0" x="220.0" y="220.0" /><rect fill="none" height="873.6" stroke="#1f1f1f" stroke-width="3.5" width="1092.0" x="220.0" y="220.0" /><text fill="#555555" font-size="10" x="222.0" y="160.0">Site Envelope = Building Footprint</text><rect fill="#d9f2ff" height="436.8" stroke="none" width="436.8" x="220.0" y="220.0" /><line stroke="#2f2f2f" stroke-width="2.2" x1="220.0" x2="656.8" y1="220.0" y2="220.0" /><line stroke="#2f2f2f" stroke-width="2.2" x1="220.0" x2="656.8" y1="656.8" y2="656.8" /><line stroke="#2f2f2f" stroke-width="2.2" x1="220.0" x2="220.0" y1="220.0" y2="656.8" /><line stroke="#2f2f2f" stroke-width="2.2" x1="656.8" x2="656.8" y1="220.0" y2="656.8" /><rect fill="#d9f2ff" height="436.8" stroke="none" width="436.8" x="220.0" y="656.8" /><line stroke="#2f2f2f" stroke-width="2.2" x1="220.0" x2="656.8" y1="1093.6" y2="1093.6" /><line stroke="#2f2f2f" stroke-width="2.2" x1="220.0" x2="656.8" y1="656.8" y2="656.8" /><line stroke="#2f2f2f" stroke-width="2.2" x1="220.0" x2="220.0" y1="656.8" y2="1093.6" /><line stroke="#2f2f2f" stroke-width="2.2" x1="656.8" x2="656.8" y1="656.8" y2="1093.6" /><rect fill="#d9f2ff" height="327.6" stroke="none" width="436.8" x="656.8" y="220.0" /><line stroke="#2f2f2f" stroke-width="2.2" x1="656.8" x2="1093.6" y1="220.0" y2="220.0" /><line stroke="#2f2f2f" stroke-width="2.2" x1="656.8" x2="1093.6" y1="547.6" y2="547.6" /><line stroke="#2f2f2f" stroke-width="2.2" x1="1093.6" x2="1093.6" y1="220.0" y2="547.6" /><line stroke="#2f2f2f" stroke-width="2.2" x1="656.8" x2="656.8" y1="220.0" y2="547.6" /><rect fill="#efe9ff" height="218.4" stroke="none" width="109.2" x="1202.8" y="875.2" /><rect fill="#efe9ff" height="109.2" stroke="none" width="546.0" x="656.8" y="984.4" /><rect fill="#efe9ff" height="436.8" stroke="none" width="109.2" x="656.8" y="547.6" /><line stroke="#2f2f2f" stroke-width="2.2" x1="656.8" x2="1312.0" y1="1093.6" y2="1093.6" /><line stroke="#2f2f2f" stroke-width="2.2" x1="766.0" x2="1202.8" y1="984.4" y2="984.4" /><line stroke="#2f2f2f" stroke-width="2.2" x1="656.8" x2="766.0" y1="547.6" y2="547.6" /><line stroke="#2f2f2f" stroke-width="2.2" x1="1202.8" x2="1312.0" y1="875.2" y2="875.2" /><line stroke="#2f2f2f" stroke-width="2.2" x1="656.8" x2="656.8" y1="547.6" y2="1093.6" /><line stroke="#2f2f2f" stroke-width="2.2" x1="1312.0" x2="1312.0" y1="875.2" y2="1093.6" /><line stroke="#2f2f2f" stroke-width="2.2" x1="766.0" x2="766.0" y1="547.6" y2="984.4" /><line stroke="#2f2f2f" stroke-width="2.2" x1="1202.8" x2="1202.8" y1="875.2" y2="984.4" /><rect fill="#c5e8ff" height="436.8" stroke="none" width="436.8" x="766.0" y="547.6" /><line stroke="#2f2f2f" stroke-width="2.2" x1="766.0" x2="1202.8" y1="547.6" y2="547.6" /><line stroke="#2f2f2f" stroke-width="2.2" x1="766.0" x2="1202.8" y1="984.4" y2="984.4" /><line stroke="#2f2f2f" stroke-width="2.2" x1="766.0" x2="766.0" y1="547.6" y2="984.4" /><line stroke="#2f2f2f" stroke-width="2.2" x1="1202.8" x2="1202.8" y1="547.6" y2="984.4" /><rect fill="#f0f0f0" height="327.6" stroke="none" width="218.4" x="1093.6" y="220.0" /><line stroke="#2f2f2f" stroke-width="2.2" x1="1093.6" x2="1312.0" y1="220.0" y2="220.0" /><line stroke="#2f2f2f" stroke-width="2.2" x1="1093.6" x2="1312.0" y1="547.6" y2="547.6" /><line stroke="#2f2f2f" stroke-width="2.2" x1="1093.6" x2="1093.6" y1="220.0" y2="547.6" /><line stroke="#2f2f2f" stroke-width="2.2" x1="1312.0" x2="1312.0" y1="220.0" y2="547.6" /><rect fill="none" height="148.512" stroke="#7f7f7f" stroke-width="1.1" width="218.4" x="875.2" y="626.224" /><line stroke="#7f7f7f" stroke-width="0.9" x1="875.2" x2="1093.6" y1="678.2032" y2="678.2032" /><rect fill="none" height="148.512" stroke="#7f7f7f" stroke-width="1.1" width="218.4" x="329.2" y="298.624" /><line stroke="#7f7f7f" stroke-width="0.9" x1="329.2" x2="547.6" y1="350.6032" y2="350.6032" /><rect fill="none" height="148.512" stroke="#7f7f7f" stroke-width="1.1" width="218.4" x="329.2" y="735.424" /><line stroke="#7f7f7f" stroke-width="0.9" x1="329.2" x2="547.6" y1="787.4032" y2="787.4032" /><rect fill="none" height="111.384" stroke="#7f7f7f" stroke-width="1.1" width="218.4" x="766.0" y="278.968" /><line stroke="#7f7f7f" stroke-width="0.9" x1="766.0" x2="984.4" y1="317.9524" y2="317.9524" /><line stroke="#9a9a9a" stroke-width="0.9" x1="1119.808" x2="1285.792" y1="278.968" y2="278.968" /><line stroke="#9a9a9a" stroke-width="0.9" x1="1119.808" x2="1285.792" y1="488.632" y2="488.632" /><rect fill="#ffffff" height="327.6" stroke="#202020" stroke-dasharray="8,4" stroke-width="2.6" width="109.2" x="1202.8" y="547.6" /><line stroke="#2a2a2a" stroke-width="1.4" x1="1215.904" x2="1298.896" y1="572.8" y2="572.8" /><line stroke="#2a2a2a" stroke-width="1.4" x1="1215.904" x2="1298.896" y1="598.0" y2="598.0" /><line stroke="#2a2a2a" stroke-width="1.4" x1="1215.904" x2="1298.896" y1="623.2" y2="623.2" /><line stroke="#2a2a2a" stroke-width="1.4" x1="1215.904" x2="1298.896" y1="648.4" y2="648.4" /><line stroke="#2a2a2a" stroke-width="1.4" x1="1215.904" x2="1298.896" y1="673.6" y2="673.6" /><line stroke="#2a2a2a" stroke-width="1.4" x1="1215.904" x2="1298.896" y1="698.8" y2="698.8" /><line stroke="#2a2a2a" stroke-width="1.4" x1="1215.904" x2="1298.896" y1="724.0" y2="724.0" /><line stroke="#2a2a2a" stroke-width="1.4" x1="1215.904" x2="1298.896" y1="749.2" y2="749.2" /><line stroke="#2a2a2a" stroke-width="1.4" x1="1215.904" x2="1298.896" y1="774.4" y2="774.4" /><line stroke="#2a2a2a" stroke-width="1.4" x1="1215.904" x2="1298.896" y1="799.6" y2="799.6" /><line stroke="#2a2a2a" stroke-width="1.4" x1="1215.904" x2="1298.896" y1="824.8" y2="824.8" /><line stroke="#2a2a2a" stroke-width="1.4" x1="1215.904" x2="1298.896" y1="850.0" y2="850.0" /><text fill="#202020" font-size="11" text-anchor="middle" x="1257.3999999999999" y="711.4">Stair (DN)</text><text fill="#3a3a3a" font-size="9.0" text-anchor="middle" x="1257.3999999999999" y="725.8">13R/12T</text><text fill="#4a4a4a" font-size="7.8" text-anchor="middle" x="1257.3999999999999" y="734.1999999999999">H2730 R210 T228</text><line stroke="#ffffff" stroke-width="7" x1="1202.8" x2="1312.0" y1="875.2" y2="875.2" /><line stroke="#5e5e5e" stroke-width="1.0" x1="1202.8" x2="1312.0" y1="875.2" y2="875.2" /><line stroke="#ffffff" stroke-width="6" x1="925.6" x2="1043.2" y1="984.4" y2="984.4" /><line stroke="#595959" stroke-width="1.2" x1="925.6" x2="1002.04" y1="984.4" y2="907.96" /><path d="M 1002.04,984.4 A 76.44,76.44 0 0 1 1002.04,907.9599999999999" fill="none" stroke="#7a7a7a" stroke-width="1.0" /><line stroke="#ffffff" stroke-width="6" x1="656.8" x2="656.8" y1="556.6" y2="647.8" /><line stroke="#595959" stroke-width="1.2" x1="656.8" x2="716.08" y1="556.6" y2="615.88" /><path d="M 656.8,615.88 A 59.28,59.28 0 0 1 716.0799999999999,615.88" fill="none" stroke="#7a7a7a" stroke-width="1.0" /><line stroke="#ffffff" stroke-width="6" x1="656.8" x2="656.8" y1="761.8" y2="879.4" /><line stroke="#595959" stroke-width="1.2" x1="656.8" x2="580.36" y1="761.8" y2="838.24" /><path d="M 656.8,838.24 A 76.44,76.44 0 0 1 580.36,838.24" fill="none" stroke="#7a7a7a" stroke-width="1.0" /><line stroke="#ffffff" stroke-width="6" x1="665.8" x2="757.0" y1="547.6" y2="547.6" /><line stroke="#ffffff" stroke-width="6" x1="379.6" x2="497.2" y1="656.8" y2="656.8" /><line stroke="#595959" stroke-width="1.2" x1="379.6" x2="456.04" y1="656.8" y2="580.36" /><path d="M 456.03999999999996,656.8 A 76.44,76.44 0 0 1 456.03999999999996,580.36" fill="none" stroke="#7a7a7a" stroke-width="1.0" /><line stroke="#ffffff" stroke-width="6" x1="871.0" x2="988.6" y1="547.6" y2="547.6" /><line stroke="#ffffff" stroke-width="6" x1="1102.6" x2="1193.8" y1="547.6" y2="547.6" /><line stroke="#66a7ff" stroke-width="2.2" x1="217.36" x2="217.36" y1="268.084" y2="416.524" /><line stroke="#66a7ff" stroke-width="2.2" x1="222.64" x2="222.64" y1="268.084" y2="416.524" /><line stroke="#66a7ff" stroke-width="2.2" x1="217.36" x2="217.36" y1="460.276" y2="608.716" /><line stroke="#66a7ff" stroke-width="2.2" x1="222.64" x2="222.64" y1="460.276" y2="608.716" /><line stroke="#66a7ff" stroke-width="2.2" x1="268.084" x2="416.524" y1="217.36" y2="217.36" /><line stroke="#66a7ff" stroke-width="2.2" x1="268.084" x2="416.524" y1="222.64" y2="222.64" /><line stroke="#66a7ff" stroke-width="2.2" x1="460.276" x2="608.716" y1="217.36" y2="217.36" /><line stroke="#66a7ff" stroke-width="2.2" x1="460.276" x2="608.716" y1="222.64" y2="222.64" /><line stroke="#66a7ff" stroke-width="2.2" x1="217.36" x2="217.36" y1="704.884" y2="853.324" /><line stroke="#66a7ff" stroke-width="2.2" x1="222.64" x2="222.64" y1="704.884" y2="853.324" /><line stroke="#66a7ff" stroke-width="2.2" x1="217.36" x2="217.36" y1="897.076" y2="1045.516" /><line stroke="#66a7ff" stroke-width="2.2" x1="222.64" x2="222.64" y1="897.076" y2="1045.516" /><line stroke="#66a7ff" stroke-width="2.2" x1="268.084" x2="416.524" y1="1090.96" y2="1090.96" /><line stroke="#66a7ff" stroke-width="2.2" x1="268.084" x2="416.524" y1="1096.24" y2="1096.24" /><line stroke="#66a7ff" stroke-width="2.2" x1="460.276" x2="608.716" y1="1090.96" y2="1090.96" /><line stroke="#66a7ff" stroke-width="2.2" x1="460.276" x2="608.716" y1="1096.24" y2="1096.24" /><line stroke="#66a7ff" stroke-width="2.2" x1="704.884" x2="853.324" y1="217.36" y2="217.36" /><line stroke="#66a7ff" stroke-width="2.2" x1="704.884" x2="853.324" y1="222.64" y2="222.64" /><line stroke="#66a7ff" stroke-width="2.2" x1="897.076" x2="1045.516" y1="217.36" y2="217.36" /><line stroke="#66a7ff" stroke-width="2.2" x1="897.076" x2="1045.516" y1="222.64" y2="222.64" /><line stroke="#9a9a9a" stroke-width="0.8" x1="1211.2" x2="1303.6" y1="883.6" y2="883.6" /><line stroke="#9a9a9a" stroke-width="0.8" x1="1211.2" x2="1211.2" y1="880.24" y2="886.96" /><line stroke="#9a9a9a" stroke-width="0.8" x1="1303.6" x2="1303.6" y1="880.24" y2="886.96" /><text fill="#8a8a8a" font-size="7.6" text-anchor="start" x="1217.92" y="880.9599999999999">910mm</text><line stroke="#9a9a9a" stroke-width="0.8" x1="1211.2" x2="1211.2" y1="883.6" y2="1085.2" /><line stroke="#9a9a9a" stroke-width="0.8" x1="1207.84" x2="1214.56" y1="883.6" y2="883.6" /><line stroke="#9a9a9a" stroke-width="0.8" x1="1207.84" x2="1214.56" y1="1085.2" y2="1085.2" /><text fill="#8a8a8a" font-size="7.6" text-anchor="start" x="1215.28" y="891.28">1820mm</text><line stroke="#9a9a9a" stroke-width="0.8" x1="665.2" x2="757.6" y1="556.0" y2="556.0" /><line stroke="#9a9a9a" stroke-width="0.8" x1="665.2" x2="665.2" y1="552.64" y2="559.36" /><line stroke="#9a9a9a" stroke-width="0.8" x1="757.6" x2="757.6" y1="552.64" y2="559.36" /><text fill="#8a8a8a" font-size="7.6" text-anchor="start" x="671.92" y="553.36">910mm</text><line stroke="#9a9a9a" stroke-width="0.8" x1="665.2" x2="665.2" y1="556.0" y2="976.0" /><line stroke="#9a9a9a" stroke-width="0.8" x1="661.84" x2="668.56" y1="556.0" y2="556.0" /><line stroke="#9a9a9a" stroke-width="0.8" x1="661.84" x2="668.56" y1="976.0" y2="976.0" /><text fill="#8a8a8a" font-size="7.6" text-anchor="start" x="669.28" y="563.6800000000001">3640mm</text><text fill="#1b1b1b" font-size="10" text-anchor="middle" x="438.4" y="424.0">Bedroom 2</text><text fill="#1b1b1b" font-size="10" text-anchor="middle" x="438.4" y="434.79999999999995">3640x3640mm</text><text fill="#1b1b1b" font-size="10" text-anchor="middle" x="438.4" y="445.6">13.2sqm / 8.2jo</text><text fill="#1b1b1b" font-size="10" text-anchor="middle" x="438.4" y="860.8">Bedroom 3</text><text fill="#1b1b1b" font-size="10" text-anchor="middle" x="438.4" y="871.6">3640x3640mm</text><text fill="#1b1b1b" font-size="10" text-anchor="middle" x="438.4" y="882.4">13.2sqm / 8.2jo</text><text fill="#1b1b1b" font-size="10" text-anchor="middle" x="875.1999999999999" y="369.4">Bedroom 4</text><text fill="#1b1b1b" font-size="10" text-anchor="middle" x="875.1999999999999" y="380.2">3640x2730mm</text><text fill="#1b1b1b" font-size="10" text-anchor="middle" x="875.1999999999999" y="391.0">9.9sqm / 6.1jo</text><text fill="#1b1b1b" font-size="9" text-anchor="middle" x="909.9454545454546" y="915.4">Hall 2</text><text fill="#1b1b1b" font-size="9" text-anchor="middle" x="909.9454545454546" y="926.1999999999999">9.1sqm / 5.6jo</text><text fill="#1b1b1b" font-size="10" text-anchor="middle" x="984.4" y="751.6">Master</text><text fill="#1b1b1b" font-size="10" text-anchor="middle" x="984.4" y="762.4">3640x3640mm</text><text fill="#1b1b1b" font-size="10" text-anchor="middle" x="984.4" y="773.1999999999999">13.2sqm / 8.2jo</text><text fill="#1b1b1b" font-size="10" text-anchor="middle" x="1202.8" y="369.4">Wic 1</text><text fill="#1b1b1b" font-size="10" text-anchor="middle" x="1202.8" y="380.2">1820x2730mm</text><text fill="#1b1b1b" font-size="10" text-anchor="middle" x="1202.8" y="391.0">5.0sqm / 3.1jo</text><text fill="#111111" font-size="14" x="220.0" y="180.0">F2 Plan  (9100 x 7280 mm)</text><text fill="#444444" font-size="10" x="220.0" y="198.0">Scale: 1px=8.3mm</text><rect fill="#ffffff" height="126" stroke="#777777" stroke-width="1" width="170" x="1400.0" y="150.0" /><text fill="#111111" font-size="11" x="1408.0" y="164.0">Legend</text><rect fill="#efe9ff" height="12" stroke="#333333" stroke-width="1" width="12" x="1408.0" y="174.0" /><text fill="#222222" font-size="10" x="1426.0" y="184.0">Hall</text><rect fill="#c5e8ff" height="12" stroke="#333333" stroke-width="1" width="12" x="1408.0" y="192.0" /><text fill="#222222" font-size="10" x="1426.0" y="202.0">Master Bedroom</text><rect fill="#d9f2ff" height="12" stroke="#333333" stroke-width="1" width="12" x="1408.0" y="210.0" /><text fill="#222222" font-size="10" x="1426.0" y="220.0">Bedroom</text><rect fill="#f0f0f0" height="12" stroke="#333333" stroke-width="1" width="12" x="1408.0" y="228.0" /><text fill="#222222" font-size="10" x="1426.0" y="238.0">Storage</text><line stroke="#6aa4ff" stroke-width="4" x1="1408.0" x2="1435.0" y1="258.0" y2="258.0" /><text fill="#222222" font-size="10" x="1442.0" y="261.0">Window</text><line stroke="#666666" stroke-width="2.4" x1="1408.0" x2="1435.0" y1="274.0" y2="274.0" /><path d="M 1408.0,274.0 A 10,10 0 0 1 1418.0,264.0" fill="none" stroke="#666666" stroke-width="1.2" /><text fill="#222222" font-size="10" x="1442.0" y="277.0">Door</text><rect fill="#ffffff" height="68" stroke="#777777" stroke-width="1" width="200" x="1400.0" y="520.0" /><text fill="#111111" font-size="10" x="1408.0" y="533.0">Area (F2)</text><text fill="#222222" font-size="9" x="1408.0" y="550.0">F1: 66.2 sqm (20.0 tsubo)</text><text fill="#222222" font-size="9" x="1408.0" y="566.0">F2: 66.2 sqm (20.0 tsubo)</text><text fill="#222222" font-size="9" x="1408.0" y="582.0">Total: 132.5 sqm (40.1 tsubo)</text><line stroke="#111111" stroke-width="2" x1="175.0" x2="175.0" y1="238.0" y2="208.0" /><polygon fill="#111111" points="175.0,208.0 181.0,214.0 169.0,214.0" /><text fill="#111111" font-size="12" x="170.0" y="202.0">N</text><line stroke="#545454" stroke-width="1.0" x1="220.0" x2="1312.0" y1="148.0" y2="148.0" /><line stroke="#545454" stroke-width="0.8" x1="220.0" x2="220.0" y1="220.0" y2="148.0" /><line stroke="#545454" stroke-width="1.0" x1="220.0" x2="220.0" y1="145.0" y2="151.0" /><line stroke="#545454" stroke-width="0.8" x1="1312.0" x2="1312.0" y1="220.0" y2="148.0" /><line stroke="#545454" stroke-width="1.0" x1="1312.0" x2="1312.0" y1="145.0" y2="151.0" /><text fill="#545454" font-size="8.8" text-anchor="middle" x="766.0" y="145.0">9100mm</text><line stroke="#666666" stroke-width="1.0" x1="220.0" x2="1312.0" y1="166.0" y2="166.0" /><line stroke="#666666" stroke-width="0.8" x1="220.0" x2="220.0" y1="220.0" y2="166.0" /><line stroke="#666666" stroke-width="1.0" x1="220.0" x2="220.0" y1="163.0" y2="169.0" /><line stroke="#666666" stroke-width="0.8" x1="656.8" x2="656.8" y1="220.0" y2="166.0" /><line stroke="#666666" stroke-width="1.0" x1="656.8" x2="656.8" y1="163.0" y2="169.0" /><line stroke="#666666" stroke-width="0.8" x1="1093.6" x2="1093.6" y1="220.0" y2="166.0" /><line stroke="#666666" stroke-width="1.0" x1="1093.6" x2="1093.6" y1="163.0" y2="169.0" /><line stroke="#666666" stroke-width="0.8" x1="1312.0" x2="1312.0" y1="220.0" y2="166.0" /><line stroke="#666666" stroke-width="1.0" x1="1312.0" x2="1312.0" y1="163.0" y2="169.0" /><text fill="#666666" font-size="8.2" text-anchor="middle" x="438.4" y="163.0">3640</text><text fill="#666666" font-size="8.2" text-anchor="middle" x="875.1999999999999" y="163.0">3640</text><text fill="#666666" font-size="8.2" text-anchor="middle" x="1202.8" y="163.0">1820</text><line stroke="#7a7a7a" stroke-width="1.0" x1="220.0" x2="1312.0" y1="184.0" y2="184.0" /><line stroke="#7a7a7a" stroke-width="0.8" x1="220.0" x2="220.0" y1="220.0" y2="184.0" /><line stroke="#7a7a7a" stroke-width="1.0" x1="220.0" x2="220.0" y1="181.0" y2="187.0" /><line stroke="#7a7a7a" stroke-width="0.8" x1="274.6" x2="274.6" y1="220.0" y2="184.0" /><line stroke="#7a7a7a" stroke-width="1.0" x1="274.6" x2="274.6" y1="181.0" y2="187.0" /><line stroke="#7a7a7a" stroke-width="0.8" x1="438.4" x2="438.4" y1="220.0" y2="184.0" /><line stroke="#7a7a7a" stroke-width="1.0" x1="438.4" x2="438.4" y1="181.0" y2="187.0" /><line stroke="#7a7a7a" stroke-width="0.8" x1="602.2" x2="602.2" y1="220.0" y2="184.0" /><line stroke="#7a7a7a" stroke-width="1.0" x1="602.2" x2="602.2" y1="181.0" y2="187.0" /><line stroke="#7a7a7a" stroke-width="0.8" x1="711.4" x2="711.4" y1="220.0" y2="184.0" /><line stroke="#7a7a7a" stroke-width="1.0" x1="711.4" x2="711.4" y1="181.0" y2="187.0" /><line stroke="#7a7a7a" stroke-width="0.8" x1="875.2" x2="875.2" y1="220.0" y2="184.0" /><line stroke="#7a7a7a" stroke-width="1.0" x1="875.2" x2="875.2" y1="181.0" y2="187.0" /><line stroke="#7a7a7a" stroke-width="0.8" x1="1039.0" x2="1039.0" y1="220.0" y2="184.0" /><line stroke="#7a7a7a" stroke-width="1.0" x1="1039.0" x2="1039.0" y1="181.0" y2="187.0" /><line stroke="#7a7a7a" stroke-width="0.8" x1="1312.0" x2="1312.0" y1="220.0" y2="184.0" /><line stroke="#7a7a7a" stroke-width="1.0" x1="1312.0" x2="1312.0" y1="181.0" y2="187.0" /><text fill="#7a7a7a" font-size="7.8" text-anchor="middle" x="356.5" y="181.0">1365</text><text fill="#7a7a7a" font-size="7.8" text-anchor="middle" x="520.3" y="181.0">1365</text><text fill="#7a7a7a" font-size="7.8" text-anchor="middle" x="656.8" y="181.0">910</text><text fill="#7a7a7a" font-size="7.8" text-anchor="middle" x="793.3" y="181.0">1365</text><text fill="#7a7a7a" font-size="7.8" text-anchor="middle" x="957.1" y="181.0">1365</text><text fill="#7a7a7a" font-size="7.8" text-anchor="middle" x="1175.5" y="181.0">2275</text><line stroke="#545454" stroke-width="1.0" x1="220.0" x2="1312.0" y1="1165.6" y2="1165.6" /><line stroke="#545454" stroke-width="0.8" x1="220.0" x2="220.0" y1="1093.6" y2="1165.6" /><line stroke="#545454" stroke-width="1.0" x1="220.0" x2="220.0" y1="1162.6" y2="1168.6" /><line stroke="#545454" stroke-width="0.8" x1="1312.0" x2="1312.0" y1="1093.6" y2="1165.6" /><line stroke="#545454" stroke-width="1.0" x1="1312.0" x2="1312.0" y1="1162.6" y2="1168.6" /><text fill="#545454" font-size="8.8" text-anchor="middle" x="766.0" y="1175.6">9100mm</text><line stroke="#666666" stroke-width="1.0" x1="220.0" x2="1312.0" y1="1147.6" y2="1147.6" /><line stroke="#666666" stroke-width="0.8" x1="220.0" x2="220.0" y1="1093.6" y2="1147.6" /><line stroke="#666666" stroke-width="1.0" x1="220.0" x2="220.0" y1="1144.6" y2="1150.6" /><line stroke="#666666" stroke-width="0.8" x1="656.8" x2="656.8" y1="1093.6" y2="1147.6" /><line stroke="#666666" stroke-width="1.0" x1="656.8" x2="656.8" y1="1144.6" y2="1150.6" /><line stroke="#666666" stroke-width="0.8" x1="1202.8" x2="1202.8" y1="1093.6" y2="1147.6" /><line stroke="#666666" stroke-width="1.0" x1="1202.8" x2="1202.8" y1="1144.6" y2="1150.6" /><line stroke="#666666" stroke-width="0.8" x1="1312.0" x2="1312.0" y1="1093.6" y2="1147.6" /><line stroke="#666666" stroke-width="1.0" x1="1312.0" x2="1312.0" y1="1144.6" y2="1150.6" /><text fill="#666666" font-size="8.2" text-anchor="middle" x="438.4" y="1157.6">3640</text><text fill="#666666" font-size="8.2" text-anchor="middle" x="929.8" y="1157.6">4550</text><text fill="#666666" font-size="8.2" text-anchor="middle" x="1257.3999999999999" y="1157.6">910</text><line stroke="#7a7a7a" stroke-width="1.0" x1="220.0" x2="1312.0" y1="1129.6" y2="1129.6" /><line stroke="#7a7a7a" stroke-width="0.8" x1="220.0" x2="220.0" y1="1093.6" y2="1129.6" /><line stroke="#7a7a7a" stroke-width="1.0" x1="220.0" x2="220.0" y1="1126.6" y2="1132.6" /><line stroke="#7a7a7a" stroke-width="0.8" x1="274.6" x2="274.6" y1="1093.6" y2="1129.6" /><line stroke="#7a7a7a" stroke-width="1.0" x1="274.6" x2="274.6" y1="1126.6" y2="1132.6" /><line stroke="#7a7a7a" stroke-width="0.8" x1="438.4" x2="438.4" y1="1093.6" y2="1129.6" /><line stroke="#7a7a7a" stroke-width="1.0" x1="438.4" x2="438.4" y1="1126.6" y2="1132.6" /><line stroke="#7a7a7a" stroke-width="0.8" x1="602.2" x2="602.2" y1="1093.6" y2="1129.6" /><line stroke="#7a7a7a" stroke-width="1.0" x1="602.2" x2="602.2" y1="1126.6" y2="1132.6" /><line stroke="#7a7a7a" stroke-width="0.8" x1="1312.0" x2="1312.0" y1="1093.6" y2="1129.6" /><line stroke="#7a7a7a" stroke-width="1.0" x1="1312.0" x2="1312.0" y1="1126.6" y2="1132.6" /><text fill="#7a7a7a" font-size="7.8" text-anchor="middle" x="356.5" y="1139.6">1365</text><text fill="#7a7a7a" font-size="7.8" text-anchor="middle" x="520.3" y="1139.6">1365</text><text fill="#7a7a7a" font-size="7.8" text-anchor="middle" x="957.1" y="1139.6">5915</text><line stroke="#545454" stroke-width="1.0" x1="148.0" x2="148.0" y1="220.0" y2="1093.6" /><line stroke="#545454" stroke-width="0.8" x1="220.0" x2="148.0" y1="220.0" y2="220.0" /><line stroke="#545454" stroke-width="1.0" x1="145.0" x2="151.0" y1="220.0" y2="220.0" /><line stroke="#545454" stroke-width="0.8" x1="220.0" x2="148.0" y1="1093.6" y2="1093.6" /><line stroke="#545454" stroke-width="1.0" x1="145.0" x2="151.0" y1="1093.6" y2="1093.6" /><text fill="#545454" font-size="8.8" x="144.0" y="656.8">7280mm</text><line stroke="#666666" stroke-width="1.0" x1="166.0" x2="166.0" y1="220.0" y2="1093.6" /><line stroke="#666666" stroke-width="0.8" x1="220.0" x2="166.0" y1="220.0" y2="220.0" /><line stroke="#666666" stroke-width="1.0" x1="163.0" x2="169.0" y1="220.0" y2="220.0" /><line stroke="#666666" stroke-width="0.8" x1="220.0" x2="166.0" y1="656.8" y2="656.8" /><line stroke="#666666" stroke-width="1.0" x1="163.0" x2="169.0" y1="656.8" y2="656.8" /><line stroke="#666666" stroke-width="0.8" x1="220.0" x2="166.0" y1="1093.6" y2="1093.6" /><line stroke="#666666" stroke-width="1.0" x1="163.0" x2="169.0" y1="1093.6" y2="1093.6" /><text fill="#666666" font-size="8.2" x="162.0" y="438.4">3640</text><text fill="#666666" font-size="8.2" x="162.0" y="875.1999999999999">3640</text><line stroke="#7a7a7a" stroke-width="1.0" x1="184.0" x2="184.0" y1="220.0" y2="1093.6" /><line stroke="#7a7a7a" stroke-width="0.8" x1="220.0" x2="184.0" y1="220.0" y2="220.0" /><line stroke="#7a7a7a" stroke-width="1.0" x1="181.0" x2="187.0" y1="220.0" y2="220.0" /><line stroke="#7a7a7a" stroke-width="0.8" x1="220.0" x2="184.0" y1="274.6" y2="274.6" /><line stroke="#7a7a7a" stroke-width="1.0" x1="181.0" x2="187.0" y1="274.6" y2="274.6" /><line stroke="#7a7a7a" stroke-width="0.8" x1="220.0" x2="184.0" y1="438.4" y2="438.4" /><line stroke="#7a7a7a" stroke-width="1.0" x1="181.0" x2="187.0" y1="438.4" y2="438.4" /><line stroke="#7a7a7a" stroke-width="0.8" x1="220.0" x2="184.0" y1="602.2" y2="602.2" /><line stroke="#7a7a7a" stroke-width="1.0" x1="181.0" x2="187.0" y1="602.2" y2="602.2" /><line stroke="#7a7a7a" stroke-width="0.8" x1="220.0" x2="184.0" y1="711.4" y2="711.4" /><line stroke="#7a7a7a" stroke-width="1.0" x1="181.0" x2="187.0" y1="711.4" y2="711.4" /><line stroke="#7a7a7a" stroke-width="0.8" x1="220.0" x2="184.0" y1="875.2" y2="875.2" /><line stroke="#7a7a7a" stroke-width="1.0" x1="181.0" x2="187.0" y1="875.2" y2="875.2" /><line stroke="#7a7a7a" stroke-width="0.8" x1="220.0" x2="184.0" y1="1039.0" y2="1039.0" /><line stroke="#7a7a7a" stroke-width="1.0" x1="181.0" x2="187.0" y1="1039.0" y2="1039.0" /><line stroke="#7a7a7a" stroke-width="0.8" x1="220.0" x2="184.0" y1="1093.6" y2="1093.6" /><line stroke="#7a7a7a" stroke-width="1.0" x1="181.0" x2="187.0" y1="1093.6" y2="1093.6" /><text fill="#7a7a7a" font-size="7.8" x="180.0" y="356.5">1365</text><text fill="#7a7a7a" font-size="7.8" x="180.0" y="520.3">1365</text><text fill="#7a7a7a" font-size="7.8" x="180.0" y="656.8">910</text><text fill="#7a7a7a" font-size="7.8" x="180.0" y="793.3">1365</text><text fill="#7a7a7a" font-size="7.8" x="180.0" y="957.1">1365</text><line stroke="#545454" stroke-width="1.0" x1="1384.0" x2="1384.0" y1="220.0" y2="1093.6" /><line stroke="#545454" stroke-width="0.8" x1="1312.0" x2="1384.0" y1="220.0" y2="220.0" /><line stroke="#545454" stroke-width="1.0" x1="1381.0" x2="1387.0" y1="220.0" y2="220.0" /><line stroke="#545454" stroke-width="0.8" x1="1312.0" x2="1384.0" y1="1093.6" y2="1093.6" /><line stroke="#545454" stroke-width="1.0" x1="1381.0" x2="1387.0" y1="1093.6" y2="1093.6" /><text fill="#545454" font-size="8.8" x="1389.0" y="656.8">7280mm</text><line stroke="#666666" stroke-width="1.0" x1="1366.0" x2="1366.0" y1="220.0" y2="1093.6" /><line stroke="#666666" stroke-width="0.8" x1="1312.0" x2="1366.0" y1="220.0" y2="220.0" /><line stroke="#666666" stroke-width="1.0" x1="1363.0" x2="1369.0" y1="220.0" y2="220.0" /><line stroke="#666666" stroke-width="0.8" x1="1312.0" x2="1366.0" y1="547.6" y2="547.6" /><line stroke="#666666" stroke-width="1.0" x1="1363.0" x2="1369.0" y1="547.6" y2="547.6" /><line stroke="#666666" stroke-width="0.8" x1="1312.0" x2="1366.0" y1="875.2" y2="875.2" /><line stroke="#666666" stroke-width="1.0" x1="1363.0" x2="1369.0" y1="875.2" y2="875.2" /><line stroke="#666666" stroke-width="0.8" x1="1312.0" x2="1366.0" y1="1093.6" y2="1093.6" /><line stroke="#666666" stroke-width="1.0" x1="1363.0" x2="1369.0" y1="1093.6" y2="1093.6" /><text fill="#666666" font-size="8.2" x="1371.0" y="383.79999999999995">2730</text><text fill="#666666" font-size="8.2" x="1371.0" y="711.4">2730</text><text fill="#666666" font-size="8.2" x="1371.0" y="984.4">1820</text></svg>