<?xml version="1.0" encoding="utf-8" ?>
<svg baseProfile="tiny" height="1095.1999999999998px" version="1.2" width="1532.0px" xmlns="http://www.w3.org/2000/svg" xmlns:ev="http://www.w3.org/2001/xml-events" xmlns:xlink="http://www.w3.org/1999/xlink"><defs /><rect fill="#fafafa" height="1095.2" width="1532.0" x="0" y="0" /><line stroke="#ececec" stroke-width="0.7" x1="220.0" x2="220.0" y1="220.0" y2="875.2" /><line stroke="#ececec" stroke-width="0.7" x1="274.6" x2="274.6" y1="220.0" y2="875.2" /><line stroke="#ececec" stroke-width="0.7" x1="329.2" x2="329.2" y1="220.0" y2="875.2" /><line stroke="#ececec" stroke-width="0.7" x1="383.8" x2="383.8" y1="220.0" y2="875.2" /><line stroke="#ececec" stroke-width="0.7" x1="438.4" x2="438.4" y1="220.0" y2="875.2" /><line stroke="#ececec" stroke-width="0.7" x1="493.0" x2="493.0" y1="220.0" y2="875.2" /><line stroke="#ececec" stroke-width="0.7" x1="547.6" x2="547.6" y1="220.0" y2="875.2" /><line stroke="#ececec" stroke-width="0.7" x1="602.2" x2="602.2" y1="220.0" y2="875.2" /><line stroke="#ececec" stroke-width="0.7" x1="656.8" x2="656.8" y1="220.0" y2="875.2" /><line stroke="#ececec" stroke-width="0.7" x1="711.4" x2="711.4" y1="220.0" y2="875.2" /><line stroke="#ececec" stroke-width="0.7" x1="766.0" x2="766.0" y1="220.0" y2="875.2" /><line stroke="#ececec" stroke-width="0.7" x1="820.6" x2="820.6" y1="220.0" y2="875.2" /><line stroke="#ececec" stroke-width="0.7" x1="875.2" x2="875.2" y1="220.0" y2="875.2" /><line stroke="#ececec" stroke-width="0.7" x1="929.8" x2="929.8" y1="220.0" y2="875.2" /><line stroke="#ececec" stroke-width="0.7" x1="984.4" x2="984.4" y1="220.0" y2="875.2" /><line stroke="#ececec" stroke-width="0.7" x1="1039.0" x2="1039.0" y1="220.0" y2="875.2" /><line stroke="#ececec" stroke-width="0.7" x1="1093.6" x2="1093.6" y1="220.0" y2="875.2" /><line stroke="#ececec" stroke-width="0.7" x1="1148.2" x2="1148.2" y1="220.0" y2="875.2" /><line stroke="#ececec" stroke-width="0.7" x1="1202.8" x2="1202.8" y1="220.0" y2="875.2" /><line stroke="#ececec" stroke-width="0.7" x1="1257.4" x2="1257.4" y1="220.0" y2="875.2" /><line stroke="#ececec" stroke-width="0.7" x1="1312.0" x2="1312.0" y1="220.0" y2="875.2" /><line stroke="#d1d1d1" stroke-width="1.1" x1="220.0" x2="220.0" y1="220.0" y2="875.2" /><line stroke="#d1d1d1" stroke-width="1.1" x1="329.2" x2="329.2" y1="220.0" y2="875.2" /><line stroke="#d1d1d1" stroke-width="1.1" x1="438.4" x2="438.4" y1="220.0" y2="875.2" /><line stroke="#d1d1d1" stroke-width="1.1" x1="547.6" x2="547.6" y1="220.0" y2="875.2" /><line stroke="#d1d1d1" stroke-width="1.1" x1="656.8" x2="656.8" y1="220.0" y2="875.2" /><line stroke="#d1d1d1" stroke-width="1.1" x1="766.0" x2="766.0" y1="220.0" y2="875.2" /><line stroke="#d1d1d1" stroke-width="1.1" x1="875.2" x2="875.2" y1="220.0" y2="875.2" /><line stroke="#d1d1d1" stroke-width="1.1" x1="984.4" x2="984.4" y1="220.0" y2="875.2" /><line stroke="#d1d1d1" stroke-width="1.1" x1="1093.6" x2="1093.6" y1="220.0" y2="875.2" /><line stroke="#d1d1d1" stroke-width="1.1" x1="1202.8" x2="1202.8" y1="220.0" y2="875.2" /><line stroke="#d1d1d1" stroke-width="1.1" x1="1312.0" x2="1312.0" y1="220.0" y2="875.2" /><line stroke="#d1d1d1" stroke-width="1.1" x1="220.0" x2="1312.0" y1="220.0" y2="220.0" /><line stroke="#d1d1d1" stroke-width="1.1" x1="220.0" x2="1312.0" y1="329.2" y2="329.2" /><line stroke="#d1d1d1" stroke-width="1.1" x1="220.0" x2="1312.0" y1="438.4" y2="438.4" /><line stroke="#d1d1d1" stroke-width="1.1" x1="220.0" x2="1312.0" y1="547.6" y2="547.6" /><line stroke="#d1d1d1" stroke-width="1.1" x1="220.0" x2="1312.0" y1="656.8" y2="656.8" /><line stroke="#d1d1d1" stroke-width="1.1" x1="220.0" x2="1312.0" y1="766.0" y2="766.0" /><line stroke="#d1d1d1" stroke-width="1.1" x1="220.0" x2="1312.0" y1="875.2" y2="875.2" /><line stroke="#ececec" stroke-width="0.7" x1="220.0" x2="1312.0" y1="220.0" y2="220.0" /><line stroke="#ececec" stroke-width="0.7" x1="220.0" x2="1312.0" y1="274.6" y2="274.6" /><line stroke="#ececec" stroke-width="0.7" x1="220.0" x2="1312.0" y1="329.2" y2="329.2" /><line stroke="#ececec" stroke-width="0.7" x1="220.0" x2="1312.0" y1="383.8" y2="383.8" /><line stroke="#ececec" stroke-width="0.7" x1="220.0" x2="1312.0" y1="438.4" y2="438.4" /><line stroke="#ececec" stroke-width="0.7" x1="220.0" x2="1312.0" y1="493.0" y2="493.0" /><line stroke="#ececec" stroke-width="0.7" x1="220.0" x2="1312.0" y1="547.6" y2="547.6" /><line stroke="#ececec" stroke-width="0.7" x1="220.0" x2="1312.0" y1="602.2" y2="602.2" /><line stroke="#ececec" stroke-width="0.7" x1="220.0" x2="1312.0" y1="656.8" y2="656.8" /><line stroke="#ececec" stroke-width="0.7" x1="220.0" x2="1312.0" y1="711.4" y2="711.4" /><line stroke="#ececec" stroke-width="0.7" x1="220.0" x2="1312.0" y1="766.0" y2="766.0" /><line stroke="#ececec" stroke-width="0.7" x1="220.0" x2="1312.0" y1="820.6" y2="820.6" /><line stroke="#ececec" stroke-width="0.7" x1="220.0" x2="1312.0" y1="875.2" y2="875.2" /><rect fill="none" height="655.2" stroke="#6a6a6a" stroke-dasharray="8,4" stroke-width="2" width="1092.0" x="220.0" y="220.0" /><rect fill="none" height="655.2" stroke="#1f1f1f" stroke-width="3.5" width="1092.0" x="220.0" y="220.0" /><text fill="#555555" font-size="10" x="222.0" y="160.0">Site Envelope = Building Footprint</text><rect fill="#e9f5ff" fill-opacity="0.82" height="436.8" stroke="none" width="109.2" x="1202.8" y="220.0" /><line stroke="#8da7b8" stroke-opacity="0.6" stroke-width="0.9" x1="1202.8" x2="1312.0" y1="220.0" y2="656.8" /><line stroke="#8da7b8" stroke-opacity="0.6" stroke-width="0.9" x1="1202.8" x2="1312.0" y1="656.8" y2="220.0" /><line stroke="#2f2f2f" stroke-dasharray="8,4" stroke-width="2.2" x1="1202.8" x2="1312.0" y1="220.0" y2="220.0" /><line stroke="#2f2f2f" stroke-dasharray="8,4" stroke-width="2.2" x1="1202.8" x2="1312.0" y1="656.8" y2="656.8" /><line stroke="#2f2f2f" stroke-dasharray="8,4" stroke-width="2.2" x1="1202.8" x2="1202.8" y1="220.0" y2="656.8" /><line stroke="#2f2f2f" stroke-dasharray="8,4" stroke-width="2.2" x1="1312.0" x2="1312.0" y1="220.0" y2="656.8" /><rect fill="#d9f2ff" height="655.2" stroke="none" width="273.0" x="220.0" y="220.0" /><line stroke="#2f2f2f" stroke-width="2.2" x1="220.0" x2="493.0" y1="875.2" y2="875.2" /><line stroke="#2f2f2f" stroke-width="2.2" x1="220.0" x2="493.0" y1="220.0" y2="220.0" /><line stroke="#2f2f2f" stroke-width="2.2" x1="220.0" x2="220.0" y1="220.0" y2="875.2" /><line stroke="#2f2f2f" stroke-width="2.2" x1="493.0" x2="493.0" y1="220.0" y2="875.2" /><rect fill="#d9f2ff" height="327.6" stroke="none" width="382.2" x="820.6" y="547.6" /><line stroke="#2f2f2f" stroke-width="2.2" x1="820.6" x2="1202.8" y1="547.6" y2="547.6" /><line stroke="#2f2f2f" stroke-width="2.2" x1="820.6" x2="1202.8" y1="875.2" y2="875.2" /><line stroke="#2f2f2f" stroke-width="2.2" x1="1202.8" x2="1202.8" y1="547.6" y2="875.2" /><line stroke="#2f2f2f" stroke-width="2.2" x1="820.6" x2="820.6" y1="547.6" y2="875.2" /><rect fill="#efe9ff" height="163.8" stroke="none" width="218.4" x="493.0" y="438.4" /><rect fill="#efe9ff" height="327.6" stroke="none" width="109.2" x="711.4" y="547.6" /><line stroke="#2f2f2f" stroke-width="2.2" x1="493.0" x2="711.4" y1="602.2" y2="602.2" /><line stroke="#2f2f2f" stroke-width="2.2" x1="493.0" x2="711.4" y1="438.4" y2="438.4" /><line stroke="#2f2f2f" stroke-width="2.2" x1="711.4" x2="820.6" y1="547.6" y2="547.6" /><line stroke="#2f2f2f" stroke-width="2.2" x1="711.4" x2="820.6" y1="875.2" y2="875.2" /><line stroke="#2f2f2f" stroke-width="2.2" x1="820.6" x2="820.6" y1="547.6" y2="875.2" /><line stroke="#2f2f2f" stroke-width="2.2" x1="711.4" x2="711.4" y1="438.4" y2="547.6" /><line stroke="#2f2f2f" stroke-width="2.2" x1="711.4" x2="711.4" y1="602.2" y2="875.2" /><line stroke="#2f2f2f" stroke-width="2.2" x1="493.0" x2="493.0" y1="438.4" y2="602.2" /><rect fill="#c5e8ff" height="327.6" stroke="none" width="491.4" x="711.4" y="220.0" /><line stroke="#2f2f2f" stroke-width="2.2" x1="711.4" x2="1202.8" y1="220.0" y2="220.0" /><line stroke="#2f2f2f" stroke-width="2.2" x1="711.4" x2="1202.8" y1="547.6" y2="547.6" /><line stroke="#2f2f2f" stroke-width="2.2" x1="1202.8" x2="1202.8" y1="220.0" y2="547.6" /><line stroke="#2f2f2f" stroke-width="2.2" x1="711.4" x2="711.4" y1="220.0" y2="547.6" /><rect fill="#ece7dd" height="218.4" stroke="none" width="218.4" x="493.0" y="220.0" /><line stroke="#2f2f2f" stroke-width="2.2" x1="493.0" x2="711.4" y1="438.4" y2="438.4" /><line stroke="#2f2f2f" stroke-width="2.2" x1="493.0" x2="711.4" y1="220.0" y2="220.0" /><line stroke="#2f2f2f" stroke-width="2.2" x1="711.4" x2="711.4" y1="220.0" y2="438.4" /><line stroke="#2f2f2f" stroke-width="2.2" x1="493.0" x2="493.0" y1="220.0" y2="438.4" /><rect fill="#f7f3ea" fill-opacity="0.35" height="109.2" stroke="#9a9a9a" stroke-dasharray="4,3" stroke-width="0.9" width="273.0" x="220.0" y="220.0" /><line stroke="#9c9c9c" stroke-opacity="0.7" stroke-width="0.8" x1="220.0" x2="239.2" y1="310.0" y2="329.2" /><line stroke="#9c9c9c" stroke-opacity="0.7" stroke-width="0.8" x1="220.0" x2="258.4" y1="290.8" y2="329.2" /><line stroke="#9c9c9c" stroke-opacity="0.7" stroke-width="0.8" x1="220.0" x2="277.6" y1="271.6" y2="329.2" /><line stroke="#9c9c9c" stroke-opacity="0.7" stroke-width="0.8" x1="220.0" x2="296.8" y1="252.4" y2="329.2" /><line stroke="#9c9c9c" stroke-opacity="0.7" stroke-width="0.8" x1="220.0" x2="316.0" y1="233.2" y2="329.2" /><line stroke="#9c9c9c" stroke-opacity="0.7" stroke-width="0.8" x1="226.0" x2="335.2" y1="220.0" y2="329.2" /><line stroke="#9c9c9c" stroke-opacity="0.7" stroke-width="0.8" x1="245.2" x2="354.4" y1="220.0" y2="329.2" /><line stroke="#9c9c9c" stroke-opacity="0.7" stroke-width="0.8" x1="264.4" x2="373.6" y1="220.0" y2="329.2" /><line stroke="#9c9c9c" stroke-opacity="0.7" stroke-width="0.8" x1="283.6" x2="392.8" y1="220.0" y2="329.2" /><line stroke="#9c9c9c" stroke-opacity="0.7" stroke-width="0.8" x1="302.8" x2="412.0" y1="220.0" y2="329.2" /><line stroke="#9c9c9c" stroke-opacity="0.7" stroke-width="0.8" x1="322.0" x2="431.2" y1="220.0" y2="329.2" /><line stroke="#9c9c9c" stroke-opacity="0.7" stroke-width="0.8" x1="341.2" x2="450.4" y1="220.0" y2="329.2" /><line stroke="#9c9c9c" stroke-opacity="0.7" stroke-width="0.8" x1="360.4" x2="469.6" y1="220.0" y2="329.2" /><line stroke="#9c9c9c" stroke-opacity="0.7" stroke-width="0.8" x1="379.6" x2="488.8" y1="220.0" y2="329.2" /><line stroke="#9c9c9c" stroke-opacity="0.7" stroke-width="0.8" x1="398.8" x2="493.0" y1="220.0" y2="314.2" /><line stroke="#9c9c9c" stroke-opacity="0.7" stroke-width="0.8" x1="418.0" x2="493.0" y1="220.0" y2="295.0" /><line stroke="#9c9c9c" stroke-opacity="0.7" stroke-width="0.8" x1="437.2" x2="493.0" y1="220.0" y2="275.8" /><line stroke="#9c9c9c" stroke-opacity="0.7" stroke-width="0.8" x1="456.4" x2="493.0" y1="220.0" y2="256.6" /><line stroke="#9c9c9c" stroke-opacity="0.7" stroke-width="0.8" x1="475.6" x2="493.0" y1="220.0" y2="237.4" /><rect fill="#f7f3ea" fill-opacity="0.35" height="327.6" stroke="#9a9a9a" stroke-dasharray="4,3" stroke-width="0.9" width="109.2" x="1093.6" y="547.6" /><line stroke="#9c9c9c" stroke-opacity="0.7" stroke-width="0.8" x1="1093.6" x2="1112.8" y1="856.0" y2="875.2" /><line stroke="#9c9c9c" stroke-opacity="0.7" stroke-width="0.8" x1="1093.6" x2="1132.0" y1="836.8" y2="875.2" /><line stroke="#9c9c9c" stroke-opacity="0.7" stroke-width="0.8" x1="1093.6" x2="1151.2" y1="817.6" y2="875.2" /><line stroke="#9c9c9c" stroke-opacity="0.7" stroke-width="0.8" x1="1093.6" x2="1170.4" y1="798.4" y2="875.2" /><line stroke="#9c9c9c" stroke-opacity="0.7" stroke-width="0.8" x1="1093.6" x2="1189.6" y1="779.2" y2="875.2" /><line stroke="#9c9c9c" stroke-opacity="0.7" stroke-width="0.8" x1="1093.6" x2="1202.8" y1="760.0" y2="869.2" /><line stroke="#9c9c9c" stroke-opacity="0.7" stroke-width="0.8" x1="1093.6" x2="1202.8" y1="740.8" y2="850.0" /><line stroke="#9c9c9c" stroke-opacity="0.7" stroke-width="0.8" x1="1093.6" x2="1202.8" y1="721.6" y2="830.8" /><line stroke="#9c9c9c" stroke-opacity="0.7" stroke-width="0.8" x1="1093.6" x2="1202.8" y1="702.4" y2="811.6" /><line stroke="#9c9c9c" stroke-opacity="0.7" stroke-width="0.8" x1="1093.6" x2="1202.8" y1="683.2" y2="792.4" /><line stroke="#9c9c9c" stroke-opacity="0.7" stroke-width="0.8" x1="1093.6" x2="1202.8" y1="664.0" y2="773.2" /><line stroke="#9c9c9c" stroke-opacity="0.7" stroke-width="0.8" x1="1093.6" x2="1202.8" y1="644.8" y2="754.0" /><line stroke="#9c9c9c" stroke-opacity="0.7" stroke-width="0.8" x1="1093.6" x2="1202.8" y1="625.6" y2="734.8" /><line stroke="#9c9c9c" stroke-opacity="0.7" stroke-width="0.8" x1="1093.6" x2="1202.8" y1="606.4" y2="715.6" /><line stroke="#9c9c9c" stroke-opacity="0.7" stroke-width="0.8" x1="1093.6" x2="1202.8" y1="587.2" y2="696.4" /><line stroke="#9c9c9c" stroke-opacity="0.7" stroke-width="0.8" x1="1093.6" x2="1202.8" y1="568.0" y2="677.2" /><line stroke="#9c9c9c" stroke-opacity="0.7" stroke-width="0.8" x1="1093.6" x2="1202.8" y1="548.8" y2="658.0" /><line stroke="#9c9c9c" stroke-opacity="0.7" stroke-width="0.8" x1="1111.6" x2="1202.8" y1="547.6" y2="638.8" /><line stroke="#9c9c9c" stroke-opacity="0.7" stroke-width="0.8" x1="1130.8" x2="1202.8" y1="547.6" y2="619.6" /><line stroke="#9c9c9c" stroke-opacity="0.7" stroke-width="0.8" x1="1150.0" x2="1202.8" y1="547.6" y2="600.4" /><line stroke="#9c9c9c" stroke-opacity="0.7" stroke-width="0.8" x1="1169.2" x2="1202.8" y1="547.6" y2="581.2" /><line stroke="#9c9c9c" stroke-opacity="0.7" stroke-width="0.8" x1="1188.4" x2="1202.8" y1="547.6" y2="562.0" /><rect fill="none" height="111.384" stroke="#7f7f7f" stroke-width="1.1" width="218.4" x="847.9" y="278.968" /><line stroke="#7f7f7f" stroke-width="0.9" x1="847.9" x2="1066.3" y1="317.9524" y2="317.9524" /><rect fill="none" height="163.8" stroke="#7f7f7f" stroke-width="1.1" width="152.88" x="280.06" y="337.936" /><line stroke="#7f7f7f" stroke-width="0.9" x1="280.06" x2="432.94" y1="395.266" y2="395.266" /><rect fill="none" height="111.384" stroke="#7f7f7f" stroke-width="1.1" width="214.032" x="904.684" y="606.568" /><line stroke="#7f7f7f" stroke-width="0.9" x1="904.684" x2="1118.716" y1="645.5524" y2="645.5524" /><line stroke="#9a9a9a" stroke-width="0.9" x1="519.208" x2="685.192" y1="259.312" y2="259.312" /><line stroke="#9a9a9a" stroke-width="0.9" x1="519.208" x2="685.192" y1="399.088" y2="399.088" /><line stroke="#9a9a9a" stroke-dasharray="5,3" stroke-width="0.7" x1="519.208" x2="685.192" y1="329.2" y2="329.2" /><rect fill="#f4f4f4" height="163.8" stroke="#202020" stroke-dasharray="4,3" stroke-width="2.6" width="109.2" x="493.0" y="711.4" /><line stroke="#b8b8b8" stroke-width="0.9" x1="498.4" x2="596.8" y1="721.0" y2="721.0" /><line stroke="#b8b8b8" stroke-width="0.9" x1="498.4" x2="596.8" y1="740.2" y2="740.2" /><line stroke="#b8b8b8" stroke-width="0.9" x1="498.4" x2="596.8" y1="759.4" y2="759.4" /><line stroke="#b8b8b8" stroke-width="0.9" x1="498.4" x2="596.8" y1="778.6" y2="778.6" /><line stroke="#b8b8b8" stroke-width="0.9" x1="498.4" x2="596.8" y1="797.8" y2="797.8" /><line stroke="#b8b8b8" stroke-width="0.9" x1="498.4" x2="596.8" y1="817.0" y2="817.0" /><line stroke="#b8b8b8" stroke-width="0.9" x1="498.4" x2="596.8" y1="836.2" y2="836.2" /><line stroke="#b8b8b8" stroke-width="0.9" x1="498.4" x2="596.8" y1="855.4" y2="855.4" /><line stroke="#b8b8b8" stroke-width="0.9" x1="498.4" x2="596.8" y1="874.6" y2="874.6" /><rect fill="#f4f4f4" height="109.2" stroke="#202020" stroke-dasharray="4,3" stroke-width="2.6" width="218.4" x="493.0" y="602.2" /><line stroke="#b8b8b8" stroke-width="0.9" x1="498.4" x2="706.0" y1="611.8" y2="611.8" /><line stroke="#b8b8b8" stroke-width="0.9" x1="498.4" x2="706.0" y1="631.0" y2="631.0" /><line stroke="#b8b8b8" stroke-width="0.9" x1="498.4" x2="706.0" y1="650.2" y2="650.2" /><line stroke="#b8b8b8" stroke-width="0.9" x1="498.4" x2="706.0" y1="669.4" y2="669.4" /><line stroke="#b8b8b8" stroke-width="0.9" x1="498.4" x2="706.0" y1="688.6" y2="688.6" /><line stroke="#b8b8b8" stroke-width="0.9" x1="498.4" x2="706.0" y1="707.8" y2="707.8" /><rect fill="#ffffff" height="163.8" stroke="#202020" stroke-dasharray="8,4" stroke-width="2.6" width="109.2" x="602.2" y="711.4" /><text fill="#555555" font-size="9" text-anchor="middle" x="602.2" y="738.6999999999999">Open To Below</text><rect fill="none" height="273.0" stroke="#7e7e7e" stroke-dasharray="3,2" stroke-width="2.0" width="218.4" x="493.0" y="602.2" /><text fill="#666666" font-size="8.5" text-anchor="middle" x="602.2" y="616.5999999999999">Guardrail</text><line stroke="#2a2a2a" stroke-width="1.4" x1="615.304" x2="698.296" y1="734.8" y2="734.8" /><line stroke="#2a2a2a" stroke-width="1.4" x1="615.304" x2="698.296" y1="758.2" y2="758.2" /><line stroke="#2a2a2a" stroke-width="1.4" x1="615.304" x2="698.296" y1="781.6" y2="781.6" /><line stroke="#2a2a2a" stroke-width="1.4" x1="615.304" x2="698.296" y1="805.0" y2="805.0" /><line stroke="#2a2a2a" stroke-width="1.4" x1="615.304" x2="698.296" y1="828.4" y2="828.4" /><line stroke="#2a2a2a" stroke-width="1.4" x1="615.304" x2="698.296" y1="851.8" y2="851.8" /><text fill="#202020" font-size="11" text-anchor="middle" x="656.8" y="793.3">Stair (DN)</text><text fill="#3a3a3a" font-size="9.0" text-anchor="middle" x="656.8" y="807.6999999999999">13R/12T</text><text fill="#4a4a4a" font-size="7.8" text-anchor="middle" x="656.8" y="816.1">H2730 R210 T228</text><line stroke="#ffffff" stroke-width="7" x1="711.4" x2="711.4" y1="711.4" y2="875.2" /><line stroke="#5e5e5e" stroke-width="1.0" x1="711.4" x2="711.4" y1="711.4" y2="875.2" /><line stroke="#ffffff" stroke-width="6" x1="711.4" x2="711.4" y1="447.4" y2="538.6" /><line stroke="#595959" stroke-width="1.2" x1="711.4" x2="652.12" y1="447.4" y2="506.68" /><path d="M 711.4,506.68 A 59.28,59.28 0 0 1 652.12,506.68" fill="none" stroke="#7a7a7a" stroke-width="1.0" /><line stroke="#ffffff" stroke-width="6" x1="493.0" x2="493.0" y1="474.7" y2="565.9" /><line stroke="#595959" stroke-width="1.2" x1="493.0" x2="552.28" y1="474.7" y2="533.98" /><path d="M 493.0,533.98 A 59.28,59.28 0 0 1 552.28,533.98" fill="none" stroke="#7a7a7a" stroke-width="1.0" /><line stroke="#ffffff" stroke-width="6" x1="820.6" x2="820.6" y1="652.6" y2="770.2" /><line stroke="#595959" stroke-width="1.2" x1="820.6" x2="744.16" y1="652.6" y2="729.04" /><path d="M 820.6,729.04 A 76.44,76.44 0 0 1 744.16,729.04" fill="none" stroke="#7a7a7a" stroke-width="1.0" /><line stroke="#ffffff" stroke-width="6" x1="553.06" x2="651.34" y1="438.4" y2="438.4" /><line stroke="#595959" stroke-width="1.2" x1="553.06" x2="616.942" y1="438.4" y2="502.282" /><path d="M 616.942,438.4 A 63.882,63.882 0 0 1 616.942,502.282" fill="none" stroke="#7a7a7a" stroke-width="1.0" /><line stroke="#ffffff" stroke-width="6" x1="711.4" x2="711.4" y1="280.06" y2="378.34" /><line stroke="#595959" stroke-width="1.2" x1="711.4" x2="647.518" y1="280.06" y2="343.942" /><path d="M 711.4,343.942 A 63.882,63.882 0 0 1 647.518,343.942" fill="none" stroke="#7a7a7a" stroke-width="1.0" /><line stroke="#ffffff" stroke-width="6" x1="1202.8" x2="1202.8" y1="325.0" y2="442.6" /><line stroke="#595959" stroke-width="1.2" x1="1202.8" x2="1279.24" y1="325.0" y2="401.44" /><path d="M 1202.8,401.44 A 76.44,76.44 0 0 1 1279.24,401.44" fill="none" stroke="#7a7a7a" stroke-width="1.0" /><line stroke="#66a7ff" stroke-width="2.2" x1="765.472" x2="932.512" y1="217.36" y2="217.36" /><line stroke="#66a7ff" stroke-width="2.2" x1="765.472" x2="932.512" y1="222.64" y2="222.64" /><line stroke="#66a7ff" stroke-width="2.2" x1="981.688" x2="1148.728" y1="217.36" y2="217.36" /><line stroke="#66a7ff" stroke-width="2.2" x1="981.688" x2="1148.728" y1="222.64" y2="222.64" /><line stroke="#66a7ff" stroke-width="2.2" x1="217.36" x2="217.36" y1="307.456" y2="499.456" /><line stroke="#66a7ff" stroke-width="2.2" x1="222.64" x2="222.64" y1="307.456" y2="499.456" /><line stroke="#66a7ff" stroke-width="2.2" x1="217.36" x2="217.36" y1="595.744" y2="787.744" /><line stroke="#66a7ff" stroke-width="2.2" x1="222.64" x2="222.64" y1="595.744" y2="787.744" /><line stroke="#66a7ff" stroke-width="2.2" x1="301.9" x2="411.1" y1="872.56" y2="872.56" /><line stroke="#66a7ff" stroke-width="2.2" x1="301.9" x2="411.1" y1="877.84" y2="877.84" /><line stroke="#66a7ff" stroke-width="2.2" x1="946.78" x2="1076.62" y1="872.56" y2="872.56" /><line stroke="#66a7ff" stroke-width="2.2" x1="946.78" x2="1076.62" y1="877.84" y2="877.84" /><line stroke="#9a9a9a" stroke-width="0.8" x1="501.4" x2="703.0" y1="446.8" y2="446.8" /><line stroke="#9a9a9a" stroke-width="0.8" x1="501.4" x2="501.4" y1="443.44" y2="450.16" /><line stroke="#9a9a9a" stroke-width="0.8" x1="703.0" x2="703.0" y1="443.44" y2="450.16" /><text fill="#8a8a8a" font-size="7.6" text-anchor="start" x="508.12" y="444.15999999999997">1820mm</text><line stroke="#9a9a9a" stroke-width="0.8" x1="501.4" x2="501.4" y1="446.8" y2="593.8" /><line stroke="#9a9a9a" stroke-width="0.8" x1="498.04" x2="504.76" y1="446.8" y2="446.8" /><line stroke="#9a9a9a" stroke-width="0.8" x1="498.04" x2="504.76" y1="593.8" y2="593.8" /><text fill="#8a8a8a" font-size="7.6" text-anchor="start" x="505.47999999999996" y="454.48">1365mm</text><line stroke="#9a9a9a" stroke-width="0.8" x1="719.8" x2="812.2" y1="556.0" y2="556.0" /><line stroke="#9a9a9a" stroke-width="0.8" x1="719.8" x2="719.8" y1="552.64" y2="559.36" /><line stroke="#9a9a9a" stroke-width="0.8" x1="812.2" x2="812.2" y1="552.64" y2="559.36" /><text fill="#8a8a8a" font-size="7.6" text-anchor="start" x="726.52" y="553.36">910mm</text><line stroke="#9a9a9a" stroke-width="0.8" x1="719.8" x2="719.8" y1="556.0" y2="866.8" /><line stroke="#9a9a9a" stroke-width="0.8" x1="716.44" x2="723.16" y1="556.0" y2="556.0" /><line stroke="#9a9a9a" stroke-width="0.8" x1="716.44" x2="723.16" y1="866.8" y2="866.8" /><text fill="#8a8a8a" font-size="7.6" text-anchor="start" x="723.88" y="563.6800000000001">2730mm</text><text fill="#1b1b1b" font-size="10" text-anchor="middle" x="1257.3999999999999" y="424.0">Balcony 1</text><text fill="#1b1b1b" font-size="10" text-anchor="middle" x="1257.3999999999999" y="434.79999999999995">910x3640mm</text><text fill="#1b1b1b" font-size="10" text-anchor="middle" x="1257.3999999999999" y="445.6">3.3sqm / 2.0jo</text><text fill="#1b1b1b" font-size="10" text-anchor="middle" x="356.5" y="533.2">Bedroom 2</text><text fill="#1b1b1b" font-size="10" text-anchor="middle" x="356.5" y="544.0">2275x5460mm</text><text fill="#1b1b1b" font-size="10" text-anchor="middle" x="356.5" y="554.8">12.4sqm / 7.7jo</text><text fill="#1b1b1b" font-size="10" text-anchor="middle" x="1011.6999999999999" y="697.0">Bedroom 3</text><text fill="#1b1b1b" font-size="10" text-anchor="middle" x="1011.6999999999999" y="707.8">3185x2730mm</text><text fill="#1b1b1b" font-size="10" text-anchor="middle" x="1011.6999999999999" y="718.5999999999999">8.7sqm / 5.4jo</text><text fill="#1b1b1b" font-size="9" text-anchor="middle" x="684.0999999999999" y="601.45">Hall 2</text><text fill="#1b1b1b" font-size="9" text-anchor="middle" x="684.0999999999999" y="612.25">5.0sqm / 3.1jo</text><text fill="#1b1b1b" font-size="10" text-anchor="middle" x="957.1" y="369.4">Master</text><text fill="#1b1b1b" font-size="10" text-anchor="middle" x="957.1" y="380.2">4095x2730mm</text><text fill="#1b1b1b" font-size="10" text-anchor="middle" x="957.1" y="391.0">11.2sqm / 6.9jo</text><text fill="#1b1b1b" font-size="10" text-anchor="middle" x="602.2" y="314.8">W.I.C</text><text fill="#1b1b1b" font-size="10" text-anchor="middle" x="602.2" y="325.6">to master</text><text fill="#1b1b1b" font-size="10" text-anchor="middle" x="602.2" y="336.4">1820x1820mm</text><text fill="#1b1b1b" font-size="10" text-anchor="middle" x="602.2" y="347.2">3.3sqm / 2.0jo</text><text fill="#4a4a4a" font-size="10" text-anchor="middle" x="356.5" y="274.6">CL</text><text fill="#4a4a4a" font-size="10" text-anchor="middle" x="1148.1999999999998" y="711.4">CL</text><text fill="#111111" font-size="14" x="220.0" y="180.0">F2 Plan  (9100 x 5460 mm)</text><text fill="#444444" font-size="10" x="220.0" y="198.0">Scale: 1px=8.3mm</text><rect fill="#ffffff" height="162" stroke="#777777" stroke-width="1" width="170" x="1400.0" y="150.0" /><text fill="#111111" font-size="11" x="1408.0" y="164.0">Legend</text><rect fill="#efe9ff" height="12" stroke="#333333" stroke-width="1" width="12" x="1408.0" y="174.0" /><text fill="#222222" font-size="10" x="1426.0" y="184.0">Hall</text><rect fill="#e9f5ff" height="12" stroke="#333333" stroke-width="1" width="12" x="1408.0" y="192.0" /><text fill="#222222" font-size="10" x="1426.0" y="202.0">Balcony</text><rect fill="#c5e8ff" height="12" stroke="#333333" stroke-width="1" width="12" x="1408.0" y="210.0" /><text fill="#222222" font-size="10" x="1426.0" y="220.0">Master Bedroom</text><rect fill="#d9f2ff" height="12" stroke="#333333" stroke-width="1" width="12" x="1408.0" y="228.0" /><text fill="#222222" font-size="10" x="1426.0" y="238.0">Bedroom</text><rect fill="#f7f3ea" height="12" stroke="#333333" stroke-width="1" width="12" x="1408.0" y="246.0" /><text fill="#222222" font-size="10" x="1426.0" y="256.0">Closet</text><rect fill="#ece7dd" height="12" stroke="#333333" stroke-width="1" width="12" x="1408.0" y="264.0" /><text fill="#222222" font-size="10" x="1426.0" y="274.0">Wic</text><line stroke="#6aa4ff" stroke-width="4" x1="1408.0" x2="1435.0" y1="294.0" y2="294.0" /><text fill="#222222" font-size="10" x="1442.0" y="297.0">Window</text><line stroke="#666666" stroke-width="2.4" x1="1408.0" x2="1435.0" y1="310.0" y2="310.0" /><path d="M 1408.0,310.0 A 10,10 0 0 1 1418.0,300.0" fill="none" stroke="#666666" stroke-width="1.2" /><text fill="#222222" font-size="10" x="1442.0" y="313.0">Door</text><rect fill="#ffffff" height="84" stroke="#777777" stroke-width="1" width="200" x="1400.0" y="520.0" /><text fill="#111111" font-size="10" x="1408.0" y="533.0">Area (F2)</text><text fill="#222222" font-size="9" x="1408.0" y="550.0">F1: in 49.7 sqm (15.0 tsubo), out 0.0 sqm (0.0 tsubo)</text><text fill="#222222" font-size="9" x="1408.0" y="566.0">F2: in 44.7 sqm (13.5 tsubo), out 3.3 sqm (1.0 tsubo)</text><text fill="#222222" font-size="9" x="1408.0" y="582.0">Total indoor: 94.4 sqm (28.6 tsubo)</text><text fill="#222222" font-size="9" x="1408.0" y="598.0">Total outdoor: 3.3 sqm (1.0 tsubo)</text><line stroke="#111111" stroke-width="2" x1="175.0" x2="175.0" y1="238.0" y2="208.0" /><polygon fill="#111111" points="175.0,208.0 181.0,214.0 169.0,214.0" /><text fill="#111111" font-size="12" x="170.0" y="202.0">N</text><line stroke="#545454" stroke-width="1.0" x1="220.0" x2="1312.0" y1="148.0" y2="148.0" /><line stroke="#545454" stroke-width="0.8" x1="220.0" x2="220.0" y1="220.0" y2="148.0" /><line stroke="#545454" stroke-width="1.0" x1="220.0" x2="220.0" y1="145.0" y2="151.0" /><line stroke="#545454" stroke-width="0.8" x1="1312.0" x2="1312.0" y1="220.0" y2="148.0" /><line stroke="#545454" stroke-width="1.0" x1="1312.0" x2="1312.0" y1="145.0" y2="151.0" /><text fill="#545454" font-size="8.8" text-anchor="middle" x="766.0" y="145.0">9100mm</text><line stroke="#666666" stroke-width="1.0" x1="220.0" x2="1312.0" y1="166.0" y2="166.0" /><line stroke="#666666" stroke-width="0.8" x1="220.0" x2="220.0" y1="220.0" y2="166.0" /><line stroke="#666666" stroke-width="1.0" x1="220.0" x2="220.0" y1="163.0" y2="169.0" /><line stroke="#666666" stroke-width="0.8" x1="493.0" x2="493.0" y1="220.0" y2="166.0" /><line stroke="#666666" stroke-width="1.0" x1="493.0" x2="493.0" y1="163.0" y2="169.0" /><line stroke="#666666" stroke-width="0.8" x1="711.4" x2="711.4" y1="220.0" y2="166.0" /><line stroke="#666666" stroke-width="1.0" x1="711.4" x2="711.4" y1="163.0" y2="169.0" /><line stroke="#666666" stroke-width="0.8" x1="1202.8" x2="1202.8" y1="220.0" y2="166.0" /><line stroke="#666666" stroke-width="1.0" x1="1202.8" x2="1202.8" y1="163.0" y2="169.0" /><line stroke="#666666" stroke-width="0.8" x1="1312.0" x2="1312.0" y1="220.0" y2="166.0" /><line stroke="#666666" stroke-width="1.0" x1="1312.0" x2="1312.0" y1="163.0" y2="169.0" /><text fill="#666666" font-size="8.2" text-anchor="middle" x="356.5" y="163.0">2275</text><text fill="#666666" font-size="8.2" text-anchor="middle" x="602.2" y="163.0">1820</text><text fill="#666666" font-size="8.2" text-anchor="middle" x="957.1" y="163.0">4095</text><text fill="#666666" font-size="8.2" text-anchor="middle" x="1257.3999999999999" y="163.0">910</text><line stroke="#7a7a7a" stroke-width="1.0" x1="220.0" x2="1312.0" y1="184.0" y2="184.0" /><line stroke="#7a7a7a" stroke-width="0.8" x1="220.0" x2="220.0" y1="220.0" y2="184.0" /><line stroke="#7a7a7a" stroke-width="1.0" x1="220.0" x2="220.0" y1="181.0" y2="187.0" /><line stroke="#7a7a7a" stroke-width="0.8" x1="766.0" x2="766.0" y1="220.0" y2="184.0" /><line stroke="#7a7a7a" stroke-width="1.0" x1="766.0" x2="766.0" y1="181.0" y2="187.0" /><line stroke="#7a7a7a" stroke-width="0.8" x1="929.8" x2="929.8" y1="220.0" y2="184.0" /><line stroke="#7a7a7a" stroke-width="1.0" x1="929.8" x2="929.8" y1="181.0" y2="187.0" /><line stroke="#7a7a7a" stroke-width="0.8" x1="984.4" x2="984.4" y1="220.0" y2="184.0" /><line stroke="#7a7a7a" stroke-width="1.0" x1="984.4" x2="984.4" y1="181.0" y2="187.0" /><line stroke="#7a7a7a" stroke-width="0.8" x1="1148.2" x2="1148.2" y1="220.0" y2="184.0" /><line stroke="#7a7a7a" stroke-width="1.0" x1="1148.2" x2="1148.2" y1="181.0" y2="187.0" /><line stroke="#7a7a7a" stroke-width="0.8" x1="1312.0" x2="1312.0" y1="220.0" y2="184.0" /><line stroke="#7a7a7a" stroke-width="1.0" x1="1312.0" x2="1312.0" y1="181.0" y2="187.0" /><text fill="#7a7a7a" font-size="7.8" text-anchor="middle" x="493.0" y="181.0">4550</text><text fill="#7a7a7a" font-size="7.8" text-anchor="middle" x="847.9" y="181.0">1365</text><text fill="#7a7a7a" font-size="7.8" text-anchor="middle" x="1066.3" y="181.0">1365</text><text fill="#7a7a7a" font-size="7.8" text-anchor="middle" x="1230.1" y="181.0">1365</text><line stroke="#545454" stroke-width="1.0" x1="220.0" x2="1312.0" y1="947.2" y2="947.2" /><line stroke="#545454" stroke-width="0.8" x1="220.0" x2="220.0" y1="875.2" y2="947.2" /><line stroke="#545454" stroke-width="1.0" x1="220.0" x2="220.0" y1="944.2" y2="950.2" /><line stroke="#545454" stroke-width="0.8" x1="1312.0" x2="1312.0" y1="875.2" y2="947.2" /><line stroke="#545454" stroke-width="1.0" x1="1312.0" x2="1312.0" y1="944.2" y2="950.2" /><text fill="#545454" font-size="8.8" text-anchor="middle" x="766.0" y="957.1999999999999">9100mm</text><line stroke="#666666" stroke-width="1.0" x1="220.0" x2="1312.0" y1="929.2" y2="929.2" /><line stroke="#666666" stroke-width="0.8" x1="220.0" x2="220.0" y1="875.2" y2="929.2" /><line stroke="#666666" stroke-width="1.0" x1="220.0" x2="220.0" y1="926.2" y2="932.2" /><line stroke="#666666" stroke-width="0.8" x1="493.0" x2="493.0" y1="875.2" y2="929.2" /><line stroke="#666666" stroke-width="1.0" x1="493.0" x2="493.0" y1="926.2" y2="932.2" /><line stroke="#666666" stroke-width="0.8" x1="602.2" x2="602.2" y1="875.2" y2="929.2" /><line stroke="#666666" stroke-width="1.0" x1="602.2" x2="602.2" y1="926.2" y2="932.2" /><line stroke="#666666" stroke-width="0.8" x1="711.4" x2="711.4" y1="875.2" y2="929.2" /><line stroke="#666666" stroke-width="1.0" x1="711.4" x2="711.4" y1="926.2" y2="932.2" /><line stroke="#666666" stroke-width="0.8" x1="820.6" x2="820.6" y1="875.2" y2="929.2" /><line stroke="#666666" stroke-width="1.0" x1="820.6" x2="820.6" y1="926.2" y2="932.2" /><line stroke="#666666" stroke-width="0.8" x1="1202.8" x2="1202.8" y1="875.2" y2="929.2" /><line stroke="#666666" stroke-width="1.0" x1="1202.8" x2="1202.8" y1="926.2" y2="932.2" /><line stroke="#666666" stroke-width="0.8" x1="1312.0" x2="1312.0" y1="875.2" y2="929.2" /><line stroke="#666666" stroke-width="1.0" x1="1312.0" x2="1312.0" y1="926.2" y2="932.2" /><text fill="#666666" font-size="8.2" text-anchor="middle" x="356.5" y="939.1999999999999">2275</text><text fill="#666666" font-size="8.2" text-anchor="middle" x="547.5999999999999" y="939.1999999999999">910</text><text fill="#666666" font-size="8.2" text-anchor="middle" x="656.8" y="939.1999999999999">910</text><text fill="#666666" font-size="8.2" text-anchor="middle" x="766.0" y="939.1999999999999">910</text><text fill="#666666" font-size="8.2" text-anchor="middle" x="1011.6999999999999" y="939.1999999999999">3185</text><text fill="#666666" font-size="8.2" text-anchor="middle" x="1257.3999999999999" y="939.1999999999999">910</text><line stroke="#7a7a7a" stroke-width="1.0" x1="220.0" x2="1312.0" y1="911.2" y2="911.2" /><line stroke="#7a7a7a" stroke-width="0.8" x1="220.0" x2="220.0" y1="875.2" y2="911.2" /><line stroke="#7a7a7a" stroke-width="1.0" x1="220.0" x2="220.0" y1="908.2" y2="914.2" /><line stroke="#7a7a7a" stroke-width="0.8" x1="274.6" x2="274.6" y1="875.2" y2="911.2" /><line stroke="#7a7a7a" stroke-width="1.0" x1="274.6" x2="274.6" y1="908.2" y2="914.2" /><line stroke="#7a7a7a" stroke-width="0.8" x1="383.8" x2="383.8" y1="875.2" y2="911.2" /><line stroke="#7a7a7a" stroke-width="1.0" x1="383.8" x2="383.8" y1="908.2" y2="914.2" /><line stroke="#7a7a7a" stroke-width="0.8" x1="929.8" x2="929.8" y1="875.2" y2="911.2" /><line stroke="#7a7a7a" stroke-width="1.0" x1="929.8" x2="929.8" y1="908.2" y2="914.2" /><line stroke="#7a7a7a" stroke-width="0.8" x1="1093.6" x2="1093.6" y1="875.2" y2="911.2" /><line stroke="#7a7a7a" stroke-width="1.0" x1="1093.6" x2="1093.6" y1="908.2" y2="914.2" /><line stroke="#7a7a7a" stroke-width="0.8" x1="1312.0" x2="1312.0" y1="875.2" y2="911.2" /><line stroke="#7a7a7a" stroke-width="1.0" x1="1312.0" x2="1312.0" y1="908.2" y2="914.2" /><text fill="#7a7a7a" font-size="7.8" text-anchor="middle" x="329.2" y="921.1999999999999">910</text><text fill="#7a7a7a" font-size="7.8" text-anchor="middle" x="656.8" y="921.1999999999999">4550</text><text fill="#7a7a7a" font-size="7.8" text-anchor="middle" x="1011.6999999999999" y="921.1999999999999">1365</text><text fill="#7a7a7a" font-size="7.8" text-anchor="middle" x="1202.8" y="921.1999999999999">1820</text><line stroke="#545454" stroke-width="1.0" x1="148.0" x2="148.0" y1="220.0" y2="875.2" /><line stroke="#545454" stroke-width="0.8" x1="220.0" x2="148.0" y1="220.0" y2="220.0" /><line stroke="#545454" stroke-width="1.0" x1="145.0" x2="151.0" y1="220.0" y2="220.0" /><line stroke="#545454" stroke-width="0.8" x1="220.0" x2="148.0" y1="875.2" y2="875.2" /><line stroke="#545454" stroke-width="1.0" x1="145.0" x2="151.0" y1="875.2" y2="875.2" /><text fill="#545454" font-size="8.8" x="144.0" y="547.5999999999999">5460mm</text><line stroke="#666666" stroke-width="1.0" x1="166.0" x2="166.0" y1="220.0" y2="875.2" /><line stroke="#666666" stroke-width="0.8" x1="220.0" x2="166.0" y1="220.0" y2="220.0" /><line stroke="#666666" stroke-width="1.0" x1="163.0" x2="169.0" y1="220.0" y2="220.0" /><line stroke="#666666" stroke-width="0.8" x1="220.0" x2="166.0" y1="875.2" y2="875.2" /><line stroke="#666666" stroke-width="1.0" x1="163.0" x2="169.0" y1="875.2" y2="875.2" /><text fill="#666666" font-size="8.2" x="162.0" y="547.5999999999999">5460</text><line stroke="#7a7a7a" stroke-width="1.0" x1="184.0" x2="184.0" y1="220.0" y2="875.2" /><line stroke="#7a7a7a" stroke-width="0.8" x1="220.0" x2="184.0" y1="220.0" y2="220.0" /><line stroke="#7a7a7a" stroke-width="1.0" x1="181.0" x2="187.0" y1="220.0" y2="220.0" /><line stroke="#7a7a7a" stroke-width="0.8" x1="220.0" x2="184.0" y1="329.2" y2="329.2" /><line stroke="#7a7a7a" stroke-width="1.0" x1="181.0" x2="187.0" y1="329.2" y2="329.2" /><line stroke="#7a7a7a" stroke-width="0.8" x1="220.0" x2="184.0" y1="493.0" y2="493.0" /><line stroke="#7a7a7a" stroke-width="1.0" x1="181.0" x2="187.0" y1="493.0" y2="493.0" /><line stroke="#7a7a7a" stroke-width="0.8" x1="220.0" x2="184.0" y1="602.2" y2="602.2" /><line stroke="#7a7a7a" stroke-width="1.0" x1="181.0" x2="187.0" y1="602.2" y2="602.2" /><line stroke="#7a7a7a" stroke-width="0.8" x1="220.0" x2="184.0" y1="766.0" y2="766.0" /><line stroke="#7a7a7a" stroke-width="1.0" x1="181.0" x2="187.0" y1="766.0" y2="766.0" /><line stroke="#7a7a7a" stroke-width="0.8" x1="220.0" x2="184.0" y1="875.2" y2="875.2" /><line stroke="#7a7a7a" stroke-width="1.0" x1="181.0" x2="187.0" y1="875.2" y2="875.2" /><text fill="#7a7a7a" font-size="7.8" x="180.0" y="274.6">910</text><text fill="#7a7a7a" font-size="7.8" x="180.0" y="411.1">1365</text><text fill="#7a7a7a" font-size="7.8" x="180.0" y="547.5999999999999">910</text><text fill="#7a7a7a" font-size="7.8" x="180.0" y="684.0999999999999">1365</text><text fill="#7a7a7a" font-size="7.8" x="180.0" y="820.6">910</text><line stroke="#545454" stroke-width="1.0" x1="1384.0" x2="1384.0" y1="220.0" y2="875.2" /><line stroke="#545454" stroke-width="0.8" x1="1312.0" x2="1384.0" y1="220.0" y2="220.0" /><line stroke="#545454" stroke-width="1.0" x1="1381.0" x2="1387.0" y1="220.0" y2="220.0" /><line stroke="#545454" stroke-width="0.8" x1="1312.0" x2="1384.0" y1="875.2" y2="875.2" /><line stroke="#545454" stroke-width="1.0" x1="1381.0" x2="1387.0" y1="875.2" y2="875.2" /><text fill="#545454" font-size="8.8" x="1389.0" y="547.5999999999999">5460mm</text><line stroke="#666666" stroke-width="1.0" x1="1366.0" x2="1366.0" y1="220.0" y2="875.2" /><line stroke="#666666" stroke-width="0.8" x1="1312.0" x2="1366.0" y1="220.0" y2="220.0" /><line stroke="#666666" stroke-width="1.0" x1="1363.0" x2="1369.0" y1="220.0" y2="220.0" /><line stroke="#666666" stroke-width="0.8" x1="1312.0" x2="1366.0" y1="656.8" y2="656.8" /><line stroke="#666666" stroke-width="1.0" x1="1363.0" x2="1369.0" y1="656.8" y2="656.8" /><line stroke="#666666" stroke-width="0.8" x1="1312.0" x2="1366.0" y1="875.2" y2="875.2" /><line stroke="#666666" stroke-width="1.0" x1="1363.0" x2="1369.0" y1="875.2" y2="875.2" /><text fill="#666666" font-size="8.2" x="1371.0" y="438.4">3640</text><text fill="#666666" font-size="8.2" x="1371.0" y="766.0">1820</text></svg>