<?xml version="1.0" encoding="utf-8" ?>
<svg baseProfile="tiny" height="1204.4px" version="1.2" width="1532.0px" xmlns="http://www.w3.org/2000/svg" xmlns:ev="http://www.w3.org/2001/xml-events" xmlns:xlink="http://www.w3.org/1999/xlink"><defs /><rect fill="#fafafa" height="1204.4" width="1532.0" x="0" y="0" /><line stroke="#ececec" stroke-width="0.7" x1="220.0" x2="220.0" y1="220.0" y2="984.4" /><line stroke="#ececec" stroke-width="0.7" x1="274.6" x2="274.6" y1="220.0" y2="984.4" /><line stroke="#ececec" stroke-width="0.7" x1="329.2" x2="329.2" y1="220.0" y2="984.4" /><line stroke="#ececec" stroke-width="0.7" x1="383.8" x2="383.8" y1="220.0" y2="984.4" /><line stroke="#ececec" stroke-width="0.7" x1="438.4" x2="438.4" y1="220.0" y2="984.4" /><line stroke="#ececec" stroke-width="0.7" x1="493.0" x2="493.0" y1="220.0" y2="984.4" /><line stroke="#ececec" stroke-width="0.7" x1="547.6" x2="547.6" y1="220.0" y2="984.4" /><line stroke="#ececec" stroke-width="0.7" x1="602.2" x2="602.2" y1="220.0" y2="984.4" /><line stroke="#ececec" stroke-width="0.7" x1="656.8" x2="656.8" y1="220.0" y2="984.4" /><line stroke="#ececec" stroke-width="0.7" x1="711.4" x2="711.4" y1="220.0" y2="984.4" /><line stroke="#ececec" stroke-width="0.7" x1="766.0" x2="766.0" y1="220.0" y2="984.4" /><line stroke="#ececec" stroke-width="0.7" x1="820.6" x2="820.6" y1="220.0" y2="984.4" /><line stroke="#ececec" stroke-width="0.7" x1="875.2" x2="875.2" y1="220.0" y2="984.4" /><line stroke="#ececec" stroke-width="0.7" x1="929.8" x2="929.8" y1="220.0" y2="984.4" /><line stroke="#ececec" stroke-width="0.7" x1="984.4" x2="984.4" y1="220.0" y2="984.4" /><line stroke="#ececec" stroke-width="0.7" x1="1039.0" x2="1039.0" y1="220.0" y2="984.4" /><line stroke="#ececec" stroke-width="0.7" x1="1093.6" x2="1093.6" y1="220.0" y2="984.4" /><line stroke="#ececec" stroke-width="0.7" x1="1148.2" x2="1148.2" y1="220.0" y2="984.4" /><line stroke="#ececec" stroke-width="0.7" x1="1202.8" x2="1202.8" y1="220.0" y2="984.4" /><line stroke="#ececec" stroke-width="0.7" x1="1257.4" x2="1257.4" y1="220.0" y2="984.4" /><line stroke="#ececec" stroke-width="0.7" x1="1312.0" x2="1312.0" y1="220.0" y2="984.4" /><line stroke="#d1d1d1" stroke-width="1.1" x1="220.0" x2="220.0" y1="220.0" y2="984.4" /><line stroke="#d1d1d1" stroke-width="1.1" x1="329.2" x2="329.2" y1="220.0" y2="984.4" /><line stroke="#d1d1d1" stroke-width="1.1" x1="438.4" x2="438.4" y1="220.0" y2="984.4" /><line stroke="#d1d1d1" stroke-width="1.1" x1="547.6" x2="547.6" y1="220.0" y2="984.4" /><line stroke="#d1d1d1" stroke-width="1.1" x1="656.8" x2="656.8" y1="220.0" y2="984.4" /><line stroke="#d1d1d1" stroke-width="1.1" x1="766.0" x2="766.0" y1="220.0" y2="984.4" /><line stroke="#d1d1d1" stroke-width="1.1" x1="875.2" x2="875.2" y1="220.0" y2="984.4" /><line stroke="#d1d1d1" stroke-width="1.1" x1="984.4" x2="984.4" y1="220.0" y2="984.4" /><line stroke="#d1d1d1" stroke-width="1.1" x1="1093.6" x2="1093.6" y1="220.0" y2="984.4" /><line stroke="#d1d1d1" stroke-width="1.1" x1="1202.8" x2="1202.8" y1="220.0" y2="984.4" /><line stroke="#d1d1d1" stroke-width="1.1" x1="1312.0" x2="1312.0" y1="220.0" y2="984.4" /><line stroke="#d1d1d1" stroke-width="1.1" x1="220.0" x2="1312.0" y1="220.0" y2="220.0" /><line stroke="#d1d1d1" stroke-width="1.1" x1="220.0" x2="1312.0" y1="329.2" y2="329.2" /><line stroke="#d1d1d1" stroke-width="1.1" x1="220.0" x2="1312.0" y1="438.4" y2="438.4" /><line stroke="#d1d1d1" stroke-width="1.1" x1="220.0" x2="1312.0" y1="547.6" y2="547.6" /><line stroke="#d1d1d1" stroke-width="1.1" x1="220.0" x2="1312.0" y1="656.8" y2="656.8" /><line stroke="#d1d1d1" stroke-width="1.1" x1="220.0" x2="1312.0" y1="766.0" y2="766.0" /><line stroke="#d1d1d1" stroke-width="1.1" x1="220.0" x2="1312.0" y1="875.2" y2="875.2" /><line stroke="#d1d1d1" stroke-width="1.1" x1="220.0" x2="1312.0" y1="984.4" y2="984.4" /><line stroke="#ececec" stroke-width="0.7" x1="220.0" x2="1312.0" y1="220.0" y2="220.0" /><line stroke="#ececec" stroke-width="0.7" x1="220.0" x2="1312.0" y1="274.6" y2="274.6" /><line stroke="#ececec" stroke-width="0.7" x1="220.0" x2="1312.0" y1="329.2" y2="329.2" /><line stroke="#ececec" stroke-width="0.7" x1="220.0" x2="1312.0" y1="383.8" y2="383.8" /><line stroke="#ececec" stroke-width="0.7" x1="220.0" x2="1312.0" y1="438.4" y2="438.4" /><line stroke="#ececec" stroke-width="0.7" x1="220.0" x2="1312.0" y1="493.0" y2="493.0" /><line stroke="#ececec" stroke-width="0.7" x1="220.0" x2="1312.0" y1="547.6" y2="547.6" /><line stroke="#ececec" stroke-width="0.7" x1="220.0" x2="1312.0" y1="602.2" y2="602.2" /><line stroke="#ececec" stroke-width="0.7" x1="220.0" x2="1312.0" y1="656.8" y2="656.8" /><line stroke="#ececec" stroke-width="0.7" x1="220.0" x2="1312.0" y1="711.4" y2="711.4" /><line stroke="#ececec" stroke-width="0.7" x1="220.0" x2="1312.0" y1="766.0" y2="766.0" /><line stroke="#ececec" stroke-width="0.7" x1="220.0" x2="1312.0" y1="820.6" y2="820.6" /><line stroke="#ececec" stroke-width="0.7" x1="220.0" x2="1312.0" y1="875.2" y2="875.2" /><line stroke="#ececec" stroke-width="0.7" x1="220.0" x2="1312.0" y1="929.8" y2="929.8" /><line stroke="#ececec" stroke-width="0.7" x1="220.0" x2="1312.0" y1="984.4" y2="984.4" /><rect fill="none" height="764.4" stroke="#6a6a6a" stroke-dasharray="8,4" stroke-width="2" width="1092.0" x="220.0" y="220.0" /><rect fill="none" height="764.4" stroke="#1f1f1f" stroke-width="3.5" width="1092.0" x="220.0" y="220.0" /><text fill="#555555" font-size="10" x="222.0" y="160.0">Site Envelope = Building Footprint</text><rect fill="#dcecff" height="218.4" stroke="none" width="218.4" x="711.4" y="766.0" /><line stroke="#2f2f2f" stroke-width="2.2" x1="711.4" x2="929.8" y1="766.0" y2="766.0" /><line stroke="#2f2f2f" stroke-width="2.2" x1="711.4" x2="929.8" y1="984.4" y2="984.4" /><line stroke="#2f2f2f" stroke-width="2.2" x1="929.8" x2="929.8" y1="766.0" y2="984.4" /><line stroke="#2f2f2f" stroke-width="2.2" x1="711.4" x2="711.4" y1="766.0" y2="984.4" /><rect fill="#f8f0d9" height="218.4" stroke="none" width="273.0" x="220.0" y="766.0" /><line stroke="#2f2f2f" stroke-width="2.2" x1="220.0" x2="493.0" y1="984.4" y2="984.4" /><line stroke="#2f2f2f" stroke-width="2.2" x1="220.0" x2="493.0" y1="766.0" y2="766.0" /><line stroke="#2f2f2f" stroke-width="2.2" x1="220.0" x2="220.0" y1="766.0" y2="984.4" /><line stroke="#2f2f2f" stroke-width="2.2" x1="493.0" x2="493.0" y1="766.0" y2="984.4" /><rect fill="#efe9ff" height="109.2" stroke="none" width="109.2" x="220.0" y="438.4" /><rect fill="#efe9ff" height="218.4" stroke="none" width="109.2" x="220.0" y="547.6" /><rect fill="#efe9ff" height="273.0" stroke="none" width="218.4" x="329.2" y="493.0" /><line stroke="#2f2f2f" stroke-width="2.2" x1="220.0" x2="547.6" y1="766.0" y2="766.0" /><line stroke="#2f2f2f" stroke-width="2.2" x1="329.2" x2="547.6" y1="493.0" y2="493.0" /><line stroke="#2f2f2f" stroke-width="2.2" x1="220.0" x2="329.2" y1="438.4" y2="438.4" /><line stroke="#2f2f2f" stroke-width="2.2" x1="220.0" x2="220.0" y1="438.4" y2="766.0" /><line stroke="#2f2f2f" stroke-width="2.2" x1="547.6" x2="547.6" y1="493.0" y2="766.0" /><line stroke="#2f2f2f" stroke-width="2.2" x1="329.2" x2="329.2" y1="438.4" y2="493.0" /><rect fill="#ffe2b8" height="436.8" stroke="none" width="382.2" x="929.8" y="547.6" /><rect fill="#ffe2b8" height="327.6" stroke="none" width="764.4" x="547.6" y="220.0" /><line stroke="#2f2f2f" stroke-width="2.2" x1="547.6" x2="929.8" y1="547.6" y2="547.6" /><line stroke="#2f2f2f" stroke-width="2.2" x1="929.8" x2="1312.0" y1="984.4" y2="984.4" /><line stroke="#2f2f2f" stroke-width="2.2" x1="547.6" x2="1312.0" y1="220.0" y2="220.0" /><line stroke="#2f2f2f" stroke-width="2.2" x1="1312.0" x2="1312.0" y1="220.0" y2="984.4" /><line stroke="#2f2f2f" stroke-width="2.2" x1="929.8" x2="929.8" y1="547.6" y2="984.4" /><line stroke="#2f2f2f" stroke-width="2.2" x1="547.6" x2="547.6" y1="220.0" y2="547.6" /><rect fill="#f0f0f0" height="218.4" stroke="none" width="382.2" x="547.6" y="547.6" /><line stroke="#2f2f2f" stroke-width="2.2" x1="547.6" x2="929.8" y1="547.6" y2="547.6" /><line stroke="#2f2f2f" stroke-width="2.2" x1="547.6" x2="929.8" y1="766.0" y2="766.0" /><line stroke="#2f2f2f" stroke-width="2.2" x1="929.8" x2="929.8" y1="547.6" y2="766.0" /><line stroke="#2f2f2f" stroke-width="2.2" x1="547.6" x2="547.6" y1="547.6" y2="766.0" /><rect fill="#fbe7e6" height="218.4" stroke="none" width="109.2" x="220.0" y="220.0" /><line stroke="#2f2f2f" stroke-width="2.2" x1="220.0" x2="329.2" y1="220.0" y2="220.0" /><line stroke="#2f2f2f" stroke-width="2.2" x1="220.0" x2="329.2" y1="438.4" y2="438.4" /><line stroke="#2f2f2f" stroke-width="2.2" x1="329.2" x2="329.2" y1="220.0" y2="438.4" /><line stroke="#2f2f2f" stroke-width="2.2" x1="220.0" x2="220.0" y1="220.0" y2="438.4" /><rect fill="#e7fbfb" height="218.4" stroke="none" width="218.4" x="493.0" y="766.0" /><line stroke="#2f2f2f" stroke-width="2.2" x1="493.0" x2="711.4" y1="984.4" y2="984.4" /><line stroke="#2f2f2f" stroke-width="2.2" x1="493.0" x2="711.4" y1="766.0" y2="766.0" /><line stroke="#2f2f2f" stroke-width="2.2" x1="493.0" x2="493.0" y1="766.0" y2="984.4" /><line stroke="#2f2f2f" stroke-width="2.2" x1="711.4" x2="711.4" y1="766.0" y2="984.4" /><rect fill="none" height="32.76" stroke="#8a6b4a" stroke-width="1.0" width="244.608" x="960.376" y="252.76" /><rect fill="none" height="72.072" stroke="#8a6b4a" stroke-width="1.0" width="29.484" x="1175.5" y="252.76" /><circle cx="1035.1888" cy="269.14" fill="none" r="8.4" stroke="#8a6b4a" stroke-width="0.9" /><circle cx="1056.7888" cy="269.14" fill="none" r="8.4" stroke="#8a6b4a" stroke-width="0.9" /><rect fill="none" height="17.2973" stroke="#8a6b4a" stroke-width="0.9" width="20.0491" x="1179.9226" y="283.0302" /><rect fill="none" height="39.312" stroke="#8a6b4a" stroke-width="1.0" width="163.8" x="853.36" y="357.592" /><rect fill="none" height="48.048" stroke="#6f6f6f" stroke-width="1.0" width="74.256" x="532.312" y="805.312" /><rect fill="none" height="48.048" stroke="#6f6f6f" stroke-width="1.0" width="74.256" x="619.672" y="805.312" /><line stroke="#8f8f8f" stroke-width="0.8" x1="523.576" x2="680.824" y1="790.912" y2="790.912" /><circle cx="685.0" cy="792.4" fill="none" r="8.4" stroke="#7c7c7c" stroke-width="0.9" /><line stroke="#7c7c7c" stroke-width="0.8" x1="674.2" x2="695.8" y1="792.4" y2="792.4" /><line stroke="#7c7c7c" stroke-width="0.8" x1="685.0" x2="685.0" y1="781.6" y2="803.2" /><rect fill="none" height="109.2" rx="6" ry="6" stroke="#6f6f6f" stroke-width="1.0" width="135.408" x="755.08" y="814.048" /><circle cx="903.4" cy="792.4" fill="none" r="8.4" stroke="#7c7c7c" stroke-width="0.9" /><line stroke="#7c7c7c" stroke-width="0.8" x1="892.6" x2="914.2" y1="792.4" y2="792.4" /><line stroke="#7c7c7c" stroke-width="0.8" x1="903.4" x2="903.4" y1="781.6" y2="803.2" /><line stroke="#9a9a9a" stroke-width="0.9" x1="593.464" x2="883.936" y1="586.912" y2="586.912" /><line stroke="#9a9a9a" stroke-width="0.9" x1="593.464" x2="883.936" y1="726.688" y2="726.688" /><rect fill="#ffffff" height="163.8" stroke="#202020" stroke-dasharray="8,4" stroke-width="2.6" width="109.2" x="329.2" y="329.2" /><rect fill="#ffffff" height="109.2" stroke="#202020" stroke-dasharray="8,4" stroke-width="2.6" width="218.4" x="329.2" y="220.0" /><rect fill="#ffffff" height="163.8" stroke="#202020" stroke-dasharray="8,4" stroke-width="2.6" width="109.2" x="438.4" y="329.2" /><line stroke="#2a2a2a" stroke-width="1.4" x1="342.304" x2="425.296" y1="352.6" y2="352.6" /><line stroke="#2a2a2a" stroke-width="1.4" x1="342.304" x2="425.296" y1="376.0" y2="376.0" /><line stroke="#2a2a2a" stroke-width="1.4" x1="342.304" x2="425.296" y1="399.4" y2="399.4" /><line stroke="#2a2a2a" stroke-width="1.4" x1="342.304" x2="425.296" y1="422.8" y2="422.8" /><line stroke="#2a2a2a" stroke-width="1.4" x1="342.304" x2="425.296" y1="446.2" y2="446.2" /><line stroke="#2a2a2a" stroke-width="1.4" x1="342.304" x2="425.296" y1="469.6" y2="469.6" /><line stroke="#2a2a2a" stroke-width="1.4" x1="451.504" x2="534.496" y1="352.6" y2="352.6" /><line stroke="#2a2a2a" stroke-width="1.4" x1="451.504" x2="534.496" y1="376.0" y2="376.0" /><line stroke="#2a2a2a" stroke-width="1.4" x1="451.504" x2="534.496" y1="399.4" y2="399.4" /><line stroke="#2a2a2a" stroke-width="1.4" x1="451.504" x2="534.496" y1="422.8" y2="422.8" /><line stroke="#2a2a2a" stroke-width="1.4" x1="451.504" x2="534.496" y1="446.2" y2="446.2" /><line stroke="#2a2a2a" stroke-width="1.4" x1="451.504" x2="534.496" y1="469.6" y2="469.6" /><text fill="#202020" font-size="11" text-anchor="middle" x="383.79999999999995" y="411.1">Stair (UP)</text><text fill="#3a3a3a" font-size="9.0" text-anchor="middle" x="383.79999999999995" y="425.5">13R/12T</text><text fill="#4a4a4a" font-size="7.8" text-anchor="middle" x="383.79999999999995" y="433.9">H2730 R210 T228</text><line stroke="#ffffff" stroke-width="7" x1="329.2" x2="329.2" y1="438.4" y2="493.0" /><line stroke="#5e5e5e" stroke-width="1.0" x1="329.2" x2="329.2" y1="438.4" y2="493.0" /><line stroke="#ffffff" stroke-width="6" x1="365.5" x2="456.7" y1="766.0" y2="766.0" /><line stroke="#595959" stroke-width="1.2" x1="365.5" x2="424.78" y1="766.0" y2="825.28" /><path d="M 424.78,766.0 A 59.28,59.28 0 0 1 424.78,825.28" fill="none" stroke="#7a7a7a" stroke-width="1.0" /><line stroke="#ffffff" stroke-width="6" x1="547.6" x2="547.6" y1="474.7" y2="565.9" /><line stroke="#ffffff" stroke-width="6" x1="229.0" x2="320.2" y1="438.4" y2="438.4" /><line stroke="#ffffff" stroke-width="6" x1="474.7" x2="565.9" y1="766.0" y2="766.0" /><line stroke="#ffffff" stroke-width="6" x1="547.6" x2="547.6" y1="607.66" y2="705.94" /><line stroke="#595959" stroke-width="1.2" x1="547.6" x2="611.482" y1="607.66" y2="671.542" /><path d="M 547.5999999999999,671.5419999999999 A 63.882,63.882 0 0 1 611.482,671.5419999999999" fill="none" stroke="#7a7a7a" stroke-width="1.0" /><line stroke="#ffffff" stroke-width="6" x1="711.4" x2="711.4" y1="826.06" y2="924.34" /><line stroke="#595959" stroke-width="1.2" x1="711.4" x2="775.282" y1="826.06" y2="889.942" /><path d="M 711.4,889.942 A 63.882,63.882 0 0 1 775.282,889.942" fill="none" stroke="#7a7a7a" stroke-width="1.0" /><line stroke="#ffffff" stroke-width="7" x1="297.7" x2="415.3" y1="984.4" y2="984.4" /><line stroke="#595959" stroke-width="1.2" x1="297.7" x2="374.14" y1="984.4" y2="907.96" /><path d="M 374.14,984.4 A 76.44,76.44 0 0 1 374.14,907.9599999999999" fill="none" stroke="#7a7a7a" stroke-width="1.0" /><line stroke="#66a7ff" stroke-width="2.2" x1="217.36" x2="217.36" y1="820.6" y2="929.8" /><line stroke="#66a7ff" stroke-width="2.2" x1="222.64" x2="222.64" y1="820.6" y2="929.8" /><line stroke="#66a7ff" stroke-width="2.2" x1="1309.36" x2="1309.36" y1="595.684" y2="744.124" /><line stroke="#66a7ff" stroke-width="2.2" x1="1314.64" x2="1314.64" y1="595.684" y2="744.124" /><line stroke="#66a7ff" stroke-width="2.2" x1="1309.36" x2="1309.36" y1="787.876" y2="936.316" /><line stroke="#66a7ff" stroke-width="2.2" x1="1314.64" x2="1314.64" y1="787.876" y2="936.316" /><line stroke="#66a7ff" stroke-width="2.2" x1="1055.98" x2="1185.82" y1="981.76" y2="981.76" /><line stroke="#66a7ff" stroke-width="2.2" x1="1055.98" x2="1185.82" y1="987.04" y2="987.04" /><line stroke="#66a7ff" stroke-width="2.2" x1="1309.36" x2="1309.36" y1="328.12" y2="439.48" /><line stroke="#66a7ff" stroke-width="2.2" x1="1314.64" x2="1314.64" y1="328.12" y2="439.48" /><line stroke="#66a7ff" stroke-width="2.2" x1="665.632" x2="857.632" y1="217.36" y2="217.36" /><line stroke="#66a7ff" stroke-width="2.2" x1="665.632" x2="857.632" y1="222.64" y2="222.64" /><line stroke="#66a7ff" stroke-width="2.2" x1="1001.968" x2="1193.968" y1="217.36" y2="217.36" /><line stroke="#66a7ff" stroke-width="2.2" x1="1001.968" x2="1193.968" y1="222.64" y2="222.64" /><line stroke="#9a9a9a" stroke-width="0.8" x1="228.4" x2="320.8" y1="556.0" y2="556.0" /><line stroke="#9a9a9a" stroke-width="0.8" x1="228.4" x2="228.4" y1="552.64" y2="559.36" /><line stroke="#9a9a9a" stroke-width="0.8" x1="320.8" x2="320.8" y1="552.64" y2="559.36" /><text fill="#8a8a8a" font-size="7.6" text-anchor="start" x="235.12" y="553.36">910mm</text><line stroke="#9a9a9a" stroke-width="0.8" x1="228.4" x2="228.4" y1="556.0" y2="757.6" /><line stroke="#9a9a9a" stroke-width="0.8" x1="225.04" x2="231.76" y1="556.0" y2="556.0" /><line stroke="#9a9a9a" stroke-width="0.8" x1="225.04" x2="231.76" y1="757.6" y2="757.6" /><text fill="#8a8a8a" font-size="7.6" text-anchor="start" x="232.48" y="563.6800000000001">1820mm</text><line stroke="#9a9a9a" stroke-width="0.8" x1="337.6" x2="539.2" y1="501.4" y2="501.4" /><line stroke="#9a9a9a" stroke-width="0.8" x1="337.6" x2="337.6" y1="498.04" y2="504.76" /><line stroke="#9a9a9a" stroke-width="0.8" x1="539.2" x2="539.2" y1="498.04" y2="504.76" /><text fill="#8a8a8a" font-size="7.6" text-anchor="start" x="344.32" y="498.76">1820mm</text><line stroke="#9a9a9a" stroke-width="0.8" x1="337.6" x2="337.6" y1="501.4" y2="757.6" /><line stroke="#9a9a9a" stroke-width="0.8" x1="334.24" x2="340.96" y1="501.4" y2="501.4" /><line stroke="#9a9a9a" stroke-width="0.8" x1="334.24" x2="340.96" y1="757.6" y2="757.6" /><text fill="#8a8a8a" font-size="7.6" text-anchor="start" x="341.68" y="509.08">2275mm</text><line stroke="#9a9a9a" stroke-width="0.8" x1="938.2" x2="1303.6" y1="556.0" y2="556.0" /><line stroke="#9a9a9a" stroke-width="0.8" x1="938.2" x2="938.2" y1="552.64" y2="559.36" /><line stroke="#9a9a9a" stroke-width="0.8" x1="1303.6" x2="1303.6" y1="552.64" y2="559.36" /><text fill="#8a8a8a" font-size="7.6" text-anchor="start" x="944.92" y="553.36">3185mm</text><line stroke="#9a9a9a" stroke-width="0.8" x1="938.2" x2="938.2" y1="556.0" y2="976.0" /><line stroke="#9a9a9a" stroke-width="0.8" x1="934.84" x2="941.56" y1="556.0" y2="556.0" /><line stroke="#9a9a9a" stroke-width="0.8" x1="934.84" x2="941.56" y1="976.0" y2="976.0" /><text fill="#8a8a8a" font-size="7.6" text-anchor="start" x="942.28" y="563.6800000000001">3640mm</text><line stroke="#9a9a9a" stroke-width="0.8" x1="556.0" x2="1303.6" y1="228.4" y2="228.4" /><line stroke="#9a9a9a" stroke-width="0.8" x1="556.0" x2="556.0" y1="225.04" y2="231.76" /><line stroke="#9a9a9a" stroke-width="0.8" x1="1303.6" x2="1303.6" y1="225.04" y2="231.76" /><text fill="#8a8a8a" font-size="7.6" text-anchor="start" x="562.72" y="225.76">6370mm</text><line stroke="#9a9a9a" stroke-width="0.8" x1="556.0" x2="556.0" y1="228.4" y2="539.2" /><line stroke="#9a9a9a" stroke-width="0.8" x1="552.64" x2="559.36" y1="228.4" y2="228.4" /><line stroke="#9a9a9a" stroke-width="0.8" x1="552.64" x2="559.36" y1="539.2" y2="539.2" /><text fill="#8a8a8a" font-size="7.6" text-anchor="start" x="560.0799999999999" y="236.07999999999998">2730mm</text><text fill="#1b1b1b" font-size="10" text-anchor="middle" x="820.6" y="860.8">Bath 1</text><text fill="#1b1b1b" font-size="10" text-anchor="middle" x="820.6" y="871.6">1820x1820mm</text><text fill="#1b1b1b" font-size="10" text-anchor="middle" x="820.6" y="882.4">3.3sqm / 2.0jo</text><text fill="#1b1b1b" font-size="10" text-anchor="middle" x="356.5" y="860.8">Entry</text><text fill="#1b1b1b" font-size="10" text-anchor="middle" x="356.5" y="871.6">2275x1820mm</text><text fill="#1b1b1b" font-size="10" text-anchor="middle" x="356.5" y="882.4">4.1sqm / 2.6jo</text><text fill="#1b1b1b" font-size="9" text-anchor="middle" x="376.975" y="604.8625">Hall 1</text><text fill="#1b1b1b" font-size="9" text-anchor="middle" x="376.975" y="615.6624999999999">6.6sqm / 4.1jo</text><text fill="#1b1b1b" font-size="9" text-anchor="middle" x="1006.24" y="522.28">Ldk</text><text fill="#1b1b1b" font-size="9" text-anchor="middle" x="1006.24" y="533.0799999999999">L-shape (2 parts)</text><text fill="#1b1b1b" font-size="9" text-anchor="middle" x="1006.24" y="543.88">3185x3640 | 6370x2730</text><text fill="#1b1b1b" font-size="9" text-anchor="middle" x="1006.24" y="554.6800000000001">29.0sqm / 17.9jo</text><text fill="#1b1b1b" font-size="10" text-anchor="middle" x="738.6999999999999" y="642.4">Storage 1</text><text fill="#1b1b1b" font-size="10" text-anchor="middle" x="738.6999999999999" y="653.2">3185x1820mm</text><text fill="#1b1b1b" font-size="10" text-anchor="middle" x="738.6999999999999" y="664.0">5.8sqm / 3.6jo</text><text fill="#1b1b1b" font-size="10" text-anchor="middle" x="274.6" y="314.8">Toilet 1</text><text fill="#1b1b1b" font-size="10" text-anchor="middle" x="274.6" y="325.6">910x1820mm</text><text fill="#1b1b1b" font-size="10" text-anchor="middle" x="274.6" y="336.4">1.7sqm / 1.0jo</text><text fill="#1b1b1b" font-size="10" text-anchor="middle" x="602.2" y="860.8">Wash 1</text><text fill="#1b1b1b" font-size="10" text-anchor="middle" x="602.2" y="871.6">1820x1820mm</text><text fill="#1b1b1b" font-size="10" text-anchor="middle" x="602.2" y="882.4">3.3sqm / 2.0jo</text><text fill="#111111" font-size="14" x="220.0" y="180.0">F1 Plan  (9100 x 6370 mm)</text><text fill="#444444" font-size="10" x="220.0" y="198.0">Scale: 1px=8.3mm</text><rect fill="#ffffff" height="180" stroke="#777777" stroke-width="1" width="170" x="1400.0" y="150.0" /><text fill="#111111" font-size="11" x="1408.0" y="164.0">Legend</text><rect fill="#f8f0d9" height="12" stroke="#333333" stroke-width="1" width="12" x="1408.0" y="174.0" /><text fill="#222222" font-size="10" x="1426.0" y="184.0">Entry</text><rect fill="#efe9ff" height="12" stroke="#333333" stroke-width="1" width="12" x="1408.0" y="192.0" /><text fill="#222222" font-size="10" x="1426.0" y="202.0">Hall</text><rect fill="#ffe2b8" height="12" stroke="#333333" stroke-width="1" width="12" x="1408.0" y="210.0" /><text fill="#222222" font-size="10" x="1426.0" y="220.0">Ldk</text><rect fill="#fbe7e6" height="12" stroke="#333333" stroke-width="1" width="12" x="1408.0" y="228.0" /><text fill="#222222" font-size="10" x="1426.0" y="238.0">Toilet</text><rect fill="#e7fbfb" height="12" stroke="#333333" stroke-width="1" width="12" x="1408.0" y="246.0" /><text fill="#222222" font-size="10" x="1426.0" y="256.0">Washroom</text><rect fill="#dcecff" height="12" stroke="#333333" stroke-width="1" width="12" x="1408.0" y="264.0" /><text fill="#222222" font-size="10" x="1426.0" y="274.0">Bath</text><rect fill="#f0f0f0" height="12" stroke="#333333" stroke-width="1" width="12" x="1408.0" y="282.0" /><text fill="#222222" font-size="10" x="1426.0" y="292.0">Storage</text><line stroke="#6aa4ff" stroke-width="4" x1="1408.0" x2="1435.0" y1="312.0" y2="312.0" /><text fill="#222222" font-size="10" x="1442.0" y="315.0">Window</text><line stroke="#666666" stroke-width="2.4" x1="1408.0" x2="1435.0" y1="328.0" y2="328.0" /><path d="M 1408.0,328.0 A 10,10 0 0 1 1418.0,318.0" fill="none" stroke="#666666" stroke-width="1.2" /><text fill="#222222" font-size="10" x="1442.0" y="331.0">Door</text><rect fill="#ffffff" height="84" stroke="#777777" stroke-width="1" width="200" x="1400.0" y="520.0" /><text fill="#111111" font-size="10" x="1408.0" y="533.0">Area (F1)</text><text fill="#222222" font-size="9" x="1408.0" y="550.0">F1: in 58.0 sqm (17.5 tsubo), out 0.0 sqm (0.0 tsubo)</text><text fill="#222222" font-size="9" x="1408.0" y="566.0">F2: in 58.0 sqm (17.5 tsubo), out 0.0 sqm (0.0 tsubo)</text><text fill="#222222" font-size="9" x="1408.0" y="582.0">Total indoor: 115.9 sqm (35.1 tsubo)</text><text fill="#222222" font-size="9" x="1408.0" y="598.0">Total outdoor: 0.0 sqm (0.0 tsubo)</text><line stroke="#111111" stroke-width="2" x1="175.0" x2="175.0" y1="238.0" y2="208.0" /><polygon fill="#111111" points="175.0,208.0 181.0,214.0 169.0,214.0" /><text fill="#111111" font-size="12" x="170.0" y="202.0">N</text><line stroke="#545454" stroke-width="1.0" x1="220.0" x2="1312.0" y1="148.0" y2="148.0" /><line stroke="#545454" stroke-width="0.8" x1="220.0" x2="220.0" y1="220.0" y2="148.0" /><line stroke="#545454" stroke-width="1.0" x1="220.0" x2="220.0" y1="145.0" y2="151.0" /><line stroke="#545454" stroke-width="0.8" x1="1312.0" x2="1312.0" y1="220.0" y2="148.0" /><line stroke="#545454" stroke-width="1.0" x1="1312.0" x2="1312.0" y1="145.0" y2="151.0" /><text fill="#545454" font-size="8.8" text-anchor="middle" x="766.0" y="145.0">9100mm</text><line stroke="#666666" stroke-width="1.0" x1="220.0" x2="1312.0" y1="166.0" y2="166.0" /><line stroke="#666666" stroke-width="0.8" x1="220.0" x2="220.0" y1="220.0" y2="166.0" /><line stroke="#666666" stroke-width="1.0" x1="220.0" x2="220.0" y1="163.0" y2="169.0" /><line stroke="#666666" stroke-width="0.8" x1="329.2" x2="329.2" y1="220.0" y2="166.0" /><line stroke="#666666" stroke-width="1.0" x1="329.2" x2="329.2" y1="163.0" y2="169.0" /><line stroke="#666666" stroke-width="0.8" x1="547.6" x2="547.6" y1="220.0" y2="166.0" /><line stroke="#666666" stroke-width="1.0" x1="547.6" x2="547.6" y1="163.0" y2="169.0" /><line stroke="#666666" stroke-width="0.8" x1="1312.0" x2="1312.0" y1="220.0" y2="166.0" /><line stroke="#666666" stroke-width="1.0" x1="1312.0" x2="1312.0" y1="163.0" y2="169.0" /><text fill="#666666" font-size="8.2" text-anchor="middle" x="274.6" y="163.0">910</text><text fill="#666666" font-size="8.2" text-anchor="middle" x="438.4" y="163.0">1820</text><text fill="#666666" font-size="8.2" text-anchor="middle" x="929.8" y="163.0">6370</text><line stroke="#7a7a7a" stroke-width="1.0" x1="220.0" x2="1312.0" y1="184.0" y2="184.0" /><line stroke="#7a7a7a" stroke-width="0.8" x1="220.0" x2="220.0" y1="220.0" y2="184.0" /><line stroke="#7a7a7a" stroke-width="1.0" x1="220.0" x2="220.0" y1="181.0" y2="187.0" /><line stroke="#7a7a7a" stroke-width="0.8" x1="656.8" x2="656.8" y1="220.0" y2="184.0" /><line stroke="#7a7a7a" stroke-width="1.0" x1="656.8" x2="656.8" y1="181.0" y2="187.0" /><line stroke="#7a7a7a" stroke-width="0.8" x1="875.2" x2="875.2" y1="220.0" y2="184.0" /><line stroke="#7a7a7a" stroke-width="1.0" x1="875.2" x2="875.2" y1="181.0" y2="187.0" /><line stroke="#7a7a7a" stroke-width="0.8" x1="984.4" x2="984.4" y1="220.0" y2="184.0" /><line stroke="#7a7a7a" stroke-width="1.0" x1="984.4" x2="984.4" y1="181.0" y2="187.0" /><line stroke="#7a7a7a" stroke-width="0.8" x1="1202.8" x2="1202.8" y1="220.0" y2="184.0" /><line stroke="#7a7a7a" stroke-width="1.0" x1="1202.8" x2="1202.8" y1="181.0" y2="187.0" /><line stroke="#7a7a7a" stroke-width="0.8" x1="1312.0" x2="1312.0" y1="220.0" y2="184.0" /><line stroke="#7a7a7a" stroke-width="1.0" x1="1312.0" x2="1312.0" y1="181.0" y2="187.0" /><text fill="#7a7a7a" font-size="7.8" text-anchor="middle" x="438.4" y="181.0">3640</text><text fill="#7a7a7a" font-size="7.8" text-anchor="middle" x="766.0" y="181.0">1820</text><text fill="#7a7a7a" font-size="7.8" text-anchor="middle" x="929.8" y="181.0">910</text><text fill="#7a7a7a" font-size="7.8" text-anchor="middle" x="1093.6" y="181.0">1820</text><text fill="#7a7a7a" font-size="7.8" text-anchor="middle" x="1257.3999999999999" y="181.0">910</text><line stroke="#545454" stroke-width="1.0" x1="220.0" x2="1312.0" y1="1056.4" y2="1056.4" /><line stroke="#545454" stroke-width="0.8" x1="220.0" x2="220.0" y1="984.4" y2="1056.4" /><line stroke="#545454" stroke-width="1.0" x1="220.0" x2="220.0" y1="1053.4" y2="1059.4" /><line stroke="#545454" stroke-width="0.8" x1="1312.0" x2="1312.0" y1="984.4" y2="1056.4" /><line stroke="#545454" stroke-width="1.0" x1="1312.0" x2="1312.0" y1="1053.4" y2="1059.4" /><text fill="#545454" font-size="8.8" text-anchor="middle" x="766.0" y="1066.4">9100mm</text><line stroke="#666666" stroke-width="1.0" x1="220.0" x2="1312.0" y1="1038.4" y2="1038.4" /><line stroke="#666666" stroke-width="0.8" x1="220.0" x2="220.0" y1="984.4" y2="1038.4" /><line stroke="#666666" stroke-width="1.0" x1="220.0" x2="220.0" y1="1035.4" y2="1041.4" /><line stroke="#666666" stroke-width="0.8" x1="493.0" x2="493.0" y1="984.4" y2="1038.4" /><line stroke="#666666" stroke-width="1.0" x1="493.0" x2="493.0" y1="1035.4" y2="1041.4" /><line stroke="#666666" stroke-width="0.8" x1="711.4" x2="711.4" y1="984.4" y2="1038.4" /><line stroke="#666666" stroke-width="1.0" x1="711.4" x2="711.4" y1="1035.4" y2="1041.4" /><line stroke="#666666" stroke-width="0.8" x1="929.8" x2="929.8" y1="984.4" y2="1038.4" /><line stroke="#666666" stroke-width="1.0" x1="929.8" x2="929.8" y1="1035.4" y2="1041.4" /><line stroke="#666666" stroke-width="0.8" x1="1312.0" x2="1312.0" y1="984.4" y2="1038.4" /><line stroke="#666666" stroke-width="1.0" x1="1312.0" x2="1312.0" y1="1035.4" y2="1041.4" /><text fill="#666666" font-size="8.2" text-anchor="middle" x="356.5" y="1048.4">2275</text><text fill="#666666" font-size="8.2" text-anchor="middle" x="602.2" y="1048.4">1820</text><text fill="#666666" font-size="8.2" text-anchor="middle" x="820.6" y="1048.4">1820</text><text fill="#666666" font-size="8.2" text-anchor="middle" x="1120.9" y="1048.4">3185</text><line stroke="#7a7a7a" stroke-width="1.0" x1="220.0" x2="1312.0" y1="1020.4" y2="1020.4" /><line stroke="#7a7a7a" stroke-width="0.8" x1="220.0" x2="220.0" y1="984.4" y2="1020.4" /><line stroke="#7a7a7a" stroke-width="1.0" x1="220.0" x2="220.0" y1="1017.4" y2="1023.4" /><line stroke="#7a7a7a" stroke-width="0.8" x1="274.6" x2="274.6" y1="984.4" y2="1020.4" /><line stroke="#7a7a7a" stroke-width="1.0" x1="274.6" x2="274.6" y1="1017.4" y2="1023.4" /><line stroke="#7a7a7a" stroke-width="0.8" x1="438.4" x2="438.4" y1="984.4" y2="1020.4" /><line stroke="#7a7a7a" stroke-width="1.0" x1="438.4" x2="438.4" y1="1017.4" y2="1023.4" /><line stroke="#7a7a7a" stroke-width="0.8" x1="1039.0" x2="1039.0" y1="984.4" y2="1020.4" /><line stroke="#7a7a7a" stroke-width="1.0" x1="1039.0" x2="1039.0" y1="1017.4" y2="1023.4" /><line stroke="#7a7a7a" stroke-width="0.8" x1="1202.8" x2="1202.8" y1="984.4" y2="1020.4" /><line stroke="#7a7a7a" stroke-width="1.0" x1="1202.8" x2="1202.8" y1="1017.4" y2="1023.4" /><line stroke="#7a7a7a" stroke-width="0.8" x1="1312.0" x2="1312.0" y1="984.4" y2="1020.4" /><line stroke="#7a7a7a" stroke-width="1.0" x1="1312.0" x2="1312.0" y1="1017.4" y2="1023.4" /><text fill="#7a7a7a" font-size="7.8" text-anchor="middle" x="356.5" y="1030.4">1365</text><text fill="#7a7a7a" font-size="7.8" text-anchor="middle" x="738.6999999999999" y="1030.4">5005</text><text fill="#7a7a7a" font-size="7.8" text-anchor="middle" x="1120.9" y="1030.4">1365</text><text fill="#7a7a7a" font-size="7.8" text-anchor="middle" x="1257.3999999999999" y="1030.4">910</text><line stroke="#545454" stroke-width="1.0" x1="148.0" x2="148.0" y1="220.0" y2="984.4" /><line stroke="#545454" stroke-width="0.8" x1="220.0" x2="148.0" y1="220.0" y2="220.0" /><line stroke="#545454" stroke-width="1.0" x1="145.0" x2="151.0" y1="220.0" y2="220.0" /><line stroke="#545454" stroke-width="0.8" x1="220.0" x2="148.0" y1="984.4" y2="984.4" /><line stroke="#545454" stroke-width="1.0" x1="145.0" x2="151.0" y1="984.4" y2="984.4" /><text fill="#545454" font-size="8.8" x="144.0" y="602.2">6370mm</text><line stroke="#666666" stroke-width="1.0" x1="166.0" x2="166.0" y1="220.0" y2="984.4" /><line stroke="#666666" stroke-width="0.8" x1="220.0" x2="166.0" y1="220.0" y2="220.0" /><line stroke="#666666" stroke-width="1.0" x1="163.0" x2="169.0" y1="220.0" y2="220.0" /><line stroke="#666666" stroke-width="0.8" x1="220.0" x2="166.0" y1="438.4" y2="438.4" /><line stroke="#666666" stroke-width="1.0" x1="163.0" x2="169.0" y1="438.4" y2="438.4" /><line stroke="#666666" stroke-width="0.8" x1="220.0" x2="166.0" y1="547.6" y2="547.6" /><line stroke="#666666" stroke-width="1.0" x1="163.0" x2="169.0" y1="547.6" y2="547.6" /><line stroke="#666666" stroke-width="0.8" x1="220.0" x2="166.0" y1="766.0" y2="766.0" /><line stroke="#666666" stroke-width="1.0" x1="163.0" x2="169.0" y1="766.0" y2="766.0" /><line stroke="#666666" stroke-width="0.8" x1="220.0" x2="166.0" y1="984.4" y2="984.4" /><line stroke="#666666" stroke-width="1.0" x1="163.0" x2="169.0" y1="984.4" y2="984.4" /><text fill="#666666" font-size="8.2" x="162.0" y="329.2">1820</text><text fill="#666666" font-size="8.2" x="162.0" y="493.0">910</text><text fill="#666666" font-size="8.2" x="162.0" y="656.8">1820</text><text fill="#666666" font-size="8.2" x="162.0" y="875.1999999999999">1820</text><line stroke="#7a7a7a" stroke-width="1.0" x1="184.0" x2="184.0" y1="220.0" y2="984.4" /><line stroke="#7a7a7a" stroke-width="0.8" x1="220.0" x2="184.0" y1="220.0" y2="220.0" /><line stroke="#7a7a7a" stroke-width="1.0" x1="181.0" x2="187.0" y1="220.0" y2="220.0" /><line stroke="#7a7a7a" stroke-width="0.8" x1="220.0" x2="184.0" y1="820.6" y2="820.6" /><line stroke="#7a7a7a" stroke-width="1.0" x1="181.0" x2="187.0" y1="820.6" y2="820.6" /><line stroke="#7a7a7a" stroke-width="0.8" x1="220.0" x2="184.0" y1="929.8" y2="929.8" /><line stroke="#7a7a7a" stroke-width="1.0" x1="181.0" x2="187.0" y1="929.8" y2="929.8" /><line stroke="#7a7a7a" stroke-width="0.8" x1="220.0" x2="184.0" y1="984.4" y2="984.4" /><line stroke="#7a7a7a" stroke-width="1.0" x1="181.0" x2="187.0" y1="984.4" y2="984.4" /><text fill="#7a7a7a" font-size="7.8" x="180.0" y="520.3">5005</text><text fill="#7a7a7a" font-size="7.8" x="180.0" y="875.1999999999999">910</text><line stroke="#545454" stroke-width="1.0" x1="1384.0" x2="1384.0" y1="220.0" y2="984.4" /><line stroke="#545454" stroke-width="0.8" x1="1312.0" x2="1384.0" y1="220.0" y2="220.0" /><line stroke="#545454" stroke-width="1.0" x1="1381.0" x2="1387.0" y1="220.0" y2="220.0" /><line stroke="#545454" stroke-width="0.8" x1="1312.0" x2="1384.0" y1="984.4" y2="984.4" /><line stroke="#545454" stroke-width="1.0" x1="1381.0" x2="1387.0" y1="984.4" y2="984.4" /><text fill="#545454" font-size="8.8" x="1389.0" y="602.2">6370mm</text><line stroke="#666666" stroke-width="1.0" x1="1366.0" x2="1366.0" y1="220.0" y2="984.4" /><line stroke="#666666" stroke-width="0.8" x1="1312.0" x2="1366.0" y1="220.0" y2="220.0" /><line stroke="#666666" stroke-width="1.0" x1="1363.0" x2="1369.0" y1="220.0" y2="220.0" /><line stroke="#666666" stroke-width="0.8" x1="1312.0" x2="1366.0" y1="547.6" y2="547.6" /><line stroke="#666666" stroke-width="1.0" x1="1363.0" x2="1369.0" y1="547.6" y2="547.6" /><line stroke="#666666" stroke-width="0.8" x1="1312.0" x2="1366.0" y1="984.4" y2="984.4" /><line stroke="#666666" stroke-width="1.0" x1="1363.0" x2="1369.0" y1="984.4" y2="984.4" /><text fill="#666666" font-size="8.2" x="1371.0" y="383.79999999999995">2730</text><text fill="#666666" font-size="8.2" x="1371.0" y="766.0">3640</text><line stroke="#7a7a7a" stroke-width="1.0" x1="1348.0" x2="1348.0" y1="220.0" y2="984.4" /><line stroke="#7a7a7a" stroke-width="0.8" x1="1312.0" x2="1348.0" y1="220.0" y2="220.0" /><line stroke="#7a7a7a" stroke-width="1.0" x1="1345.0" x2="1351.0" y1="220.0" y2="220.0" /><line stroke="#7a7a7a" stroke-width="0.8" x1="1312.0" x2="1348.0" y1="329.2" y2="329.2" /><line stroke="#7a7a7a" stroke-width="1.0" x1="1345.0" x2="1351.0" y1="329.2" y2="329.2" /><line stroke="#7a7a7a" stroke-width="0.8" x1="1312.0" x2="1348.0" y1="438.4" y2="438.4" /><line stroke="#7a7a7a" stroke-width="1.0" x1="1345.0" x2="1351.0" y1="438.4" y2="438.4" /><line stroke="#7a7a7a" stroke-width="0.8" x1="1312.0" x2="1348.0" y1="602.2" y2="602.2" /><line stroke="#7a7a7a" stroke-width="1.0" x1="1345.0" x2="1351.0" y1="602.2" y2="602.2" /><line stroke="#7a7a7a" stroke-width="0.8" x1="1312.0" x2="1348.0" y1="766.0" y2="766.0" /><line stroke="#7a7a7a" stroke-width="1.0" x1="1345.0" x2="1351.0" y1="766.0" y2="766.0" /><line stroke="#7a7a7a" stroke-width="0.8" x1="1312.0" x2="1348.0" y1="929.8" y2="929.8" /><line stroke="#7a7a7a" stroke-width="1.0" x1="1345.0" x2="1351.0" y1="929.8" y2="929.8" /><line stroke="#7a7a7a" stroke-width="0.8" x1="1312.0" x2="1348.0" y1="984.4" y2="984.4" /><line stroke="#7a7a7a" stroke-width="1.0" x1="1345.0" x2="1351.0" y1="984.4" y2="984.4" /><text fill="#7a7a7a" font-size="7.8" x="1353.0" y="274.6">910</text><text fill="#7a7a7a" font-size="7.8" x="1353.0" y="383.79999999999995">910</text><text fill="#7a7a7a" font-size="7.8" x="1353.0" y="520.3">1365</text><text fill="#7a7a7a" font-size="7.8" x="1353.0" y="684.0999999999999">1365</text><text fill="#7a7a7a" font-size="7.8" x="1353.0" y="847.9">1365</text></svg>