<?xml version="1.0" encoding="utf-8" ?>
<svg baseProfile="tiny" height="1095.1999999999998px" version="1.2" width="1532.0px" xmlns="http://www.w3.org/2000/svg" xmlns:ev="http://www.w3.org/2001/xml-events" xmlns:xlink="http://www.w3.org/1999/xlink"><defs /><rect fill="#fafafa" height="1095.2" width="1532.0" x="0" y="0" /><line stroke="#ececec" stroke-width="0.7" x1="220.0" x2="220.0" y1="220.0" y2="875.2" /><line stroke="#ececec" stroke-width="0.7" x1="274.6" x2="274.6" y1="220.0" y2="875.2" /><line stroke="#ececec" stroke-width="0.7" x1="329.2" x2="329.2" y1="220.0" y2="875.2" /><line stroke="#ececec" stroke-width="0.7" x1="383.8" x2="383.8" y1="220.0" y2="875.2" /><line stroke="#ececec" stroke-width="0.7" x1="438.4" x2="438.4" y1="220.0" y2="875.2" /><line stroke="#ececec" stroke-width="0.7" x1="493.0" x2="493.0" y1="220.0" y2="875.2" /><line stroke="#ececec" stroke-width="0.7" x1="547.6" x2="547.6" y1="220.0" y2="875.2" /><line stroke="#ececec" stroke-width="0.7" x1="602.2" x2="602.2" y1="220.0" y2="875.2" /><line stroke="#ececec" stroke-width="0.7" x1="656.8" x2="656.8" y1="220.0" y2="875.2" /><line stroke="#ececec" stroke-width="0.7" x1="711.4" x2="711.4" y1="220.0" y2="875.2" /><line stroke="#ececec" stroke-width="0.7" x1="766.0" x2="766.0" y1="220.0" y2="875.2" /><line stroke="#ececec" stroke-width="0.7" x1="820.6" x2="820.6" y1="220.0" y2="875.2" /><line stroke="#ececec" stroke-width="0.7" x1="875.2" x2="875.2" y1="220.0" y2="875.2" /><line stroke="#ececec" stroke-width="0.7" x1="929.8" x2="929.8" y1="220.0" y2="875.2" /><line stroke="#ececec" stroke-width="0.7" x1="984.4" x2="984.4" y1="220.0" y2="875.2" /><line stroke="#ececec" stroke-width="0.7" x1="1039.0" x2="1039.0" y1="220.0" y2="875.2" /><line stroke="#ececec" stroke-width="0.7" x1="1093.6" x2="1093.6" y1="220.0" y2="875.2" /><line stroke="#ececec" stroke-width="0.7" x1="1148.2" x2="1148.2" y1="220.0" y2="875.2" /><line stroke="#ececec" stroke-width="0.7" x1="1202.8" x2="1202.8" y1="220.0" y2="875.2" /><line stroke="#ececec" stroke-width="0.7" x1="1257.4" x2="1257.4" y1="220.0" y2="875.2" /><line stroke="#ececec" stroke-width="0.7" x1="1312.0" x2="1312.0" y1="220.0" y2="875.2" /><line stroke="#d1d1d1" stroke-width="1.1" x1="220.0" x2="220.0" y1="220.0" y2="875.2" /><line stroke="#d1d1d1" stroke-width="1.1" x1="329.2" x2="329.2" y1="220.0" y2="875.2" /><line stroke="#d1d1d1" stroke-width="1.1" x1="438.4" x2="438.4" y1="220.0" y2="875.2" /><line stroke="#d1d1d1" stroke-width="1.1" x1="547.6" x2="547.6" y1="220.0" y2="875.2" /><line stroke="#d1d1d1" stroke-width="1.1" x1="656.8" x2="656.8" y1="220.0" y2="875.2" /><line stroke="#d1d1d1" stroke-width="1.1" x1="766.0" x2="766.0" y1="220.0" y2="875.2" /><line stroke="#d1d1d1" stroke-width="1.1" x1="875.2" x2="875.2" y1="220.0" y2="875.2" /><line stroke="#d1d1d1" stroke-width="1.1" x1="984.4" x2="984.4" y1="220.0" y2="875.2" /><line stroke="#d1d1d1" stroke-width="1.1" x1="1093.6" x2="1093.6" y1="220.0" y2="875.2" /><line stroke="#d1d1d1" stroke-width="1.1" x1="1202.8" x2="1202.8" y1="220.0" y2="875.2" /><line stroke="#d1d1d1" stroke-width="1.1" x1="1312.0" x2="1312.0" y1="220.0" y2="875.2" /><line stroke="#d1d1d1" stroke-width="1.1" x1="220.0" x2="1312.0" y1="220.0" y2="220.0" /><line stroke="#d1d1d1" stroke-width="1.1" x1="220.0" x2="1312.0" y1="329.2" y2="329.2" /><line stroke="#d1d1d1" stroke-width="1.1" x1="220.0" x2="1312.0" y1="438.4" y2="438.4" /><line stroke="#d1d1d1" stroke-width="1.1" x1="220.0" x2="1312.0" y1="547.6" y2="547.6" /><line stroke="#d1d1d1" stroke-width="1.1" x1="220.0" x2="1312.0" y1="656.8" y2="656.8" /><line stroke="#d1d1d1" stroke-width="1.1" x1="220.0" x2="1312.0" y1="766.0" y2="766.0" /><line stroke="#d1d1d1" stroke-width="1.1" x1="220.0" x2="1312.0" y1="875.2" y2="875.2" /><line stroke="#ececec" stroke-width="0.7" x1="220.0" x2="1312.0" y1="220.0" y2="220.0" /><line stroke="#ececec" stroke-width="0.7" x1="220.0" x2="1312.0" y1="274.6" y2="274.6" /><line stroke="#ececec" stroke-width="0.7" x1="220.0" x2="1312.0" y1="329.2" y2="329.2" /><line stroke="#ececec" stroke-width="0.7" x1="220.0" x2="1312.0" y1="383.8" y2="383.8" /><line stroke="#ececec" stroke-width="0.7" x1="220.0" x2="1312.0" y1="438.4" y2="438.4" /><line stroke="#ececec" stroke-width="0.7" x1="220.0" x2="1312.0" y1="493.0" y2="493.0" /><line stroke="#ececec" stroke-width="0.7" x1="220.0" x2="1312.0" y1="547.6" y2="547.6" /><line stroke="#ececec" stroke-width="0.7" x1="220.0" x2="1312.0" y1="602.2" y2="602.2" /><line stroke="#ececec" stroke-width="0.7" x1="220.0" x2="1312.0" y1="656.8" y2="656.8" /><line stroke="#ececec" stroke-width="0.7" x1="220.0" x2="1312.0" y1="711.4" y2="711.4" /><line stroke="#ececec" stroke-width="0.7" x1="220.0" x2="1312.0" y1="766.0" y2="766.0" /><line stroke="#ececec" stroke-width="0.7" x1="220.0" x2="1312.0" y1="820.6" y2="820.6" /><line stroke="#ececec" stroke-width="0.7" x1="220.0" x2="1312.0" y1="875.2" y2="875.2" /><rect fill="none" height="655.2" stroke="#6a6a6a" stroke-dasharray="8,4" stroke-width="2" width="1092.0" x="220.0" y="220.0" /><rect fill="none" height="655.2" stroke="#1f1f1f" stroke-width="3.5" width="1092.0" x="220.0" y="220.0" /><text fill="#555555" font-size="10" x="222.0" y="160.0">Site Envelope = Building Footprint</text><rect fill="#dcecff" height="218.4" stroke="none" width="218.4" x="220.0" y="438.4" /><line stroke="#2f2f2f" stroke-width="2.2" x1="220.0" x2="438.4" y1="438.4" y2="438.4" /><line stroke="#2f2f2f" stroke-width="2.2" x1="220.0" x2="438.4" y1="656.8" y2="656.8" /><line stroke="#2f2f2f" stroke-width="2.2" x1="220.0" x2="220.0" y1="438.4" y2="656.8" /><line stroke="#2f2f2f" stroke-width="2.2" x1="438.4" x2="438.4" y1="438.4" y2="656.8" /><rect fill="#f8f0d9" height="218.4" stroke="none" width="218.4" x="547.6" y="656.8" /><line stroke="#2f2f2f" stroke-width="2.2" x1="547.6" x2="766.0" y1="656.8" y2="656.8" /><line stroke="#2f2f2f" stroke-width="2.2" x1="547.6" x2="766.0" y1="875.2" y2="875.2" /><line stroke="#2f2f2f" stroke-width="2.2" x1="766.0" x2="766.0" y1="656.8" y2="875.2" /><line stroke="#2f2f2f" stroke-width="2.2" x1="547.6" x2="547.6" y1="656.8" y2="875.2" /><rect fill="#efe9ff" height="109.2" stroke="none" width="109.2" x="656.8" y="220.0" /><rect fill="#efe9ff" height="218.4" stroke="none" width="163.8" x="493.0" y="220.0" /><rect fill="#efe9ff" height="436.8" stroke="none" width="109.2" x="438.4" y="438.4" /><line stroke="#2f2f2f" stroke-width="2.2" x1="438.4" x2="493.0" y1="438.4" y2="438.4" /><line stroke="#2f2f2f" stroke-width="2.2" x1="547.6" x2="656.8" y1="438.4" y2="438.4" /><line stroke="#2f2f2f" stroke-width="2.2" x1="493.0" x2="766.0" y1="220.0" y2="220.0" /><line stroke="#2f2f2f" stroke-width="2.2" x1="656.8" x2="766.0" y1="329.2" y2="329.2" /><line stroke="#2f2f2f" stroke-width="2.2" x1="438.4" x2="547.6" y1="875.2" y2="875.2" /><line stroke="#2f2f2f" stroke-width="2.2" x1="493.0" x2="493.0" y1="220.0" y2="438.4" /><line stroke="#2f2f2f" stroke-width="2.2" x1="766.0" x2="766.0" y1="220.0" y2="329.2" /><line stroke="#2f2f2f" stroke-width="2.2" x1="547.6" x2="547.6" y1="438.4" y2="875.2" /><line stroke="#2f2f2f" stroke-width="2.2" x1="438.4" x2="438.4" y1="438.4" y2="875.2" /><line stroke="#2f2f2f" stroke-width="2.2" x1="656.8" x2="656.8" y1="329.2" y2="438.4" /><rect fill="#ffe2b8" height="218.4" stroke="none" width="546.0" x="766.0" y="220.0" /><rect fill="#ffe2b8" height="436.8" stroke="none" width="546.0" x="766.0" y="438.4" /><line stroke="#2f2f2f" stroke-width="2.2" x1="766.0" x2="1312.0" y1="875.2" y2="875.2" /><line stroke="#2f2f2f" stroke-width="2.2" x1="766.0" x2="1312.0" y1="220.0" y2="220.0" /><line stroke="#2f2f2f" stroke-width="2.2" x1="766.0" x2="766.0" y1="220.0" y2="875.2" /><line stroke="#2f2f2f" stroke-width="2.2" x1="1312.0" x2="1312.0" y1="220.0" y2="875.2" /><rect fill="#f0f0f0" height="218.4" stroke="none" width="273.0" x="220.0" y="220.0" /><line stroke="#2f2f2f" stroke-width="2.2" x1="220.0" x2="493.0" y1="220.0" y2="220.0" /><line stroke="#2f2f2f" stroke-width="2.2" x1="220.0" x2="493.0" y1="438.4" y2="438.4" /><line stroke="#2f2f2f" stroke-width="2.2" x1="493.0" x2="493.0" y1="220.0" y2="438.4" /><line stroke="#2f2f2f" stroke-width="2.2" x1="220.0" x2="220.0" y1="220.0" y2="438.4" /><rect fill="#fbe7e6" height="218.4" stroke="none" width="109.2" x="547.6" y="438.4" /><line stroke="#2f2f2f" stroke-width="2.2" x1="547.6" x2="656.8" y1="438.4" y2="438.4" /><line stroke="#2f2f2f" stroke-width="2.2" x1="547.6" x2="656.8" y1="656.8" y2="656.8" /><line stroke="#2f2f2f" stroke-width="2.2" x1="656.8" x2="656.8" y1="438.4" y2="656.8" /><line stroke="#2f2f2f" stroke-width="2.2" x1="547.6" x2="547.6" y1="438.4" y2="656.8" /><rect fill="#e7fbfb" height="218.4" stroke="none" width="218.4" x="220.0" y="656.8" /><line stroke="#2f2f2f" stroke-width="2.2" x1="220.0" x2="438.4" y1="875.2" y2="875.2" /><line stroke="#2f2f2f" stroke-width="2.2" x1="220.0" x2="438.4" y1="656.8" y2="656.8" /><line stroke="#2f2f2f" stroke-width="2.2" x1="438.4" x2="438.4" y1="656.8" y2="875.2" /><line stroke="#2f2f2f" stroke-width="2.2" x1="220.0" x2="220.0" y1="656.8" y2="875.2" /><rect fill="none" height="43.68" stroke="#8a6b4a" stroke-width="1.0" width="174.72" x="1060.84" y="482.08" /><rect fill="none" height="96.096" stroke="#8a6b4a" stroke-width="1.0" width="39.312" x="1196.248" y="482.08" /><circle cx="1111.192" cy="503.92" fill="none" r="8.4" stroke="#8a6b4a" stroke-width="0.9" /><circle cx="1132.792" cy="503.92" fill="none" r="8.4" stroke="#8a6b4a" stroke-width="0.9" /><rect fill="none" height="23.063" stroke="#8a6b4a" stroke-width="0.9" width="26.7322" x="1202.1448" y="522.4403" /><rect fill="none" height="52.416" stroke="#8a6b4a" stroke-width="1.0" width="120.12" x="984.4" y="621.856" /><rect fill="none" height="48.048" stroke="#6f6f6f" stroke-width="1.0" width="74.256" x="259.312" y="696.112" /><rect fill="none" height="48.048" stroke="#6f6f6f" stroke-width="1.0" width="74.256" x="346.672" y="696.112" /><line stroke="#8f8f8f" stroke-width="0.8" x1="250.576" x2="407.824" y1="681.712" y2="681.712" /><circle cx="412.0" cy="683.2" fill="none" r="8.4" stroke="#7c7c7c" stroke-width="0.9" /><line stroke="#7c7c7c" stroke-width="0.8" x1="401.2" x2="422.8" y1="683.2" y2="683.2" /><line stroke="#7c7c7c" stroke-width="0.8" x1="412.0" x2="412.0" y1="672.4" y2="694.0" /><rect fill="none" height="109.2" rx="6" ry="6" stroke="#6f6f6f" stroke-width="1.0" width="135.408" x="263.68" y="486.448" /><circle cx="412.0" cy="464.8" fill="none" r="8.4" stroke="#7c7c7c" stroke-width="0.9" /><line stroke="#7c7c7c" stroke-width="0.8" x1="401.2" x2="422.8" y1="464.8" y2="464.8" /><line stroke="#7c7c7c" stroke-width="0.8" x1="412.0" x2="412.0" y1="454.0" y2="475.6" /><line stroke="#9a9a9a" stroke-width="0.9" x1="252.76" x2="460.24" y1="259.312" y2="259.312" /><line stroke="#9a9a9a" stroke-width="0.9" x1="252.76" x2="460.24" y1="399.088" y2="399.088" /><rect fill="#ffffff" height="327.6" stroke="#202020" stroke-dasharray="8,4" stroke-width="2.6" width="109.2" x="656.8" y="329.2" /><line stroke="#2a2a2a" stroke-width="1.4" x1="669.904" x2="752.896" y1="354.4" y2="354.4" /><line stroke="#2a2a2a" stroke-width="1.4" x1="669.904" x2="752.896" y1="379.6" y2="379.6" /><line stroke="#2a2a2a" stroke-width="1.4" x1="669.904" x2="752.896" y1="404.8" y2="404.8" /><line stroke="#2a2a2a" stroke-width="1.4" x1="669.904" x2="752.896" y1="430.0" y2="430.0" /><line stroke="#2a2a2a" stroke-width="1.4" x1="669.904" x2="752.896" y1="455.2" y2="455.2" /><line stroke="#2a2a2a" stroke-width="1.4" x1="669.904" x2="752.896" y1="480.4" y2="480.4" /><line stroke="#2a2a2a" stroke-width="1.4" x1="669.904" x2="752.896" y1="505.6" y2="505.6" /><line stroke="#2a2a2a" stroke-width="1.4" x1="669.904" x2="752.896" y1="530.8" y2="530.8" /><line stroke="#2a2a2a" stroke-width="1.4" x1="669.904" x2="752.896" y1="556.0" y2="556.0" /><line stroke="#2a2a2a" stroke-width="1.4" x1="669.904" x2="752.896" y1="581.2" y2="581.2" /><line stroke="#2a2a2a" stroke-width="1.4" x1="669.904" x2="752.896" y1="606.4" y2="606.4" /><line stroke="#2a2a2a" stroke-width="1.4" x1="669.904" x2="752.896" y1="631.6" y2="631.6" /><text fill="#202020" font-size="11" text-anchor="middle" x="711.4" y="493.0">Stair (UP)</text><text fill="#3a3a3a" font-size="9.0" text-anchor="middle" x="711.4" y="507.4">13R/12T</text><text fill="#4a4a4a" font-size="7.8" text-anchor="middle" x="711.4" y="515.8">H2730 R210 T228</text><line stroke="#ffffff" stroke-width="7" x1="656.8" x2="766.0" y1="329.2" y2="329.2" /><line stroke="#5e5e5e" stroke-width="1.0" x1="656.8" x2="766.0" y1="329.2" y2="329.2" /><line stroke="#ffffff" stroke-width="6" x1="547.6" x2="547.6" y1="716.86" y2="815.14" /><line stroke="#595959" stroke-width="1.2" x1="547.6" x2="611.482" y1="716.86" y2="780.742" /><path d="M 547.5999999999999,780.7420000000001 A 63.882,63.882 0 0 1 611.482,780.7420000000001" fill="none" stroke="#7a7a7a" stroke-width="1.0" /><line stroke="#ffffff" stroke-width="6" x1="766.0" x2="766.0" y1="229.0" y2="320.2" /><line stroke="#ffffff" stroke-width="6" x1="547.6" x2="547.6" y1="498.46" y2="596.74" /><line stroke="#595959" stroke-width="1.2" x1="547.6" x2="611.482" y1="498.46" y2="562.342" /><path d="M 547.5999999999999,562.342 A 63.882,63.882 0 0 1 611.482,562.342" fill="none" stroke="#7a7a7a" stroke-width="1.0" /><line stroke="#ffffff" stroke-width="6" x1="438.4" x2="438.4" y1="716.86" y2="815.14" /><line stroke="#595959" stroke-width="1.2" x1="438.4" x2="374.518" y1="716.86" y2="780.742" /><path d="M 438.4,780.7420000000001 A 63.882,63.882 0 0 1 374.51800000000003,780.7420000000001" fill="none" stroke="#7a7a7a" stroke-width="1.0" /><line stroke="#ffffff" stroke-width="6" x1="493.0" x2="493.0" y1="280.06" y2="378.34" /><line stroke="#595959" stroke-width="1.2" x1="493.0" x2="556.882" y1="280.06" y2="343.942" /><path d="M 493.0,343.942 A 63.882,63.882 0 0 1 556.8820000000001,343.942" fill="none" stroke="#7a7a7a" stroke-width="1.0" /><line stroke="#ffffff" stroke-width="6" x1="280.06" x2="378.34" y1="656.8" y2="656.8" /><line stroke="#595959" stroke-width="1.2" x1="280.06" x2="343.942" y1="656.8" y2="720.682" /><path d="M 343.942,656.8 A 63.882,63.882 0 0 1 343.942,720.682" fill="none" stroke="#7a7a7a" stroke-width="1.0" /><line stroke="#ffffff" stroke-width="7" x1="607.66" x2="705.94" y1="875.2" y2="875.2" /><line stroke="#595959" stroke-width="1.2" x1="607.66" x2="671.542" y1="875.2" y2="811.318" /><path d="M 671.5419999999999,875.1999999999999 A 63.882,63.882 0 0 1 671.5419999999999,811.318" fill="none" stroke="#7a7a7a" stroke-width="1.0" /><line stroke="#66a7ff" stroke-width="2.2" x1="1309.36" x2="1309.36" y1="274.6" y2="383.8" /><line stroke="#66a7ff" stroke-width="2.2" x1="1314.64" x2="1314.64" y1="274.6" y2="383.8" /><line stroke="#66a7ff" stroke-width="2.2" x1="826.06" x2="1011.7" y1="217.36" y2="217.36" /><line stroke="#66a7ff" stroke-width="2.2" x1="826.06" x2="1011.7" y1="222.64" y2="222.64" /><line stroke="#66a7ff" stroke-width="2.2" x1="1066.3" x2="1251.94" y1="217.36" y2="217.36" /><line stroke="#66a7ff" stroke-width="2.2" x1="1066.3" x2="1251.94" y1="222.64" y2="222.64" /><line stroke="#66a7ff" stroke-width="2.2" x1="1309.36" x2="1309.36" y1="486.484" y2="634.924" /><line stroke="#66a7ff" stroke-width="2.2" x1="1314.64" x2="1314.64" y1="486.484" y2="634.924" /><line stroke="#66a7ff" stroke-width="2.2" x1="1309.36" x2="1309.36" y1="678.676" y2="827.116" /><line stroke="#66a7ff" stroke-width="2.2" x1="1314.64" x2="1314.64" y1="678.676" y2="827.116" /><line stroke="#66a7ff" stroke-width="2.2" x1="826.06" x2="1011.7" y1="872.56" y2="872.56" /><line stroke="#66a7ff" stroke-width="2.2" x1="826.06" x2="1011.7" y1="877.84" y2="877.84" /><line stroke="#66a7ff" stroke-width="2.2" x1="1066.3" x2="1251.94" y1="872.56" y2="872.56" /><line stroke="#66a7ff" stroke-width="2.2" x1="1066.3" x2="1251.94" y1="877.84" y2="877.84" /><line stroke="#9a9a9a" stroke-width="0.8" x1="501.4" x2="648.4" y1="228.4" y2="228.4" /><line stroke="#9a9a9a" stroke-width="0.8" x1="501.4" x2="501.4" y1="225.04" y2="231.76" /><line stroke="#9a9a9a" stroke-width="0.8" x1="648.4" x2="648.4" y1="225.04" y2="231.76" /><text fill="#8a8a8a" font-size="7.6" text-anchor="start" x="508.12" y="225.76">1365mm</text><line stroke="#9a9a9a" stroke-width="0.8" x1="501.4" x2="501.4" y1="228.4" y2="430.0" /><line stroke="#9a9a9a" stroke-width="0.8" x1="498.04" x2="504.76" y1="228.4" y2="228.4" /><line stroke="#9a9a9a" stroke-width="0.8" x1="498.04" x2="504.76" y1="430.0" y2="430.0" /><text fill="#8a8a8a" font-size="7.6" text-anchor="start" x="505.47999999999996" y="236.07999999999998">1820mm</text><line stroke="#9a9a9a" stroke-width="0.8" x1="446.8" x2="539.2" y1="446.8" y2="446.8" /><line stroke="#9a9a9a" stroke-width="0.8" x1="446.8" x2="446.8" y1="443.44" y2="450.16" /><line stroke="#9a9a9a" stroke-width="0.8" x1="539.2" x2="539.2" y1="443.44" y2="450.16" /><text fill="#8a8a8a" font-size="7.6" text-anchor="start" x="453.52" y="444.15999999999997">910mm</text><line stroke="#9a9a9a" stroke-width="0.8" x1="446.8" x2="446.8" y1="446.8" y2="866.8" /><line stroke="#9a9a9a" stroke-width="0.8" x1="443.44" x2="450.16" y1="446.8" y2="446.8" /><line stroke="#9a9a9a" stroke-width="0.8" x1="443.44" x2="450.16" y1="866.8" y2="866.8" /><text fill="#8a8a8a" font-size="7.6" text-anchor="start" x="450.88" y="454.48">3640mm</text><line stroke="#9a9a9a" stroke-width="0.8" x1="774.4" x2="1303.6" y1="228.4" y2="228.4" /><line stroke="#9a9a9a" stroke-width="0.8" x1="774.4" x2="774.4" y1="225.04" y2="231.76" /><line stroke="#9a9a9a" stroke-width="0.8" x1="1303.6" x2="1303.6" y1="225.04" y2="231.76" /><text fill="#8a8a8a" font-size="7.6" text-anchor="start" x="781.12" y="225.76">4550mm</text><line stroke="#9a9a9a" stroke-width="0.8" x1="774.4" x2="774.4" y1="228.4" y2="430.0" /><line stroke="#9a9a9a" stroke-width="0.8" x1="771.04" x2="777.76" y1="228.4" y2="228.4" /><line stroke="#9a9a9a" stroke-width="0.8" x1="771.04" x2="777.76" y1="430.0" y2="430.0" /><text fill="#8a8a8a" font-size="7.6" text-anchor="start" x="778.48" y="236.07999999999998">1820mm</text><line stroke="#9a9a9a" stroke-width="0.8" x1="774.4" x2="1303.6" y1="446.8" y2="446.8" /><line stroke="#9a9a9a" stroke-width="0.8" x1="774.4" x2="774.4" y1="443.44" y2="450.16" /><line stroke="#9a9a9a" stroke-width="0.8" x1="1303.6" x2="1303.6" y1="443.44" y2="450.16" /><text fill="#8a8a8a" font-size="7.6" text-anchor="start" x="781.12" y="444.15999999999997">4550mm</text><line stroke="#9a9a9a" stroke-width="0.8" x1="774.4" x2="774.4" y1="446.8" y2="866.8" /><line stroke="#9a9a9a" stroke-width="0.8" x1="771.04" x2="777.76" y1="446.8" y2="446.8" /><line stroke="#9a9a9a" stroke-width="0.8" x1="771.04" x2="777.76" y1="866.8" y2="866.8" /><text fill="#8a8a8a" font-size="7.6" text-anchor="start" x="778.48" y="454.48">3640mm</text><text fill="#1b1b1b" font-size="10" text-anchor="middle" x="329.2" y="533.2">Bath 1</text><text fill="#1b1b1b" font-size="10" text-anchor="middle" x="329.2" y="544.0">1820x1820mm</text><text fill="#1b1b1b" font-size="10" text-anchor="middle" x="329.2" y="554.8">3.3sqm / 2.0jo</text><text fill="#1b1b1b" font-size="10" text-anchor="middle" x="656.8" y="751.6">Entry</text><text fill="#1b1b1b" font-size="10" text-anchor="middle" x="656.8" y="762.4">1820x1820mm</text><text fill="#1b1b1b" font-size="10" text-anchor="middle" x="656.8" y="773.1999999999999">3.3sqm / 2.0jo</text><text fill="#1b1b1b" font-size="9" text-anchor="middle" x="551.0125" y="471.775">Hall 1</text><text fill="#1b1b1b" font-size="9" text-anchor="middle" x="551.0125" y="482.575">6.6sqm / 4.1jo</text><text fill="#1b1b1b" font-size="9" text-anchor="middle" x="1039.0" y="533.2">Ldk</text><text fill="#1b1b1b" font-size="9" text-anchor="middle" x="1039.0" y="544.0">L-shape (2 parts)</text><text fill="#1b1b1b" font-size="9" text-anchor="middle" x="1039.0" y="554.8">4550x1820 | 4550x3640</text><text fill="#1b1b1b" font-size="9" text-anchor="middle" x="1039.0" y="565.5999999999999">24.8sqm / 15.3jo</text><text fill="#1b1b1b" font-size="10" text-anchor="middle" x="356.5" y="314.8">Storage 1</text><text fill="#1b1b1b" font-size="10" text-anchor="middle" x="356.5" y="325.6">2275x1820mm</text><text fill="#1b1b1b" font-size="10" text-anchor="middle" x="356.5" y="336.4">4.1sqm / 2.6jo</text><text fill="#1b1b1b" font-size="10" text-anchor="middle" x="602.2" y="533.2">Toilet 1</text><text fill="#1b1b1b" font-size="10" text-anchor="middle" x="602.2" y="544.0">910x1820mm</text><text fill="#1b1b1b" font-size="10" text-anchor="middle" x="602.2" y="554.8">1.7sqm / 1.0jo</text><text fill="#1b1b1b" font-size="10" text-anchor="middle" x="329.2" y="751.6">Wash 1</text><text fill="#1b1b1b" font-size="10" text-anchor="middle" x="329.2" y="762.4">1820x1820mm</text><text fill="#1b1b1b" font-size="10" text-anchor="middle" x="329.2" y="773.1999999999999">3.3sqm / 2.0jo</text><text fill="#111111" font-size="14" x="220.0" y="180.0">F1 Plan  (9100 x 5460 mm)</text><text fill="#444444" font-size="10" x="220.0" y="198.0">Scale: 1px=8.3mm</text><rect fill="#ffffff" height="180" stroke="#777777" stroke-width="1" width="170" x="1400.0" y="150.0" /><text fill="#111111" font-size="11" x="1408.0" y="164.0">Legend</text><rect fill="#f8f0d9" height="12" stroke="#333333" stroke-width="1" width="12" x="1408.0" y="174.0" /><text fill="#222222" font-size="10" x="1426.0" y="184.0">Entry</text><rect fill="#efe9ff" height="12" stroke="#333333" stroke-width="1" width="12" x="1408.0" y="192.0" /><text fill="#222222" font-size="10" x="1426.0" y="202.0">Hall</text><rect fill="#ffe2b8" height="12" stroke="#333333" stroke-width="1" width="12" x="1408.0" y="210.0" /><text fill="#222222" font-size="10" x="1426.0" y="220.0">Ldk</text><rect fill="#fbe7e6" height="12" stroke="#333333" stroke-width="1" width="12" x="1408.0" y="228.0" /><text fill="#222222" font-size="10" x="1426.0" y="238.0">Toilet</text><rect fill="#e7fbfb" height="12" stroke="#333333" stroke-width="1" width="12" x="1408.0" y="246.0" /><text fill="#222222" font-size="10" x="1426.0" y="256.0">Washroom</text><rect fill="#dcecff" height="12" stroke="#333333" stroke-width="1" width="12" x="1408.0" y="264.0" /><text fill="#222222" font-size="10" x="1426.0" y="274.0">Bath</text><rect fill="#f0f0f0" height="12" stroke="#333333" stroke-width="1" width="12" x="1408.0" y="282.0" /><text fill="#222222" font-size="10" x="1426.0" y="292.0">Storage</text><line stroke="#6aa4ff" stroke-width="4" x1="1408.0" x2="1435.0" y1="312.0" y2="312.0" /><text fill="#222222" font-size="10" x="1442.0" y="315.0">Window</text><line stroke="#666666" stroke-width="2.4" x1="1408.0" x2="1435.0" y1="328.0" y2="328.0" /><path d="M 1408.0,328.0 A 10,10 0 0 1 1418.0,318.0" fill="none" stroke="#666666" stroke-width="1.2" /><text fill="#222222" font-size="10" x="1442.0" y="331.0">Door</text><rect fill="#ffffff" height="84" stroke="#777777" stroke-width="1" width="200" x="1400.0" y="520.0" /><text fill="#111111" font-size="10" x="1408.0" y="533.0">Area (F1)</text><text fill="#222222" font-size="9" x="1408.0" y="550.0">F1: in 49.7 sqm (15.0 tsubo), out 0.0 sqm (0.0 tsubo)</text><text fill="#222222" font-size="9" x="1408.0" y="566.0">F2: in 49.7 sqm (15.0 tsubo), out 0.0 sqm (0.0 tsubo)</text><text fill="#222222" font-size="9" x="1408.0" y="582.0">Total indoor: 99.4 sqm (30.1 tsubo)</text><text fill="#222222" font-size="9" x="1408.0" y="598.0">Total outdoor: 0.0 sqm (0.0 tsubo)</text><line stroke="#111111" stroke-width="2" x1="175.0" x2="175.0" y1="238.0" y2="208.0" /><polygon fill="#111111" points="175.0,208.0 181.0,214.0 169.0,214.0" /><text fill="#111111" font-size="12" x="170.0" y="202.0">N</text><line stroke="#545454" stroke-width="1.0" x1="220.0" x2="1312.0" y1="148.0" y2="148.0" /><line stroke="#545454" stroke-width="0.8" x1="220.0" x2="220.0" y1="220.0" y2="148.0" /><line stroke="#545454" stroke-width="1.0" x1="220.0" x2="220.0" y1="145.0" y2="151.0" /><line stroke="#545454" stroke-width="0.8" x1="1312.0" x2="1312.0" y1="220.0" y2="148.0" /><line stroke="#545454" stroke-width="1.0" x1="1312.0" x2="1312.0" y1="145.0" y2="151.0" /><text fill="#545454" font-size="8.8" text-anchor="middle" x="766.0" y="145.0">9100mm</text><line stroke="#666666" stroke-width="1.0" x1="220.0" x2="1312.0" y1="166.0" y2="166.0" /><line stroke="#666666" stroke-width="0.8" x1="220.0" x2="220.0" y1="220.0" y2="166.0" /><line stroke="#666666" stroke-width="1.0" x1="220.0" x2="220.0" y1="163.0" y2="169.0" /><line stroke="#666666" stroke-width="0.8" x1="493.0" x2="493.0" y1="220.0" y2="166.0" /><line stroke="#666666" stroke-width="1.0" x1="493.0" x2="493.0" y1="163.0" y2="169.0" /><line stroke="#666666" stroke-width="0.8" x1="656.8" x2="656.8" y1="220.0" y2="166.0" /><line stroke="#666666" stroke-width="1.0" x1="656.8" x2="656.8" y1="163.0" y2="169.0" /><line stroke="#666666" stroke-width="0.8" x1="766.0" x2="766.0" y1="220.0" y2="166.0" /><line stroke="#666666" stroke-width="1.0" x1="766.0" x2="766.0" y1="163.0" y2="169.0" /><line stroke="#666666" stroke-width="0.8" x1="1312.0" x2="1312.0" y1="220.0" y2="166.0" /><line stroke="#666666" stroke-width="1.0" x1="1312.0" x2="1312.0" y1="163.0" y2="169.0" /><text fill="#666666" font-size="8.2" text-anchor="middle" x="356.5" y="163.0">2275</text><text fill="#666666" font-size="8.2" text-anchor="middle" x="574.9" y="163.0">1365</text><text fill="#666666" font-size="8.2" text-anchor="middle" x="711.4" y="163.0">910</text><text fill="#666666" font-size="8.2" text-anchor="middle" x="1039.0" y="163.0">4550</text><line stroke="#7a7a7a" stroke-width="1.0" x1="220.0" x2="1312.0" y1="184.0" y2="184.0" /><line stroke="#7a7a7a" stroke-width="0.8" x1="220.0" x2="220.0" y1="220.0" y2="184.0" /><line stroke="#7a7a7a" stroke-width="1.0" x1="220.0" x2="220.0" y1="181.0" y2="187.0" /><line stroke="#7a7a7a" stroke-width="0.8" x1="820.6" x2="820.6" y1="220.0" y2="184.0" /><line stroke="#7a7a7a" stroke-width="1.0" x1="820.6" x2="820.6" y1="181.0" y2="187.0" /><line stroke="#7a7a7a" stroke-width="0.8" x1="1039.0" x2="1039.0" y1="220.0" y2="184.0" /><line stroke="#7a7a7a" stroke-width="1.0" x1="1039.0" x2="1039.0" y1="181.0" y2="187.0" /><line stroke="#7a7a7a" stroke-width="0.8" x1="1257.4" x2="1257.4" y1="220.0" y2="184.0" /><line stroke="#7a7a7a" stroke-width="1.0" x1="1257.4" x2="1257.4" y1="181.0" y2="187.0" /><line stroke="#7a7a7a" stroke-width="0.8" x1="1312.0" x2="1312.0" y1="220.0" y2="184.0" /><line stroke="#7a7a7a" stroke-width="1.0" x1="1312.0" x2="1312.0" y1="181.0" y2="187.0" /><text fill="#7a7a7a" font-size="7.8" text-anchor="middle" x="520.3" y="181.0">5005</text><text fill="#7a7a7a" font-size="7.8" text-anchor="middle" x="929.8" y="181.0">1820</text><text fill="#7a7a7a" font-size="7.8" text-anchor="middle" x="1148.1999999999998" y="181.0">1820</text><line stroke="#545454" stroke-width="1.0" x1="220.0" x2="1312.0" y1="947.2" y2="947.2" /><line stroke="#545454" stroke-width="0.8" x1="220.0" x2="220.0" y1="875.2" y2="947.2" /><line stroke="#545454" stroke-width="1.0" x1="220.0" x2="220.0" y1="944.2" y2="950.2" /><line stroke="#545454" stroke-width="0.8" x1="1312.0" x2="1312.0" y1="875.2" y2="947.2" /><line stroke="#545454" stroke-width="1.0" x1="1312.0" x2="1312.0" y1="944.2" y2="950.2" /><text fill="#545454" font-size="8.8" text-anchor="middle" x="766.0" y="957.1999999999999">9100mm</text><line stroke="#666666" stroke-width="1.0" x1="220.0" x2="1312.0" y1="929.2" y2="929.2" /><line stroke="#666666" stroke-width="0.8" x1="220.0" x2="220.0" y1="875.2" y2="929.2" /><line stroke="#666666" stroke-width="1.0" x1="220.0" x2="220.0" y1="926.2" y2="932.2" /><line stroke="#666666" stroke-width="0.8" x1="438.4" x2="438.4" y1="875.2" y2="929.2" /><line stroke="#666666" stroke-width="1.0" x1="438.4" x2="438.4" y1="926.2" y2="932.2" /><line stroke="#666666" stroke-width="0.8" x1="547.6" x2="547.6" y1="875.2" y2="929.2" /><line stroke="#666666" stroke-width="1.0" x1="547.6" x2="547.6" y1="926.2" y2="932.2" /><line stroke="#666666" stroke-width="0.8" x1="766.0" x2="766.0" y1="875.2" y2="929.2" /><line stroke="#666666" stroke-width="1.0" x1="766.0" x2="766.0" y1="926.2" y2="932.2" /><line stroke="#666666" stroke-width="0.8" x1="1312.0" x2="1312.0" y1="875.2" y2="929.2" /><line stroke="#666666" stroke-width="1.0" x1="1312.0" x2="1312.0" y1="926.2" y2="932.2" /><text fill="#666666" font-size="8.2" text-anchor="middle" x="329.2" y="939.1999999999999">1820</text><text fill="#666666" font-size="8.2" text-anchor="middle" x="493.0" y="939.1999999999999">910</text><text fill="#666666" font-size="8.2" text-anchor="middle" x="656.8" y="939.1999999999999">1820</text><text fill="#666666" font-size="8.2" text-anchor="middle" x="1039.0" y="939.1999999999999">4550</text><line stroke="#7a7a7a" stroke-width="1.0" x1="220.0" x2="1312.0" y1="911.2" y2="911.2" /><line stroke="#7a7a7a" stroke-width="0.8" x1="220.0" x2="220.0" y1="875.2" y2="911.2" /><line stroke="#7a7a7a" stroke-width="1.0" x1="220.0" x2="220.0" y1="908.2" y2="914.2" /><line stroke="#7a7a7a" stroke-width="0.8" x1="602.2" x2="602.2" y1="875.2" y2="911.2" /><line stroke="#7a7a7a" stroke-width="1.0" x1="602.2" x2="602.2" y1="908.2" y2="914.2" /><line stroke="#7a7a7a" stroke-width="0.8" x1="711.4" x2="711.4" y1="875.2" y2="911.2" /><line stroke="#7a7a7a" stroke-width="1.0" x1="711.4" x2="711.4" y1="908.2" y2="914.2" /><line stroke="#7a7a7a" stroke-width="0.8" x1="820.6" x2="820.6" y1="875.2" y2="911.2" /><line stroke="#7a7a7a" stroke-width="1.0" x1="820.6" x2="820.6" y1="908.2" y2="914.2" /><line stroke="#7a7a7a" stroke-width="0.8" x1="1039.0" x2="1039.0" y1="875.2" y2="911.2" /><line stroke="#7a7a7a" stroke-width="1.0" x1="1039.0" x2="1039.0" y1="908.2" y2="914.2" /><line stroke="#7a7a7a" stroke-width="0.8" x1="1257.4" x2="1257.4" y1="875.2" y2="911.2" /><line stroke="#7a7a7a" stroke-width="1.0" x1="1257.4" x2="1257.4" y1="908.2" y2="914.2" /><line stroke="#7a7a7a" stroke-width="0.8" x1="1312.0" x2="1312.0" y1="875.2" y2="911.2" /><line stroke="#7a7a7a" stroke-width="1.0" x1="1312.0" x2="1312.0" y1="908.2" y2="914.2" /><text fill="#7a7a7a" font-size="7.8" text-anchor="middle" x="411.1" y="921.1999999999999">3185</text><text fill="#7a7a7a" font-size="7.8" text-anchor="middle" x="656.8" y="921.1999999999999">910</text><text fill="#7a7a7a" font-size="7.8" text-anchor="middle" x="766.0" y="921.1999999999999">910</text><text fill="#7a7a7a" font-size="7.8" text-anchor="middle" x="929.8" y="921.1999999999999">1820</text><text fill="#7a7a7a" font-size="7.8" text-anchor="middle" x="1148.1999999999998" y="921.1999999999999">1820</text><line stroke="#545454" stroke-width="1.0" x1="148.0" x2="148.0" y1="220.0" y2="875.2" /><line stroke="#545454" stroke-width="0.8" x1="220.0" x2="148.0" y1="220.0" y2="220.0" /><line stroke="#545454" stroke-width="1.0" x1="145.0" x2="151.0" y1="220.0" y2="220.0" /><line stroke="#545454" stroke-width="0.8" x1="220.0" x2="148.0" y1="875.2" y2="875.2" /><line stroke="#545454" stroke-width="1.0" x1="145.0" x2="151.0" y1="875.2" y2="875.2" /><text fill="#545454" font-size="8.8" x="144.0" y="547.5999999999999">5460mm</text><line stroke="#666666" stroke-width="1.0" x1="166.0" x2="166.0" y1="220.0" y2="875.2" /><line stroke="#666666" stroke-width="0.8" x1="220.0" x2="166.0" y1="220.0" y2="220.0" /><line stroke="#666666" stroke-width="1.0" x1="163.0" x2="169.0" y1="220.0" y2="220.0" /><line stroke="#666666" stroke-width="0.8" x1="220.0" x2="166.0" y1="438.4" y2="438.4" /><line stroke="#666666" stroke-width="1.0" x1="163.0" x2="169.0" y1="438.4" y2="438.4" /><line stroke="#666666" stroke-width="0.8" x1="220.0" x2="166.0" y1="656.8" y2="656.8" /><line stroke="#666666" stroke-width="1.0" x1="163.0" x2="169.0" y1="656.8" y2="656.8" /><line stroke="#666666" stroke-width="0.8" x1="220.0" x2="166.0" y1="875.2" y2="875.2" /><line stroke="#666666" stroke-width="1.0" x1="163.0" x2="169.0" y1="875.2" y2="875.2" /><text fill="#666666" font-size="8.2" x="162.0" y="329.2">1820</text><text fill="#666666" font-size="8.2" x="162.0" y="547.5999999999999">1820</text><text fill="#666666" font-size="8.2" x="162.0" y="766.0">1820</text><line stroke="#545454" stroke-width="1.0" x1="1384.0" x2="1384.0" y1="220.0" y2="875.2" /><line stroke="#545454" stroke-width="0.8" x1="1312.0" x2="1384.0" y1="220.0" y2="220.0" /><line stroke="#545454" stroke-width="1.0" x1="1381.0" x2="1387.0" y1="220.0" y2="220.0" /><line stroke="#545454" stroke-width="0.8" x1="1312.0" x2="1384.0" y1="875.2" y2="875.2" /><line stroke="#545454" stroke-width="1.0" x1="1381.0" x2="1387.0" y1="875.2" y2="875.2" /><text fill="#545454" font-size="8.8" x="1389.0" y="547.5999999999999">5460mm</text><line stroke="#666666" stroke-width="1.0" x1="1366.0" x2="1366.0" y1="220.0" y2="875.2" /><line stroke="#666666" stroke-width="0.8" x1="1312.0" x2="1366.0" y1="220.0" y2="220.0" /><line stroke="#666666" stroke-width="1.0" x1="1363.0" x2="1369.0" y1="220.0" y2="220.0" /><line stroke="#666666" stroke-width="0.8" x1="1312.0" x2="1366.0" y1="438.4" y2="438.4" /><line stroke="#666666" stroke-width="1.0" x1="1363.0" x2="1369.0" y1="438.4" y2="438.4" /><line stroke="#666666" stroke-width="0.8" x1="1312.0" x2="1366.0" y1="875.2" y2="875.2" /><line stroke="#666666" stroke-width="1.0" x1="1363.0" x2="1369.0" y1="875.2" y2="875.2" /><text fill="#666666" font-size="8.2" x="1371.0" y="329.2">1820</text><text fill="#666666" font-size="8.2" x="1371.0" y="656.8">3640</text><line stroke="#7a7a7a" stroke-width="1.0" x1="1348.0" x2="1348.0" y1="220.0" y2="875.2" /><line stroke="#7a7a7a" stroke-width="0.8" x1="1312.0" x2="1348.0" y1="220.0" y2="220.0" /><line stroke="#7a7a7a" stroke-width="1.0" x1="1345.0" x2="1351.0" y1="220.0" y2="220.0" /><line stroke="#7a7a7a" stroke-width="0.8" x1="1312.0" x2="1348.0" y1="274.6" y2="274.6" /><line stroke="#7a7a7a" stroke-width="1.0" x1="1345.0" x2="1351.0" y1="274.6" y2="274.6" /><line stroke="#7a7a7a" stroke-width="0.8" x1="1312.0" x2="1348.0" y1="383.8" y2="383.8" /><line stroke="#7a7a7a" stroke-width="1.0" x1="1345.0" x2="1351.0" y1="383.8" y2="383.8" /><line stroke="#7a7a7a" stroke-width="0.8" x1="1312.0" x2="1348.0" y1="493.0" y2="493.0" /><line stroke="#7a7a7a" stroke-width="1.0" x1="1345.0" x2="1351.0" y1="493.0" y2="493.0" /><line stroke="#7a7a7a" stroke-width="0.8" x1="1312.0" x2="1348.0" y1="656.8" y2="656.8" /><line stroke="#7a7a7a" stroke-width="1.0" x1="1345.0" x2="1351.0" y1="656.8" y2="656.8" /><line stroke="#7a7a7a" stroke-width="0.8" x1="1312.0" x2="1348.0" y1="820.6" y2="820.6" /><line stroke="#7a7a7a" stroke-width="1.0" x1="1345.0" x2="1351.0" y1="820.6" y2="820.6" /><line stroke="#7a7a7a" stroke-width="0.8" x1="1312.0" x2="1348.0" y1="875.2" y2="875.2" /><line stroke="#7a7a7a" stroke-width="1.0" x1="1345.0" x2="1351.0" y1="875.2" y2="875.2" /><text fill="#7a7a7a" font-size="7.8" x="1353.0" y="329.2">910</text><text fill="#7a7a7a" font-size="7.8" x="1353.0" y="438.4">910</text><text fill="#7a7a7a" font-size="7.8" x="1353.0" y="574.9">1365</text><text fill="#7a7a7a" font-size="7.8" x="1353.0" y="738.6999999999999">1365</text></svg>