<?xml version="1.0" encoding="utf-8" ?>
<svg baseProfile="tiny" height="1095.1999999999998px" version="1.2" width="1532.0px" xmlns="http://www.w3.org/2000/svg" xmlns:ev="http://www.w3.org/2001/xml-events" xmlns:xlink="http://www.w3.org/1999/xlink"><defs /><rect fill="#fafafa" height="1095.2" width="1532.0" x="0" y="0" /><line stroke="#ececec" stroke-width="0.7" x1="220.0" x2="220.0" y1="220.0" y2="875.2" /><line stroke="#ececec" stroke-width="0.7" x1="274.6" x2="274.6" y1="220.0" y2="875.2" /><line stroke="#ececec" stroke-width="0.7" x1="329.2" x2="329.2" y1="220.0" y2="875.2" /><line stroke="#ececec" stroke-width="0.7" x1="383.8" x2="383.8" y1="220.0" y2="875.2" /><line stroke="#ececec" stroke-width="0.7" x1="438.4" x2="438.4" y1="220.0" y2="875.2" /><line stroke="#ececec" stroke-width="0.7" x1="493.0" x2="493.0" y1="220.0" y2="875.2" /><line stroke="#ececec" stroke-width="0.7" x1="547.6" x2="547.6" y1="220.0" y2="875.2" /><line stroke="#ececec" stroke-width="0.7" x1="602.2" x2="602.2" y1="220.0" y2="875.2" /><line stroke="#ececec" stroke-width="0.7" x1="656.8" x2="656.8" y1="220.0" y2="875.2" /><line stroke="#ececec" stroke-width="0.7" x1="711.4" x2="711.4" y1="220.0" y2="875.2" /><line stroke="#ececec" stroke-width="0.7" x1="766.0" x2="766.0" y1="220.0" y2="875.2" /><line stroke="#ececec" stroke-width="0.7" x1="820.6" x2="820.6" y1="220.0" y2="875.2" /><line stroke="#ececec" stroke-width="0.7" x1="875.2" x2="875.2" y1="220.0" y2="875.2" /><line stroke="#ececec" stroke-width="0.7" x1="929.8" x2="929.8" y1="220.0" y2="875.2" /><line stroke="#ececec" stroke-width="0.7" x1="984.4" x2="984.4" y1="220.0" y2="875.2" /><line stroke="#ececec" stroke-width="0.7" x1="1039.0" x2="1039.0" y1="220.0" y2="875.2" /><line stroke="#ececec" stroke-width="0.7" x1="1093.6" x2="1093.6" y1="220.0" y2="875.2" /><line stroke="#ececec" stroke-width="0.7" x1="1148.2" x2="1148.2" y1="220.0" y2="875.2" /><line stroke="#ececec" stroke-width="0.7" x1="1202.8" x2="1202.8" y1="220.0" y2="875.2" /><line stroke="#ececec" stroke-width="0.7" x1="1257.4" x2="1257.4" y1="220.0" y2="875.2" /><line stroke="#ececec" stroke-width="0.7" x1="1312.0" x2="1312.0" y1="220.0" y2="875.2" /><line stroke="#d1d1d1" stroke-width="1.1" x1="220.0" x2="220.0" y1="220.0" y2="875.2" /><line stroke="#d1d1d1" stroke-width="1.1" x1="329.2" x2="329.2" y1="220.0" y2="875.2" /><line stroke="#d1d1d1" stroke-width="1.1" x1="438.4" x2="438.4" y1="220.0" y2="875.2" /><line stroke="#d1d1d1" stroke-width="1.1" x1="547.6" x2="547.6" y1="220.0" y2="875.2" /><line stroke="#d1d1d1" stroke-width="1.1" x1="656.8" x2="656.8" y1="220.0" y2="875.2" /><line stroke="#d1d1d1" stroke-width="1.1" x1="766.0" x2="766.0" y1="220.0" y2="875.2" /><line stroke="#d1d1d1" stroke-width="1.1" x1="875.2" x2="875.2" y1="220.0" y2="875.2" /><line stroke="#d1d1d1" stroke-width="1.1" x1="984.4" x2="984.4" y1="220.0" y2="875.2" /><line stroke="#d1d1d1" stroke-width="1.1" x1="1093.6" x2="1093.6" y1="220.0" y2="875.2" /><line stroke="#d1d1d1" stroke-width="1.1" x1="1202.8" x2="1202.8" y1="220.0" y2="875.2" /><line stroke="#d1d1d1" stroke-width="1.1" x1="1312.0" x2="1312.0" y1="220.0" y2="875.2" /><line stroke="#d1d1d1" stroke-width="1.1" x1="220.0" x2="1312.0" y1="220.0" y2="220.0" /><line stroke="#d1d1d1" stroke-width="1.1" x1="220.0" x2="1312.0" y1="329.2" y2="329.2" /><line stroke="#d1d1d1" stroke-width="1.1" x1="220.0" x2="1312.0" y1="438.4" y2="438.4" /><line stroke="#d1d1d1" stroke-width="1.1" x1="220.0" x2="1312.0" y1="547.6" y2="547.6" /><line stroke="#d1d1d1" stroke-width="1.1" x1="220.0" x2="1312.0" y1="656.8" y2="656.8" /><line stroke="#d1d1d1" stroke-width="1.1" x1="220.0" x2="1312.0" y1="766.0" y2="766.0" /><line stroke="#d1d1d1" stroke-width="1.1" x1="220.0" x2="1312.0" y1="875.2" y2="875.2" /><line stroke="#ececec" stroke-width="0.7" x1="220.0" x2="1312.0" y1="220.0" y2="220.0" /><line stroke="#ececec" stroke-width="0.7" x1="220.0" x2="1312.0" y1="274.6" y2="274.6" /><line stroke="#ececec" stroke-width="0.7" x1="220.0" x2="1312.0" y1="329.2" y2="329.2" /><line stroke="#ececec" stroke-width="0.7" x1="220.0" x2="1312.0" y1="383.8" y2="383.8" /><line stroke="#ececec" stroke-width="0.7" x1="220.0" x2="1312.0" y1="438.4" y2="438.4" /><line stroke="#ececec" stroke-width="0.7" x1="220.0" x2="1312.0" y1="493.0" y2="493.0" /><line stroke="#ececec" stroke-width="0.7" x1="220.0" x2="1312.0" y1="547.6" y2="547.6" /><line stroke="#ececec" stroke-width="0.7" x1="220.0" x2="1312.0" y1="602.2" y2="602.2" /><line stroke="#ececec" stroke-width="0.7" x1="220.0" x2="1312.0" y1="656.8" y2="656.8" /><line stroke="#ececec" stroke-width="0.7" x1="220.0" x2="1312.0" y1="711.4" y2="711.4" /><line stroke="#ececec" stroke-width="0.7" x1="220.0" x2="1312.0" y1="766.0" y2="766.0" /><line stroke="#ececec" stroke-width="0.7" x1="220.0" x2="1312.0" y1="820.6" y2="820.6" /><line stroke="#ececec" stroke-width="0.7" x1="220.0" x2="1312.0" y1="875.2" y2="875.2" /><rect fill="none" height="655.2" stroke="#6a6a6a" stroke-dasharray="8,4" stroke-width="2" width="1092.0" x="220.0" y="220.0" /><rect fill="none" height="655.2" stroke="#1f1f1f" stroke-width="3.5" width="1092.0" x="220.0" y="220.0" /><text fill="#555555" font-size="10" x="222.0" y="160.0">Site Envelope = Building Footprint</text><rect fill="#d9f2ff" height="436.8" stroke="none" width="327.6" x="984.4" y="220.0" /><line stroke="#2f2f2f" stroke-width="2.2" x1="984.4" x2="1312.0" y1="220.0" y2="220.0" /><line stroke="#2f2f2f" stroke-width="2.2" x1="984.4" x2="1312.0" y1="656.8" y2="656.8" /><line stroke="#2f2f2f" stroke-width="2.2" x1="1312.0" x2="1312.0" y1="220.0" y2="656.8" /><line stroke="#2f2f2f" stroke-width="2.2" x1="984.4" x2="984.4" y1="220.0" y2="656.8" /><rect fill="#d9f2ff" height="273.0" stroke="none" width="546.0" x="220.0" y="602.2" /><line stroke="#2f2f2f" stroke-width="2.2" x1="220.0" x2="766.0" y1="875.2" y2="875.2" /><line stroke="#2f2f2f" stroke-width="2.2" x1="220.0" x2="766.0" y1="602.2" y2="602.2" /><line stroke="#2f2f2f" stroke-width="2.2" x1="766.0" x2="766.0" y1="602.2" y2="875.2" /><line stroke="#2f2f2f" stroke-width="2.2" x1="220.0" x2="220.0" y1="602.2" y2="875.2" /><rect fill="#efe9ff" height="109.2" stroke="none" width="109.2" x="766.0" y="220.0" /><rect fill="#efe9ff" height="436.8" stroke="none" width="109.2" x="875.2" y="220.0" /><rect fill="#efe9ff" height="218.4" stroke="none" width="327.6" x="766.0" y="656.8" /><line stroke="#2f2f2f" stroke-width="2.2" x1="766.0" x2="1093.6" y1="875.2" y2="875.2" /><line stroke="#2f2f2f" stroke-width="2.2" x1="766.0" x2="984.4" y1="220.0" y2="220.0" /><line stroke="#2f2f2f" stroke-width="2.2" x1="766.0" x2="875.2" y1="329.2" y2="329.2" /><line stroke="#2f2f2f" stroke-width="2.2" x1="766.0" x2="875.2" y1="656.8" y2="656.8" /><line stroke="#2f2f2f" stroke-width="2.2" x1="984.4" x2="1093.6" y1="656.8" y2="656.8" /><line stroke="#2f2f2f" stroke-width="2.2" x1="984.4" x2="984.4" y1="220.0" y2="656.8" /><line stroke="#2f2f2f" stroke-width="2.2" x1="766.0" x2="766.0" y1="220.0" y2="329.2" /><line stroke="#2f2f2f" stroke-width="2.2" x1="766.0" x2="766.0" y1="656.8" y2="875.2" /><line stroke="#2f2f2f" stroke-width="2.2" x1="875.2" x2="875.2" y1="329.2" y2="656.8" /><line stroke="#2f2f2f" stroke-width="2.2" x1="1093.6" x2="1093.6" y1="656.8" y2="875.2" /><rect fill="#c5e8ff" height="382.2" stroke="none" width="546.0" x="220.0" y="220.0" /><line stroke="#2f2f2f" stroke-width="2.2" x1="220.0" x2="766.0" y1="602.2" y2="602.2" /><line stroke="#2f2f2f" stroke-width="2.2" x1="220.0" x2="766.0" y1="220.0" y2="220.0" /><line stroke="#2f2f2f" stroke-width="2.2" x1="220.0" x2="220.0" y1="220.0" y2="602.2" /><line stroke="#2f2f2f" stroke-width="2.2" x1="766.0" x2="766.0" y1="220.0" y2="602.2" /><rect fill="#f0f0f0" height="218.4" stroke="none" width="218.4" x="1093.6" y="656.8" /><line stroke="#2f2f2f" stroke-width="2.2" x1="1093.6" x2="1312.0" y1="875.2" y2="875.2" /><line stroke="#2f2f2f" stroke-width="2.2" x1="1093.6" x2="1312.0" y1="656.8" y2="656.8" /><line stroke="#2f2f2f" stroke-width="2.2" x1="1093.6" x2="1093.6" y1="656.8" y2="875.2" /><line stroke="#2f2f2f" stroke-width="2.2" x1="1312.0" x2="1312.0" y1="656.8" y2="875.2" /><rect fill="none" height="129.948" stroke="#7f7f7f" stroke-width="1.1" width="218.4" x="383.8" y="288.796" /><line stroke="#7f7f7f" stroke-width="0.9" x1="383.8" x2="602.2" y1="334.2778" y2="334.2778" /><rect fill="none" height="148.512" stroke="#7f7f7f" stroke-width="1.1" width="183.456" x="1056.472" y="298.624" /><line stroke="#7f7f7f" stroke-width="0.9" x1="1056.472" x2="1239.928" y1="350.6032" y2="350.6032" /><rect fill="none" height="92.82" stroke="#7f7f7f" stroke-width="1.1" width="218.4" x="383.8" y="651.34" /><line stroke="#7f7f7f" stroke-width="0.9" x1="383.8" x2="602.2" y1="683.827" y2="683.827" /><line stroke="#9a9a9a" stroke-width="0.9" x1="1119.808" x2="1285.792" y1="696.112" y2="696.112" /><line stroke="#9a9a9a" stroke-width="0.9" x1="1119.808" x2="1285.792" y1="835.888" y2="835.888" /><rect fill="#ffffff" height="327.6" stroke="#202020" stroke-dasharray="8,4" stroke-width="2.6" width="109.2" x="766.0" y="329.2" /><line stroke="#2a2a2a" stroke-width="1.4" x1="779.104" x2="862.096" y1="354.4" y2="354.4" /><line stroke="#2a2a2a" stroke-width="1.4" x1="779.104" x2="862.096" y1="379.6" y2="379.6" /><line stroke="#2a2a2a" stroke-width="1.4" x1="779.104" x2="862.096" y1="404.8" y2="404.8" /><line stroke="#2a2a2a" stroke-width="1.4" x1="779.104" x2="862.096" y1="430.0" y2="430.0" /><line stroke="#2a2a2a" stroke-width="1.4" x1="779.104" x2="862.096" y1="455.2" y2="455.2" /><line stroke="#2a2a2a" stroke-width="1.4" x1="779.104" x2="862.096" y1="480.4" y2="480.4" /><line stroke="#2a2a2a" stroke-width="1.4" x1="779.104" x2="862.096" y1="505.6" y2="505.6" /><line stroke="#2a2a2a" stroke-width="1.4" x1="779.104" x2="862.096" y1="530.8" y2="530.8" /><line stroke="#2a2a2a" stroke-width="1.4" x1="779.104" x2="862.096" y1="556.0" y2="556.0" /><line stroke="#2a2a2a" stroke-width="1.4" x1="779.104" x2="862.096" y1="581.2" y2="581.2" /><line stroke="#2a2a2a" stroke-width="1.4" x1="779.104" x2="862.096" y1="606.4" y2="606.4" /><line stroke="#2a2a2a" stroke-width="1.4" x1="779.104" x2="862.096" y1="631.6" y2="631.6" /><text fill="#202020" font-size="11" text-anchor="middle" x="820.6" y="493.0">Stair (DN)</text><text fill="#3a3a3a" font-size="9.0" text-anchor="middle" x="820.6" y="507.4">13R/12T</text><text fill="#4a4a4a" font-size="7.8" text-anchor="middle" x="820.6" y="515.8">H2730 R210 T228</text><line stroke="#ffffff" stroke-width="7" x1="766.0" x2="875.2" y1="656.8" y2="656.8" /><line stroke="#5e5e5e" stroke-width="1.0" x1="766.0" x2="875.2" y1="656.8" y2="656.8" /><line stroke="#ffffff" stroke-width="6" x1="766.0" x2="766.0" y1="229.0" y2="320.2" /><line stroke="#595959" stroke-width="1.2" x1="766.0" x2="825.28" y1="229.0" y2="288.28" /><path d="M 766.0,288.28 A 59.28,59.28 0 0 1 825.28,288.28" fill="none" stroke="#7a7a7a" stroke-width="1.0" /><line stroke="#ffffff" stroke-width="6" x1="984.4" x2="984.4" y1="379.6" y2="497.2" /><line stroke="#595959" stroke-width="1.2" x1="984.4" x2="907.96" y1="379.6" y2="456.04" /><path d="M 984.4,456.03999999999996 A 76.44,76.44 0 0 1 907.9599999999999,456.03999999999996" fill="none" stroke="#7a7a7a" stroke-width="1.0" /><line stroke="#ffffff" stroke-width="6" x1="766.0" x2="766.0" y1="716.86" y2="815.14" /><line stroke="#595959" stroke-width="1.2" x1="766.0" x2="829.882" y1="716.86" y2="780.742" /><path d="M 766.0,780.7420000000001 A 63.882,63.882 0 0 1 829.8820000000001,780.7420000000001" fill="none" stroke="#7a7a7a" stroke-width="1.0" /><line stroke="#ffffff" stroke-width="6" x1="1093.6" x2="1093.6" y1="716.86" y2="815.14" /><line stroke="#595959" stroke-width="1.2" x1="1093.6" x2="1029.718" y1="716.86" y2="780.742" /><path d="M 1093.6,780.7420000000001 A 63.882,63.882 0 0 1 1029.7179999999998,780.7420000000001" fill="none" stroke="#7a7a7a" stroke-width="1.0" /><line stroke="#66a7ff" stroke-width="2.2" x1="217.36" x2="217.36" y1="346.18" y2="476.02" /><line stroke="#66a7ff" stroke-width="2.2" x1="222.64" x2="222.64" y1="346.18" y2="476.02" /><line stroke="#66a7ff" stroke-width="2.2" x1="280.06" x2="465.7" y1="217.36" y2="217.36" /><line stroke="#66a7ff" stroke-width="2.2" x1="280.06" x2="465.7" y1="222.64" y2="222.64" /><line stroke="#66a7ff" stroke-width="2.2" x1="520.3" x2="705.94" y1="217.36" y2="217.36" /><line stroke="#66a7ff" stroke-width="2.2" x1="520.3" x2="705.94" y1="222.64" y2="222.64" /><line stroke="#66a7ff" stroke-width="2.2" x1="1309.36" x2="1309.36" y1="268.084" y2="416.524" /><line stroke="#66a7ff" stroke-width="2.2" x1="1314.64" x2="1314.64" y1="268.084" y2="416.524" /><line stroke="#66a7ff" stroke-width="2.2" x1="1309.36" x2="1309.36" y1="460.276" y2="608.716" /><line stroke="#66a7ff" stroke-width="2.2" x1="1314.64" x2="1314.64" y1="460.276" y2="608.716" /><line stroke="#66a7ff" stroke-width="2.2" x1="1092.52" x2="1203.88" y1="217.36" y2="217.36" /><line stroke="#66a7ff" stroke-width="2.2" x1="1092.52" x2="1203.88" y1="222.64" y2="222.64" /><line stroke="#66a7ff" stroke-width="2.2" x1="217.36" x2="217.36" y1="684.1" y2="793.3" /><line stroke="#66a7ff" stroke-width="2.2" x1="222.64" x2="222.64" y1="684.1" y2="793.3" /><line stroke="#66a7ff" stroke-width="2.2" x1="280.06" x2="465.7" y1="872.56" y2="872.56" /><line stroke="#66a7ff" stroke-width="2.2" x1="280.06" x2="465.7" y1="877.84" y2="877.84" /><line stroke="#66a7ff" stroke-width="2.2" x1="520.3" x2="705.94" y1="872.56" y2="872.56" /><line stroke="#66a7ff" stroke-width="2.2" x1="520.3" x2="705.94" y1="877.84" y2="877.84" /><line stroke="#9a9a9a" stroke-width="0.8" x1="883.6" x2="976.0" y1="228.4" y2="228.4" /><line stroke="#9a9a9a" stroke-width="0.8" x1="883.6" x2="883.6" y1="225.04" y2="231.76" /><line stroke="#9a9a9a" stroke-width="0.8" x1="976.0" x2="976.0" y1="225.04" y2="231.76" /><text fill="#8a8a8a" font-size="7.6" text-anchor="start" x="890.3199999999999" y="225.76">910mm</text><line stroke="#9a9a9a" stroke-width="0.8" x1="883.6" x2="883.6" y1="228.4" y2="648.4" /><line stroke="#9a9a9a" stroke-width="0.8" x1="880.24" x2="886.96" y1="228.4" y2="228.4" /><line stroke="#9a9a9a" stroke-width="0.8" x1="880.24" x2="886.96" y1="648.4" y2="648.4" /><text fill="#8a8a8a" font-size="7.6" text-anchor="start" x="887.68" y="236.07999999999998">3640mm</text><line stroke="#9a9a9a" stroke-width="0.8" x1="774.4" x2="1085.2" y1="665.2" y2="665.2" /><line stroke="#9a9a9a" stroke-width="0.8" x1="774.4" x2="774.4" y1="661.84" y2="668.56" /><line stroke="#9a9a9a" stroke-width="0.8" x1="1085.2" x2="1085.2" y1="661.84" y2="668.56" /><text fill="#8a8a8a" font-size="7.6" text-anchor="start" x="781.12" y="662.56">2730mm</text><line stroke="#9a9a9a" stroke-width="0.8" x1="774.4" x2="774.4" y1="665.2" y2="866.8" /><line stroke="#9a9a9a" stroke-width="0.8" x1="771.04" x2="777.76" y1="665.2" y2="665.2" /><line stroke="#9a9a9a" stroke-width="0.8" x1="771.04" x2="777.76" y1="866.8" y2="866.8" /><text fill="#8a8a8a" font-size="7.6" text-anchor="start" x="778.48" y="672.88">1820mm</text><text fill="#1b1b1b" font-size="10" text-anchor="middle" x="1148.1999999999998" y="424.0">Bedroom 2</text><text fill="#1b1b1b" font-size="10" text-anchor="middle" x="1148.1999999999998" y="434.79999999999995">2730x3640mm</text><text fill="#1b1b1b" font-size="10" text-anchor="middle" x="1148.1999999999998" y="445.6">9.9sqm / 6.1jo</text><text fill="#1b1b1b" font-size="10" text-anchor="middle" x="493.0" y="724.3">Bedroom 3</text><text fill="#1b1b1b" font-size="10" text-anchor="middle" x="493.0" y="735.1">4550x2275mm</text><text fill="#1b1b1b" font-size="10" text-anchor="middle" x="493.0" y="745.9">10.4sqm / 6.4jo</text><text fill="#1b1b1b" font-size="9" text-anchor="middle" x="919.8727272727272" y="587.8">Hall 2</text><text fill="#1b1b1b" font-size="9" text-anchor="middle" x="919.8727272727272" y="598.5999999999999">9.1sqm / 5.6jo</text><text fill="#1b1b1b" font-size="10" text-anchor="middle" x="493.0" y="396.7">Master</text><text fill="#1b1b1b" font-size="10" text-anchor="middle" x="493.0" y="407.5">4550x3185mm</text><text fill="#1b1b1b" font-size="10" text-anchor="middle" x="493.0" y="418.29999999999995">14.5sqm / 8.9jo</text><text fill="#1b1b1b" font-size="10" text-anchor="middle" x="1202.8" y="751.6">Storage 2</text><text fill="#1b1b1b" font-size="10" text-anchor="middle" x="1202.8" y="762.4">1820x1820mm</text><text fill="#1b1b1b" font-size="10" text-anchor="middle" x="1202.8" y="773.1999999999999">3.3sqm / 2.0jo</text><text fill="#111111" font-size="14" x="220.0" y="180.0">F2 Plan  (9100 x 5460 mm)</text><text fill="#444444" font-size="10" x="220.0" y="198.0">Scale: 1px=8.3mm</text><rect fill="#ffffff" height="126" stroke="#777777" stroke-width="1" width="170" x="1400.0" y="150.0" /><text fill="#111111" font-size="11" x="1408.0" y="164.0">Legend</text><rect fill="#efe9ff" height="12" stroke="#333333" stroke-width="1" width="12" x="1408.0" y="174.0" /><text fill="#222222" font-size="10" x="1426.0" y="184.0">Hall</text><rect fill="#c5e8ff" height="12" stroke="#333333" stroke-width="1" width="12" x="1408.0" y="192.0" /><text fill="#222222" font-size="10" x="1426.0" y="202.0">Master Bedroom</text><rect fill="#d9f2ff" height="12" stroke="#333333" stroke-width="1" width="12" x="1408.0" y="210.0" /><text fill="#222222" font-size="10" x="1426.0" y="220.0">Bedroom</text><rect fill="#f0f0f0" height="12" stroke="#333333" stroke-width="1" width="12" x="1408.0" y="228.0" /><text fill="#222222" font-size="10" x="1426.0" y="238.0">Storage</text><line stroke="#6aa4ff" stroke-width="4" x1="1408.0" x2="1435.0" y1="258.0" y2="258.0" /><text fill="#222222" font-size="10" x="1442.0" y="261.0">Window</text><line stroke="#666666" stroke-width="2.4" x1="1408.0" x2="1435.0" y1="274.0" y2="274.0" /><path d="M 1408.0,274.0 A 10,10 0 0 1 1418.0,264.0" fill="none" stroke="#666666" stroke-width="1.2" /><text fill="#222222" font-size="10" x="1442.0" y="277.0">Door</text><rect fill="#ffffff" height="68" stroke="#777777" stroke-width="1" width="200" x="1400.0" y="520.0" /><text fill="#111111" font-size="10" x="1408.0" y="533.0">Area (F2)</text><text fill="#222222" font-size="9" x="1408.0" y="550.0">F1: 49.7 sqm (15.0 tsubo)</text><text fill="#222222" font-size="9" x="1408.0" y="566.0">F2: 49.7 sqm (15.0 tsubo)</text><text fill="#222222" font-size="9" x="1408.0" y="582.0">Total: 99.4 sqm (30.1 tsubo)</text><line stroke="#111111" stroke-width="2" x1="175.0" x2="175.0" y1="238.0" y2="208.0" /><polygon fill="#111111" points="175.0,208.0 181.0,214.0 169.0,214.0" /><text fill="#111111" font-size="12" x="170.0" y="202.0">N</text><line stroke="#545454" stroke-width="1.0" x1="220.0" x2="1312.0" y1="148.0" y2="148.0" /><line stroke="#545454" stroke-width="0.8" x1="220.0" x2="220.0" y1="220.0" y2="148.0" /><line stroke="#545454" stroke-width="1.0" x1="220.0" x2="220.0" y1="145.0" y2="151.0" /><line stroke="#545454" stroke-width="0.8" x1="1312.0" x2="1312.0" y1="220.0" y2="148.0" /><line stroke="#545454" stroke-width="1.0" x1="1312.0" x2="1312.0" y1="145.0" y2="151.0" /><text fill="#545454" font-size="8.8" text-anchor="middle" x="766.0" y="145.0">9100mm</text><line stroke="#666666" stroke-width="1.0" x1="220.0" x2="1312.0" y1="166.0" y2="166.0" /><line stroke="#666666" stroke-width="0.8" x1="220.0" x2="220.0" y1="220.0" y2="166.0" /><line stroke="#666666" stroke-width="1.0" x1="220.0" x2="220.0" y1="163.0" y2="169.0" /><line stroke="#666666" stroke-width="0.8" x1="766.0" x2="766.0" y1="220.0" y2="166.0" /><line stroke="#666666" stroke-width="1.0" x1="766.0" x2="766.0" y1="163.0" y2="169.0" /><line stroke="#666666" stroke-width="0.8" x1="875.2" x2="875.2" y1="220.0" y2="166.0" /><line stroke="#666666" stroke-width="1.0" x1="875.2" x2="875.2" y1="163.0" y2="169.0" /><line stroke="#666666" stroke-width="0.8" x1="984.4" x2="984.4" y1="220.0" y2="166.0" /><line stroke="#666666" stroke-width="1.0" x1="984.4" x2="984.4" y1="163.0" y2="169.0" /><line stroke="#666666" stroke-width="0.8" x1="1312.0" x2="1312.0" y1="220.0" y2="166.0" /><line stroke="#666666" stroke-width="1.0" x1="1312.0" x2="1312.0" y1="163.0" y2="169.0" /><text fill="#666666" font-size="8.2" text-anchor="middle" x="493.0" y="163.0">4550</text><text fill="#666666" font-size="8.2" text-anchor="middle" x="820.6" y="163.0">910</text><text fill="#666666" font-size="8.2" text-anchor="middle" x="929.8" y="163.0">910</text><text fill="#666666" font-size="8.2" text-anchor="middle" x="1148.1999999999998" y="163.0">2730</text><line stroke="#7a7a7a" stroke-width="1.0" x1="220.0" x2="1312.0" y1="184.0" y2="184.0" /><line stroke="#7a7a7a" stroke-width="0.8" x1="220.0" x2="220.0" y1="220.0" y2="184.0" /><line stroke="#7a7a7a" stroke-width="1.0" x1="220.0" x2="220.0" y1="181.0" y2="187.0" /><line stroke="#7a7a7a" stroke-width="0.8" x1="274.6" x2="274.6" y1="220.0" y2="184.0" /><line stroke="#7a7a7a" stroke-width="1.0" x1="274.6" x2="274.6" y1="181.0" y2="187.0" /><line stroke="#7a7a7a" stroke-width="0.8" x1="493.0" x2="493.0" y1="220.0" y2="184.0" /><line stroke="#7a7a7a" stroke-width="1.0" x1="493.0" x2="493.0" y1="181.0" y2="187.0" /><line stroke="#7a7a7a" stroke-width="0.8" x1="711.4" x2="711.4" y1="220.0" y2="184.0" /><line stroke="#7a7a7a" stroke-width="1.0" x1="711.4" x2="711.4" y1="181.0" y2="187.0" /><line stroke="#7a7a7a" stroke-width="0.8" x1="1093.6" x2="1093.6" y1="220.0" y2="184.0" /><line stroke="#7a7a7a" stroke-width="1.0" x1="1093.6" x2="1093.6" y1="181.0" y2="187.0" /><line stroke="#7a7a7a" stroke-width="0.8" x1="1202.8" x2="1202.8" y1="220.0" y2="184.0" /><line stroke="#7a7a7a" stroke-width="1.0" x1="1202.8" x2="1202.8" y1="181.0" y2="187.0" /><line stroke="#7a7a7a" stroke-width="0.8" x1="1312.0" x2="1312.0" y1="220.0" y2="184.0" /><line stroke="#7a7a7a" stroke-width="1.0" x1="1312.0" x2="1312.0" y1="181.0" y2="187.0" /><text fill="#7a7a7a" font-size="7.8" text-anchor="middle" x="383.79999999999995" y="181.0">1820</text><text fill="#7a7a7a" font-size="7.8" text-anchor="middle" x="602.2" y="181.0">1820</text><text fill="#7a7a7a" font-size="7.8" text-anchor="middle" x="902.5" y="181.0">3185</text><text fill="#7a7a7a" font-size="7.8" text-anchor="middle" x="1148.1999999999998" y="181.0">910</text><text fill="#7a7a7a" font-size="7.8" text-anchor="middle" x="1257.3999999999999" y="181.0">910</text><line stroke="#545454" stroke-width="1.0" x1="220.0" x2="1312.0" y1="947.2" y2="947.2" /><line stroke="#545454" stroke-width="0.8" x1="220.0" x2="220.0" y1="875.2" y2="947.2" /><line stroke="#545454" stroke-width="1.0" x1="220.0" x2="220.0" y1="944.2" y2="950.2" /><line stroke="#545454" stroke-width="0.8" x1="1312.0" x2="1312.0" y1="875.2" y2="947.2" /><line stroke="#545454" stroke-width="1.0" x1="1312.0" x2="1312.0" y1="944.2" y2="950.2" /><text fill="#545454" font-size="8.8" text-anchor="middle" x="766.0" y="957.1999999999999">9100mm</text><line stroke="#666666" stroke-width="1.0" x1="220.0" x2="1312.0" y1="929.2" y2="929.2" /><line stroke="#666666" stroke-width="0.8" x1="220.0" x2="220.0" y1="875.2" y2="929.2" /><line stroke="#666666" stroke-width="1.0" x1="220.0" x2="220.0" y1="926.2" y2="932.2" /><line stroke="#666666" stroke-width="0.8" x1="766.0" x2="766.0" y1="875.2" y2="929.2" /><line stroke="#666666" stroke-width="1.0" x1="766.0" x2="766.0" y1="926.2" y2="932.2" /><line stroke="#666666" stroke-width="0.8" x1="1093.6" x2="1093.6" y1="875.2" y2="929.2" /><line stroke="#666666" stroke-width="1.0" x1="1093.6" x2="1093.6" y1="926.2" y2="932.2" /><line stroke="#666666" stroke-width="0.8" x1="1312.0" x2="1312.0" y1="875.2" y2="929.2" /><line stroke="#666666" stroke-width="1.0" x1="1312.0" x2="1312.0" y1="926.2" y2="932.2" /><text fill="#666666" font-size="8.2" text-anchor="middle" x="493.0" y="939.1999999999999">4550</text><text fill="#666666" font-size="8.2" text-anchor="middle" x="929.8" y="939.1999999999999">2730</text><text fill="#666666" font-size="8.2" text-anchor="middle" x="1202.8" y="939.1999999999999">1820</text><line stroke="#7a7a7a" stroke-width="1.0" x1="220.0" x2="1312.0" y1="911.2" y2="911.2" /><line stroke="#7a7a7a" stroke-width="0.8" x1="220.0" x2="220.0" y1="875.2" y2="911.2" /><line stroke="#7a7a7a" stroke-width="1.0" x1="220.0" x2="220.0" y1="908.2" y2="914.2" /><line stroke="#7a7a7a" stroke-width="0.8" x1="274.6" x2="274.6" y1="875.2" y2="911.2" /><line stroke="#7a7a7a" stroke-width="1.0" x1="274.6" x2="274.6" y1="908.2" y2="914.2" /><line stroke="#7a7a7a" stroke-width="0.8" x1="493.0" x2="493.0" y1="875.2" y2="911.2" /><line stroke="#7a7a7a" stroke-width="1.0" x1="493.0" x2="493.0" y1="908.2" y2="914.2" /><line stroke="#7a7a7a" stroke-width="0.8" x1="711.4" x2="711.4" y1="875.2" y2="911.2" /><line stroke="#7a7a7a" stroke-width="1.0" x1="711.4" x2="711.4" y1="908.2" y2="914.2" /><line stroke="#7a7a7a" stroke-width="0.8" x1="1312.0" x2="1312.0" y1="875.2" y2="911.2" /><line stroke="#7a7a7a" stroke-width="1.0" x1="1312.0" x2="1312.0" y1="908.2" y2="914.2" /><text fill="#7a7a7a" font-size="7.8" text-anchor="middle" x="383.79999999999995" y="921.1999999999999">1820</text><text fill="#7a7a7a" font-size="7.8" text-anchor="middle" x="602.2" y="921.1999999999999">1820</text><text fill="#7a7a7a" font-size="7.8" text-anchor="middle" x="1011.6999999999999" y="921.1999999999999">5005</text><line stroke="#545454" stroke-width="1.0" x1="148.0" x2="148.0" y1="220.0" y2="875.2" /><line stroke="#545454" stroke-width="0.8" x1="220.0" x2="148.0" y1="220.0" y2="220.0" /><line stroke="#545454" stroke-width="1.0" x1="145.0" x2="151.0" y1="220.0" y2="220.0" /><line stroke="#545454" stroke-width="0.8" x1="220.0" x2="148.0" y1="875.2" y2="875.2" /><line stroke="#545454" stroke-width="1.0" x1="145.0" x2="151.0" y1="875.2" y2="875.2" /><text fill="#545454" font-size="8.8" x="144.0" y="547.5999999999999">5460mm</text><line stroke="#666666" stroke-width="1.0" x1="166.0" x2="166.0" y1="220.0" y2="875.2" /><line stroke="#666666" stroke-width="0.8" x1="220.0" x2="166.0" y1="220.0" y2="220.0" /><line stroke="#666666" stroke-width="1.0" x1="163.0" x2="169.0" y1="220.0" y2="220.0" /><line stroke="#666666" stroke-width="0.8" x1="220.0" x2="166.0" y1="602.2" y2="602.2" /><line stroke="#666666" stroke-width="1.0" x1="163.0" x2="169.0" y1="602.2" y2="602.2" /><line stroke="#666666" stroke-width="0.8" x1="220.0" x2="166.0" y1="875.2" y2="875.2" /><line stroke="#666666" stroke-width="1.0" x1="163.0" x2="169.0" y1="875.2" y2="875.2" /><text fill="#666666" font-size="8.2" x="162.0" y="411.1">3185</text><text fill="#666666" font-size="8.2" x="162.0" y="738.6999999999999">2275</text><line stroke="#7a7a7a" stroke-width="1.0" x1="184.0" x2="184.0" y1="220.0" y2="875.2" /><line stroke="#7a7a7a" stroke-width="0.8" x1="220.0" x2="184.0" y1="220.0" y2="220.0" /><line stroke="#7a7a7a" stroke-width="1.0" x1="181.0" x2="187.0" y1="220.0" y2="220.0" /><line stroke="#7a7a7a" stroke-width="0.8" x1="220.0" x2="184.0" y1="329.2" y2="329.2" /><line stroke="#7a7a7a" stroke-width="1.0" x1="181.0" x2="187.0" y1="329.2" y2="329.2" /><line stroke="#7a7a7a" stroke-width="0.8" x1="220.0" x2="184.0" y1="493.0" y2="493.0" /><line stroke="#7a7a7a" stroke-width="1.0" x1="181.0" x2="187.0" y1="493.0" y2="493.0" /><line stroke="#7a7a7a" stroke-width="0.8" x1="220.0" x2="184.0" y1="711.4" y2="711.4" /><line stroke="#7a7a7a" stroke-width="1.0" x1="181.0" x2="187.0" y1="711.4" y2="711.4" /><line stroke="#7a7a7a" stroke-width="0.8" x1="220.0" x2="184.0" y1="820.6" y2="820.6" /><line stroke="#7a7a7a" stroke-width="1.0" x1="181.0" x2="187.0" y1="820.6" y2="820.6" /><line stroke="#7a7a7a" stroke-width="0.8" x1="220.0" x2="184.0" y1="875.2" y2="875.2" /><line stroke="#7a7a7a" stroke-width="1.0" x1="181.0" x2="187.0" y1="875.2" y2="875.2" /><text fill="#7a7a7a" font-size="7.8" x="180.0" y="274.6">910</text><text fill="#7a7a7a" font-size="7.8" x="180.0" y="411.1">1365</text><text fill="#7a7a7a" font-size="7.8" x="180.0" y="602.2">1820</text><text fill="#7a7a7a" font-size="7.8" x="180.0" y="766.0">910</text><line stroke="#545454" stroke-width="1.0" x1="1384.0" x2="1384.0" y1="220.0" y2="875.2" /><line stroke="#545454" stroke-width="0.8" x1="1312.0" x2="1384.0" y1="220.0" y2="220.0" /><line stroke="#545454" stroke-width="1.0" x1="1381.0" x2="1387.0" y1="220.0" y2="220.0" /><line stroke="#545454" stroke-width="0.8" x1="1312.0" x2="1384.0" y1="875.2" y2="875.2" /><line stroke="#545454" stroke-width="1.0" x1="1381.0" x2="1387.0" y1="875.2" y2="875.2" /><text fill="#545454" font-size="8.8" x="1389.0" y="547.5999999999999">5460mm</text><line stroke="#666666" stroke-width="1.0" x1="1366.0" x2="1366.0" y1="220.0" y2="875.2" /><line stroke="#666666" stroke-width="0.8" x1="1312.0" x2="1366.0" y1="220.0" y2="220.0" /><line stroke="#666666" stroke-width="1.0" x1="1363.0" x2="1369.0" y1="220.0" y2="220.0" /><line stroke="#666666" stroke-width="0.8" x1="1312.0" x2="1366.0" y1="656.8" y2="656.8" /><line stroke="#666666" stroke-width="1.0" x1="1363.0" x2="1369.0" y1="656.8" y2="656.8" /><line stroke="#666666" stroke-width="0.8" x1="1312.0" x2="1366.0" y1="875.2" y2="875.2" /><line stroke="#666666" stroke-width="1.0" x1="1363.0" x2="1369.0" y1="875.2" y2="875.2" /><text fill="#666666" font-size="8.2" x="1371.0" y="438.4">3640</text><text fill="#666666" font-size="8.2" x="1371.0" y="766.0">1820</text><line stroke="#7a7a7a" stroke-width="1.0" x1="1348.0" x2="1348.0" y1="220.0" y2="875.2" /><line stroke="#7a7a7a" stroke-width="0.8" x1="1312.0" x2="1348.0" y1="220.0" y2="220.0" /><line stroke="#7a7a7a" stroke-width="1.0" x1="1345.0" x2="1351.0" y1="220.0" y2="220.0" /><line stroke="#7a7a7a" stroke-width="0.8" x1="1312.0" x2="1348.0" y1="274.6" y2="274.6" /><line stroke="#7a7a7a" stroke-width="1.0" x1="1345.0" x2="1351.0" y1="274.6" y2="274.6" /><line stroke="#7a7a7a" stroke-width="0.8" x1="1312.0" x2="1348.0" y1="438.4" y2="438.4" /><line stroke="#7a7a7a" stroke-width="1.0" x1="1345.0" x2="1351.0" y1="438.4" y2="438.4" /><line stroke="#7a7a7a" stroke-width="0.8" x1="1312.0" x2="1348.0" y1="602.2" y2="602.2" /><line stroke="#7a7a7a" stroke-width="1.0" x1="1345.0" x2="1351.0" y1="602.2" y2="602.2" /><line stroke="#7a7a7a" stroke-width="0.8" x1="1312.0" x2="1348.0" y1="875.2" y2="875.2" /><line stroke="#7a7a7a" stroke-width="1.0" x1="1345.0" x2="1351.0" y1="875.2" y2="875.2" /><text fill="#7a7a7a" font-size="7.8" x="1353.0" y="356.5">1365</text><text fill="#7a7a7a" font-size="7.8" x="1353.0" y="520.3">1365</text><text fill="#7a7a7a" font-size="7.8" x="1353.0" y="738.6999999999999">2275</text></svg>