<?xml version="1.0" encoding="utf-8" ?>
<svg baseProfile="tiny" height="1095.1999999999998px" version="1.2" width="1532.0px" xmlns="http://www.w3.org/2000/svg" xmlns:ev="http://www.w3.org/2001/xml-events" xmlns:xlink="http://www.w3.org/1999/xlink"><defs /><rect fill="#fafafa" height="1095.2" width="1532.0" x="0" y="0" /><line stroke="#ececec" stroke-width="0.7" x1="220.0" x2="220.0" y1="220.0" y2="875.2" /><line stroke="#ececec" stroke-width="0.7" x1="274.6" x2="274.6" y1="220.0" y2="875.2" /><line stroke="#ececec" stroke-width="0.7" x1="329.2" x2="329.2" y1="220.0" y2="875.2" /><line stroke="#ececec" stroke-width="0.7" x1="383.8" x2="383.8" y1="220.0" y2="875.2" /><line stroke="#ececec" stroke-width="0.7" x1="438.4" x2="438.4" y1="220.0" y2="875.2" /><line stroke="#ececec" stroke-width="0.7" x1="493.0" x2="493.0" y1="220.0" y2="875.2" /><line stroke="#ececec" stroke-width="0.7" x1="547.6" x2="547.6" y1="220.0" y2="875.2" /><line stroke="#ececec" stroke-width="0.7" x1="602.2" x2="602.2" y1="220.0" y2="875.2" /><line stroke="#ececec" stroke-width="0.7" x1="656.8" x2="656.8" y1="220.0" y2="875.2" /><line stroke="#ececec" stroke-width="0.7" x1="711.4" x2="711.4" y1="220.0" y2="875.2" /><line stroke="#ececec" stroke-width="0.7" x1="766.0" x2="766.0" y1="220.0" y2="875.2" /><line stroke="#ececec" stroke-width="0.7" x1="820.6" x2="820.6" y1="220.0" y2="875.2" /><line stroke="#ececec" stroke-width="0.7" x1="875.2" x2="875.2" y1="220.0" y2="875.2" /><line stroke="#ececec" stroke-width="0.7" x1="929.8" x2="929.8" y1="220.0" y2="875.2" /><line stroke="#ececec" stroke-width="0.7" x1="984.4" x2="984.4" y1="220.0" y2="875.2" /><line stroke="#ececec" stroke-width="0.7" x1="1039.0" x2="1039.0" y1="220.0" y2="875.2" /><line stroke="#ececec" stroke-width="0.7" x1="1093.6" x2="1093.6" y1="220.0" y2="875.2" /><line stroke="#ececec" stroke-width="0.7" x1="1148.2" x2="1148.2" y1="220.0" y2="875.2" /><line stroke="#ececec" stroke-width="0.7" x1="1202.8" x2="1202.8" y1="220.0" y2="875.2" /><line stroke="#ececec" stroke-width="0.7" x1="1257.4" x2="1257.4" y1="220.0" y2="875.2" /><line stroke="#ececec" stroke-width="0.7" x1="1312.0" x2="1312.0" y1="220.0" y2="875.2" /><line stroke="#d1d1d1" stroke-width="1.1" x1="220.0" x2="220.0" y1="220.0" y2="875.2" /><line stroke="#d1d1d1" stroke-width="1.1" x1="329.2" x2="329.2" y1="220.0" y2="875.2" /><line stroke="#d1d1d1" stroke-width="1.1" x1="438.4" x2="438.4" y1="220.0" y2="875.2" /><line stroke="#d1d1d1" stroke-width="1.1" x1="547.6" x2="547.6" y1="220.0" y2="875.2" /><line stroke="#d1d1d1" stroke-width="1.1" x1="656.8" x2="656.8" y1="220.0" y2="875.2" /><line stroke="#d1d1d1" stroke-width="1.1" x1="766.0" x2="766.0" y1="220.0" y2="875.2" /><line stroke="#d1d1d1" stroke-width="1.1" x1="875.2" x2="875.2" y1="220.0" y2="875.2" /><line stroke="#d1d1d1" stroke-width="1.1" x1="984.4" x2="984.4" y1="220.0" y2="875.2" /><line stroke="#d1d1d1" stroke-width="1.1" x1="1093.6" x2="1093.6" y1="220.0" y2="875.2" /><line stroke="#d1d1d1" stroke-width="1.1" x1="1202.8" x2="1202.8" y1="220.0" y2="875.2" /><line stroke="#d1d1d1" stroke-width="1.1" x1="1312.0" x2="1312.0" y1="220.0" y2="875.2" /><line stroke="#d1d1d1" stroke-width="1.1" x1="220.0" x2="1312.0" y1="220.0" y2="220.0" /><line stroke="#d1d1d1" stroke-width="1.1" x1="220.0" x2="1312.0" y1="329.2" y2="329.2" /><line stroke="#d1d1d1" stroke-width="1.1" x1="220.0" x2="1312.0" y1="438.4" y2="438.4" /><line stroke="#d1d1d1" stroke-width="1.1" x1="220.0" x2="1312.0" y1="547.6" y2="547.6" /><line stroke="#d1d1d1" stroke-width="1.1" x1="220.0" x2="1312.0" y1="656.8" y2="656.8" /><line stroke="#d1d1d1" stroke-width="1.1" x1="220.0" x2="1312.0" y1="766.0" y2="766.0" /><line stroke="#d1d1d1" stroke-width="1.1" x1="220.0" x2="1312.0" y1="875.2" y2="875.2" /><line stroke="#ececec" stroke-width="0.7" x1="220.0" x2="1312.0" y1="220.0" y2="220.0" /><line stroke="#ececec" stroke-width="0.7" x1="220.0" x2="1312.0" y1="274.6" y2="274.6" /><line stroke="#ececec" stroke-width="0.7" x1="220.0" x2="1312.0" y1="329.2" y2="329.2" /><line stroke="#ececec" stroke-width="0.7" x1="220.0" x2="1312.0" y1="383.8" y2="383.8" /><line stroke="#ececec" stroke-width="0.7" x1="220.0" x2="1312.0" y1="438.4" y2="438.4" /><line stroke="#ececec" stroke-width="0.7" x1="220.0" x2="1312.0" y1="493.0" y2="493.0" /><line stroke="#ececec" stroke-width="0.7" x1="220.0" x2="1312.0" y1="547.6" y2="547.6" /><line stroke="#ececec" stroke-width="0.7" x1="220.0" x2="1312.0" y1="602.2" y2="602.2" /><line stroke="#ececec" stroke-width="0.7" x1="220.0" x2="1312.0" y1="656.8" y2="656.8" /><line stroke="#ececec" stroke-width="0.7" x1="220.0" x2="1312.0" y1="711.4" y2="711.4" /><line stroke="#ececec" stroke-width="0.7" x1="220.0" x2="1312.0" y1="766.0" y2="766.0" /><line stroke="#ececec" stroke-width="0.7" x1="220.0" x2="1312.0" y1="820.6" y2="820.6" /><line stroke="#ececec" stroke-width="0.7" x1="220.0" x2="1312.0" y1="875.2" y2="875.2" /><rect fill="none" height="655.2" stroke="#6a6a6a" stroke-dasharray="8,4" stroke-width="2" width="1092.0" x="220.0" y="220.0" /><rect fill="none" height="655.2" stroke="#1f1f1f" stroke-width="3.5" width="1092.0" x="220.0" y="220.0" /><text fill="#555555" font-size="10" x="222.0" y="160.0">Site Envelope = Building Footprint</text><rect fill="#d9f2ff" height="655.2" stroke="none" width="327.6" x="220.0" y="220.0" /><line stroke="#2f2f2f" stroke-width="2.2" x1="220.0" x2="547.6" y1="875.2" y2="875.2" /><line stroke="#2f2f2f" stroke-width="2.2" x1="220.0" x2="547.6" y1="220.0" y2="220.0" /><line stroke="#2f2f2f" stroke-width="2.2" x1="220.0" x2="220.0" y1="220.0" y2="875.2" /><line stroke="#2f2f2f" stroke-width="2.2" x1="547.6" x2="547.6" y1="220.0" y2="875.2" /><rect fill="#d9f2ff" height="382.2" stroke="none" width="436.8" x="875.2" y="220.0" /><line stroke="#2f2f2f" stroke-width="2.2" x1="875.2" x2="1312.0" y1="602.2" y2="602.2" /><line stroke="#2f2f2f" stroke-width="2.2" x1="875.2" x2="1312.0" y1="220.0" y2="220.0" /><line stroke="#2f2f2f" stroke-width="2.2" x1="875.2" x2="875.2" y1="220.0" y2="602.2" /><line stroke="#2f2f2f" stroke-width="2.2" x1="1312.0" x2="1312.0" y1="220.0" y2="602.2" /><rect fill="#efe9ff" height="273.0" stroke="none" width="109.2" x="547.6" y="602.2" /><rect fill="#efe9ff" height="109.2" stroke="none" width="327.6" x="547.6" y="493.0" /><rect fill="#efe9ff" height="273.0" stroke="none" width="109.2" x="766.0" y="220.0" /><line stroke="#2f2f2f" stroke-width="2.2" x1="547.6" x2="766.0" y1="493.0" y2="493.0" /><line stroke="#2f2f2f" stroke-width="2.2" x1="656.8" x2="875.2" y1="602.2" y2="602.2" /><line stroke="#2f2f2f" stroke-width="2.2" x1="547.6" x2="656.8" y1="875.2" y2="875.2" /><line stroke="#2f2f2f" stroke-width="2.2" x1="766.0" x2="875.2" y1="220.0" y2="220.0" /><line stroke="#2f2f2f" stroke-width="2.2" x1="766.0" x2="766.0" y1="220.0" y2="493.0" /><line stroke="#2f2f2f" stroke-width="2.2" x1="547.6" x2="547.6" y1="493.0" y2="875.2" /><line stroke="#2f2f2f" stroke-width="2.2" x1="875.2" x2="875.2" y1="220.0" y2="602.2" /><line stroke="#2f2f2f" stroke-width="2.2" x1="656.8" x2="656.8" y1="602.2" y2="875.2" /><rect fill="#c5e8ff" height="273.0" stroke="none" width="655.2" x="656.8" y="602.2" /><line stroke="#2f2f2f" stroke-width="2.2" x1="656.8" x2="1312.0" y1="875.2" y2="875.2" /><line stroke="#2f2f2f" stroke-width="2.2" x1="656.8" x2="1312.0" y1="602.2" y2="602.2" /><line stroke="#2f2f2f" stroke-width="2.2" x1="656.8" x2="656.8" y1="602.2" y2="875.2" /><line stroke="#2f2f2f" stroke-width="2.2" x1="1312.0" x2="1312.0" y1="602.2" y2="875.2" /><rect fill="#f7f3ea" fill-opacity="0.35" height="109.2" stroke="#9a9a9a" stroke-dasharray="4,3" stroke-width="0.9" width="218.4" x="656.8" y="602.2" /><line stroke="#9c9c9c" stroke-opacity="0.7" stroke-width="0.8" x1="656.8" x2="676.0" y1="692.2" y2="711.4" /><line stroke="#9c9c9c" stroke-opacity="0.7" stroke-width="0.8" x1="656.8" x2="695.2" y1="673.0" y2="711.4" /><line stroke="#9c9c9c" stroke-opacity="0.7" stroke-width="0.8" x1="656.8" x2="714.4" y1="653.8" y2="711.4" /><line stroke="#9c9c9c" stroke-opacity="0.7" stroke-width="0.8" x1="656.8" x2="733.6" y1="634.6" y2="711.4" /><line stroke="#9c9c9c" stroke-opacity="0.7" stroke-width="0.8" x1="656.8" x2="752.8" y1="615.4" y2="711.4" /><line stroke="#9c9c9c" stroke-opacity="0.7" stroke-width="0.8" x1="662.8" x2="772.0" y1="602.2" y2="711.4" /><line stroke="#9c9c9c" stroke-opacity="0.7" stroke-width="0.8" x1="682.0" x2="791.2" y1="602.2" y2="711.4" /><line stroke="#9c9c9c" stroke-opacity="0.7" stroke-width="0.8" x1="701.2" x2="810.4" y1="602.2" y2="711.4" /><line stroke="#9c9c9c" stroke-opacity="0.7" stroke-width="0.8" x1="720.4" x2="829.6" y1="602.2" y2="711.4" /><line stroke="#9c9c9c" stroke-opacity="0.7" stroke-width="0.8" x1="739.6" x2="848.8" y1="602.2" y2="711.4" /><line stroke="#9c9c9c" stroke-opacity="0.7" stroke-width="0.8" x1="758.8" x2="868.0" y1="602.2" y2="711.4" /><line stroke="#9c9c9c" stroke-opacity="0.7" stroke-width="0.8" x1="778.0" x2="875.2" y1="602.2" y2="699.4" /><line stroke="#9c9c9c" stroke-opacity="0.7" stroke-width="0.8" x1="797.2" x2="875.2" y1="602.2" y2="680.2" /><line stroke="#9c9c9c" stroke-opacity="0.7" stroke-width="0.8" x1="816.4" x2="875.2" y1="602.2" y2="661.0" /><line stroke="#9c9c9c" stroke-opacity="0.7" stroke-width="0.8" x1="835.6" x2="875.2" y1="602.2" y2="641.8" /><line stroke="#9c9c9c" stroke-opacity="0.7" stroke-width="0.8" x1="854.8" x2="875.2" y1="602.2" y2="622.6" /><line stroke="#9c9c9c" stroke-opacity="0.7" stroke-width="0.8" x1="874.0" x2="875.2" y1="602.2" y2="603.4" /><rect fill="#f7f3ea" fill-opacity="0.35" height="109.2" stroke="#9a9a9a" stroke-dasharray="4,3" stroke-width="0.9" width="218.4" x="220.0" y="220.0" /><line stroke="#9c9c9c" stroke-opacity="0.7" stroke-width="0.8" x1="220.0" x2="239.2" y1="310.0" y2="329.2" /><line stroke="#9c9c9c" stroke-opacity="0.7" stroke-width="0.8" x1="220.0" x2="258.4" y1="290.8" y2="329.2" /><line stroke="#9c9c9c" stroke-opacity="0.7" stroke-width="0.8" x1="220.0" x2="277.6" y1="271.6" y2="329.2" /><line stroke="#9c9c9c" stroke-opacity="0.7" stroke-width="0.8" x1="220.0" x2="296.8" y1="252.4" y2="329.2" /><line stroke="#9c9c9c" stroke-opacity="0.7" stroke-width="0.8" x1="220.0" x2="316.0" y1="233.2" y2="329.2" /><line stroke="#9c9c9c" stroke-opacity="0.7" stroke-width="0.8" x1="226.0" x2="335.2" y1="220.0" y2="329.2" /><line stroke="#9c9c9c" stroke-opacity="0.7" stroke-width="0.8" x1="245.2" x2="354.4" y1="220.0" y2="329.2" /><line stroke="#9c9c9c" stroke-opacity="0.7" stroke-width="0.8" x1="264.4" x2="373.6" y1="220.0" y2="329.2" /><line stroke="#9c9c9c" stroke-opacity="0.7" stroke-width="0.8" x1="283.6" x2="392.8" y1="220.0" y2="329.2" /><line stroke="#9c9c9c" stroke-opacity="0.7" stroke-width="0.8" x1="302.8" x2="412.0" y1="220.0" y2="329.2" /><line stroke="#9c9c9c" stroke-opacity="0.7" stroke-width="0.8" x1="322.0" x2="431.2" y1="220.0" y2="329.2" /><line stroke="#9c9c9c" stroke-opacity="0.7" stroke-width="0.8" x1="341.2" x2="438.4" y1="220.0" y2="317.2" /><line stroke="#9c9c9c" stroke-opacity="0.7" stroke-width="0.8" x1="360.4" x2="438.4" y1="220.0" y2="298.0" /><line stroke="#9c9c9c" stroke-opacity="0.7" stroke-width="0.8" x1="379.6" x2="438.4" y1="220.0" y2="278.8" /><line stroke="#9c9c9c" stroke-opacity="0.7" stroke-width="0.8" x1="398.8" x2="438.4" y1="220.0" y2="259.6" /><line stroke="#9c9c9c" stroke-opacity="0.7" stroke-width="0.8" x1="418.0" x2="438.4" y1="220.0" y2="240.4" /><line stroke="#9c9c9c" stroke-opacity="0.7" stroke-width="0.8" x1="437.2" x2="438.4" y1="220.0" y2="221.2" /><rect fill="#f7f3ea" fill-opacity="0.35" height="109.2" stroke="#9a9a9a" stroke-dasharray="4,3" stroke-width="0.9" width="218.4" x="875.2" y="220.0" /><line stroke="#9c9c9c" stroke-opacity="0.7" stroke-width="0.8" x1="875.2" x2="894.4" y1="310.0" y2="329.2" /><line stroke="#9c9c9c" stroke-opacity="0.7" stroke-width="0.8" x1="875.2" x2="913.6" y1="290.8" y2="329.2" /><line stroke="#9c9c9c" stroke-opacity="0.7" stroke-width="0.8" x1="875.2" x2="932.8" y1="271.6" y2="329.2" /><line stroke="#9c9c9c" stroke-opacity="0.7" stroke-width="0.8" x1="875.2" x2="952.0" y1="252.4" y2="329.2" /><line stroke="#9c9c9c" stroke-opacity="0.7" stroke-width="0.8" x1="875.2" x2="971.2" y1="233.2" y2="329.2" /><line stroke="#9c9c9c" stroke-opacity="0.7" stroke-width="0.8" x1="881.2" x2="990.4" y1="220.0" y2="329.2" /><line stroke="#9c9c9c" stroke-opacity="0.7" stroke-width="0.8" x1="900.4" x2="1009.6" y1="220.0" y2="329.2" /><line stroke="#9c9c9c" stroke-opacity="0.7" stroke-width="0.8" x1="919.6" x2="1028.8" y1="220.0" y2="329.2" /><line stroke="#9c9c9c" stroke-opacity="0.7" stroke-width="0.8" x1="938.8" x2="1048.0" y1="220.0" y2="329.2" /><line stroke="#9c9c9c" stroke-opacity="0.7" stroke-width="0.8" x1="958.0" x2="1067.2" y1="220.0" y2="329.2" /><line stroke="#9c9c9c" stroke-opacity="0.7" stroke-width="0.8" x1="977.2" x2="1086.4" y1="220.0" y2="329.2" /><line stroke="#9c9c9c" stroke-opacity="0.7" stroke-width="0.8" x1="996.4" x2="1093.6" y1="220.0" y2="317.2" /><line stroke="#9c9c9c" stroke-opacity="0.7" stroke-width="0.8" x1="1015.6" x2="1093.6" y1="220.0" y2="298.0" /><line stroke="#9c9c9c" stroke-opacity="0.7" stroke-width="0.8" x1="1034.8" x2="1093.6" y1="220.0" y2="278.8" /><line stroke="#9c9c9c" stroke-opacity="0.7" stroke-width="0.8" x1="1054.0" x2="1093.6" y1="220.0" y2="259.6" /><line stroke="#9c9c9c" stroke-opacity="0.7" stroke-width="0.8" x1="1073.2" x2="1093.6" y1="220.0" y2="240.4" /><line stroke="#9c9c9c" stroke-opacity="0.7" stroke-width="0.8" x1="1092.4" x2="1093.6" y1="220.0" y2="221.2" /><rect fill="none" height="92.82" stroke="#7f7f7f" stroke-width="1.1" width="218.4" x="875.2" y="651.34" /><line stroke="#7f7f7f" stroke-width="0.9" x1="875.2" x2="1093.6" y1="683.827" y2="683.827" /><rect fill="none" height="163.8" stroke="#7f7f7f" stroke-width="1.1" width="183.456" x="292.072" y="337.936" /><line stroke="#7f7f7f" stroke-width="0.9" x1="292.072" x2="475.528" y1="395.266" y2="395.266" /><rect fill="none" height="129.948" stroke="#7f7f7f" stroke-width="1.1" width="218.4" x="984.4" y="288.796" /><line stroke="#7f7f7f" stroke-width="0.9" x1="984.4" x2="1202.8" y1="334.2778" y2="334.2778" /><rect fill="#f4f4f4" height="163.8" stroke="#202020" stroke-dasharray="4,3" stroke-width="2.6" width="109.2" x="547.6" y="329.2" /><line stroke="#b8b8b8" stroke-width="0.9" x1="553.0" x2="651.4" y1="338.8" y2="338.8" /><line stroke="#b8b8b8" stroke-width="0.9" x1="553.0" x2="651.4" y1="358.0" y2="358.0" /><line stroke="#b8b8b8" stroke-width="0.9" x1="553.0" x2="651.4" y1="377.2" y2="377.2" /><line stroke="#b8b8b8" stroke-width="0.9" x1="553.0" x2="651.4" y1="396.4" y2="396.4" /><line stroke="#b8b8b8" stroke-width="0.9" x1="553.0" x2="651.4" y1="415.6" y2="415.6" /><line stroke="#b8b8b8" stroke-width="0.9" x1="553.0" x2="651.4" y1="434.8" y2="434.8" /><line stroke="#b8b8b8" stroke-width="0.9" x1="553.0" x2="651.4" y1="454.0" y2="454.0" /><line stroke="#b8b8b8" stroke-width="0.9" x1="553.0" x2="651.4" y1="473.2" y2="473.2" /><line stroke="#b8b8b8" stroke-width="0.9" x1="553.0" x2="651.4" y1="492.4" y2="492.4" /><rect fill="#f4f4f4" height="109.2" stroke="#202020" stroke-dasharray="4,3" stroke-width="2.6" width="218.4" x="547.6" y="220.0" /><line stroke="#b8b8b8" stroke-width="0.9" x1="553.0" x2="760.6" y1="229.6" y2="229.6" /><line stroke="#b8b8b8" stroke-width="0.9" x1="553.0" x2="760.6" y1="248.8" y2="248.8" /><line stroke="#b8b8b8" stroke-width="0.9" x1="553.0" x2="760.6" y1="268.0" y2="268.0" /><line stroke="#b8b8b8" stroke-width="0.9" x1="553.0" x2="760.6" y1="287.2" y2="287.2" /><line stroke="#b8b8b8" stroke-width="0.9" x1="553.0" x2="760.6" y1="306.4" y2="306.4" /><line stroke="#b8b8b8" stroke-width="0.9" x1="553.0" x2="760.6" y1="325.6" y2="325.6" /><rect fill="#ffffff" height="163.8" stroke="#202020" stroke-dasharray="8,4" stroke-width="2.6" width="109.2" x="656.8" y="329.2" /><text fill="#555555" font-size="9" text-anchor="middle" x="656.8" y="356.5">Open To Below</text><rect fill="none" height="273.0" stroke="#7e7e7e" stroke-dasharray="3,2" stroke-width="2.0" width="218.4" x="547.6" y="220.0" /><text fill="#666666" font-size="8.5" text-anchor="middle" x="656.8" y="234.4">Guardrail</text><line stroke="#2a2a2a" stroke-width="1.4" x1="669.904" x2="752.896" y1="352.6" y2="352.6" /><line stroke="#2a2a2a" stroke-width="1.4" x1="669.904" x2="752.896" y1="376.0" y2="376.0" /><line stroke="#2a2a2a" stroke-width="1.4" x1="669.904" x2="752.896" y1="399.4" y2="399.4" /><line stroke="#2a2a2a" stroke-width="1.4" x1="669.904" x2="752.896" y1="422.8" y2="422.8" /><line stroke="#2a2a2a" stroke-width="1.4" x1="669.904" x2="752.896" y1="446.2" y2="446.2" /><line stroke="#2a2a2a" stroke-width="1.4" x1="669.904" x2="752.896" y1="469.6" y2="469.6" /><text fill="#202020" font-size="11" text-anchor="middle" x="711.4" y="411.1">Stair (DN)</text><text fill="#3a3a3a" font-size="9.0" text-anchor="middle" x="711.4" y="425.5">13R/12T</text><text fill="#4a4a4a" font-size="7.8" text-anchor="middle" x="711.4" y="433.9">H2730 R210 T228</text><line stroke="#ffffff" stroke-width="7" x1="766.0" x2="766.0" y1="329.2" y2="493.0" /><line stroke="#5e5e5e" stroke-width="1.0" x1="766.0" x2="766.0" y1="329.2" y2="493.0" /><line stroke="#ffffff" stroke-width="6" x1="656.8" x2="656.8" y1="679.9" y2="797.5" /><line stroke="#595959" stroke-width="1.2" x1="656.8" x2="733.24" y1="679.9" y2="756.34" /><path d="M 656.8,756.34 A 76.44,76.44 0 0 1 733.24,756.34" fill="none" stroke="#7a7a7a" stroke-width="1.0" /><line stroke="#ffffff" stroke-width="6" x1="547.6" x2="547.6" y1="679.9" y2="797.5" /><line stroke="#595959" stroke-width="1.2" x1="547.6" x2="471.16" y1="679.9" y2="756.34" /><path d="M 547.5999999999999,756.34 A 76.44,76.44 0 0 1 471.15999999999997,756.34" fill="none" stroke="#7a7a7a" stroke-width="1.0" /><line stroke="#ffffff" stroke-width="6" x1="875.2" x2="875.2" y1="297.7" y2="415.3" /><line stroke="#595959" stroke-width="1.2" x1="875.2" x2="951.64" y1="297.7" y2="374.14" /><path d="M 875.1999999999999,374.14 A 76.44,76.44 0 0 1 951.64,374.14" fill="none" stroke="#7a7a7a" stroke-width="1.0" /><line stroke="#66a7ff" stroke-width="2.2" x1="1309.36" x2="1309.36" y1="684.1" y2="793.3" /><line stroke="#66a7ff" stroke-width="2.2" x1="1314.64" x2="1314.64" y1="684.1" y2="793.3" /><line stroke="#66a7ff" stroke-width="2.2" x1="744.256" x2="936.256" y1="872.56" y2="872.56" /><line stroke="#66a7ff" stroke-width="2.2" x1="744.256" x2="936.256" y1="877.84" y2="877.84" /><line stroke="#66a7ff" stroke-width="2.2" x1="1032.544" x2="1224.544" y1="872.56" y2="872.56" /><line stroke="#66a7ff" stroke-width="2.2" x1="1032.544" x2="1224.544" y1="877.84" y2="877.84" /><line stroke="#66a7ff" stroke-width="2.2" x1="217.36" x2="217.36" y1="307.456" y2="499.456" /><line stroke="#66a7ff" stroke-width="2.2" x1="222.64" x2="222.64" y1="307.456" y2="499.456" /><line stroke="#66a7ff" stroke-width="2.2" x1="217.36" x2="217.36" y1="595.744" y2="787.744" /><line stroke="#66a7ff" stroke-width="2.2" x1="222.64" x2="222.64" y1="595.744" y2="787.744" /><line stroke="#66a7ff" stroke-width="2.2" x1="328.12" x2="439.48" y1="217.36" y2="217.36" /><line stroke="#66a7ff" stroke-width="2.2" x1="328.12" x2="439.48" y1="222.64" y2="222.64" /><line stroke="#66a7ff" stroke-width="2.2" x1="328.12" x2="439.48" y1="872.56" y2="872.56" /><line stroke="#66a7ff" stroke-width="2.2" x1="328.12" x2="439.48" y1="877.84" y2="877.84" /><line stroke="#66a7ff" stroke-width="2.2" x1="1309.36" x2="1309.36" y1="346.18" y2="476.02" /><line stroke="#66a7ff" stroke-width="2.2" x1="1314.64" x2="1314.64" y1="346.18" y2="476.02" /><line stroke="#66a7ff" stroke-width="2.2" x1="923.284" x2="1071.724" y1="217.36" y2="217.36" /><line stroke="#66a7ff" stroke-width="2.2" x1="923.284" x2="1071.724" y1="222.64" y2="222.64" /><line stroke="#66a7ff" stroke-width="2.2" x1="1115.476" x2="1263.916" y1="217.36" y2="217.36" /><line stroke="#66a7ff" stroke-width="2.2" x1="1115.476" x2="1263.916" y1="222.64" y2="222.64" /><line stroke="#9a9a9a" stroke-width="0.8" x1="556.0" x2="648.4" y1="610.6" y2="610.6" /><line stroke="#9a9a9a" stroke-width="0.8" x1="556.0" x2="556.0" y1="607.24" y2="613.96" /><line stroke="#9a9a9a" stroke-width="0.8" x1="648.4" x2="648.4" y1="607.24" y2="613.96" /><text fill="#8a8a8a" font-size="7.6" text-anchor="start" x="562.72" y="607.96">910mm</text><line stroke="#9a9a9a" stroke-width="0.8" x1="556.0" x2="556.0" y1="610.6" y2="866.8" /><line stroke="#9a9a9a" stroke-width="0.8" x1="552.64" x2="559.36" y1="610.6" y2="610.6" /><line stroke="#9a9a9a" stroke-width="0.8" x1="552.64" x2="559.36" y1="866.8" y2="866.8" /><text fill="#8a8a8a" font-size="7.6" text-anchor="start" x="560.0799999999999" y="618.28">2275mm</text><line stroke="#9a9a9a" stroke-width="0.8" x1="774.4" x2="866.8" y1="228.4" y2="228.4" /><line stroke="#9a9a9a" stroke-width="0.8" x1="774.4" x2="774.4" y1="225.04" y2="231.76" /><line stroke="#9a9a9a" stroke-width="0.8" x1="866.8" x2="866.8" y1="225.04" y2="231.76" /><text fill="#8a8a8a" font-size="7.6" text-anchor="start" x="781.12" y="225.76">910mm</text><line stroke="#9a9a9a" stroke-width="0.8" x1="774.4" x2="774.4" y1="228.4" y2="484.6" /><line stroke="#9a9a9a" stroke-width="0.8" x1="771.04" x2="777.76" y1="228.4" y2="228.4" /><line stroke="#9a9a9a" stroke-width="0.8" x1="771.04" x2="777.76" y1="484.6" y2="484.6" /><text fill="#8a8a8a" font-size="7.6" text-anchor="start" x="778.48" y="236.07999999999998">2275mm</text><text fill="#1b1b1b" font-size="10" text-anchor="middle" x="383.79999999999995" y="533.2">Bedroom 2</text><text fill="#1b1b1b" font-size="10" text-anchor="middle" x="383.79999999999995" y="544.0">2730x5460mm</text><text fill="#1b1b1b" font-size="10" text-anchor="middle" x="383.79999999999995" y="554.8">14.9sqm / 9.2jo</text><text fill="#1b1b1b" font-size="10" text-anchor="middle" x="1093.6" y="396.7">Bedroom 3</text><text fill="#1b1b1b" font-size="10" text-anchor="middle" x="1093.6" y="407.5">3640x3185mm</text><text fill="#1b1b1b" font-size="10" text-anchor="middle" x="1093.6" y="418.29999999999995">11.6sqm / 7.2jo</text><text fill="#1b1b1b" font-size="9" text-anchor="middle" x="711.4" y="533.2">Hall 2</text><text fill="#1b1b1b" font-size="9" text-anchor="middle" x="711.4" y="544.0">6.6sqm / 4.1jo</text><text fill="#1b1b1b" font-size="10" text-anchor="middle" x="984.4" y="724.3">Master</text><text fill="#1b1b1b" font-size="10" text-anchor="middle" x="984.4" y="735.1">5460x2275mm</text><text fill="#1b1b1b" font-size="10" text-anchor="middle" x="984.4" y="745.9">12.4sqm / 7.7jo</text><text fill="#4a4a4a" font-size="10" text-anchor="middle" x="766.0" y="656.8">CL</text><text fill="#4a4a4a" font-size="10" text-anchor="middle" x="329.2" y="274.6">CL</text><text fill="#4a4a4a" font-size="10" text-anchor="middle" x="984.4" y="274.6">CL</text><text fill="#111111" font-size="14" x="220.0" y="180.0">F2 Plan  (9100 x 5460 mm)</text><text fill="#444444" font-size="10" x="220.0" y="198.0">Scale: 1px=8.3mm</text><rect fill="#ffffff" height="126" stroke="#777777" stroke-width="1" width="170" x="1400.0" y="150.0" /><text fill="#111111" font-size="11" x="1408.0" y="164.0">Legend</text><rect fill="#efe9ff" height="12" stroke="#333333" stroke-width="1" width="12" x="1408.0" y="174.0" /><text fill="#222222" font-size="10" x="1426.0" y="184.0">Hall</text><rect fill="#c5e8ff" height="12" stroke="#333333" stroke-width="1" width="12" x="1408.0" y="192.0" /><text fill="#222222" font-size="10" x="1426.0" y="202.0">Master Bedroom</text><rect fill="#d9f2ff" height="12" stroke="#333333" stroke-width="1" width="12" x="1408.0" y="210.0" /><text fill="#222222" font-size="10" x="1426.0" y="220.0">Bedroom</text><rect fill="#f7f3ea" height="12" stroke="#333333" stroke-width="1" width="12" x="1408.0" y="228.0" /><text fill="#222222" font-size="10" x="1426.0" y="238.0">Closet</text><line stroke="#6aa4ff" stroke-width="4" x1="1408.0" x2="1435.0" y1="258.0" y2="258.0" /><text fill="#222222" font-size="10" x="1442.0" y="261.0">Window</text><line stroke="#666666" stroke-width="2.4" x1="1408.0" x2="1435.0" y1="274.0" y2="274.0" /><path d="M 1408.0,274.0 A 10,10 0 0 1 1418.0,264.0" fill="none" stroke="#666666" stroke-width="1.2" /><text fill="#222222" font-size="10" x="1442.0" y="277.0">Door</text><rect fill="#ffffff" height="84" stroke="#777777" stroke-width="1" width="200" x="1400.0" y="520.0" /><text fill="#111111" font-size="10" x="1408.0" y="533.0">Area (F2)</text><text fill="#222222" font-size="9" x="1408.0" y="550.0">F1: in 49.7 sqm (15.0 tsubo), out 0.0 sqm (0.0 tsubo)</text><text fill="#222222" font-size="9" x="1408.0" y="566.0">F2: in 49.7 sqm (15.0 tsubo), out 0.0 sqm (0.0 tsubo)</text><text fill="#222222" font-size="9" x="1408.0" y="582.0">Total indoor: 99.4 sqm (30.1 tsubo)</text><text fill="#222222" font-size="9" x="1408.0" y="598.0">Total outdoor: 0.0 sqm (0.0 tsubo)</text><line stroke="#111111" stroke-width="2" x1="175.0" x2="175.0" y1="238.0" y2="208.0" /><polygon fill="#111111" points="175.0,208.0 181.0,214.0 169.0,214.0" /><text fill="#111111" font-size="12" x="170.0" y="202.0">N</text><line stroke="#545454" stroke-width="1.0" x1="220.0" x2="1312.0" y1="148.0" y2="148.0" /><line stroke="#545454" stroke-width="0.8" x1="220.0" x2="220.0" y1="220.0" y2="148.0" /><line stroke="#545454" stroke-width="1.0" x1="220.0" x2="220.0" y1="145.0" y2="151.0" /><line stroke="#545454" stroke-width="0.8" x1="1312.0" x2="1312.0" y1="220.0" y2="148.0" /><line stroke="#545454" stroke-width="1.0" x1="1312.0" x2="1312.0" y1="145.0" y2="151.0" /><text fill="#545454" font-size="8.8" text-anchor="middle" x="766.0" y="145.0">9100mm</text><line stroke="#666666" stroke-width="1.0" x1="220.0" x2="1312.0" y1="166.0" y2="166.0" /><line stroke="#666666" stroke-width="0.8" x1="220.0" x2="220.0" y1="220.0" y2="166.0" /><line stroke="#666666" stroke-width="1.0" x1="220.0" x2="220.0" y1="163.0" y2="169.0" /><line stroke="#666666" stroke-width="0.8" x1="547.6" x2="547.6" y1="220.0" y2="166.0" /><line stroke="#666666" stroke-width="1.0" x1="547.6" x2="547.6" y1="163.0" y2="169.0" /><line stroke="#666666" stroke-width="0.8" x1="766.0" x2="766.0" y1="220.0" y2="166.0" /><line stroke="#666666" stroke-width="1.0" x1="766.0" x2="766.0" y1="163.0" y2="169.0" /><line stroke="#666666" stroke-width="0.8" x1="875.2" x2="875.2" y1="220.0" y2="166.0" /><line stroke="#666666" stroke-width="1.0" x1="875.2" x2="875.2" y1="163.0" y2="169.0" /><line stroke="#666666" stroke-width="0.8" x1="1312.0" x2="1312.0" y1="220.0" y2="166.0" /><line stroke="#666666" stroke-width="1.0" x1="1312.0" x2="1312.0" y1="163.0" y2="169.0" /><text fill="#666666" font-size="8.2" text-anchor="middle" x="383.79999999999995" y="163.0">2730</text><text fill="#666666" font-size="8.2" text-anchor="middle" x="656.8" y="163.0">1820</text><text fill="#666666" font-size="8.2" text-anchor="middle" x="820.6" y="163.0">910</text><text fill="#666666" font-size="8.2" text-anchor="middle" x="1093.6" y="163.0">3640</text><line stroke="#7a7a7a" stroke-width="1.0" x1="220.0" x2="1312.0" y1="184.0" y2="184.0" /><line stroke="#7a7a7a" stroke-width="0.8" x1="220.0" x2="220.0" y1="220.0" y2="184.0" /><line stroke="#7a7a7a" stroke-width="1.0" x1="220.0" x2="220.0" y1="181.0" y2="187.0" /><line stroke="#7a7a7a" stroke-width="0.8" x1="329.2" x2="329.2" y1="220.0" y2="184.0" /><line stroke="#7a7a7a" stroke-width="1.0" x1="329.2" x2="329.2" y1="181.0" y2="187.0" /><line stroke="#7a7a7a" stroke-width="0.8" x1="438.4" x2="438.4" y1="220.0" y2="184.0" /><line stroke="#7a7a7a" stroke-width="1.0" x1="438.4" x2="438.4" y1="181.0" y2="187.0" /><line stroke="#7a7a7a" stroke-width="0.8" x1="929.8" x2="929.8" y1="220.0" y2="184.0" /><line stroke="#7a7a7a" stroke-width="1.0" x1="929.8" x2="929.8" y1="181.0" y2="187.0" /><line stroke="#7a7a7a" stroke-width="0.8" x1="1093.6" x2="1093.6" y1="220.0" y2="184.0" /><line stroke="#7a7a7a" stroke-width="1.0" x1="1093.6" x2="1093.6" y1="181.0" y2="187.0" /><line stroke="#7a7a7a" stroke-width="0.8" x1="1257.4" x2="1257.4" y1="220.0" y2="184.0" /><line stroke="#7a7a7a" stroke-width="1.0" x1="1257.4" x2="1257.4" y1="181.0" y2="187.0" /><line stroke="#7a7a7a" stroke-width="0.8" x1="1312.0" x2="1312.0" y1="220.0" y2="184.0" /><line stroke="#7a7a7a" stroke-width="1.0" x1="1312.0" x2="1312.0" y1="181.0" y2="187.0" /><text fill="#7a7a7a" font-size="7.8" text-anchor="middle" x="274.6" y="181.0">910</text><text fill="#7a7a7a" font-size="7.8" text-anchor="middle" x="383.79999999999995" y="181.0">910</text><text fill="#7a7a7a" font-size="7.8" text-anchor="middle" x="684.0999999999999" y="181.0">4095</text><text fill="#7a7a7a" font-size="7.8" text-anchor="middle" x="1011.6999999999999" y="181.0">1365</text><text fill="#7a7a7a" font-size="7.8" text-anchor="middle" x="1175.5" y="181.0">1365</text><line stroke="#545454" stroke-width="1.0" x1="220.0" x2="1312.0" y1="947.2" y2="947.2" /><line stroke="#545454" stroke-width="0.8" x1="220.0" x2="220.0" y1="875.2" y2="947.2" /><line stroke="#545454" stroke-width="1.0" x1="220.0" x2="220.0" y1="944.2" y2="950.2" /><line stroke="#545454" stroke-width="0.8" x1="1312.0" x2="1312.0" y1="875.2" y2="947.2" /><line stroke="#545454" stroke-width="1.0" x1="1312.0" x2="1312.0" y1="944.2" y2="950.2" /><text fill="#545454" font-size="8.8" text-anchor="middle" x="766.0" y="957.1999999999999">9100mm</text><line stroke="#666666" stroke-width="1.0" x1="220.0" x2="1312.0" y1="929.2" y2="929.2" /><line stroke="#666666" stroke-width="0.8" x1="220.0" x2="220.0" y1="875.2" y2="929.2" /><line stroke="#666666" stroke-width="1.0" x1="220.0" x2="220.0" y1="926.2" y2="932.2" /><line stroke="#666666" stroke-width="0.8" x1="547.6" x2="547.6" y1="875.2" y2="929.2" /><line stroke="#666666" stroke-width="1.0" x1="547.6" x2="547.6" y1="926.2" y2="932.2" /><line stroke="#666666" stroke-width="0.8" x1="656.8" x2="656.8" y1="875.2" y2="929.2" /><line stroke="#666666" stroke-width="1.0" x1="656.8" x2="656.8" y1="926.2" y2="932.2" /><line stroke="#666666" stroke-width="0.8" x1="1312.0" x2="1312.0" y1="875.2" y2="929.2" /><line stroke="#666666" stroke-width="1.0" x1="1312.0" x2="1312.0" y1="926.2" y2="932.2" /><text fill="#666666" font-size="8.2" text-anchor="middle" x="383.79999999999995" y="939.1999999999999">2730</text><text fill="#666666" font-size="8.2" text-anchor="middle" x="602.2" y="939.1999999999999">910</text><text fill="#666666" font-size="8.2" text-anchor="middle" x="984.4" y="939.1999999999999">5460</text><line stroke="#7a7a7a" stroke-width="1.0" x1="220.0" x2="1312.0" y1="911.2" y2="911.2" /><line stroke="#7a7a7a" stroke-width="0.8" x1="220.0" x2="220.0" y1="875.2" y2="911.2" /><line stroke="#7a7a7a" stroke-width="1.0" x1="220.0" x2="220.0" y1="908.2" y2="914.2" /><line stroke="#7a7a7a" stroke-width="0.8" x1="329.2" x2="329.2" y1="875.2" y2="911.2" /><line stroke="#7a7a7a" stroke-width="1.0" x1="329.2" x2="329.2" y1="908.2" y2="914.2" /><line stroke="#7a7a7a" stroke-width="0.8" x1="438.4" x2="438.4" y1="875.2" y2="911.2" /><line stroke="#7a7a7a" stroke-width="1.0" x1="438.4" x2="438.4" y1="908.2" y2="914.2" /><line stroke="#7a7a7a" stroke-width="0.8" x1="766.0" x2="766.0" y1="875.2" y2="911.2" /><line stroke="#7a7a7a" stroke-width="1.0" x1="766.0" x2="766.0" y1="908.2" y2="914.2" /><line stroke="#7a7a7a" stroke-width="0.8" x1="929.8" x2="929.8" y1="875.2" y2="911.2" /><line stroke="#7a7a7a" stroke-width="1.0" x1="929.8" x2="929.8" y1="908.2" y2="914.2" /><line stroke="#7a7a7a" stroke-width="0.8" x1="1039.0" x2="1039.0" y1="875.2" y2="911.2" /><line stroke="#7a7a7a" stroke-width="1.0" x1="1039.0" x2="1039.0" y1="908.2" y2="914.2" /><line stroke="#7a7a7a" stroke-width="0.8" x1="1202.8" x2="1202.8" y1="875.2" y2="911.2" /><line stroke="#7a7a7a" stroke-width="1.0" x1="1202.8" x2="1202.8" y1="908.2" y2="914.2" /><line stroke="#7a7a7a" stroke-width="0.8" x1="1312.0" x2="1312.0" y1="875.2" y2="911.2" /><line stroke="#7a7a7a" stroke-width="1.0" x1="1312.0" x2="1312.0" y1="908.2" y2="914.2" /><text fill="#7a7a7a" font-size="7.8" text-anchor="middle" x="274.6" y="921.1999999999999">910</text><text fill="#7a7a7a" font-size="7.8" text-anchor="middle" x="383.79999999999995" y="921.1999999999999">910</text><text fill="#7a7a7a" font-size="7.8" text-anchor="middle" x="602.2" y="921.1999999999999">2730</text><text fill="#7a7a7a" font-size="7.8" text-anchor="middle" x="847.9" y="921.1999999999999">1365</text><text fill="#7a7a7a" font-size="7.8" text-anchor="middle" x="984.4" y="921.1999999999999">910</text><text fill="#7a7a7a" font-size="7.8" text-anchor="middle" x="1120.9" y="921.1999999999999">1365</text><text fill="#7a7a7a" font-size="7.8" text-anchor="middle" x="1257.3999999999999" y="921.1999999999999">910</text><line stroke="#545454" stroke-width="1.0" x1="148.0" x2="148.0" y1="220.0" y2="875.2" /><line stroke="#545454" stroke-width="0.8" x1="220.0" x2="148.0" y1="220.0" y2="220.0" /><line stroke="#545454" stroke-width="1.0" x1="145.0" x2="151.0" y1="220.0" y2="220.0" /><line stroke="#545454" stroke-width="0.8" x1="220.0" x2="148.0" y1="875.2" y2="875.2" /><line stroke="#545454" stroke-width="1.0" x1="145.0" x2="151.0" y1="875.2" y2="875.2" /><text fill="#545454" font-size="8.8" x="144.0" y="547.5999999999999">5460mm</text><line stroke="#666666" stroke-width="1.0" x1="166.0" x2="166.0" y1="220.0" y2="875.2" /><line stroke="#666666" stroke-width="0.8" x1="220.0" x2="166.0" y1="220.0" y2="220.0" /><line stroke="#666666" stroke-width="1.0" x1="163.0" x2="169.0" y1="220.0" y2="220.0" /><line stroke="#666666" stroke-width="0.8" x1="220.0" x2="166.0" y1="875.2" y2="875.2" /><line stroke="#666666" stroke-width="1.0" x1="163.0" x2="169.0" y1="875.2" y2="875.2" /><text fill="#666666" font-size="8.2" x="162.0" y="547.5999999999999">5460</text><line stroke="#7a7a7a" stroke-width="1.0" x1="184.0" x2="184.0" y1="220.0" y2="875.2" /><line stroke="#7a7a7a" stroke-width="0.8" x1="220.0" x2="184.0" y1="220.0" y2="220.0" /><line stroke="#7a7a7a" stroke-width="1.0" x1="181.0" x2="187.0" y1="220.0" y2="220.0" /><line stroke="#7a7a7a" stroke-width="0.8" x1="220.0" x2="184.0" y1="329.2" y2="329.2" /><line stroke="#7a7a7a" stroke-width="1.0" x1="181.0" x2="187.0" y1="329.2" y2="329.2" /><line stroke="#7a7a7a" stroke-width="0.8" x1="220.0" x2="184.0" y1="493.0" y2="493.0" /><line stroke="#7a7a7a" stroke-width="1.0" x1="181.0" x2="187.0" y1="493.0" y2="493.0" /><line stroke="#7a7a7a" stroke-width="0.8" x1="220.0" x2="184.0" y1="602.2" y2="602.2" /><line stroke="#7a7a7a" stroke-width="1.0" x1="181.0" x2="187.0" y1="602.2" y2="602.2" /><line stroke="#7a7a7a" stroke-width="0.8" x1="220.0" x2="184.0" y1="766.0" y2="766.0" /><line stroke="#7a7a7a" stroke-width="1.0" x1="181.0" x2="187.0" y1="766.0" y2="766.0" /><line stroke="#7a7a7a" stroke-width="0.8" x1="220.0" x2="184.0" y1="875.2" y2="875.2" /><line stroke="#7a7a7a" stroke-width="1.0" x1="181.0" x2="187.0" y1="875.2" y2="875.2" /><text fill="#7a7a7a" font-size="7.8" x="180.0" y="274.6">910</text><text fill="#7a7a7a" font-size="7.8" x="180.0" y="411.1">1365</text><text fill="#7a7a7a" font-size="7.8" x="180.0" y="547.5999999999999">910</text><text fill="#7a7a7a" font-size="7.8" x="180.0" y="684.0999999999999">1365</text><text fill="#7a7a7a" font-size="7.8" x="180.0" y="820.6">910</text><line stroke="#545454" stroke-width="1.0" x1="1384.0" x2="1384.0" y1="220.0" y2="875.2" /><line stroke="#545454" stroke-width="0.8" x1="1312.0" x2="1384.0" y1="220.0" y2="220.0" /><line stroke="#545454" stroke-width="1.0" x1="1381.0" x2="1387.0" y1="220.0" y2="220.0" /><line stroke="#545454" stroke-width="0.8" x1="1312.0" x2="1384.0" y1="875.2" y2="875.2" /><line stroke="#545454" stroke-width="1.0" x1="1381.0" x2="1387.0" y1="875.2" y2="875.2" /><text fill="#545454" font-size="8.8" x="1389.0" y="547.5999999999999">5460mm</text><line stroke="#666666" stroke-width="1.0" x1="1366.0" x2="1366.0" y1="220.0" y2="875.2" /><line stroke="#666666" stroke-width="0.8" x1="1312.0" x2="1366.0" y1="220.0" y2="220.0" /><line stroke="#666666" stroke-width="1.0" x1="1363.0" x2="1369.0" y1="220.0" y2="220.0" /><line stroke="#666666" stroke-width="0.8" x1="1312.0" x2="1366.0" y1="602.2" y2="602.2" /><line stroke="#666666" stroke-width="1.0" x1="1363.0" x2="1369.0" y1="602.2" y2="602.2" /><line stroke="#666666" stroke-width="0.8" x1="1312.0" x2="1366.0" y1="875.2" y2="875.2" /><line stroke="#666666" stroke-width="1.0" x1="1363.0" x2="1369.0" y1="875.2" y2="875.2" /><text fill="#666666" font-size="8.2" x="1371.0" y="411.1">3185</text><text fill="#666666" font-size="8.2" x="1371.0" y="738.6999999999999">2275</text><line stroke="#7a7a7a" stroke-width="1.0" x1="1348.0" x2="1348.0" y1="220.0" y2="875.2" /><line stroke="#7a7a7a" stroke-width="0.8" x1="1312.0" x2="1348.0" y1="220.0" y2="220.0" /><line stroke="#7a7a7a" stroke-width="1.0" x1="1345.0" x2="1351.0" y1="220.0" y2="220.0" /><line stroke="#7a7a7a" stroke-width="0.8" x1="1312.0" x2="1348.0" y1="329.2" y2="329.2" /><line stroke="#7a7a7a" stroke-width="1.0" x1="1345.0" x2="1351.0" y1="329.2" y2="329.2" /><line stroke="#7a7a7a" stroke-width="0.8" x1="1312.0" x2="1348.0" y1="493.0" y2="493.0" /><line stroke="#7a7a7a" stroke-width="1.0" x1="1345.0" x2="1351.0" y1="493.0" y2="493.0" /><line stroke="#7a7a7a" stroke-width="0.8" x1="1312.0" x2="1348.0" y1="711.4" y2="711.4" /><line stroke="#7a7a7a" stroke-width="1.0" x1="1345.0" x2="1351.0" y1="711.4" y2="711.4" /><line stroke="#7a7a7a" stroke-width="0.8" x1="1312.0" x2="1348.0" y1="820.6" y2="820.6" /><line stroke="#7a7a7a" stroke-width="1.0" x1="1345.0" x2="1351.0" y1="820.6" y2="820.6" /><line stroke="#7a7a7a" stroke-width="0.8" x1="1312.0" x2="1348.0" y1="875.2" y2="875.2" /><line stroke="#7a7a7a" stroke-width="1.0" x1="1345.0" x2="1351.0" y1="875.2" y2="875.2" /><text fill="#7a7a7a" font-size="7.8" x="1353.0" y="274.6">910</text><text fill="#7a7a7a" font-size="7.8" x="1353.0" y="411.1">1365</text><text fill="#7a7a7a" font-size="7.8" x="1353.0" y="602.2">1820</text><text fill="#7a7a7a" font-size="7.8" x="1353.0" y="766.0">910</text></svg>