<?xml version="1.0" encoding="utf-8" ?>
<svg baseProfile="tiny" height="1422.8px" version="1.2" width="1422.8px" xmlns="http://www.w3.org/2000/svg" xmlns:ev="http://www.w3.org/2001/xml-events" xmlns:xlink="http://www.w3.org/1999/xlink"><defs /><rect fill="#fafafa" height="1422.8" width="1422.8" x="0" y="0" /><line stroke="#ececec" stroke-width="0.7" x1="220.0" x2="220.0" y1="220.0" y2="1202.8" /><line stroke="#ececec" stroke-width="0.7" x1="274.6" x2="274.6" y1="220.0" y2="1202.8" /><line stroke="#ececec" stroke-width="0.7" x1="329.2" x2="329.2" y1="220.0" y2="1202.8" /><line stroke="#ececec" stroke-width="0.7" x1="383.8" x2="383.8" y1="220.0" y2="1202.8" /><line stroke="#ececec" stroke-width="0.7" x1="438.4" x2="438.4" y1="220.0" y2="1202.8" /><line stroke="#ececec" stroke-width="0.7" x1="493.0" x2="493.0" y1="220.0" y2="1202.8" /><line stroke="#ececec" stroke-width="0.7" x1="547.6" x2="547.6" y1="220.0" y2="1202.8" /><line stroke="#ececec" stroke-width="0.7" x1="602.2" x2="602.2" y1="220.0" y2="1202.8" /><line stroke="#ececec" stroke-width="0.7" x1="656.8" x2="656.8" y1="220.0" y2="1202.8" /><line stroke="#ececec" stroke-width="0.7" x1="711.4" x2="711.4" y1="220.0" y2="1202.8" /><line stroke="#ececec" stroke-width="0.7" x1="766.0" x2="766.0" y1="220.0" y2="1202.8" /><line stroke="#ececec" stroke-width="0.7" x1="820.6" x2="820.6" y1="220.0" y2="1202.8" /><line stroke="#ececec" stroke-width="0.7" x1="875.2" x2="875.2" y1="220.0" y2="1202.8" /><line stroke="#ececec" stroke-width="0.7" x1="929.8" x2="929.8" y1="220.0" y2="1202.8" /><line stroke="#ececec" stroke-width="0.7" x1="984.4" x2="984.4" y1="220.0" y2="1202.8" /><line stroke="#ececec" stroke-width="0.7" x1="1039.0" x2="1039.0" y1="220.0" y2="1202.8" /><line stroke="#ececec" stroke-width="0.7" x1="1093.6" x2="1093.6" y1="220.0" y2="1202.8" /><line stroke="#ececec" stroke-width="0.7" x1="1148.2" x2="1148.2" y1="220.0" y2="1202.8" /><line stroke="#ececec" stroke-width="0.7" x1="1202.8" x2="1202.8" y1="220.0" y2="1202.8" /><line stroke="#d1d1d1" stroke-width="1.1" x1="220.0" x2="220.0" y1="220.0" y2="1202.8" /><line stroke="#d1d1d1" stroke-width="1.1" x1="329.2" x2="329.2" y1="220.0" y2="1202.8" /><line stroke="#d1d1d1" stroke-width="1.1" x1="438.4" x2="438.4" y1="220.0" y2="1202.8" /><line stroke="#d1d1d1" stroke-width="1.1" x1="547.6" x2="547.6" y1="220.0" y2="1202.8" /><line stroke="#d1d1d1" stroke-width="1.1" x1="656.8" x2="656.8" y1="220.0" y2="1202.8" /><line stroke="#d1d1d1" stroke-width="1.1" x1="766.0" x2="766.0" y1="220.0" y2="1202.8" /><line stroke="#d1d1d1" stroke-width="1.1" x1="875.2" x2="875.2" y1="220.0" y2="1202.8" /><line stroke="#d1d1d1" stroke-width="1.1" x1="984.4" x2="984.4" y1="220.0" y2="1202.8" /><line stroke="#d1d1d1" stroke-width="1.1" x1="1093.6" x2="1093.6" y1="220.0" y2="1202.8" /><line stroke="#d1d1d1" stroke-width="1.1" x1="1202.8" x2="1202.8" y1="220.0" y2="1202.8" /><line stroke="#d1d1d1" stroke-width="1.1" x1="220.0" x2="1202.8" y1="220.0" y2="220.0" /><line stroke="#d1d1d1" stroke-width="1.1" x1="220.0" x2="1202.8" y1="329.2" y2="329.2" /><line stroke="#d1d1d1" stroke-width="1.1" x1="220.0" x2="1202.8" y1="438.4" y2="438.4" /><line stroke="#d1d1d1" stroke-width="1.1" x1="220.0" x2="1202.8" y1="547.6" y2="547.6" /><line stroke="#d1d1d1" stroke-width="1.1" x1="220.0" x2="1202.8" y1="656.8" y2="656.8" /><line stroke="#d1d1d1" stroke-width="1.1" x1="220.0" x2="1202.8" y1="766.0" y2="766.0" /><line stroke="#d1d1d1" stroke-width="1.1" x1="220.0" x2="1202.8" y1="875.2" y2="875.2" /><line stroke="#d1d1d1" stroke-width="1.1" x1="220.0" x2="1202.8" y1="984.4" y2="984.4" /><line stroke="#d1d1d1" stroke-width="1.1" x1="220.0" x2="1202.8" y1="1093.6" y2="1093.6" /><line stroke="#d1d1d1" stroke-width="1.1" x1="220.0" x2="1202.8" y1="1202.8" y2="1202.8" /><line stroke="#ececec" stroke-width="0.7" x1="220.0" x2="1202.8" y1="220.0" y2="220.0" /><line stroke="#ececec" stroke-width="0.7" x1="220.0" x2="1202.8" y1="274.6" y2="274.6" /><line stroke="#ececec" stroke-width="0.7" x1="220.0" x2="1202.8" y1="329.2" y2="329.2" /><line stroke="#ececec" stroke-width="0.7" x1="220.0" x2="1202.8" y1="383.8" y2="383.8" /><line stroke="#ececec" stroke-width="0.7" x1="220.0" x2="1202.8" y1="438.4" y2="438.4" /><line stroke="#ececec" stroke-width="0.7" x1="220.0" x2="1202.8" y1="493.0" y2="493.0" /><line stroke="#ececec" stroke-width="0.7" x1="220.0" x2="1202.8" y1="547.6" y2="547.6" /><line stroke="#ececec" stroke-width="0.7" x1="220.0" x2="1202.8" y1="602.2" y2="602.2" /><line stroke="#ececec" stroke-width="0.7" x1="220.0" x2="1202.8" y1="656.8" y2="656.8" /><line stroke="#ececec" stroke-width="0.7" x1="220.0" x2="1202.8" y1="711.4" y2="711.4" /><line stroke="#ececec" stroke-width="0.7" x1="220.0" x2="1202.8" y1="766.0" y2="766.0" /><line stroke="#ececec" stroke-width="0.7" x1="220.0" x2="1202.8" y1="820.6" y2="820.6" /><line stroke="#ececec" stroke-width="0.7" x1="220.0" x2="1202.8" y1="875.2" y2="875.2" /><line stroke="#ececec" stroke-width="0.7" x1="220.0" x2="1202.8" y1="929.8" y2="929.8" /><line stroke="#ececec" stroke-width="0.7" x1="220.0" x2="1202.8" y1="984.4" y2="984.4" /><line stroke="#ececec" stroke-width="0.7" x1="220.0" x2="1202.8" y1="1039.0" y2="1039.0" /><line stroke="#ececec" stroke-width="0.7" x1="220.0" x2="1202.8" y1="1093.6" y2="1093.6" /><line stroke="#ececec" stroke-width="0.7" x1="220.0" x2="1202.8" y1="1148.2" y2="1148.2" /><line stroke="#ececec" stroke-width="0.7" x1="220.0" x2="1202.8" y1="1202.8" y2="1202.8" /><rect fill="none" height="982.8" stroke="#6a6a6a" stroke-dasharray="8,4" stroke-width="2" width="982.8" x="220.0" y="220.0" /><rect fill="none" height="982.8" stroke="#1f1f1f" stroke-width="3.5" width="982.8" x="220.0" y="220.0" /><text fill="#555555" font-size="10" x="222.0" y="160.0">Site Envelope = Building Footprint</text><rect fill="#dcecff" height="218.4" stroke="none" width="218.4" x="438.4" y="220.0" /><line stroke="#2f2f2f" stroke-width="2.2" x1="438.4" x2="656.8" y1="438.4" y2="438.4" /><line stroke="#2f2f2f" stroke-width="2.2" x1="438.4" x2="656.8" y1="220.0" y2="220.0" /><line stroke="#2f2f2f" stroke-width="2.2" x1="438.4" x2="438.4" y1="220.0" y2="438.4" /><line stroke="#2f2f2f" stroke-width="2.2" x1="656.8" x2="656.8" y1="220.0" y2="438.4" /><rect fill="#d9f2ff" height="436.8" stroke="none" width="327.6" x="220.0" y="766.0" /><line stroke="#2f2f2f" stroke-width="2.2" x1="220.0" x2="547.6" y1="766.0" y2="766.0" /><line stroke="#2f2f2f" stroke-width="2.2" x1="220.0" x2="547.6" y1="1202.8" y2="1202.8" /><line stroke="#2f2f2f" stroke-width="2.2" x1="547.6" x2="547.6" y1="766.0" y2="1202.8" /><line stroke="#2f2f2f" stroke-width="2.2" x1="220.0" x2="220.0" y1="766.0" y2="1202.8" /><rect fill="#f8f0d9" height="218.4" stroke="none" width="218.4" x="656.8" y="220.0" /><line stroke="#2f2f2f" stroke-width="2.2" x1="656.8" x2="875.2" y1="438.4" y2="438.4" /><line stroke="#2f2f2f" stroke-width="2.2" x1="656.8" x2="875.2" y1="220.0" y2="220.0" /><line stroke="#2f2f2f" stroke-width="2.2" x1="875.2" x2="875.2" y1="220.0" y2="438.4" /><line stroke="#2f2f2f" stroke-width="2.2" x1="656.8" x2="656.8" y1="220.0" y2="438.4" /><rect fill="#efe9ff" height="218.4" stroke="none" width="109.2" x="766.0" y="438.4" /><rect fill="#efe9ff" height="163.8" stroke="none" width="218.4" x="875.2" y="493.0" /><rect fill="#efe9ff" height="218.4" stroke="none" width="109.2" x="1093.6" y="438.4" /><line stroke="#2f2f2f" stroke-width="2.2" x1="766.0" x2="1202.8" y1="656.8" y2="656.8" /><line stroke="#2f2f2f" stroke-width="2.2" x1="766.0" x2="875.2" y1="438.4" y2="438.4" /><line stroke="#2f2f2f" stroke-width="2.2" x1="1093.6" x2="1202.8" y1="438.4" y2="438.4" /><line stroke="#2f2f2f" stroke-width="2.2" x1="875.2" x2="1093.6" y1="493.0" y2="493.0" /><line stroke="#2f2f2f" stroke-width="2.2" x1="875.2" x2="875.2" y1="438.4" y2="493.0" /><line stroke="#2f2f2f" stroke-width="2.2" x1="1202.8" x2="1202.8" y1="438.4" y2="656.8" /><line stroke="#2f2f2f" stroke-width="2.2" x1="766.0" x2="766.0" y1="438.4" y2="656.8" /><line stroke="#2f2f2f" stroke-width="2.2" x1="1093.6" x2="1093.6" y1="438.4" y2="493.0" /><rect fill="#ffe2b8" height="327.6" stroke="none" width="327.6" x="220.0" y="438.4" /><rect fill="#ffe2b8" height="546.0" stroke="none" width="436.8" x="547.6" y="656.8" /><line stroke="#2f2f2f" stroke-width="2.2" x1="547.6" x2="984.4" y1="1202.8" y2="1202.8" /><line stroke="#2f2f2f" stroke-width="2.2" x1="220.0" x2="547.6" y1="438.4" y2="438.4" /><line stroke="#2f2f2f" stroke-width="2.2" x1="547.6" x2="984.4" y1="656.8" y2="656.8" /><line stroke="#2f2f2f" stroke-width="2.2" x1="220.0" x2="547.6" y1="766.0" y2="766.0" /><line stroke="#2f2f2f" stroke-width="2.2" x1="220.0" x2="220.0" y1="438.4" y2="766.0" /><line stroke="#2f2f2f" stroke-width="2.2" x1="547.6" x2="547.6" y1="438.4" y2="656.8" /><line stroke="#2f2f2f" stroke-width="2.2" x1="547.6" x2="547.6" y1="766.0" y2="1202.8" /><line stroke="#2f2f2f" stroke-width="2.2" x1="984.4" x2="984.4" y1="656.8" y2="1202.8" /><rect fill="#f0f0f0" height="218.4" stroke="none" width="218.4" x="220.0" y="220.0" /><line stroke="#2f2f2f" stroke-width="2.2" x1="220.0" x2="438.4" y1="220.0" y2="220.0" /><line stroke="#2f2f2f" stroke-width="2.2" x1="220.0" x2="438.4" y1="438.4" y2="438.4" /><line stroke="#2f2f2f" stroke-width="2.2" x1="438.4" x2="438.4" y1="220.0" y2="438.4" /><line stroke="#2f2f2f" stroke-width="2.2" x1="220.0" x2="220.0" y1="220.0" y2="438.4" /><rect fill="#d9f2ff" height="546.0" stroke="none" width="218.4" x="984.4" y="656.8" /><line stroke="#2f2f2f" stroke-width="2.2" x1="984.4" x2="1202.8" y1="1202.8" y2="1202.8" /><line stroke="#2f2f2f" stroke-width="2.2" x1="984.4" x2="1202.8" y1="656.8" y2="656.8" /><line stroke="#2f2f2f" stroke-width="2.2" x1="984.4" x2="984.4" y1="656.8" y2="1202.8" /><line stroke="#2f2f2f" stroke-width="2.2" x1="1202.8" x2="1202.8" y1="656.8" y2="1202.8" /><rect fill="#fbe7e6" height="218.4" stroke="none" width="109.2" x="1093.6" y="220.0" /><line stroke="#2f2f2f" stroke-width="2.2" x1="1093.6" x2="1202.8" y1="220.0" y2="220.0" /><line stroke="#2f2f2f" stroke-width="2.2" x1="1093.6" x2="1202.8" y1="438.4" y2="438.4" /><line stroke="#2f2f2f" stroke-width="2.2" x1="1093.6" x2="1093.6" y1="220.0" y2="438.4" /><line stroke="#2f2f2f" stroke-width="2.2" x1="1202.8" x2="1202.8" y1="220.0" y2="438.4" /><rect fill="#e7fbfb" height="218.4" stroke="none" width="218.4" x="547.6" y="438.4" /><line stroke="#2f2f2f" stroke-width="2.2" x1="547.6" x2="766.0" y1="438.4" y2="438.4" /><line stroke="#2f2f2f" stroke-width="2.2" x1="547.6" x2="766.0" y1="656.8" y2="656.8" /><line stroke="#2f2f2f" stroke-width="2.2" x1="766.0" x2="766.0" y1="438.4" y2="656.8" /><line stroke="#2f2f2f" stroke-width="2.2" x1="547.6" x2="547.6" y1="438.4" y2="656.8" /><rect fill="#f7f3ea" fill-opacity="0.35" height="109.2" stroke="#9a9a9a" stroke-dasharray="4,3" stroke-width="0.9" width="218.4" x="220.0" y="766.0" /><line stroke="#9c9c9c" stroke-opacity="0.7" stroke-width="0.8" x1="220.0" x2="239.2" y1="856.0" y2="875.2" /><line stroke="#9c9c9c" stroke-opacity="0.7" stroke-width="0.8" x1="220.0" x2="258.4" y1="836.8" y2="875.2" /><line stroke="#9c9c9c" stroke-opacity="0.7" stroke-width="0.8" x1="220.0" x2="277.6" y1="817.6" y2="875.2" /><line stroke="#9c9c9c" stroke-opacity="0.7" stroke-width="0.8" x1="220.0" x2="296.8" y1="798.4" y2="875.2" /><line stroke="#9c9c9c" stroke-opacity="0.7" stroke-width="0.8" x1="220.0" x2="316.0" y1="779.2" y2="875.2" /><line stroke="#9c9c9c" stroke-opacity="0.7" stroke-width="0.8" x1="226.0" x2="335.2" y1="766.0" y2="875.2" /><line stroke="#9c9c9c" stroke-opacity="0.7" stroke-width="0.8" x1="245.2" x2="354.4" y1="766.0" y2="875.2" /><line stroke="#9c9c9c" stroke-opacity="0.7" stroke-width="0.8" x1="264.4" x2="373.6" y1="766.0" y2="875.2" /><line stroke="#9c9c9c" stroke-opacity="0.7" stroke-width="0.8" x1="283.6" x2="392.8" y1="766.0" y2="875.2" /><line stroke="#9c9c9c" stroke-opacity="0.7" stroke-width="0.8" x1="302.8" x2="412.0" y1="766.0" y2="875.2" /><line stroke="#9c9c9c" stroke-opacity="0.7" stroke-width="0.8" x1="322.0" x2="431.2" y1="766.0" y2="875.2" /><line stroke="#9c9c9c" stroke-opacity="0.7" stroke-width="0.8" x1="341.2" x2="438.4" y1="766.0" y2="863.2" /><line stroke="#9c9c9c" stroke-opacity="0.7" stroke-width="0.8" x1="360.4" x2="438.4" y1="766.0" y2="844.0" /><line stroke="#9c9c9c" stroke-opacity="0.7" stroke-width="0.8" x1="379.6" x2="438.4" y1="766.0" y2="824.8" /><line stroke="#9c9c9c" stroke-opacity="0.7" stroke-width="0.8" x1="398.8" x2="438.4" y1="766.0" y2="805.6" /><line stroke="#9c9c9c" stroke-opacity="0.7" stroke-width="0.8" x1="418.0" x2="438.4" y1="766.0" y2="786.4" /><line stroke="#9c9c9c" stroke-opacity="0.7" stroke-width="0.8" x1="437.2" x2="438.4" y1="766.0" y2="767.2" /><rect fill="#f7f3ea" fill-opacity="0.35" height="109.2" stroke="#9a9a9a" stroke-dasharray="4,3" stroke-width="0.9" width="218.4" x="984.4" y="656.8" /><line stroke="#9c9c9c" stroke-opacity="0.7" stroke-width="0.8" x1="984.4" x2="1003.6" y1="746.8" y2="766.0" /><line stroke="#9c9c9c" stroke-opacity="0.7" stroke-width="0.8" x1="984.4" x2="1022.8" y1="727.6" y2="766.0" /><line stroke="#9c9c9c" stroke-opacity="0.7" stroke-width="0.8" x1="984.4" x2="1042.0" y1="708.4" y2="766.0" /><line stroke="#9c9c9c" stroke-opacity="0.7" stroke-width="0.8" x1="984.4" x2="1061.2" y1="689.2" y2="766.0" /><line stroke="#9c9c9c" stroke-opacity="0.7" stroke-width="0.8" x1="984.4" x2="1080.4" y1="670.0" y2="766.0" /><line stroke="#9c9c9c" stroke-opacity="0.7" stroke-width="0.8" x1="990.4" x2="1099.6" y1="656.8" y2="766.0" /><line stroke="#9c9c9c" stroke-opacity="0.7" stroke-width="0.8" x1="1009.6" x2="1118.8" y1="656.8" y2="766.0" /><line stroke="#9c9c9c" stroke-opacity="0.7" stroke-width="0.8" x1="1028.8" x2="1138.0" y1="656.8" y2="766.0" /><line stroke="#9c9c9c" stroke-opacity="0.7" stroke-width="0.8" x1="1048.0" x2="1157.2" y1="656.8" y2="766.0" /><line stroke="#9c9c9c" stroke-opacity="0.7" stroke-width="0.8" x1="1067.2" x2="1176.4" y1="656.8" y2="766.0" /><line stroke="#9c9c9c" stroke-opacity="0.7" stroke-width="0.8" x1="1086.4" x2="1195.6" y1="656.8" y2="766.0" /><line stroke="#9c9c9c" stroke-opacity="0.7" stroke-width="0.8" x1="1105.6" x2="1202.8" y1="656.8" y2="754.0" /><line stroke="#9c9c9c" stroke-opacity="0.7" stroke-width="0.8" x1="1124.8" x2="1202.8" y1="656.8" y2="734.8" /><line stroke="#9c9c9c" stroke-opacity="0.7" stroke-width="0.8" x1="1144.0" x2="1202.8" y1="656.8" y2="715.6" /><line stroke="#9c9c9c" stroke-opacity="0.7" stroke-width="0.8" x1="1163.2" x2="1202.8" y1="656.8" y2="696.4" /><line stroke="#9c9c9c" stroke-opacity="0.7" stroke-width="0.8" x1="1182.4" x2="1202.8" y1="656.8" y2="677.2" /><line stroke="#9c9c9c" stroke-opacity="0.7" stroke-width="0.8" x1="1201.6" x2="1202.8" y1="656.8" y2="658.0" /><rect fill="none" height="54.6" stroke="#8a6b4a" stroke-width="1.0" width="139.776" x="783.472" y="711.4" /><rect fill="none" height="120.12" stroke="#8a6b4a" stroke-width="1.0" width="49.14" x="874.108" y="711.4" /><circle cx="821.5936" cy="738.7" fill="none" r="8.4" stroke="#8a6b4a" stroke-width="0.9" /><circle cx="843.1936" cy="738.7" fill="none" r="8.4" stroke="#8a6b4a" stroke-width="0.9" /><rect fill="none" height="28.8288" stroke="#8a6b4a" stroke-width="0.9" width="33.4152" x="881.479" y="761.8504" /><rect fill="none" height="65.52" stroke="#8a6b4a" stroke-width="1.0" width="96.096" x="722.32" y="886.12" /><rect fill="none" height="148.512" stroke="#7f7f7f" stroke-width="1.1" width="183.456" x="292.072" y="844.624" /><line stroke="#7f7f7f" stroke-width="0.9" x1="292.072" x2="475.528" y1="896.6032" y2="896.6032" /><rect fill="none" height="163.8" stroke="#7f7f7f" stroke-width="1.1" width="122.304" x="1032.448" y="755.08" /><line stroke="#7f7f7f" stroke-width="0.9" x1="1032.448" x2="1154.752" y1="812.41" y2="812.41" /><rect fill="none" height="48.048" stroke="#6f6f6f" stroke-width="1.0" width="74.256" x="586.912" y="477.712" /><rect fill="none" height="48.048" stroke="#6f6f6f" stroke-width="1.0" width="74.256" x="674.272" y="477.712" /><line stroke="#8f8f8f" stroke-width="0.8" x1="578.176" x2="735.424" y1="463.312" y2="463.312" /><circle cx="739.6" cy="464.8" fill="none" r="8.4" stroke="#7c7c7c" stroke-width="0.9" /><line stroke="#7c7c7c" stroke-width="0.8" x1="728.8" x2="750.4" y1="464.8" y2="464.8" /><line stroke="#7c7c7c" stroke-width="0.8" x1="739.6" x2="739.6" y1="454.0" y2="475.6" /><rect fill="none" height="109.2" rx="6" ry="6" stroke="#6f6f6f" stroke-width="1.0" width="135.408" x="482.08" y="268.048" /><circle cx="630.4" cy="246.4" fill="none" r="8.4" stroke="#7c7c7c" stroke-width="0.9" /><line stroke="#7c7c7c" stroke-width="0.8" x1="619.6" x2="641.2" y1="246.4" y2="246.4" /><line stroke="#7c7c7c" stroke-width="0.8" x1="630.4" x2="630.4" y1="235.6" y2="257.2" /><line stroke="#9a9a9a" stroke-width="0.9" x1="246.208" x2="412.192" y1="259.312" y2="259.312" /><line stroke="#9a9a9a" stroke-width="0.9" x1="246.208" x2="412.192" y1="399.088" y2="399.088" /><rect fill="#ffffff" height="163.8" stroke="#202020" stroke-dasharray="8,4" stroke-width="2.6" width="109.2" x="875.2" y="329.2" /><rect fill="#ffffff" height="109.2" stroke="#202020" stroke-dasharray="8,4" stroke-width="2.6" width="218.4" x="875.2" y="220.0" /><rect fill="#ffffff" height="163.8" stroke="#202020" stroke-dasharray="8,4" stroke-width="2.6" width="109.2" x="984.4" y="329.2" /><line stroke="#2a2a2a" stroke-width="1.4" x1="888.304" x2="971.296" y1="352.6" y2="352.6" /><line stroke="#2a2a2a" stroke-width="1.4" x1="888.304" x2="971.296" y1="376.0" y2="376.0" /><line stroke="#2a2a2a" stroke-width="1.4" x1="888.304" x2="971.296" y1="399.4" y2="399.4" /><line stroke="#2a2a2a" stroke-width="1.4" x1="888.304" x2="971.296" y1="422.8" y2="422.8" /><line stroke="#2a2a2a" stroke-width="1.4" x1="888.304" x2="971.296" y1="446.2" y2="446.2" /><line stroke="#2a2a2a" stroke-width="1.4" x1="888.304" x2="971.296" y1="469.6" y2="469.6" /><line stroke="#2a2a2a" stroke-width="1.4" x1="997.504" x2="1080.496" y1="352.6" y2="352.6" /><line stroke="#2a2a2a" stroke-width="1.4" x1="997.504" x2="1080.496" y1="376.0" y2="376.0" /><line stroke="#2a2a2a" stroke-width="1.4" x1="997.504" x2="1080.496" y1="399.4" y2="399.4" /><line stroke="#2a2a2a" stroke-width="1.4" x1="997.504" x2="1080.496" y1="422.8" y2="422.8" /><line stroke="#2a2a2a" stroke-width="1.4" x1="997.504" x2="1080.496" y1="446.2" y2="446.2" /><line stroke="#2a2a2a" stroke-width="1.4" x1="997.504" x2="1080.496" y1="469.6" y2="469.6" /><text fill="#202020" font-size="11" text-anchor="middle" x="929.8" y="411.1">Stair (UP)</text><text fill="#3a3a3a" font-size="9.0" text-anchor="middle" x="929.8" y="425.5">13R/12T</text><text fill="#4a4a4a" font-size="7.8" text-anchor="middle" x="929.8" y="433.9">H2730 R210 T228</text><line stroke="#ffffff" stroke-width="7" x1="875.2" x2="875.2" y1="438.4" y2="493.0" /><line stroke="#5e5e5e" stroke-width="1.0" x1="875.2" x2="875.2" y1="438.4" y2="493.0" /><line stroke="#ffffff" stroke-width="6" x1="775.0" x2="866.2" y1="438.4" y2="438.4" /><line stroke="#ffffff" stroke-width="6" x1="775.0" x2="866.2" y1="656.8" y2="656.8" /><line stroke="#ffffff" stroke-width="6" x1="1102.6" x2="1193.8" y1="438.4" y2="438.4" /><line stroke="#ffffff" stroke-width="6" x1="766.0" x2="766.0" y1="498.46" y2="596.74" /><line stroke="#595959" stroke-width="1.2" x1="766.0" x2="702.118" y1="498.46" y2="562.342" /><path d="M 766.0,562.342 A 63.882,63.882 0 0 1 702.1179999999999,562.342" fill="none" stroke="#7a7a7a" stroke-width="1.0" /><line stroke="#ffffff" stroke-width="6" x1="556.6" x2="647.8" y1="438.4" y2="438.4" /><line stroke="#ffffff" stroke-width="6" x1="547.6" x2="547.6" y1="925.6" y2="1043.2" /><line stroke="#595959" stroke-width="1.2" x1="547.6" x2="624.04" y1="925.6" y2="1002.04" /><path d="M 547.5999999999999,1002.04 A 76.44,76.44 0 0 1 624.04,1002.04" fill="none" stroke="#7a7a7a" stroke-width="1.0" /><line stroke="#ffffff" stroke-width="6" x1="984.4" x2="984.4" y1="871.0" y2="988.6" /><line stroke="#595959" stroke-width="1.2" x1="984.4" x2="907.96" y1="871.0" y2="947.44" /><path d="M 984.4,947.4399999999999 A 76.44,76.44 0 0 1 907.9599999999999,947.4399999999999" fill="none" stroke="#7a7a7a" stroke-width="1.0" /><line stroke="#ffffff" stroke-width="6" x1="280.06" x2="378.34" y1="438.4" y2="438.4" /><line stroke="#ffffff" stroke-width="7" x1="716.86" x2="815.14" y1="220.0" y2="220.0" /><line stroke="#595959" stroke-width="1.2" x1="716.86" x2="780.742" y1="220.0" y2="283.882" /><path d="M 780.7420000000001,220.0 A 63.882,63.882 0 0 1 780.7420000000001,283.882" fill="none" stroke="#7a7a7a" stroke-width="1.0" /><line stroke="#66a7ff" stroke-width="2.2" x1="217.36" x2="217.36" y1="546.52" y2="657.88" /><line stroke="#66a7ff" stroke-width="2.2" x1="222.64" x2="222.64" y1="546.52" y2="657.88" /><line stroke="#66a7ff" stroke-width="2.2" x1="595.684" x2="744.124" y1="1200.16" y2="1200.16" /><line stroke="#66a7ff" stroke-width="2.2" x1="595.684" x2="744.124" y1="1205.44" y2="1205.44" /><line stroke="#66a7ff" stroke-width="2.2" x1="787.876" x2="936.316" y1="1200.16" y2="1200.16" /><line stroke="#66a7ff" stroke-width="2.2" x1="787.876" x2="936.316" y1="1205.44" y2="1205.44" /><line stroke="#66a7ff" stroke-width="2.2" x1="217.36" x2="217.36" y1="814.084" y2="962.524" /><line stroke="#66a7ff" stroke-width="2.2" x1="222.64" x2="222.64" y1="814.084" y2="962.524" /><line stroke="#66a7ff" stroke-width="2.2" x1="217.36" x2="217.36" y1="1006.276" y2="1154.716" /><line stroke="#66a7ff" stroke-width="2.2" x1="222.64" x2="222.64" y1="1006.276" y2="1154.716" /><line stroke="#66a7ff" stroke-width="2.2" x1="328.12" x2="439.48" y1="1200.16" y2="1200.16" /><line stroke="#66a7ff" stroke-width="2.2" x1="328.12" x2="439.48" y1="1205.44" y2="1205.44" /><line stroke="#66a7ff" stroke-width="2.2" x1="1200.16" x2="1200.16" y1="716.86" y2="902.5" /><line stroke="#66a7ff" stroke-width="2.2" x1="1205.44" x2="1205.44" y1="716.86" y2="902.5" /><line stroke="#66a7ff" stroke-width="2.2" x1="1200.16" x2="1200.16" y1="957.1" y2="1142.74" /><line stroke="#66a7ff" stroke-width="2.2" x1="1205.44" x2="1205.44" y1="957.1" y2="1142.74" /><line stroke="#66a7ff" stroke-width="2.2" x1="1039.0" x2="1148.2" y1="1200.16" y2="1200.16" /><line stroke="#66a7ff" stroke-width="2.2" x1="1039.0" x2="1148.2" y1="1205.44" y2="1205.44" /><line stroke="#9a9a9a" stroke-width="0.8" x1="774.4" x2="866.8" y1="446.8" y2="446.8" /><line stroke="#9a9a9a" stroke-width="0.8" x1="774.4" x2="774.4" y1="443.44" y2="450.16" /><line stroke="#9a9a9a" stroke-width="0.8" x1="866.8" x2="866.8" y1="443.44" y2="450.16" /><text fill="#8a8a8a" font-size="7.6" text-anchor="start" x="781.12" y="444.15999999999997">910mm</text><line stroke="#9a9a9a" stroke-width="0.8" x1="774.4" x2="774.4" y1="446.8" y2="648.4" /><line stroke="#9a9a9a" stroke-width="0.8" x1="771.04" x2="777.76" y1="446.8" y2="446.8" /><line stroke="#9a9a9a" stroke-width="0.8" x1="771.04" x2="777.76" y1="648.4" y2="648.4" /><text fill="#8a8a8a" font-size="7.6" text-anchor="start" x="778.48" y="454.48">1820mm</text><line stroke="#9a9a9a" stroke-width="0.8" x1="883.6" x2="1085.2" y1="501.4" y2="501.4" /><line stroke="#9a9a9a" stroke-width="0.8" x1="883.6" x2="883.6" y1="498.04" y2="504.76" /><line stroke="#9a9a9a" stroke-width="0.8" x1="1085.2" x2="1085.2" y1="498.04" y2="504.76" /><text fill="#8a8a8a" font-size="7.6" text-anchor="start" x="890.3199999999999" y="498.76">1820mm</text><line stroke="#9a9a9a" stroke-width="0.8" x1="883.6" x2="883.6" y1="501.4" y2="648.4" /><line stroke="#9a9a9a" stroke-width="0.8" x1="880.24" x2="886.96" y1="501.4" y2="501.4" /><line stroke="#9a9a9a" stroke-width="0.8" x1="880.24" x2="886.96" y1="648.4" y2="648.4" /><text fill="#8a8a8a" font-size="7.6" text-anchor="start" x="887.68" y="509.08">1365mm</text><line stroke="#9a9a9a" stroke-width="0.8" x1="1102.0" x2="1194.4" y1="446.8" y2="446.8" /><line stroke="#9a9a9a" stroke-width="0.8" x1="1102.0" x2="1102.0" y1="443.44" y2="450.16" /><line stroke="#9a9a9a" stroke-width="0.8" x1="1194.4" x2="1194.4" y1="443.44" y2="450.16" /><text fill="#8a8a8a" font-size="7.6" text-anchor="start" x="1108.7199999999998" y="444.15999999999997">910mm</text><line stroke="#9a9a9a" stroke-width="0.8" x1="1102.0" x2="1102.0" y1="446.8" y2="648.4" /><line stroke="#9a9a9a" stroke-width="0.8" x1="1098.64" x2="1105.36" y1="446.8" y2="446.8" /><line stroke="#9a9a9a" stroke-width="0.8" x1="1098.64" x2="1105.36" y1="648.4" y2="648.4" /><text fill="#8a8a8a" font-size="7.6" text-anchor="start" x="1106.08" y="454.48">1820mm</text><line stroke="#9a9a9a" stroke-width="0.8" x1="228.4" x2="539.2" y1="446.8" y2="446.8" /><line stroke="#9a9a9a" stroke-width="0.8" x1="228.4" x2="228.4" y1="443.44" y2="450.16" /><line stroke="#9a9a9a" stroke-width="0.8" x1="539.2" x2="539.2" y1="443.44" y2="450.16" /><text fill="#8a8a8a" font-size="7.6" text-anchor="start" x="235.12" y="444.15999999999997">2730mm</text><line stroke="#9a9a9a" stroke-width="0.8" x1="228.4" x2="228.4" y1="446.8" y2="757.6" /><line stroke="#9a9a9a" stroke-width="0.8" x1="225.04" x2="231.76" y1="446.8" y2="446.8" /><line stroke="#9a9a9a" stroke-width="0.8" x1="225.04" x2="231.76" y1="757.6" y2="757.6" /><text fill="#8a8a8a" font-size="7.6" text-anchor="start" x="232.48" y="454.48">2730mm</text><line stroke="#9a9a9a" stroke-width="0.8" x1="556.0" x2="976.0" y1="665.2" y2="665.2" /><line stroke="#9a9a9a" stroke-width="0.8" x1="556.0" x2="556.0" y1="661.84" y2="668.56" /><line stroke="#9a9a9a" stroke-width="0.8" x1="976.0" x2="976.0" y1="661.84" y2="668.56" /><text fill="#8a8a8a" font-size="7.6" text-anchor="start" x="562.72" y="662.56">3640mm</text><line stroke="#9a9a9a" stroke-width="0.8" x1="556.0" x2="556.0" y1="665.2" y2="1194.4" /><line stroke="#9a9a9a" stroke-width="0.8" x1="552.64" x2="559.36" y1="665.2" y2="665.2" /><line stroke="#9a9a9a" stroke-width="0.8" x1="552.64" x2="559.36" y1="1194.4" y2="1194.4" /><text fill="#8a8a8a" font-size="7.6" text-anchor="start" x="560.0799999999999" y="672.88">4550mm</text><text fill="#1b1b1b" font-size="10" text-anchor="middle" x="547.5999999999999" y="314.8">Bath 1</text><text fill="#1b1b1b" font-size="10" text-anchor="middle" x="547.5999999999999" y="325.6">1820x1820mm</text><text fill="#1b1b1b" font-size="10" text-anchor="middle" x="547.5999999999999" y="336.4">3.3sqm / 2.0jo</text><text fill="#1b1b1b" font-size="10" text-anchor="middle" x="383.79999999999995" y="970.0">Bedroom 1</text><text fill="#1b1b1b" font-size="10" text-anchor="middle" x="383.79999999999995" y="980.8">2730x3640mm</text><text fill="#1b1b1b" font-size="10" text-anchor="middle" x="383.79999999999995" y="991.6">9.9sqm / 6.1jo</text><text fill="#1b1b1b" font-size="10" text-anchor="middle" x="766.0" y="314.8">Entry</text><text fill="#1b1b1b" font-size="10" text-anchor="middle" x="766.0" y="325.6">1820x1820mm</text><text fill="#1b1b1b" font-size="10" text-anchor="middle" x="766.0" y="336.4">3.3sqm / 2.0jo</text><text fill="#1b1b1b" font-size="9" text-anchor="middle" x="984.4" y="544.9">Hall 1</text><text fill="#1b1b1b" font-size="9" text-anchor="middle" x="984.4" y="555.7">5.8sqm / 3.6jo</text><text fill="#1b1b1b" font-size="9" text-anchor="middle" x="647.3862068965517" y="813.7310344827586">Ldk</text><text fill="#1b1b1b" font-size="9" text-anchor="middle" x="647.3862068965517" y="824.5310344827585">L-shape (2 parts)</text><text fill="#1b1b1b" font-size="9" text-anchor="middle" x="647.3862068965517" y="835.3310344827586">2730x2730 | 3640x4550</text><text fill="#1b1b1b" font-size="9" text-anchor="middle" x="647.3862068965517" y="846.1310344827585">24.0sqm / 14.8jo</text><text fill="#1b1b1b" font-size="10" text-anchor="middle" x="329.2" y="314.8">Storage 1</text><text fill="#1b1b1b" font-size="10" text-anchor="middle" x="329.2" y="325.6">1820x1820mm</text><text fill="#1b1b1b" font-size="10" text-anchor="middle" x="329.2" y="336.4">3.3sqm / 2.0jo</text><text fill="#1b1b1b" font-size="10" text-anchor="middle" x="1093.6" y="915.4">Study 1</text><text fill="#1b1b1b" font-size="10" text-anchor="middle" x="1093.6" y="926.1999999999999">1820x4550mm</text><text fill="#1b1b1b" font-size="10" text-anchor="middle" x="1093.6" y="937.0">8.3sqm / 5.1jo</text><text fill="#1b1b1b" font-size="10" text-anchor="middle" x="1148.1999999999998" y="314.8">Toilet 1</text><text fill="#1b1b1b" font-size="10" text-anchor="middle" x="1148.1999999999998" y="325.6">910x1820mm</text><text fill="#1b1b1b" font-size="10" text-anchor="middle" x="1148.1999999999998" y="336.4">1.7sqm / 1.0jo</text><text fill="#1b1b1b" font-size="10" text-anchor="middle" x="656.8" y="533.2">Wash 1</text><text fill="#1b1b1b" font-size="10" text-anchor="middle" x="656.8" y="544.0">1820x1820mm</text><text fill="#1b1b1b" font-size="10" text-anchor="middle" x="656.8" y="554.8">3.3sqm / 2.0jo</text><text fill="#4a4a4a" font-size="10" text-anchor="middle" x="329.2" y="820.6">CL</text><text fill="#4a4a4a" font-size="10" text-anchor="middle" x="1093.6" y="711.4">CL</text><text fill="#111111" font-size="14" x="220.0" y="180.0">F1 Plan  (8190 x 8190 mm)</text><text fill="#444444" font-size="10" x="220.0" y="198.0">Scale: 1px=8.3mm</text><rect fill="#ffffff" height="216" stroke="#777777" stroke-width="1" width="170" x="1290.8" y="150.0" /><text fill="#111111" font-size="11" x="1298.8" y="164.0">Legend</text><rect fill="#f8f0d9" height="12" stroke="#333333" stroke-width="1" width="12" x="1298.8" y="174.0" /><text fill="#222222" font-size="10" x="1316.8" y="184.0">Entry</text><rect fill="#efe9ff" height="12" stroke="#333333" stroke-width="1" width="12" x="1298.8" y="192.0" /><text fill="#222222" font-size="10" x="1316.8" y="202.0">Hall</text><rect fill="#ffe2b8" height="12" stroke="#333333" stroke-width="1" width="12" x="1298.8" y="210.0" /><text fill="#222222" font-size="10" x="1316.8" y="220.0">Ldk</text><rect fill="#d9f2ff" height="12" stroke="#333333" stroke-width="1" width="12" x="1298.8" y="228.0" /><text fill="#222222" font-size="10" x="1316.8" y="238.0">Bedroom</text><rect fill="#fbe7e6" height="12" stroke="#333333" stroke-width="1" width="12" x="1298.8" y="246.0" /><text fill="#222222" font-size="10" x="1316.8" y="256.0">Toilet</text><rect fill="#e7fbfb" height="12" stroke="#333333" stroke-width="1" width="12" x="1298.8" y="264.0" /><text fill="#222222" font-size="10" x="1316.8" y="274.0">Washroom</text><rect fill="#dcecff" height="12" stroke="#333333" stroke-width="1" width="12" x="1298.8" y="282.0" /><text fill="#222222" font-size="10" x="1316.8" y="292.0">Bath</text><rect fill="#f7f3ea" height="12" stroke="#333333" stroke-width="1" width="12" x="1298.8" y="300.0" /><text fill="#222222" font-size="10" x="1316.8" y="310.0">Closet</text><rect fill="#f0f0f0" height="12" stroke="#333333" stroke-width="1" width="12" x="1298.8" y="318.0" /><text fill="#222222" font-size="10" x="1316.8" y="328.0">Storage</text><line stroke="#6aa4ff" stroke-width="4" x1="1298.8" x2="1325.8" y1="348.0" y2="348.0" /><text fill="#222222" font-size="10" x="1332.8" y="351.0">Window</text><line stroke="#666666" stroke-width="2.4" x1="1298.8" x2="1325.8" y1="364.0" y2="364.0" /><path d="M 1298.8,364.0 A 10,10 0 0 1 1308.8,354.0" fill="none" stroke="#666666" stroke-width="1.2" /><text fill="#222222" font-size="10" x="1332.8" y="367.0">Door</text><rect fill="#ffffff" height="84" stroke="#777777" stroke-width="1" width="200" x="1290.8" y="520.0" /><text fill="#111111" font-size="10" x="1298.8" y="533.0">Area (F1)</text><text fill="#222222" font-size="9" x="1298.8" y="550.0">F1: in 67.1 sqm (20.3 tsubo), out 0.0 sqm (0.0 tsubo)</text><text fill="#222222" font-size="9" x="1298.8" y="566.0">F2: in 67.1 sqm (20.3 tsubo), out 0.0 sqm (0.0 tsubo)</text><text fill="#222222" font-size="9" x="1298.8" y="582.0">Total indoor: 134.2 sqm (40.6 tsubo)</text><text fill="#222222" font-size="9" x="1298.8" y="598.0">Total outdoor: 0.0 sqm (0.0 tsubo)</text><line stroke="#111111" stroke-width="2" x1="175.0" x2="175.0" y1="238.0" y2="208.0" /><polygon fill="#111111" points="175.0,208.0 181.0,214.0 169.0,214.0" /><text fill="#111111" font-size="12" x="170.0" y="202.0">N</text><line stroke="#545454" stroke-width="1.0" x1="220.0" x2="1202.8" y1="148.0" y2="148.0" /><line stroke="#545454" stroke-width="0.8" x1="220.0" x2="220.0" y1="220.0" y2="148.0" /><line stroke="#545454" stroke-width="1.0" x1="220.0" x2="220.0" y1="145.0" y2="151.0" /><line stroke="#545454" stroke-width="0.8" x1="1202.8" x2="1202.8" y1="220.0" y2="148.0" /><line stroke="#545454" stroke-width="1.0" x1="1202.8" x2="1202.8" y1="145.0" y2="151.0" /><text fill="#545454" font-size="8.8" text-anchor="middle" x="711.4" y="145.0">8190mm</text><line stroke="#666666" stroke-width="1.0" x1="220.0" x2="1202.8" y1="166.0" y2="166.0" /><line stroke="#666666" stroke-width="0.8" x1="220.0" x2="220.0" y1="220.0" y2="166.0" /><line stroke="#666666" stroke-width="1.0" x1="220.0" x2="220.0" y1="163.0" y2="169.0" /><line stroke="#666666" stroke-width="0.8" x1="438.4" x2="438.4" y1="220.0" y2="166.0" /><line stroke="#666666" stroke-width="1.0" x1="438.4" x2="438.4" y1="163.0" y2="169.0" /><line stroke="#666666" stroke-width="0.8" x1="656.8" x2="656.8" y1="220.0" y2="166.0" /><line stroke="#666666" stroke-width="1.0" x1="656.8" x2="656.8" y1="163.0" y2="169.0" /><line stroke="#666666" stroke-width="0.8" x1="875.2" x2="875.2" y1="220.0" y2="166.0" /><line stroke="#666666" stroke-width="1.0" x1="875.2" x2="875.2" y1="163.0" y2="169.0" /><line stroke="#666666" stroke-width="0.8" x1="1093.6" x2="1093.6" y1="220.0" y2="166.0" /><line stroke="#666666" stroke-width="1.0" x1="1093.6" x2="1093.6" y1="163.0" y2="169.0" /><line stroke="#666666" stroke-width="0.8" x1="1202.8" x2="1202.8" y1="220.0" y2="166.0" /><line stroke="#666666" stroke-width="1.0" x1="1202.8" x2="1202.8" y1="163.0" y2="169.0" /><text fill="#666666" font-size="8.2" text-anchor="middle" x="329.2" y="163.0">1820</text><text fill="#666666" font-size="8.2" text-anchor="middle" x="547.5999999999999" y="163.0">1820</text><text fill="#666666" font-size="8.2" text-anchor="middle" x="766.0" y="163.0">1820</text><text fill="#666666" font-size="8.2" text-anchor="middle" x="984.4" y="163.0">1820</text><text fill="#666666" font-size="8.2" text-anchor="middle" x="1148.1999999999998" y="163.0">910</text><line stroke="#7a7a7a" stroke-width="1.0" x1="220.0" x2="1202.8" y1="184.0" y2="184.0" /><line stroke="#7a7a7a" stroke-width="0.8" x1="220.0" x2="220.0" y1="220.0" y2="184.0" /><line stroke="#7a7a7a" stroke-width="1.0" x1="220.0" x2="220.0" y1="181.0" y2="187.0" /><line stroke="#7a7a7a" stroke-width="0.8" x1="711.4" x2="711.4" y1="220.0" y2="184.0" /><line stroke="#7a7a7a" stroke-width="1.0" x1="711.4" x2="711.4" y1="181.0" y2="187.0" /><line stroke="#7a7a7a" stroke-width="0.8" x1="820.6" x2="820.6" y1="220.0" y2="184.0" /><line stroke="#7a7a7a" stroke-width="1.0" x1="820.6" x2="820.6" y1="181.0" y2="187.0" /><line stroke="#7a7a7a" stroke-width="0.8" x1="1202.8" x2="1202.8" y1="220.0" y2="184.0" /><line stroke="#7a7a7a" stroke-width="1.0" x1="1202.8" x2="1202.8" y1="181.0" y2="187.0" /><text fill="#7a7a7a" font-size="7.8" text-anchor="middle" x="465.7" y="181.0">4095</text><text fill="#7a7a7a" font-size="7.8" text-anchor="middle" x="766.0" y="181.0">910</text><text fill="#7a7a7a" font-size="7.8" text-anchor="middle" x="1011.6999999999999" y="181.0">3185</text><line stroke="#545454" stroke-width="1.0" x1="220.0" x2="1202.8" y1="1274.8" y2="1274.8" /><line stroke="#545454" stroke-width="0.8" x1="220.0" x2="220.0" y1="1202.8" y2="1274.8" /><line stroke="#545454" stroke-width="1.0" x1="220.0" x2="220.0" y1="1271.8" y2="1277.8" /><line stroke="#545454" stroke-width="0.8" x1="1202.8" x2="1202.8" y1="1202.8" y2="1274.8" /><line stroke="#545454" stroke-width="1.0" x1="1202.8" x2="1202.8" y1="1271.8" y2="1277.8" /><text fill="#545454" font-size="8.8" text-anchor="middle" x="711.4" y="1284.8">8190mm</text><line stroke="#666666" stroke-width="1.0" x1="220.0" x2="1202.8" y1="1256.8" y2="1256.8" /><line stroke="#666666" stroke-width="0.8" x1="220.0" x2="220.0" y1="1202.8" y2="1256.8" /><line stroke="#666666" stroke-width="1.0" x1="220.0" x2="220.0" y1="1253.8" y2="1259.8" /><line stroke="#666666" stroke-width="0.8" x1="547.6" x2="547.6" y1="1202.8" y2="1256.8" /><line stroke="#666666" stroke-width="1.0" x1="547.6" x2="547.6" y1="1253.8" y2="1259.8" /><line stroke="#666666" stroke-width="0.8" x1="984.4" x2="984.4" y1="1202.8" y2="1256.8" /><line stroke="#666666" stroke-width="1.0" x1="984.4" x2="984.4" y1="1253.8" y2="1259.8" /><line stroke="#666666" stroke-width="0.8" x1="1202.8" x2="1202.8" y1="1202.8" y2="1256.8" /><line stroke="#666666" stroke-width="1.0" x1="1202.8" x2="1202.8" y1="1253.8" y2="1259.8" /><text fill="#666666" font-size="8.2" text-anchor="middle" x="383.79999999999995" y="1266.8">2730</text><text fill="#666666" font-size="8.2" text-anchor="middle" x="766.0" y="1266.8">3640</text><text fill="#666666" font-size="8.2" text-anchor="middle" x="1093.6" y="1266.8">1820</text><line stroke="#7a7a7a" stroke-width="1.0" x1="220.0" x2="1202.8" y1="1238.8" y2="1238.8" /><line stroke="#7a7a7a" stroke-width="0.8" x1="220.0" x2="220.0" y1="1202.8" y2="1238.8" /><line stroke="#7a7a7a" stroke-width="1.0" x1="220.0" x2="220.0" y1="1235.8" y2="1241.8" /><line stroke="#7a7a7a" stroke-width="0.8" x1="329.2" x2="329.2" y1="1202.8" y2="1238.8" /><line stroke="#7a7a7a" stroke-width="1.0" x1="329.2" x2="329.2" y1="1235.8" y2="1241.8" /><line stroke="#7a7a7a" stroke-width="0.8" x1="438.4" x2="438.4" y1="1202.8" y2="1238.8" /><line stroke="#7a7a7a" stroke-width="1.0" x1="438.4" x2="438.4" y1="1235.8" y2="1241.8" /><line stroke="#7a7a7a" stroke-width="0.8" x1="602.2" x2="602.2" y1="1202.8" y2="1238.8" /><line stroke="#7a7a7a" stroke-width="1.0" x1="602.2" x2="602.2" y1="1235.8" y2="1241.8" /><line stroke="#7a7a7a" stroke-width="0.8" x1="766.0" x2="766.0" y1="1202.8" y2="1238.8" /><line stroke="#7a7a7a" stroke-width="1.0" x1="766.0" x2="766.0" y1="1235.8" y2="1241.8" /><line stroke="#7a7a7a" stroke-width="0.8" x1="929.8" x2="929.8" y1="1202.8" y2="1238.8" /><line stroke="#7a7a7a" stroke-width="1.0" x1="929.8" x2="929.8" y1="1235.8" y2="1241.8" /><line stroke="#7a7a7a" stroke-width="0.8" x1="1039.0" x2="1039.0" y1="1202.8" y2="1238.8" /><line stroke="#7a7a7a" stroke-width="1.0" x1="1039.0" x2="1039.0" y1="1235.8" y2="1241.8" /><line stroke="#7a7a7a" stroke-width="0.8" x1="1148.2" x2="1148.2" y1="1202.8" y2="1238.8" /><line stroke="#7a7a7a" stroke-width="1.0" x1="1148.2" x2="1148.2" y1="1235.8" y2="1241.8" /><line stroke="#7a7a7a" stroke-width="0.8" x1="1202.8" x2="1202.8" y1="1202.8" y2="1238.8" /><line stroke="#7a7a7a" stroke-width="1.0" x1="1202.8" x2="1202.8" y1="1235.8" y2="1241.8" /><text fill="#7a7a7a" font-size="7.8" text-anchor="middle" x="274.6" y="1248.8">910</text><text fill="#7a7a7a" font-size="7.8" text-anchor="middle" x="383.79999999999995" y="1248.8">910</text><text fill="#7a7a7a" font-size="7.8" text-anchor="middle" x="520.3" y="1248.8">1365</text><text fill="#7a7a7a" font-size="7.8" text-anchor="middle" x="684.0999999999999" y="1248.8">1365</text><text fill="#7a7a7a" font-size="7.8" text-anchor="middle" x="847.9" y="1248.8">1365</text><text fill="#7a7a7a" font-size="7.8" text-anchor="middle" x="984.4" y="1248.8">910</text><text fill="#7a7a7a" font-size="7.8" text-anchor="middle" x="1093.6" y="1248.8">910</text><line stroke="#545454" stroke-width="1.0" x1="148.0" x2="148.0" y1="220.0" y2="1202.8" /><line stroke="#545454" stroke-width="0.8" x1="220.0" x2="148.0" y1="220.0" y2="220.0" /><line stroke="#545454" stroke-width="1.0" x1="145.0" x2="151.0" y1="220.0" y2="220.0" /><line stroke="#545454" stroke-width="0.8" x1="220.0" x2="148.0" y1="1202.8" y2="1202.8" /><line stroke="#545454" stroke-width="1.0" x1="145.0" x2="151.0" y1="1202.8" y2="1202.8" /><text fill="#545454" font-size="8.8" x="144.0" y="711.4">8190mm</text><line stroke="#666666" stroke-width="1.0" x1="166.0" x2="166.0" y1="220.0" y2="1202.8" /><line stroke="#666666" stroke-width="0.8" x1="220.0" x2="166.0" y1="220.0" y2="220.0" /><line stroke="#666666" stroke-width="1.0" x1="163.0" x2="169.0" y1="220.0" y2="220.0" /><line stroke="#666666" stroke-width="0.8" x1="220.0" x2="166.0" y1="438.4" y2="438.4" /><line stroke="#666666" stroke-width="1.0" x1="163.0" x2="169.0" y1="438.4" y2="438.4" /><line stroke="#666666" stroke-width="0.8" x1="220.0" x2="166.0" y1="766.0" y2="766.0" /><line stroke="#666666" stroke-width="1.0" x1="163.0" x2="169.0" y1="766.0" y2="766.0" /><line stroke="#666666" stroke-width="0.8" x1="220.0" x2="166.0" y1="1202.8" y2="1202.8" /><line stroke="#666666" stroke-width="1.0" x1="163.0" x2="169.0" y1="1202.8" y2="1202.8" /><text fill="#666666" font-size="8.2" x="162.0" y="329.2">1820</text><text fill="#666666" font-size="8.2" x="162.0" y="602.2">2730</text><text fill="#666666" font-size="8.2" x="162.0" y="984.4">3640</text><line stroke="#7a7a7a" stroke-width="1.0" x1="184.0" x2="184.0" y1="220.0" y2="1202.8" /><line stroke="#7a7a7a" stroke-width="0.8" x1="220.0" x2="184.0" y1="220.0" y2="220.0" /><line stroke="#7a7a7a" stroke-width="1.0" x1="181.0" x2="187.0" y1="220.0" y2="220.0" /><line stroke="#7a7a7a" stroke-width="0.8" x1="220.0" x2="184.0" y1="547.6" y2="547.6" /><line stroke="#7a7a7a" stroke-width="1.0" x1="181.0" x2="187.0" y1="547.6" y2="547.6" /><line stroke="#7a7a7a" stroke-width="0.8" x1="220.0" x2="184.0" y1="656.8" y2="656.8" /><line stroke="#7a7a7a" stroke-width="1.0" x1="181.0" x2="187.0" y1="656.8" y2="656.8" /><line stroke="#7a7a7a" stroke-width="0.8" x1="220.0" x2="184.0" y1="820.6" y2="820.6" /><line stroke="#7a7a7a" stroke-width="1.0" x1="181.0" x2="187.0" y1="820.6" y2="820.6" /><line stroke="#7a7a7a" stroke-width="0.8" x1="220.0" x2="184.0" y1="984.4" y2="984.4" /><line stroke="#7a7a7a" stroke-width="1.0" x1="181.0" x2="187.0" y1="984.4" y2="984.4" /><line stroke="#7a7a7a" stroke-width="0.8" x1="220.0" x2="184.0" y1="1148.2" y2="1148.2" /><line stroke="#7a7a7a" stroke-width="1.0" x1="181.0" x2="187.0" y1="1148.2" y2="1148.2" /><line stroke="#7a7a7a" stroke-width="0.8" x1="220.0" x2="184.0" y1="1202.8" y2="1202.8" /><line stroke="#7a7a7a" stroke-width="1.0" x1="181.0" x2="187.0" y1="1202.8" y2="1202.8" /><text fill="#7a7a7a" font-size="7.8" x="180.0" y="383.79999999999995">2730</text><text fill="#7a7a7a" font-size="7.8" x="180.0" y="602.2">910</text><text fill="#7a7a7a" font-size="7.8" x="180.0" y="738.6999999999999">1365</text><text fill="#7a7a7a" font-size="7.8" x="180.0" y="902.5">1365</text><text fill="#7a7a7a" font-size="7.8" x="180.0" y="1066.3">1365</text><line stroke="#545454" stroke-width="1.0" x1="1274.8" x2="1274.8" y1="220.0" y2="1202.8" /><line stroke="#545454" stroke-width="0.8" x1="1202.8" x2="1274.8" y1="220.0" y2="220.0" /><line stroke="#545454" stroke-width="1.0" x1="1271.8" x2="1277.8" y1="220.0" y2="220.0" /><line stroke="#545454" stroke-width="0.8" x1="1202.8" x2="1274.8" y1="1202.8" y2="1202.8" /><line stroke="#545454" stroke-width="1.0" x1="1271.8" x2="1277.8" y1="1202.8" y2="1202.8" /><text fill="#545454" font-size="8.8" x="1279.8" y="711.4">8190mm</text><line stroke="#666666" stroke-width="1.0" x1="1256.8" x2="1256.8" y1="220.0" y2="1202.8" /><line stroke="#666666" stroke-width="0.8" x1="1202.8" x2="1256.8" y1="220.0" y2="220.0" /><line stroke="#666666" stroke-width="1.0" x1="1253.8" x2="1259.8" y1="220.0" y2="220.0" /><line stroke="#666666" stroke-width="0.8" x1="1202.8" x2="1256.8" y1="438.4" y2="438.4" /><line stroke="#666666" stroke-width="1.0" x1="1253.8" x2="1259.8" y1="438.4" y2="438.4" /><line stroke="#666666" stroke-width="0.8" x1="1202.8" x2="1256.8" y1="656.8" y2="656.8" /><line stroke="#666666" stroke-width="1.0" x1="1253.8" x2="1259.8" y1="656.8" y2="656.8" /><line stroke="#666666" stroke-width="0.8" x1="1202.8" x2="1256.8" y1="1202.8" y2="1202.8" /><line stroke="#666666" stroke-width="1.0" x1="1253.8" x2="1259.8" y1="1202.8" y2="1202.8" /><text fill="#666666" font-size="8.2" x="1261.8" y="329.2">1820</text><text fill="#666666" font-size="8.2" x="1261.8" y="547.5999999999999">1820</text><text fill="#666666" font-size="8.2" x="1261.8" y="929.8">4550</text><line stroke="#7a7a7a" stroke-width="1.0" x1="1238.8" x2="1238.8" y1="220.0" y2="1202.8" /><line stroke="#7a7a7a" stroke-width="0.8" x1="1202.8" x2="1238.8" y1="220.0" y2="220.0" /><line stroke="#7a7a7a" stroke-width="1.0" x1="1235.8" x2="1241.8" y1="220.0" y2="220.0" /><line stroke="#7a7a7a" stroke-width="0.8" x1="1202.8" x2="1238.8" y1="711.4" y2="711.4" /><line stroke="#7a7a7a" stroke-width="1.0" x1="1235.8" x2="1241.8" y1="711.4" y2="711.4" /><line stroke="#7a7a7a" stroke-width="0.8" x1="1202.8" x2="1238.8" y1="929.8" y2="929.8" /><line stroke="#7a7a7a" stroke-width="1.0" x1="1235.8" x2="1241.8" y1="929.8" y2="929.8" /><line stroke="#7a7a7a" stroke-width="0.8" x1="1202.8" x2="1238.8" y1="1148.2" y2="1148.2" /><line stroke="#7a7a7a" stroke-width="1.0" x1="1235.8" x2="1241.8" y1="1148.2" y2="1148.2" /><line stroke="#7a7a7a" stroke-width="0.8" x1="1202.8" x2="1238.8" y1="1202.8" y2="1202.8" /><line stroke="#7a7a7a" stroke-width="1.0" x1="1235.8" x2="1241.8" y1="1202.8" y2="1202.8" /><text fill="#7a7a7a" font-size="7.8" x="1243.8" y="465.7">4095</text><text fill="#7a7a7a" font-size="7.8" x="1243.8" y="820.6">1820</text><text fill="#7a7a7a" font-size="7.8" x="1243.8" y="1039.0">1820</text></svg>