<?xml version="1.0" encoding="utf-8" ?>
<svg baseProfile="tiny" height="1422.8px" version="1.2" width="1422.8px" xmlns="http://www.w3.org/2000/svg" xmlns:ev="http://www.w3.org/2001/xml-events" xmlns:xlink="http://www.w3.org/1999/xlink"><defs /><rect fill="#fafafa" height="1422.8" width="1422.8" x="0" y="0" /><line stroke="#ececec" stroke-width="0.7" x1="220.0" x2="220.0" y1="220.0" y2="1202.8" /><line stroke="#ececec" stroke-width="0.7" x1="274.6" x2="274.6" y1="220.0" y2="1202.8" /><line stroke="#ececec" stroke-width="0.7" x1="329.2" x2="329.2" y1="220.0" y2="1202.8" /><line stroke="#ececec" stroke-width="0.7" x1="383.8" x2="383.8" y1="220.0" y2="1202.8" /><line stroke="#ececec" stroke-width="0.7" x1="438.4" x2="438.4" y1="220.0" y2="1202.8" /><line stroke="#ececec" stroke-width="0.7" x1="493.0" x2="493.0" y1="220.0" y2="1202.8" /><line stroke="#ececec" stroke-width="0.7" x1="547.6" x2="547.6" y1="220.0" y2="1202.8" /><line stroke="#ececec" stroke-width="0.7" x1="602.2" x2="602.2" y1="220.0" y2="1202.8" /><line stroke="#ececec" stroke-width="0.7" x1="656.8" x2="656.8" y1="220.0" y2="1202.8" /><line stroke="#ececec" stroke-width="0.7" x1="711.4" x2="711.4" y1="220.0" y2="1202.8" /><line stroke="#ececec" stroke-width="0.7" x1="766.0" x2="766.0" y1="220.0" y2="1202.8" /><line stroke="#ececec" stroke-width="0.7" x1="820.6" x2="820.6" y1="220.0" y2="1202.8" /><line stroke="#ececec" stroke-width="0.7" x1="875.2" x2="875.2" y1="220.0" y2="1202.8" /><line stroke="#ececec" stroke-width="0.7" x1="929.8" x2="929.8" y1="220.0" y2="1202.8" /><line stroke="#ececec" stroke-width="0.7" x1="984.4" x2="984.4" y1="220.0" y2="1202.8" /><line stroke="#ececec" stroke-width="0.7" x1="1039.0" x2="1039.0" y1="220.0" y2="1202.8" /><line stroke="#ececec" stroke-width="0.7" x1="1093.6" x2="1093.6" y1="220.0" y2="1202.8" /><line stroke="#ececec" stroke-width="0.7" x1="1148.2" x2="1148.2" y1="220.0" y2="1202.8" /><line stroke="#ececec" stroke-width="0.7" x1="1202.8" x2="1202.8" y1="220.0" y2="1202.8" /><line stroke="#d1d1d1" stroke-width="1.1" x1="220.0" x2="220.0" y1="220.0" y2="1202.8" /><line stroke="#d1d1d1" stroke-width="1.1" x1="329.2" x2="329.2" y1="220.0" y2="1202.8" /><line stroke="#d1d1d1" stroke-width="1.1" x1="438.4" x2="438.4" y1="220.0" y2="1202.8" /><line stroke="#d1d1d1" stroke-width="1.1" x1="547.6" x2="547.6" y1="220.0" y2="1202.8" /><line stroke="#d1d1d1" stroke-width="1.1" x1="656.8" x2="656.8" y1="220.0" y2="1202.8" /><line stroke="#d1d1d1" stroke-width="1.1" x1="766.0" x2="766.0" y1="220.0" y2="1202.8" /><line stroke="#d1d1d1" stroke-width="1.1" x1="875.2" x2="875.2" y1="220.0" y2="1202.8" /><line stroke="#d1d1d1" stroke-width="1.1" x1="984.4" x2="984.4" y1="220.0" y2="1202.8" /><line stroke="#d1d1d1" stroke-width="1.1" x1="1093.6" x2="1093.6" y1="220.0" y2="1202.8" /><line stroke="#d1d1d1" stroke-width="1.1" x1="1202.8" x2="1202.8" y1="220.0" y2="1202.8" /><line stroke="#d1d1d1" stroke-width="1.1" x1="220.0" x2="1202.8" y1="220.0" y2="220.0" /><line stroke="#d1d1d1" stroke-width="1.1" x1="220.0" x2="1202.8" y1="329.2" y2="329.2" /><line stroke="#d1d1d1" stroke-width="1.1" x1="220.0" x2="1202.8" y1="438.4" y2="438.4" /><line stroke="#d1d1d1" stroke-width="1.1" x1="220.0" x2="1202.8" y1="547.6" y2="547.6" /><line stroke="#d1d1d1" stroke-width="1.1" x1="220.0" x2="1202.8" y1="656.8" y2="656.8" /><line stroke="#d1d1d1" stroke-width="1.1" x1="220.0" x2="1202.8" y1="766.0" y2="766.0" /><line stroke="#d1d1d1" stroke-width="1.1" x1="220.0" x2="1202.8" y1="875.2" y2="875.2" /><line stroke="#d1d1d1" stroke-width="1.1" x1="220.0" x2="1202.8" y1="984.4" y2="984.4" /><line stroke="#d1d1d1" stroke-width="1.1" x1="220.0" x2="1202.8" y1="1093.6" y2="1093.6" /><line stroke="#d1d1d1" stroke-width="1.1" x1="220.0" x2="1202.8" y1="1202.8" y2="1202.8" /><line stroke="#ececec" stroke-width="0.7" x1="220.0" x2="1202.8" y1="220.0" y2="220.0" /><line stroke="#ececec" stroke-width="0.7" x1="220.0" x2="1202.8" y1="274.6" y2="274.6" /><line stroke="#ececec" stroke-width="0.7" x1="220.0" x2="1202.8" y1="329.2" y2="329.2" /><line stroke="#ececec" stroke-width="0.7" x1="220.0" x2="1202.8" y1="383.8" y2="383.8" /><line stroke="#ececec" stroke-width="0.7" x1="220.0" x2="1202.8" y1="438.4" y2="438.4" /><line stroke="#ececec" stroke-width="0.7" x1="220.0" x2="1202.8" y1="493.0" y2="493.0" /><line stroke="#ececec" stroke-width="0.7" x1="220.0" x2="1202.8" y1="547.6" y2="547.6" /><line stroke="#ececec" stroke-width="0.7" x1="220.0" x2="1202.8" y1="602.2" y2="602.2" /><line stroke="#ececec" stroke-width="0.7" x1="220.0" x2="1202.8" y1="656.8" y2="656.8" /><line stroke="#ececec" stroke-width="0.7" x1="220.0" x2="1202.8" y1="711.4" y2="711.4" /><line stroke="#ececec" stroke-width="0.7" x1="220.0" x2="1202.8" y1="766.0" y2="766.0" /><line stroke="#ececec" stroke-width="0.7" x1="220.0" x2="1202.8" y1="820.6" y2="820.6" /><line stroke="#ececec" stroke-width="0.7" x1="220.0" x2="1202.8" y1="875.2" y2="875.2" /><line stroke="#ececec" stroke-width="0.7" x1="220.0" x2="1202.8" y1="929.8" y2="929.8" /><line stroke="#ececec" stroke-width="0.7" x1="220.0" x2="1202.8" y1="984.4" y2="984.4" /><line stroke="#ececec" stroke-width="0.7" x1="220.0" x2="1202.8" y1="1039.0" y2="1039.0" /><line stroke="#ececec" stroke-width="0.7" x1="220.0" x2="1202.8" y1="1093.6" y2="1093.6" /><line stroke="#ececec" stroke-width="0.7" x1="220.0" x2="1202.8" y1="1148.2" y2="1148.2" /><line stroke="#ececec" stroke-width="0.7" x1="220.0" x2="1202.8" y1="1202.8" y2="1202.8" /><rect fill="none" height="982.8" stroke="#6a6a6a" stroke-dasharray="8,4" stroke-width="2" width="982.8" x="220.0" y="220.0" /><rect fill="none" height="982.8" stroke="#1f1f1f" stroke-width="3.5" width="982.8" x="220.0" y="220.0" /><text fill="#555555" font-size="10" x="222.0" y="160.0">Site Envelope = Building Footprint</text><rect fill="#dcecff" height="218.4" stroke="none" width="218.4" x="984.4" y="220.0" /><line stroke="#2f2f2f" stroke-width="2.2" x1="984.4" x2="1202.8" y1="438.4" y2="438.4" /><line stroke="#2f2f2f" stroke-width="2.2" x1="984.4" x2="1202.8" y1="220.0" y2="220.0" /><line stroke="#2f2f2f" stroke-width="2.2" x1="1202.8" x2="1202.8" y1="220.0" y2="438.4" /><line stroke="#2f2f2f" stroke-width="2.2" x1="984.4" x2="984.4" y1="220.0" y2="438.4" /><rect fill="#d9f2ff" height="327.6" stroke="none" width="327.6" x="220.0" y="875.2" /><line stroke="#2f2f2f" stroke-width="2.2" x1="220.0" x2="547.6" y1="875.2" y2="875.2" /><line stroke="#2f2f2f" stroke-width="2.2" x1="220.0" x2="547.6" y1="1202.8" y2="1202.8" /><line stroke="#2f2f2f" stroke-width="2.2" x1="547.6" x2="547.6" y1="875.2" y2="1202.8" /><line stroke="#2f2f2f" stroke-width="2.2" x1="220.0" x2="220.0" y1="875.2" y2="1202.8" /><rect fill="#f8f0d9" height="218.4" stroke="none" width="218.4" x="220.0" y="329.2" /><line stroke="#2f2f2f" stroke-width="2.2" x1="220.0" x2="438.4" y1="329.2" y2="329.2" /><line stroke="#2f2f2f" stroke-width="2.2" x1="220.0" x2="438.4" y1="547.6" y2="547.6" /><line stroke="#2f2f2f" stroke-width="2.2" x1="438.4" x2="438.4" y1="329.2" y2="547.6" /><line stroke="#2f2f2f" stroke-width="2.2" x1="220.0" x2="220.0" y1="329.2" y2="547.6" /><rect fill="#efe9ff" height="109.2" stroke="none" width="109.2" x="220.0" y="220.0" /><rect fill="#efe9ff" height="109.2" stroke="none" width="436.8" x="329.2" y="220.0" /><rect fill="#efe9ff" height="327.6" stroke="none" width="109.2" x="656.8" y="329.2" /><line stroke="#2f2f2f" stroke-width="2.2" x1="220.0" x2="766.0" y1="220.0" y2="220.0" /><line stroke="#2f2f2f" stroke-width="2.2" x1="220.0" x2="656.8" y1="329.2" y2="329.2" /><line stroke="#2f2f2f" stroke-width="2.2" x1="656.8" x2="766.0" y1="656.8" y2="656.8" /><line stroke="#2f2f2f" stroke-width="2.2" x1="766.0" x2="766.0" y1="220.0" y2="656.8" /><line stroke="#2f2f2f" stroke-width="2.2" x1="656.8" x2="656.8" y1="329.2" y2="656.8" /><line stroke="#2f2f2f" stroke-width="2.2" x1="220.0" x2="220.0" y1="220.0" y2="329.2" /><rect fill="#ffe2b8" height="218.4" stroke="none" width="218.4" x="766.0" y="438.4" /><rect fill="#ffe2b8" height="546.0" stroke="none" width="655.2" x="547.6" y="656.8" /><line stroke="#2f2f2f" stroke-width="2.2" x1="547.6" x2="1202.8" y1="1202.8" y2="1202.8" /><line stroke="#2f2f2f" stroke-width="2.2" x1="547.6" x2="766.0" y1="656.8" y2="656.8" /><line stroke="#2f2f2f" stroke-width="2.2" x1="984.4" x2="1202.8" y1="656.8" y2="656.8" /><line stroke="#2f2f2f" stroke-width="2.2" x1="766.0" x2="984.4" y1="438.4" y2="438.4" /><line stroke="#2f2f2f" stroke-width="2.2" x1="547.6" x2="547.6" y1="656.8" y2="1202.8" /><line stroke="#2f2f2f" stroke-width="2.2" x1="1202.8" x2="1202.8" y1="656.8" y2="1202.8" /><line stroke="#2f2f2f" stroke-width="2.2" x1="984.4" x2="984.4" y1="438.4" y2="656.8" /><line stroke="#2f2f2f" stroke-width="2.2" x1="766.0" x2="766.0" y1="438.4" y2="656.8" /><rect fill="#f0f0f0" height="218.4" stroke="none" width="218.4" x="984.4" y="438.4" /><line stroke="#2f2f2f" stroke-width="2.2" x1="984.4" x2="1202.8" y1="438.4" y2="438.4" /><line stroke="#2f2f2f" stroke-width="2.2" x1="984.4" x2="1202.8" y1="656.8" y2="656.8" /><line stroke="#2f2f2f" stroke-width="2.2" x1="1202.8" x2="1202.8" y1="438.4" y2="656.8" /><line stroke="#2f2f2f" stroke-width="2.2" x1="984.4" x2="984.4" y1="438.4" y2="656.8" /><rect fill="#d9f2ff" height="327.6" stroke="none" width="327.6" x="220.0" y="547.6" /><line stroke="#2f2f2f" stroke-width="2.2" x1="220.0" x2="547.6" y1="547.6" y2="547.6" /><line stroke="#2f2f2f" stroke-width="2.2" x1="220.0" x2="547.6" y1="875.2" y2="875.2" /><line stroke="#2f2f2f" stroke-width="2.2" x1="220.0" x2="220.0" y1="547.6" y2="875.2" /><line stroke="#2f2f2f" stroke-width="2.2" x1="547.6" x2="547.6" y1="547.6" y2="875.2" /><rect fill="#fbe7e6" height="218.4" stroke="none" width="109.2" x="438.4" y="329.2" /><line stroke="#2f2f2f" stroke-width="2.2" x1="438.4" x2="547.6" y1="329.2" y2="329.2" /><line stroke="#2f2f2f" stroke-width="2.2" x1="438.4" x2="547.6" y1="547.6" y2="547.6" /><line stroke="#2f2f2f" stroke-width="2.2" x1="438.4" x2="438.4" y1="329.2" y2="547.6" /><line stroke="#2f2f2f" stroke-width="2.2" x1="547.6" x2="547.6" y1="329.2" y2="547.6" /><rect fill="#e7fbfb" height="218.4" stroke="none" width="218.4" x="766.0" y="220.0" /><line stroke="#2f2f2f" stroke-width="2.2" x1="766.0" x2="984.4" y1="438.4" y2="438.4" /><line stroke="#2f2f2f" stroke-width="2.2" x1="766.0" x2="984.4" y1="220.0" y2="220.0" /><line stroke="#2f2f2f" stroke-width="2.2" x1="984.4" x2="984.4" y1="220.0" y2="438.4" /><line stroke="#2f2f2f" stroke-width="2.2" x1="766.0" x2="766.0" y1="220.0" y2="438.4" /><rect fill="none" height="54.6" stroke="#8a6b4a" stroke-width="1.0" width="209.664" x="901.408" y="711.4" /><rect fill="none" height="120.12" stroke="#8a6b4a" stroke-width="1.0" width="49.14" x="1061.932" y="711.4" /><circle cx="963.9904" cy="738.7" fill="none" r="8.4" stroke="#8a6b4a" stroke-width="0.9" /><circle cx="985.5904" cy="738.7" fill="none" r="8.4" stroke="#8a6b4a" stroke-width="0.9" /><rect fill="none" height="28.8288" stroke="#8a6b4a" stroke-width="0.9" width="33.4152" x="1069.303" y="761.8504" /><rect fill="none" height="65.52" stroke="#8a6b4a" stroke-width="1.0" width="144.144" x="809.68" y="886.12" /><rect fill="none" height="111.384" stroke="#7f7f7f" stroke-width="1.1" width="183.456" x="292.072" y="934.168" /><line stroke="#7f7f7f" stroke-width="0.9" x1="292.072" x2="475.528" y1="973.1524" y2="973.1524" /><rect fill="none" height="111.384" stroke="#7f7f7f" stroke-width="1.1" width="183.456" x="292.072" y="606.568" /><line stroke="#7f7f7f" stroke-width="0.9" x1="292.072" x2="475.528" y1="645.5524" y2="645.5524" /><rect fill="none" height="48.048" stroke="#6f6f6f" stroke-width="1.0" width="74.256" x="805.312" y="259.312" /><rect fill="none" height="48.048" stroke="#6f6f6f" stroke-width="1.0" width="74.256" x="892.672" y="259.312" /><line stroke="#8f8f8f" stroke-width="0.8" x1="796.576" x2="953.824" y1="244.912" y2="244.912" /><circle cx="958.0" cy="246.4" fill="none" r="8.4" stroke="#7c7c7c" stroke-width="0.9" /><line stroke="#7c7c7c" stroke-width="0.8" x1="947.2" x2="968.8" y1="246.4" y2="246.4" /><line stroke="#7c7c7c" stroke-width="0.8" x1="958.0" x2="958.0" y1="235.6" y2="257.2" /><rect fill="none" height="109.2" rx="6" ry="6" stroke="#6f6f6f" stroke-width="1.0" width="135.408" x="1028.08" y="268.048" /><circle cx="1176.4" cy="246.4" fill="none" r="8.4" stroke="#7c7c7c" stroke-width="0.9" /><line stroke="#7c7c7c" stroke-width="0.8" x1="1165.6" x2="1187.2" y1="246.4" y2="246.4" /><line stroke="#7c7c7c" stroke-width="0.8" x1="1176.4" x2="1176.4" y1="235.6" y2="257.2" /><line stroke="#9a9a9a" stroke-width="0.9" x1="1010.608" x2="1176.592" y1="477.712" y2="477.712" /><line stroke="#9a9a9a" stroke-width="0.9" x1="1010.608" x2="1176.592" y1="617.488" y2="617.488" /><rect fill="#ffffff" height="327.6" stroke="#202020" stroke-dasharray="8,4" stroke-width="2.6" width="109.2" x="547.6" y="329.2" /><line stroke="#2a2a2a" stroke-width="1.4" x1="560.704" x2="643.696" y1="354.4" y2="354.4" /><line stroke="#2a2a2a" stroke-width="1.4" x1="560.704" x2="643.696" y1="379.6" y2="379.6" /><line stroke="#2a2a2a" stroke-width="1.4" x1="560.704" x2="643.696" y1="404.8" y2="404.8" /><line stroke="#2a2a2a" stroke-width="1.4" x1="560.704" x2="643.696" y1="430.0" y2="430.0" /><line stroke="#2a2a2a" stroke-width="1.4" x1="560.704" x2="643.696" y1="455.2" y2="455.2" /><line stroke="#2a2a2a" stroke-width="1.4" x1="560.704" x2="643.696" y1="480.4" y2="480.4" /><line stroke="#2a2a2a" stroke-width="1.4" x1="560.704" x2="643.696" y1="505.6" y2="505.6" /><line stroke="#2a2a2a" stroke-width="1.4" x1="560.704" x2="643.696" y1="530.8" y2="530.8" /><line stroke="#2a2a2a" stroke-width="1.4" x1="560.704" x2="643.696" y1="556.0" y2="556.0" /><line stroke="#2a2a2a" stroke-width="1.4" x1="560.704" x2="643.696" y1="581.2" y2="581.2" /><line stroke="#2a2a2a" stroke-width="1.4" x1="560.704" x2="643.696" y1="606.4" y2="606.4" /><line stroke="#2a2a2a" stroke-width="1.4" x1="560.704" x2="643.696" y1="631.6" y2="631.6" /><text fill="#202020" font-size="11" text-anchor="middle" x="602.2" y="493.0">Stair (UP)</text><text fill="#3a3a3a" font-size="9.0" text-anchor="middle" x="602.2" y="507.4">13R/12T</text><text fill="#4a4a4a" font-size="7.8" text-anchor="middle" x="602.2" y="515.8">H2730 R210 T228</text><line stroke="#ffffff" stroke-width="7" x1="547.6" x2="656.8" y1="329.2" y2="329.2" /><line stroke="#5e5e5e" stroke-width="1.0" x1="547.6" x2="656.8" y1="329.2" y2="329.2" /><line stroke="#ffffff" stroke-width="6" x1="229.0" x2="320.2" y1="329.2" y2="329.2" /><line stroke="#ffffff" stroke-width="6" x1="766.0" x2="766.0" y1="498.46" y2="596.74" /><line stroke="#595959" stroke-width="1.2" x1="766.0" x2="702.118" y1="498.46" y2="562.342" /><path d="M 766.0,562.342 A 63.882,63.882 0 0 1 702.1179999999999,562.342" fill="none" stroke="#7a7a7a" stroke-width="1.0" /><line stroke="#ffffff" stroke-width="6" x1="447.4" x2="538.6" y1="329.2" y2="329.2" /><line stroke="#ffffff" stroke-width="6" x1="766.0" x2="766.0" y1="229.0" y2="320.2" /><line stroke="#ffffff" stroke-width="6" x1="984.4" x2="984.4" y1="280.06" y2="378.34" /><line stroke="#595959" stroke-width="1.2" x1="984.4" x2="920.518" y1="280.06" y2="343.942" /><path d="M 984.4,343.942 A 63.882,63.882 0 0 1 920.5179999999999,343.942" fill="none" stroke="#7a7a7a" stroke-width="1.0" /><line stroke="#ffffff" stroke-width="6" x1="547.6" x2="547.6" y1="980.2" y2="1097.8" /><line stroke="#595959" stroke-width="1.2" x1="547.6" x2="624.04" y1="980.2" y2="1056.64" /><path d="M 547.5999999999999,1056.6399999999999 A 76.44,76.44 0 0 1 624.04,1056.6399999999999" fill="none" stroke="#7a7a7a" stroke-width="1.0" /><line stroke="#ffffff" stroke-width="6" x1="547.6" x2="547.6" y1="716.86" y2="815.14" /><line stroke="#595959" stroke-width="1.2" x1="547.6" x2="483.718" y1="716.86" y2="780.742" /><path d="M 547.5999999999999,780.7420000000001 A 63.882,63.882 0 0 1 483.718,780.7420000000001" fill="none" stroke="#7a7a7a" stroke-width="1.0" /><line stroke="#ffffff" stroke-width="6" x1="984.4" x2="984.4" y1="498.46" y2="596.74" /><line stroke="#595959" stroke-width="1.2" x1="984.4" x2="1048.282" y1="498.46" y2="562.342" /><path d="M 984.4,562.342 A 63.882,63.882 0 0 1 1048.2820000000002,562.342" fill="none" stroke="#7a7a7a" stroke-width="1.0" /><line stroke="#ffffff" stroke-width="7" x1="220.0" x2="220.0" y1="389.26" y2="487.54" /><line stroke="#595959" stroke-width="1.2" x1="220.0" x2="283.882" y1="389.26" y2="453.142" /><path d="M 220.0,453.14199999999994 A 63.882,63.882 0 0 1 283.882,453.14199999999994" fill="none" stroke="#7a7a7a" stroke-width="1.0" /><line stroke="#66a7ff" stroke-width="2.2" x1="1200.16" x2="1200.16" y1="716.86" y2="902.5" /><line stroke="#66a7ff" stroke-width="2.2" x1="1205.44" x2="1205.44" y1="716.86" y2="902.5" /><line stroke="#66a7ff" stroke-width="2.2" x1="1200.16" x2="1200.16" y1="957.1" y2="1142.74" /><line stroke="#66a7ff" stroke-width="2.2" x1="1205.44" x2="1205.44" y1="957.1" y2="1142.74" /><line stroke="#66a7ff" stroke-width="2.2" x1="635.056" x2="827.056" y1="1200.16" y2="1200.16" /><line stroke="#66a7ff" stroke-width="2.2" x1="635.056" x2="827.056" y1="1205.44" y2="1205.44" /><line stroke="#66a7ff" stroke-width="2.2" x1="923.344" x2="1115.344" y1="1200.16" y2="1200.16" /><line stroke="#66a7ff" stroke-width="2.2" x1="923.344" x2="1115.344" y1="1205.44" y2="1205.44" /><line stroke="#66a7ff" stroke-width="2.2" x1="217.36" x2="217.36" y1="983.32" y2="1094.68" /><line stroke="#66a7ff" stroke-width="2.2" x1="222.64" x2="222.64" y1="983.32" y2="1094.68" /><line stroke="#66a7ff" stroke-width="2.2" x1="328.12" x2="439.48" y1="1200.16" y2="1200.16" /><line stroke="#66a7ff" stroke-width="2.2" x1="328.12" x2="439.48" y1="1205.44" y2="1205.44" /><line stroke="#66a7ff" stroke-width="2.2" x1="217.36" x2="217.36" y1="655.72" y2="767.08" /><line stroke="#66a7ff" stroke-width="2.2" x1="222.64" x2="222.64" y1="655.72" y2="767.08" /><line stroke="#9a9a9a" stroke-width="0.8" x1="665.2" x2="757.6" y1="337.6" y2="337.6" /><line stroke="#9a9a9a" stroke-width="0.8" x1="665.2" x2="665.2" y1="334.24" y2="340.96" /><line stroke="#9a9a9a" stroke-width="0.8" x1="757.6" x2="757.6" y1="334.24" y2="340.96" /><text fill="#8a8a8a" font-size="7.6" text-anchor="start" x="671.92" y="334.96">910mm</text><line stroke="#9a9a9a" stroke-width="0.8" x1="665.2" x2="665.2" y1="337.6" y2="648.4" /><line stroke="#9a9a9a" stroke-width="0.8" x1="661.84" x2="668.56" y1="337.6" y2="337.6" /><line stroke="#9a9a9a" stroke-width="0.8" x1="661.84" x2="668.56" y1="648.4" y2="648.4" /><text fill="#8a8a8a" font-size="7.6" text-anchor="start" x="669.28" y="345.28">2730mm</text><line stroke="#9a9a9a" stroke-width="0.8" x1="774.4" x2="976.0" y1="446.8" y2="446.8" /><line stroke="#9a9a9a" stroke-width="0.8" x1="774.4" x2="774.4" y1="443.44" y2="450.16" /><line stroke="#9a9a9a" stroke-width="0.8" x1="976.0" x2="976.0" y1="443.44" y2="450.16" /><text fill="#8a8a8a" font-size="7.6" text-anchor="start" x="781.12" y="444.15999999999997">1820mm</text><line stroke="#9a9a9a" stroke-width="0.8" x1="774.4" x2="774.4" y1="446.8" y2="648.4" /><line stroke="#9a9a9a" stroke-width="0.8" x1="771.04" x2="777.76" y1="446.8" y2="446.8" /><line stroke="#9a9a9a" stroke-width="0.8" x1="771.04" x2="777.76" y1="648.4" y2="648.4" /><text fill="#8a8a8a" font-size="7.6" text-anchor="start" x="778.48" y="454.48">1820mm</text><line stroke="#9a9a9a" stroke-width="0.8" x1="556.0" x2="1194.4" y1="665.2" y2="665.2" /><line stroke="#9a9a9a" stroke-width="0.8" x1="556.0" x2="556.0" y1="661.84" y2="668.56" /><line stroke="#9a9a9a" stroke-width="0.8" x1="1194.4" x2="1194.4" y1="661.84" y2="668.56" /><text fill="#8a8a8a" font-size="7.6" text-anchor="start" x="562.72" y="662.56">5460mm</text><line stroke="#9a9a9a" stroke-width="0.8" x1="556.0" x2="556.0" y1="665.2" y2="1194.4" /><line stroke="#9a9a9a" stroke-width="0.8" x1="552.64" x2="559.36" y1="665.2" y2="665.2" /><line stroke="#9a9a9a" stroke-width="0.8" x1="552.64" x2="559.36" y1="1194.4" y2="1194.4" /><text fill="#8a8a8a" font-size="7.6" text-anchor="start" x="560.0799999999999" y="672.88">4550mm</text><text fill="#1b1b1b" font-size="10" text-anchor="middle" x="1093.6" y="314.8">Bath 1</text><text fill="#1b1b1b" font-size="10" text-anchor="middle" x="1093.6" y="325.6">1820x1820mm</text><text fill="#1b1b1b" font-size="10" text-anchor="middle" x="1093.6" y="336.4">3.3sqm / 2.0jo</text><text fill="#1b1b1b" font-size="10" text-anchor="middle" x="383.79999999999995" y="1024.6">Bedroom 1</text><text fill="#1b1b1b" font-size="10" text-anchor="middle" x="383.79999999999995" y="1035.4">2730x2730mm</text><text fill="#1b1b1b" font-size="10" text-anchor="middle" x="383.79999999999995" y="1046.1999999999998">7.5sqm / 4.6jo</text><text fill="#1b1b1b" font-size="10" text-anchor="middle" x="329.2" y="424.0">Entry</text><text fill="#1b1b1b" font-size="10" text-anchor="middle" x="329.2" y="434.79999999999995">1820x1820mm</text><text fill="#1b1b1b" font-size="10" text-anchor="middle" x="329.2" y="445.6">3.3sqm / 2.0jo</text><text fill="#1b1b1b" font-size="9" text-anchor="middle" x="574.9" y="342.1">Hall 1</text><text fill="#1b1b1b" font-size="9" text-anchor="middle" x="574.9" y="352.9">6.6sqm / 4.1jo</text><text fill="#1b1b1b" font-size="9" text-anchor="middle" x="875.1999999999999" y="870.435294117647">Ldk</text><text fill="#1b1b1b" font-size="9" text-anchor="middle" x="875.1999999999999" y="881.235294117647">L-shape (2 parts)</text><text fill="#1b1b1b" font-size="9" text-anchor="middle" x="875.1999999999999" y="892.035294117647">1820x1820 | 5460x4550</text><text fill="#1b1b1b" font-size="9" text-anchor="middle" x="875.1999999999999" y="902.835294117647">28.2sqm / 17.4jo</text><text fill="#1b1b1b" font-size="10" text-anchor="middle" x="1093.6" y="533.2">Storage 1</text><text fill="#1b1b1b" font-size="10" text-anchor="middle" x="1093.6" y="544.0">1820x1820mm</text><text fill="#1b1b1b" font-size="10" text-anchor="middle" x="1093.6" y="554.8">3.3sqm / 2.0jo</text><text fill="#1b1b1b" font-size="10" text-anchor="middle" x="383.79999999999995" y="697.0">Study 1</text><text fill="#1b1b1b" font-size="10" text-anchor="middle" x="383.79999999999995" y="707.8">2730x2730mm</text><text fill="#1b1b1b" font-size="10" text-anchor="middle" x="383.79999999999995" y="718.5999999999999">7.5sqm / 4.6jo</text><text fill="#1b1b1b" font-size="10" text-anchor="middle" x="493.0" y="424.0">Toilet 1</text><text fill="#1b1b1b" font-size="10" text-anchor="middle" x="493.0" y="434.79999999999995">910x1820mm</text><text fill="#1b1b1b" font-size="10" text-anchor="middle" x="493.0" y="445.6">1.7sqm / 1.0jo</text><text fill="#1b1b1b" font-size="10" text-anchor="middle" x="875.1999999999999" y="314.8">Wash 1</text><text fill="#1b1b1b" font-size="10" text-anchor="middle" x="875.1999999999999" y="325.6">1820x1820mm</text><text fill="#1b1b1b" font-size="10" text-anchor="middle" x="875.1999999999999" y="336.4">3.3sqm / 2.0jo</text><text fill="#111111" font-size="14" x="220.0" y="180.0">F1 Plan  (8190 x 8190 mm)</text><text fill="#444444" font-size="10" x="220.0" y="198.0">Scale: 1px=8.3mm</text><rect fill="#ffffff" height="198" stroke="#777777" stroke-width="1" width="170" x="1290.8" y="150.0" /><text fill="#111111" font-size="11" x="1298.8" y="164.0">Legend</text><rect fill="#f8f0d9" height="12" stroke="#333333" stroke-width="1" width="12" x="1298.8" y="174.0" /><text fill="#222222" font-size="10" x="1316.8" y="184.0">Entry</text><rect fill="#efe9ff" height="12" stroke="#333333" stroke-width="1" width="12" x="1298.8" y="192.0" /><text fill="#222222" font-size="10" x="1316.8" y="202.0">Hall</text><rect fill="#ffe2b8" height="12" stroke="#333333" stroke-width="1" width="12" x="1298.8" y="210.0" /><text fill="#222222" font-size="10" x="1316.8" y="220.0">Ldk</text><rect fill="#d9f2ff" height="12" stroke="#333333" stroke-width="1" width="12" x="1298.8" y="228.0" /><text fill="#222222" font-size="10" x="1316.8" y="238.0">Bedroom</text><rect fill="#fbe7e6" height="12" stroke="#333333" stroke-width="1" width="12" x="1298.8" y="246.0" /><text fill="#222222" font-size="10" x="1316.8" y="256.0">Toilet</text><rect fill="#e7fbfb" height="12" stroke="#333333" stroke-width="1" width="12" x="1298.8" y="264.0" /><text fill="#222222" font-size="10" x="1316.8" y="274.0">Washroom</text><rect fill="#dcecff" height="12" stroke="#333333" stroke-width="1" width="12" x="1298.8" y="282.0" /><text fill="#222222" font-size="10" x="1316.8" y="292.0">Bath</text><rect fill="#f0f0f0" height="12" stroke="#333333" stroke-width="1" width="12" x="1298.8" y="300.0" /><text fill="#222222" font-size="10" x="1316.8" y="310.0">Storage</text><line stroke="#6aa4ff" stroke-width="4" x1="1298.8" x2="1325.8" y1="330.0" y2="330.0" /><text fill="#222222" font-size="10" x="1332.8" y="333.0">Window</text><line stroke="#666666" stroke-width="2.4" x1="1298.8" x2="1325.8" y1="346.0" y2="346.0" /><path d="M 1298.8,346.0 A 10,10 0 0 1 1308.8,336.0" fill="none" stroke="#666666" stroke-width="1.2" /><text fill="#222222" font-size="10" x="1332.8" y="349.0">Door</text><rect fill="#ffffff" height="84" stroke="#777777" stroke-width="1" width="200" x="1290.8" y="520.0" /><text fill="#111111" font-size="10" x="1298.8" y="533.0">Area (F1)</text><text fill="#222222" font-size="9" x="1298.8" y="550.0">F1: in 67.1 sqm (20.3 tsubo), out 0.0 sqm (0.0 tsubo)</text><text fill="#222222" font-size="9" x="1298.8" y="566.0">F2: in 67.1 sqm (20.3 tsubo), out 0.0 sqm (0.0 tsubo)</text><text fill="#222222" font-size="9" x="1298.8" y="582.0">Total indoor: 134.2 sqm (40.6 tsubo)</text><text fill="#222222" font-size="9" x="1298.8" y="598.0">Total outdoor: 0.0 sqm (0.0 tsubo)</text><line stroke="#111111" stroke-width="2" x1="175.0" x2="175.0" y1="238.0" y2="208.0" /><polygon fill="#111111" points="175.0,208.0 181.0,214.0 169.0,214.0" /><text fill="#111111" font-size="12" x="170.0" y="202.0">N</text><line stroke="#545454" stroke-width="1.0" x1="220.0" x2="1202.8" y1="148.0" y2="148.0" /><line stroke="#545454" stroke-width="0.8" x1="220.0" x2="220.0" y1="220.0" y2="148.0" /><line stroke="#545454" stroke-width="1.0" x1="220.0" x2="220.0" y1="145.0" y2="151.0" /><line stroke="#545454" stroke-width="0.8" x1="1202.8" x2="1202.8" y1="220.0" y2="148.0" /><line stroke="#545454" stroke-width="1.0" x1="1202.8" x2="1202.8" y1="145.0" y2="151.0" /><text fill="#545454" font-size="8.8" text-anchor="middle" x="711.4" y="145.0">8190mm</text><line stroke="#666666" stroke-width="1.0" x1="220.0" x2="1202.8" y1="166.0" y2="166.0" /><line stroke="#666666" stroke-width="0.8" x1="220.0" x2="220.0" y1="220.0" y2="166.0" /><line stroke="#666666" stroke-width="1.0" x1="220.0" x2="220.0" y1="163.0" y2="169.0" /><line stroke="#666666" stroke-width="0.8" x1="329.2" x2="329.2" y1="220.0" y2="166.0" /><line stroke="#666666" stroke-width="1.0" x1="329.2" x2="329.2" y1="163.0" y2="169.0" /><line stroke="#666666" stroke-width="0.8" x1="766.0" x2="766.0" y1="220.0" y2="166.0" /><line stroke="#666666" stroke-width="1.0" x1="766.0" x2="766.0" y1="163.0" y2="169.0" /><line stroke="#666666" stroke-width="0.8" x1="984.4" x2="984.4" y1="220.0" y2="166.0" /><line stroke="#666666" stroke-width="1.0" x1="984.4" x2="984.4" y1="163.0" y2="169.0" /><line stroke="#666666" stroke-width="0.8" x1="1202.8" x2="1202.8" y1="220.0" y2="166.0" /><line stroke="#666666" stroke-width="1.0" x1="1202.8" x2="1202.8" y1="163.0" y2="169.0" /><text fill="#666666" font-size="8.2" text-anchor="middle" x="274.6" y="163.0">910</text><text fill="#666666" font-size="8.2" text-anchor="middle" x="547.5999999999999" y="163.0">3640</text><text fill="#666666" font-size="8.2" text-anchor="middle" x="875.1999999999999" y="163.0">1820</text><text fill="#666666" font-size="8.2" text-anchor="middle" x="1093.6" y="163.0">1820</text><line stroke="#545454" stroke-width="1.0" x1="220.0" x2="1202.8" y1="1274.8" y2="1274.8" /><line stroke="#545454" stroke-width="0.8" x1="220.0" x2="220.0" y1="1202.8" y2="1274.8" /><line stroke="#545454" stroke-width="1.0" x1="220.0" x2="220.0" y1="1271.8" y2="1277.8" /><line stroke="#545454" stroke-width="0.8" x1="1202.8" x2="1202.8" y1="1202.8" y2="1274.8" /><line stroke="#545454" stroke-width="1.0" x1="1202.8" x2="1202.8" y1="1271.8" y2="1277.8" /><text fill="#545454" font-size="8.8" text-anchor="middle" x="711.4" y="1284.8">8190mm</text><line stroke="#666666" stroke-width="1.0" x1="220.0" x2="1202.8" y1="1256.8" y2="1256.8" /><line stroke="#666666" stroke-width="0.8" x1="220.0" x2="220.0" y1="1202.8" y2="1256.8" /><line stroke="#666666" stroke-width="1.0" x1="220.0" x2="220.0" y1="1253.8" y2="1259.8" /><line stroke="#666666" stroke-width="0.8" x1="547.6" x2="547.6" y1="1202.8" y2="1256.8" /><line stroke="#666666" stroke-width="1.0" x1="547.6" x2="547.6" y1="1253.8" y2="1259.8" /><line stroke="#666666" stroke-width="0.8" x1="1202.8" x2="1202.8" y1="1202.8" y2="1256.8" /><line stroke="#666666" stroke-width="1.0" x1="1202.8" x2="1202.8" y1="1253.8" y2="1259.8" /><text fill="#666666" font-size="8.2" text-anchor="middle" x="383.79999999999995" y="1266.8">2730</text><text fill="#666666" font-size="8.2" text-anchor="middle" x="875.1999999999999" y="1266.8">5460</text><line stroke="#7a7a7a" stroke-width="1.0" x1="220.0" x2="1202.8" y1="1238.8" y2="1238.8" /><line stroke="#7a7a7a" stroke-width="0.8" x1="220.0" x2="220.0" y1="1202.8" y2="1238.8" /><line stroke="#7a7a7a" stroke-width="1.0" x1="220.0" x2="220.0" y1="1235.8" y2="1241.8" /><line stroke="#7a7a7a" stroke-width="0.8" x1="329.2" x2="329.2" y1="1202.8" y2="1238.8" /><line stroke="#7a7a7a" stroke-width="1.0" x1="329.2" x2="329.2" y1="1235.8" y2="1241.8" /><line stroke="#7a7a7a" stroke-width="0.8" x1="438.4" x2="438.4" y1="1202.8" y2="1238.8" /><line stroke="#7a7a7a" stroke-width="1.0" x1="438.4" x2="438.4" y1="1235.8" y2="1241.8" /><line stroke="#7a7a7a" stroke-width="0.8" x1="656.8" x2="656.8" y1="1202.8" y2="1238.8" /><line stroke="#7a7a7a" stroke-width="1.0" x1="656.8" x2="656.8" y1="1235.8" y2="1241.8" /><line stroke="#7a7a7a" stroke-width="0.8" x1="820.6" x2="820.6" y1="1202.8" y2="1238.8" /><line stroke="#7a7a7a" stroke-width="1.0" x1="820.6" x2="820.6" y1="1235.8" y2="1241.8" /><line stroke="#7a7a7a" stroke-width="0.8" x1="929.8" x2="929.8" y1="1202.8" y2="1238.8" /><line stroke="#7a7a7a" stroke-width="1.0" x1="929.8" x2="929.8" y1="1235.8" y2="1241.8" /><line stroke="#7a7a7a" stroke-width="0.8" x1="1093.6" x2="1093.6" y1="1202.8" y2="1238.8" /><line stroke="#7a7a7a" stroke-width="1.0" x1="1093.6" x2="1093.6" y1="1235.8" y2="1241.8" /><line stroke="#7a7a7a" stroke-width="0.8" x1="1202.8" x2="1202.8" y1="1202.8" y2="1238.8" /><line stroke="#7a7a7a" stroke-width="1.0" x1="1202.8" x2="1202.8" y1="1235.8" y2="1241.8" /><text fill="#7a7a7a" font-size="7.8" text-anchor="middle" x="274.6" y="1248.8">910</text><text fill="#7a7a7a" font-size="7.8" text-anchor="middle" x="383.79999999999995" y="1248.8">910</text><text fill="#7a7a7a" font-size="7.8" text-anchor="middle" x="547.5999999999999" y="1248.8">1820</text><text fill="#7a7a7a" font-size="7.8" text-anchor="middle" x="738.6999999999999" y="1248.8">1365</text><text fill="#7a7a7a" font-size="7.8" text-anchor="middle" x="875.1999999999999" y="1248.8">910</text><text fill="#7a7a7a" font-size="7.8" text-anchor="middle" x="1011.6999999999999" y="1248.8">1365</text><text fill="#7a7a7a" font-size="7.8" text-anchor="middle" x="1148.1999999999998" y="1248.8">910</text><line stroke="#545454" stroke-width="1.0" x1="148.0" x2="148.0" y1="220.0" y2="1202.8" /><line stroke="#545454" stroke-width="0.8" x1="220.0" x2="148.0" y1="220.0" y2="220.0" /><line stroke="#545454" stroke-width="1.0" x1="145.0" x2="151.0" y1="220.0" y2="220.0" /><line stroke="#545454" stroke-width="0.8" x1="220.0" x2="148.0" y1="1202.8" y2="1202.8" /><line stroke="#545454" stroke-width="1.0" x1="145.0" x2="151.0" y1="1202.8" y2="1202.8" /><text fill="#545454" font-size="8.8" x="144.0" y="711.4">8190mm</text><line stroke="#666666" stroke-width="1.0" x1="166.0" x2="166.0" y1="220.0" y2="1202.8" /><line stroke="#666666" stroke-width="0.8" x1="220.0" x2="166.0" y1="220.0" y2="220.0" /><line stroke="#666666" stroke-width="1.0" x1="163.0" x2="169.0" y1="220.0" y2="220.0" /><line stroke="#666666" stroke-width="0.8" x1="220.0" x2="166.0" y1="329.2" y2="329.2" /><line stroke="#666666" stroke-width="1.0" x1="163.0" x2="169.0" y1="329.2" y2="329.2" /><line stroke="#666666" stroke-width="0.8" x1="220.0" x2="166.0" y1="547.6" y2="547.6" /><line stroke="#666666" stroke-width="1.0" x1="163.0" x2="169.0" y1="547.6" y2="547.6" /><line stroke="#666666" stroke-width="0.8" x1="220.0" x2="166.0" y1="875.2" y2="875.2" /><line stroke="#666666" stroke-width="1.0" x1="163.0" x2="169.0" y1="875.2" y2="875.2" /><line stroke="#666666" stroke-width="0.8" x1="220.0" x2="166.0" y1="1202.8" y2="1202.8" /><line stroke="#666666" stroke-width="1.0" x1="163.0" x2="169.0" y1="1202.8" y2="1202.8" /><text fill="#666666" font-size="8.2" x="162.0" y="274.6">910</text><text fill="#666666" font-size="8.2" x="162.0" y="438.4">1820</text><text fill="#666666" font-size="8.2" x="162.0" y="711.4">2730</text><text fill="#666666" font-size="8.2" x="162.0" y="1039.0">2730</text><line stroke="#7a7a7a" stroke-width="1.0" x1="184.0" x2="184.0" y1="220.0" y2="1202.8" /><line stroke="#7a7a7a" stroke-width="0.8" x1="220.0" x2="184.0" y1="220.0" y2="220.0" /><line stroke="#7a7a7a" stroke-width="1.0" x1="181.0" x2="187.0" y1="220.0" y2="220.0" /><line stroke="#7a7a7a" stroke-width="0.8" x1="220.0" x2="184.0" y1="383.8" y2="383.8" /><line stroke="#7a7a7a" stroke-width="1.0" x1="181.0" x2="187.0" y1="383.8" y2="383.8" /><line stroke="#7a7a7a" stroke-width="0.8" x1="220.0" x2="184.0" y1="493.0" y2="493.0" /><line stroke="#7a7a7a" stroke-width="1.0" x1="181.0" x2="187.0" y1="493.0" y2="493.0" /><line stroke="#7a7a7a" stroke-width="0.8" x1="220.0" x2="184.0" y1="656.8" y2="656.8" /><line stroke="#7a7a7a" stroke-width="1.0" x1="181.0" x2="187.0" y1="656.8" y2="656.8" /><line stroke="#7a7a7a" stroke-width="0.8" x1="220.0" x2="184.0" y1="766.0" y2="766.0" /><line stroke="#7a7a7a" stroke-width="1.0" x1="181.0" x2="187.0" y1="766.0" y2="766.0" /><line stroke="#7a7a7a" stroke-width="0.8" x1="220.0" x2="184.0" y1="984.4" y2="984.4" /><line stroke="#7a7a7a" stroke-width="1.0" x1="181.0" x2="187.0" y1="984.4" y2="984.4" /><line stroke="#7a7a7a" stroke-width="0.8" x1="220.0" x2="184.0" y1="1093.6" y2="1093.6" /><line stroke="#7a7a7a" stroke-width="1.0" x1="181.0" x2="187.0" y1="1093.6" y2="1093.6" /><line stroke="#7a7a7a" stroke-width="0.8" x1="220.0" x2="184.0" y1="1202.8" y2="1202.8" /><line stroke="#7a7a7a" stroke-width="1.0" x1="181.0" x2="187.0" y1="1202.8" y2="1202.8" /><text fill="#7a7a7a" font-size="7.8" x="180.0" y="301.9">1365</text><text fill="#7a7a7a" font-size="7.8" x="180.0" y="438.4">910</text><text fill="#7a7a7a" font-size="7.8" x="180.0" y="574.9">1365</text><text fill="#7a7a7a" font-size="7.8" x="180.0" y="711.4">910</text><text fill="#7a7a7a" font-size="7.8" x="180.0" y="875.1999999999999">1820</text><text fill="#7a7a7a" font-size="7.8" x="180.0" y="1039.0">910</text><text fill="#7a7a7a" font-size="7.8" x="180.0" y="1148.1999999999998">910</text><line stroke="#545454" stroke-width="1.0" x1="1274.8" x2="1274.8" y1="220.0" y2="1202.8" /><line stroke="#545454" stroke-width="0.8" x1="1202.8" x2="1274.8" y1="220.0" y2="220.0" /><line stroke="#545454" stroke-width="1.0" x1="1271.8" x2="1277.8" y1="220.0" y2="220.0" /><line stroke="#545454" stroke-width="0.8" x1="1202.8" x2="1274.8" y1="1202.8" y2="1202.8" /><line stroke="#545454" stroke-width="1.0" x1="1271.8" x2="1277.8" y1="1202.8" y2="1202.8" /><text fill="#545454" font-size="8.8" x="1279.8" y="711.4">8190mm</text><line stroke="#666666" stroke-width="1.0" x1="1256.8" x2="1256.8" y1="220.0" y2="1202.8" /><line stroke="#666666" stroke-width="0.8" x1="1202.8" x2="1256.8" y1="220.0" y2="220.0" /><line stroke="#666666" stroke-width="1.0" x1="1253.8" x2="1259.8" y1="220.0" y2="220.0" /><line stroke="#666666" stroke-width="0.8" x1="1202.8" x2="1256.8" y1="438.4" y2="438.4" /><line stroke="#666666" stroke-width="1.0" x1="1253.8" x2="1259.8" y1="438.4" y2="438.4" /><line stroke="#666666" stroke-width="0.8" x1="1202.8" x2="1256.8" y1="656.8" y2="656.8" /><line stroke="#666666" stroke-width="1.0" x1="1253.8" x2="1259.8" y1="656.8" y2="656.8" /><line stroke="#666666" stroke-width="0.8" x1="1202.8" x2="1256.8" y1="1202.8" y2="1202.8" /><line stroke="#666666" stroke-width="1.0" x1="1253.8" x2="1259.8" y1="1202.8" y2="1202.8" /><text fill="#666666" font-size="8.2" x="1261.8" y="329.2">1820</text><text fill="#666666" font-size="8.2" x="1261.8" y="547.5999999999999">1820</text><text fill="#666666" font-size="8.2" x="1261.8" y="929.8">4550</text><line stroke="#7a7a7a" stroke-width="1.0" x1="1238.8" x2="1238.8" y1="220.0" y2="1202.8" /><line stroke="#7a7a7a" stroke-width="0.8" x1="1202.8" x2="1238.8" y1="220.0" y2="220.0" /><line stroke="#7a7a7a" stroke-width="1.0" x1="1235.8" x2="1241.8" y1="220.0" y2="220.0" /><line stroke="#7a7a7a" stroke-width="0.8" x1="1202.8" x2="1238.8" y1="711.4" y2="711.4" /><line stroke="#7a7a7a" stroke-width="1.0" x1="1235.8" x2="1241.8" y1="711.4" y2="711.4" /><line stroke="#7a7a7a" stroke-width="0.8" x1="1202.8" x2="1238.8" y1="929.8" y2="929.8" /><line stroke="#7a7a7a" stroke-width="1.0" x1="1235.8" x2="1241.8" y1="929.8" y2="929.8" /><line stroke="#7a7a7a" stroke-width="0.8" x1="1202.8" x2="1238.8" y1="1148.2" y2="1148.2" /><line stroke="#7a7a7a" stroke-width="1.0" x1="1235.8" x2="1241.8" y1="1148.2" y2="1148.2" /><line stroke="#7a7a7a" stroke-width="0.8" x1="1202.8" x2="1238.8" y1="1202.8" y2="1202.8" /><line stroke="#7a7a7a" stroke-width="1.0" x1="1235.8" x2="1241.8" y1="1202.8" y2="1202.8" /><text fill="#7a7a7a" font-size="7.8" x="1243.8" y="465.7">4095</text><text fill="#7a7a7a" font-size="7.8" x="1243.8" y="820.6">1820</text><text fill="#7a7a7a" font-size="7.8" x="1243.8" y="1039.0">1820</text></svg>