<?xml version="1.0" encoding="utf-8" ?>
<svg baseProfile="tiny" height="1422.8px" version="1.2" width="1422.8px" xmlns="http://www.w3.org/2000/svg" xmlns:ev="http://www.w3.org/2001/xml-events" xmlns:xlink="http://www.w3.org/1999/xlink"><defs /><rect fill="#fafafa" height="1422.8" width="1422.8" x="0" y="0" /><line stroke="#ececec" stroke-width="0.7" x1="220.0" x2="220.0" y1="220.0" y2="1202.8" /><line stroke="#ececec" stroke-width="0.7" x1="274.6" x2="274.6" y1="220.0" y2="1202.8" /><line stroke="#ececec" stroke-width="0.7" x1="329.2" x2="329.2" y1="220.0" y2="1202.8" /><line stroke="#ececec" stroke-width="0.7" x1="383.8" x2="383.8" y1="220.0" y2="1202.8" /><line stroke="#ececec" stroke-width="0.7" x1="438.4" x2="438.4" y1="220.0" y2="1202.8" /><line stroke="#ececec" stroke-width="0.7" x1="493.0" x2="493.0" y1="220.0" y2="1202.8" /><line stroke="#ececec" stroke-width="0.7" x1="547.6" x2="547.6" y1="220.0" y2="1202.8" /><line stroke="#ececec" stroke-width="0.7" x1="602.2" x2="602.2" y1="220.0" y2="1202.8" /><line stroke="#ececec" stroke-width="0.7" x1="656.8" x2="656.8" y1="220.0" y2="1202.8" /><line stroke="#ececec" stroke-width="0.7" x1="711.4" x2="711.4" y1="220.0" y2="1202.8" /><line stroke="#ececec" stroke-width="0.7" x1="766.0" x2="766.0" y1="220.0" y2="1202.8" /><line stroke="#ececec" stroke-width="0.7" x1="820.6" x2="820.6" y1="220.0" y2="1202.8" /><line stroke="#ececec" stroke-width="0.7" x1="875.2" x2="875.2" y1="220.0" y2="1202.8" /><line stroke="#ececec" stroke-width="0.7" x1="929.8" x2="929.8" y1="220.0" y2="1202.8" /><line stroke="#ececec" stroke-width="0.7" x1="984.4" x2="984.4" y1="220.0" y2="1202.8" /><line stroke="#ececec" stroke-width="0.7" x1="1039.0" x2="1039.0" y1="220.0" y2="1202.8" /><line stroke="#ececec" stroke-width="0.7" x1="1093.6" x2="1093.6" y1="220.0" y2="1202.8" /><line stroke="#ececec" stroke-width="0.7" x1="1148.2" x2="1148.2" y1="220.0" y2="1202.8" /><line stroke="#ececec" stroke-width="0.7" x1="1202.8" x2="1202.8" y1="220.0" y2="1202.8" /><line stroke="#d1d1d1" stroke-width="1.1" x1="220.0" x2="220.0" y1="220.0" y2="1202.8" /><line stroke="#d1d1d1" stroke-width="1.1" x1="329.2" x2="329.2" y1="220.0" y2="1202.8" /><line stroke="#d1d1d1" stroke-width="1.1" x1="438.4" x2="438.4" y1="220.0" y2="1202.8" /><line stroke="#d1d1d1" stroke-width="1.1" x1="547.6" x2="547.6" y1="220.0" y2="1202.8" /><line stroke="#d1d1d1" stroke-width="1.1" x1="656.8" x2="656.8" y1="220.0" y2="1202.8" /><line stroke="#d1d1d1" stroke-width="1.1" x1="766.0" x2="766.0" y1="220.0" y2="1202.8" /><line stroke="#d1d1d1" stroke-width="1.1" x1="875.2" x2="875.2" y1="220.0" y2="1202.8" /><line stroke="#d1d1d1" stroke-width="1.1" x1="984.4" x2="984.4" y1="220.0" y2="1202.8" /><line stroke="#d1d1d1" stroke-width="1.1" x1="1093.6" x2="1093.6" y1="220.0" y2="1202.8" /><line stroke="#d1d1d1" stroke-width="1.1" x1="1202.8" x2="1202.8" y1="220.0" y2="1202.8" /><line stroke="#d1d1d1" stroke-width="1.1" x1="220.0" x2="1202.8" y1="220.0" y2="220.0" /><line stroke="#d1d1d1" stroke-width="1.1" x1="220.0" x2="1202.8" y1="329.2" y2="329.2" /><line stroke="#d1d1d1" stroke-width="1.1" x1="220.0" x2="1202.8" y1="438.4" y2="438.4" /><line stroke="#d1d1d1" stroke-width="1.1" x1="220.0" x2="1202.8" y1="547.6" y2="547.6" /><line stroke="#d1d1d1" stroke-width="1.1" x1="220.0" x2="1202.8" y1="656.8" y2="656.8" /><line stroke="#d1d1d1" stroke-width="1.1" x1="220.0" x2="1202.8" y1="766.0" y2="766.0" /><line stroke="#d1d1d1" stroke-width="1.1" x1="220.0" x2="1202.8" y1="875.2" y2="875.2" /><line stroke="#d1d1d1" stroke-width="1.1" x1="220.0" x2="1202.8" y1="984.4" y2="984.4" /><line stroke="#d1d1d1" stroke-width="1.1" x1="220.0" x2="1202.8" y1="1093.6" y2="1093.6" /><line stroke="#d1d1d1" stroke-width="1.1" x1="220.0" x2="1202.8" y1="1202.8" y2="1202.8" /><line stroke="#ececec" stroke-width="0.7" x1="220.0" x2="1202.8" y1="220.0" y2="220.0" /><line stroke="#ececec" stroke-width="0.7" x1="220.0" x2="1202.8" y1="274.6" y2="274.6" /><line stroke="#ececec" stroke-width="0.7" x1="220.0" x2="1202.8" y1="329.2" y2="329.2" /><line stroke="#ececec" stroke-width="0.7" x1="220.0" x2="1202.8" y1="383.8" y2="383.8" /><line stroke="#ececec" stroke-width="0.7" x1="220.0" x2="1202.8" y1="438.4" y2="438.4" /><line stroke="#ececec" stroke-width="0.7" x1="220.0" x2="1202.8" y1="493.0" y2="493.0" /><line stroke="#ececec" stroke-width="0.7" x1="220.0" x2="1202.8" y1="547.6" y2="547.6" /><line stroke="#ececec" stroke-width="0.7" x1="220.0" x2="1202.8" y1="602.2" y2="602.2" /><line stroke="#ececec" stroke-width="0.7" x1="220.0" x2="1202.8" y1="656.8" y2="656.8" /><line stroke="#ececec" stroke-width="0.7" x1="220.0" x2="1202.8" y1="711.4" y2="711.4" /><line stroke="#ececec" stroke-width="0.7" x1="220.0" x2="1202.8" y1="766.0" y2="766.0" /><line stroke="#ececec" stroke-width="0.7" x1="220.0" x2="1202.8" y1="820.6" y2="820.6" /><line stroke="#ececec" stroke-width="0.7" x1="220.0" x2="1202.8" y1="875.2" y2="875.2" /><line stroke="#ececec" stroke-width="0.7" x1="220.0" x2="1202.8" y1="929.8" y2="929.8" /><line stroke="#ececec" stroke-width="0.7" x1="220.0" x2="1202.8" y1="984.4" y2="984.4" /><line stroke="#ececec" stroke-width="0.7" x1="220.0" x2="1202.8" y1="1039.0" y2="1039.0" /><line stroke="#ececec" stroke-width="0.7" x1="220.0" x2="1202.8" y1="1093.6" y2="1093.6" /><line stroke="#ececec" stroke-width="0.7" x1="220.0" x2="1202.8" y1="1148.2" y2="1148.2" /><line stroke="#ececec" stroke-width="0.7" x1="220.0" x2="1202.8" y1="1202.8" y2="1202.8" /><rect fill="none" height="982.8" stroke="#6a6a6a" stroke-dasharray="8,4" stroke-width="2" width="982.8" x="220.0" y="220.0" /><rect fill="none" height="982.8" stroke="#1f1f1f" stroke-width="3.5" width="982.8" x="220.0" y="220.0" /><text fill="#555555" font-size="10" x="222.0" y="160.0">Site Envelope = Building Footprint</text><rect fill="#dcecff" height="218.4" stroke="none" width="218.4" x="220.0" y="220.0" /><line stroke="#2f2f2f" stroke-width="2.2" x1="220.0" x2="438.4" y1="220.0" y2="220.0" /><line stroke="#2f2f2f" stroke-width="2.2" x1="220.0" x2="438.4" y1="438.4" y2="438.4" /><line stroke="#2f2f2f" stroke-width="2.2" x1="438.4" x2="438.4" y1="220.0" y2="438.4" /><line stroke="#2f2f2f" stroke-width="2.2" x1="220.0" x2="220.0" y1="220.0" y2="438.4" /><rect fill="#d9f2ff" height="327.6" stroke="none" width="327.6" x="220.0" y="875.2" /><line stroke="#2f2f2f" stroke-width="2.2" x1="220.0" x2="547.6" y1="875.2" y2="875.2" /><line stroke="#2f2f2f" stroke-width="2.2" x1="220.0" x2="547.6" y1="1202.8" y2="1202.8" /><line stroke="#2f2f2f" stroke-width="2.2" x1="547.6" x2="547.6" y1="875.2" y2="1202.8" /><line stroke="#2f2f2f" stroke-width="2.2" x1="220.0" x2="220.0" y1="875.2" y2="1202.8" /><rect fill="#f8f0d9" height="218.4" stroke="none" width="218.4" x="220.0" y="656.8" /><line stroke="#2f2f2f" stroke-width="2.2" x1="220.0" x2="438.4" y1="875.2" y2="875.2" /><line stroke="#2f2f2f" stroke-width="2.2" x1="220.0" x2="438.4" y1="656.8" y2="656.8" /><line stroke="#2f2f2f" stroke-width="2.2" x1="438.4" x2="438.4" y1="656.8" y2="875.2" /><line stroke="#2f2f2f" stroke-width="2.2" x1="220.0" x2="220.0" y1="656.8" y2="875.2" /><rect fill="#efe9ff" height="109.2" stroke="none" width="109.2" x="438.4" y="438.4" /><rect fill="#efe9ff" height="163.8" stroke="none" width="109.2" x="438.4" y="547.6" /><rect fill="#efe9ff" height="163.8" stroke="none" width="327.6" x="438.4" y="711.4" /><line stroke="#2f2f2f" stroke-width="2.2" x1="438.4" x2="766.0" y1="875.2" y2="875.2" /><line stroke="#2f2f2f" stroke-width="2.2" x1="547.6" x2="766.0" y1="711.4" y2="711.4" /><line stroke="#2f2f2f" stroke-width="2.2" x1="438.4" x2="547.6" y1="438.4" y2="438.4" /><line stroke="#2f2f2f" stroke-width="2.2" x1="547.6" x2="547.6" y1="438.4" y2="711.4" /><line stroke="#2f2f2f" stroke-width="2.2" x1="438.4" x2="438.4" y1="438.4" y2="875.2" /><line stroke="#2f2f2f" stroke-width="2.2" x1="766.0" x2="766.0" y1="711.4" y2="875.2" /><rect fill="#ffe2b8" height="655.2" stroke="none" width="436.8" x="766.0" y="220.0" /><rect fill="#ffe2b8" height="327.6" stroke="none" width="327.6" x="547.6" y="875.2" /><line stroke="#2f2f2f" stroke-width="2.2" x1="547.6" x2="875.2" y1="1202.8" y2="1202.8" /><line stroke="#2f2f2f" stroke-width="2.2" x1="547.6" x2="766.0" y1="875.2" y2="875.2" /><line stroke="#2f2f2f" stroke-width="2.2" x1="875.2" x2="1202.8" y1="875.2" y2="875.2" /><line stroke="#2f2f2f" stroke-width="2.2" x1="766.0" x2="1202.8" y1="220.0" y2="220.0" /><line stroke="#2f2f2f" stroke-width="2.2" x1="766.0" x2="766.0" y1="220.0" y2="875.2" /><line stroke="#2f2f2f" stroke-width="2.2" x1="875.2" x2="875.2" y1="875.2" y2="1202.8" /><line stroke="#2f2f2f" stroke-width="2.2" x1="1202.8" x2="1202.8" y1="220.0" y2="875.2" /><line stroke="#2f2f2f" stroke-width="2.2" x1="547.6" x2="547.6" y1="875.2" y2="1202.8" /><rect fill="#f0f0f0" height="218.4" stroke="none" width="218.4" x="547.6" y="220.0" /><line stroke="#2f2f2f" stroke-width="2.2" x1="547.6" x2="766.0" y1="438.4" y2="438.4" /><line stroke="#2f2f2f" stroke-width="2.2" x1="547.6" x2="766.0" y1="220.0" y2="220.0" /><line stroke="#2f2f2f" stroke-width="2.2" x1="547.6" x2="547.6" y1="220.0" y2="438.4" /><line stroke="#2f2f2f" stroke-width="2.2" x1="766.0" x2="766.0" y1="220.0" y2="438.4" /><rect fill="#d9f2ff" height="327.6" stroke="none" width="327.6" x="875.2" y="875.2" /><line stroke="#2f2f2f" stroke-width="2.2" x1="875.2" x2="1202.8" y1="875.2" y2="875.2" /><line stroke="#2f2f2f" stroke-width="2.2" x1="875.2" x2="1202.8" y1="1202.8" y2="1202.8" /><line stroke="#2f2f2f" stroke-width="2.2" x1="1202.8" x2="1202.8" y1="875.2" y2="1202.8" /><line stroke="#2f2f2f" stroke-width="2.2" x1="875.2" x2="875.2" y1="875.2" y2="1202.8" /><rect fill="#fbe7e6" height="218.4" stroke="none" width="109.2" x="438.4" y="220.0" /><line stroke="#2f2f2f" stroke-width="2.2" x1="438.4" x2="547.6" y1="220.0" y2="220.0" /><line stroke="#2f2f2f" stroke-width="2.2" x1="438.4" x2="547.6" y1="438.4" y2="438.4" /><line stroke="#2f2f2f" stroke-width="2.2" x1="438.4" x2="438.4" y1="220.0" y2="438.4" /><line stroke="#2f2f2f" stroke-width="2.2" x1="547.6" x2="547.6" y1="220.0" y2="438.4" /><rect fill="#e7fbfb" height="218.4" stroke="none" width="218.4" x="220.0" y="438.4" /><line stroke="#2f2f2f" stroke-width="2.2" x1="220.0" x2="438.4" y1="438.4" y2="438.4" /><line stroke="#2f2f2f" stroke-width="2.2" x1="220.0" x2="438.4" y1="656.8" y2="656.8" /><line stroke="#2f2f2f" stroke-width="2.2" x1="220.0" x2="220.0" y1="438.4" y2="656.8" /><line stroke="#2f2f2f" stroke-width="2.2" x1="438.4" x2="438.4" y1="438.4" y2="656.8" /><rect fill="none" height="65.52" stroke="#8a6b4a" stroke-width="1.0" width="139.776" x="1001.872" y="285.52" /><rect fill="none" height="144.144" stroke="#8a6b4a" stroke-width="1.0" width="58.968" x="1082.68" y="285.52" /><circle cx="1039.9936" cy="318.28" fill="none" r="8.4" stroke="#8a6b4a" stroke-width="0.9" /><circle cx="1061.5936" cy="318.28" fill="none" r="8.4" stroke="#8a6b4a" stroke-width="0.9" /><rect fill="none" height="34.5946" stroke="#8a6b4a" stroke-width="0.9" width="40.0982" x="1091.5252" y="346.0605" /><rect fill="none" height="78.624" stroke="#8a6b4a" stroke-width="1.0" width="96.096" x="940.72" y="495.184" /><rect fill="none" height="111.384" stroke="#7f7f7f" stroke-width="1.1" width="183.456" x="292.072" y="934.168" /><line stroke="#7f7f7f" stroke-width="0.9" x1="292.072" x2="475.528" y1="973.1524" y2="973.1524" /><rect fill="none" height="111.384" stroke="#7f7f7f" stroke-width="1.1" width="183.456" x="947.272" y="934.168" /><line stroke="#7f7f7f" stroke-width="0.9" x1="947.272" x2="1130.728" y1="973.1524" y2="973.1524" /><rect fill="none" height="48.048" stroke="#6f6f6f" stroke-width="1.0" width="74.256" x="259.312" y="477.712" /><rect fill="none" height="48.048" stroke="#6f6f6f" stroke-width="1.0" width="74.256" x="346.672" y="477.712" /><line stroke="#8f8f8f" stroke-width="0.8" x1="250.576" x2="407.824" y1="463.312" y2="463.312" /><circle cx="412.0" cy="464.8" fill="none" r="8.4" stroke="#7c7c7c" stroke-width="0.9" /><line stroke="#7c7c7c" stroke-width="0.8" x1="401.2" x2="422.8" y1="464.8" y2="464.8" /><line stroke="#7c7c7c" stroke-width="0.8" x1="412.0" x2="412.0" y1="454.0" y2="475.6" /><rect fill="none" height="109.2" rx="6" ry="6" stroke="#6f6f6f" stroke-width="1.0" width="135.408" x="263.68" y="268.048" /><circle cx="412.0" cy="246.4" fill="none" r="8.4" stroke="#7c7c7c" stroke-width="0.9" /><line stroke="#7c7c7c" stroke-width="0.8" x1="401.2" x2="422.8" y1="246.4" y2="246.4" /><line stroke="#7c7c7c" stroke-width="0.8" x1="412.0" x2="412.0" y1="235.6" y2="257.2" /><line stroke="#9a9a9a" stroke-width="0.9" x1="573.808" x2="739.792" y1="259.312" y2="259.312" /><line stroke="#9a9a9a" stroke-width="0.9" x1="573.808" x2="739.792" y1="399.088" y2="399.088" /><rect fill="#ffffff" height="163.8" stroke="#202020" stroke-dasharray="8,4" stroke-width="2.6" width="109.2" x="547.6" y="547.6" /><rect fill="#ffffff" height="109.2" stroke="#202020" stroke-dasharray="8,4" stroke-width="2.6" width="218.4" x="547.6" y="438.4" /><rect fill="#ffffff" height="163.8" stroke="#202020" stroke-dasharray="8,4" stroke-width="2.6" width="109.2" x="656.8" y="547.6" /><line stroke="#2a2a2a" stroke-width="1.4" x1="560.704" x2="643.696" y1="571.0" y2="571.0" /><line stroke="#2a2a2a" stroke-width="1.4" x1="560.704" x2="643.696" y1="594.4" y2="594.4" /><line stroke="#2a2a2a" stroke-width="1.4" x1="560.704" x2="643.696" y1="617.8" y2="617.8" /><line stroke="#2a2a2a" stroke-width="1.4" x1="560.704" x2="643.696" y1="641.2" y2="641.2" /><line stroke="#2a2a2a" stroke-width="1.4" x1="560.704" x2="643.696" y1="664.6" y2="664.6" /><line stroke="#2a2a2a" stroke-width="1.4" x1="560.704" x2="643.696" y1="688.0" y2="688.0" /><line stroke="#2a2a2a" stroke-width="1.4" x1="669.904" x2="752.896" y1="571.0" y2="571.0" /><line stroke="#2a2a2a" stroke-width="1.4" x1="669.904" x2="752.896" y1="594.4" y2="594.4" /><line stroke="#2a2a2a" stroke-width="1.4" x1="669.904" x2="752.896" y1="617.8" y2="617.8" /><line stroke="#2a2a2a" stroke-width="1.4" x1="669.904" x2="752.896" y1="641.2" y2="641.2" /><line stroke="#2a2a2a" stroke-width="1.4" x1="669.904" x2="752.896" y1="664.6" y2="664.6" /><line stroke="#2a2a2a" stroke-width="1.4" x1="669.904" x2="752.896" y1="688.0" y2="688.0" /><text fill="#202020" font-size="11" text-anchor="middle" x="602.2" y="629.5">Stair (UP)</text><text fill="#3a3a3a" font-size="9.0" text-anchor="middle" x="602.2" y="643.9">13R/12T</text><text fill="#4a4a4a" font-size="7.8" text-anchor="middle" x="602.2" y="652.3">H2730 R210 T228</text><line stroke="#ffffff" stroke-width="7" x1="547.6" x2="547.6" y1="547.6" y2="711.4" /><line stroke="#5e5e5e" stroke-width="1.0" x1="547.6" x2="547.6" y1="547.6" y2="711.4" /><line stroke="#ffffff" stroke-width="6" x1="438.4" x2="438.4" y1="747.7" y2="838.9" /><line stroke="#595959" stroke-width="1.2" x1="438.4" x2="497.68" y1="747.7" y2="806.98" /><path d="M 438.4,806.98 A 59.28,59.28 0 0 1 497.68,806.98" fill="none" stroke="#7a7a7a" stroke-width="1.0" /><line stroke="#ffffff" stroke-width="6" x1="607.66" x2="705.94" y1="875.2" y2="875.2" /><line stroke="#595959" stroke-width="1.2" x1="607.66" x2="671.542" y1="875.2" y2="811.318" /><path d="M 671.5419999999999,875.1999999999999 A 63.882,63.882 0 0 1 671.5419999999999,811.318" fill="none" stroke="#7a7a7a" stroke-width="1.0" /><line stroke="#ffffff" stroke-width="6" x1="447.4" x2="538.6" y1="438.4" y2="438.4" /><line stroke="#ffffff" stroke-width="6" x1="438.4" x2="438.4" y1="447.4" y2="538.6" /><line stroke="#ffffff" stroke-width="6" x1="280.06" x2="378.34" y1="438.4" y2="438.4" /><line stroke="#595959" stroke-width="1.2" x1="280.06" x2="343.942" y1="438.4" y2="374.518" /><path d="M 343.942,438.4 A 63.882,63.882 0 0 1 343.942,374.51800000000003" fill="none" stroke="#7a7a7a" stroke-width="1.0" /><line stroke="#ffffff" stroke-width="6" x1="547.6" x2="547.6" y1="980.2" y2="1097.8" /><line stroke="#595959" stroke-width="1.2" x1="547.6" x2="624.04" y1="980.2" y2="1056.64" /><path d="M 547.5999999999999,1056.6399999999999 A 76.44,76.44 0 0 1 624.04,1056.6399999999999" fill="none" stroke="#7a7a7a" stroke-width="1.0" /><line stroke="#ffffff" stroke-width="6" x1="980.2" x2="1097.8" y1="875.2" y2="875.2" /><line stroke="#595959" stroke-width="1.2" x1="980.2" x2="1056.64" y1="875.2" y2="798.76" /><path d="M 1056.6399999999999,875.1999999999999 A 76.44,76.44 0 0 1 1056.6399999999999,798.76" fill="none" stroke="#7a7a7a" stroke-width="1.0" /><line stroke="#ffffff" stroke-width="6" x1="766.0" x2="766.0" y1="280.06" y2="378.34" /><line stroke="#595959" stroke-width="1.2" x1="766.0" x2="829.882" y1="280.06" y2="343.942" /><path d="M 766.0,343.942 A 63.882,63.882 0 0 1 829.8820000000001,343.942" fill="none" stroke="#7a7a7a" stroke-width="1.0" /><line stroke="#ffffff" stroke-width="7" x1="220.0" x2="220.0" y1="716.86" y2="815.14" /><line stroke="#595959" stroke-width="1.2" x1="220.0" x2="283.882" y1="716.86" y2="780.742" /><path d="M 220.0,780.7420000000001 A 63.882,63.882 0 0 1 283.882,780.7420000000001" fill="none" stroke="#7a7a7a" stroke-width="1.0" /><line stroke="#66a7ff" stroke-width="2.2" x1="1200.16" x2="1200.16" y1="307.456" y2="499.456" /><line stroke="#66a7ff" stroke-width="2.2" x1="1205.44" x2="1205.44" y1="307.456" y2="499.456" /><line stroke="#66a7ff" stroke-width="2.2" x1="1200.16" x2="1200.16" y1="595.744" y2="787.744" /><line stroke="#66a7ff" stroke-width="2.2" x1="1205.44" x2="1205.44" y1="595.744" y2="787.744" /><line stroke="#66a7ff" stroke-width="2.2" x1="814.084" x2="962.524" y1="217.36" y2="217.36" /><line stroke="#66a7ff" stroke-width="2.2" x1="814.084" x2="962.524" y1="222.64" y2="222.64" /><line stroke="#66a7ff" stroke-width="2.2" x1="1006.276" x2="1154.716" y1="217.36" y2="217.36" /><line stroke="#66a7ff" stroke-width="2.2" x1="1006.276" x2="1154.716" y1="222.64" y2="222.64" /><line stroke="#66a7ff" stroke-width="2.2" x1="655.72" x2="767.08" y1="1200.16" y2="1200.16" /><line stroke="#66a7ff" stroke-width="2.2" x1="655.72" x2="767.08" y1="1205.44" y2="1205.44" /><line stroke="#66a7ff" stroke-width="2.2" x1="217.36" x2="217.36" y1="983.32" y2="1094.68" /><line stroke="#66a7ff" stroke-width="2.2" x1="222.64" x2="222.64" y1="983.32" y2="1094.68" /><line stroke="#66a7ff" stroke-width="2.2" x1="328.12" x2="439.48" y1="1200.16" y2="1200.16" /><line stroke="#66a7ff" stroke-width="2.2" x1="328.12" x2="439.48" y1="1205.44" y2="1205.44" /><line stroke="#66a7ff" stroke-width="2.2" x1="1200.16" x2="1200.16" y1="983.32" y2="1094.68" /><line stroke="#66a7ff" stroke-width="2.2" x1="1205.44" x2="1205.44" y1="983.32" y2="1094.68" /><line stroke="#66a7ff" stroke-width="2.2" x1="983.32" x2="1094.68" y1="1200.16" y2="1200.16" /><line stroke="#66a7ff" stroke-width="2.2" x1="983.32" x2="1094.68" y1="1205.44" y2="1205.44" /><line stroke="#9a9a9a" stroke-width="0.8" x1="446.8" x2="539.2" y1="556.0" y2="556.0" /><line stroke="#9a9a9a" stroke-width="0.8" x1="446.8" x2="446.8" y1="552.64" y2="559.36" /><line stroke="#9a9a9a" stroke-width="0.8" x1="539.2" x2="539.2" y1="552.64" y2="559.36" /><text fill="#8a8a8a" font-size="7.6" text-anchor="start" x="453.52" y="553.36">910mm</text><line stroke="#9a9a9a" stroke-width="0.8" x1="446.8" x2="446.8" y1="556.0" y2="703.0" /><line stroke="#9a9a9a" stroke-width="0.8" x1="443.44" x2="450.16" y1="556.0" y2="556.0" /><line stroke="#9a9a9a" stroke-width="0.8" x1="443.44" x2="450.16" y1="703.0" y2="703.0" /><text fill="#8a8a8a" font-size="7.6" text-anchor="start" x="450.88" y="563.6800000000001">1365mm</text><line stroke="#9a9a9a" stroke-width="0.8" x1="446.8" x2="757.6" y1="719.8" y2="719.8" /><line stroke="#9a9a9a" stroke-width="0.8" x1="446.8" x2="446.8" y1="716.44" y2="723.16" /><line stroke="#9a9a9a" stroke-width="0.8" x1="757.6" x2="757.6" y1="716.44" y2="723.16" /><text fill="#8a8a8a" font-size="7.6" text-anchor="start" x="453.52" y="717.16">2730mm</text><line stroke="#9a9a9a" stroke-width="0.8" x1="446.8" x2="446.8" y1="719.8" y2="866.8" /><line stroke="#9a9a9a" stroke-width="0.8" x1="443.44" x2="450.16" y1="719.8" y2="719.8" /><line stroke="#9a9a9a" stroke-width="0.8" x1="443.44" x2="450.16" y1="866.8" y2="866.8" /><text fill="#8a8a8a" font-size="7.6" text-anchor="start" x="450.88" y="727.48">1365mm</text><line stroke="#9a9a9a" stroke-width="0.8" x1="774.4" x2="1194.4" y1="228.4" y2="228.4" /><line stroke="#9a9a9a" stroke-width="0.8" x1="774.4" x2="774.4" y1="225.04" y2="231.76" /><line stroke="#9a9a9a" stroke-width="0.8" x1="1194.4" x2="1194.4" y1="225.04" y2="231.76" /><text fill="#8a8a8a" font-size="7.6" text-anchor="start" x="781.12" y="225.76">3640mm</text><line stroke="#9a9a9a" stroke-width="0.8" x1="774.4" x2="774.4" y1="228.4" y2="866.8" /><line stroke="#9a9a9a" stroke-width="0.8" x1="771.04" x2="777.76" y1="228.4" y2="228.4" /><line stroke="#9a9a9a" stroke-width="0.8" x1="771.04" x2="777.76" y1="866.8" y2="866.8" /><text fill="#8a8a8a" font-size="7.6" text-anchor="start" x="778.48" y="236.07999999999998">5460mm</text><line stroke="#9a9a9a" stroke-width="0.8" x1="556.0" x2="866.8" y1="883.6" y2="883.6" /><line stroke="#9a9a9a" stroke-width="0.8" x1="556.0" x2="556.0" y1="880.24" y2="886.96" /><line stroke="#9a9a9a" stroke-width="0.8" x1="866.8" x2="866.8" y1="880.24" y2="886.96" /><text fill="#8a8a8a" font-size="7.6" text-anchor="start" x="562.72" y="880.9599999999999">2730mm</text><line stroke="#9a9a9a" stroke-width="0.8" x1="556.0" x2="556.0" y1="883.6" y2="1194.4" /><line stroke="#9a9a9a" stroke-width="0.8" x1="552.64" x2="559.36" y1="883.6" y2="883.6" /><line stroke="#9a9a9a" stroke-width="0.8" x1="552.64" x2="559.36" y1="1194.4" y2="1194.4" /><text fill="#8a8a8a" font-size="7.6" text-anchor="start" x="560.0799999999999" y="891.28">2730mm</text><text fill="#1b1b1b" font-size="10" text-anchor="middle" x="329.2" y="314.8">Bath 1</text><text fill="#1b1b1b" font-size="10" text-anchor="middle" x="329.2" y="325.6">1820x1820mm</text><text fill="#1b1b1b" font-size="10" text-anchor="middle" x="329.2" y="336.4">3.3sqm / 2.0jo</text><text fill="#1b1b1b" font-size="10" text-anchor="middle" x="383.79999999999995" y="1024.6">Bedroom 1</text><text fill="#1b1b1b" font-size="10" text-anchor="middle" x="383.79999999999995" y="1035.4">2730x2730mm</text><text fill="#1b1b1b" font-size="10" text-anchor="middle" x="383.79999999999995" y="1046.1999999999998">7.5sqm / 4.6jo</text><text fill="#1b1b1b" font-size="10" text-anchor="middle" x="329.2" y="751.6">Entry</text><text fill="#1b1b1b" font-size="10" text-anchor="middle" x="329.2" y="762.4">1820x1820mm</text><text fill="#1b1b1b" font-size="10" text-anchor="middle" x="329.2" y="773.1999999999999">3.3sqm / 2.0jo</text><text fill="#1b1b1b" font-size="9" text-anchor="middle" x="563.2" y="700.9">Hall 1</text><text fill="#1b1b1b" font-size="9" text-anchor="middle" x="563.2" y="711.7">5.8sqm / 3.6jo</text><text fill="#1b1b1b" font-size="9" text-anchor="middle" x="909.9454545454546" y="667.2181818181818">Ldk</text><text fill="#1b1b1b" font-size="9" text-anchor="middle" x="909.9454545454546" y="678.0181818181818">L-shape (2 parts)</text><text fill="#1b1b1b" font-size="9" text-anchor="middle" x="909.9454545454546" y="688.8181818181818">3640x5460 | 2730x2730</text><text fill="#1b1b1b" font-size="9" text-anchor="middle" x="909.9454545454546" y="699.6181818181818">27.3sqm / 16.9jo</text><text fill="#1b1b1b" font-size="10" text-anchor="middle" x="656.8" y="314.8">Storage 1</text><text fill="#1b1b1b" font-size="10" text-anchor="middle" x="656.8" y="325.6">1820x1820mm</text><text fill="#1b1b1b" font-size="10" text-anchor="middle" x="656.8" y="336.4">3.3sqm / 2.0jo</text><text fill="#1b1b1b" font-size="10" text-anchor="middle" x="1039.0" y="1024.6">Study 1</text><text fill="#1b1b1b" font-size="10" text-anchor="middle" x="1039.0" y="1035.4">2730x2730mm</text><text fill="#1b1b1b" font-size="10" text-anchor="middle" x="1039.0" y="1046.1999999999998">7.5sqm / 4.6jo</text><text fill="#1b1b1b" font-size="10" text-anchor="middle" x="493.0" y="314.8">Toilet 1</text><text fill="#1b1b1b" font-size="10" text-anchor="middle" x="493.0" y="325.6">910x1820mm</text><text fill="#1b1b1b" font-size="10" text-anchor="middle" x="493.0" y="336.4">1.7sqm / 1.0jo</text><text fill="#1b1b1b" font-size="10" text-anchor="middle" x="329.2" y="533.2">Wash 1</text><text fill="#1b1b1b" font-size="10" text-anchor="middle" x="329.2" y="544.0">1820x1820mm</text><text fill="#1b1b1b" font-size="10" text-anchor="middle" x="329.2" y="554.8">3.3sqm / 2.0jo</text><text fill="#111111" font-size="14" x="220.0" y="180.0">F1 Plan  (8190 x 8190 mm)</text><text fill="#444444" font-size="10" x="220.0" y="198.0">Scale: 1px=8.3mm</text><rect fill="#ffffff" height="198" stroke="#777777" stroke-width="1" width="170" x="1290.8" y="150.0" /><text fill="#111111" font-size="11" x="1298.8" y="164.0">Legend</text><rect fill="#f8f0d9" height="12" stroke="#333333" stroke-width="1" width="12" x="1298.8" y="174.0" /><text fill="#222222" font-size="10" x="1316.8" y="184.0">Entry</text><rect fill="#efe9ff" height="12" stroke="#333333" stroke-width="1" width="12" x="1298.8" y="192.0" /><text fill="#222222" font-size="10" x="1316.8" y="202.0">Hall</text><rect fill="#ffe2b8" height="12" stroke="#333333" stroke-width="1" width="12" x="1298.8" y="210.0" /><text fill="#222222" font-size="10" x="1316.8" y="220.0">Ldk</text><rect fill="#d9f2ff" height="12" stroke="#333333" stroke-width="1" width="12" x="1298.8" y="228.0" /><text fill="#222222" font-size="10" x="1316.8" y="238.0">Bedroom</text><rect fill="#fbe7e6" height="12" stroke="#333333" stroke-width="1" width="12" x="1298.8" y="246.0" /><text fill="#222222" font-size="10" x="1316.8" y="256.0">Toilet</text><rect fill="#e7fbfb" height="12" stroke="#333333" stroke-width="1" width="12" x="1298.8" y="264.0" /><text fill="#222222" font-size="10" x="1316.8" y="274.0">Washroom</text><rect fill="#dcecff" height="12" stroke="#333333" stroke-width="1" width="12" x="1298.8" y="282.0" /><text fill="#222222" font-size="10" x="1316.8" y="292.0">Bath</text><rect fill="#f0f0f0" height="12" stroke="#333333" stroke-width="1" width="12" x="1298.8" y="300.0" /><text fill="#222222" font-size="10" x="1316.8" y="310.0">Storage</text><line stroke="#6aa4ff" stroke-width="4" x1="1298.8" x2="1325.8" y1="330.0" y2="330.0" /><text fill="#222222" font-size="10" x="1332.8" y="333.0">Window</text><line stroke="#666666" stroke-width="2.4" x1="1298.8" x2="1325.8" y1="346.0" y2="346.0" /><path d="M 1298.8,346.0 A 10,10 0 0 1 1308.8,336.0" fill="none" stroke="#666666" stroke-width="1.2" /><text fill="#222222" font-size="10" x="1332.8" y="349.0">Door</text><rect fill="#ffffff" height="84" stroke="#777777" stroke-width="1" width="200" x="1290.8" y="520.0" /><text fill="#111111" font-size="10" x="1298.8" y="533.0">Area (F1)</text><text fill="#222222" font-size="9" x="1298.8" y="550.0">F1: in 67.1 sqm (20.3 tsubo), out 0.0 sqm (0.0 tsubo)</text><text fill="#222222" font-size="9" x="1298.8" y="566.0">F2: in 67.1 sqm (20.3 tsubo), out 0.0 sqm (0.0 tsubo)</text><text fill="#222222" font-size="9" x="1298.8" y="582.0">Total indoor: 134.2 sqm (40.6 tsubo)</text><text fill="#222222" font-size="9" x="1298.8" y="598.0">Total outdoor: 0.0 sqm (0.0 tsubo)</text><line stroke="#111111" stroke-width="2" x1="175.0" x2="175.0" y1="238.0" y2="208.0" /><polygon fill="#111111" points="175.0,208.0 181.0,214.0 169.0,214.0" /><text fill="#111111" font-size="12" x="170.0" y="202.0">N</text><line stroke="#545454" stroke-width="1.0" x1="220.0" x2="1202.8" y1="148.0" y2="148.0" /><line stroke="#545454" stroke-width="0.8" x1="220.0" x2="220.0" y1="220.0" y2="148.0" /><line stroke="#545454" stroke-width="1.0" x1="220.0" x2="220.0" y1="145.0" y2="151.0" /><line stroke="#545454" stroke-width="0.8" x1="1202.8" x2="1202.8" y1="220.0" y2="148.0" /><line stroke="#545454" stroke-width="1.0" x1="1202.8" x2="1202.8" y1="145.0" y2="151.0" /><text fill="#545454" font-size="8.8" text-anchor="middle" x="711.4" y="145.0">8190mm</text><line stroke="#666666" stroke-width="1.0" x1="220.0" x2="1202.8" y1="166.0" y2="166.0" /><line stroke="#666666" stroke-width="0.8" x1="220.0" x2="220.0" y1="220.0" y2="166.0" /><line stroke="#666666" stroke-width="1.0" x1="220.0" x2="220.0" y1="163.0" y2="169.0" /><line stroke="#666666" stroke-width="0.8" x1="438.4" x2="438.4" y1="220.0" y2="166.0" /><line stroke="#666666" stroke-width="1.0" x1="438.4" x2="438.4" y1="163.0" y2="169.0" /><line stroke="#666666" stroke-width="0.8" x1="547.6" x2="547.6" y1="220.0" y2="166.0" /><line stroke="#666666" stroke-width="1.0" x1="547.6" x2="547.6" y1="163.0" y2="169.0" /><line stroke="#666666" stroke-width="0.8" x1="766.0" x2="766.0" y1="220.0" y2="166.0" /><line stroke="#666666" stroke-width="1.0" x1="766.0" x2="766.0" y1="163.0" y2="169.0" /><line stroke="#666666" stroke-width="0.8" x1="1202.8" x2="1202.8" y1="220.0" y2="166.0" /><line stroke="#666666" stroke-width="1.0" x1="1202.8" x2="1202.8" y1="163.0" y2="169.0" /><text fill="#666666" font-size="8.2" text-anchor="middle" x="329.2" y="163.0">1820</text><text fill="#666666" font-size="8.2" text-anchor="middle" x="493.0" y="163.0">910</text><text fill="#666666" font-size="8.2" text-anchor="middle" x="656.8" y="163.0">1820</text><text fill="#666666" font-size="8.2" text-anchor="middle" x="984.4" y="163.0">3640</text><line stroke="#7a7a7a" stroke-width="1.0" x1="220.0" x2="1202.8" y1="184.0" y2="184.0" /><line stroke="#7a7a7a" stroke-width="0.8" x1="220.0" x2="220.0" y1="220.0" y2="184.0" /><line stroke="#7a7a7a" stroke-width="1.0" x1="220.0" x2="220.0" y1="181.0" y2="187.0" /><line stroke="#7a7a7a" stroke-width="0.8" x1="820.6" x2="820.6" y1="220.0" y2="184.0" /><line stroke="#7a7a7a" stroke-width="1.0" x1="820.6" x2="820.6" y1="181.0" y2="187.0" /><line stroke="#7a7a7a" stroke-width="0.8" x1="984.4" x2="984.4" y1="220.0" y2="184.0" /><line stroke="#7a7a7a" stroke-width="1.0" x1="984.4" x2="984.4" y1="181.0" y2="187.0" /><line stroke="#7a7a7a" stroke-width="0.8" x1="1148.2" x2="1148.2" y1="220.0" y2="184.0" /><line stroke="#7a7a7a" stroke-width="1.0" x1="1148.2" x2="1148.2" y1="181.0" y2="187.0" /><line stroke="#7a7a7a" stroke-width="0.8" x1="1202.8" x2="1202.8" y1="220.0" y2="184.0" /><line stroke="#7a7a7a" stroke-width="1.0" x1="1202.8" x2="1202.8" y1="181.0" y2="187.0" /><text fill="#7a7a7a" font-size="7.8" text-anchor="middle" x="520.3" y="181.0">5005</text><text fill="#7a7a7a" font-size="7.8" text-anchor="middle" x="902.5" y="181.0">1365</text><text fill="#7a7a7a" font-size="7.8" text-anchor="middle" x="1066.3" y="181.0">1365</text><line stroke="#545454" stroke-width="1.0" x1="220.0" x2="1202.8" y1="1274.8" y2="1274.8" /><line stroke="#545454" stroke-width="0.8" x1="220.0" x2="220.0" y1="1202.8" y2="1274.8" /><line stroke="#545454" stroke-width="1.0" x1="220.0" x2="220.0" y1="1271.8" y2="1277.8" /><line stroke="#545454" stroke-width="0.8" x1="1202.8" x2="1202.8" y1="1202.8" y2="1274.8" /><line stroke="#545454" stroke-width="1.0" x1="1202.8" x2="1202.8" y1="1271.8" y2="1277.8" /><text fill="#545454" font-size="8.8" text-anchor="middle" x="711.4" y="1284.8">8190mm</text><line stroke="#666666" stroke-width="1.0" x1="220.0" x2="1202.8" y1="1256.8" y2="1256.8" /><line stroke="#666666" stroke-width="0.8" x1="220.0" x2="220.0" y1="1202.8" y2="1256.8" /><line stroke="#666666" stroke-width="1.0" x1="220.0" x2="220.0" y1="1253.8" y2="1259.8" /><line stroke="#666666" stroke-width="0.8" x1="547.6" x2="547.6" y1="1202.8" y2="1256.8" /><line stroke="#666666" stroke-width="1.0" x1="547.6" x2="547.6" y1="1253.8" y2="1259.8" /><line stroke="#666666" stroke-width="0.8" x1="875.2" x2="875.2" y1="1202.8" y2="1256.8" /><line stroke="#666666" stroke-width="1.0" x1="875.2" x2="875.2" y1="1253.8" y2="1259.8" /><line stroke="#666666" stroke-width="0.8" x1="1202.8" x2="1202.8" y1="1202.8" y2="1256.8" /><line stroke="#666666" stroke-width="1.0" x1="1202.8" x2="1202.8" y1="1253.8" y2="1259.8" /><text fill="#666666" font-size="8.2" text-anchor="middle" x="383.79999999999995" y="1266.8">2730</text><text fill="#666666" font-size="8.2" text-anchor="middle" x="711.4" y="1266.8">2730</text><text fill="#666666" font-size="8.2" text-anchor="middle" x="1039.0" y="1266.8">2730</text><line stroke="#7a7a7a" stroke-width="1.0" x1="220.0" x2="1202.8" y1="1238.8" y2="1238.8" /><line stroke="#7a7a7a" stroke-width="0.8" x1="220.0" x2="220.0" y1="1202.8" y2="1238.8" /><line stroke="#7a7a7a" stroke-width="1.0" x1="220.0" x2="220.0" y1="1235.8" y2="1241.8" /><line stroke="#7a7a7a" stroke-width="0.8" x1="329.2" x2="329.2" y1="1202.8" y2="1238.8" /><line stroke="#7a7a7a" stroke-width="1.0" x1="329.2" x2="329.2" y1="1235.8" y2="1241.8" /><line stroke="#7a7a7a" stroke-width="0.8" x1="438.4" x2="438.4" y1="1202.8" y2="1238.8" /><line stroke="#7a7a7a" stroke-width="1.0" x1="438.4" x2="438.4" y1="1235.8" y2="1241.8" /><line stroke="#7a7a7a" stroke-width="0.8" x1="656.8" x2="656.8" y1="1202.8" y2="1238.8" /><line stroke="#7a7a7a" stroke-width="1.0" x1="656.8" x2="656.8" y1="1235.8" y2="1241.8" /><line stroke="#7a7a7a" stroke-width="0.8" x1="766.0" x2="766.0" y1="1202.8" y2="1238.8" /><line stroke="#7a7a7a" stroke-width="1.0" x1="766.0" x2="766.0" y1="1235.8" y2="1241.8" /><line stroke="#7a7a7a" stroke-width="0.8" x1="984.4" x2="984.4" y1="1202.8" y2="1238.8" /><line stroke="#7a7a7a" stroke-width="1.0" x1="984.4" x2="984.4" y1="1235.8" y2="1241.8" /><line stroke="#7a7a7a" stroke-width="0.8" x1="1093.6" x2="1093.6" y1="1202.8" y2="1238.8" /><line stroke="#7a7a7a" stroke-width="1.0" x1="1093.6" x2="1093.6" y1="1235.8" y2="1241.8" /><line stroke="#7a7a7a" stroke-width="0.8" x1="1202.8" x2="1202.8" y1="1202.8" y2="1238.8" /><line stroke="#7a7a7a" stroke-width="1.0" x1="1202.8" x2="1202.8" y1="1235.8" y2="1241.8" /><text fill="#7a7a7a" font-size="7.8" text-anchor="middle" x="274.6" y="1248.8">910</text><text fill="#7a7a7a" font-size="7.8" text-anchor="middle" x="383.79999999999995" y="1248.8">910</text><text fill="#7a7a7a" font-size="7.8" text-anchor="middle" x="547.5999999999999" y="1248.8">1820</text><text fill="#7a7a7a" font-size="7.8" text-anchor="middle" x="711.4" y="1248.8">910</text><text fill="#7a7a7a" font-size="7.8" text-anchor="middle" x="875.1999999999999" y="1248.8">1820</text><text fill="#7a7a7a" font-size="7.8" text-anchor="middle" x="1039.0" y="1248.8">910</text><text fill="#7a7a7a" font-size="7.8" text-anchor="middle" x="1148.1999999999998" y="1248.8">910</text><line stroke="#545454" stroke-width="1.0" x1="148.0" x2="148.0" y1="220.0" y2="1202.8" /><line stroke="#545454" stroke-width="0.8" x1="220.0" x2="148.0" y1="220.0" y2="220.0" /><line stroke="#545454" stroke-width="1.0" x1="145.0" x2="151.0" y1="220.0" y2="220.0" /><line stroke="#545454" stroke-width="0.8" x1="220.0" x2="148.0" y1="1202.8" y2="1202.8" /><line stroke="#545454" stroke-width="1.0" x1="145.0" x2="151.0" y1="1202.8" y2="1202.8" /><text fill="#545454" font-size="8.8" x="144.0" y="711.4">8190mm</text><line stroke="#666666" stroke-width="1.0" x1="166.0" x2="166.0" y1="220.0" y2="1202.8" /><line stroke="#666666" stroke-width="0.8" x1="220.0" x2="166.0" y1="220.0" y2="220.0" /><line stroke="#666666" stroke-width="1.0" x1="163.0" x2="169.0" y1="220.0" y2="220.0" /><line stroke="#666666" stroke-width="0.8" x1="220.0" x2="166.0" y1="438.4" y2="438.4" /><line stroke="#666666" stroke-width="1.0" x1="163.0" x2="169.0" y1="438.4" y2="438.4" /><line stroke="#666666" stroke-width="0.8" x1="220.0" x2="166.0" y1="656.8" y2="656.8" /><line stroke="#666666" stroke-width="1.0" x1="163.0" x2="169.0" y1="656.8" y2="656.8" /><line stroke="#666666" stroke-width="0.8" x1="220.0" x2="166.0" y1="875.2" y2="875.2" /><line stroke="#666666" stroke-width="1.0" x1="163.0" x2="169.0" y1="875.2" y2="875.2" /><line stroke="#666666" stroke-width="0.8" x1="220.0" x2="166.0" y1="1202.8" y2="1202.8" /><line stroke="#666666" stroke-width="1.0" x1="163.0" x2="169.0" y1="1202.8" y2="1202.8" /><text fill="#666666" font-size="8.2" x="162.0" y="329.2">1820</text><text fill="#666666" font-size="8.2" x="162.0" y="547.5999999999999">1820</text><text fill="#666666" font-size="8.2" x="162.0" y="766.0">1820</text><text fill="#666666" font-size="8.2" x="162.0" y="1039.0">2730</text><line stroke="#7a7a7a" stroke-width="1.0" x1="184.0" x2="184.0" y1="220.0" y2="1202.8" /><line stroke="#7a7a7a" stroke-width="0.8" x1="220.0" x2="184.0" y1="220.0" y2="220.0" /><line stroke="#7a7a7a" stroke-width="1.0" x1="181.0" x2="187.0" y1="220.0" y2="220.0" /><line stroke="#7a7a7a" stroke-width="0.8" x1="220.0" x2="184.0" y1="711.4" y2="711.4" /><line stroke="#7a7a7a" stroke-width="1.0" x1="181.0" x2="187.0" y1="711.4" y2="711.4" /><line stroke="#7a7a7a" stroke-width="0.8" x1="220.0" x2="184.0" y1="820.6" y2="820.6" /><line stroke="#7a7a7a" stroke-width="1.0" x1="181.0" x2="187.0" y1="820.6" y2="820.6" /><line stroke="#7a7a7a" stroke-width="0.8" x1="220.0" x2="184.0" y1="984.4" y2="984.4" /><line stroke="#7a7a7a" stroke-width="1.0" x1="181.0" x2="187.0" y1="984.4" y2="984.4" /><line stroke="#7a7a7a" stroke-width="0.8" x1="220.0" x2="184.0" y1="1093.6" y2="1093.6" /><line stroke="#7a7a7a" stroke-width="1.0" x1="181.0" x2="187.0" y1="1093.6" y2="1093.6" /><line stroke="#7a7a7a" stroke-width="0.8" x1="220.0" x2="184.0" y1="1202.8" y2="1202.8" /><line stroke="#7a7a7a" stroke-width="1.0" x1="181.0" x2="187.0" y1="1202.8" y2="1202.8" /><text fill="#7a7a7a" font-size="7.8" x="180.0" y="465.7">4095</text><text fill="#7a7a7a" font-size="7.8" x="180.0" y="766.0">910</text><text fill="#7a7a7a" font-size="7.8" x="180.0" y="902.5">1365</text><text fill="#7a7a7a" font-size="7.8" x="180.0" y="1039.0">910</text><text fill="#7a7a7a" font-size="7.8" x="180.0" y="1148.1999999999998">910</text><line stroke="#545454" stroke-width="1.0" x1="1274.8" x2="1274.8" y1="220.0" y2="1202.8" /><line stroke="#545454" stroke-width="0.8" x1="1202.8" x2="1274.8" y1="220.0" y2="220.0" /><line stroke="#545454" stroke-width="1.0" x1="1271.8" x2="1277.8" y1="220.0" y2="220.0" /><line stroke="#545454" stroke-width="0.8" x1="1202.8" x2="1274.8" y1="1202.8" y2="1202.8" /><line stroke="#545454" stroke-width="1.0" x1="1271.8" x2="1277.8" y1="1202.8" y2="1202.8" /><text fill="#545454" font-size="8.8" x="1279.8" y="711.4">8190mm</text><line stroke="#666666" stroke-width="1.0" x1="1256.8" x2="1256.8" y1="220.0" y2="1202.8" /><line stroke="#666666" stroke-width="0.8" x1="1202.8" x2="1256.8" y1="220.0" y2="220.0" /><line stroke="#666666" stroke-width="1.0" x1="1253.8" x2="1259.8" y1="220.0" y2="220.0" /><line stroke="#666666" stroke-width="0.8" x1="1202.8" x2="1256.8" y1="875.2" y2="875.2" /><line stroke="#666666" stroke-width="1.0" x1="1253.8" x2="1259.8" y1="875.2" y2="875.2" /><line stroke="#666666" stroke-width="0.8" x1="1202.8" x2="1256.8" y1="1202.8" y2="1202.8" /><line stroke="#666666" stroke-width="1.0" x1="1253.8" x2="1259.8" y1="1202.8" y2="1202.8" /><text fill="#666666" font-size="8.2" x="1261.8" y="547.5999999999999">5460</text><text fill="#666666" font-size="8.2" x="1261.8" y="1039.0">2730</text><line stroke="#7a7a7a" stroke-width="1.0" x1="1238.8" x2="1238.8" y1="220.0" y2="1202.8" /><line stroke="#7a7a7a" stroke-width="0.8" x1="1202.8" x2="1238.8" y1="220.0" y2="220.0" /><line stroke="#7a7a7a" stroke-width="1.0" x1="1235.8" x2="1241.8" y1="220.0" y2="220.0" /><line stroke="#7a7a7a" stroke-width="0.8" x1="1202.8" x2="1238.8" y1="329.2" y2="329.2" /><line stroke="#7a7a7a" stroke-width="1.0" x1="1235.8" x2="1241.8" y1="329.2" y2="329.2" /><line stroke="#7a7a7a" stroke-width="0.8" x1="1202.8" x2="1238.8" y1="493.0" y2="493.0" /><line stroke="#7a7a7a" stroke-width="1.0" x1="1235.8" x2="1241.8" y1="493.0" y2="493.0" /><line stroke="#7a7a7a" stroke-width="0.8" x1="1202.8" x2="1238.8" y1="602.2" y2="602.2" /><line stroke="#7a7a7a" stroke-width="1.0" x1="1235.8" x2="1241.8" y1="602.2" y2="602.2" /><line stroke="#7a7a7a" stroke-width="0.8" x1="1202.8" x2="1238.8" y1="766.0" y2="766.0" /><line stroke="#7a7a7a" stroke-width="1.0" x1="1235.8" x2="1241.8" y1="766.0" y2="766.0" /><line stroke="#7a7a7a" stroke-width="0.8" x1="1202.8" x2="1238.8" y1="984.4" y2="984.4" /><line stroke="#7a7a7a" stroke-width="1.0" x1="1235.8" x2="1241.8" y1="984.4" y2="984.4" /><line stroke="#7a7a7a" stroke-width="0.8" x1="1202.8" x2="1238.8" y1="1093.6" y2="1093.6" /><line stroke="#7a7a7a" stroke-width="1.0" x1="1235.8" x2="1241.8" y1="1093.6" y2="1093.6" /><line stroke="#7a7a7a" stroke-width="0.8" x1="1202.8" x2="1238.8" y1="1202.8" y2="1202.8" /><line stroke="#7a7a7a" stroke-width="1.0" x1="1235.8" x2="1241.8" y1="1202.8" y2="1202.8" /><text fill="#7a7a7a" font-size="7.8" x="1243.8" y="274.6">910</text><text fill="#7a7a7a" font-size="7.8" x="1243.8" y="411.1">1365</text><text fill="#7a7a7a" font-size="7.8" x="1243.8" y="547.5999999999999">910</text><text fill="#7a7a7a" font-size="7.8" x="1243.8" y="684.0999999999999">1365</text><text fill="#7a7a7a" font-size="7.8" x="1243.8" y="875.1999999999999">1820</text><text fill="#7a7a7a" font-size="7.8" x="1243.8" y="1039.0">910</text><text fill="#7a7a7a" font-size="7.8" x="1243.8" y="1148.1999999999998">910</text></svg>