<?xml version="1.0" encoding="utf-8" ?>
<svg baseProfile="tiny" height="1422.8px" version="1.2" width="1422.8px" xmlns="http://www.w3.org/2000/svg" xmlns:ev="http://www.w3.org/2001/xml-events" xmlns:xlink="http://www.w3.org/1999/xlink"><defs /><rect fill="#fafafa" height="1422.8" width="1422.8" x="0" y="0" /><line stroke="#ececec" stroke-width="0.7" x1="220.0" x2="220.0" y1="220.0" y2="1202.8" /><line stroke="#ececec" stroke-width="0.7" x1="274.6" x2="274.6" y1="220.0" y2="1202.8" /><line stroke="#ececec" stroke-width="0.7" x1="329.2" x2="329.2" y1="220.0" y2="1202.8" /><line stroke="#ececec" stroke-width="0.7" x1="383.8" x2="383.8" y1="220.0" y2="1202.8" /><line stroke="#ececec" stroke-width="0.7" x1="438.4" x2="438.4" y1="220.0" y2="1202.8" /><line stroke="#ececec" stroke-width="0.7" x1="493.0" x2="493.0" y1="220.0" y2="1202.8" /><line stroke="#ececec" stroke-width="0.7" x1="547.6" x2="547.6" y1="220.0" y2="1202.8" /><line stroke="#ececec" stroke-width="0.7" x1="602.2" x2="602.2" y1="220.0" y2="1202.8" /><line stroke="#ececec" stroke-width="0.7" x1="656.8" x2="656.8" y1="220.0" y2="1202.8" /><line stroke="#ececec" stroke-width="0.7" x1="711.4" x2="711.4" y1="220.0" y2="1202.8" /><line stroke="#ececec" stroke-width="0.7" x1="766.0" x2="766.0" y1="220.0" y2="1202.8" /><line stroke="#ececec" stroke-width="0.7" x1="820.6" x2="820.6" y1="220.0" y2="1202.8" /><line stroke="#ececec" stroke-width="0.7" x1="875.2" x2="875.2" y1="220.0" y2="1202.8" /><line stroke="#ececec" stroke-width="0.7" x1="929.8" x2="929.8" y1="220.0" y2="1202.8" /><line stroke="#ececec" stroke-width="0.7" x1="984.4" x2="984.4" y1="220.0" y2="1202.8" /><line stroke="#ececec" stroke-width="0.7" x1="1039.0" x2="1039.0" y1="220.0" y2="1202.8" /><line stroke="#ececec" stroke-width="0.7" x1="1093.6" x2="1093.6" y1="220.0" y2="1202.8" /><line stroke="#ececec" stroke-width="0.7" x1="1148.2" x2="1148.2" y1="220.0" y2="1202.8" /><line stroke="#ececec" stroke-width="0.7" x1="1202.8" x2="1202.8" y1="220.0" y2="1202.8" /><line stroke="#d1d1d1" stroke-width="1.1" x1="220.0" x2="220.0" y1="220.0" y2="1202.8" /><line stroke="#d1d1d1" stroke-width="1.1" x1="329.2" x2="329.2" y1="220.0" y2="1202.8" /><line stroke="#d1d1d1" stroke-width="1.1" x1="438.4" x2="438.4" y1="220.0" y2="1202.8" /><line stroke="#d1d1d1" stroke-width="1.1" x1="547.6" x2="547.6" y1="220.0" y2="1202.8" /><line stroke="#d1d1d1" stroke-width="1.1" x1="656.8" x2="656.8" y1="220.0" y2="1202.8" /><line stroke="#d1d1d1" stroke-width="1.1" x1="766.0" x2="766.0" y1="220.0" y2="1202.8" /><line stroke="#d1d1d1" stroke-width="1.1" x1="875.2" x2="875.2" y1="220.0" y2="1202.8" /><line stroke="#d1d1d1" stroke-width="1.1" x1="984.4" x2="984.4" y1="220.0" y2="1202.8" /><line stroke="#d1d1d1" stroke-width="1.1" x1="1093.6" x2="1093.6" y1="220.0" y2="1202.8" /><line stroke="#d1d1d1" stroke-width="1.1" x1="1202.8" x2="1202.8" y1="220.0" y2="1202.8" /><line stroke="#d1d1d1" stroke-width="1.1" x1="220.0" x2="1202.8" y1="220.0" y2="220.0" /><line stroke="#d1d1d1" stroke-width="1.1" x1="220.0" x2="1202.8" y1="329.2" y2="329.2" /><line stroke="#d1d1d1" stroke-width="1.1" x1="220.0" x2="1202.8" y1="438.4" y2="438.4" /><line stroke="#d1d1d1" stroke-width="1.1" x1="220.0" x2="1202.8" y1="547.6" y2="547.6" /><line stroke="#d1d1d1" stroke-width="1.1" x1="220.0" x2="1202.8" y1="656.8" y2="656.8" /><line stroke="#d1d1d1" stroke-width="1.1" x1="220.0" x2="1202.8" y1="766.0" y2="766.0" /><line stroke="#d1d1d1" stroke-width="1.1" x1="220.0" x2="1202.8" y1="875.2" y2="875.2" /><line stroke="#d1d1d1" stroke-width="1.1" x1="220.0" x2="1202.8" y1="984.4" y2="984.4" /><line stroke="#d1d1d1" stroke-width="1.1" x1="220.0" x2="1202.8" y1="1093.6" y2="1093.6" /><line stroke="#d1d1d1" stroke-width="1.1" x1="220.0" x2="1202.8" y1="1202.8" y2="1202.8" /><line stroke="#ececec" stroke-width="0.7" x1="220.0" x2="1202.8" y1="220.0" y2="220.0" /><line stroke="#ececec" stroke-width="0.7" x1="220.0" x2="1202.8" y1="274.6" y2="274.6" /><line stroke="#ececec" stroke-width="0.7" x1="220.0" x2="1202.8" y1="329.2" y2="329.2" /><line stroke="#ececec" stroke-width="0.7" x1="220.0" x2="1202.8" y1="383.8" y2="383.8" /><line stroke="#ececec" stroke-width="0.7" x1="220.0" x2="1202.8" y1="438.4" y2="438.4" /><line stroke="#ececec" stroke-width="0.7" x1="220.0" x2="1202.8" y1="493.0" y2="493.0" /><line stroke="#ececec" stroke-width="0.7" x1="220.0" x2="1202.8" y1="547.6" y2="547.6" /><line stroke="#ececec" stroke-width="0.7" x1="220.0" x2="1202.8" y1="602.2" y2="602.2" /><line stroke="#ececec" stroke-width="0.7" x1="220.0" x2="1202.8" y1="656.8" y2="656.8" /><line stroke="#ececec" stroke-width="0.7" x1="220.0" x2="1202.8" y1="711.4" y2="711.4" /><line stroke="#ececec" stroke-width="0.7" x1="220.0" x2="1202.8" y1="766.0" y2="766.0" /><line stroke="#ececec" stroke-width="0.7" x1="220.0" x2="1202.8" y1="820.6" y2="820.6" /><line stroke="#ececec" stroke-width="0.7" x1="220.0" x2="1202.8" y1="875.2" y2="875.2" /><line stroke="#ececec" stroke-width="0.7" x1="220.0" x2="1202.8" y1="929.8" y2="929.8" /><line stroke="#ececec" stroke-width="0.7" x1="220.0" x2="1202.8" y1="984.4" y2="984.4" /><line stroke="#ececec" stroke-width="0.7" x1="220.0" x2="1202.8" y1="1039.0" y2="1039.0" /><line stroke="#ececec" stroke-width="0.7" x1="220.0" x2="1202.8" y1="1093.6" y2="1093.6" /><line stroke="#ececec" stroke-width="0.7" x1="220.0" x2="1202.8" y1="1148.2" y2="1148.2" /><line stroke="#ececec" stroke-width="0.7" x1="220.0" x2="1202.8" y1="1202.8" y2="1202.8" /><rect fill="none" height="982.8" stroke="#6a6a6a" stroke-dasharray="8,4" stroke-width="2" width="982.8" x="220.0" y="220.0" /><rect fill="none" height="982.8" stroke="#1f1f1f" stroke-width="3.5" width="982.8" x="220.0" y="220.0" /><text fill="#555555" font-size="10" x="222.0" y="160.0">Site Envelope = Building Footprint</text><rect fill="#dcecff" height="218.4" stroke="none" width="218.4" x="438.4" y="220.0" /><line stroke="#2f2f2f" stroke-width="2.2" x1="438.4" x2="656.8" y1="438.4" y2="438.4" /><line stroke="#2f2f2f" stroke-width="2.2" x1="438.4" x2="656.8" y1="220.0" y2="220.0" /><line stroke="#2f2f2f" stroke-width="2.2" x1="438.4" x2="438.4" y1="220.0" y2="438.4" /><line stroke="#2f2f2f" stroke-width="2.2" x1="656.8" x2="656.8" y1="220.0" y2="438.4" /><rect fill="#d9f2ff" height="382.2" stroke="none" width="382.2" x="329.2" y="820.6" /><line stroke="#2f2f2f" stroke-width="2.2" x1="329.2" x2="711.4" y1="820.6" y2="820.6" /><line stroke="#2f2f2f" stroke-width="2.2" x1="329.2" x2="711.4" y1="1202.8" y2="1202.8" /><line stroke="#2f2f2f" stroke-width="2.2" x1="711.4" x2="711.4" y1="820.6" y2="1202.8" /><line stroke="#2f2f2f" stroke-width="2.2" x1="329.2" x2="329.2" y1="820.6" y2="1202.8" /><rect fill="#f8f0d9" height="273.0" stroke="none" width="163.8" x="220.0" y="438.4" /><line stroke="#2f2f2f" stroke-width="2.2" x1="220.0" x2="383.8" y1="438.4" y2="438.4" /><line stroke="#2f2f2f" stroke-width="2.2" x1="220.0" x2="383.8" y1="711.4" y2="711.4" /><line stroke="#2f2f2f" stroke-width="2.2" x1="220.0" x2="220.0" y1="438.4" y2="711.4" /><line stroke="#2f2f2f" stroke-width="2.2" x1="383.8" x2="383.8" y1="438.4" y2="711.4" /><rect fill="#efe9ff" height="273.0" stroke="none" width="109.2" x="383.8" y="438.4" /><rect fill="#efe9ff" height="109.2" stroke="none" width="382.2" x="329.2" y="711.4" /><rect fill="#efe9ff" height="273.0" stroke="none" width="109.2" x="220.0" y="711.4" /><line stroke="#2f2f2f" stroke-width="2.2" x1="383.8" x2="493.0" y1="438.4" y2="438.4" /><line stroke="#2f2f2f" stroke-width="2.2" x1="220.0" x2="329.2" y1="984.4" y2="984.4" /><line stroke="#2f2f2f" stroke-width="2.2" x1="220.0" x2="383.8" y1="711.4" y2="711.4" /><line stroke="#2f2f2f" stroke-width="2.2" x1="493.0" x2="711.4" y1="711.4" y2="711.4" /><line stroke="#2f2f2f" stroke-width="2.2" x1="329.2" x2="711.4" y1="820.6" y2="820.6" /><line stroke="#2f2f2f" stroke-width="2.2" x1="383.8" x2="383.8" y1="438.4" y2="711.4" /><line stroke="#2f2f2f" stroke-width="2.2" x1="220.0" x2="220.0" y1="711.4" y2="984.4" /><line stroke="#2f2f2f" stroke-width="2.2" x1="493.0" x2="493.0" y1="438.4" y2="711.4" /><line stroke="#2f2f2f" stroke-width="2.2" x1="329.2" x2="329.2" y1="820.6" y2="984.4" /><line stroke="#2f2f2f" stroke-width="2.2" x1="711.4" x2="711.4" y1="711.4" y2="820.6" /><rect fill="#ffe2b8" height="546.0" stroke="none" width="491.4" x="711.4" y="438.4" /><rect fill="#ffe2b8" height="218.4" stroke="none" width="273.0" x="711.4" y="984.4" /><line stroke="#2f2f2f" stroke-width="2.2" x1="711.4" x2="984.4" y1="1202.8" y2="1202.8" /><line stroke="#2f2f2f" stroke-width="2.2" x1="711.4" x2="1202.8" y1="438.4" y2="438.4" /><line stroke="#2f2f2f" stroke-width="2.2" x1="984.4" x2="1202.8" y1="984.4" y2="984.4" /><line stroke="#2f2f2f" stroke-width="2.2" x1="984.4" x2="984.4" y1="984.4" y2="1202.8" /><line stroke="#2f2f2f" stroke-width="2.2" x1="1202.8" x2="1202.8" y1="438.4" y2="984.4" /><line stroke="#2f2f2f" stroke-width="2.2" x1="711.4" x2="711.4" y1="438.4" y2="1202.8" /><rect fill="#f0f0f0" height="218.4" stroke="none" width="218.4" x="984.4" y="984.4" /><line stroke="#2f2f2f" stroke-width="2.2" x1="984.4" x2="1202.8" y1="984.4" y2="984.4" /><line stroke="#2f2f2f" stroke-width="2.2" x1="984.4" x2="1202.8" y1="1202.8" y2="1202.8" /><line stroke="#2f2f2f" stroke-width="2.2" x1="1202.8" x2="1202.8" y1="984.4" y2="1202.8" /><line stroke="#2f2f2f" stroke-width="2.2" x1="984.4" x2="984.4" y1="984.4" y2="1202.8" /><rect fill="#d9f2ff" height="218.4" stroke="none" width="546.0" x="656.8" y="220.0" /><line stroke="#2f2f2f" stroke-width="2.2" x1="656.8" x2="1202.8" y1="438.4" y2="438.4" /><line stroke="#2f2f2f" stroke-width="2.2" x1="656.8" x2="1202.8" y1="220.0" y2="220.0" /><line stroke="#2f2f2f" stroke-width="2.2" x1="1202.8" x2="1202.8" y1="220.0" y2="438.4" /><line stroke="#2f2f2f" stroke-width="2.2" x1="656.8" x2="656.8" y1="220.0" y2="438.4" /><rect fill="#fbe7e6" height="218.4" stroke="none" width="109.2" x="220.0" y="984.4" /><line stroke="#2f2f2f" stroke-width="2.2" x1="220.0" x2="329.2" y1="984.4" y2="984.4" /><line stroke="#2f2f2f" stroke-width="2.2" x1="220.0" x2="329.2" y1="1202.8" y2="1202.8" /><line stroke="#2f2f2f" stroke-width="2.2" x1="220.0" x2="220.0" y1="984.4" y2="1202.8" /><line stroke="#2f2f2f" stroke-width="2.2" x1="329.2" x2="329.2" y1="984.4" y2="1202.8" /><rect fill="#e7fbfb" height="218.4" stroke="none" width="218.4" x="220.0" y="220.0" /><line stroke="#2f2f2f" stroke-width="2.2" x1="220.0" x2="438.4" y1="220.0" y2="220.0" /><line stroke="#2f2f2f" stroke-width="2.2" x1="220.0" x2="438.4" y1="438.4" y2="438.4" /><line stroke="#2f2f2f" stroke-width="2.2" x1="438.4" x2="438.4" y1="220.0" y2="438.4" /><line stroke="#2f2f2f" stroke-width="2.2" x1="220.0" x2="220.0" y1="220.0" y2="438.4" /><rect fill="#f7f3ea" fill-opacity="0.35" height="109.2" stroke="#9a9a9a" stroke-dasharray="4,3" stroke-width="0.9" width="218.4" x="329.2" y="820.6" /><line stroke="#9c9c9c" stroke-opacity="0.7" stroke-width="0.8" x1="329.2" x2="348.4" y1="910.6" y2="929.8" /><line stroke="#9c9c9c" stroke-opacity="0.7" stroke-width="0.8" x1="329.2" x2="367.6" y1="891.4" y2="929.8" /><line stroke="#9c9c9c" stroke-opacity="0.7" stroke-width="0.8" x1="329.2" x2="386.8" y1="872.2" y2="929.8" /><line stroke="#9c9c9c" stroke-opacity="0.7" stroke-width="0.8" x1="329.2" x2="406.0" y1="853.0" y2="929.8" /><line stroke="#9c9c9c" stroke-opacity="0.7" stroke-width="0.8" x1="329.2" x2="425.2" y1="833.8" y2="929.8" /><line stroke="#9c9c9c" stroke-opacity="0.7" stroke-width="0.8" x1="335.2" x2="444.4" y1="820.6" y2="929.8" /><line stroke="#9c9c9c" stroke-opacity="0.7" stroke-width="0.8" x1="354.4" x2="463.6" y1="820.6" y2="929.8" /><line stroke="#9c9c9c" stroke-opacity="0.7" stroke-width="0.8" x1="373.6" x2="482.8" y1="820.6" y2="929.8" /><line stroke="#9c9c9c" stroke-opacity="0.7" stroke-width="0.8" x1="392.8" x2="502.0" y1="820.6" y2="929.8" /><line stroke="#9c9c9c" stroke-opacity="0.7" stroke-width="0.8" x1="412.0" x2="521.2" y1="820.6" y2="929.8" /><line stroke="#9c9c9c" stroke-opacity="0.7" stroke-width="0.8" x1="431.2" x2="540.4" y1="820.6" y2="929.8" /><line stroke="#9c9c9c" stroke-opacity="0.7" stroke-width="0.8" x1="450.4" x2="547.6" y1="820.6" y2="917.8" /><line stroke="#9c9c9c" stroke-opacity="0.7" stroke-width="0.8" x1="469.6" x2="547.6" y1="820.6" y2="898.6" /><line stroke="#9c9c9c" stroke-opacity="0.7" stroke-width="0.8" x1="488.8" x2="547.6" y1="820.6" y2="879.4" /><line stroke="#9c9c9c" stroke-opacity="0.7" stroke-width="0.8" x1="508.0" x2="547.6" y1="820.6" y2="860.2" /><line stroke="#9c9c9c" stroke-opacity="0.7" stroke-width="0.8" x1="527.2" x2="547.6" y1="820.6" y2="841.0" /><line stroke="#9c9c9c" stroke-opacity="0.7" stroke-width="0.8" x1="546.4" x2="547.6" y1="820.6" y2="821.8" /><rect fill="#f7f3ea" fill-opacity="0.35" height="109.2" stroke="#9a9a9a" stroke-dasharray="4,3" stroke-width="0.9" width="218.4" x="656.8" y="220.0" /><line stroke="#9c9c9c" stroke-opacity="0.7" stroke-width="0.8" x1="656.8" x2="676.0" y1="310.0" y2="329.2" /><line stroke="#9c9c9c" stroke-opacity="0.7" stroke-width="0.8" x1="656.8" x2="695.2" y1="290.8" y2="329.2" /><line stroke="#9c9c9c" stroke-opacity="0.7" stroke-width="0.8" x1="656.8" x2="714.4" y1="271.6" y2="329.2" /><line stroke="#9c9c9c" stroke-opacity="0.7" stroke-width="0.8" x1="656.8" x2="733.6" y1="252.4" y2="329.2" /><line stroke="#9c9c9c" stroke-opacity="0.7" stroke-width="0.8" x1="656.8" x2="752.8" y1="233.2" y2="329.2" /><line stroke="#9c9c9c" stroke-opacity="0.7" stroke-width="0.8" x1="662.8" x2="772.0" y1="220.0" y2="329.2" /><line stroke="#9c9c9c" stroke-opacity="0.7" stroke-width="0.8" x1="682.0" x2="791.2" y1="220.0" y2="329.2" /><line stroke="#9c9c9c" stroke-opacity="0.7" stroke-width="0.8" x1="701.2" x2="810.4" y1="220.0" y2="329.2" /><line stroke="#9c9c9c" stroke-opacity="0.7" stroke-width="0.8" x1="720.4" x2="829.6" y1="220.0" y2="329.2" /><line stroke="#9c9c9c" stroke-opacity="0.7" stroke-width="0.8" x1="739.6" x2="848.8" y1="220.0" y2="329.2" /><line stroke="#9c9c9c" stroke-opacity="0.7" stroke-width="0.8" x1="758.8" x2="868.0" y1="220.0" y2="329.2" /><line stroke="#9c9c9c" stroke-opacity="0.7" stroke-width="0.8" x1="778.0" x2="875.2" y1="220.0" y2="317.2" /><line stroke="#9c9c9c" stroke-opacity="0.7" stroke-width="0.8" x1="797.2" x2="875.2" y1="220.0" y2="298.0" /><line stroke="#9c9c9c" stroke-opacity="0.7" stroke-width="0.8" x1="816.4" x2="875.2" y1="220.0" y2="278.8" /><line stroke="#9c9c9c" stroke-opacity="0.7" stroke-width="0.8" x1="835.6" x2="875.2" y1="220.0" y2="259.6" /><line stroke="#9c9c9c" stroke-opacity="0.7" stroke-width="0.8" x1="854.8" x2="875.2" y1="220.0" y2="240.4" /><line stroke="#9c9c9c" stroke-opacity="0.7" stroke-width="0.8" x1="874.0" x2="875.2" y1="220.0" y2="221.2" /><rect fill="none" height="54.6" stroke="#8a6b4a" stroke-width="1.0" width="157.248" x="976.756" y="493.0" /><rect fill="none" height="120.12" stroke="#8a6b4a" stroke-width="1.0" width="49.14" x="1084.864" y="493.0" /><circle cx="1020.9928" cy="520.3" fill="none" r="8.4" stroke="#8a6b4a" stroke-width="0.9" /><circle cx="1042.5928" cy="520.3" fill="none" r="8.4" stroke="#8a6b4a" stroke-width="0.9" /><rect fill="none" height="28.8288" stroke="#8a6b4a" stroke-width="0.9" width="33.4152" x="1092.235" y="543.4504" /><rect fill="none" height="65.52" stroke="#8a6b4a" stroke-width="1.0" width="108.108" x="907.96" y="667.72" /><rect fill="none" height="129.948" stroke="#7f7f7f" stroke-width="1.1" width="214.032" x="413.284" y="889.396" /><line stroke="#7f7f7f" stroke-width="0.9" x1="413.284" x2="627.316" y1="934.8778" y2="934.8778" /><rect fill="none" height="74.256" stroke="#7f7f7f" stroke-width="1.1" width="218.4" x="820.6" y="259.312" /><line stroke="#7f7f7f" stroke-width="0.9" x1="820.6" x2="1039.0" y1="285.3016" y2="285.3016" /><rect fill="none" height="48.048" stroke="#6f6f6f" stroke-width="1.0" width="74.256" x="259.312" y="259.312" /><rect fill="none" height="48.048" stroke="#6f6f6f" stroke-width="1.0" width="74.256" x="346.672" y="259.312" /><line stroke="#8f8f8f" stroke-width="0.8" x1="250.576" x2="407.824" y1="244.912" y2="244.912" /><circle cx="412.0" cy="246.4" fill="none" r="8.4" stroke="#7c7c7c" stroke-width="0.9" /><line stroke="#7c7c7c" stroke-width="0.8" x1="401.2" x2="422.8" y1="246.4" y2="246.4" /><line stroke="#7c7c7c" stroke-width="0.8" x1="412.0" x2="412.0" y1="235.6" y2="257.2" /><rect fill="none" height="109.2" rx="6" ry="6" stroke="#6f6f6f" stroke-width="1.0" width="135.408" x="482.08" y="268.048" /><circle cx="630.4" cy="246.4" fill="none" r="8.4" stroke="#7c7c7c" stroke-width="0.9" /><line stroke="#7c7c7c" stroke-width="0.8" x1="619.6" x2="641.2" y1="246.4" y2="246.4" /><line stroke="#7c7c7c" stroke-width="0.8" x1="630.4" x2="630.4" y1="235.6" y2="257.2" /><line stroke="#9a9a9a" stroke-width="0.9" x1="1010.608" x2="1176.592" y1="1023.712" y2="1023.712" /><line stroke="#9a9a9a" stroke-width="0.9" x1="1010.608" x2="1176.592" y1="1163.488" y2="1163.488" /><rect fill="#ffffff" height="163.8" stroke="#202020" stroke-dasharray="8,4" stroke-width="2.6" width="109.2" x="493.0" y="547.6" /><rect fill="#ffffff" height="109.2" stroke="#202020" stroke-dasharray="8,4" stroke-width="2.6" width="218.4" x="493.0" y="438.4" /><rect fill="#ffffff" height="163.8" stroke="#202020" stroke-dasharray="8,4" stroke-width="2.6" width="109.2" x="602.2" y="547.6" /><line stroke="#2a2a2a" stroke-width="1.4" x1="506.104" x2="589.096" y1="571.0" y2="571.0" /><line stroke="#2a2a2a" stroke-width="1.4" x1="506.104" x2="589.096" y1="594.4" y2="594.4" /><line stroke="#2a2a2a" stroke-width="1.4" x1="506.104" x2="589.096" y1="617.8" y2="617.8" /><line stroke="#2a2a2a" stroke-width="1.4" x1="506.104" x2="589.096" y1="641.2" y2="641.2" /><line stroke="#2a2a2a" stroke-width="1.4" x1="506.104" x2="589.096" y1="664.6" y2="664.6" /><line stroke="#2a2a2a" stroke-width="1.4" x1="506.104" x2="589.096" y1="688.0" y2="688.0" /><line stroke="#2a2a2a" stroke-width="1.4" x1="615.304" x2="698.296" y1="571.0" y2="571.0" /><line stroke="#2a2a2a" stroke-width="1.4" x1="615.304" x2="698.296" y1="594.4" y2="594.4" /><line stroke="#2a2a2a" stroke-width="1.4" x1="615.304" x2="698.296" y1="617.8" y2="617.8" /><line stroke="#2a2a2a" stroke-width="1.4" x1="615.304" x2="698.296" y1="641.2" y2="641.2" /><line stroke="#2a2a2a" stroke-width="1.4" x1="615.304" x2="698.296" y1="664.6" y2="664.6" /><line stroke="#2a2a2a" stroke-width="1.4" x1="615.304" x2="698.296" y1="688.0" y2="688.0" /><text fill="#202020" font-size="11" text-anchor="middle" x="547.5999999999999" y="629.5">Stair (UP)</text><text fill="#3a3a3a" font-size="9.0" text-anchor="middle" x="547.5999999999999" y="643.9">13R/12T</text><text fill="#4a4a4a" font-size="7.8" text-anchor="middle" x="547.5999999999999" y="652.3">H2730 R210 T228</text><line stroke="#ffffff" stroke-width="7" x1="493.0" x2="493.0" y1="547.6" y2="711.4" /><line stroke="#5e5e5e" stroke-width="1.0" x1="493.0" x2="493.0" y1="547.6" y2="711.4" /><line stroke="#ffffff" stroke-width="6" x1="383.8" x2="383.8" y1="516.1" y2="633.7" /><line stroke="#595959" stroke-width="1.2" x1="383.8" x2="460.24" y1="516.1" y2="592.54" /><path d="M 383.79999999999995,592.54 A 76.44,76.44 0 0 1 460.24,592.54" fill="none" stroke="#7a7a7a" stroke-width="1.0" /><line stroke="#ffffff" stroke-width="6" x1="711.4" x2="711.4" y1="720.4" y2="811.6" /><line stroke="#ffffff" stroke-width="6" x1="229.0" x2="320.2" y1="984.4" y2="984.4" /><line stroke="#ffffff" stroke-width="6" x1="365.5" x2="456.7" y1="438.4" y2="438.4" /><line stroke="#ffffff" stroke-width="6" x1="438.4" x2="438.4" y1="280.06" y2="378.34" /><line stroke="#595959" stroke-width="1.2" x1="438.4" x2="374.518" y1="280.06" y2="343.942" /><path d="M 438.4,343.942 A 63.882,63.882 0 0 1 374.51800000000003,343.942" fill="none" stroke="#7a7a7a" stroke-width="1.0" /><line stroke="#ffffff" stroke-width="6" x1="711.4" x2="711.4" y1="1044.46" y2="1142.74" /><line stroke="#595959" stroke-width="1.2" x1="711.4" x2="775.282" y1="1044.46" y2="1108.342" /><path d="M 711.4,1108.342 A 63.882,63.882 0 0 1 775.282,1108.342" fill="none" stroke="#7a7a7a" stroke-width="1.0" /><line stroke="#ffffff" stroke-width="6" x1="898.3" x2="1015.9" y1="438.4" y2="438.4" /><line stroke="#595959" stroke-width="1.2" x1="898.3" x2="974.74" y1="438.4" y2="361.96" /><path d="M 974.74,438.4 A 76.44,76.44 0 0 1 974.74,361.96000000000004" fill="none" stroke="#7a7a7a" stroke-width="1.0" /><line stroke="#ffffff" stroke-width="6" x1="1044.46" x2="1142.74" y1="984.4" y2="984.4" /><line stroke="#595959" stroke-width="1.2" x1="1044.46" x2="1108.342" y1="984.4" y2="1048.282" /><path d="M 1108.342,984.4 A 63.882,63.882 0 0 1 1108.342,1048.2820000000002" fill="none" stroke="#7a7a7a" stroke-width="1.0" /><line stroke="#ffffff" stroke-width="7" x1="220.0" x2="220.0" y1="516.1" y2="633.7" /><line stroke="#595959" stroke-width="1.2" x1="220.0" x2="296.44" y1="516.1" y2="592.54" /><path d="M 220.0,592.54 A 76.44,76.44 0 0 1 296.44,592.54" fill="none" stroke="#7a7a7a" stroke-width="1.0" /><line stroke="#66a7ff" stroke-width="2.2" x1="1200.16" x2="1200.16" y1="498.46" y2="684.1" /><line stroke="#66a7ff" stroke-width="2.2" x1="1205.44" x2="1205.44" y1="498.46" y2="684.1" /><line stroke="#66a7ff" stroke-width="2.2" x1="1200.16" x2="1200.16" y1="738.7" y2="924.34" /><line stroke="#66a7ff" stroke-width="2.2" x1="1205.44" x2="1205.44" y1="738.7" y2="924.34" /><line stroke="#66a7ff" stroke-width="2.2" x1="793.3" x2="902.5" y1="1200.16" y2="1200.16" /><line stroke="#66a7ff" stroke-width="2.2" x1="793.3" x2="902.5" y1="1205.44" y2="1205.44" /><line stroke="#66a7ff" stroke-width="2.2" x1="455.38" x2="585.22" y1="1200.16" y2="1200.16" /><line stroke="#66a7ff" stroke-width="2.2" x1="455.38" x2="585.22" y1="1205.44" y2="1205.44" /><line stroke="#66a7ff" stroke-width="2.2" x1="1200.16" x2="1200.16" y1="274.6" y2="383.8" /><line stroke="#66a7ff" stroke-width="2.2" x1="1205.44" x2="1205.44" y1="274.6" y2="383.8" /><line stroke="#66a7ff" stroke-width="2.2" x1="716.86" x2="902.5" y1="217.36" y2="217.36" /><line stroke="#66a7ff" stroke-width="2.2" x1="716.86" x2="902.5" y1="222.64" y2="222.64" /><line stroke="#66a7ff" stroke-width="2.2" x1="957.1" x2="1142.74" y1="217.36" y2="217.36" /><line stroke="#66a7ff" stroke-width="2.2" x1="957.1" x2="1142.74" y1="222.64" y2="222.64" /><line stroke="#9a9a9a" stroke-width="0.8" x1="392.2" x2="484.6" y1="446.8" y2="446.8" /><line stroke="#9a9a9a" stroke-width="0.8" x1="392.2" x2="392.2" y1="443.44" y2="450.16" /><line stroke="#9a9a9a" stroke-width="0.8" x1="484.6" x2="484.6" y1="443.44" y2="450.16" /><text fill="#8a8a8a" font-size="7.6" text-anchor="start" x="398.91999999999996" y="444.15999999999997">910mm</text><line stroke="#9a9a9a" stroke-width="0.8" x1="392.2" x2="392.2" y1="446.8" y2="703.0" /><line stroke="#9a9a9a" stroke-width="0.8" x1="388.84" x2="395.56" y1="446.8" y2="446.8" /><line stroke="#9a9a9a" stroke-width="0.8" x1="388.84" x2="395.56" y1="703.0" y2="703.0" /><text fill="#8a8a8a" font-size="7.6" text-anchor="start" x="396.28" y="454.48">2275mm</text><line stroke="#9a9a9a" stroke-width="0.8" x1="228.4" x2="320.8" y1="719.8" y2="719.8" /><line stroke="#9a9a9a" stroke-width="0.8" x1="228.4" x2="228.4" y1="716.44" y2="723.16" /><line stroke="#9a9a9a" stroke-width="0.8" x1="320.8" x2="320.8" y1="716.44" y2="723.16" /><text fill="#8a8a8a" font-size="7.6" text-anchor="start" x="235.12" y="717.16">910mm</text><line stroke="#9a9a9a" stroke-width="0.8" x1="228.4" x2="228.4" y1="719.8" y2="976.0" /><line stroke="#9a9a9a" stroke-width="0.8" x1="225.04" x2="231.76" y1="719.8" y2="719.8" /><line stroke="#9a9a9a" stroke-width="0.8" x1="225.04" x2="231.76" y1="976.0" y2="976.0" /><text fill="#8a8a8a" font-size="7.6" text-anchor="start" x="232.48" y="727.48">2275mm</text><line stroke="#9a9a9a" stroke-width="0.8" x1="719.8" x2="1194.4" y1="446.8" y2="446.8" /><line stroke="#9a9a9a" stroke-width="0.8" x1="719.8" x2="719.8" y1="443.44" y2="450.16" /><line stroke="#9a9a9a" stroke-width="0.8" x1="1194.4" x2="1194.4" y1="443.44" y2="450.16" /><text fill="#8a8a8a" font-size="7.6" text-anchor="start" x="726.52" y="444.15999999999997">4095mm</text><line stroke="#9a9a9a" stroke-width="0.8" x1="719.8" x2="719.8" y1="446.8" y2="976.0" /><line stroke="#9a9a9a" stroke-width="0.8" x1="716.44" x2="723.16" y1="446.8" y2="446.8" /><line stroke="#9a9a9a" stroke-width="0.8" x1="716.44" x2="723.16" y1="976.0" y2="976.0" /><text fill="#8a8a8a" font-size="7.6" text-anchor="start" x="723.88" y="454.48">4550mm</text><line stroke="#9a9a9a" stroke-width="0.8" x1="719.8" x2="976.0" y1="992.8" y2="992.8" /><line stroke="#9a9a9a" stroke-width="0.8" x1="719.8" x2="719.8" y1="989.44" y2="996.16" /><line stroke="#9a9a9a" stroke-width="0.8" x1="976.0" x2="976.0" y1="989.44" y2="996.16" /><text fill="#8a8a8a" font-size="7.6" text-anchor="start" x="726.52" y="990.16">2275mm</text><line stroke="#9a9a9a" stroke-width="0.8" x1="719.8" x2="719.8" y1="992.8" y2="1194.4" /><line stroke="#9a9a9a" stroke-width="0.8" x1="716.44" x2="723.16" y1="992.8" y2="992.8" /><line stroke="#9a9a9a" stroke-width="0.8" x1="716.44" x2="723.16" y1="1194.4" y2="1194.4" /><text fill="#8a8a8a" font-size="7.6" text-anchor="start" x="723.88" y="1000.48">1820mm</text><text fill="#1b1b1b" font-size="10" text-anchor="middle" x="547.5999999999999" y="314.8">Bath 1</text><text fill="#1b1b1b" font-size="10" text-anchor="middle" x="547.5999999999999" y="325.6">1820x1820mm</text><text fill="#1b1b1b" font-size="10" text-anchor="middle" x="547.5999999999999" y="336.4">3.3sqm / 2.0jo</text><text fill="#1b1b1b" font-size="10" text-anchor="middle" x="520.3" y="997.3">Bedroom 1</text><text fill="#1b1b1b" font-size="10" text-anchor="middle" x="520.3" y="1008.1">3185x3185mm</text><text fill="#1b1b1b" font-size="10" text-anchor="middle" x="520.3" y="1018.9">10.1sqm / 6.3jo</text><text fill="#1b1b1b" font-size="10" text-anchor="middle" x="301.9" y="560.5">Entry</text><text fill="#1b1b1b" font-size="10" text-anchor="middle" x="301.9" y="571.3">1365x2275mm</text><text fill="#1b1b1b" font-size="10" text-anchor="middle" x="301.9" y="582.0999999999999">3.1sqm / 1.9jo</text><text fill="#1b1b1b" font-size="9" text-anchor="middle" x="423.9470588235294" y="719.4823529411765">Hall 1</text><text fill="#1b1b1b" font-size="9" text-anchor="middle" x="423.9470588235294" y="730.2823529411764">7.0sqm / 4.3jo</text><text fill="#1b1b1b" font-size="9" text-anchor="middle" x="937.2454545454545" y="766.4909090909091">Ldk</text><text fill="#1b1b1b" font-size="9" text-anchor="middle" x="937.2454545454545" y="777.290909090909">L-shape (2 parts)</text><text fill="#1b1b1b" font-size="9" text-anchor="middle" x="937.2454545454545" y="788.090909090909">4095x4550 | 2275x1820</text><text fill="#1b1b1b" font-size="9" text-anchor="middle" x="937.2454545454545" y="798.8909090909091">22.8sqm / 14.1jo</text><text fill="#1b1b1b" font-size="10" text-anchor="middle" x="1093.6" y="1079.1999999999998">Storage 1</text><text fill="#1b1b1b" font-size="10" text-anchor="middle" x="1093.6" y="1090.0">1820x1820mm</text><text fill="#1b1b1b" font-size="10" text-anchor="middle" x="1093.6" y="1100.8">3.3sqm / 2.0jo</text><text fill="#1b1b1b" font-size="10" text-anchor="middle" x="929.8" y="314.8">Study 1</text><text fill="#1b1b1b" font-size="10" text-anchor="middle" x="929.8" y="325.6">4550x1820mm</text><text fill="#1b1b1b" font-size="10" text-anchor="middle" x="929.8" y="336.4">8.3sqm / 5.1jo</text><text fill="#1b1b1b" font-size="10" text-anchor="middle" x="274.6" y="1079.1999999999998">Toilet 1</text><text fill="#1b1b1b" font-size="10" text-anchor="middle" x="274.6" y="1090.0">910x1820mm</text><text fill="#1b1b1b" font-size="10" text-anchor="middle" x="274.6" y="1100.8">1.7sqm / 1.0jo</text><text fill="#1b1b1b" font-size="10" text-anchor="middle" x="329.2" y="314.8">Wash 1</text><text fill="#1b1b1b" font-size="10" text-anchor="middle" x="329.2" y="325.6">1820x1820mm</text><text fill="#1b1b1b" font-size="10" text-anchor="middle" x="329.2" y="336.4">3.3sqm / 2.0jo</text><text fill="#4a4a4a" font-size="10" text-anchor="middle" x="438.4" y="875.1999999999999">CL</text><text fill="#4a4a4a" font-size="10" text-anchor="middle" x="766.0" y="274.6">CL</text><text fill="#111111" font-size="14" x="220.0" y="180.0">F1 Plan  (8190 x 8190 mm)</text><text fill="#444444" font-size="10" x="220.0" y="198.0">Scale: 1px=8.3mm</text><rect fill="#ffffff" height="216" stroke="#777777" stroke-width="1" width="170" x="1290.8" y="150.0" /><text fill="#111111" font-size="11" x="1298.8" y="164.0">Legend</text><rect fill="#f8f0d9" height="12" stroke="#333333" stroke-width="1" width="12" x="1298.8" y="174.0" /><text fill="#222222" font-size="10" x="1316.8" y="184.0">Entry</text><rect fill="#efe9ff" height="12" stroke="#333333" stroke-width="1" width="12" x="1298.8" y="192.0" /><text fill="#222222" font-size="10" x="1316.8" y="202.0">Hall</text><rect fill="#ffe2b8" height="12" stroke="#333333" stroke-width="1" width="12" x="1298.8" y="210.0" /><text fill="#222222" font-size="10" x="1316.8" y="220.0">Ldk</text><rect fill="#d9f2ff" height="12" stroke="#333333" stroke-width="1" width="12" x="1298.8" y="228.0" /><text fill="#222222" font-size="10" x="1316.8" y="238.0">Bedroom</text><rect fill="#fbe7e6" height="12" stroke="#333333" stroke-width="1" width="12" x="1298.8" y="246.0" /><text fill="#222222" font-size="10" x="1316.8" y="256.0">Toilet</text><rect fill="#e7fbfb" height="12" stroke="#333333" stroke-width="1" width="12" x="1298.8" y="264.0" /><text fill="#222222" font-size="10" x="1316.8" y="274.0">Washroom</text><rect fill="#dcecff" height="12" stroke="#333333" stroke-width="1" width="12" x="1298.8" y="282.0" /><text fill="#222222" font-size="10" x="1316.8" y="292.0">Bath</text><rect fill="#f7f3ea" height="12" stroke="#333333" stroke-width="1" width="12" x="1298.8" y="300.0" /><text fill="#222222" font-size="10" x="1316.8" y="310.0">Closet</text><rect fill="#f0f0f0" height="12" stroke="#333333" stroke-width="1" width="12" x="1298.8" y="318.0" /><text fill="#222222" font-size="10" x="1316.8" y="328.0">Storage</text><line stroke="#6aa4ff" stroke-width="4" x1="1298.8" x2="1325.8" y1="348.0" y2="348.0" /><text fill="#222222" font-size="10" x="1332.8" y="351.0">Window</text><line stroke="#666666" stroke-width="2.4" x1="1298.8" x2="1325.8" y1="364.0" y2="364.0" /><path d="M 1298.8,364.0 A 10,10 0 0 1 1308.8,354.0" fill="none" stroke="#666666" stroke-width="1.2" /><text fill="#222222" font-size="10" x="1332.8" y="367.0">Door</text><rect fill="#ffffff" height="84" stroke="#777777" stroke-width="1" width="200" x="1290.8" y="520.0" /><text fill="#111111" font-size="10" x="1298.8" y="533.0">Area (F1)</text><text fill="#222222" font-size="9" x="1298.8" y="550.0">F1: in 67.1 sqm (20.3 tsubo), out 0.0 sqm (0.0 tsubo)</text><text fill="#222222" font-size="9" x="1298.8" y="566.0">F2: in 67.1 sqm (20.3 tsubo), out 0.0 sqm (0.0 tsubo)</text><text fill="#222222" font-size="9" x="1298.8" y="582.0">Total indoor: 134.2 sqm (40.6 tsubo)</text><text fill="#222222" font-size="9" x="1298.8" y="598.0">Total outdoor: 0.0 sqm (0.0 tsubo)</text><line stroke="#111111" stroke-width="2" x1="175.0" x2="175.0" y1="238.0" y2="208.0" /><polygon fill="#111111" points="175.0,208.0 181.0,214.0 169.0,214.0" /><text fill="#111111" font-size="12" x="170.0" y="202.0">N</text><line stroke="#545454" stroke-width="1.0" x1="220.0" x2="1202.8" y1="148.0" y2="148.0" /><line stroke="#545454" stroke-width="0.8" x1="220.0" x2="220.0" y1="220.0" y2="148.0" /><line stroke="#545454" stroke-width="1.0" x1="220.0" x2="220.0" y1="145.0" y2="151.0" /><line stroke="#545454" stroke-width="0.8" x1="1202.8" x2="1202.8" y1="220.0" y2="148.0" /><line stroke="#545454" stroke-width="1.0" x1="1202.8" x2="1202.8" y1="145.0" y2="151.0" /><text fill="#545454" font-size="8.8" text-anchor="middle" x="711.4" y="145.0">8190mm</text><line stroke="#666666" stroke-width="1.0" x1="220.0" x2="1202.8" y1="166.0" y2="166.0" /><line stroke="#666666" stroke-width="0.8" x1="220.0" x2="220.0" y1="220.0" y2="166.0" /><line stroke="#666666" stroke-width="1.0" x1="220.0" x2="220.0" y1="163.0" y2="169.0" /><line stroke="#666666" stroke-width="0.8" x1="438.4" x2="438.4" y1="220.0" y2="166.0" /><line stroke="#666666" stroke-width="1.0" x1="438.4" x2="438.4" y1="163.0" y2="169.0" /><line stroke="#666666" stroke-width="0.8" x1="656.8" x2="656.8" y1="220.0" y2="166.0" /><line stroke="#666666" stroke-width="1.0" x1="656.8" x2="656.8" y1="163.0" y2="169.0" /><line stroke="#666666" stroke-width="0.8" x1="1202.8" x2="1202.8" y1="220.0" y2="166.0" /><line stroke="#666666" stroke-width="1.0" x1="1202.8" x2="1202.8" y1="163.0" y2="169.0" /><text fill="#666666" font-size="8.2" text-anchor="middle" x="329.2" y="163.0">1820</text><text fill="#666666" font-size="8.2" text-anchor="middle" x="547.5999999999999" y="163.0">1820</text><text fill="#666666" font-size="8.2" text-anchor="middle" x="929.8" y="163.0">4550</text><line stroke="#7a7a7a" stroke-width="1.0" x1="220.0" x2="1202.8" y1="184.0" y2="184.0" /><line stroke="#7a7a7a" stroke-width="0.8" x1="220.0" x2="220.0" y1="220.0" y2="184.0" /><line stroke="#7a7a7a" stroke-width="1.0" x1="220.0" x2="220.0" y1="181.0" y2="187.0" /><line stroke="#7a7a7a" stroke-width="0.8" x1="711.4" x2="711.4" y1="220.0" y2="184.0" /><line stroke="#7a7a7a" stroke-width="1.0" x1="711.4" x2="711.4" y1="181.0" y2="187.0" /><line stroke="#7a7a7a" stroke-width="0.8" x1="929.8" x2="929.8" y1="220.0" y2="184.0" /><line stroke="#7a7a7a" stroke-width="1.0" x1="929.8" x2="929.8" y1="181.0" y2="187.0" /><line stroke="#7a7a7a" stroke-width="0.8" x1="1148.2" x2="1148.2" y1="220.0" y2="184.0" /><line stroke="#7a7a7a" stroke-width="1.0" x1="1148.2" x2="1148.2" y1="181.0" y2="187.0" /><line stroke="#7a7a7a" stroke-width="0.8" x1="1202.8" x2="1202.8" y1="220.0" y2="184.0" /><line stroke="#7a7a7a" stroke-width="1.0" x1="1202.8" x2="1202.8" y1="181.0" y2="187.0" /><text fill="#7a7a7a" font-size="7.8" text-anchor="middle" x="465.7" y="181.0">4095</text><text fill="#7a7a7a" font-size="7.8" text-anchor="middle" x="820.6" y="181.0">1820</text><text fill="#7a7a7a" font-size="7.8" text-anchor="middle" x="1039.0" y="181.0">1820</text><line stroke="#545454" stroke-width="1.0" x1="220.0" x2="1202.8" y1="1274.8" y2="1274.8" /><line stroke="#545454" stroke-width="0.8" x1="220.0" x2="220.0" y1="1202.8" y2="1274.8" /><line stroke="#545454" stroke-width="1.0" x1="220.0" x2="220.0" y1="1271.8" y2="1277.8" /><line stroke="#545454" stroke-width="0.8" x1="1202.8" x2="1202.8" y1="1202.8" y2="1274.8" /><line stroke="#545454" stroke-width="1.0" x1="1202.8" x2="1202.8" y1="1271.8" y2="1277.8" /><text fill="#545454" font-size="8.8" text-anchor="middle" x="711.4" y="1284.8">8190mm</text><line stroke="#666666" stroke-width="1.0" x1="220.0" x2="1202.8" y1="1256.8" y2="1256.8" /><line stroke="#666666" stroke-width="0.8" x1="220.0" x2="220.0" y1="1202.8" y2="1256.8" /><line stroke="#666666" stroke-width="1.0" x1="220.0" x2="220.0" y1="1253.8" y2="1259.8" /><line stroke="#666666" stroke-width="0.8" x1="329.2" x2="329.2" y1="1202.8" y2="1256.8" /><line stroke="#666666" stroke-width="1.0" x1="329.2" x2="329.2" y1="1253.8" y2="1259.8" /><line stroke="#666666" stroke-width="0.8" x1="711.4" x2="711.4" y1="1202.8" y2="1256.8" /><line stroke="#666666" stroke-width="1.0" x1="711.4" x2="711.4" y1="1253.8" y2="1259.8" /><line stroke="#666666" stroke-width="0.8" x1="984.4" x2="984.4" y1="1202.8" y2="1256.8" /><line stroke="#666666" stroke-width="1.0" x1="984.4" x2="984.4" y1="1253.8" y2="1259.8" /><line stroke="#666666" stroke-width="0.8" x1="1202.8" x2="1202.8" y1="1202.8" y2="1256.8" /><line stroke="#666666" stroke-width="1.0" x1="1202.8" x2="1202.8" y1="1253.8" y2="1259.8" /><text fill="#666666" font-size="8.2" text-anchor="middle" x="274.6" y="1266.8">910</text><text fill="#666666" font-size="8.2" text-anchor="middle" x="520.3" y="1266.8">3185</text><text fill="#666666" font-size="8.2" text-anchor="middle" x="847.9" y="1266.8">2275</text><text fill="#666666" font-size="8.2" text-anchor="middle" x="1093.6" y="1266.8">1820</text><line stroke="#7a7a7a" stroke-width="1.0" x1="220.0" x2="1202.8" y1="1238.8" y2="1238.8" /><line stroke="#7a7a7a" stroke-width="0.8" x1="220.0" x2="220.0" y1="1202.8" y2="1238.8" /><line stroke="#7a7a7a" stroke-width="1.0" x1="220.0" x2="220.0" y1="1235.8" y2="1241.8" /><line stroke="#7a7a7a" stroke-width="0.8" x1="438.4" x2="438.4" y1="1202.8" y2="1238.8" /><line stroke="#7a7a7a" stroke-width="1.0" x1="438.4" x2="438.4" y1="1235.8" y2="1241.8" /><line stroke="#7a7a7a" stroke-width="0.8" x1="602.2" x2="602.2" y1="1202.8" y2="1238.8" /><line stroke="#7a7a7a" stroke-width="1.0" x1="602.2" x2="602.2" y1="1235.8" y2="1241.8" /><line stroke="#7a7a7a" stroke-width="0.8" x1="820.6" x2="820.6" y1="1202.8" y2="1238.8" /><line stroke="#7a7a7a" stroke-width="1.0" x1="820.6" x2="820.6" y1="1235.8" y2="1241.8" /><line stroke="#7a7a7a" stroke-width="0.8" x1="929.8" x2="929.8" y1="1202.8" y2="1238.8" /><line stroke="#7a7a7a" stroke-width="1.0" x1="929.8" x2="929.8" y1="1235.8" y2="1241.8" /><line stroke="#7a7a7a" stroke-width="0.8" x1="1202.8" x2="1202.8" y1="1202.8" y2="1238.8" /><line stroke="#7a7a7a" stroke-width="1.0" x1="1202.8" x2="1202.8" y1="1235.8" y2="1241.8" /><text fill="#7a7a7a" font-size="7.8" text-anchor="middle" x="329.2" y="1248.8">1820</text><text fill="#7a7a7a" font-size="7.8" text-anchor="middle" x="520.3" y="1248.8">1365</text><text fill="#7a7a7a" font-size="7.8" text-anchor="middle" x="711.4" y="1248.8">1820</text><text fill="#7a7a7a" font-size="7.8" text-anchor="middle" x="875.1999999999999" y="1248.8">910</text><text fill="#7a7a7a" font-size="7.8" text-anchor="middle" x="1066.3" y="1248.8">2275</text><line stroke="#545454" stroke-width="1.0" x1="148.0" x2="148.0" y1="220.0" y2="1202.8" /><line stroke="#545454" stroke-width="0.8" x1="220.0" x2="148.0" y1="220.0" y2="220.0" /><line stroke="#545454" stroke-width="1.0" x1="145.0" x2="151.0" y1="220.0" y2="220.0" /><line stroke="#545454" stroke-width="0.8" x1="220.0" x2="148.0" y1="1202.8" y2="1202.8" /><line stroke="#545454" stroke-width="1.0" x1="145.0" x2="151.0" y1="1202.8" y2="1202.8" /><text fill="#545454" font-size="8.8" x="144.0" y="711.4">8190mm</text><line stroke="#666666" stroke-width="1.0" x1="166.0" x2="166.0" y1="220.0" y2="1202.8" /><line stroke="#666666" stroke-width="0.8" x1="220.0" x2="166.0" y1="220.0" y2="220.0" /><line stroke="#666666" stroke-width="1.0" x1="163.0" x2="169.0" y1="220.0" y2="220.0" /><line stroke="#666666" stroke-width="0.8" x1="220.0" x2="166.0" y1="438.4" y2="438.4" /><line stroke="#666666" stroke-width="1.0" x1="163.0" x2="169.0" y1="438.4" y2="438.4" /><line stroke="#666666" stroke-width="0.8" x1="220.0" x2="166.0" y1="711.4" y2="711.4" /><line stroke="#666666" stroke-width="1.0" x1="163.0" x2="169.0" y1="711.4" y2="711.4" /><line stroke="#666666" stroke-width="0.8" x1="220.0" x2="166.0" y1="984.4" y2="984.4" /><line stroke="#666666" stroke-width="1.0" x1="163.0" x2="169.0" y1="984.4" y2="984.4" /><line stroke="#666666" stroke-width="0.8" x1="220.0" x2="166.0" y1="1202.8" y2="1202.8" /><line stroke="#666666" stroke-width="1.0" x1="163.0" x2="169.0" y1="1202.8" y2="1202.8" /><text fill="#666666" font-size="8.2" x="162.0" y="329.2">1820</text><text fill="#666666" font-size="8.2" x="162.0" y="574.9">2275</text><text fill="#666666" font-size="8.2" x="162.0" y="847.9">2275</text><text fill="#666666" font-size="8.2" x="162.0" y="1093.6">1820</text><line stroke="#7a7a7a" stroke-width="1.0" x1="184.0" x2="184.0" y1="220.0" y2="1202.8" /><line stroke="#7a7a7a" stroke-width="0.8" x1="220.0" x2="184.0" y1="220.0" y2="220.0" /><line stroke="#7a7a7a" stroke-width="1.0" x1="181.0" x2="187.0" y1="220.0" y2="220.0" /><line stroke="#7a7a7a" stroke-width="0.8" x1="220.0" x2="184.0" y1="493.0" y2="493.0" /><line stroke="#7a7a7a" stroke-width="1.0" x1="181.0" x2="187.0" y1="493.0" y2="493.0" /><line stroke="#7a7a7a" stroke-width="0.8" x1="220.0" x2="184.0" y1="656.8" y2="656.8" /><line stroke="#7a7a7a" stroke-width="1.0" x1="181.0" x2="187.0" y1="656.8" y2="656.8" /><line stroke="#7a7a7a" stroke-width="0.8" x1="220.0" x2="184.0" y1="1202.8" y2="1202.8" /><line stroke="#7a7a7a" stroke-width="1.0" x1="181.0" x2="187.0" y1="1202.8" y2="1202.8" /><text fill="#7a7a7a" font-size="7.8" x="180.0" y="356.5">2275</text><text fill="#7a7a7a" font-size="7.8" x="180.0" y="574.9">1365</text><text fill="#7a7a7a" font-size="7.8" x="180.0" y="929.8">4550</text><line stroke="#545454" stroke-width="1.0" x1="1274.8" x2="1274.8" y1="220.0" y2="1202.8" /><line stroke="#545454" stroke-width="0.8" x1="1202.8" x2="1274.8" y1="220.0" y2="220.0" /><line stroke="#545454" stroke-width="1.0" x1="1271.8" x2="1277.8" y1="220.0" y2="220.0" /><line stroke="#545454" stroke-width="0.8" x1="1202.8" x2="1274.8" y1="1202.8" y2="1202.8" /><line stroke="#545454" stroke-width="1.0" x1="1271.8" x2="1277.8" y1="1202.8" y2="1202.8" /><text fill="#545454" font-size="8.8" x="1279.8" y="711.4">8190mm</text><line stroke="#666666" stroke-width="1.0" x1="1256.8" x2="1256.8" y1="220.0" y2="1202.8" /><line stroke="#666666" stroke-width="0.8" x1="1202.8" x2="1256.8" y1="220.0" y2="220.0" /><line stroke="#666666" stroke-width="1.0" x1="1253.8" x2="1259.8" y1="220.0" y2="220.0" /><line stroke="#666666" stroke-width="0.8" x1="1202.8" x2="1256.8" y1="438.4" y2="438.4" /><line stroke="#666666" stroke-width="1.0" x1="1253.8" x2="1259.8" y1="438.4" y2="438.4" /><line stroke="#666666" stroke-width="0.8" x1="1202.8" x2="1256.8" y1="984.4" y2="984.4" /><line stroke="#666666" stroke-width="1.0" x1="1253.8" x2="1259.8" y1="984.4" y2="984.4" /><line stroke="#666666" stroke-width="0.8" x1="1202.8" x2="1256.8" y1="1202.8" y2="1202.8" /><line stroke="#666666" stroke-width="1.0" x1="1253.8" x2="1259.8" y1="1202.8" y2="1202.8" /><text fill="#666666" font-size="8.2" x="1261.8" y="329.2">1820</text><text fill="#666666" font-size="8.2" x="1261.8" y="711.4">4550</text><text fill="#666666" font-size="8.2" x="1261.8" y="1093.6">1820</text><line stroke="#7a7a7a" stroke-width="1.0" x1="1238.8" x2="1238.8" y1="220.0" y2="1202.8" /><line stroke="#7a7a7a" stroke-width="0.8" x1="1202.8" x2="1238.8" y1="220.0" y2="220.0" /><line stroke="#7a7a7a" stroke-width="1.0" x1="1235.8" x2="1241.8" y1="220.0" y2="220.0" /><line stroke="#7a7a7a" stroke-width="0.8" x1="1202.8" x2="1238.8" y1="274.6" y2="274.6" /><line stroke="#7a7a7a" stroke-width="1.0" x1="1235.8" x2="1241.8" y1="274.6" y2="274.6" /><line stroke="#7a7a7a" stroke-width="0.8" x1="1202.8" x2="1238.8" y1="383.8" y2="383.8" /><line stroke="#7a7a7a" stroke-width="1.0" x1="1235.8" x2="1241.8" y1="383.8" y2="383.8" /><line stroke="#7a7a7a" stroke-width="0.8" x1="1202.8" x2="1238.8" y1="493.0" y2="493.0" /><line stroke="#7a7a7a" stroke-width="1.0" x1="1235.8" x2="1241.8" y1="493.0" y2="493.0" /><line stroke="#7a7a7a" stroke-width="0.8" x1="1202.8" x2="1238.8" y1="711.4" y2="711.4" /><line stroke="#7a7a7a" stroke-width="1.0" x1="1235.8" x2="1241.8" y1="711.4" y2="711.4" /><line stroke="#7a7a7a" stroke-width="0.8" x1="1202.8" x2="1238.8" y1="929.8" y2="929.8" /><line stroke="#7a7a7a" stroke-width="1.0" x1="1235.8" x2="1241.8" y1="929.8" y2="929.8" /><line stroke="#7a7a7a" stroke-width="0.8" x1="1202.8" x2="1238.8" y1="1202.8" y2="1202.8" /><line stroke="#7a7a7a" stroke-width="1.0" x1="1235.8" x2="1241.8" y1="1202.8" y2="1202.8" /><text fill="#7a7a7a" font-size="7.8" x="1243.8" y="329.2">910</text><text fill="#7a7a7a" font-size="7.8" x="1243.8" y="438.4">910</text><text fill="#7a7a7a" font-size="7.8" x="1243.8" y="602.2">1820</text><text fill="#7a7a7a" font-size="7.8" x="1243.8" y="820.6">1820</text><text fill="#7a7a7a" font-size="7.8" x="1243.8" y="1066.3">2275</text></svg>