<?xml version="1.0" encoding="utf-8" ?>
<svg baseProfile="tiny" height="1422.8px" version="1.2" width="1422.8px" xmlns="http://www.w3.org/2000/svg" xmlns:ev="http://www.w3.org/2001/xml-events" xmlns:xlink="http://www.w3.org/1999/xlink"><defs /><rect fill="#fafafa" height="1422.8" width="1422.8" x="0" y="0" /><line stroke="#ececec" stroke-width="0.7" x1="220.0" x2="220.0" y1="220.0" y2="1202.8" /><line stroke="#ececec" stroke-width="0.7" x1="274.6" x2="274.6" y1="220.0" y2="1202.8" /><line stroke="#ececec" stroke-width="0.7" x1="329.2" x2="329.2" y1="220.0" y2="1202.8" /><line stroke="#ececec" stroke-width="0.7" x1="383.8" x2="383.8" y1="220.0" y2="1202.8" /><line stroke="#ececec" stroke-width="0.7" x1="438.4" x2="438.4" y1="220.0" y2="1202.8" /><line stroke="#ececec" stroke-width="0.7" x1="493.0" x2="493.0" y1="220.0" y2="1202.8" /><line stroke="#ececec" stroke-width="0.7" x1="547.6" x2="547.6" y1="220.0" y2="1202.8" /><line stroke="#ececec" stroke-width="0.7" x1="602.2" x2="602.2" y1="220.0" y2="1202.8" /><line stroke="#ececec" stroke-width="0.7" x1="656.8" x2="656.8" y1="220.0" y2="1202.8" /><line stroke="#ececec" stroke-width="0.7" x1="711.4" x2="711.4" y1="220.0" y2="1202.8" /><line stroke="#ececec" stroke-width="0.7" x1="766.0" x2="766.0" y1="220.0" y2="1202.8" /><line stroke="#ececec" stroke-width="0.7" x1="820.6" x2="820.6" y1="220.0" y2="1202.8" /><line stroke="#ececec" stroke-width="0.7" x1="875.2" x2="875.2" y1="220.0" y2="1202.8" /><line stroke="#ececec" stroke-width="0.7" x1="929.8" x2="929.8" y1="220.0" y2="1202.8" /><line stroke="#ececec" stroke-width="0.7" x1="984.4" x2="984.4" y1="220.0" y2="1202.8" /><line stroke="#ececec" stroke-width="0.7" x1="1039.0" x2="1039.0" y1="220.0" y2="1202.8" /><line stroke="#ececec" stroke-width="0.7" x1="1093.6" x2="1093.6" y1="220.0" y2="1202.8" /><line stroke="#ececec" stroke-width="0.7" x1="1148.2" x2="1148.2" y1="220.0" y2="1202.8" /><line stroke="#ececec" stroke-width="0.7" x1="1202.8" x2="1202.8" y1="220.0" y2="1202.8" /><line stroke="#d1d1d1" stroke-width="1.1" x1="220.0" x2="220.0" y1="220.0" y2="1202.8" /><line stroke="#d1d1d1" stroke-width="1.1" x1="329.2" x2="329.2" y1="220.0" y2="1202.8" /><line stroke="#d1d1d1" stroke-width="1.1" x1="438.4" x2="438.4" y1="220.0" y2="1202.8" /><line stroke="#d1d1d1" stroke-width="1.1" x1="547.6" x2="547.6" y1="220.0" y2="1202.8" /><line stroke="#d1d1d1" stroke-width="1.1" x1="656.8" x2="656.8" y1="220.0" y2="1202.8" /><line stroke="#d1d1d1" stroke-width="1.1" x1="766.0" x2="766.0" y1="220.0" y2="1202.8" /><line stroke="#d1d1d1" stroke-width="1.1" x1="875.2" x2="875.2" y1="220.0" y2="1202.8" /><line stroke="#d1d1d1" stroke-width="1.1" x1="984.4" x2="984.4" y1="220.0" y2="1202.8" /><line stroke="#d1d1d1" stroke-width="1.1" x1="1093.6" x2="1093.6" y1="220.0" y2="1202.8" /><line stroke="#d1d1d1" stroke-width="1.1" x1="1202.8" x2="1202.8" y1="220.0" y2="1202.8" /><line stroke="#d1d1d1" stroke-width="1.1" x1="220.0" x2="1202.8" y1="220.0" y2="220.0" /><line stroke="#d1d1d1" stroke-width="1.1" x1="220.0" x2="1202.8" y1="329.2" y2="329.2" /><line stroke="#d1d1d1" stroke-width="1.1" x1="220.0" x2="1202.8" y1="438.4" y2="438.4" /><line stroke="#d1d1d1" stroke-width="1.1" x1="220.0" x2="1202.8" y1="547.6" y2="547.6" /><line stroke="#d1d1d1" stroke-width="1.1" x1="220.0" x2="1202.8" y1="656.8" y2="656.8" /><line stroke="#d1d1d1" stroke-width="1.1" x1="220.0" x2="1202.8" y1="766.0" y2="766.0" /><line stroke="#d1d1d1" stroke-width="1.1" x1="220.0" x2="1202.8" y1="875.2" y2="875.2" /><line stroke="#d1d1d1" stroke-width="1.1" x1="220.0" x2="1202.8" y1="984.4" y2="984.4" /><line stroke="#d1d1d1" stroke-width="1.1" x1="220.0" x2="1202.8" y1="1093.6" y2="1093.6" /><line stroke="#d1d1d1" stroke-width="1.1" x1="220.0" x2="1202.8" y1="1202.8" y2="1202.8" /><line stroke="#ececec" stroke-width="0.7" x1="220.0" x2="1202.8" y1="220.0" y2="220.0" /><line stroke="#ececec" stroke-width="0.7" x1="220.0" x2="1202.8" y1="274.6" y2="274.6" /><line stroke="#ececec" stroke-width="0.7" x1="220.0" x2="1202.8" y1="329.2" y2="329.2" /><line stroke="#ececec" stroke-width="0.7" x1="220.0" x2="1202.8" y1="383.8" y2="383.8" /><line stroke="#ececec" stroke-width="0.7" x1="220.0" x2="1202.8" y1="438.4" y2="438.4" /><line stroke="#ececec" stroke-width="0.7" x1="220.0" x2="1202.8" y1="493.0" y2="493.0" /><line stroke="#ececec" stroke-width="0.7" x1="220.0" x2="1202.8" y1="547.6" y2="547.6" /><line stroke="#ececec" stroke-width="0.7" x1="220.0" x2="1202.8" y1="602.2" y2="602.2" /><line stroke="#ececec" stroke-width="0.7" x1="220.0" x2="1202.8" y1="656.8" y2="656.8" /><line stroke="#ececec" stroke-width="0.7" x1="220.0" x2="1202.8" y1="711.4" y2="711.4" /><line stroke="#ececec" stroke-width="0.7" x1="220.0" x2="1202.8" y1="766.0" y2="766.0" /><line stroke="#ececec" stroke-width="0.7" x1="220.0" x2="1202.8" y1="820.6" y2="820.6" /><line stroke="#ececec" stroke-width="0.7" x1="220.0" x2="1202.8" y1="875.2" y2="875.2" /><line stroke="#ececec" stroke-width="0.7" x1="220.0" x2="1202.8" y1="929.8" y2="929.8" /><line stroke="#ececec" stroke-width="0.7" x1="220.0" x2="1202.8" y1="984.4" y2="984.4" /><line stroke="#ececec" stroke-width="0.7" x1="220.0" x2="1202.8" y1="1039.0" y2="1039.0" /><line stroke="#ececec" stroke-width="0.7" x1="220.0" x2="1202.8" y1="1093.6" y2="1093.6" /><line stroke="#ececec" stroke-width="0.7" x1="220.0" x2="1202.8" y1="1148.2" y2="1148.2" /><line stroke="#ececec" stroke-width="0.7" x1="220.0" x2="1202.8" y1="1202.8" y2="1202.8" /><rect fill="none" height="982.8" stroke="#6a6a6a" stroke-dasharray="8,4" stroke-width="2" width="982.8" x="220.0" y="220.0" /><rect fill="none" height="982.8" stroke="#1f1f1f" stroke-width="3.5" width="982.8" x="220.0" y="220.0" /><text fill="#555555" font-size="10" x="222.0" y="160.0">Site Envelope = Building Footprint</text><rect fill="#dcecff" height="218.4" stroke="none" width="218.4" x="220.0" y="984.4" /><line stroke="#2f2f2f" stroke-width="2.2" x1="220.0" x2="438.4" y1="984.4" y2="984.4" /><line stroke="#2f2f2f" stroke-width="2.2" x1="220.0" x2="438.4" y1="1202.8" y2="1202.8" /><line stroke="#2f2f2f" stroke-width="2.2" x1="220.0" x2="220.0" y1="984.4" y2="1202.8" /><line stroke="#2f2f2f" stroke-width="2.2" x1="438.4" x2="438.4" y1="984.4" y2="1202.8" /><rect fill="#d9f2ff" height="327.6" stroke="none" width="382.2" x="438.4" y="875.2" /><line stroke="#2f2f2f" stroke-width="2.2" x1="438.4" x2="820.6" y1="875.2" y2="875.2" /><line stroke="#2f2f2f" stroke-width="2.2" x1="438.4" x2="820.6" y1="1202.8" y2="1202.8" /><line stroke="#2f2f2f" stroke-width="2.2" x1="820.6" x2="820.6" y1="875.2" y2="1202.8" /><line stroke="#2f2f2f" stroke-width="2.2" x1="438.4" x2="438.4" y1="875.2" y2="1202.8" /><rect fill="#f8f0d9" height="218.4" stroke="none" width="218.4" x="329.2" y="220.0" /><line stroke="#2f2f2f" stroke-width="2.2" x1="329.2" x2="547.6" y1="220.0" y2="220.0" /><line stroke="#2f2f2f" stroke-width="2.2" x1="329.2" x2="547.6" y1="438.4" y2="438.4" /><line stroke="#2f2f2f" stroke-width="2.2" x1="547.6" x2="547.6" y1="220.0" y2="438.4" /><line stroke="#2f2f2f" stroke-width="2.2" x1="329.2" x2="329.2" y1="220.0" y2="438.4" /><rect fill="#efe9ff" height="163.8" stroke="none" width="109.2" x="329.2" y="602.2" /><rect fill="#efe9ff" height="163.8" stroke="none" width="327.6" x="329.2" y="438.4" /><rect fill="#efe9ff" height="327.6" stroke="none" width="109.2" x="220.0" y="438.4" /><line stroke="#2f2f2f" stroke-width="2.2" x1="220.0" x2="656.8" y1="438.4" y2="438.4" /><line stroke="#2f2f2f" stroke-width="2.2" x1="220.0" x2="438.4" y1="766.0" y2="766.0" /><line stroke="#2f2f2f" stroke-width="2.2" x1="438.4" x2="656.8" y1="602.2" y2="602.2" /><line stroke="#2f2f2f" stroke-width="2.2" x1="220.0" x2="220.0" y1="438.4" y2="766.0" /><line stroke="#2f2f2f" stroke-width="2.2" x1="656.8" x2="656.8" y1="438.4" y2="602.2" /><line stroke="#2f2f2f" stroke-width="2.2" x1="438.4" x2="438.4" y1="602.2" y2="766.0" /><rect fill="#ffe2b8" height="218.4" stroke="none" width="436.8" x="547.6" y="220.0" /><rect fill="#ffe2b8" height="436.8" stroke="none" width="546.0" x="656.8" y="438.4" /><line stroke="#2f2f2f" stroke-width="2.2" x1="656.8" x2="1202.8" y1="875.2" y2="875.2" /><line stroke="#2f2f2f" stroke-width="2.2" x1="547.6" x2="984.4" y1="220.0" y2="220.0" /><line stroke="#2f2f2f" stroke-width="2.2" x1="547.6" x2="656.8" y1="438.4" y2="438.4" /><line stroke="#2f2f2f" stroke-width="2.2" x1="984.4" x2="1202.8" y1="438.4" y2="438.4" /><line stroke="#2f2f2f" stroke-width="2.2" x1="656.8" x2="656.8" y1="438.4" y2="875.2" /><line stroke="#2f2f2f" stroke-width="2.2" x1="1202.8" x2="1202.8" y1="438.4" y2="875.2" /><line stroke="#2f2f2f" stroke-width="2.2" x1="547.6" x2="547.6" y1="220.0" y2="438.4" /><line stroke="#2f2f2f" stroke-width="2.2" x1="984.4" x2="984.4" y1="220.0" y2="438.4" /><rect fill="#f0f0f0" height="218.4" stroke="none" width="218.4" x="984.4" y="220.0" /><line stroke="#2f2f2f" stroke-width="2.2" x1="984.4" x2="1202.8" y1="438.4" y2="438.4" /><line stroke="#2f2f2f" stroke-width="2.2" x1="984.4" x2="1202.8" y1="220.0" y2="220.0" /><line stroke="#2f2f2f" stroke-width="2.2" x1="1202.8" x2="1202.8" y1="220.0" y2="438.4" /><line stroke="#2f2f2f" stroke-width="2.2" x1="984.4" x2="984.4" y1="220.0" y2="438.4" /><rect fill="#d9f2ff" height="327.6" stroke="none" width="382.2" x="820.6" y="875.2" /><line stroke="#2f2f2f" stroke-width="2.2" x1="820.6" x2="1202.8" y1="875.2" y2="875.2" /><line stroke="#2f2f2f" stroke-width="2.2" x1="820.6" x2="1202.8" y1="1202.8" y2="1202.8" /><line stroke="#2f2f2f" stroke-width="2.2" x1="820.6" x2="820.6" y1="875.2" y2="1202.8" /><line stroke="#2f2f2f" stroke-width="2.2" x1="1202.8" x2="1202.8" y1="875.2" y2="1202.8" /><rect fill="#fbe7e6" height="218.4" stroke="none" width="109.2" x="220.0" y="220.0" /><line stroke="#2f2f2f" stroke-width="2.2" x1="220.0" x2="329.2" y1="220.0" y2="220.0" /><line stroke="#2f2f2f" stroke-width="2.2" x1="220.0" x2="329.2" y1="438.4" y2="438.4" /><line stroke="#2f2f2f" stroke-width="2.2" x1="329.2" x2="329.2" y1="220.0" y2="438.4" /><line stroke="#2f2f2f" stroke-width="2.2" x1="220.0" x2="220.0" y1="220.0" y2="438.4" /><rect fill="#e7fbfb" height="218.4" stroke="none" width="218.4" x="220.0" y="766.0" /><line stroke="#2f2f2f" stroke-width="2.2" x1="220.0" x2="438.4" y1="984.4" y2="984.4" /><line stroke="#2f2f2f" stroke-width="2.2" x1="220.0" x2="438.4" y1="766.0" y2="766.0" /><line stroke="#2f2f2f" stroke-width="2.2" x1="438.4" x2="438.4" y1="766.0" y2="984.4" /><line stroke="#2f2f2f" stroke-width="2.2" x1="220.0" x2="220.0" y1="766.0" y2="984.4" /><rect fill="#f7f3ea" fill-opacity="0.35" height="327.6" stroke="#9a9a9a" stroke-dasharray="4,3" stroke-width="0.9" width="109.2" x="438.4" y="875.2" /><line stroke="#9c9c9c" stroke-opacity="0.7" stroke-width="0.8" x1="438.4" x2="457.6" y1="1183.6" y2="1202.8" /><line stroke="#9c9c9c" stroke-opacity="0.7" stroke-width="0.8" x1="438.4" x2="476.8" y1="1164.4" y2="1202.8" /><line stroke="#9c9c9c" stroke-opacity="0.7" stroke-width="0.8" x1="438.4" x2="496.0" y1="1145.2" y2="1202.8" /><line stroke="#9c9c9c" stroke-opacity="0.7" stroke-width="0.8" x1="438.4" x2="515.2" y1="1126.0" y2="1202.8" /><line stroke="#9c9c9c" stroke-opacity="0.7" stroke-width="0.8" x1="438.4" x2="534.4" y1="1106.8" y2="1202.8" /><line stroke="#9c9c9c" stroke-opacity="0.7" stroke-width="0.8" x1="438.4" x2="547.6" y1="1087.6" y2="1196.8" /><line stroke="#9c9c9c" stroke-opacity="0.7" stroke-width="0.8" x1="438.4" x2="547.6" y1="1068.4" y2="1177.6" /><line stroke="#9c9c9c" stroke-opacity="0.7" stroke-width="0.8" x1="438.4" x2="547.6" y1="1049.2" y2="1158.4" /><line stroke="#9c9c9c" stroke-opacity="0.7" stroke-width="0.8" x1="438.4" x2="547.6" y1="1030.0" y2="1139.2" /><line stroke="#9c9c9c" stroke-opacity="0.7" stroke-width="0.8" x1="438.4" x2="547.6" y1="1010.8" y2="1120.0" /><line stroke="#9c9c9c" stroke-opacity="0.7" stroke-width="0.8" x1="438.4" x2="547.6" y1="991.6" y2="1100.8" /><line stroke="#9c9c9c" stroke-opacity="0.7" stroke-width="0.8" x1="438.4" x2="547.6" y1="972.4" y2="1081.6" /><line stroke="#9c9c9c" stroke-opacity="0.7" stroke-width="0.8" x1="438.4" x2="547.6" y1="953.2" y2="1062.4" /><line stroke="#9c9c9c" stroke-opacity="0.7" stroke-width="0.8" x1="438.4" x2="547.6" y1="934.0" y2="1043.2" /><line stroke="#9c9c9c" stroke-opacity="0.7" stroke-width="0.8" x1="438.4" x2="547.6" y1="914.8" y2="1024.0" /><line stroke="#9c9c9c" stroke-opacity="0.7" stroke-width="0.8" x1="438.4" x2="547.6" y1="895.6" y2="1004.8" /><line stroke="#9c9c9c" stroke-opacity="0.7" stroke-width="0.8" x1="438.4" x2="547.6" y1="876.4" y2="985.6" /><line stroke="#9c9c9c" stroke-opacity="0.7" stroke-width="0.8" x1="456.4" x2="547.6" y1="875.2" y2="966.4" /><line stroke="#9c9c9c" stroke-opacity="0.7" stroke-width="0.8" x1="475.6" x2="547.6" y1="875.2" y2="947.2" /><line stroke="#9c9c9c" stroke-opacity="0.7" stroke-width="0.8" x1="494.8" x2="547.6" y1="875.2" y2="928.0" /><line stroke="#9c9c9c" stroke-opacity="0.7" stroke-width="0.8" x1="514.0" x2="547.6" y1="875.2" y2="908.8" /><line stroke="#9c9c9c" stroke-opacity="0.7" stroke-width="0.8" x1="533.2" x2="547.6" y1="875.2" y2="889.6" /><rect fill="#f7f3ea" fill-opacity="0.35" height="327.6" stroke="#9a9a9a" stroke-dasharray="4,3" stroke-width="0.9" width="109.2" x="820.6" y="875.2" /><line stroke="#9c9c9c" stroke-opacity="0.7" stroke-width="0.8" x1="820.6" x2="839.8" y1="1183.6" y2="1202.8" /><line stroke="#9c9c9c" stroke-opacity="0.7" stroke-width="0.8" x1="820.6" x2="859.0" y1="1164.4" y2="1202.8" /><line stroke="#9c9c9c" stroke-opacity="0.7" stroke-width="0.8" x1="820.6" x2="878.2" y1="1145.2" y2="1202.8" /><line stroke="#9c9c9c" stroke-opacity="0.7" stroke-width="0.8" x1="820.6" x2="897.4" y1="1126.0" y2="1202.8" /><line stroke="#9c9c9c" stroke-opacity="0.7" stroke-width="0.8" x1="820.6" x2="916.6" y1="1106.8" y2="1202.8" /><line stroke="#9c9c9c" stroke-opacity="0.7" stroke-width="0.8" x1="820.6" x2="929.8" y1="1087.6" y2="1196.8" /><line stroke="#9c9c9c" stroke-opacity="0.7" stroke-width="0.8" x1="820.6" x2="929.8" y1="1068.4" y2="1177.6" /><line stroke="#9c9c9c" stroke-opacity="0.7" stroke-width="0.8" x1="820.6" x2="929.8" y1="1049.2" y2="1158.4" /><line stroke="#9c9c9c" stroke-opacity="0.7" stroke-width="0.8" x1="820.6" x2="929.8" y1="1030.0" y2="1139.2" /><line stroke="#9c9c9c" stroke-opacity="0.7" stroke-width="0.8" x1="820.6" x2="929.8" y1="1010.8" y2="1120.0" /><line stroke="#9c9c9c" stroke-opacity="0.7" stroke-width="0.8" x1="820.6" x2="929.8" y1="991.6" y2="1100.8" /><line stroke="#9c9c9c" stroke-opacity="0.7" stroke-width="0.8" x1="820.6" x2="929.8" y1="972.4" y2="1081.6" /><line stroke="#9c9c9c" stroke-opacity="0.7" stroke-width="0.8" x1="820.6" x2="929.8" y1="953.2" y2="1062.4" /><line stroke="#9c9c9c" stroke-opacity="0.7" stroke-width="0.8" x1="820.6" x2="929.8" y1="934.0" y2="1043.2" /><line stroke="#9c9c9c" stroke-opacity="0.7" stroke-width="0.8" x1="820.6" x2="929.8" y1="914.8" y2="1024.0" /><line stroke="#9c9c9c" stroke-opacity="0.7" stroke-width="0.8" x1="820.6" x2="929.8" y1="895.6" y2="1004.8" /><line stroke="#9c9c9c" stroke-opacity="0.7" stroke-width="0.8" x1="820.6" x2="929.8" y1="876.4" y2="985.6" /><line stroke="#9c9c9c" stroke-opacity="0.7" stroke-width="0.8" x1="838.6" x2="929.8" y1="875.2" y2="966.4" /><line stroke="#9c9c9c" stroke-opacity="0.7" stroke-width="0.8" x1="857.8" x2="929.8" y1="875.2" y2="947.2" /><line stroke="#9c9c9c" stroke-opacity="0.7" stroke-width="0.8" x1="877.0" x2="929.8" y1="875.2" y2="928.0" /><line stroke="#9c9c9c" stroke-opacity="0.7" stroke-width="0.8" x1="896.2" x2="929.8" y1="875.2" y2="908.8" /><line stroke="#9c9c9c" stroke-opacity="0.7" stroke-width="0.8" x1="915.4" x2="929.8" y1="875.2" y2="889.6" /><rect fill="none" height="43.68" stroke="#8a6b4a" stroke-width="1.0" width="174.72" x="951.64" y="482.08" /><rect fill="none" height="96.096" stroke="#8a6b4a" stroke-width="1.0" width="39.312" x="1087.048" y="482.08" /><circle cx="1001.992" cy="503.92" fill="none" r="8.4" stroke="#8a6b4a" stroke-width="0.9" /><circle cx="1023.592" cy="503.92" fill="none" r="8.4" stroke="#8a6b4a" stroke-width="0.9" /><rect fill="none" height="23.063" stroke="#8a6b4a" stroke-width="0.9" width="26.7322" x="1092.9448" y="522.4403" /><rect fill="none" height="52.416" stroke="#8a6b4a" stroke-width="1.0" width="120.12" x="875.2" y="621.856" /><rect fill="none" height="111.384" stroke="#7f7f7f" stroke-width="1.1" width="214.032" x="522.484" y="934.168" /><line stroke="#7f7f7f" stroke-width="0.9" x1="522.484" x2="736.516" y1="973.1524" y2="973.1524" /><rect fill="none" height="111.384" stroke="#7f7f7f" stroke-width="1.1" width="214.032" x="904.684" y="934.168" /><line stroke="#7f7f7f" stroke-width="0.9" x1="904.684" x2="1118.716" y1="973.1524" y2="973.1524" /><rect fill="none" height="48.048" stroke="#6f6f6f" stroke-width="1.0" width="74.256" x="259.312" y="805.312" /><rect fill="none" height="48.048" stroke="#6f6f6f" stroke-width="1.0" width="74.256" x="346.672" y="805.312" /><line stroke="#8f8f8f" stroke-width="0.8" x1="250.576" x2="407.824" y1="790.912" y2="790.912" /><circle cx="412.0" cy="792.4" fill="none" r="8.4" stroke="#7c7c7c" stroke-width="0.9" /><line stroke="#7c7c7c" stroke-width="0.8" x1="401.2" x2="422.8" y1="792.4" y2="792.4" /><line stroke="#7c7c7c" stroke-width="0.8" x1="412.0" x2="412.0" y1="781.6" y2="803.2" /><rect fill="none" height="109.2" rx="6" ry="6" stroke="#6f6f6f" stroke-width="1.0" width="135.408" x="263.68" y="1032.448" /><circle cx="412.0" cy="1010.8" fill="none" r="8.4" stroke="#7c7c7c" stroke-width="0.9" /><line stroke="#7c7c7c" stroke-width="0.8" x1="401.2" x2="422.8" y1="1010.8" y2="1010.8" /><line stroke="#7c7c7c" stroke-width="0.8" x1="412.0" x2="412.0" y1="1000.0" y2="1021.6" /><line stroke="#9a9a9a" stroke-width="0.9" x1="1010.608" x2="1176.592" y1="259.312" y2="259.312" /><line stroke="#9a9a9a" stroke-width="0.9" x1="1010.608" x2="1176.592" y1="399.088" y2="399.088" /><rect fill="#ffffff" height="163.8" stroke="#202020" stroke-dasharray="8,4" stroke-width="2.6" width="109.2" x="438.4" y="711.4" /><rect fill="#ffffff" height="109.2" stroke="#202020" stroke-dasharray="8,4" stroke-width="2.6" width="218.4" x="438.4" y="602.2" /><rect fill="#ffffff" height="163.8" stroke="#202020" stroke-dasharray="8,4" stroke-width="2.6" width="109.2" x="547.6" y="711.4" /><line stroke="#2a2a2a" stroke-width="1.4" x1="451.504" x2="534.496" y1="734.8" y2="734.8" /><line stroke="#2a2a2a" stroke-width="1.4" x1="451.504" x2="534.496" y1="758.2" y2="758.2" /><line stroke="#2a2a2a" stroke-width="1.4" x1="451.504" x2="534.496" y1="781.6" y2="781.6" /><line stroke="#2a2a2a" stroke-width="1.4" x1="451.504" x2="534.496" y1="805.0" y2="805.0" /><line stroke="#2a2a2a" stroke-width="1.4" x1="451.504" x2="534.496" y1="828.4" y2="828.4" /><line stroke="#2a2a2a" stroke-width="1.4" x1="451.504" x2="534.496" y1="851.8" y2="851.8" /><line stroke="#2a2a2a" stroke-width="1.4" x1="560.704" x2="643.696" y1="734.8" y2="734.8" /><line stroke="#2a2a2a" stroke-width="1.4" x1="560.704" x2="643.696" y1="758.2" y2="758.2" /><line stroke="#2a2a2a" stroke-width="1.4" x1="560.704" x2="643.696" y1="781.6" y2="781.6" /><line stroke="#2a2a2a" stroke-width="1.4" x1="560.704" x2="643.696" y1="805.0" y2="805.0" /><line stroke="#2a2a2a" stroke-width="1.4" x1="560.704" x2="643.696" y1="828.4" y2="828.4" /><line stroke="#2a2a2a" stroke-width="1.4" x1="560.704" x2="643.696" y1="851.8" y2="851.8" /><text fill="#202020" font-size="11" text-anchor="middle" x="493.0" y="793.3">Stair (UP)</text><text fill="#3a3a3a" font-size="9.0" text-anchor="middle" x="493.0" y="807.6999999999999">13R/12T</text><text fill="#4a4a4a" font-size="7.8" text-anchor="middle" x="493.0" y="816.1">H2730 R210 T228</text><line stroke="#ffffff" stroke-width="7" x1="438.4" x2="438.4" y1="711.4" y2="766.0" /><line stroke="#5e5e5e" stroke-width="1.0" x1="438.4" x2="438.4" y1="711.4" y2="766.0" /><line stroke="#ffffff" stroke-width="6" x1="389.26" x2="487.54" y1="438.4" y2="438.4" /><line stroke="#595959" stroke-width="1.2" x1="389.26" x2="453.142" y1="438.4" y2="502.282" /><path d="M 453.14199999999994,438.4 A 63.882,63.882 0 0 1 453.14199999999994,502.282" fill="none" stroke="#7a7a7a" stroke-width="1.0" /><line stroke="#ffffff" stroke-width="6" x1="656.8" x2="656.8" y1="474.7" y2="565.9" /><line stroke="#595959" stroke-width="1.2" x1="656.8" x2="597.52" y1="474.7" y2="533.98" /><path d="M 656.8,533.98 A 59.28,59.28 0 0 1 597.52,533.98" fill="none" stroke="#7a7a7a" stroke-width="1.0" /><line stroke="#ffffff" stroke-width="6" x1="229.0" x2="320.2" y1="438.4" y2="438.4" /><line stroke="#ffffff" stroke-width="6" x1="338.2" x2="429.4" y1="766.0" y2="766.0" /><line stroke="#ffffff" stroke-width="6" x1="280.06" x2="378.34" y1="984.4" y2="984.4" /><line stroke="#595959" stroke-width="1.2" x1="280.06" x2="343.942" y1="984.4" y2="920.518" /><path d="M 343.942,984.4 A 63.882,63.882 0 0 1 343.942,920.5179999999999" fill="none" stroke="#7a7a7a" stroke-width="1.0" /><line stroke="#ffffff" stroke-width="6" x1="693.1" x2="784.3" y1="875.2" y2="875.2" /><line stroke="#595959" stroke-width="1.2" x1="693.1" x2="752.38" y1="875.2" y2="934.48" /><path d="M 752.38,875.1999999999999 A 59.28,59.28 0 0 1 752.38,934.48" fill="none" stroke="#7a7a7a" stroke-width="1.0" /><line stroke="#ffffff" stroke-width="6" x1="1007.5" x2="1125.1" y1="875.2" y2="875.2" /><line stroke="#595959" stroke-width="1.2" x1="1007.5" x2="1083.94" y1="875.2" y2="798.76" /><path d="M 1083.94,875.1999999999999 A 76.44,76.44 0 0 1 1083.94,798.76" fill="none" stroke="#7a7a7a" stroke-width="1.0" /><line stroke="#ffffff" stroke-width="6" x1="984.4" x2="984.4" y1="280.06" y2="378.34" /><line stroke="#595959" stroke-width="1.2" x1="984.4" x2="1048.282" y1="280.06" y2="343.942" /><path d="M 984.4,343.942 A 63.882,63.882 0 0 1 1048.2820000000002,343.942" fill="none" stroke="#7a7a7a" stroke-width="1.0" /><line stroke="#ffffff" stroke-width="7" x1="389.26" x2="487.54" y1="220.0" y2="220.0" /><line stroke="#595959" stroke-width="1.2" x1="389.26" x2="453.142" y1="220.0" y2="283.882" /><path d="M 453.14199999999994,220.0 A 63.882,63.882 0 0 1 453.14199999999994,283.882" fill="none" stroke="#7a7a7a" stroke-width="1.0" /><line stroke="#66a7ff" stroke-width="2.2" x1="595.684" x2="744.124" y1="217.36" y2="217.36" /><line stroke="#66a7ff" stroke-width="2.2" x1="595.684" x2="744.124" y1="222.64" y2="222.64" /><line stroke="#66a7ff" stroke-width="2.2" x1="787.876" x2="936.316" y1="217.36" y2="217.36" /><line stroke="#66a7ff" stroke-width="2.2" x1="787.876" x2="936.316" y1="222.64" y2="222.64" /><line stroke="#66a7ff" stroke-width="2.2" x1="1200.16" x2="1200.16" y1="486.484" y2="634.924" /><line stroke="#66a7ff" stroke-width="2.2" x1="1205.44" x2="1205.44" y1="486.484" y2="634.924" /><line stroke="#66a7ff" stroke-width="2.2" x1="1200.16" x2="1200.16" y1="678.676" y2="827.116" /><line stroke="#66a7ff" stroke-width="2.2" x1="1205.44" x2="1205.44" y1="678.676" y2="827.116" /><line stroke="#66a7ff" stroke-width="2.2" x1="629.5" x2="738.7" y1="1200.16" y2="1200.16" /><line stroke="#66a7ff" stroke-width="2.2" x1="629.5" x2="738.7" y1="1205.44" y2="1205.44" /><line stroke="#66a7ff" stroke-width="2.2" x1="1200.16" x2="1200.16" y1="983.32" y2="1094.68" /><line stroke="#66a7ff" stroke-width="2.2" x1="1205.44" x2="1205.44" y1="983.32" y2="1094.68" /><line stroke="#66a7ff" stroke-width="2.2" x1="1011.7" x2="1120.9" y1="1200.16" y2="1200.16" /><line stroke="#66a7ff" stroke-width="2.2" x1="1011.7" x2="1120.9" y1="1205.44" y2="1205.44" /><line stroke="#9a9a9a" stroke-width="0.8" x1="337.6" x2="430.0" y1="610.6" y2="610.6" /><line stroke="#9a9a9a" stroke-width="0.8" x1="337.6" x2="337.6" y1="607.24" y2="613.96" /><line stroke="#9a9a9a" stroke-width="0.8" x1="430.0" x2="430.0" y1="607.24" y2="613.96" /><text fill="#8a8a8a" font-size="7.6" text-anchor="start" x="344.32" y="607.96">910mm</text><line stroke="#9a9a9a" stroke-width="0.8" x1="337.6" x2="337.6" y1="610.6" y2="757.6" /><line stroke="#9a9a9a" stroke-width="0.8" x1="334.24" x2="340.96" y1="610.6" y2="610.6" /><line stroke="#9a9a9a" stroke-width="0.8" x1="334.24" x2="340.96" y1="757.6" y2="757.6" /><text fill="#8a8a8a" font-size="7.6" text-anchor="start" x="341.68" y="618.28">1365mm</text><line stroke="#9a9a9a" stroke-width="0.8" x1="337.6" x2="648.4" y1="446.8" y2="446.8" /><line stroke="#9a9a9a" stroke-width="0.8" x1="337.6" x2="337.6" y1="443.44" y2="450.16" /><line stroke="#9a9a9a" stroke-width="0.8" x1="648.4" x2="648.4" y1="443.44" y2="450.16" /><text fill="#8a8a8a" font-size="7.6" text-anchor="start" x="344.32" y="444.15999999999997">2730mm</text><line stroke="#9a9a9a" stroke-width="0.8" x1="337.6" x2="337.6" y1="446.8" y2="593.8" /><line stroke="#9a9a9a" stroke-width="0.8" x1="334.24" x2="340.96" y1="446.8" y2="446.8" /><line stroke="#9a9a9a" stroke-width="0.8" x1="334.24" x2="340.96" y1="593.8" y2="593.8" /><text fill="#8a8a8a" font-size="7.6" text-anchor="start" x="341.68" y="454.48">1365mm</text><line stroke="#9a9a9a" stroke-width="0.8" x1="228.4" x2="320.8" y1="446.8" y2="446.8" /><line stroke="#9a9a9a" stroke-width="0.8" x1="228.4" x2="228.4" y1="443.44" y2="450.16" /><line stroke="#9a9a9a" stroke-width="0.8" x1="320.8" x2="320.8" y1="443.44" y2="450.16" /><text fill="#8a8a8a" font-size="7.6" text-anchor="start" x="235.12" y="444.15999999999997">910mm</text><line stroke="#9a9a9a" stroke-width="0.8" x1="228.4" x2="228.4" y1="446.8" y2="757.6" /><line stroke="#9a9a9a" stroke-width="0.8" x1="225.04" x2="231.76" y1="446.8" y2="446.8" /><line stroke="#9a9a9a" stroke-width="0.8" x1="225.04" x2="231.76" y1="757.6" y2="757.6" /><text fill="#8a8a8a" font-size="7.6" text-anchor="start" x="232.48" y="454.48">2730mm</text><line stroke="#9a9a9a" stroke-width="0.8" x1="556.0" x2="976.0" y1="228.4" y2="228.4" /><line stroke="#9a9a9a" stroke-width="0.8" x1="556.0" x2="556.0" y1="225.04" y2="231.76" /><line stroke="#9a9a9a" stroke-width="0.8" x1="976.0" x2="976.0" y1="225.04" y2="231.76" /><text fill="#8a8a8a" font-size="7.6" text-anchor="start" x="562.72" y="225.76">3640mm</text><line stroke="#9a9a9a" stroke-width="0.8" x1="556.0" x2="556.0" y1="228.4" y2="430.0" /><line stroke="#9a9a9a" stroke-width="0.8" x1="552.64" x2="559.36" y1="228.4" y2="228.4" /><line stroke="#9a9a9a" stroke-width="0.8" x1="552.64" x2="559.36" y1="430.0" y2="430.0" /><text fill="#8a8a8a" font-size="7.6" text-anchor="start" x="560.0799999999999" y="236.07999999999998">1820mm</text><line stroke="#9a9a9a" stroke-width="0.8" x1="665.2" x2="1194.4" y1="446.8" y2="446.8" /><line stroke="#9a9a9a" stroke-width="0.8" x1="665.2" x2="665.2" y1="443.44" y2="450.16" /><line stroke="#9a9a9a" stroke-width="0.8" x1="1194.4" x2="1194.4" y1="443.44" y2="450.16" /><text fill="#8a8a8a" font-size="7.6" text-anchor="start" x="671.92" y="444.15999999999997">4550mm</text><line stroke="#9a9a9a" stroke-width="0.8" x1="665.2" x2="665.2" y1="446.8" y2="866.8" /><line stroke="#9a9a9a" stroke-width="0.8" x1="661.84" x2="668.56" y1="446.8" y2="446.8" /><line stroke="#9a9a9a" stroke-width="0.8" x1="661.84" x2="668.56" y1="866.8" y2="866.8" /><text fill="#8a8a8a" font-size="7.6" text-anchor="start" x="669.28" y="454.48">3640mm</text><text fill="#1b1b1b" font-size="10" text-anchor="middle" x="329.2" y="1079.1999999999998">Bath 1</text><text fill="#1b1b1b" font-size="10" text-anchor="middle" x="329.2" y="1090.0">1820x1820mm</text><text fill="#1b1b1b" font-size="10" text-anchor="middle" x="329.2" y="1100.8">3.3sqm / 2.0jo</text><text fill="#1b1b1b" font-size="10" text-anchor="middle" x="629.5" y="1024.6">Bedroom 1</text><text fill="#1b1b1b" font-size="10" text-anchor="middle" x="629.5" y="1035.4">3185x2730mm</text><text fill="#1b1b1b" font-size="10" text-anchor="middle" x="629.5" y="1046.1999999999998">8.7sqm / 5.4jo</text><text fill="#1b1b1b" font-size="10" text-anchor="middle" x="438.4" y="314.8">Entry</text><text fill="#1b1b1b" font-size="10" text-anchor="middle" x="438.4" y="325.6">1820x1820mm</text><text fill="#1b1b1b" font-size="10" text-anchor="middle" x="438.4" y="336.4">3.3sqm / 2.0jo</text><text fill="#1b1b1b" font-size="9" text-anchor="middle" x="402.0" y="560.5">Hall 1</text><text fill="#1b1b1b" font-size="9" text-anchor="middle" x="402.0" y="571.3">7.5sqm / 4.6jo</text><text fill="#1b1b1b" font-size="9" text-anchor="middle" x="883.0" y="548.8">Ldk</text><text fill="#1b1b1b" font-size="9" text-anchor="middle" x="883.0" y="559.5999999999999">L-shape (2 parts)</text><text fill="#1b1b1b" font-size="9" text-anchor="middle" x="883.0" y="570.4">3640x1820 | 4550x3640</text><text fill="#1b1b1b" font-size="9" text-anchor="middle" x="883.0" y="581.2">23.2sqm / 14.3jo</text><text fill="#1b1b1b" font-size="10" text-anchor="middle" x="1093.6" y="314.8">Storage 1</text><text fill="#1b1b1b" font-size="10" text-anchor="middle" x="1093.6" y="325.6">1820x1820mm</text><text fill="#1b1b1b" font-size="10" text-anchor="middle" x="1093.6" y="336.4">3.3sqm / 2.0jo</text><text fill="#1b1b1b" font-size="10" text-anchor="middle" x="1011.6999999999999" y="1024.6">Study 1</text><text fill="#1b1b1b" font-size="10" text-anchor="middle" x="1011.6999999999999" y="1035.4">3185x2730mm</text><text fill="#1b1b1b" font-size="10" text-anchor="middle" x="1011.6999999999999" y="1046.1999999999998">8.7sqm / 5.4jo</text><text fill="#1b1b1b" font-size="10" text-anchor="middle" x="274.6" y="314.8">Toilet 1</text><text fill="#1b1b1b" font-size="10" text-anchor="middle" x="274.6" y="325.6">910x1820mm</text><text fill="#1b1b1b" font-size="10" text-anchor="middle" x="274.6" y="336.4">1.7sqm / 1.0jo</text><text fill="#1b1b1b" font-size="10" text-anchor="middle" x="329.2" y="860.8">Wash 1</text><text fill="#1b1b1b" font-size="10" text-anchor="middle" x="329.2" y="871.6">1820x1820mm</text><text fill="#1b1b1b" font-size="10" text-anchor="middle" x="329.2" y="882.4">3.3sqm / 2.0jo</text><text fill="#4a4a4a" font-size="10" text-anchor="middle" x="493.0" y="1039.0">CL</text><text fill="#4a4a4a" font-size="10" text-anchor="middle" x="875.1999999999999" y="1039.0">CL</text><text fill="#111111" font-size="14" x="220.0" y="180.0">F1 Plan  (8190 x 8190 mm)</text><text fill="#444444" font-size="10" x="220.0" y="198.0">Scale: 1px=8.3mm</text><rect fill="#ffffff" height="216" stroke="#777777" stroke-width="1" width="170" x="1290.8" y="150.0" /><text fill="#111111" font-size="11" x="1298.8" y="164.0">Legend</text><rect fill="#f8f0d9" height="12" stroke="#333333" stroke-width="1" width="12" x="1298.8" y="174.0" /><text fill="#222222" font-size="10" x="1316.8" y="184.0">Entry</text><rect fill="#efe9ff" height="12" stroke="#333333" stroke-width="1" width="12" x="1298.8" y="192.0" /><text fill="#222222" font-size="10" x="1316.8" y="202.0">Hall</text><rect fill="#ffe2b8" height="12" stroke="#333333" stroke-width="1" width="12" x="1298.8" y="210.0" /><text fill="#222222" font-size="10" x="1316.8" y="220.0">Ldk</text><rect fill="#d9f2ff" height="12" stroke="#333333" stroke-width="1" width="12" x="1298.8" y="228.0" /><text fill="#222222" font-size="10" x="1316.8" y="238.0">Bedroom</text><rect fill="#fbe7e6" height="12" stroke="#333333" stroke-width="1" width="12" x="1298.8" y="246.0" /><text fill="#222222" font-size="10" x="1316.8" y="256.0">Toilet</text><rect fill="#e7fbfb" height="12" stroke="#333333" stroke-width="1" width="12" x="1298.8" y="264.0" /><text fill="#222222" font-size="10" x="1316.8" y="274.0">Washroom</text><rect fill="#dcecff" height="12" stroke="#333333" stroke-width="1" width="12" x="1298.8" y="282.0" /><text fill="#222222" font-size="10" x="1316.8" y="292.0">Bath</text><rect fill="#f7f3ea" height="12" stroke="#333333" stroke-width="1" width="12" x="1298.8" y="300.0" /><text fill="#222222" font-size="10" x="1316.8" y="310.0">Closet</text><rect fill="#f0f0f0" height="12" stroke="#333333" stroke-width="1" width="12" x="1298.8" y="318.0" /><text fill="#222222" font-size="10" x="1316.8" y="328.0">Storage</text><line stroke="#6aa4ff" stroke-width="4" x1="1298.8" x2="1325.8" y1="348.0" y2="348.0" /><text fill="#222222" font-size="10" x="1332.8" y="351.0">Window</text><line stroke="#666666" stroke-width="2.4" x1="1298.8" x2="1325.8" y1="364.0" y2="364.0" /><path d="M 1298.8,364.0 A 10,10 0 0 1 1308.8,354.0" fill="none" stroke="#666666" stroke-width="1.2" /><text fill="#222222" font-size="10" x="1332.8" y="367.0">Door</text><rect fill="#ffffff" height="84" stroke="#777777" stroke-width="1" width="200" x="1290.8" y="520.0" /><text fill="#111111" font-size="10" x="1298.8" y="533.0">Area (F1)</text><text fill="#222222" font-size="9" x="1298.8" y="550.0">F1: in 67.1 sqm (20.3 tsubo), out 0.0 sqm (0.0 tsubo)</text><text fill="#222222" font-size="9" x="1298.8" y="566.0">F2: in 67.1 sqm (20.3 tsubo), out 0.0 sqm (0.0 tsubo)</text><text fill="#222222" font-size="9" x="1298.8" y="582.0">Total indoor: 134.2 sqm (40.6 tsubo)</text><text fill="#222222" font-size="9" x="1298.8" y="598.0">Total outdoor: 0.0 sqm (0.0 tsubo)</text><line stroke="#111111" stroke-width="2" x1="175.0" x2="175.0" y1="238.0" y2="208.0" /><polygon fill="#111111" points="175.0,208.0 181.0,214.0 169.0,214.0" /><text fill="#111111" font-size="12" x="170.0" y="202.0">N</text><line stroke="#545454" stroke-width="1.0" x1="220.0" x2="1202.8" y1="148.0" y2="148.0" /><line stroke="#545454" stroke-width="0.8" x1="220.0" x2="220.0" y1="220.0" y2="148.0" /><line stroke="#545454" stroke-width="1.0" x1="220.0" x2="220.0" y1="145.0" y2="151.0" /><line stroke="#545454" stroke-width="0.8" x1="1202.8" x2="1202.8" y1="220.0" y2="148.0" /><line stroke="#545454" stroke-width="1.0" x1="1202.8" x2="1202.8" y1="145.0" y2="151.0" /><text fill="#545454" font-size="8.8" text-anchor="middle" x="711.4" y="145.0">8190mm</text><line stroke="#666666" stroke-width="1.0" x1="220.0" x2="1202.8" y1="166.0" y2="166.0" /><line stroke="#666666" stroke-width="0.8" x1="220.0" x2="220.0" y1="220.0" y2="166.0" /><line stroke="#666666" stroke-width="1.0" x1="220.0" x2="220.0" y1="163.0" y2="169.0" /><line stroke="#666666" stroke-width="0.8" x1="329.2" x2="329.2" y1="220.0" y2="166.0" /><line stroke="#666666" stroke-width="1.0" x1="329.2" x2="329.2" y1="163.0" y2="169.0" /><line stroke="#666666" stroke-width="0.8" x1="547.6" x2="547.6" y1="220.0" y2="166.0" /><line stroke="#666666" stroke-width="1.0" x1="547.6" x2="547.6" y1="163.0" y2="169.0" /><line stroke="#666666" stroke-width="0.8" x1="984.4" x2="984.4" y1="220.0" y2="166.0" /><line stroke="#666666" stroke-width="1.0" x1="984.4" x2="984.4" y1="163.0" y2="169.0" /><line stroke="#666666" stroke-width="0.8" x1="1202.8" x2="1202.8" y1="220.0" y2="166.0" /><line stroke="#666666" stroke-width="1.0" x1="1202.8" x2="1202.8" y1="163.0" y2="169.0" /><text fill="#666666" font-size="8.2" text-anchor="middle" x="274.6" y="163.0">910</text><text fill="#666666" font-size="8.2" text-anchor="middle" x="438.4" y="163.0">1820</text><text fill="#666666" font-size="8.2" text-anchor="middle" x="766.0" y="163.0">3640</text><text fill="#666666" font-size="8.2" text-anchor="middle" x="1093.6" y="163.0">1820</text><line stroke="#7a7a7a" stroke-width="1.0" x1="220.0" x2="1202.8" y1="184.0" y2="184.0" /><line stroke="#7a7a7a" stroke-width="0.8" x1="220.0" x2="220.0" y1="220.0" y2="184.0" /><line stroke="#7a7a7a" stroke-width="1.0" x1="220.0" x2="220.0" y1="181.0" y2="187.0" /><line stroke="#7a7a7a" stroke-width="0.8" x1="383.8" x2="383.8" y1="220.0" y2="184.0" /><line stroke="#7a7a7a" stroke-width="1.0" x1="383.8" x2="383.8" y1="181.0" y2="187.0" /><line stroke="#7a7a7a" stroke-width="0.8" x1="493.0" x2="493.0" y1="220.0" y2="184.0" /><line stroke="#7a7a7a" stroke-width="1.0" x1="493.0" x2="493.0" y1="181.0" y2="187.0" /><line stroke="#7a7a7a" stroke-width="0.8" x1="602.2" x2="602.2" y1="220.0" y2="184.0" /><line stroke="#7a7a7a" stroke-width="1.0" x1="602.2" x2="602.2" y1="181.0" y2="187.0" /><line stroke="#7a7a7a" stroke-width="0.8" x1="766.0" x2="766.0" y1="220.0" y2="184.0" /><line stroke="#7a7a7a" stroke-width="1.0" x1="766.0" x2="766.0" y1="181.0" y2="187.0" /><line stroke="#7a7a7a" stroke-width="0.8" x1="929.8" x2="929.8" y1="220.0" y2="184.0" /><line stroke="#7a7a7a" stroke-width="1.0" x1="929.8" x2="929.8" y1="181.0" y2="187.0" /><line stroke="#7a7a7a" stroke-width="0.8" x1="1202.8" x2="1202.8" y1="220.0" y2="184.0" /><line stroke="#7a7a7a" stroke-width="1.0" x1="1202.8" x2="1202.8" y1="181.0" y2="187.0" /><text fill="#7a7a7a" font-size="7.8" text-anchor="middle" x="301.9" y="181.0">1365</text><text fill="#7a7a7a" font-size="7.8" text-anchor="middle" x="438.4" y="181.0">910</text><text fill="#7a7a7a" font-size="7.8" text-anchor="middle" x="547.5999999999999" y="181.0">910</text><text fill="#7a7a7a" font-size="7.8" text-anchor="middle" x="684.0999999999999" y="181.0">1365</text><text fill="#7a7a7a" font-size="7.8" text-anchor="middle" x="847.9" y="181.0">1365</text><text fill="#7a7a7a" font-size="7.8" text-anchor="middle" x="1066.3" y="181.0">2275</text><line stroke="#545454" stroke-width="1.0" x1="220.0" x2="1202.8" y1="1274.8" y2="1274.8" /><line stroke="#545454" stroke-width="0.8" x1="220.0" x2="220.0" y1="1202.8" y2="1274.8" /><line stroke="#545454" stroke-width="1.0" x1="220.0" x2="220.0" y1="1271.8" y2="1277.8" /><line stroke="#545454" stroke-width="0.8" x1="1202.8" x2="1202.8" y1="1202.8" y2="1274.8" /><line stroke="#545454" stroke-width="1.0" x1="1202.8" x2="1202.8" y1="1271.8" y2="1277.8" /><text fill="#545454" font-size="8.8" text-anchor="middle" x="711.4" y="1284.8">8190mm</text><line stroke="#666666" stroke-width="1.0" x1="220.0" x2="1202.8" y1="1256.8" y2="1256.8" /><line stroke="#666666" stroke-width="0.8" x1="220.0" x2="220.0" y1="1202.8" y2="1256.8" /><line stroke="#666666" stroke-width="1.0" x1="220.0" x2="220.0" y1="1253.8" y2="1259.8" /><line stroke="#666666" stroke-width="0.8" x1="438.4" x2="438.4" y1="1202.8" y2="1256.8" /><line stroke="#666666" stroke-width="1.0" x1="438.4" x2="438.4" y1="1253.8" y2="1259.8" /><line stroke="#666666" stroke-width="0.8" x1="820.6" x2="820.6" y1="1202.8" y2="1256.8" /><line stroke="#666666" stroke-width="1.0" x1="820.6" x2="820.6" y1="1253.8" y2="1259.8" /><line stroke="#666666" stroke-width="0.8" x1="1202.8" x2="1202.8" y1="1202.8" y2="1256.8" /><line stroke="#666666" stroke-width="1.0" x1="1202.8" x2="1202.8" y1="1253.8" y2="1259.8" /><text fill="#666666" font-size="8.2" text-anchor="middle" x="329.2" y="1266.8">1820</text><text fill="#666666" font-size="8.2" text-anchor="middle" x="629.5" y="1266.8">3185</text><text fill="#666666" font-size="8.2" text-anchor="middle" x="1011.6999999999999" y="1266.8">3185</text><line stroke="#7a7a7a" stroke-width="1.0" x1="220.0" x2="1202.8" y1="1238.8" y2="1238.8" /><line stroke="#7a7a7a" stroke-width="0.8" x1="220.0" x2="220.0" y1="1202.8" y2="1238.8" /><line stroke="#7a7a7a" stroke-width="1.0" x1="220.0" x2="220.0" y1="1235.8" y2="1241.8" /><line stroke="#7a7a7a" stroke-width="0.8" x1="602.2" x2="602.2" y1="1202.8" y2="1238.8" /><line stroke="#7a7a7a" stroke-width="1.0" x1="602.2" x2="602.2" y1="1235.8" y2="1241.8" /><line stroke="#7a7a7a" stroke-width="0.8" x1="711.4" x2="711.4" y1="1202.8" y2="1238.8" /><line stroke="#7a7a7a" stroke-width="1.0" x1="711.4" x2="711.4" y1="1235.8" y2="1241.8" /><line stroke="#7a7a7a" stroke-width="0.8" x1="1039.0" x2="1039.0" y1="1202.8" y2="1238.8" /><line stroke="#7a7a7a" stroke-width="1.0" x1="1039.0" x2="1039.0" y1="1235.8" y2="1241.8" /><line stroke="#7a7a7a" stroke-width="0.8" x1="1148.2" x2="1148.2" y1="1202.8" y2="1238.8" /><line stroke="#7a7a7a" stroke-width="1.0" x1="1148.2" x2="1148.2" y1="1235.8" y2="1241.8" /><line stroke="#7a7a7a" stroke-width="0.8" x1="1202.8" x2="1202.8" y1="1202.8" y2="1238.8" /><line stroke="#7a7a7a" stroke-width="1.0" x1="1202.8" x2="1202.8" y1="1235.8" y2="1241.8" /><text fill="#7a7a7a" font-size="7.8" text-anchor="middle" x="411.1" y="1248.8">3185</text><text fill="#7a7a7a" font-size="7.8" text-anchor="middle" x="656.8" y="1248.8">910</text><text fill="#7a7a7a" font-size="7.8" text-anchor="middle" x="875.1999999999999" y="1248.8">2730</text><text fill="#7a7a7a" font-size="7.8" text-anchor="middle" x="1093.6" y="1248.8">910</text><line stroke="#545454" stroke-width="1.0" x1="148.0" x2="148.0" y1="220.0" y2="1202.8" /><line stroke="#545454" stroke-width="0.8" x1="220.0" x2="148.0" y1="220.0" y2="220.0" /><line stroke="#545454" stroke-width="1.0" x1="145.0" x2="151.0" y1="220.0" y2="220.0" /><line stroke="#545454" stroke-width="0.8" x1="220.0" x2="148.0" y1="1202.8" y2="1202.8" /><line stroke="#545454" stroke-width="1.0" x1="145.0" x2="151.0" y1="1202.8" y2="1202.8" /><text fill="#545454" font-size="8.8" x="144.0" y="711.4">8190mm</text><line stroke="#666666" stroke-width="1.0" x1="166.0" x2="166.0" y1="220.0" y2="1202.8" /><line stroke="#666666" stroke-width="0.8" x1="220.0" x2="166.0" y1="220.0" y2="220.0" /><line stroke="#666666" stroke-width="1.0" x1="163.0" x2="169.0" y1="220.0" y2="220.0" /><line stroke="#666666" stroke-width="0.8" x1="220.0" x2="166.0" y1="438.4" y2="438.4" /><line stroke="#666666" stroke-width="1.0" x1="163.0" x2="169.0" y1="438.4" y2="438.4" /><line stroke="#666666" stroke-width="0.8" x1="220.0" x2="166.0" y1="766.0" y2="766.0" /><line stroke="#666666" stroke-width="1.0" x1="163.0" x2="169.0" y1="766.0" y2="766.0" /><line stroke="#666666" stroke-width="0.8" x1="220.0" x2="166.0" y1="984.4" y2="984.4" /><line stroke="#666666" stroke-width="1.0" x1="163.0" x2="169.0" y1="984.4" y2="984.4" /><line stroke="#666666" stroke-width="0.8" x1="220.0" x2="166.0" y1="1202.8" y2="1202.8" /><line stroke="#666666" stroke-width="1.0" x1="163.0" x2="169.0" y1="1202.8" y2="1202.8" /><text fill="#666666" font-size="8.2" x="162.0" y="329.2">1820</text><text fill="#666666" font-size="8.2" x="162.0" y="602.2">2730</text><text fill="#666666" font-size="8.2" x="162.0" y="875.1999999999999">1820</text><text fill="#666666" font-size="8.2" x="162.0" y="1093.6">1820</text><line stroke="#545454" stroke-width="1.0" x1="1274.8" x2="1274.8" y1="220.0" y2="1202.8" /><line stroke="#545454" stroke-width="0.8" x1="1202.8" x2="1274.8" y1="220.0" y2="220.0" /><line stroke="#545454" stroke-width="1.0" x1="1271.8" x2="1277.8" y1="220.0" y2="220.0" /><line stroke="#545454" stroke-width="0.8" x1="1202.8" x2="1274.8" y1="1202.8" y2="1202.8" /><line stroke="#545454" stroke-width="1.0" x1="1271.8" x2="1277.8" y1="1202.8" y2="1202.8" /><text fill="#545454" font-size="8.8" x="1279.8" y="711.4">8190mm</text><line stroke="#666666" stroke-width="1.0" x1="1256.8" x2="1256.8" y1="220.0" y2="1202.8" /><line stroke="#666666" stroke-width="0.8" x1="1202.8" x2="1256.8" y1="220.0" y2="220.0" /><line stroke="#666666" stroke-width="1.0" x1="1253.8" x2="1259.8" y1="220.0" y2="220.0" /><line stroke="#666666" stroke-width="0.8" x1="1202.8" x2="1256.8" y1="438.4" y2="438.4" /><line stroke="#666666" stroke-width="1.0" x1="1253.8" x2="1259.8" y1="438.4" y2="438.4" /><line stroke="#666666" stroke-width="0.8" x1="1202.8" x2="1256.8" y1="875.2" y2="875.2" /><line stroke="#666666" stroke-width="1.0" x1="1253.8" x2="1259.8" y1="875.2" y2="875.2" /><line stroke="#666666" stroke-width="0.8" x1="1202.8" x2="1256.8" y1="1202.8" y2="1202.8" /><line stroke="#666666" stroke-width="1.0" x1="1253.8" x2="1259.8" y1="1202.8" y2="1202.8" /><text fill="#666666" font-size="8.2" x="1261.8" y="329.2">1820</text><text fill="#666666" font-size="8.2" x="1261.8" y="656.8">3640</text><text fill="#666666" font-size="8.2" x="1261.8" y="1039.0">2730</text><line stroke="#7a7a7a" stroke-width="1.0" x1="1238.8" x2="1238.8" y1="220.0" y2="1202.8" /><line stroke="#7a7a7a" stroke-width="0.8" x1="1202.8" x2="1238.8" y1="220.0" y2="220.0" /><line stroke="#7a7a7a" stroke-width="1.0" x1="1235.8" x2="1241.8" y1="220.0" y2="220.0" /><line stroke="#7a7a7a" stroke-width="0.8" x1="1202.8" x2="1238.8" y1="493.0" y2="493.0" /><line stroke="#7a7a7a" stroke-width="1.0" x1="1235.8" x2="1241.8" y1="493.0" y2="493.0" /><line stroke="#7a7a7a" stroke-width="0.8" x1="1202.8" x2="1238.8" y1="656.8" y2="656.8" /><line stroke="#7a7a7a" stroke-width="1.0" x1="1235.8" x2="1241.8" y1="656.8" y2="656.8" /><line stroke="#7a7a7a" stroke-width="0.8" x1="1202.8" x2="1238.8" y1="820.6" y2="820.6" /><line stroke="#7a7a7a" stroke-width="1.0" x1="1235.8" x2="1241.8" y1="820.6" y2="820.6" /><line stroke="#7a7a7a" stroke-width="0.8" x1="1202.8" x2="1238.8" y1="984.4" y2="984.4" /><line stroke="#7a7a7a" stroke-width="1.0" x1="1235.8" x2="1241.8" y1="984.4" y2="984.4" /><line stroke="#7a7a7a" stroke-width="0.8" x1="1202.8" x2="1238.8" y1="1093.6" y2="1093.6" /><line stroke="#7a7a7a" stroke-width="1.0" x1="1235.8" x2="1241.8" y1="1093.6" y2="1093.6" /><line stroke="#7a7a7a" stroke-width="0.8" x1="1202.8" x2="1238.8" y1="1202.8" y2="1202.8" /><line stroke="#7a7a7a" stroke-width="1.0" x1="1235.8" x2="1241.8" y1="1202.8" y2="1202.8" /><text fill="#7a7a7a" font-size="7.8" x="1243.8" y="356.5">2275</text><text fill="#7a7a7a" font-size="7.8" x="1243.8" y="574.9">1365</text><text fill="#7a7a7a" font-size="7.8" x="1243.8" y="738.6999999999999">1365</text><text fill="#7a7a7a" font-size="7.8" x="1243.8" y="902.5">1365</text><text fill="#7a7a7a" font-size="7.8" x="1243.8" y="1039.0">910</text><text fill="#7a7a7a" font-size="7.8" x="1243.8" y="1148.1999999999998">910</text></svg>