<?xml version="1.0" encoding="utf-8" ?>
<svg baseProfile="tiny" height="1422.8px" version="1.2" width="1422.8px" xmlns="http://www.w3.org/2000/svg" xmlns:ev="http://www.w3.org/2001/xml-events" xmlns:xlink="http://www.w3.org/1999/xlink"><defs /><rect fill="#fafafa" height="1422.8" width="1422.8" x="0" y="0" /><line stroke="#ececec" stroke-width="0.7" x1="220.0" x2="220.0" y1="220.0" y2="1202.8" /><line stroke="#ececec" stroke-width="0.7" x1="274.6" x2="274.6" y1="220.0" y2="1202.8" /><line stroke="#ececec" stroke-width="0.7" x1="329.2" x2="329.2" y1="220.0" y2="1202.8" /><line stroke="#ececec" stroke-width="0.7" x1="383.8" x2="383.8" y1="220.0" y2="1202.8" /><line stroke="#ececec" stroke-width="0.7" x1="438.4" x2="438.4" y1="220.0" y2="1202.8" /><line stroke="#ececec" stroke-width="0.7" x1="493.0" x2="493.0" y1="220.0" y2="1202.8" /><line stroke="#ececec" stroke-width="0.7" x1="547.6" x2="547.6" y1="220.0" y2="1202.8" /><line stroke="#ececec" stroke-width="0.7" x1="602.2" x2="602.2" y1="220.0" y2="1202.8" /><line stroke="#ececec" stroke-width="0.7" x1="656.8" x2="656.8" y1="220.0" y2="1202.8" /><line stroke="#ececec" stroke-width="0.7" x1="711.4" x2="711.4" y1="220.0" y2="1202.8" /><line stroke="#ececec" stroke-width="0.7" x1="766.0" x2="766.0" y1="220.0" y2="1202.8" /><line stroke="#ececec" stroke-width="0.7" x1="820.6" x2="820.6" y1="220.0" y2="1202.8" /><line stroke="#ececec" stroke-width="0.7" x1="875.2" x2="875.2" y1="220.0" y2="1202.8" /><line stroke="#ececec" stroke-width="0.7" x1="929.8" x2="929.8" y1="220.0" y2="1202.8" /><line stroke="#ececec" stroke-width="0.7" x1="984.4" x2="984.4" y1="220.0" y2="1202.8" /><line stroke="#ececec" stroke-width="0.7" x1="1039.0" x2="1039.0" y1="220.0" y2="1202.8" /><line stroke="#ececec" stroke-width="0.7" x1="1093.6" x2="1093.6" y1="220.0" y2="1202.8" /><line stroke="#ececec" stroke-width="0.7" x1="1148.2" x2="1148.2" y1="220.0" y2="1202.8" /><line stroke="#ececec" stroke-width="0.7" x1="1202.8" x2="1202.8" y1="220.0" y2="1202.8" /><line stroke="#d1d1d1" stroke-width="1.1" x1="220.0" x2="220.0" y1="220.0" y2="1202.8" /><line stroke="#d1d1d1" stroke-width="1.1" x1="329.2" x2="329.2" y1="220.0" y2="1202.8" /><line stroke="#d1d1d1" stroke-width="1.1" x1="438.4" x2="438.4" y1="220.0" y2="1202.8" /><line stroke="#d1d1d1" stroke-width="1.1" x1="547.6" x2="547.6" y1="220.0" y2="1202.8" /><line stroke="#d1d1d1" stroke-width="1.1" x1="656.8" x2="656.8" y1="220.0" y2="1202.8" /><line stroke="#d1d1d1" stroke-width="1.1" x1="766.0" x2="766.0" y1="220.0" y2="1202.8" /><line stroke="#d1d1d1" stroke-width="1.1" x1="875.2" x2="875.2" y1="220.0" y2="1202.8" /><line stroke="#d1d1d1" stroke-width="1.1" x1="984.4" x2="984.4" y1="220.0" y2="1202.8" /><line stroke="#d1d1d1" stroke-width="1.1" x1="1093.6" x2="1093.6" y1="220.0" y2="1202.8" /><line stroke="#d1d1d1" stroke-width="1.1" x1="1202.8" x2="1202.8" y1="220.0" y2="1202.8" /><line stroke="#d1d1d1" stroke-width="1.1" x1="220.0" x2="1202.8" y1="220.0" y2="220.0" /><line stroke="#d1d1d1" stroke-width="1.1" x1="220.0" x2="1202.8" y1="329.2" y2="329.2" /><line stroke="#d1d1d1" stroke-width="1.1" x1="220.0" x2="1202.8" y1="438.4" y2="438.4" /><line stroke="#d1d1d1" stroke-width="1.1" x1="220.0" x2="1202.8" y1="547.6" y2="547.6" /><line stroke="#d1d1d1" stroke-width="1.1" x1="220.0" x2="1202.8" y1="656.8" y2="656.8" /><line stroke="#d1d1d1" stroke-width="1.1" x1="220.0" x2="1202.8" y1="766.0" y2="766.0" /><line stroke="#d1d1d1" stroke-width="1.1" x1="220.0" x2="1202.8" y1="875.2" y2="875.2" /><line stroke="#d1d1d1" stroke-width="1.1" x1="220.0" x2="1202.8" y1="984.4" y2="984.4" /><line stroke="#d1d1d1" stroke-width="1.1" x1="220.0" x2="1202.8" y1="1093.6" y2="1093.6" /><line stroke="#d1d1d1" stroke-width="1.1" x1="220.0" x2="1202.8" y1="1202.8" y2="1202.8" /><line stroke="#ececec" stroke-width="0.7" x1="220.0" x2="1202.8" y1="220.0" y2="220.0" /><line stroke="#ececec" stroke-width="0.7" x1="220.0" x2="1202.8" y1="274.6" y2="274.6" /><line stroke="#ececec" stroke-width="0.7" x1="220.0" x2="1202.8" y1="329.2" y2="329.2" /><line stroke="#ececec" stroke-width="0.7" x1="220.0" x2="1202.8" y1="383.8" y2="383.8" /><line stroke="#ececec" stroke-width="0.7" x1="220.0" x2="1202.8" y1="438.4" y2="438.4" /><line stroke="#ececec" stroke-width="0.7" x1="220.0" x2="1202.8" y1="493.0" y2="493.0" /><line stroke="#ececec" stroke-width="0.7" x1="220.0" x2="1202.8" y1="547.6" y2="547.6" /><line stroke="#ececec" stroke-width="0.7" x1="220.0" x2="1202.8" y1="602.2" y2="602.2" /><line stroke="#ececec" stroke-width="0.7" x1="220.0" x2="1202.8" y1="656.8" y2="656.8" /><line stroke="#ececec" stroke-width="0.7" x1="220.0" x2="1202.8" y1="711.4" y2="711.4" /><line stroke="#ececec" stroke-width="0.7" x1="220.0" x2="1202.8" y1="766.0" y2="766.0" /><line stroke="#ececec" stroke-width="0.7" x1="220.0" x2="1202.8" y1="820.6" y2="820.6" /><line stroke="#ececec" stroke-width="0.7" x1="220.0" x2="1202.8" y1="875.2" y2="875.2" /><line stroke="#ececec" stroke-width="0.7" x1="220.0" x2="1202.8" y1="929.8" y2="929.8" /><line stroke="#ececec" stroke-width="0.7" x1="220.0" x2="1202.8" y1="984.4" y2="984.4" /><line stroke="#ececec" stroke-width="0.7" x1="220.0" x2="1202.8" y1="1039.0" y2="1039.0" /><line stroke="#ececec" stroke-width="0.7" x1="220.0" x2="1202.8" y1="1093.6" y2="1093.6" /><line stroke="#ececec" stroke-width="0.7" x1="220.0" x2="1202.8" y1="1148.2" y2="1148.2" /><line stroke="#ececec" stroke-width="0.7" x1="220.0" x2="1202.8" y1="1202.8" y2="1202.8" /><rect fill="none" height="982.8" stroke="#6a6a6a" stroke-dasharray="8,4" stroke-width="2" width="982.8" x="220.0" y="220.0" /><rect fill="none" height="982.8" stroke="#1f1f1f" stroke-width="3.5" width="982.8" x="220.0" y="220.0" /><text fill="#555555" font-size="10" x="222.0" y="160.0">Site Envelope = Building Footprint</text><rect fill="#d9f2ff" height="546.0" stroke="none" width="327.6" x="875.2" y="220.0" /><line stroke="#2f2f2f" stroke-width="2.2" x1="875.2" x2="1202.8" y1="766.0" y2="766.0" /><line stroke="#2f2f2f" stroke-width="2.2" x1="875.2" x2="1202.8" y1="220.0" y2="220.0" /><line stroke="#2f2f2f" stroke-width="2.2" x1="1202.8" x2="1202.8" y1="220.0" y2="766.0" /><line stroke="#2f2f2f" stroke-width="2.2" x1="875.2" x2="875.2" y1="220.0" y2="766.0" /><rect fill="#d9f2ff" height="436.8" stroke="none" width="436.8" x="766.0" y="766.0" /><line stroke="#2f2f2f" stroke-width="2.2" x1="766.0" x2="1202.8" y1="766.0" y2="766.0" /><line stroke="#2f2f2f" stroke-width="2.2" x1="766.0" x2="1202.8" y1="1202.8" y2="1202.8" /><line stroke="#2f2f2f" stroke-width="2.2" x1="766.0" x2="766.0" y1="766.0" y2="1202.8" /><line stroke="#2f2f2f" stroke-width="2.2" x1="1202.8" x2="1202.8" y1="766.0" y2="1202.8" /><rect fill="#d9f2ff" height="327.6" stroke="none" width="546.0" x="220.0" y="875.2" /><line stroke="#2f2f2f" stroke-width="2.2" x1="220.0" x2="766.0" y1="875.2" y2="875.2" /><line stroke="#2f2f2f" stroke-width="2.2" x1="220.0" x2="766.0" y1="1202.8" y2="1202.8" /><line stroke="#2f2f2f" stroke-width="2.2" x1="220.0" x2="220.0" y1="875.2" y2="1202.8" /><line stroke="#2f2f2f" stroke-width="2.2" x1="766.0" x2="766.0" y1="875.2" y2="1202.8" /><rect fill="#efe9ff" height="273.0" stroke="none" width="109.2" x="656.8" y="602.2" /><rect fill="#efe9ff" height="382.2" stroke="none" width="163.8" x="711.4" y="220.0" /><rect fill="#efe9ff" height="163.8" stroke="none" width="109.2" x="766.0" y="602.2" /><line stroke="#2f2f2f" stroke-width="2.2" x1="766.0" x2="875.2" y1="766.0" y2="766.0" /><line stroke="#2f2f2f" stroke-width="2.2" x1="711.4" x2="875.2" y1="220.0" y2="220.0" /><line stroke="#2f2f2f" stroke-width="2.2" x1="656.8" x2="766.0" y1="875.2" y2="875.2" /><line stroke="#2f2f2f" stroke-width="2.2" x1="656.8" x2="711.4" y1="602.2" y2="602.2" /><line stroke="#2f2f2f" stroke-width="2.2" x1="875.2" x2="875.2" y1="220.0" y2="766.0" /><line stroke="#2f2f2f" stroke-width="2.2" x1="711.4" x2="711.4" y1="220.0" y2="602.2" /><line stroke="#2f2f2f" stroke-width="2.2" x1="656.8" x2="656.8" y1="602.2" y2="875.2" /><line stroke="#2f2f2f" stroke-width="2.2" x1="766.0" x2="766.0" y1="766.0" y2="875.2" /><rect fill="#c5e8ff" height="382.2" stroke="none" width="491.4" x="220.0" y="220.0" /><line stroke="#2f2f2f" stroke-width="2.2" x1="220.0" x2="711.4" y1="602.2" y2="602.2" /><line stroke="#2f2f2f" stroke-width="2.2" x1="220.0" x2="711.4" y1="220.0" y2="220.0" /><line stroke="#2f2f2f" stroke-width="2.2" x1="220.0" x2="220.0" y1="220.0" y2="602.2" /><line stroke="#2f2f2f" stroke-width="2.2" x1="711.4" x2="711.4" y1="220.0" y2="602.2" /><rect fill="#ece7dd" height="273.0" stroke="none" width="218.4" x="220.0" y="602.2" /><line stroke="#2f2f2f" stroke-width="2.2" x1="220.0" x2="438.4" y1="875.2" y2="875.2" /><line stroke="#2f2f2f" stroke-width="2.2" x1="220.0" x2="438.4" y1="602.2" y2="602.2" /><line stroke="#2f2f2f" stroke-width="2.2" x1="438.4" x2="438.4" y1="602.2" y2="875.2" /><line stroke="#2f2f2f" stroke-width="2.2" x1="220.0" x2="220.0" y1="602.2" y2="875.2" /><rect fill="#f7f3ea" fill-opacity="0.35" height="109.2" stroke="#9a9a9a" stroke-dasharray="4,3" stroke-width="0.9" width="327.6" x="875.2" y="656.8" /><line stroke="#9c9c9c" stroke-opacity="0.7" stroke-width="0.8" x1="875.2" x2="894.4" y1="746.8" y2="766.0" /><line stroke="#9c9c9c" stroke-opacity="0.7" stroke-width="0.8" x1="875.2" x2="913.6" y1="727.6" y2="766.0" /><line stroke="#9c9c9c" stroke-opacity="0.7" stroke-width="0.8" x1="875.2" x2="932.8" y1="708.4" y2="766.0" /><line stroke="#9c9c9c" stroke-opacity="0.7" stroke-width="0.8" x1="875.2" x2="952.0" y1="689.2" y2="766.0" /><line stroke="#9c9c9c" stroke-opacity="0.7" stroke-width="0.8" x1="875.2" x2="971.2" y1="670.0" y2="766.0" /><line stroke="#9c9c9c" stroke-opacity="0.7" stroke-width="0.8" x1="881.2" x2="990.4" y1="656.8" y2="766.0" /><line stroke="#9c9c9c" stroke-opacity="0.7" stroke-width="0.8" x1="900.4" x2="1009.6" y1="656.8" y2="766.0" /><line stroke="#9c9c9c" stroke-opacity="0.7" stroke-width="0.8" x1="919.6" x2="1028.8" y1="656.8" y2="766.0" /><line stroke="#9c9c9c" stroke-opacity="0.7" stroke-width="0.8" x1="938.8" x2="1048.0" y1="656.8" y2="766.0" /><line stroke="#9c9c9c" stroke-opacity="0.7" stroke-width="0.8" x1="958.0" x2="1067.2" y1="656.8" y2="766.0" /><line stroke="#9c9c9c" stroke-opacity="0.7" stroke-width="0.8" x1="977.2" x2="1086.4" y1="656.8" y2="766.0" /><line stroke="#9c9c9c" stroke-opacity="0.7" stroke-width="0.8" x1="996.4" x2="1105.6" y1="656.8" y2="766.0" /><line stroke="#9c9c9c" stroke-opacity="0.7" stroke-width="0.8" x1="1015.6" x2="1124.8" y1="656.8" y2="766.0" /><line stroke="#9c9c9c" stroke-opacity="0.7" stroke-width="0.8" x1="1034.8" x2="1144.0" y1="656.8" y2="766.0" /><line stroke="#9c9c9c" stroke-opacity="0.7" stroke-width="0.8" x1="1054.0" x2="1163.2" y1="656.8" y2="766.0" /><line stroke="#9c9c9c" stroke-opacity="0.7" stroke-width="0.8" x1="1073.2" x2="1182.4" y1="656.8" y2="766.0" /><line stroke="#9c9c9c" stroke-opacity="0.7" stroke-width="0.8" x1="1092.4" x2="1201.6" y1="656.8" y2="766.0" /><line stroke="#9c9c9c" stroke-opacity="0.7" stroke-width="0.8" x1="1111.6" x2="1202.8" y1="656.8" y2="748.0" /><line stroke="#9c9c9c" stroke-opacity="0.7" stroke-width="0.8" x1="1130.8" x2="1202.8" y1="656.8" y2="728.8" /><line stroke="#9c9c9c" stroke-opacity="0.7" stroke-width="0.8" x1="1150.0" x2="1202.8" y1="656.8" y2="709.6" /><line stroke="#9c9c9c" stroke-opacity="0.7" stroke-width="0.8" x1="1169.2" x2="1202.8" y1="656.8" y2="690.4" /><line stroke="#9c9c9c" stroke-opacity="0.7" stroke-width="0.8" x1="1188.4" x2="1202.8" y1="656.8" y2="671.2" /><rect fill="#f7f3ea" fill-opacity="0.35" height="109.2" stroke="#9a9a9a" stroke-dasharray="4,3" stroke-width="0.9" width="436.8" x="766.0" y="1093.6" /><line stroke="#9c9c9c" stroke-opacity="0.7" stroke-width="0.8" x1="766.0" x2="785.2" y1="1183.6" y2="1202.8" /><line stroke="#9c9c9c" stroke-opacity="0.7" stroke-width="0.8" x1="766.0" x2="804.4" y1="1164.4" y2="1202.8" /><line stroke="#9c9c9c" stroke-opacity="0.7" stroke-width="0.8" x1="766.0" x2="823.6" y1="1145.2" y2="1202.8" /><line stroke="#9c9c9c" stroke-opacity="0.7" stroke-width="0.8" x1="766.0" x2="842.8" y1="1126.0" y2="1202.8" /><line stroke="#9c9c9c" stroke-opacity="0.7" stroke-width="0.8" x1="766.0" x2="862.0" y1="1106.8" y2="1202.8" /><line stroke="#9c9c9c" stroke-opacity="0.7" stroke-width="0.8" x1="772.0" x2="881.2" y1="1093.6" y2="1202.8" /><line stroke="#9c9c9c" stroke-opacity="0.7" stroke-width="0.8" x1="791.2" x2="900.4" y1="1093.6" y2="1202.8" /><line stroke="#9c9c9c" stroke-opacity="0.7" stroke-width="0.8" x1="810.4" x2="919.6" y1="1093.6" y2="1202.8" /><line stroke="#9c9c9c" stroke-opacity="0.7" stroke-width="0.8" x1="829.6" x2="938.8" y1="1093.6" y2="1202.8" /><line stroke="#9c9c9c" stroke-opacity="0.7" stroke-width="0.8" x1="848.8" x2="958.0" y1="1093.6" y2="1202.8" /><line stroke="#9c9c9c" stroke-opacity="0.7" stroke-width="0.8" x1="868.0" x2="977.2" y1="1093.6" y2="1202.8" /><line stroke="#9c9c9c" stroke-opacity="0.7" stroke-width="0.8" x1="887.2" x2="996.4" y1="1093.6" y2="1202.8" /><line stroke="#9c9c9c" stroke-opacity="0.7" stroke-width="0.8" x1="906.4" x2="1015.6" y1="1093.6" y2="1202.8" /><line stroke="#9c9c9c" stroke-opacity="0.7" stroke-width="0.8" x1="925.6" x2="1034.8" y1="1093.6" y2="1202.8" /><line stroke="#9c9c9c" stroke-opacity="0.7" stroke-width="0.8" x1="944.8" x2="1054.0" y1="1093.6" y2="1202.8" /><line stroke="#9c9c9c" stroke-opacity="0.7" stroke-width="0.8" x1="964.0" x2="1073.2" y1="1093.6" y2="1202.8" /><line stroke="#9c9c9c" stroke-opacity="0.7" stroke-width="0.8" x1="983.2" x2="1092.4" y1="1093.6" y2="1202.8" /><line stroke="#9c9c9c" stroke-opacity="0.7" stroke-width="0.8" x1="1002.4" x2="1111.6" y1="1093.6" y2="1202.8" /><line stroke="#9c9c9c" stroke-opacity="0.7" stroke-width="0.8" x1="1021.6" x2="1130.8" y1="1093.6" y2="1202.8" /><line stroke="#9c9c9c" stroke-opacity="0.7" stroke-width="0.8" x1="1040.8" x2="1150.0" y1="1093.6" y2="1202.8" /><line stroke="#9c9c9c" stroke-opacity="0.7" stroke-width="0.8" x1="1060.0" x2="1169.2" y1="1093.6" y2="1202.8" /><line stroke="#9c9c9c" stroke-opacity="0.7" stroke-width="0.8" x1="1079.2" x2="1188.4" y1="1093.6" y2="1202.8" /><line stroke="#9c9c9c" stroke-opacity="0.7" stroke-width="0.8" x1="1098.4" x2="1202.8" y1="1093.6" y2="1198.0" /><line stroke="#9c9c9c" stroke-opacity="0.7" stroke-width="0.8" x1="1117.6" x2="1202.8" y1="1093.6" y2="1178.8" /><line stroke="#9c9c9c" stroke-opacity="0.7" stroke-width="0.8" x1="1136.8" x2="1202.8" y1="1093.6" y2="1159.6" /><line stroke="#9c9c9c" stroke-opacity="0.7" stroke-width="0.8" x1="1156.0" x2="1202.8" y1="1093.6" y2="1140.4" /><line stroke="#9c9c9c" stroke-opacity="0.7" stroke-width="0.8" x1="1175.2" x2="1202.8" y1="1093.6" y2="1121.2" /><line stroke="#9c9c9c" stroke-opacity="0.7" stroke-width="0.8" x1="1194.4" x2="1202.8" y1="1093.6" y2="1102.0" /><rect fill="#f7f3ea" fill-opacity="0.35" height="327.6" stroke="#9a9a9a" stroke-dasharray="4,3" stroke-width="0.9" width="109.2" x="220.0" y="875.2" /><line stroke="#9c9c9c" stroke-opacity="0.7" stroke-width="0.8" x1="220.0" x2="239.2" y1="1183.6" y2="1202.8" /><line stroke="#9c9c9c" stroke-opacity="0.7" stroke-width="0.8" x1="220.0" x2="258.4" y1="1164.4" y2="1202.8" /><line stroke="#9c9c9c" stroke-opacity="0.7" stroke-width="0.8" x1="220.0" x2="277.6" y1="1145.2" y2="1202.8" /><line stroke="#9c9c9c" stroke-opacity="0.7" stroke-width="0.8" x1="220.0" x2="296.8" y1="1126.0" y2="1202.8" /><line stroke="#9c9c9c" stroke-opacity="0.7" stroke-width="0.8" x1="220.0" x2="316.0" y1="1106.8" y2="1202.8" /><line stroke="#9c9c9c" stroke-opacity="0.7" stroke-width="0.8" x1="220.0" x2="329.2" y1="1087.6" y2="1196.8" /><line stroke="#9c9c9c" stroke-opacity="0.7" stroke-width="0.8" x1="220.0" x2="329.2" y1="1068.4" y2="1177.6" /><line stroke="#9c9c9c" stroke-opacity="0.7" stroke-width="0.8" x1="220.0" x2="329.2" y1="1049.2" y2="1158.4" /><line stroke="#9c9c9c" stroke-opacity="0.7" stroke-width="0.8" x1="220.0" x2="329.2" y1="1030.0" y2="1139.2" /><line stroke="#9c9c9c" stroke-opacity="0.7" stroke-width="0.8" x1="220.0" x2="329.2" y1="1010.8" y2="1120.0" /><line stroke="#9c9c9c" stroke-opacity="0.7" stroke-width="0.8" x1="220.0" x2="329.2" y1="991.6" y2="1100.8" /><line stroke="#9c9c9c" stroke-opacity="0.7" stroke-width="0.8" x1="220.0" x2="329.2" y1="972.4" y2="1081.6" /><line stroke="#9c9c9c" stroke-opacity="0.7" stroke-width="0.8" x1="220.0" x2="329.2" y1="953.2" y2="1062.4" /><line stroke="#9c9c9c" stroke-opacity="0.7" stroke-width="0.8" x1="220.0" x2="329.2" y1="934.0" y2="1043.2" /><line stroke="#9c9c9c" stroke-opacity="0.7" stroke-width="0.8" x1="220.0" x2="329.2" y1="914.8" y2="1024.0" /><line stroke="#9c9c9c" stroke-opacity="0.7" stroke-width="0.8" x1="220.0" x2="329.2" y1="895.6" y2="1004.8" /><line stroke="#9c9c9c" stroke-opacity="0.7" stroke-width="0.8" x1="220.0" x2="329.2" y1="876.4" y2="985.6" /><line stroke="#9c9c9c" stroke-opacity="0.7" stroke-width="0.8" x1="238.0" x2="329.2" y1="875.2" y2="966.4" /><line stroke="#9c9c9c" stroke-opacity="0.7" stroke-width="0.8" x1="257.2" x2="329.2" y1="875.2" y2="947.2" /><line stroke="#9c9c9c" stroke-opacity="0.7" stroke-width="0.8" x1="276.4" x2="329.2" y1="875.2" y2="928.0" /><line stroke="#9c9c9c" stroke-opacity="0.7" stroke-width="0.8" x1="295.6" x2="329.2" y1="875.2" y2="908.8" /><line stroke="#9c9c9c" stroke-opacity="0.7" stroke-width="0.8" x1="314.8" x2="329.2" y1="875.2" y2="889.6" /><rect fill="none" height="129.948" stroke="#7f7f7f" stroke-width="1.1" width="218.4" x="356.5" y="288.796" /><line stroke="#7f7f7f" stroke-width="0.9" x1="356.5" x2="574.9" y1="334.2778" y2="334.2778" /><rect fill="none" height="163.8" stroke="#7f7f7f" stroke-width="1.1" width="183.456" x="947.272" y="318.28" /><line stroke="#7f7f7f" stroke-width="0.9" x1="947.272" x2="1130.728" y1="375.61" y2="375.61" /><rect fill="none" height="148.512" stroke="#7f7f7f" stroke-width="1.1" width="218.4" x="875.2" y="844.624" /><line stroke="#7f7f7f" stroke-width="0.9" x1="875.2" x2="1093.6" y1="896.6032" y2="896.6032" /><rect fill="none" height="111.384" stroke="#7f7f7f" stroke-width="1.1" width="218.4" x="383.8" y="934.168" /><line stroke="#7f7f7f" stroke-width="0.9" x1="383.8" x2="602.2" y1="973.1524" y2="973.1524" /><line stroke="#9a9a9a" stroke-width="0.9" x1="246.208" x2="412.192" y1="651.34" y2="651.34" /><line stroke="#9a9a9a" stroke-width="0.9" x1="246.208" x2="412.192" y1="826.06" y2="826.06" /><line stroke="#9a9a9a" stroke-dasharray="5,3" stroke-width="0.7" x1="246.208" x2="412.192" y1="738.7" y2="738.7" /><rect fill="#f4f4f4" height="163.8" stroke="#202020" stroke-dasharray="4,3" stroke-width="2.6" width="109.2" x="438.4" y="711.4" /><line stroke="#b8b8b8" stroke-width="0.9" x1="443.8" x2="542.2" y1="721.0" y2="721.0" /><line stroke="#b8b8b8" stroke-width="0.9" x1="443.8" x2="542.2" y1="740.2" y2="740.2" /><line stroke="#b8b8b8" stroke-width="0.9" x1="443.8" x2="542.2" y1="759.4" y2="759.4" /><line stroke="#b8b8b8" stroke-width="0.9" x1="443.8" x2="542.2" y1="778.6" y2="778.6" /><line stroke="#b8b8b8" stroke-width="0.9" x1="443.8" x2="542.2" y1="797.8" y2="797.8" /><line stroke="#b8b8b8" stroke-width="0.9" x1="443.8" x2="542.2" y1="817.0" y2="817.0" /><line stroke="#b8b8b8" stroke-width="0.9" x1="443.8" x2="542.2" y1="836.2" y2="836.2" /><line stroke="#b8b8b8" stroke-width="0.9" x1="443.8" x2="542.2" y1="855.4" y2="855.4" /><line stroke="#b8b8b8" stroke-width="0.9" x1="443.8" x2="542.2" y1="874.6" y2="874.6" /><rect fill="#f4f4f4" height="109.2" stroke="#202020" stroke-dasharray="4,3" stroke-width="2.6" width="218.4" x="438.4" y="602.2" /><line stroke="#b8b8b8" stroke-width="0.9" x1="443.8" x2="651.4" y1="611.8" y2="611.8" /><line stroke="#b8b8b8" stroke-width="0.9" x1="443.8" x2="651.4" y1="631.0" y2="631.0" /><line stroke="#b8b8b8" stroke-width="0.9" x1="443.8" x2="651.4" y1="650.2" y2="650.2" /><line stroke="#b8b8b8" stroke-width="0.9" x1="443.8" x2="651.4" y1="669.4" y2="669.4" /><line stroke="#b8b8b8" stroke-width="0.9" x1="443.8" x2="651.4" y1="688.6" y2="688.6" /><line stroke="#b8b8b8" stroke-width="0.9" x1="443.8" x2="651.4" y1="707.8" y2="707.8" /><rect fill="#ffffff" height="163.8" stroke="#202020" stroke-dasharray="8,4" stroke-width="2.6" width="109.2" x="547.6" y="711.4" /><text fill="#555555" font-size="9" text-anchor="middle" x="547.5999999999999" y="738.6999999999999">Open To Below</text><rect fill="none" height="273.0" stroke="#7e7e7e" stroke-dasharray="3,2" stroke-width="2.0" width="218.4" x="438.4" y="602.2" /><text fill="#666666" font-size="8.5" text-anchor="middle" x="547.5999999999999" y="616.5999999999999">Guardrail</text><line stroke="#2a2a2a" stroke-width="1.4" x1="560.704" x2="643.696" y1="734.8" y2="734.8" /><line stroke="#2a2a2a" stroke-width="1.4" x1="560.704" x2="643.696" y1="758.2" y2="758.2" /><line stroke="#2a2a2a" stroke-width="1.4" x1="560.704" x2="643.696" y1="781.6" y2="781.6" /><line stroke="#2a2a2a" stroke-width="1.4" x1="560.704" x2="643.696" y1="805.0" y2="805.0" /><line stroke="#2a2a2a" stroke-width="1.4" x1="560.704" x2="643.696" y1="828.4" y2="828.4" /><line stroke="#2a2a2a" stroke-width="1.4" x1="560.704" x2="643.696" y1="851.8" y2="851.8" /><text fill="#202020" font-size="11" text-anchor="middle" x="602.2" y="793.3">Stair (DN)</text><text fill="#3a3a3a" font-size="9.0" text-anchor="middle" x="602.2" y="807.6999999999999">13R/12T</text><text fill="#4a4a4a" font-size="7.8" text-anchor="middle" x="602.2" y="816.1">H2730 R210 T228</text><line stroke="#ffffff" stroke-width="7" x1="656.8" x2="656.8" y1="711.4" y2="875.2" /><line stroke="#5e5e5e" stroke-width="1.0" x1="656.8" x2="656.8" y1="711.4" y2="875.2" /><line stroke="#ffffff" stroke-width="6" x1="711.4" x2="711.4" y1="352.3" y2="469.9" /><line stroke="#595959" stroke-width="1.2" x1="711.4" x2="634.96" y1="352.3" y2="428.74" /><path d="M 711.4,428.74 A 76.44,76.44 0 0 1 634.96,428.74" fill="none" stroke="#7a7a7a" stroke-width="1.0" /><line stroke="#ffffff" stroke-width="6" x1="875.2" x2="875.2" y1="352.3" y2="469.9" /><line stroke="#595959" stroke-width="1.2" x1="875.2" x2="951.64" y1="352.3" y2="428.74" /><path d="M 875.1999999999999,428.74 A 76.44,76.44 0 0 1 951.64,428.74" fill="none" stroke="#7a7a7a" stroke-width="1.0" /><line stroke="#ffffff" stroke-width="6" x1="766.0" x2="766.0" y1="775.0" y2="866.2" /><line stroke="#595959" stroke-width="1.2" x1="766.0" x2="706.72" y1="775.0" y2="834.28" /><path d="M 766.0,834.28 A 59.28,59.28 0 0 1 706.72,834.28" fill="none" stroke="#7a7a7a" stroke-width="1.0" /><line stroke="#ffffff" stroke-width="6" x1="665.8" x2="757.0" y1="875.2" y2="875.2" /><line stroke="#595959" stroke-width="1.2" x1="665.8" x2="725.08" y1="875.2" y2="934.48" /><path d="M 725.0799999999999,875.1999999999999 A 59.28,59.28 0 0 1 725.0799999999999,934.48" fill="none" stroke="#7a7a7a" stroke-width="1.0" /><line stroke="#ffffff" stroke-width="6" x1="280.06" x2="378.34" y1="602.2" y2="602.2" /><line stroke="#595959" stroke-width="1.2" x1="280.06" x2="343.942" y1="602.2" y2="538.318" /><path d="M 343.942,602.2 A 63.882,63.882 0 0 1 343.942,538.318" fill="none" stroke="#7a7a7a" stroke-width="1.0" /><line stroke="#66a7ff" stroke-width="2.2" x1="217.36" x2="217.36" y1="346.18" y2="476.02" /><line stroke="#66a7ff" stroke-width="2.2" x1="222.64" x2="222.64" y1="346.18" y2="476.02" /><line stroke="#66a7ff" stroke-width="2.2" x1="274.072" x2="441.112" y1="217.36" y2="217.36" /><line stroke="#66a7ff" stroke-width="2.2" x1="274.072" x2="441.112" y1="222.64" y2="222.64" /><line stroke="#66a7ff" stroke-width="2.2" x1="490.288" x2="657.328" y1="217.36" y2="217.36" /><line stroke="#66a7ff" stroke-width="2.2" x1="490.288" x2="657.328" y1="222.64" y2="222.64" /><line stroke="#66a7ff" stroke-width="2.2" x1="1200.16" x2="1200.16" y1="268.084" y2="416.524" /><line stroke="#66a7ff" stroke-width="2.2" x1="1205.44" x2="1205.44" y1="268.084" y2="416.524" /><line stroke="#66a7ff" stroke-width="2.2" x1="1200.16" x2="1200.16" y1="460.276" y2="608.716" /><line stroke="#66a7ff" stroke-width="2.2" x1="1205.44" x2="1205.44" y1="460.276" y2="608.716" /><line stroke="#66a7ff" stroke-width="2.2" x1="983.32" x2="1094.68" y1="217.36" y2="217.36" /><line stroke="#66a7ff" stroke-width="2.2" x1="983.32" x2="1094.68" y1="222.64" y2="222.64" /><line stroke="#66a7ff" stroke-width="2.2" x1="1200.16" x2="1200.16" y1="874.12" y2="985.48" /><line stroke="#66a7ff" stroke-width="2.2" x1="1205.44" x2="1205.44" y1="874.12" y2="985.48" /><line stroke="#66a7ff" stroke-width="2.2" x1="377.284" x2="525.724" y1="1200.16" y2="1200.16" /><line stroke="#66a7ff" stroke-width="2.2" x1="377.284" x2="525.724" y1="1205.44" y2="1205.44" /><line stroke="#66a7ff" stroke-width="2.2" x1="569.476" x2="717.916" y1="1200.16" y2="1200.16" /><line stroke="#66a7ff" stroke-width="2.2" x1="569.476" x2="717.916" y1="1205.44" y2="1205.44" /><line stroke="#9a9a9a" stroke-width="0.8" x1="665.2" x2="757.6" y1="610.6" y2="610.6" /><line stroke="#9a9a9a" stroke-width="0.8" x1="665.2" x2="665.2" y1="607.24" y2="613.96" /><line stroke="#9a9a9a" stroke-width="0.8" x1="757.6" x2="757.6" y1="607.24" y2="613.96" /><text fill="#8a8a8a" font-size="7.6" text-anchor="start" x="671.92" y="607.96">910mm</text><line stroke="#9a9a9a" stroke-width="0.8" x1="665.2" x2="665.2" y1="610.6" y2="866.8" /><line stroke="#9a9a9a" stroke-width="0.8" x1="661.84" x2="668.56" y1="610.6" y2="610.6" /><line stroke="#9a9a9a" stroke-width="0.8" x1="661.84" x2="668.56" y1="866.8" y2="866.8" /><text fill="#8a8a8a" font-size="7.6" text-anchor="start" x="669.28" y="618.28">2275mm</text><line stroke="#9a9a9a" stroke-width="0.8" x1="719.8" x2="866.8" y1="228.4" y2="228.4" /><line stroke="#9a9a9a" stroke-width="0.8" x1="719.8" x2="719.8" y1="225.04" y2="231.76" /><line stroke="#9a9a9a" stroke-width="0.8" x1="866.8" x2="866.8" y1="225.04" y2="231.76" /><text fill="#8a8a8a" font-size="7.6" text-anchor="start" x="726.52" y="225.76">1365mm</text><line stroke="#9a9a9a" stroke-width="0.8" x1="719.8" x2="719.8" y1="228.4" y2="593.8" /><line stroke="#9a9a9a" stroke-width="0.8" x1="716.44" x2="723.16" y1="228.4" y2="228.4" /><line stroke="#9a9a9a" stroke-width="0.8" x1="716.44" x2="723.16" y1="593.8" y2="593.8" /><text fill="#8a8a8a" font-size="7.6" text-anchor="start" x="723.88" y="236.07999999999998">3185mm</text><line stroke="#9a9a9a" stroke-width="0.8" x1="774.4" x2="866.8" y1="610.6" y2="610.6" /><line stroke="#9a9a9a" stroke-width="0.8" x1="774.4" x2="774.4" y1="607.24" y2="613.96" /><line stroke="#9a9a9a" stroke-width="0.8" x1="866.8" x2="866.8" y1="607.24" y2="613.96" /><text fill="#8a8a8a" font-size="7.6" text-anchor="start" x="781.12" y="607.96">910mm</text><line stroke="#9a9a9a" stroke-width="0.8" x1="774.4" x2="774.4" y1="610.6" y2="757.6" /><line stroke="#9a9a9a" stroke-width="0.8" x1="771.04" x2="777.76" y1="610.6" y2="610.6" /><line stroke="#9a9a9a" stroke-width="0.8" x1="771.04" x2="777.76" y1="757.6" y2="757.6" /><text fill="#8a8a8a" font-size="7.6" text-anchor="start" x="778.48" y="618.28">1365mm</text><text fill="#1b1b1b" font-size="10" text-anchor="middle" x="1039.0" y="478.59999999999997">Bedroom 2</text><text fill="#1b1b1b" font-size="10" text-anchor="middle" x="1039.0" y="489.4">2730x4550mm</text><text fill="#1b1b1b" font-size="10" text-anchor="middle" x="1039.0" y="500.2">12.4sqm / 7.7jo</text><text fill="#1b1b1b" font-size="10" text-anchor="middle" x="984.4" y="970.0">Bedroom 3</text><text fill="#1b1b1b" font-size="10" text-anchor="middle" x="984.4" y="980.8">3640x3640mm</text><text fill="#1b1b1b" font-size="10" text-anchor="middle" x="984.4" y="991.6">13.2sqm / 8.2jo</text><text fill="#1b1b1b" font-size="10" text-anchor="middle" x="493.0" y="1024.6">Bedroom 4</text><text fill="#1b1b1b" font-size="10" text-anchor="middle" x="493.0" y="1035.4">4550x2730mm</text><text fill="#1b1b1b" font-size="10" text-anchor="middle" x="493.0" y="1046.1999999999998">12.4sqm / 7.7jo</text><text fill="#1b1b1b" font-size="9" text-anchor="middle" x="775.5918918918919" y="529.5108108108108">Hall 2</text><text fill="#1b1b1b" font-size="9" text-anchor="middle" x="775.5918918918919" y="540.3108108108108">7.7sqm / 4.7jo</text><text fill="#1b1b1b" font-size="10" text-anchor="middle" x="465.7" y="396.7">Master</text><text fill="#1b1b1b" font-size="10" text-anchor="middle" x="465.7" y="407.5">4095x3185mm</text><text fill="#1b1b1b" font-size="10" text-anchor="middle" x="465.7" y="418.29999999999995">13.0sqm / 8.1jo</text><text fill="#1b1b1b" font-size="10" text-anchor="middle" x="329.2" y="724.3">W.I.C</text><text fill="#1b1b1b" font-size="10" text-anchor="middle" x="329.2" y="735.1">to master</text><text fill="#1b1b1b" font-size="10" text-anchor="middle" x="329.2" y="745.9">1820x2275mm</text><text fill="#1b1b1b" font-size="10" text-anchor="middle" x="329.2" y="756.6999999999999">4.1sqm / 2.6jo</text><text fill="#4a4a4a" font-size="10" text-anchor="middle" x="1039.0" y="711.4">CL</text><text fill="#4a4a4a" font-size="10" text-anchor="middle" x="984.4" y="1148.1999999999998">CL</text><text fill="#4a4a4a" font-size="10" text-anchor="middle" x="274.6" y="1039.0">CL</text><text fill="#111111" font-size="14" x="220.0" y="180.0">F2 Plan  (8190 x 8190 mm)</text><text fill="#444444" font-size="10" x="220.0" y="198.0">Scale: 1px=8.3mm</text><rect fill="#ffffff" height="144" stroke="#777777" stroke-width="1" width="170" x="1290.8" y="150.0" /><text fill="#111111" font-size="11" x="1298.8" y="164.0">Legend</text><rect fill="#efe9ff" height="12" stroke="#333333" stroke-width="1" width="12" x="1298.8" y="174.0" /><text fill="#222222" font-size="10" x="1316.8" y="184.0">Hall</text><rect fill="#c5e8ff" height="12" stroke="#333333" stroke-width="1" width="12" x="1298.8" y="192.0" /><text fill="#222222" font-size="10" x="1316.8" y="202.0">Master Bedroom</text><rect fill="#d9f2ff" height="12" stroke="#333333" stroke-width="1" width="12" x="1298.8" y="210.0" /><text fill="#222222" font-size="10" x="1316.8" y="220.0">Bedroom</text><rect fill="#f7f3ea" height="12" stroke="#333333" stroke-width="1" width="12" x="1298.8" y="228.0" /><text fill="#222222" font-size="10" x="1316.8" y="238.0">Closet</text><rect fill="#ece7dd" height="12" stroke="#333333" stroke-width="1" width="12" x="1298.8" y="246.0" /><text fill="#222222" font-size="10" x="1316.8" y="256.0">Wic</text><line stroke="#6aa4ff" stroke-width="4" x1="1298.8" x2="1325.8" y1="276.0" y2="276.0" /><text fill="#222222" font-size="10" x="1332.8" y="279.0">Window</text><line stroke="#666666" stroke-width="2.4" x1="1298.8" x2="1325.8" y1="292.0" y2="292.0" /><path d="M 1298.8,292.0 A 10,10 0 0 1 1308.8,282.0" fill="none" stroke="#666666" stroke-width="1.2" /><text fill="#222222" font-size="10" x="1332.8" y="295.0">Door</text><rect fill="#ffffff" height="84" stroke="#777777" stroke-width="1" width="200" x="1290.8" y="520.0" /><text fill="#111111" font-size="10" x="1298.8" y="533.0">Area (F2)</text><text fill="#222222" font-size="9" x="1298.8" y="550.0">F1: in 67.1 sqm (20.3 tsubo), out 0.0 sqm (0.0 tsubo)</text><text fill="#222222" font-size="9" x="1298.8" y="566.0">F2: in 67.1 sqm (20.3 tsubo), out 0.0 sqm (0.0 tsubo)</text><text fill="#222222" font-size="9" x="1298.8" y="582.0">Total indoor: 134.2 sqm (40.6 tsubo)</text><text fill="#222222" font-size="9" x="1298.8" y="598.0">Total outdoor: 0.0 sqm (0.0 tsubo)</text><line stroke="#111111" stroke-width="2" x1="175.0" x2="175.0" y1="238.0" y2="208.0" /><polygon fill="#111111" points="175.0,208.0 181.0,214.0 169.0,214.0" /><text fill="#111111" font-size="12" x="170.0" y="202.0">N</text><line stroke="#545454" stroke-width="1.0" x1="220.0" x2="1202.8" y1="148.0" y2="148.0" /><line stroke="#545454" stroke-width="0.8" x1="220.0" x2="220.0" y1="220.0" y2="148.0" /><line stroke="#545454" stroke-width="1.0" x1="220.0" x2="220.0" y1="145.0" y2="151.0" /><line stroke="#545454" stroke-width="0.8" x1="1202.8" x2="1202.8" y1="220.0" y2="148.0" /><line stroke="#545454" stroke-width="1.0" x1="1202.8" x2="1202.8" y1="145.0" y2="151.0" /><text fill="#545454" font-size="8.8" text-anchor="middle" x="711.4" y="145.0">8190mm</text><line stroke="#666666" stroke-width="1.0" x1="220.0" x2="1202.8" y1="166.0" y2="166.0" /><line stroke="#666666" stroke-width="0.8" x1="220.0" x2="220.0" y1="220.0" y2="166.0" /><line stroke="#666666" stroke-width="1.0" x1="220.0" x2="220.0" y1="163.0" y2="169.0" /><line stroke="#666666" stroke-width="0.8" x1="711.4" x2="711.4" y1="220.0" y2="166.0" /><line stroke="#666666" stroke-width="1.0" x1="711.4" x2="711.4" y1="163.0" y2="169.0" /><line stroke="#666666" stroke-width="0.8" x1="875.2" x2="875.2" y1="220.0" y2="166.0" /><line stroke="#666666" stroke-width="1.0" x1="875.2" x2="875.2" y1="163.0" y2="169.0" /><line stroke="#666666" stroke-width="0.8" x1="1202.8" x2="1202.8" y1="220.0" y2="166.0" /><line stroke="#666666" stroke-width="1.0" x1="1202.8" x2="1202.8" y1="163.0" y2="169.0" /><text fill="#666666" font-size="8.2" text-anchor="middle" x="465.7" y="163.0">4095</text><text fill="#666666" font-size="8.2" text-anchor="middle" x="793.3" y="163.0">1365</text><text fill="#666666" font-size="8.2" text-anchor="middle" x="1039.0" y="163.0">2730</text><line stroke="#7a7a7a" stroke-width="1.0" x1="220.0" x2="1202.8" y1="184.0" y2="184.0" /><line stroke="#7a7a7a" stroke-width="0.8" x1="220.0" x2="220.0" y1="220.0" y2="184.0" /><line stroke="#7a7a7a" stroke-width="1.0" x1="220.0" x2="220.0" y1="181.0" y2="187.0" /><line stroke="#7a7a7a" stroke-width="0.8" x1="274.6" x2="274.6" y1="220.0" y2="184.0" /><line stroke="#7a7a7a" stroke-width="1.0" x1="274.6" x2="274.6" y1="181.0" y2="187.0" /><line stroke="#7a7a7a" stroke-width="0.8" x1="438.4" x2="438.4" y1="220.0" y2="184.0" /><line stroke="#7a7a7a" stroke-width="1.0" x1="438.4" x2="438.4" y1="181.0" y2="187.0" /><line stroke="#7a7a7a" stroke-width="0.8" x1="493.0" x2="493.0" y1="220.0" y2="184.0" /><line stroke="#7a7a7a" stroke-width="1.0" x1="493.0" x2="493.0" y1="181.0" y2="187.0" /><line stroke="#7a7a7a" stroke-width="0.8" x1="656.8" x2="656.8" y1="220.0" y2="184.0" /><line stroke="#7a7a7a" stroke-width="1.0" x1="656.8" x2="656.8" y1="181.0" y2="187.0" /><line stroke="#7a7a7a" stroke-width="0.8" x1="984.4" x2="984.4" y1="220.0" y2="184.0" /><line stroke="#7a7a7a" stroke-width="1.0" x1="984.4" x2="984.4" y1="181.0" y2="187.0" /><line stroke="#7a7a7a" stroke-width="0.8" x1="1093.6" x2="1093.6" y1="220.0" y2="184.0" /><line stroke="#7a7a7a" stroke-width="1.0" x1="1093.6" x2="1093.6" y1="181.0" y2="187.0" /><line stroke="#7a7a7a" stroke-width="0.8" x1="1202.8" x2="1202.8" y1="220.0" y2="184.0" /><line stroke="#7a7a7a" stroke-width="1.0" x1="1202.8" x2="1202.8" y1="181.0" y2="187.0" /><text fill="#7a7a7a" font-size="7.8" text-anchor="middle" x="356.5" y="181.0">1365</text><text fill="#7a7a7a" font-size="7.8" text-anchor="middle" x="574.9" y="181.0">1365</text><text fill="#7a7a7a" font-size="7.8" text-anchor="middle" x="820.6" y="181.0">2730</text><text fill="#7a7a7a" font-size="7.8" text-anchor="middle" x="1039.0" y="181.0">910</text><text fill="#7a7a7a" font-size="7.8" text-anchor="middle" x="1148.1999999999998" y="181.0">910</text><line stroke="#545454" stroke-width="1.0" x1="220.0" x2="1202.8" y1="1274.8" y2="1274.8" /><line stroke="#545454" stroke-width="0.8" x1="220.0" x2="220.0" y1="1202.8" y2="1274.8" /><line stroke="#545454" stroke-width="1.0" x1="220.0" x2="220.0" y1="1271.8" y2="1277.8" /><line stroke="#545454" stroke-width="0.8" x1="1202.8" x2="1202.8" y1="1202.8" y2="1274.8" /><line stroke="#545454" stroke-width="1.0" x1="1202.8" x2="1202.8" y1="1271.8" y2="1277.8" /><text fill="#545454" font-size="8.8" text-anchor="middle" x="711.4" y="1284.8">8190mm</text><line stroke="#666666" stroke-width="1.0" x1="220.0" x2="1202.8" y1="1256.8" y2="1256.8" /><line stroke="#666666" stroke-width="0.8" x1="220.0" x2="220.0" y1="1202.8" y2="1256.8" /><line stroke="#666666" stroke-width="1.0" x1="220.0" x2="220.0" y1="1253.8" y2="1259.8" /><line stroke="#666666" stroke-width="0.8" x1="766.0" x2="766.0" y1="1202.8" y2="1256.8" /><line stroke="#666666" stroke-width="1.0" x1="766.0" x2="766.0" y1="1253.8" y2="1259.8" /><line stroke="#666666" stroke-width="0.8" x1="1202.8" x2="1202.8" y1="1202.8" y2="1256.8" /><line stroke="#666666" stroke-width="1.0" x1="1202.8" x2="1202.8" y1="1253.8" y2="1259.8" /><text fill="#666666" font-size="8.2" text-anchor="middle" x="493.0" y="1266.8">4550</text><text fill="#666666" font-size="8.2" text-anchor="middle" x="984.4" y="1266.8">3640</text><line stroke="#7a7a7a" stroke-width="1.0" x1="220.0" x2="1202.8" y1="1238.8" y2="1238.8" /><line stroke="#7a7a7a" stroke-width="0.8" x1="220.0" x2="220.0" y1="1202.8" y2="1238.8" /><line stroke="#7a7a7a" stroke-width="1.0" x1="220.0" x2="220.0" y1="1235.8" y2="1241.8" /><line stroke="#7a7a7a" stroke-width="0.8" x1="383.8" x2="383.8" y1="1202.8" y2="1238.8" /><line stroke="#7a7a7a" stroke-width="1.0" x1="383.8" x2="383.8" y1="1235.8" y2="1241.8" /><line stroke="#7a7a7a" stroke-width="0.8" x1="547.6" x2="547.6" y1="1202.8" y2="1238.8" /><line stroke="#7a7a7a" stroke-width="1.0" x1="547.6" x2="547.6" y1="1235.8" y2="1241.8" /><line stroke="#7a7a7a" stroke-width="0.8" x1="711.4" x2="711.4" y1="1202.8" y2="1238.8" /><line stroke="#7a7a7a" stroke-width="1.0" x1="711.4" x2="711.4" y1="1235.8" y2="1241.8" /><line stroke="#7a7a7a" stroke-width="0.8" x1="1202.8" x2="1202.8" y1="1202.8" y2="1238.8" /><line stroke="#7a7a7a" stroke-width="1.0" x1="1202.8" x2="1202.8" y1="1235.8" y2="1241.8" /><text fill="#7a7a7a" font-size="7.8" text-anchor="middle" x="301.9" y="1248.8">1365</text><text fill="#7a7a7a" font-size="7.8" text-anchor="middle" x="465.7" y="1248.8">1365</text><text fill="#7a7a7a" font-size="7.8" text-anchor="middle" x="629.5" y="1248.8">1365</text><text fill="#7a7a7a" font-size="7.8" text-anchor="middle" x="957.1" y="1248.8">4095</text><line stroke="#545454" stroke-width="1.0" x1="148.0" x2="148.0" y1="220.0" y2="1202.8" /><line stroke="#545454" stroke-width="0.8" x1="220.0" x2="148.0" y1="220.0" y2="220.0" /><line stroke="#545454" stroke-width="1.0" x1="145.0" x2="151.0" y1="220.0" y2="220.0" /><line stroke="#545454" stroke-width="0.8" x1="220.0" x2="148.0" y1="1202.8" y2="1202.8" /><line stroke="#545454" stroke-width="1.0" x1="145.0" x2="151.0" y1="1202.8" y2="1202.8" /><text fill="#545454" font-size="8.8" x="144.0" y="711.4">8190mm</text><line stroke="#666666" stroke-width="1.0" x1="166.0" x2="166.0" y1="220.0" y2="1202.8" /><line stroke="#666666" stroke-width="0.8" x1="220.0" x2="166.0" y1="220.0" y2="220.0" /><line stroke="#666666" stroke-width="1.0" x1="163.0" x2="169.0" y1="220.0" y2="220.0" /><line stroke="#666666" stroke-width="0.8" x1="220.0" x2="166.0" y1="602.2" y2="602.2" /><line stroke="#666666" stroke-width="1.0" x1="163.0" x2="169.0" y1="602.2" y2="602.2" /><line stroke="#666666" stroke-width="0.8" x1="220.0" x2="166.0" y1="875.2" y2="875.2" /><line stroke="#666666" stroke-width="1.0" x1="163.0" x2="169.0" y1="875.2" y2="875.2" /><line stroke="#666666" stroke-width="0.8" x1="220.0" x2="166.0" y1="1202.8" y2="1202.8" /><line stroke="#666666" stroke-width="1.0" x1="163.0" x2="169.0" y1="1202.8" y2="1202.8" /><text fill="#666666" font-size="8.2" x="162.0" y="411.1">3185</text><text fill="#666666" font-size="8.2" x="162.0" y="738.6999999999999">2275</text><text fill="#666666" font-size="8.2" x="162.0" y="1039.0">2730</text><line stroke="#7a7a7a" stroke-width="1.0" x1="184.0" x2="184.0" y1="220.0" y2="1202.8" /><line stroke="#7a7a7a" stroke-width="0.8" x1="220.0" x2="184.0" y1="220.0" y2="220.0" /><line stroke="#7a7a7a" stroke-width="1.0" x1="181.0" x2="187.0" y1="220.0" y2="220.0" /><line stroke="#7a7a7a" stroke-width="0.8" x1="220.0" x2="184.0" y1="329.2" y2="329.2" /><line stroke="#7a7a7a" stroke-width="1.0" x1="181.0" x2="187.0" y1="329.2" y2="329.2" /><line stroke="#7a7a7a" stroke-width="0.8" x1="220.0" x2="184.0" y1="493.0" y2="493.0" /><line stroke="#7a7a7a" stroke-width="1.0" x1="181.0" x2="187.0" y1="493.0" y2="493.0" /><line stroke="#7a7a7a" stroke-width="0.8" x1="220.0" x2="184.0" y1="1202.8" y2="1202.8" /><line stroke="#7a7a7a" stroke-width="1.0" x1="181.0" x2="187.0" y1="1202.8" y2="1202.8" /><text fill="#7a7a7a" font-size="7.8" x="180.0" y="274.6">910</text><text fill="#7a7a7a" font-size="7.8" x="180.0" y="411.1">1365</text><text fill="#7a7a7a" font-size="7.8" x="180.0" y="847.9">5915</text><line stroke="#545454" stroke-width="1.0" x1="1274.8" x2="1274.8" y1="220.0" y2="1202.8" /><line stroke="#545454" stroke-width="0.8" x1="1202.8" x2="1274.8" y1="220.0" y2="220.0" /><line stroke="#545454" stroke-width="1.0" x1="1271.8" x2="1277.8" y1="220.0" y2="220.0" /><line stroke="#545454" stroke-width="0.8" x1="1202.8" x2="1274.8" y1="1202.8" y2="1202.8" /><line stroke="#545454" stroke-width="1.0" x1="1271.8" x2="1277.8" y1="1202.8" y2="1202.8" /><text fill="#545454" font-size="8.8" x="1279.8" y="711.4">8190mm</text><line stroke="#666666" stroke-width="1.0" x1="1256.8" x2="1256.8" y1="220.0" y2="1202.8" /><line stroke="#666666" stroke-width="0.8" x1="1202.8" x2="1256.8" y1="220.0" y2="220.0" /><line stroke="#666666" stroke-width="1.0" x1="1253.8" x2="1259.8" y1="220.0" y2="220.0" /><line stroke="#666666" stroke-width="0.8" x1="1202.8" x2="1256.8" y1="766.0" y2="766.0" /><line stroke="#666666" stroke-width="1.0" x1="1253.8" x2="1259.8" y1="766.0" y2="766.0" /><line stroke="#666666" stroke-width="0.8" x1="1202.8" x2="1256.8" y1="1202.8" y2="1202.8" /><line stroke="#666666" stroke-width="1.0" x1="1253.8" x2="1259.8" y1="1202.8" y2="1202.8" /><text fill="#666666" font-size="8.2" x="1261.8" y="493.0">4550</text><text fill="#666666" font-size="8.2" x="1261.8" y="984.4">3640</text><line stroke="#7a7a7a" stroke-width="1.0" x1="1238.8" x2="1238.8" y1="220.0" y2="1202.8" /><line stroke="#7a7a7a" stroke-width="0.8" x1="1202.8" x2="1238.8" y1="220.0" y2="220.0" /><line stroke="#7a7a7a" stroke-width="1.0" x1="1235.8" x2="1241.8" y1="220.0" y2="220.0" /><line stroke="#7a7a7a" stroke-width="0.8" x1="1202.8" x2="1238.8" y1="274.6" y2="274.6" /><line stroke="#7a7a7a" stroke-width="1.0" x1="1235.8" x2="1241.8" y1="274.6" y2="274.6" /><line stroke="#7a7a7a" stroke-width="0.8" x1="1202.8" x2="1238.8" y1="438.4" y2="438.4" /><line stroke="#7a7a7a" stroke-width="1.0" x1="1235.8" x2="1241.8" y1="438.4" y2="438.4" /><line stroke="#7a7a7a" stroke-width="0.8" x1="1202.8" x2="1238.8" y1="602.2" y2="602.2" /><line stroke="#7a7a7a" stroke-width="1.0" x1="1235.8" x2="1241.8" y1="602.2" y2="602.2" /><line stroke="#7a7a7a" stroke-width="0.8" x1="1202.8" x2="1238.8" y1="875.2" y2="875.2" /><line stroke="#7a7a7a" stroke-width="1.0" x1="1235.8" x2="1241.8" y1="875.2" y2="875.2" /><line stroke="#7a7a7a" stroke-width="0.8" x1="1202.8" x2="1238.8" y1="984.4" y2="984.4" /><line stroke="#7a7a7a" stroke-width="1.0" x1="1235.8" x2="1241.8" y1="984.4" y2="984.4" /><line stroke="#7a7a7a" stroke-width="0.8" x1="1202.8" x2="1238.8" y1="1202.8" y2="1202.8" /><line stroke="#7a7a7a" stroke-width="1.0" x1="1235.8" x2="1241.8" y1="1202.8" y2="1202.8" /><text fill="#7a7a7a" font-size="7.8" x="1243.8" y="356.5">1365</text><text fill="#7a7a7a" font-size="7.8" x="1243.8" y="520.3">1365</text><text fill="#7a7a7a" font-size="7.8" x="1243.8" y="738.6999999999999">2275</text><text fill="#7a7a7a" font-size="7.8" x="1243.8" y="929.8">910</text><text fill="#7a7a7a" font-size="7.8" x="1243.8" y="1093.6">1820</text></svg>