<?xml version="1.0" encoding="utf-8" ?>
<svg baseProfile="tiny" height="1422.8px" version="1.2" width="1422.8px" xmlns="http://www.w3.org/2000/svg" xmlns:ev="http://www.w3.org/2001/xml-events" xmlns:xlink="http://www.w3.org/1999/xlink"><defs /><rect fill="#fafafa" height="1422.8" width="1422.8" x="0" y="0" /><line stroke="#ececec" stroke-width="0.7" x1="220.0" x2="220.0" y1="220.0" y2="1202.8" /><line stroke="#ececec" stroke-width="0.7" x1="274.6" x2="274.6" y1="220.0" y2="1202.8" /><line stroke="#ececec" stroke-width="0.7" x1="329.2" x2="329.2" y1="220.0" y2="1202.8" /><line stroke="#ececec" stroke-width="0.7" x1="383.8" x2="383.8" y1="220.0" y2="1202.8" /><line stroke="#ececec" stroke-width="0.7" x1="438.4" x2="438.4" y1="220.0" y2="1202.8" /><line stroke="#ececec" stroke-width="0.7" x1="493.0" x2="493.0" y1="220.0" y2="1202.8" /><line stroke="#ececec" stroke-width="0.7" x1="547.6" x2="547.6" y1="220.0" y2="1202.8" /><line stroke="#ececec" stroke-width="0.7" x1="602.2" x2="602.2" y1="220.0" y2="1202.8" /><line stroke="#ececec" stroke-width="0.7" x1="656.8" x2="656.8" y1="220.0" y2="1202.8" /><line stroke="#ececec" stroke-width="0.7" x1="711.4" x2="711.4" y1="220.0" y2="1202.8" /><line stroke="#ececec" stroke-width="0.7" x1="766.0" x2="766.0" y1="220.0" y2="1202.8" /><line stroke="#ececec" stroke-width="0.7" x1="820.6" x2="820.6" y1="220.0" y2="1202.8" /><line stroke="#ececec" stroke-width="0.7" x1="875.2" x2="875.2" y1="220.0" y2="1202.8" /><line stroke="#ececec" stroke-width="0.7" x1="929.8" x2="929.8" y1="220.0" y2="1202.8" /><line stroke="#ececec" stroke-width="0.7" x1="984.4" x2="984.4" y1="220.0" y2="1202.8" /><line stroke="#ececec" stroke-width="0.7" x1="1039.0" x2="1039.0" y1="220.0" y2="1202.8" /><line stroke="#ececec" stroke-width="0.7" x1="1093.6" x2="1093.6" y1="220.0" y2="1202.8" /><line stroke="#ececec" stroke-width="0.7" x1="1148.2" x2="1148.2" y1="220.0" y2="1202.8" /><line stroke="#ececec" stroke-width="0.7" x1="1202.8" x2="1202.8" y1="220.0" y2="1202.8" /><line stroke="#d1d1d1" stroke-width="1.1" x1="220.0" x2="220.0" y1="220.0" y2="1202.8" /><line stroke="#d1d1d1" stroke-width="1.1" x1="329.2" x2="329.2" y1="220.0" y2="1202.8" /><line stroke="#d1d1d1" stroke-width="1.1" x1="438.4" x2="438.4" y1="220.0" y2="1202.8" /><line stroke="#d1d1d1" stroke-width="1.1" x1="547.6" x2="547.6" y1="220.0" y2="1202.8" /><line stroke="#d1d1d1" stroke-width="1.1" x1="656.8" x2="656.8" y1="220.0" y2="1202.8" /><line stroke="#d1d1d1" stroke-width="1.1" x1="766.0" x2="766.0" y1="220.0" y2="1202.8" /><line stroke="#d1d1d1" stroke-width="1.1" x1="875.2" x2="875.2" y1="220.0" y2="1202.8" /><line stroke="#d1d1d1" stroke-width="1.1" x1="984.4" x2="984.4" y1="220.0" y2="1202.8" /><line stroke="#d1d1d1" stroke-width="1.1" x1="1093.6" x2="1093.6" y1="220.0" y2="1202.8" /><line stroke="#d1d1d1" stroke-width="1.1" x1="1202.8" x2="1202.8" y1="220.0" y2="1202.8" /><line stroke="#d1d1d1" stroke-width="1.1" x1="220.0" x2="1202.8" y1="220.0" y2="220.0" /><line stroke="#d1d1d1" stroke-width="1.1" x1="220.0" x2="1202.8" y1="329.2" y2="329.2" /><line stroke="#d1d1d1" stroke-width="1.1" x1="220.0" x2="1202.8" y1="438.4" y2="438.4" /><line stroke="#d1d1d1" stroke-width="1.1" x1="220.0" x2="1202.8" y1="547.6" y2="547.6" /><line stroke="#d1d1d1" stroke-width="1.1" x1="220.0" x2="1202.8" y1="656.8" y2="656.8" /><line stroke="#d1d1d1" stroke-width="1.1" x1="220.0" x2="1202.8" y1="766.0" y2="766.0" /><line stroke="#d1d1d1" stroke-width="1.1" x1="220.0" x2="1202.8" y1="875.2" y2="875.2" /><line stroke="#d1d1d1" stroke-width="1.1" x1="220.0" x2="1202.8" y1="984.4" y2="984.4" /><line stroke="#d1d1d1" stroke-width="1.1" x1="220.0" x2="1202.8" y1="1093.6" y2="1093.6" /><line stroke="#d1d1d1" stroke-width="1.1" x1="220.0" x2="1202.8" y1="1202.8" y2="1202.8" /><line stroke="#ececec" stroke-width="0.7" x1="220.0" x2="1202.8" y1="220.0" y2="220.0" /><line stroke="#ececec" stroke-width="0.7" x1="220.0" x2="1202.8" y1="274.6" y2="274.6" /><line stroke="#ececec" stroke-width="0.7" x1="220.0" x2="1202.8" y1="329.2" y2="329.2" /><line stroke="#ececec" stroke-width="0.7" x1="220.0" x2="1202.8" y1="383.8" y2="383.8" /><line stroke="#ececec" stroke-width="0.7" x1="220.0" x2="1202.8" y1="438.4" y2="438.4" /><line stroke="#ececec" stroke-width="0.7" x1="220.0" x2="1202.8" y1="493.0" y2="493.0" /><line stroke="#ececec" stroke-width="0.7" x1="220.0" x2="1202.8" y1="547.6" y2="547.6" /><line stroke="#ececec" stroke-width="0.7" x1="220.0" x2="1202.8" y1="602.2" y2="602.2" /><line stroke="#ececec" stroke-width="0.7" x1="220.0" x2="1202.8" y1="656.8" y2="656.8" /><line stroke="#ececec" stroke-width="0.7" x1="220.0" x2="1202.8" y1="711.4" y2="711.4" /><line stroke="#ececec" stroke-width="0.7" x1="220.0" x2="1202.8" y1="766.0" y2="766.0" /><line stroke="#ececec" stroke-width="0.7" x1="220.0" x2="1202.8" y1="820.6" y2="820.6" /><line stroke="#ececec" stroke-width="0.7" x1="220.0" x2="1202.8" y1="875.2" y2="875.2" /><line stroke="#ececec" stroke-width="0.7" x1="220.0" x2="1202.8" y1="929.8" y2="929.8" /><line stroke="#ececec" stroke-width="0.7" x1="220.0" x2="1202.8" y1="984.4" y2="984.4" /><line stroke="#ececec" stroke-width="0.7" x1="220.0" x2="1202.8" y1="1039.0" y2="1039.0" /><line stroke="#ececec" stroke-width="0.7" x1="220.0" x2="1202.8" y1="1093.6" y2="1093.6" /><line stroke="#ececec" stroke-width="0.7" x1="220.0" x2="1202.8" y1="1148.2" y2="1148.2" /><line stroke="#ececec" stroke-width="0.7" x1="220.0" x2="1202.8" y1="1202.8" y2="1202.8" /><rect fill="none" height="982.8" stroke="#6a6a6a" stroke-dasharray="8,4" stroke-width="2" width="982.8" x="220.0" y="220.0" /><rect fill="none" height="982.8" stroke="#1f1f1f" stroke-width="3.5" width="982.8" x="220.0" y="220.0" /><text fill="#555555" font-size="10" x="222.0" y="160.0">Site Envelope = Building Footprint</text><rect fill="#d9f2ff" height="655.2" stroke="none" width="273.0" x="929.8" y="220.0" /><line stroke="#2f2f2f" stroke-width="2.2" x1="929.8" x2="1202.8" y1="220.0" y2="220.0" /><line stroke="#2f2f2f" stroke-width="2.2" x1="929.8" x2="1202.8" y1="875.2" y2="875.2" /><line stroke="#2f2f2f" stroke-width="2.2" x1="929.8" x2="929.8" y1="220.0" y2="875.2" /><line stroke="#2f2f2f" stroke-width="2.2" x1="1202.8" x2="1202.8" y1="220.0" y2="875.2" /><rect fill="#d9f2ff" height="327.6" stroke="none" width="546.0" x="656.8" y="875.2" /><line stroke="#2f2f2f" stroke-width="2.2" x1="656.8" x2="1202.8" y1="875.2" y2="875.2" /><line stroke="#2f2f2f" stroke-width="2.2" x1="656.8" x2="1202.8" y1="1202.8" y2="1202.8" /><line stroke="#2f2f2f" stroke-width="2.2" x1="656.8" x2="656.8" y1="875.2" y2="1202.8" /><line stroke="#2f2f2f" stroke-width="2.2" x1="1202.8" x2="1202.8" y1="875.2" y2="1202.8" /><rect fill="#d9f2ff" height="327.6" stroke="none" width="436.8" x="220.0" y="875.2" /><line stroke="#2f2f2f" stroke-width="2.2" x1="220.0" x2="656.8" y1="875.2" y2="875.2" /><line stroke="#2f2f2f" stroke-width="2.2" x1="220.0" x2="656.8" y1="1202.8" y2="1202.8" /><line stroke="#2f2f2f" stroke-width="2.2" x1="220.0" x2="220.0" y1="875.2" y2="1202.8" /><line stroke="#2f2f2f" stroke-width="2.2" x1="656.8" x2="656.8" y1="875.2" y2="1202.8" /><rect fill="#efe9ff" height="163.8" stroke="none" width="109.2" x="820.6" y="711.4" /><rect fill="#efe9ff" height="273.0" stroke="none" width="163.8" x="766.0" y="438.4" /><rect fill="#efe9ff" height="163.8" stroke="none" width="273.0" x="547.6" y="711.4" /><line stroke="#2f2f2f" stroke-width="2.2" x1="766.0" x2="929.8" y1="438.4" y2="438.4" /><line stroke="#2f2f2f" stroke-width="2.2" x1="547.6" x2="929.8" y1="875.2" y2="875.2" /><line stroke="#2f2f2f" stroke-width="2.2" x1="547.6" x2="766.0" y1="711.4" y2="711.4" /><line stroke="#2f2f2f" stroke-width="2.2" x1="929.8" x2="929.8" y1="438.4" y2="875.2" /><line stroke="#2f2f2f" stroke-width="2.2" x1="547.6" x2="547.6" y1="711.4" y2="875.2" /><line stroke="#2f2f2f" stroke-width="2.2" x1="766.0" x2="766.0" y1="438.4" y2="711.4" /><rect fill="#c5e8ff" height="655.2" stroke="none" width="327.6" x="220.0" y="220.0" /><line stroke="#2f2f2f" stroke-width="2.2" x1="220.0" x2="547.6" y1="875.2" y2="875.2" /><line stroke="#2f2f2f" stroke-width="2.2" x1="220.0" x2="547.6" y1="220.0" y2="220.0" /><line stroke="#2f2f2f" stroke-width="2.2" x1="220.0" x2="220.0" y1="220.0" y2="875.2" /><line stroke="#2f2f2f" stroke-width="2.2" x1="547.6" x2="547.6" y1="220.0" y2="875.2" /><rect fill="#f0f0f0" height="218.4" stroke="none" width="382.2" x="547.6" y="220.0" /><line stroke="#2f2f2f" stroke-width="2.2" x1="547.6" x2="929.8" y1="438.4" y2="438.4" /><line stroke="#2f2f2f" stroke-width="2.2" x1="547.6" x2="929.8" y1="220.0" y2="220.0" /><line stroke="#2f2f2f" stroke-width="2.2" x1="547.6" x2="547.6" y1="220.0" y2="438.4" /><line stroke="#2f2f2f" stroke-width="2.2" x1="929.8" x2="929.8" y1="220.0" y2="438.4" /><rect fill="none" height="163.8" stroke="#7f7f7f" stroke-width="1.1" width="183.456" x="292.072" y="337.936" /><line stroke="#7f7f7f" stroke-width="0.9" x1="292.072" x2="475.528" y1="395.266" y2="395.266" /><rect fill="none" height="163.8" stroke="#7f7f7f" stroke-width="1.1" width="152.88" x="989.86" y="337.936" /><line stroke="#7f7f7f" stroke-width="0.9" x1="989.86" x2="1142.74" y1="395.266" y2="395.266" /><rect fill="none" height="111.384" stroke="#7f7f7f" stroke-width="1.1" width="218.4" x="820.6" y="934.168" /><line stroke="#7f7f7f" stroke-width="0.9" x1="820.6" x2="1039.0" y1="973.1524" y2="973.1524" /><rect fill="none" height="111.384" stroke="#7f7f7f" stroke-width="1.1" width="218.4" x="329.2" y="934.168" /><line stroke="#7f7f7f" stroke-width="0.9" x1="329.2" x2="547.6" y1="973.1524" y2="973.1524" /><line stroke="#9a9a9a" stroke-width="0.9" x1="593.464" x2="883.936" y1="259.312" y2="259.312" /><line stroke="#9a9a9a" stroke-width="0.9" x1="593.464" x2="883.936" y1="399.088" y2="399.088" /><rect fill="#f4f4f4" height="163.8" stroke="#202020" stroke-dasharray="4,3" stroke-width="2.6" width="109.2" x="547.6" y="547.6" /><line stroke="#b8b8b8" stroke-width="0.9" x1="553.0" x2="651.4" y1="557.2" y2="557.2" /><line stroke="#b8b8b8" stroke-width="0.9" x1="553.0" x2="651.4" y1="576.4" y2="576.4" /><line stroke="#b8b8b8" stroke-width="0.9" x1="553.0" x2="651.4" y1="595.6" y2="595.6" /><line stroke="#b8b8b8" stroke-width="0.9" x1="553.0" x2="651.4" y1="614.8" y2="614.8" /><line stroke="#b8b8b8" stroke-width="0.9" x1="553.0" x2="651.4" y1="634.0" y2="634.0" /><line stroke="#b8b8b8" stroke-width="0.9" x1="553.0" x2="651.4" y1="653.2" y2="653.2" /><line stroke="#b8b8b8" stroke-width="0.9" x1="553.0" x2="651.4" y1="672.4" y2="672.4" /><line stroke="#b8b8b8" stroke-width="0.9" x1="553.0" x2="651.4" y1="691.6" y2="691.6" /><line stroke="#b8b8b8" stroke-width="0.9" x1="553.0" x2="651.4" y1="710.8" y2="710.8" /><rect fill="#f4f4f4" height="109.2" stroke="#202020" stroke-dasharray="4,3" stroke-width="2.6" width="218.4" x="547.6" y="438.4" /><line stroke="#b8b8b8" stroke-width="0.9" x1="553.0" x2="760.6" y1="448.0" y2="448.0" /><line stroke="#b8b8b8" stroke-width="0.9" x1="553.0" x2="760.6" y1="467.2" y2="467.2" /><line stroke="#b8b8b8" stroke-width="0.9" x1="553.0" x2="760.6" y1="486.4" y2="486.4" /><line stroke="#b8b8b8" stroke-width="0.9" x1="553.0" x2="760.6" y1="505.6" y2="505.6" /><line stroke="#b8b8b8" stroke-width="0.9" x1="553.0" x2="760.6" y1="524.8" y2="524.8" /><line stroke="#b8b8b8" stroke-width="0.9" x1="553.0" x2="760.6" y1="544.0" y2="544.0" /><rect fill="#ffffff" height="163.8" stroke="#202020" stroke-dasharray="8,4" stroke-width="2.6" width="109.2" x="656.8" y="547.6" /><text fill="#555555" font-size="9" text-anchor="middle" x="656.8" y="574.9">Open To Below</text><rect fill="none" height="273.0" stroke="#7e7e7e" stroke-dasharray="3,2" stroke-width="2.0" width="218.4" x="547.6" y="438.4" /><text fill="#666666" font-size="8.5" text-anchor="middle" x="656.8" y="452.79999999999995">Guardrail</text><line stroke="#2a2a2a" stroke-width="1.4" x1="669.904" x2="752.896" y1="571.0" y2="571.0" /><line stroke="#2a2a2a" stroke-width="1.4" x1="669.904" x2="752.896" y1="594.4" y2="594.4" /><line stroke="#2a2a2a" stroke-width="1.4" x1="669.904" x2="752.896" y1="617.8" y2="617.8" /><line stroke="#2a2a2a" stroke-width="1.4" x1="669.904" x2="752.896" y1="641.2" y2="641.2" /><line stroke="#2a2a2a" stroke-width="1.4" x1="669.904" x2="752.896" y1="664.6" y2="664.6" /><line stroke="#2a2a2a" stroke-width="1.4" x1="669.904" x2="752.896" y1="688.0" y2="688.0" /><text fill="#202020" font-size="11" text-anchor="middle" x="711.4" y="629.5">Stair (DN)</text><text fill="#3a3a3a" font-size="9.0" text-anchor="middle" x="711.4" y="643.9">13R/12T</text><text fill="#4a4a4a" font-size="7.8" text-anchor="middle" x="711.4" y="652.3">H2730 R210 T228</text><line stroke="#ffffff" stroke-width="7" x1="766.0" x2="766.0" y1="547.6" y2="711.4" /><line stroke="#5e5e5e" stroke-width="1.0" x1="766.0" x2="766.0" y1="547.6" y2="711.4" /><line stroke="#ffffff" stroke-width="6" x1="547.6" x2="547.6" y1="747.7" y2="838.9" /><line stroke="#595959" stroke-width="1.2" x1="547.6" x2="488.32" y1="747.7" y2="806.98" /><path d="M 547.5999999999999,806.98 A 59.28,59.28 0 0 1 488.32,806.98" fill="none" stroke="#7a7a7a" stroke-width="1.0" /><line stroke="#ffffff" stroke-width="6" x1="929.8" x2="929.8" y1="516.1" y2="633.7" /><line stroke="#595959" stroke-width="1.2" x1="929.8" x2="1006.24" y1="516.1" y2="592.54" /><path d="M 929.8,592.54 A 76.44,76.44 0 0 1 1006.24,592.54" fill="none" stroke="#7a7a7a" stroke-width="1.0" /><line stroke="#ffffff" stroke-width="6" x1="693.1" x2="784.3" y1="875.2" y2="875.2" /><line stroke="#ffffff" stroke-width="6" x1="556.6" x2="647.8" y1="875.2" y2="875.2" /><line stroke="#ffffff" stroke-width="6" x1="1007.5" x2="1125.1" y1="875.2" y2="875.2" /><line stroke="#ffffff" stroke-width="6" x1="656.8" x2="656.8" y1="980.2" y2="1097.8" /><line stroke="#595959" stroke-width="1.2" x1="656.8" x2="733.24" y1="980.2" y2="1056.64" /><path d="M 656.8,1056.6399999999999 A 76.44,76.44 0 0 1 733.24,1056.6399999999999" fill="none" stroke="#7a7a7a" stroke-width="1.0" /><line stroke="#ffffff" stroke-width="6" x1="547.6" x2="547.6" y1="280.06" y2="378.34" /><line stroke="#595959" stroke-width="1.2" x1="547.6" x2="483.718" y1="280.06" y2="343.942" /><path d="M 547.5999999999999,343.942 A 63.882,63.882 0 0 1 483.718,343.942" fill="none" stroke="#7a7a7a" stroke-width="1.0" /><line stroke="#66a7ff" stroke-width="2.2" x1="217.36" x2="217.36" y1="307.456" y2="499.456" /><line stroke="#66a7ff" stroke-width="2.2" x1="222.64" x2="222.64" y1="307.456" y2="499.456" /><line stroke="#66a7ff" stroke-width="2.2" x1="217.36" x2="217.36" y1="595.744" y2="787.744" /><line stroke="#66a7ff" stroke-width="2.2" x1="222.64" x2="222.64" y1="595.744" y2="787.744" /><line stroke="#66a7ff" stroke-width="2.2" x1="328.12" x2="439.48" y1="217.36" y2="217.36" /><line stroke="#66a7ff" stroke-width="2.2" x1="328.12" x2="439.48" y1="222.64" y2="222.64" /><line stroke="#66a7ff" stroke-width="2.2" x1="1200.16" x2="1200.16" y1="307.456" y2="499.456" /><line stroke="#66a7ff" stroke-width="2.2" x1="1205.44" x2="1205.44" y1="307.456" y2="499.456" /><line stroke="#66a7ff" stroke-width="2.2" x1="1200.16" x2="1200.16" y1="595.744" y2="787.744" /><line stroke="#66a7ff" stroke-width="2.2" x1="1205.44" x2="1205.44" y1="595.744" y2="787.744" /><line stroke="#66a7ff" stroke-width="2.2" x1="1011.7" x2="1120.9" y1="217.36" y2="217.36" /><line stroke="#66a7ff" stroke-width="2.2" x1="1011.7" x2="1120.9" y1="222.64" y2="222.64" /><line stroke="#66a7ff" stroke-width="2.2" x1="1200.16" x2="1200.16" y1="983.32" y2="1094.68" /><line stroke="#66a7ff" stroke-width="2.2" x1="1205.44" x2="1205.44" y1="983.32" y2="1094.68" /><line stroke="#66a7ff" stroke-width="2.2" x1="716.86" x2="902.5" y1="1200.16" y2="1200.16" /><line stroke="#66a7ff" stroke-width="2.2" x1="716.86" x2="902.5" y1="1205.44" y2="1205.44" /><line stroke="#66a7ff" stroke-width="2.2" x1="957.1" x2="1142.74" y1="1200.16" y2="1200.16" /><line stroke="#66a7ff" stroke-width="2.2" x1="957.1" x2="1142.74" y1="1205.44" y2="1205.44" /><line stroke="#66a7ff" stroke-width="2.2" x1="217.36" x2="217.36" y1="983.32" y2="1094.68" /><line stroke="#66a7ff" stroke-width="2.2" x1="222.64" x2="222.64" y1="983.32" y2="1094.68" /><line stroke="#66a7ff" stroke-width="2.2" x1="268.084" x2="416.524" y1="1200.16" y2="1200.16" /><line stroke="#66a7ff" stroke-width="2.2" x1="268.084" x2="416.524" y1="1205.44" y2="1205.44" /><line stroke="#66a7ff" stroke-width="2.2" x1="460.276" x2="608.716" y1="1200.16" y2="1200.16" /><line stroke="#66a7ff" stroke-width="2.2" x1="460.276" x2="608.716" y1="1205.44" y2="1205.44" /><line stroke="#9a9a9a" stroke-width="0.8" x1="829.0" x2="921.4" y1="719.8" y2="719.8" /><line stroke="#9a9a9a" stroke-width="0.8" x1="829.0" x2="829.0" y1="716.44" y2="723.16" /><line stroke="#9a9a9a" stroke-width="0.8" x1="921.4" x2="921.4" y1="716.44" y2="723.16" /><text fill="#8a8a8a" font-size="7.6" text-anchor="start" x="835.72" y="717.16">910mm</text><line stroke="#9a9a9a" stroke-width="0.8" x1="829.0" x2="829.0" y1="719.8" y2="866.8" /><line stroke="#9a9a9a" stroke-width="0.8" x1="825.64" x2="832.36" y1="719.8" y2="719.8" /><line stroke="#9a9a9a" stroke-width="0.8" x1="825.64" x2="832.36" y1="866.8" y2="866.8" /><text fill="#8a8a8a" font-size="7.6" text-anchor="start" x="833.0799999999999" y="727.48">1365mm</text><line stroke="#9a9a9a" stroke-width="0.8" x1="774.4" x2="921.4" y1="446.8" y2="446.8" /><line stroke="#9a9a9a" stroke-width="0.8" x1="774.4" x2="774.4" y1="443.44" y2="450.16" /><line stroke="#9a9a9a" stroke-width="0.8" x1="921.4" x2="921.4" y1="443.44" y2="450.16" /><text fill="#8a8a8a" font-size="7.6" text-anchor="start" x="781.12" y="444.15999999999997">1365mm</text><line stroke="#9a9a9a" stroke-width="0.8" x1="774.4" x2="774.4" y1="446.8" y2="703.0" /><line stroke="#9a9a9a" stroke-width="0.8" x1="771.04" x2="777.76" y1="446.8" y2="446.8" /><line stroke="#9a9a9a" stroke-width="0.8" x1="771.04" x2="777.76" y1="703.0" y2="703.0" /><text fill="#8a8a8a" font-size="7.6" text-anchor="start" x="778.48" y="454.48">2275mm</text><line stroke="#9a9a9a" stroke-width="0.8" x1="556.0" x2="812.2" y1="719.8" y2="719.8" /><line stroke="#9a9a9a" stroke-width="0.8" x1="556.0" x2="556.0" y1="716.44" y2="723.16" /><line stroke="#9a9a9a" stroke-width="0.8" x1="812.2" x2="812.2" y1="716.44" y2="723.16" /><text fill="#8a8a8a" font-size="7.6" text-anchor="start" x="562.72" y="717.16">2275mm</text><line stroke="#9a9a9a" stroke-width="0.8" x1="556.0" x2="556.0" y1="719.8" y2="866.8" /><line stroke="#9a9a9a" stroke-width="0.8" x1="552.64" x2="559.36" y1="719.8" y2="719.8" /><line stroke="#9a9a9a" stroke-width="0.8" x1="552.64" x2="559.36" y1="866.8" y2="866.8" /><text fill="#8a8a8a" font-size="7.6" text-anchor="start" x="560.0799999999999" y="727.48">1365mm</text><text fill="#1b1b1b" font-size="10" text-anchor="middle" x="1066.3" y="533.2">Bedroom 2</text><text fill="#1b1b1b" font-size="10" text-anchor="middle" x="1066.3" y="544.0">2275x5460mm</text><text fill="#1b1b1b" font-size="10" text-anchor="middle" x="1066.3" y="554.8">12.4sqm / 7.7jo</text><text fill="#1b1b1b" font-size="10" text-anchor="middle" x="929.8" y="1024.6">Bedroom 3</text><text fill="#1b1b1b" font-size="10" text-anchor="middle" x="929.8" y="1035.4">4550x2730mm</text><text fill="#1b1b1b" font-size="10" text-anchor="middle" x="929.8" y="1046.1999999999998">12.4sqm / 7.7jo</text><text fill="#1b1b1b" font-size="10" text-anchor="middle" x="438.4" y="1024.6">Bedroom 4</text><text fill="#1b1b1b" font-size="10" text-anchor="middle" x="438.4" y="1035.4">3640x2730mm</text><text fill="#1b1b1b" font-size="10" text-anchor="middle" x="438.4" y="1046.1999999999998">9.9sqm / 6.1jo</text><text fill="#1b1b1b" font-size="9" text-anchor="middle" x="784.2" y="687.9">Hall 2</text><text fill="#1b1b1b" font-size="9" text-anchor="middle" x="784.2" y="698.7">7.5sqm / 4.6jo</text><text fill="#1b1b1b" font-size="10" text-anchor="middle" x="383.79999999999995" y="533.2">Master</text><text fill="#1b1b1b" font-size="10" text-anchor="middle" x="383.79999999999995" y="544.0">2730x5460mm</text><text fill="#1b1b1b" font-size="10" text-anchor="middle" x="383.79999999999995" y="554.8">14.9sqm / 9.2jo</text><text fill="#1b1b1b" font-size="10" text-anchor="middle" x="738.6999999999999" y="314.8">Storage 2</text><text fill="#1b1b1b" font-size="10" text-anchor="middle" x="738.6999999999999" y="325.6">3185x1820mm</text><text fill="#1b1b1b" font-size="10" text-anchor="middle" x="738.6999999999999" y="336.4">5.8sqm / 3.6jo</text><text fill="#111111" font-size="14" x="220.0" y="180.0">F2 Plan  (8190 x 8190 mm)</text><text fill="#444444" font-size="10" x="220.0" y="198.0">Scale: 1px=8.3mm</text><rect fill="#ffffff" height="126" stroke="#777777" stroke-width="1" width="170" x="1290.8" y="150.0" /><text fill="#111111" font-size="11" x="1298.8" y="164.0">Legend</text><rect fill="#efe9ff" height="12" stroke="#333333" stroke-width="1" width="12" x="1298.8" y="174.0" /><text fill="#222222" font-size="10" x="1316.8" y="184.0">Hall</text><rect fill="#c5e8ff" height="12" stroke="#333333" stroke-width="1" width="12" x="1298.8" y="192.0" /><text fill="#222222" font-size="10" x="1316.8" y="202.0">Master Bedroom</text><rect fill="#d9f2ff" height="12" stroke="#333333" stroke-width="1" width="12" x="1298.8" y="210.0" /><text fill="#222222" font-size="10" x="1316.8" y="220.0">Bedroom</text><rect fill="#f0f0f0" height="12" stroke="#333333" stroke-width="1" width="12" x="1298.8" y="228.0" /><text fill="#222222" font-size="10" x="1316.8" y="238.0">Storage</text><line stroke="#6aa4ff" stroke-width="4" x1="1298.8" x2="1325.8" y1="258.0" y2="258.0" /><text fill="#222222" font-size="10" x="1332.8" y="261.0">Window</text><line stroke="#666666" stroke-width="2.4" x1="1298.8" x2="1325.8" y1="274.0" y2="274.0" /><path d="M 1298.8,274.0 A 10,10 0 0 1 1308.8,264.0" fill="none" stroke="#666666" stroke-width="1.2" /><text fill="#222222" font-size="10" x="1332.8" y="277.0">Door</text><rect fill="#ffffff" height="84" stroke="#777777" stroke-width="1" width="200" x="1290.8" y="520.0" /><text fill="#111111" font-size="10" x="1298.8" y="533.0">Area (F2)</text><text fill="#222222" font-size="9" x="1298.8" y="550.0">F1: in 67.1 sqm (20.3 tsubo), out 0.0 sqm (0.0 tsubo)</text><text fill="#222222" font-size="9" x="1298.8" y="566.0">F2: in 67.1 sqm (20.3 tsubo), out 0.0 sqm (0.0 tsubo)</text><text fill="#222222" font-size="9" x="1298.8" y="582.0">Total indoor: 134.2 sqm (40.6 tsubo)</text><text fill="#222222" font-size="9" x="1298.8" y="598.0">Total outdoor: 0.0 sqm (0.0 tsubo)</text><line stroke="#111111" stroke-width="2" x1="175.0" x2="175.0" y1="238.0" y2="208.0" /><polygon fill="#111111" points="175.0,208.0 181.0,214.0 169.0,214.0" /><text fill="#111111" font-size="12" x="170.0" y="202.0">N</text><line stroke="#545454" stroke-width="1.0" x1="220.0" x2="1202.8" y1="148.0" y2="148.0" /><line stroke="#545454" stroke-width="0.8" x1="220.0" x2="220.0" y1="220.0" y2="148.0" /><line stroke="#545454" stroke-width="1.0" x1="220.0" x2="220.0" y1="145.0" y2="151.0" /><line stroke="#545454" stroke-width="0.8" x1="1202.8" x2="1202.8" y1="220.0" y2="148.0" /><line stroke="#545454" stroke-width="1.0" x1="1202.8" x2="1202.8" y1="145.0" y2="151.0" /><text fill="#545454" font-size="8.8" text-anchor="middle" x="711.4" y="145.0">8190mm</text><line stroke="#666666" stroke-width="1.0" x1="220.0" x2="1202.8" y1="166.0" y2="166.0" /><line stroke="#666666" stroke-width="0.8" x1="220.0" x2="220.0" y1="220.0" y2="166.0" /><line stroke="#666666" stroke-width="1.0" x1="220.0" x2="220.0" y1="163.0" y2="169.0" /><line stroke="#666666" stroke-width="0.8" x1="547.6" x2="547.6" y1="220.0" y2="166.0" /><line stroke="#666666" stroke-width="1.0" x1="547.6" x2="547.6" y1="163.0" y2="169.0" /><line stroke="#666666" stroke-width="0.8" x1="929.8" x2="929.8" y1="220.0" y2="166.0" /><line stroke="#666666" stroke-width="1.0" x1="929.8" x2="929.8" y1="163.0" y2="169.0" /><line stroke="#666666" stroke-width="0.8" x1="1202.8" x2="1202.8" y1="220.0" y2="166.0" /><line stroke="#666666" stroke-width="1.0" x1="1202.8" x2="1202.8" y1="163.0" y2="169.0" /><text fill="#666666" font-size="8.2" text-anchor="middle" x="383.79999999999995" y="163.0">2730</text><text fill="#666666" font-size="8.2" text-anchor="middle" x="738.6999999999999" y="163.0">3185</text><text fill="#666666" font-size="8.2" text-anchor="middle" x="1066.3" y="163.0">2275</text><line stroke="#7a7a7a" stroke-width="1.0" x1="220.0" x2="1202.8" y1="184.0" y2="184.0" /><line stroke="#7a7a7a" stroke-width="0.8" x1="220.0" x2="220.0" y1="220.0" y2="184.0" /><line stroke="#7a7a7a" stroke-width="1.0" x1="220.0" x2="220.0" y1="181.0" y2="187.0" /><line stroke="#7a7a7a" stroke-width="0.8" x1="329.2" x2="329.2" y1="220.0" y2="184.0" /><line stroke="#7a7a7a" stroke-width="1.0" x1="329.2" x2="329.2" y1="181.0" y2="187.0" /><line stroke="#7a7a7a" stroke-width="0.8" x1="438.4" x2="438.4" y1="220.0" y2="184.0" /><line stroke="#7a7a7a" stroke-width="1.0" x1="438.4" x2="438.4" y1="181.0" y2="187.0" /><line stroke="#7a7a7a" stroke-width="0.8" x1="1039.0" x2="1039.0" y1="220.0" y2="184.0" /><line stroke="#7a7a7a" stroke-width="1.0" x1="1039.0" x2="1039.0" y1="181.0" y2="187.0" /><line stroke="#7a7a7a" stroke-width="0.8" x1="1148.2" x2="1148.2" y1="220.0" y2="184.0" /><line stroke="#7a7a7a" stroke-width="1.0" x1="1148.2" x2="1148.2" y1="181.0" y2="187.0" /><line stroke="#7a7a7a" stroke-width="0.8" x1="1202.8" x2="1202.8" y1="220.0" y2="184.0" /><line stroke="#7a7a7a" stroke-width="1.0" x1="1202.8" x2="1202.8" y1="181.0" y2="187.0" /><text fill="#7a7a7a" font-size="7.8" text-anchor="middle" x="274.6" y="181.0">910</text><text fill="#7a7a7a" font-size="7.8" text-anchor="middle" x="383.79999999999995" y="181.0">910</text><text fill="#7a7a7a" font-size="7.8" text-anchor="middle" x="738.6999999999999" y="181.0">5005</text><text fill="#7a7a7a" font-size="7.8" text-anchor="middle" x="1093.6" y="181.0">910</text><line stroke="#545454" stroke-width="1.0" x1="220.0" x2="1202.8" y1="1274.8" y2="1274.8" /><line stroke="#545454" stroke-width="0.8" x1="220.0" x2="220.0" y1="1202.8" y2="1274.8" /><line stroke="#545454" stroke-width="1.0" x1="220.0" x2="220.0" y1="1271.8" y2="1277.8" /><line stroke="#545454" stroke-width="0.8" x1="1202.8" x2="1202.8" y1="1202.8" y2="1274.8" /><line stroke="#545454" stroke-width="1.0" x1="1202.8" x2="1202.8" y1="1271.8" y2="1277.8" /><text fill="#545454" font-size="8.8" text-anchor="middle" x="711.4" y="1284.8">8190mm</text><line stroke="#666666" stroke-width="1.0" x1="220.0" x2="1202.8" y1="1256.8" y2="1256.8" /><line stroke="#666666" stroke-width="0.8" x1="220.0" x2="220.0" y1="1202.8" y2="1256.8" /><line stroke="#666666" stroke-width="1.0" x1="220.0" x2="220.0" y1="1253.8" y2="1259.8" /><line stroke="#666666" stroke-width="0.8" x1="656.8" x2="656.8" y1="1202.8" y2="1256.8" /><line stroke="#666666" stroke-width="1.0" x1="656.8" x2="656.8" y1="1253.8" y2="1259.8" /><line stroke="#666666" stroke-width="0.8" x1="1202.8" x2="1202.8" y1="1202.8" y2="1256.8" /><line stroke="#666666" stroke-width="1.0" x1="1202.8" x2="1202.8" y1="1253.8" y2="1259.8" /><text fill="#666666" font-size="8.2" text-anchor="middle" x="438.4" y="1266.8">3640</text><text fill="#666666" font-size="8.2" text-anchor="middle" x="929.8" y="1266.8">4550</text><line stroke="#7a7a7a" stroke-width="1.0" x1="220.0" x2="1202.8" y1="1238.8" y2="1238.8" /><line stroke="#7a7a7a" stroke-width="0.8" x1="220.0" x2="220.0" y1="1202.8" y2="1238.8" /><line stroke="#7a7a7a" stroke-width="1.0" x1="220.0" x2="220.0" y1="1235.8" y2="1241.8" /><line stroke="#7a7a7a" stroke-width="0.8" x1="274.6" x2="274.6" y1="1202.8" y2="1238.8" /><line stroke="#7a7a7a" stroke-width="1.0" x1="274.6" x2="274.6" y1="1235.8" y2="1241.8" /><line stroke="#7a7a7a" stroke-width="0.8" x1="438.4" x2="438.4" y1="1202.8" y2="1238.8" /><line stroke="#7a7a7a" stroke-width="1.0" x1="438.4" x2="438.4" y1="1235.8" y2="1241.8" /><line stroke="#7a7a7a" stroke-width="0.8" x1="602.2" x2="602.2" y1="1202.8" y2="1238.8" /><line stroke="#7a7a7a" stroke-width="1.0" x1="602.2" x2="602.2" y1="1235.8" y2="1241.8" /><line stroke="#7a7a7a" stroke-width="0.8" x1="711.4" x2="711.4" y1="1202.8" y2="1238.8" /><line stroke="#7a7a7a" stroke-width="1.0" x1="711.4" x2="711.4" y1="1235.8" y2="1241.8" /><line stroke="#7a7a7a" stroke-width="0.8" x1="929.8" x2="929.8" y1="1202.8" y2="1238.8" /><line stroke="#7a7a7a" stroke-width="1.0" x1="929.8" x2="929.8" y1="1235.8" y2="1241.8" /><line stroke="#7a7a7a" stroke-width="0.8" x1="1148.2" x2="1148.2" y1="1202.8" y2="1238.8" /><line stroke="#7a7a7a" stroke-width="1.0" x1="1148.2" x2="1148.2" y1="1235.8" y2="1241.8" /><line stroke="#7a7a7a" stroke-width="0.8" x1="1202.8" x2="1202.8" y1="1202.8" y2="1238.8" /><line stroke="#7a7a7a" stroke-width="1.0" x1="1202.8" x2="1202.8" y1="1235.8" y2="1241.8" /><text fill="#7a7a7a" font-size="7.8" text-anchor="middle" x="356.5" y="1248.8">1365</text><text fill="#7a7a7a" font-size="7.8" text-anchor="middle" x="520.3" y="1248.8">1365</text><text fill="#7a7a7a" font-size="7.8" text-anchor="middle" x="656.8" y="1248.8">910</text><text fill="#7a7a7a" font-size="7.8" text-anchor="middle" x="820.6" y="1248.8">1820</text><text fill="#7a7a7a" font-size="7.8" text-anchor="middle" x="1039.0" y="1248.8">1820</text><line stroke="#545454" stroke-width="1.0" x1="148.0" x2="148.0" y1="220.0" y2="1202.8" /><line stroke="#545454" stroke-width="0.8" x1="220.0" x2="148.0" y1="220.0" y2="220.0" /><line stroke="#545454" stroke-width="1.0" x1="145.0" x2="151.0" y1="220.0" y2="220.0" /><line stroke="#545454" stroke-width="0.8" x1="220.0" x2="148.0" y1="1202.8" y2="1202.8" /><line stroke="#545454" stroke-width="1.0" x1="145.0" x2="151.0" y1="1202.8" y2="1202.8" /><text fill="#545454" font-size="8.8" x="144.0" y="711.4">8190mm</text><line stroke="#666666" stroke-width="1.0" x1="166.0" x2="166.0" y1="220.0" y2="1202.8" /><line stroke="#666666" stroke-width="0.8" x1="220.0" x2="166.0" y1="220.0" y2="220.0" /><line stroke="#666666" stroke-width="1.0" x1="163.0" x2="169.0" y1="220.0" y2="220.0" /><line stroke="#666666" stroke-width="0.8" x1="220.0" x2="166.0" y1="875.2" y2="875.2" /><line stroke="#666666" stroke-width="1.0" x1="163.0" x2="169.0" y1="875.2" y2="875.2" /><line stroke="#666666" stroke-width="0.8" x1="220.0" x2="166.0" y1="1202.8" y2="1202.8" /><line stroke="#666666" stroke-width="1.0" x1="163.0" x2="169.0" y1="1202.8" y2="1202.8" /><text fill="#666666" font-size="8.2" x="162.0" y="547.5999999999999">5460</text><text fill="#666666" font-size="8.2" x="162.0" y="1039.0">2730</text><line stroke="#7a7a7a" stroke-width="1.0" x1="184.0" x2="184.0" y1="220.0" y2="1202.8" /><line stroke="#7a7a7a" stroke-width="0.8" x1="220.0" x2="184.0" y1="220.0" y2="220.0" /><line stroke="#7a7a7a" stroke-width="1.0" x1="181.0" x2="187.0" y1="220.0" y2="220.0" /><line stroke="#7a7a7a" stroke-width="0.8" x1="220.0" x2="184.0" y1="329.2" y2="329.2" /><line stroke="#7a7a7a" stroke-width="1.0" x1="181.0" x2="187.0" y1="329.2" y2="329.2" /><line stroke="#7a7a7a" stroke-width="0.8" x1="220.0" x2="184.0" y1="493.0" y2="493.0" /><line stroke="#7a7a7a" stroke-width="1.0" x1="181.0" x2="187.0" y1="493.0" y2="493.0" /><line stroke="#7a7a7a" stroke-width="0.8" x1="220.0" x2="184.0" y1="602.2" y2="602.2" /><line stroke="#7a7a7a" stroke-width="1.0" x1="181.0" x2="187.0" y1="602.2" y2="602.2" /><line stroke="#7a7a7a" stroke-width="0.8" x1="220.0" x2="184.0" y1="766.0" y2="766.0" /><line stroke="#7a7a7a" stroke-width="1.0" x1="181.0" x2="187.0" y1="766.0" y2="766.0" /><line stroke="#7a7a7a" stroke-width="0.8" x1="220.0" x2="184.0" y1="984.4" y2="984.4" /><line stroke="#7a7a7a" stroke-width="1.0" x1="181.0" x2="187.0" y1="984.4" y2="984.4" /><line stroke="#7a7a7a" stroke-width="0.8" x1="220.0" x2="184.0" y1="1093.6" y2="1093.6" /><line stroke="#7a7a7a" stroke-width="1.0" x1="181.0" x2="187.0" y1="1093.6" y2="1093.6" /><line stroke="#7a7a7a" stroke-width="0.8" x1="220.0" x2="184.0" y1="1202.8" y2="1202.8" /><line stroke="#7a7a7a" stroke-width="1.0" x1="181.0" x2="187.0" y1="1202.8" y2="1202.8" /><text fill="#7a7a7a" font-size="7.8" x="180.0" y="274.6">910</text><text fill="#7a7a7a" font-size="7.8" x="180.0" y="411.1">1365</text><text fill="#7a7a7a" font-size="7.8" x="180.0" y="547.5999999999999">910</text><text fill="#7a7a7a" font-size="7.8" x="180.0" y="684.0999999999999">1365</text><text fill="#7a7a7a" font-size="7.8" x="180.0" y="875.1999999999999">1820</text><text fill="#7a7a7a" font-size="7.8" x="180.0" y="1039.0">910</text><text fill="#7a7a7a" font-size="7.8" x="180.0" y="1148.1999999999998">910</text><line stroke="#545454" stroke-width="1.0" x1="1274.8" x2="1274.8" y1="220.0" y2="1202.8" /><line stroke="#545454" stroke-width="0.8" x1="1202.8" x2="1274.8" y1="220.0" y2="220.0" /><line stroke="#545454" stroke-width="1.0" x1="1271.8" x2="1277.8" y1="220.0" y2="220.0" /><line stroke="#545454" stroke-width="0.8" x1="1202.8" x2="1274.8" y1="1202.8" y2="1202.8" /><line stroke="#545454" stroke-width="1.0" x1="1271.8" x2="1277.8" y1="1202.8" y2="1202.8" /><text fill="#545454" font-size="8.8" x="1279.8" y="711.4">8190mm</text><line stroke="#666666" stroke-width="1.0" x1="1256.8" x2="1256.8" y1="220.0" y2="1202.8" /><line stroke="#666666" stroke-width="0.8" x1="1202.8" x2="1256.8" y1="220.0" y2="220.0" /><line stroke="#666666" stroke-width="1.0" x1="1253.8" x2="1259.8" y1="220.0" y2="220.0" /><line stroke="#666666" stroke-width="0.8" x1="1202.8" x2="1256.8" y1="875.2" y2="875.2" /><line stroke="#666666" stroke-width="1.0" x1="1253.8" x2="1259.8" y1="875.2" y2="875.2" /><line stroke="#666666" stroke-width="0.8" x1="1202.8" x2="1256.8" y1="1202.8" y2="1202.8" /><line stroke="#666666" stroke-width="1.0" x1="1253.8" x2="1259.8" y1="1202.8" y2="1202.8" /><text fill="#666666" font-size="8.2" x="1261.8" y="547.5999999999999">5460</text><text fill="#666666" font-size="8.2" x="1261.8" y="1039.0">2730</text><line stroke="#7a7a7a" stroke-width="1.0" x1="1238.8" x2="1238.8" y1="220.0" y2="1202.8" /><line stroke="#7a7a7a" stroke-width="0.8" x1="1202.8" x2="1238.8" y1="220.0" y2="220.0" /><line stroke="#7a7a7a" stroke-width="1.0" x1="1235.8" x2="1241.8" y1="220.0" y2="220.0" /><line stroke="#7a7a7a" stroke-width="0.8" x1="1202.8" x2="1238.8" y1="329.2" y2="329.2" /><line stroke="#7a7a7a" stroke-width="1.0" x1="1235.8" x2="1241.8" y1="329.2" y2="329.2" /><line stroke="#7a7a7a" stroke-width="0.8" x1="1202.8" x2="1238.8" y1="493.0" y2="493.0" /><line stroke="#7a7a7a" stroke-width="1.0" x1="1235.8" x2="1241.8" y1="493.0" y2="493.0" /><line stroke="#7a7a7a" stroke-width="0.8" x1="1202.8" x2="1238.8" y1="602.2" y2="602.2" /><line stroke="#7a7a7a" stroke-width="1.0" x1="1235.8" x2="1241.8" y1="602.2" y2="602.2" /><line stroke="#7a7a7a" stroke-width="0.8" x1="1202.8" x2="1238.8" y1="766.0" y2="766.0" /><line stroke="#7a7a7a" stroke-width="1.0" x1="1235.8" x2="1241.8" y1="766.0" y2="766.0" /><line stroke="#7a7a7a" stroke-width="0.8" x1="1202.8" x2="1238.8" y1="984.4" y2="984.4" /><line stroke="#7a7a7a" stroke-width="1.0" x1="1235.8" x2="1241.8" y1="984.4" y2="984.4" /><line stroke="#7a7a7a" stroke-width="0.8" x1="1202.8" x2="1238.8" y1="1093.6" y2="1093.6" /><line stroke="#7a7a7a" stroke-width="1.0" x1="1235.8" x2="1241.8" y1="1093.6" y2="1093.6" /><line stroke="#7a7a7a" stroke-width="0.8" x1="1202.8" x2="1238.8" y1="1202.8" y2="1202.8" /><line stroke="#7a7a7a" stroke-width="1.0" x1="1235.8" x2="1241.8" y1="1202.8" y2="1202.8" /><text fill="#7a7a7a" font-size="7.8" x="1243.8" y="274.6">910</text><text fill="#7a7a7a" font-size="7.8" x="1243.8" y="411.1">1365</text><text fill="#7a7a7a" font-size="7.8" x="1243.8" y="547.5999999999999">910</text><text fill="#7a7a7a" font-size="7.8" x="1243.8" y="684.0999999999999">1365</text><text fill="#7a7a7a" font-size="7.8" x="1243.8" y="875.1999999999999">1820</text><text fill="#7a7a7a" font-size="7.8" x="1243.8" y="1039.0">910</text><text fill="#7a7a7a" font-size="7.8" x="1243.8" y="1148.1999999999998">910</text></svg>