<?xml version="1.0" encoding="utf-8" ?>
<svg baseProfile="tiny" height="1422.8px" version="1.2" width="1422.8px" xmlns="http://www.w3.org/2000/svg" xmlns:ev="http://www.w3.org/2001/xml-events" xmlns:xlink="http://www.w3.org/1999/xlink"><defs /><rect fill="#fafafa" height="1422.8" width="1422.8" x="0" y="0" /><line stroke="#ececec" stroke-width="0.7" x1="220.0" x2="220.0" y1="220.0" y2="1202.8" /><line stroke="#ececec" stroke-width="0.7" x1="274.6" x2="274.6" y1="220.0" y2="1202.8" /><line stroke="#ececec" stroke-width="0.7" x1="329.2" x2="329.2" y1="220.0" y2="1202.8" /><line stroke="#ececec" stroke-width="0.7" x1="383.8" x2="383.8" y1="220.0" y2="1202.8" /><line stroke="#ececec" stroke-width="0.7" x1="438.4" x2="438.4" y1="220.0" y2="1202.8" /><line stroke="#ececec" stroke-width="0.7" x1="493.0" x2="493.0" y1="220.0" y2="1202.8" /><line stroke="#ececec" stroke-width="0.7" x1="547.6" x2="547.6" y1="220.0" y2="1202.8" /><line stroke="#ececec" stroke-width="0.7" x1="602.2" x2="602.2" y1="220.0" y2="1202.8" /><line stroke="#ececec" stroke-width="0.7" x1="656.8" x2="656.8" y1="220.0" y2="1202.8" /><line stroke="#ececec" stroke-width="0.7" x1="711.4" x2="711.4" y1="220.0" y2="1202.8" /><line stroke="#ececec" stroke-width="0.7" x1="766.0" x2="766.0" y1="220.0" y2="1202.8" /><line stroke="#ececec" stroke-width="0.7" x1="820.6" x2="820.6" y1="220.0" y2="1202.8" /><line stroke="#ececec" stroke-width="0.7" x1="875.2" x2="875.2" y1="220.0" y2="1202.8" /><line stroke="#ececec" stroke-width="0.7" x1="929.8" x2="929.8" y1="220.0" y2="1202.8" /><line stroke="#ececec" stroke-width="0.7" x1="984.4" x2="984.4" y1="220.0" y2="1202.8" /><line stroke="#ececec" stroke-width="0.7" x1="1039.0" x2="1039.0" y1="220.0" y2="1202.8" /><line stroke="#ececec" stroke-width="0.7" x1="1093.6" x2="1093.6" y1="220.0" y2="1202.8" /><line stroke="#ececec" stroke-width="0.7" x1="1148.2" x2="1148.2" y1="220.0" y2="1202.8" /><line stroke="#ececec" stroke-width="0.7" x1="1202.8" x2="1202.8" y1="220.0" y2="1202.8" /><line stroke="#d1d1d1" stroke-width="1.1" x1="220.0" x2="220.0" y1="220.0" y2="1202.8" /><line stroke="#d1d1d1" stroke-width="1.1" x1="329.2" x2="329.2" y1="220.0" y2="1202.8" /><line stroke="#d1d1d1" stroke-width="1.1" x1="438.4" x2="438.4" y1="220.0" y2="1202.8" /><line stroke="#d1d1d1" stroke-width="1.1" x1="547.6" x2="547.6" y1="220.0" y2="1202.8" /><line stroke="#d1d1d1" stroke-width="1.1" x1="656.8" x2="656.8" y1="220.0" y2="1202.8" /><line stroke="#d1d1d1" stroke-width="1.1" x1="766.0" x2="766.0" y1="220.0" y2="1202.8" /><line stroke="#d1d1d1" stroke-width="1.1" x1="875.2" x2="875.2" y1="220.0" y2="1202.8" /><line stroke="#d1d1d1" stroke-width="1.1" x1="984.4" x2="984.4" y1="220.0" y2="1202.8" /><line stroke="#d1d1d1" stroke-width="1.1" x1="1093.6" x2="1093.6" y1="220.0" y2="1202.8" /><line stroke="#d1d1d1" stroke-width="1.1" x1="1202.8" x2="1202.8" y1="220.0" y2="1202.8" /><line stroke="#d1d1d1" stroke-width="1.1" x1="220.0" x2="1202.8" y1="220.0" y2="220.0" /><line stroke="#d1d1d1" stroke-width="1.1" x1="220.0" x2="1202.8" y1="329.2" y2="329.2" /><line stroke="#d1d1d1" stroke-width="1.1" x1="220.0" x2="1202.8" y1="438.4" y2="438.4" /><line stroke="#d1d1d1" stroke-width="1.1" x1="220.0" x2="1202.8" y1="547.6" y2="547.6" /><line stroke="#d1d1d1" stroke-width="1.1" x1="220.0" x2="1202.8" y1="656.8" y2="656.8" /><line stroke="#d1d1d1" stroke-width="1.1" x1="220.0" x2="1202.8" y1="766.0" y2="766.0" /><line stroke="#d1d1d1" stroke-width="1.1" x1="220.0" x2="1202.8" y1="875.2" y2="875.2" /><line stroke="#d1d1d1" stroke-width="1.1" x1="220.0" x2="1202.8" y1="984.4" y2="984.4" /><line stroke="#d1d1d1" stroke-width="1.1" x1="220.0" x2="1202.8" y1="1093.6" y2="1093.6" /><line stroke="#d1d1d1" stroke-width="1.1" x1="220.0" x2="1202.8" y1="1202.8" y2="1202.8" /><line stroke="#ececec" stroke-width="0.7" x1="220.0" x2="1202.8" y1="220.0" y2="220.0" /><line stroke="#ececec" stroke-width="0.7" x1="220.0" x2="1202.8" y1="274.6" y2="274.6" /><line stroke="#ececec" stroke-width="0.7" x1="220.0" x2="1202.8" y1="329.2" y2="329.2" /><line stroke="#ececec" stroke-width="0.7" x1="220.0" x2="1202.8" y1="383.8" y2="383.8" /><line stroke="#ececec" stroke-width="0.7" x1="220.0" x2="1202.8" y1="438.4" y2="438.4" /><line stroke="#ececec" stroke-width="0.7" x1="220.0" x2="1202.8" y1="493.0" y2="493.0" /><line stroke="#ececec" stroke-width="0.7" x1="220.0" x2="1202.8" y1="547.6" y2="547.6" /><line stroke="#ececec" stroke-width="0.7" x1="220.0" x2="1202.8" y1="602.2" y2="602.2" /><line stroke="#ececec" stroke-width="0.7" x1="220.0" x2="1202.8" y1="656.8" y2="656.8" /><line stroke="#ececec" stroke-width="0.7" x1="220.0" x2="1202.8" y1="711.4" y2="711.4" /><line stroke="#ececec" stroke-width="0.7" x1="220.0" x2="1202.8" y1="766.0" y2="766.0" /><line stroke="#ececec" stroke-width="0.7" x1="220.0" x2="1202.8" y1="820.6" y2="820.6" /><line stroke="#ececec" stroke-width="0.7" x1="220.0" x2="1202.8" y1="875.2" y2="875.2" /><line stroke="#ececec" stroke-width="0.7" x1="220.0" x2="1202.8" y1="929.8" y2="929.8" /><line stroke="#ececec" stroke-width="0.7" x1="220.0" x2="1202.8" y1="984.4" y2="984.4" /><line stroke="#ececec" stroke-width="0.7" x1="220.0" x2="1202.8" y1="1039.0" y2="1039.0" /><line stroke="#ececec" stroke-width="0.7" x1="220.0" x2="1202.8" y1="1093.6" y2="1093.6" /><line stroke="#ececec" stroke-width="0.7" x1="220.0" x2="1202.8" y1="1148.2" y2="1148.2" /><line stroke="#ececec" stroke-width="0.7" x1="220.0" x2="1202.8" y1="1202.8" y2="1202.8" /><rect fill="none" height="982.8" stroke="#6a6a6a" stroke-dasharray="8,4" stroke-width="2" width="982.8" x="220.0" y="220.0" /><rect fill="none" height="982.8" stroke="#1f1f1f" stroke-width="3.5" width="982.8" x="220.0" y="220.0" /><text fill="#555555" font-size="10" x="222.0" y="160.0">Site Envelope = Building Footprint</text><rect fill="#d9f2ff" height="382.2" stroke="none" width="491.4" x="220.0" y="820.6" /><line stroke="#2f2f2f" stroke-width="2.2" x1="220.0" x2="711.4" y1="820.6" y2="820.6" /><line stroke="#2f2f2f" stroke-width="2.2" x1="220.0" x2="711.4" y1="1202.8" y2="1202.8" /><line stroke="#2f2f2f" stroke-width="2.2" x1="711.4" x2="711.4" y1="820.6" y2="1202.8" /><line stroke="#2f2f2f" stroke-width="2.2" x1="220.0" x2="220.0" y1="820.6" y2="1202.8" /><rect fill="#d9f2ff" height="382.2" stroke="none" width="491.4" x="711.4" y="820.6" /><line stroke="#2f2f2f" stroke-width="2.2" x1="711.4" x2="1202.8" y1="1202.8" y2="1202.8" /><line stroke="#2f2f2f" stroke-width="2.2" x1="711.4" x2="1202.8" y1="820.6" y2="820.6" /><line stroke="#2f2f2f" stroke-width="2.2" x1="1202.8" x2="1202.8" y1="820.6" y2="1202.8" /><line stroke="#2f2f2f" stroke-width="2.2" x1="711.4" x2="711.4" y1="820.6" y2="1202.8" /><rect fill="#d9f2ff" height="600.6" stroke="none" width="273.0" x="929.8" y="220.0" /><line stroke="#2f2f2f" stroke-width="2.2" x1="929.8" x2="1202.8" y1="820.6" y2="820.6" /><line stroke="#2f2f2f" stroke-width="2.2" x1="929.8" x2="1202.8" y1="220.0" y2="220.0" /><line stroke="#2f2f2f" stroke-width="2.2" x1="929.8" x2="929.8" y1="220.0" y2="820.6" /><line stroke="#2f2f2f" stroke-width="2.2" x1="1202.8" x2="1202.8" y1="220.0" y2="820.6" /><rect fill="#efe9ff" height="273.0" stroke="none" width="163.8" x="766.0" y="220.0" /><rect fill="#efe9ff" height="327.6" stroke="none" width="109.2" x="820.6" y="493.0" /><rect fill="#efe9ff" height="109.2" stroke="none" width="273.0" x="547.6" y="711.4" /><line stroke="#2f2f2f" stroke-width="2.2" x1="547.6" x2="929.8" y1="820.6" y2="820.6" /><line stroke="#2f2f2f" stroke-width="2.2" x1="547.6" x2="820.6" y1="711.4" y2="711.4" /><line stroke="#2f2f2f" stroke-width="2.2" x1="766.0" x2="929.8" y1="220.0" y2="220.0" /><line stroke="#2f2f2f" stroke-width="2.2" x1="766.0" x2="820.6" y1="493.0" y2="493.0" /><line stroke="#2f2f2f" stroke-width="2.2" x1="766.0" x2="766.0" y1="220.0" y2="493.0" /><line stroke="#2f2f2f" stroke-width="2.2" x1="929.8" x2="929.8" y1="220.0" y2="820.6" /><line stroke="#2f2f2f" stroke-width="2.2" x1="547.6" x2="547.6" y1="711.4" y2="820.6" /><line stroke="#2f2f2f" stroke-width="2.2" x1="820.6" x2="820.6" y1="493.0" y2="711.4" /><rect fill="#c5e8ff" height="600.6" stroke="none" width="327.6" x="220.0" y="220.0" /><line stroke="#2f2f2f" stroke-width="2.2" x1="220.0" x2="547.6" y1="220.0" y2="220.0" /><line stroke="#2f2f2f" stroke-width="2.2" x1="220.0" x2="547.6" y1="820.6" y2="820.6" /><line stroke="#2f2f2f" stroke-width="2.2" x1="220.0" x2="220.0" y1="220.0" y2="820.6" /><line stroke="#2f2f2f" stroke-width="2.2" x1="547.6" x2="547.6" y1="220.0" y2="820.6" /><rect fill="#ece7dd" height="218.4" stroke="none" width="273.0" x="547.6" y="493.0" /><line stroke="#2f2f2f" stroke-width="2.2" x1="547.6" x2="820.6" y1="493.0" y2="493.0" /><line stroke="#2f2f2f" stroke-width="2.2" x1="547.6" x2="820.6" y1="711.4" y2="711.4" /><line stroke="#2f2f2f" stroke-width="2.2" x1="820.6" x2="820.6" y1="493.0" y2="711.4" /><line stroke="#2f2f2f" stroke-width="2.2" x1="547.6" x2="547.6" y1="493.0" y2="711.4" /><rect fill="#f7f3ea" fill-opacity="0.35" height="382.2" stroke="#9a9a9a" stroke-dasharray="4,3" stroke-width="0.9" width="109.2" x="220.0" y="820.6" /><line stroke="#9c9c9c" stroke-opacity="0.7" stroke-width="0.8" x1="220.0" x2="239.2" y1="1183.6" y2="1202.8" /><line stroke="#9c9c9c" stroke-opacity="0.7" stroke-width="0.8" x1="220.0" x2="258.4" y1="1164.4" y2="1202.8" /><line stroke="#9c9c9c" stroke-opacity="0.7" stroke-width="0.8" x1="220.0" x2="277.6" y1="1145.2" y2="1202.8" /><line stroke="#9c9c9c" stroke-opacity="0.7" stroke-width="0.8" x1="220.0" x2="296.8" y1="1126.0" y2="1202.8" /><line stroke="#9c9c9c" stroke-opacity="0.7" stroke-width="0.8" x1="220.0" x2="316.0" y1="1106.8" y2="1202.8" /><line stroke="#9c9c9c" stroke-opacity="0.7" stroke-width="0.8" x1="220.0" x2="329.2" y1="1087.6" y2="1196.8" /><line stroke="#9c9c9c" stroke-opacity="0.7" stroke-width="0.8" x1="220.0" x2="329.2" y1="1068.4" y2="1177.6" /><line stroke="#9c9c9c" stroke-opacity="0.7" stroke-width="0.8" x1="220.0" x2="329.2" y1="1049.2" y2="1158.4" /><line stroke="#9c9c9c" stroke-opacity="0.7" stroke-width="0.8" x1="220.0" x2="329.2" y1="1030.0" y2="1139.2" /><line stroke="#9c9c9c" stroke-opacity="0.7" stroke-width="0.8" x1="220.0" x2="329.2" y1="1010.8" y2="1120.0" /><line stroke="#9c9c9c" stroke-opacity="0.7" stroke-width="0.8" x1="220.0" x2="329.2" y1="991.6" y2="1100.8" /><line stroke="#9c9c9c" stroke-opacity="0.7" stroke-width="0.8" x1="220.0" x2="329.2" y1="972.4" y2="1081.6" /><line stroke="#9c9c9c" stroke-opacity="0.7" stroke-width="0.8" x1="220.0" x2="329.2" y1="953.2" y2="1062.4" /><line stroke="#9c9c9c" stroke-opacity="0.7" stroke-width="0.8" x1="220.0" x2="329.2" y1="934.0" y2="1043.2" /><line stroke="#9c9c9c" stroke-opacity="0.7" stroke-width="0.8" x1="220.0" x2="329.2" y1="914.8" y2="1024.0" /><line stroke="#9c9c9c" stroke-opacity="0.7" stroke-width="0.8" x1="220.0" x2="329.2" y1="895.6" y2="1004.8" /><line stroke="#9c9c9c" stroke-opacity="0.7" stroke-width="0.8" x1="220.0" x2="329.2" y1="876.4" y2="985.6" /><line stroke="#9c9c9c" stroke-opacity="0.7" stroke-width="0.8" x1="220.0" x2="329.2" y1="857.2" y2="966.4" /><line stroke="#9c9c9c" stroke-opacity="0.7" stroke-width="0.8" x1="220.0" x2="329.2" y1="838.0" y2="947.2" /><line stroke="#9c9c9c" stroke-opacity="0.7" stroke-width="0.8" x1="221.8" x2="329.2" y1="820.6" y2="928.0" /><line stroke="#9c9c9c" stroke-opacity="0.7" stroke-width="0.8" x1="241.0" x2="329.2" y1="820.6" y2="908.8" /><line stroke="#9c9c9c" stroke-opacity="0.7" stroke-width="0.8" x1="260.2" x2="329.2" y1="820.6" y2="889.6" /><line stroke="#9c9c9c" stroke-opacity="0.7" stroke-width="0.8" x1="279.4" x2="329.2" y1="820.6" y2="870.4" /><line stroke="#9c9c9c" stroke-opacity="0.7" stroke-width="0.8" x1="298.6" x2="329.2" y1="820.6" y2="851.2" /><line stroke="#9c9c9c" stroke-opacity="0.7" stroke-width="0.8" x1="317.8" x2="329.2" y1="820.6" y2="832.0" /><rect fill="#f7f3ea" fill-opacity="0.35" height="382.2" stroke="#9a9a9a" stroke-dasharray="4,3" stroke-width="0.9" width="109.2" x="711.4" y="820.6" /><line stroke="#9c9c9c" stroke-opacity="0.7" stroke-width="0.8" x1="711.4" x2="730.6" y1="1183.6" y2="1202.8" /><line stroke="#9c9c9c" stroke-opacity="0.7" stroke-width="0.8" x1="711.4" x2="749.8" y1="1164.4" y2="1202.8" /><line stroke="#9c9c9c" stroke-opacity="0.7" stroke-width="0.8" x1="711.4" x2="769.0" y1="1145.2" y2="1202.8" /><line stroke="#9c9c9c" stroke-opacity="0.7" stroke-width="0.8" x1="711.4" x2="788.2" y1="1126.0" y2="1202.8" /><line stroke="#9c9c9c" stroke-opacity="0.7" stroke-width="0.8" x1="711.4" x2="807.4" y1="1106.8" y2="1202.8" /><line stroke="#9c9c9c" stroke-opacity="0.7" stroke-width="0.8" x1="711.4" x2="820.6" y1="1087.6" y2="1196.8" /><line stroke="#9c9c9c" stroke-opacity="0.7" stroke-width="0.8" x1="711.4" x2="820.6" y1="1068.4" y2="1177.6" /><line stroke="#9c9c9c" stroke-opacity="0.7" stroke-width="0.8" x1="711.4" x2="820.6" y1="1049.2" y2="1158.4" /><line stroke="#9c9c9c" stroke-opacity="0.7" stroke-width="0.8" x1="711.4" x2="820.6" y1="1030.0" y2="1139.2" /><line stroke="#9c9c9c" stroke-opacity="0.7" stroke-width="0.8" x1="711.4" x2="820.6" y1="1010.8" y2="1120.0" /><line stroke="#9c9c9c" stroke-opacity="0.7" stroke-width="0.8" x1="711.4" x2="820.6" y1="991.6" y2="1100.8" /><line stroke="#9c9c9c" stroke-opacity="0.7" stroke-width="0.8" x1="711.4" x2="820.6" y1="972.4" y2="1081.6" /><line stroke="#9c9c9c" stroke-opacity="0.7" stroke-width="0.8" x1="711.4" x2="820.6" y1="953.2" y2="1062.4" /><line stroke="#9c9c9c" stroke-opacity="0.7" stroke-width="0.8" x1="711.4" x2="820.6" y1="934.0" y2="1043.2" /><line stroke="#9c9c9c" stroke-opacity="0.7" stroke-width="0.8" x1="711.4" x2="820.6" y1="914.8" y2="1024.0" /><line stroke="#9c9c9c" stroke-opacity="0.7" stroke-width="0.8" x1="711.4" x2="820.6" y1="895.6" y2="1004.8" /><line stroke="#9c9c9c" stroke-opacity="0.7" stroke-width="0.8" x1="711.4" x2="820.6" y1="876.4" y2="985.6" /><line stroke="#9c9c9c" stroke-opacity="0.7" stroke-width="0.8" x1="711.4" x2="820.6" y1="857.2" y2="966.4" /><line stroke="#9c9c9c" stroke-opacity="0.7" stroke-width="0.8" x1="711.4" x2="820.6" y1="838.0" y2="947.2" /><line stroke="#9c9c9c" stroke-opacity="0.7" stroke-width="0.8" x1="713.2" x2="820.6" y1="820.6" y2="928.0" /><line stroke="#9c9c9c" stroke-opacity="0.7" stroke-width="0.8" x1="732.4" x2="820.6" y1="820.6" y2="908.8" /><line stroke="#9c9c9c" stroke-opacity="0.7" stroke-width="0.8" x1="751.6" x2="820.6" y1="820.6" y2="889.6" /><line stroke="#9c9c9c" stroke-opacity="0.7" stroke-width="0.8" x1="770.8" x2="820.6" y1="820.6" y2="870.4" /><line stroke="#9c9c9c" stroke-opacity="0.7" stroke-width="0.8" x1="790.0" x2="820.6" y1="820.6" y2="851.2" /><line stroke="#9c9c9c" stroke-opacity="0.7" stroke-width="0.8" x1="809.2" x2="820.6" y1="820.6" y2="832.0" /><rect fill="#f7f3ea" fill-opacity="0.35" height="109.2" stroke="#9a9a9a" stroke-dasharray="4,3" stroke-width="0.9" width="273.0" x="929.8" y="220.0" /><line stroke="#9c9c9c" stroke-opacity="0.7" stroke-width="0.8" x1="929.8" x2="949.0" y1="310.0" y2="329.2" /><line stroke="#9c9c9c" stroke-opacity="0.7" stroke-width="0.8" x1="929.8" x2="968.2" y1="290.8" y2="329.2" /><line stroke="#9c9c9c" stroke-opacity="0.7" stroke-width="0.8" x1="929.8" x2="987.4" y1="271.6" y2="329.2" /><line stroke="#9c9c9c" stroke-opacity="0.7" stroke-width="0.8" x1="929.8" x2="1006.6" y1="252.4" y2="329.2" /><line stroke="#9c9c9c" stroke-opacity="0.7" stroke-width="0.8" x1="929.8" x2="1025.8" y1="233.2" y2="329.2" /><line stroke="#9c9c9c" stroke-opacity="0.7" stroke-width="0.8" x1="935.8" x2="1045.0" y1="220.0" y2="329.2" /><line stroke="#9c9c9c" stroke-opacity="0.7" stroke-width="0.8" x1="955.0" x2="1064.2" y1="220.0" y2="329.2" /><line stroke="#9c9c9c" stroke-opacity="0.7" stroke-width="0.8" x1="974.2" x2="1083.4" y1="220.0" y2="329.2" /><line stroke="#9c9c9c" stroke-opacity="0.7" stroke-width="0.8" x1="993.4" x2="1102.6" y1="220.0" y2="329.2" /><line stroke="#9c9c9c" stroke-opacity="0.7" stroke-width="0.8" x1="1012.6" x2="1121.8" y1="220.0" y2="329.2" /><line stroke="#9c9c9c" stroke-opacity="0.7" stroke-width="0.8" x1="1031.8" x2="1141.0" y1="220.0" y2="329.2" /><line stroke="#9c9c9c" stroke-opacity="0.7" stroke-width="0.8" x1="1051.0" x2="1160.2" y1="220.0" y2="329.2" /><line stroke="#9c9c9c" stroke-opacity="0.7" stroke-width="0.8" x1="1070.2" x2="1179.4" y1="220.0" y2="329.2" /><line stroke="#9c9c9c" stroke-opacity="0.7" stroke-width="0.8" x1="1089.4" x2="1198.6" y1="220.0" y2="329.2" /><line stroke="#9c9c9c" stroke-opacity="0.7" stroke-width="0.8" x1="1108.6" x2="1202.8" y1="220.0" y2="314.2" /><line stroke="#9c9c9c" stroke-opacity="0.7" stroke-width="0.8" x1="1127.8" x2="1202.8" y1="220.0" y2="295.0" /><line stroke="#9c9c9c" stroke-opacity="0.7" stroke-width="0.8" x1="1147.0" x2="1202.8" y1="220.0" y2="275.8" /><line stroke="#9c9c9c" stroke-opacity="0.7" stroke-width="0.8" x1="1166.2" x2="1202.8" y1="220.0" y2="256.6" /><line stroke="#9c9c9c" stroke-opacity="0.7" stroke-width="0.8" x1="1185.4" x2="1202.8" y1="220.0" y2="237.4" /><rect fill="none" height="163.8" stroke="#7f7f7f" stroke-width="1.1" width="183.456" x="292.072" y="328.108" /><line stroke="#7f7f7f" stroke-width="0.9" x1="292.072" x2="475.528" y1="385.438" y2="385.438" /><rect fill="none" height="129.948" stroke="#7f7f7f" stroke-width="1.1" width="218.4" x="356.5" y="889.396" /><line stroke="#7f7f7f" stroke-width="0.9" x1="356.5" x2="574.9" y1="934.8778" y2="934.8778" /><rect fill="none" height="129.948" stroke="#7f7f7f" stroke-width="1.1" width="218.4" x="847.9" y="889.396" /><line stroke="#7f7f7f" stroke-width="0.9" x1="847.9" x2="1066.3" y1="934.8778" y2="934.8778" /><rect fill="none" height="163.8" stroke="#7f7f7f" stroke-width="1.1" width="152.88" x="989.86" y="328.108" /><line stroke="#7f7f7f" stroke-width="0.9" x1="989.86" x2="1142.74" y1="385.438" y2="385.438" /><line stroke="#9a9a9a" stroke-width="0.9" x1="580.36" x2="787.84" y1="532.312" y2="532.312" /><line stroke="#9a9a9a" stroke-width="0.9" x1="580.36" x2="787.84" y1="672.088" y2="672.088" /><line stroke="#9a9a9a" stroke-dasharray="5,3" stroke-width="0.7" x1="580.36" x2="787.84" y1="602.2" y2="602.2" /><rect fill="#f4f4f4" height="163.8" stroke="#202020" stroke-dasharray="4,3" stroke-width="2.6" width="109.2" x="547.6" y="329.2" /><line stroke="#b8b8b8" stroke-width="0.9" x1="553.0" x2="651.4" y1="338.8" y2="338.8" /><line stroke="#b8b8b8" stroke-width="0.9" x1="553.0" x2="651.4" y1="358.0" y2="358.0" /><line stroke="#b8b8b8" stroke-width="0.9" x1="553.0" x2="651.4" y1="377.2" y2="377.2" /><line stroke="#b8b8b8" stroke-width="0.9" x1="553.0" x2="651.4" y1="396.4" y2="396.4" /><line stroke="#b8b8b8" stroke-width="0.9" x1="553.0" x2="651.4" y1="415.6" y2="415.6" /><line stroke="#b8b8b8" stroke-width="0.9" x1="553.0" x2="651.4" y1="434.8" y2="434.8" /><line stroke="#b8b8b8" stroke-width="0.9" x1="553.0" x2="651.4" y1="454.0" y2="454.0" /><line stroke="#b8b8b8" stroke-width="0.9" x1="553.0" x2="651.4" y1="473.2" y2="473.2" /><line stroke="#b8b8b8" stroke-width="0.9" x1="553.0" x2="651.4" y1="492.4" y2="492.4" /><rect fill="#f4f4f4" height="109.2" stroke="#202020" stroke-dasharray="4,3" stroke-width="2.6" width="218.4" x="547.6" y="220.0" /><line stroke="#b8b8b8" stroke-width="0.9" x1="553.0" x2="760.6" y1="229.6" y2="229.6" /><line stroke="#b8b8b8" stroke-width="0.9" x1="553.0" x2="760.6" y1="248.8" y2="248.8" /><line stroke="#b8b8b8" stroke-width="0.9" x1="553.0" x2="760.6" y1="268.0" y2="268.0" /><line stroke="#b8b8b8" stroke-width="0.9" x1="553.0" x2="760.6" y1="287.2" y2="287.2" /><line stroke="#b8b8b8" stroke-width="0.9" x1="553.0" x2="760.6" y1="306.4" y2="306.4" /><line stroke="#b8b8b8" stroke-width="0.9" x1="553.0" x2="760.6" y1="325.6" y2="325.6" /><rect fill="#ffffff" height="163.8" stroke="#202020" stroke-dasharray="8,4" stroke-width="2.6" width="109.2" x="656.8" y="329.2" /><text fill="#555555" font-size="9" text-anchor="middle" x="656.8" y="356.5">Open To Below</text><rect fill="none" height="273.0" stroke="#7e7e7e" stroke-dasharray="3,2" stroke-width="2.0" width="218.4" x="547.6" y="220.0" /><text fill="#666666" font-size="8.5" text-anchor="middle" x="656.8" y="234.4">Guardrail</text><line stroke="#2a2a2a" stroke-width="1.4" x1="669.904" x2="752.896" y1="352.6" y2="352.6" /><line stroke="#2a2a2a" stroke-width="1.4" x1="669.904" x2="752.896" y1="376.0" y2="376.0" /><line stroke="#2a2a2a" stroke-width="1.4" x1="669.904" x2="752.896" y1="399.4" y2="399.4" /><line stroke="#2a2a2a" stroke-width="1.4" x1="669.904" x2="752.896" y1="422.8" y2="422.8" /><line stroke="#2a2a2a" stroke-width="1.4" x1="669.904" x2="752.896" y1="446.2" y2="446.2" /><line stroke="#2a2a2a" stroke-width="1.4" x1="669.904" x2="752.896" y1="469.6" y2="469.6" /><text fill="#202020" font-size="11" text-anchor="middle" x="711.4" y="411.1">Stair (DN)</text><text fill="#3a3a3a" font-size="9.0" text-anchor="middle" x="711.4" y="425.5">13R/12T</text><text fill="#4a4a4a" font-size="7.8" text-anchor="middle" x="711.4" y="433.9">H2730 R210 T228</text><line stroke="#ffffff" stroke-width="7" x1="766.0" x2="766.0" y1="329.2" y2="493.0" /><line stroke="#5e5e5e" stroke-width="1.0" x1="766.0" x2="766.0" y1="329.2" y2="493.0" /><line stroke="#ffffff" stroke-width="6" x1="547.6" x2="547.6" y1="720.4" y2="811.6" /><line stroke="#595959" stroke-width="1.2" x1="547.6" x2="488.32" y1="720.4" y2="779.68" /><path d="M 547.5999999999999,779.68 A 59.28,59.28 0 0 1 488.32,779.68" fill="none" stroke="#7a7a7a" stroke-width="1.0" /><line stroke="#ffffff" stroke-width="6" x1="583.9" x2="675.1" y1="820.6" y2="820.6" /><line stroke="#595959" stroke-width="1.2" x1="583.9" x2="643.18" y1="820.6" y2="879.88" /><path d="M 643.1800000000001,820.6 A 59.28,59.28 0 0 1 643.1800000000001,879.88" fill="none" stroke="#7a7a7a" stroke-width="1.0" /><line stroke="#ffffff" stroke-width="6" x1="829.6" x2="920.8" y1="820.6" y2="820.6" /><line stroke="#595959" stroke-width="1.2" x1="829.6" x2="888.88" y1="820.6" y2="761.32" /><path d="M 888.88,820.6 A 59.28,59.28 0 0 1 888.88,761.3199999999999" fill="none" stroke="#7a7a7a" stroke-width="1.0" /><line stroke="#ffffff" stroke-width="6" x1="929.8" x2="929.8" y1="598.0" y2="715.6" /><line stroke="#595959" stroke-width="1.2" x1="929.8" x2="1006.24" y1="598.0" y2="674.44" /><path d="M 929.8,674.44 A 76.44,76.44 0 0 1 1006.24,674.44" fill="none" stroke="#7a7a7a" stroke-width="1.0" /><line stroke="#ffffff" stroke-width="6" x1="547.6" x2="547.6" y1="553.06" y2="651.34" /><line stroke="#595959" stroke-width="1.2" x1="547.6" x2="483.718" y1="553.06" y2="616.942" /><path d="M 547.5999999999999,616.942 A 63.882,63.882 0 0 1 483.718,616.942" fill="none" stroke="#7a7a7a" stroke-width="1.0" /><line stroke="#66a7ff" stroke-width="2.2" x1="217.36" x2="217.36" y1="292.168" y2="484.168" /><line stroke="#66a7ff" stroke-width="2.2" x1="222.64" x2="222.64" y1="292.168" y2="484.168" /><line stroke="#66a7ff" stroke-width="2.2" x1="217.36" x2="217.36" y1="556.432" y2="748.432" /><line stroke="#66a7ff" stroke-width="2.2" x1="222.64" x2="222.64" y1="556.432" y2="748.432" /><line stroke="#66a7ff" stroke-width="2.2" x1="328.12" x2="439.48" y1="217.36" y2="217.36" /><line stroke="#66a7ff" stroke-width="2.2" x1="328.12" x2="439.48" y1="222.64" y2="222.64" /><line stroke="#66a7ff" stroke-width="2.2" x1="274.072" x2="441.112" y1="1200.16" y2="1200.16" /><line stroke="#66a7ff" stroke-width="2.2" x1="274.072" x2="441.112" y1="1205.44" y2="1205.44" /><line stroke="#66a7ff" stroke-width="2.2" x1="490.288" x2="657.328" y1="1200.16" y2="1200.16" /><line stroke="#66a7ff" stroke-width="2.2" x1="490.288" x2="657.328" y1="1205.44" y2="1205.44" /><line stroke="#66a7ff" stroke-width="2.2" x1="1200.16" x2="1200.16" y1="946.78" y2="1076.62" /><line stroke="#66a7ff" stroke-width="2.2" x1="1205.44" x2="1205.44" y1="946.78" y2="1076.62" /><line stroke="#66a7ff" stroke-width="2.2" x1="765.472" x2="932.512" y1="1200.16" y2="1200.16" /><line stroke="#66a7ff" stroke-width="2.2" x1="765.472" x2="932.512" y1="1205.44" y2="1205.44" /><line stroke="#66a7ff" stroke-width="2.2" x1="981.688" x2="1148.728" y1="1200.16" y2="1200.16" /><line stroke="#66a7ff" stroke-width="2.2" x1="981.688" x2="1148.728" y1="1205.44" y2="1205.44" /><line stroke="#66a7ff" stroke-width="2.2" x1="1200.16" x2="1200.16" y1="292.168" y2="484.168" /><line stroke="#66a7ff" stroke-width="2.2" x1="1205.44" x2="1205.44" y1="292.168" y2="484.168" /><line stroke="#66a7ff" stroke-width="2.2" x1="1200.16" x2="1200.16" y1="556.432" y2="748.432" /><line stroke="#66a7ff" stroke-width="2.2" x1="1205.44" x2="1205.44" y1="556.432" y2="748.432" /><line stroke="#9a9a9a" stroke-width="0.8" x1="774.4" x2="921.4" y1="228.4" y2="228.4" /><line stroke="#9a9a9a" stroke-width="0.8" x1="774.4" x2="774.4" y1="225.04" y2="231.76" /><line stroke="#9a9a9a" stroke-width="0.8" x1="921.4" x2="921.4" y1="225.04" y2="231.76" /><text fill="#8a8a8a" font-size="7.6" text-anchor="start" x="781.12" y="225.76">1365mm</text><line stroke="#9a9a9a" stroke-width="0.8" x1="774.4" x2="774.4" y1="228.4" y2="484.6" /><line stroke="#9a9a9a" stroke-width="0.8" x1="771.04" x2="777.76" y1="228.4" y2="228.4" /><line stroke="#9a9a9a" stroke-width="0.8" x1="771.04" x2="777.76" y1="484.6" y2="484.6" /><text fill="#8a8a8a" font-size="7.6" text-anchor="start" x="778.48" y="236.07999999999998">2275mm</text><line stroke="#9a9a9a" stroke-width="0.8" x1="829.0" x2="921.4" y1="501.4" y2="501.4" /><line stroke="#9a9a9a" stroke-width="0.8" x1="829.0" x2="829.0" y1="498.04" y2="504.76" /><line stroke="#9a9a9a" stroke-width="0.8" x1="921.4" x2="921.4" y1="498.04" y2="504.76" /><text fill="#8a8a8a" font-size="7.6" text-anchor="start" x="835.72" y="498.76">910mm</text><line stroke="#9a9a9a" stroke-width="0.8" x1="829.0" x2="829.0" y1="501.4" y2="812.2" /><line stroke="#9a9a9a" stroke-width="0.8" x1="825.64" x2="832.36" y1="501.4" y2="501.4" /><line stroke="#9a9a9a" stroke-width="0.8" x1="825.64" x2="832.36" y1="812.2" y2="812.2" /><text fill="#8a8a8a" font-size="7.6" text-anchor="start" x="833.0799999999999" y="509.08">2730mm</text><text fill="#1b1b1b" font-size="10" text-anchor="middle" x="465.7" y="997.3">Bedroom 2</text><text fill="#1b1b1b" font-size="10" text-anchor="middle" x="465.7" y="1008.1">4095x3185mm</text><text fill="#1b1b1b" font-size="10" text-anchor="middle" x="465.7" y="1018.9">13.0sqm / 8.1jo</text><text fill="#1b1b1b" font-size="10" text-anchor="middle" x="957.1" y="997.3">Bedroom 3</text><text fill="#1b1b1b" font-size="10" text-anchor="middle" x="957.1" y="1008.1">4095x3185mm</text><text fill="#1b1b1b" font-size="10" text-anchor="middle" x="957.1" y="1018.9">13.0sqm / 8.1jo</text><text fill="#1b1b1b" font-size="10" text-anchor="middle" x="1066.3" y="505.9">Bedroom 4</text><text fill="#1b1b1b" font-size="10" text-anchor="middle" x="1066.3" y="516.7">2275x5005mm</text><text fill="#1b1b1b" font-size="10" text-anchor="middle" x="1066.3" y="527.5">11.4sqm / 7.0jo</text><text fill="#1b1b1b" font-size="9" text-anchor="middle" x="812.4837837837838" y="550.1702702702703">Hall 2</text><text fill="#1b1b1b" font-size="9" text-anchor="middle" x="812.4837837837838" y="560.9702702702702">7.7sqm / 4.7jo</text><text fill="#1b1b1b" font-size="10" text-anchor="middle" x="383.79999999999995" y="505.9">Master</text><text fill="#1b1b1b" font-size="10" text-anchor="middle" x="383.79999999999995" y="516.7">2730x5005mm</text><text fill="#1b1b1b" font-size="10" text-anchor="middle" x="383.79999999999995" y="527.5">13.7sqm / 8.4jo</text><text fill="#1b1b1b" font-size="10" text-anchor="middle" x="684.0999999999999" y="587.8">W.I.C</text><text fill="#1b1b1b" font-size="10" text-anchor="middle" x="684.0999999999999" y="598.5999999999999">to master</text><text fill="#1b1b1b" font-size="10" text-anchor="middle" x="684.0999999999999" y="609.4">2275x1820mm</text><text fill="#1b1b1b" font-size="10" text-anchor="middle" x="684.0999999999999" y="620.2">4.1sqm / 2.6jo</text><text fill="#4a4a4a" font-size="10" text-anchor="middle" x="274.6" y="1011.6999999999999">CL</text><text fill="#4a4a4a" font-size="10" text-anchor="middle" x="766.0" y="1011.6999999999999">CL</text><text fill="#4a4a4a" font-size="10" text-anchor="middle" x="1066.3" y="274.6">CL</text><text fill="#111111" font-size="14" x="220.0" y="180.0">F2 Plan  (8190 x 8190 mm)</text><text fill="#444444" font-size="10" x="220.0" y="198.0">Scale: 1px=8.3mm</text><rect fill="#ffffff" height="144" stroke="#777777" stroke-width="1" width="170" x="1290.8" y="150.0" /><text fill="#111111" font-size="11" x="1298.8" y="164.0">Legend</text><rect fill="#efe9ff" height="12" stroke="#333333" stroke-width="1" width="12" x="1298.8" y="174.0" /><text fill="#222222" font-size="10" x="1316.8" y="184.0">Hall</text><rect fill="#c5e8ff" height="12" stroke="#333333" stroke-width="1" width="12" x="1298.8" y="192.0" /><text fill="#222222" font-size="10" x="1316.8" y="202.0">Master Bedroom</text><rect fill="#d9f2ff" height="12" stroke="#333333" stroke-width="1" width="12" x="1298.8" y="210.0" /><text fill="#222222" font-size="10" x="1316.8" y="220.0">Bedroom</text><rect fill="#f7f3ea" height="12" stroke="#333333" stroke-width="1" width="12" x="1298.8" y="228.0" /><text fill="#222222" font-size="10" x="1316.8" y="238.0">Closet</text><rect fill="#ece7dd" height="12" stroke="#333333" stroke-width="1" width="12" x="1298.8" y="246.0" /><text fill="#222222" font-size="10" x="1316.8" y="256.0">Wic</text><line stroke="#6aa4ff" stroke-width="4" x1="1298.8" x2="1325.8" y1="276.0" y2="276.0" /><text fill="#222222" font-size="10" x="1332.8" y="279.0">Window</text><line stroke="#666666" stroke-width="2.4" x1="1298.8" x2="1325.8" y1="292.0" y2="292.0" /><path d="M 1298.8,292.0 A 10,10 0 0 1 1308.8,282.0" fill="none" stroke="#666666" stroke-width="1.2" /><text fill="#222222" font-size="10" x="1332.8" y="295.0">Door</text><rect fill="#ffffff" height="84" stroke="#777777" stroke-width="1" width="200" x="1290.8" y="520.0" /><text fill="#111111" font-size="10" x="1298.8" y="533.0">Area (F2)</text><text fill="#222222" font-size="9" x="1298.8" y="550.0">F1: in 67.1 sqm (20.3 tsubo), out 0.0 sqm (0.0 tsubo)</text><text fill="#222222" font-size="9" x="1298.8" y="566.0">F2: in 67.1 sqm (20.3 tsubo), out 0.0 sqm (0.0 tsubo)</text><text fill="#222222" font-size="9" x="1298.8" y="582.0">Total indoor: 134.2 sqm (40.6 tsubo)</text><text fill="#222222" font-size="9" x="1298.8" y="598.0">Total outdoor: 0.0 sqm (0.0 tsubo)</text><line stroke="#111111" stroke-width="2" x1="175.0" x2="175.0" y1="238.0" y2="208.0" /><polygon fill="#111111" points="175.0,208.0 181.0,214.0 169.0,214.0" /><text fill="#111111" font-size="12" x="170.0" y="202.0">N</text><line stroke="#545454" stroke-width="1.0" x1="220.0" x2="1202.8" y1="148.0" y2="148.0" /><line stroke="#545454" stroke-width="0.8" x1="220.0" x2="220.0" y1="220.0" y2="148.0" /><line stroke="#545454" stroke-width="1.0" x1="220.0" x2="220.0" y1="145.0" y2="151.0" /><line stroke="#545454" stroke-width="0.8" x1="1202.8" x2="1202.8" y1="220.0" y2="148.0" /><line stroke="#545454" stroke-width="1.0" x1="1202.8" x2="1202.8" y1="145.0" y2="151.0" /><text fill="#545454" font-size="8.8" text-anchor="middle" x="711.4" y="145.0">8190mm</text><line stroke="#666666" stroke-width="1.0" x1="220.0" x2="1202.8" y1="166.0" y2="166.0" /><line stroke="#666666" stroke-width="0.8" x1="220.0" x2="220.0" y1="220.0" y2="166.0" /><line stroke="#666666" stroke-width="1.0" x1="220.0" x2="220.0" y1="163.0" y2="169.0" /><line stroke="#666666" stroke-width="0.8" x1="547.6" x2="547.6" y1="220.0" y2="166.0" /><line stroke="#666666" stroke-width="1.0" x1="547.6" x2="547.6" y1="163.0" y2="169.0" /><line stroke="#666666" stroke-width="0.8" x1="766.0" x2="766.0" y1="220.0" y2="166.0" /><line stroke="#666666" stroke-width="1.0" x1="766.0" x2="766.0" y1="163.0" y2="169.0" /><line stroke="#666666" stroke-width="0.8" x1="929.8" x2="929.8" y1="220.0" y2="166.0" /><line stroke="#666666" stroke-width="1.0" x1="929.8" x2="929.8" y1="163.0" y2="169.0" /><line stroke="#666666" stroke-width="0.8" x1="1202.8" x2="1202.8" y1="220.0" y2="166.0" /><line stroke="#666666" stroke-width="1.0" x1="1202.8" x2="1202.8" y1="163.0" y2="169.0" /><text fill="#666666" font-size="8.2" text-anchor="middle" x="383.79999999999995" y="163.0">2730</text><text fill="#666666" font-size="8.2" text-anchor="middle" x="656.8" y="163.0">1820</text><text fill="#666666" font-size="8.2" text-anchor="middle" x="847.9" y="163.0">1365</text><text fill="#666666" font-size="8.2" text-anchor="middle" x="1066.3" y="163.0">2275</text><line stroke="#7a7a7a" stroke-width="1.0" x1="220.0" x2="1202.8" y1="184.0" y2="184.0" /><line stroke="#7a7a7a" stroke-width="0.8" x1="220.0" x2="220.0" y1="220.0" y2="184.0" /><line stroke="#7a7a7a" stroke-width="1.0" x1="220.0" x2="220.0" y1="181.0" y2="187.0" /><line stroke="#7a7a7a" stroke-width="0.8" x1="329.2" x2="329.2" y1="220.0" y2="184.0" /><line stroke="#7a7a7a" stroke-width="1.0" x1="329.2" x2="329.2" y1="181.0" y2="187.0" /><line stroke="#7a7a7a" stroke-width="0.8" x1="438.4" x2="438.4" y1="220.0" y2="184.0" /><line stroke="#7a7a7a" stroke-width="1.0" x1="438.4" x2="438.4" y1="181.0" y2="187.0" /><line stroke="#7a7a7a" stroke-width="0.8" x1="1202.8" x2="1202.8" y1="220.0" y2="184.0" /><line stroke="#7a7a7a" stroke-width="1.0" x1="1202.8" x2="1202.8" y1="181.0" y2="187.0" /><text fill="#7a7a7a" font-size="7.8" text-anchor="middle" x="274.6" y="181.0">910</text><text fill="#7a7a7a" font-size="7.8" text-anchor="middle" x="383.79999999999995" y="181.0">910</text><text fill="#7a7a7a" font-size="7.8" text-anchor="middle" x="820.6" y="181.0">6370</text><line stroke="#545454" stroke-width="1.0" x1="220.0" x2="1202.8" y1="1274.8" y2="1274.8" /><line stroke="#545454" stroke-width="0.8" x1="220.0" x2="220.0" y1="1202.8" y2="1274.8" /><line stroke="#545454" stroke-width="1.0" x1="220.0" x2="220.0" y1="1271.8" y2="1277.8" /><line stroke="#545454" stroke-width="0.8" x1="1202.8" x2="1202.8" y1="1202.8" y2="1274.8" /><line stroke="#545454" stroke-width="1.0" x1="1202.8" x2="1202.8" y1="1271.8" y2="1277.8" /><text fill="#545454" font-size="8.8" text-anchor="middle" x="711.4" y="1284.8">8190mm</text><line stroke="#666666" stroke-width="1.0" x1="220.0" x2="1202.8" y1="1256.8" y2="1256.8" /><line stroke="#666666" stroke-width="0.8" x1="220.0" x2="220.0" y1="1202.8" y2="1256.8" /><line stroke="#666666" stroke-width="1.0" x1="220.0" x2="220.0" y1="1253.8" y2="1259.8" /><line stroke="#666666" stroke-width="0.8" x1="711.4" x2="711.4" y1="1202.8" y2="1256.8" /><line stroke="#666666" stroke-width="1.0" x1="711.4" x2="711.4" y1="1253.8" y2="1259.8" /><line stroke="#666666" stroke-width="0.8" x1="1202.8" x2="1202.8" y1="1202.8" y2="1256.8" /><line stroke="#666666" stroke-width="1.0" x1="1202.8" x2="1202.8" y1="1253.8" y2="1259.8" /><text fill="#666666" font-size="8.2" text-anchor="middle" x="465.7" y="1266.8">4095</text><text fill="#666666" font-size="8.2" text-anchor="middle" x="957.1" y="1266.8">4095</text><line stroke="#7a7a7a" stroke-width="1.0" x1="220.0" x2="1202.8" y1="1238.8" y2="1238.8" /><line stroke="#7a7a7a" stroke-width="0.8" x1="220.0" x2="220.0" y1="1202.8" y2="1238.8" /><line stroke="#7a7a7a" stroke-width="1.0" x1="220.0" x2="220.0" y1="1235.8" y2="1241.8" /><line stroke="#7a7a7a" stroke-width="0.8" x1="274.6" x2="274.6" y1="1202.8" y2="1238.8" /><line stroke="#7a7a7a" stroke-width="1.0" x1="274.6" x2="274.6" y1="1235.8" y2="1241.8" /><line stroke="#7a7a7a" stroke-width="0.8" x1="438.4" x2="438.4" y1="1202.8" y2="1238.8" /><line stroke="#7a7a7a" stroke-width="1.0" x1="438.4" x2="438.4" y1="1235.8" y2="1241.8" /><line stroke="#7a7a7a" stroke-width="0.8" x1="493.0" x2="493.0" y1="1202.8" y2="1238.8" /><line stroke="#7a7a7a" stroke-width="1.0" x1="493.0" x2="493.0" y1="1235.8" y2="1241.8" /><line stroke="#7a7a7a" stroke-width="0.8" x1="656.8" x2="656.8" y1="1202.8" y2="1238.8" /><line stroke="#7a7a7a" stroke-width="1.0" x1="656.8" x2="656.8" y1="1235.8" y2="1241.8" /><line stroke="#7a7a7a" stroke-width="0.8" x1="766.0" x2="766.0" y1="1202.8" y2="1238.8" /><line stroke="#7a7a7a" stroke-width="1.0" x1="766.0" x2="766.0" y1="1235.8" y2="1241.8" /><line stroke="#7a7a7a" stroke-width="0.8" x1="929.8" x2="929.8" y1="1202.8" y2="1238.8" /><line stroke="#7a7a7a" stroke-width="1.0" x1="929.8" x2="929.8" y1="1235.8" y2="1241.8" /><line stroke="#7a7a7a" stroke-width="0.8" x1="984.4" x2="984.4" y1="1202.8" y2="1238.8" /><line stroke="#7a7a7a" stroke-width="1.0" x1="984.4" x2="984.4" y1="1235.8" y2="1241.8" /><line stroke="#7a7a7a" stroke-width="0.8" x1="1148.2" x2="1148.2" y1="1202.8" y2="1238.8" /><line stroke="#7a7a7a" stroke-width="1.0" x1="1148.2" x2="1148.2" y1="1235.8" y2="1241.8" /><line stroke="#7a7a7a" stroke-width="0.8" x1="1202.8" x2="1202.8" y1="1202.8" y2="1238.8" /><line stroke="#7a7a7a" stroke-width="1.0" x1="1202.8" x2="1202.8" y1="1235.8" y2="1241.8" /><text fill="#7a7a7a" font-size="7.8" text-anchor="middle" x="356.5" y="1248.8">1365</text><text fill="#7a7a7a" font-size="7.8" text-anchor="middle" x="574.9" y="1248.8">1365</text><text fill="#7a7a7a" font-size="7.8" text-anchor="middle" x="711.4" y="1248.8">910</text><text fill="#7a7a7a" font-size="7.8" text-anchor="middle" x="847.9" y="1248.8">1365</text><text fill="#7a7a7a" font-size="7.8" text-anchor="middle" x="1066.3" y="1248.8">1365</text><line stroke="#545454" stroke-width="1.0" x1="148.0" x2="148.0" y1="220.0" y2="1202.8" /><line stroke="#545454" stroke-width="0.8" x1="220.0" x2="148.0" y1="220.0" y2="220.0" /><line stroke="#545454" stroke-width="1.0" x1="145.0" x2="151.0" y1="220.0" y2="220.0" /><line stroke="#545454" stroke-width="0.8" x1="220.0" x2="148.0" y1="1202.8" y2="1202.8" /><line stroke="#545454" stroke-width="1.0" x1="145.0" x2="151.0" y1="1202.8" y2="1202.8" /><text fill="#545454" font-size="8.8" x="144.0" y="711.4">8190mm</text><line stroke="#666666" stroke-width="1.0" x1="166.0" x2="166.0" y1="220.0" y2="1202.8" /><line stroke="#666666" stroke-width="0.8" x1="220.0" x2="166.0" y1="220.0" y2="220.0" /><line stroke="#666666" stroke-width="1.0" x1="163.0" x2="169.0" y1="220.0" y2="220.0" /><line stroke="#666666" stroke-width="0.8" x1="220.0" x2="166.0" y1="820.6" y2="820.6" /><line stroke="#666666" stroke-width="1.0" x1="163.0" x2="169.0" y1="820.6" y2="820.6" /><line stroke="#666666" stroke-width="0.8" x1="220.0" x2="166.0" y1="1202.8" y2="1202.8" /><line stroke="#666666" stroke-width="1.0" x1="163.0" x2="169.0" y1="1202.8" y2="1202.8" /><text fill="#666666" font-size="8.2" x="162.0" y="520.3">5005</text><text fill="#666666" font-size="8.2" x="162.0" y="1011.6999999999999">3185</text><line stroke="#7a7a7a" stroke-width="1.0" x1="184.0" x2="184.0" y1="220.0" y2="1202.8" /><line stroke="#7a7a7a" stroke-width="0.8" x1="220.0" x2="184.0" y1="220.0" y2="220.0" /><line stroke="#7a7a7a" stroke-width="1.0" x1="181.0" x2="187.0" y1="220.0" y2="220.0" /><line stroke="#7a7a7a" stroke-width="0.8" x1="220.0" x2="184.0" y1="274.6" y2="274.6" /><line stroke="#7a7a7a" stroke-width="1.0" x1="181.0" x2="187.0" y1="274.6" y2="274.6" /><line stroke="#7a7a7a" stroke-width="0.8" x1="220.0" x2="184.0" y1="493.0" y2="493.0" /><line stroke="#7a7a7a" stroke-width="1.0" x1="181.0" x2="187.0" y1="493.0" y2="493.0" /><line stroke="#7a7a7a" stroke-width="0.8" x1="220.0" x2="184.0" y1="547.6" y2="547.6" /><line stroke="#7a7a7a" stroke-width="1.0" x1="181.0" x2="187.0" y1="547.6" y2="547.6" /><line stroke="#7a7a7a" stroke-width="0.8" x1="220.0" x2="184.0" y1="766.0" y2="766.0" /><line stroke="#7a7a7a" stroke-width="1.0" x1="181.0" x2="187.0" y1="766.0" y2="766.0" /><line stroke="#7a7a7a" stroke-width="0.8" x1="220.0" x2="184.0" y1="1202.8" y2="1202.8" /><line stroke="#7a7a7a" stroke-width="1.0" x1="181.0" x2="187.0" y1="1202.8" y2="1202.8" /><text fill="#7a7a7a" font-size="7.8" x="180.0" y="383.79999999999995">1820</text><text fill="#7a7a7a" font-size="7.8" x="180.0" y="656.8">1820</text><text fill="#7a7a7a" font-size="7.8" x="180.0" y="984.4">3640</text><line stroke="#545454" stroke-width="1.0" x1="1274.8" x2="1274.8" y1="220.0" y2="1202.8" /><line stroke="#545454" stroke-width="0.8" x1="1202.8" x2="1274.8" y1="220.0" y2="220.0" /><line stroke="#545454" stroke-width="1.0" x1="1271.8" x2="1277.8" y1="220.0" y2="220.0" /><line stroke="#545454" stroke-width="0.8" x1="1202.8" x2="1274.8" y1="1202.8" y2="1202.8" /><line stroke="#545454" stroke-width="1.0" x1="1271.8" x2="1277.8" y1="1202.8" y2="1202.8" /><text fill="#545454" font-size="8.8" x="1279.8" y="711.4">8190mm</text><line stroke="#666666" stroke-width="1.0" x1="1256.8" x2="1256.8" y1="220.0" y2="1202.8" /><line stroke="#666666" stroke-width="0.8" x1="1202.8" x2="1256.8" y1="220.0" y2="220.0" /><line stroke="#666666" stroke-width="1.0" x1="1253.8" x2="1259.8" y1="220.0" y2="220.0" /><line stroke="#666666" stroke-width="0.8" x1="1202.8" x2="1256.8" y1="820.6" y2="820.6" /><line stroke="#666666" stroke-width="1.0" x1="1253.8" x2="1259.8" y1="820.6" y2="820.6" /><line stroke="#666666" stroke-width="0.8" x1="1202.8" x2="1256.8" y1="1202.8" y2="1202.8" /><line stroke="#666666" stroke-width="1.0" x1="1253.8" x2="1259.8" y1="1202.8" y2="1202.8" /><text fill="#666666" font-size="8.2" x="1261.8" y="520.3">5005</text><text fill="#666666" font-size="8.2" x="1261.8" y="1011.6999999999999">3185</text><line stroke="#7a7a7a" stroke-width="1.0" x1="1238.8" x2="1238.8" y1="220.0" y2="1202.8" /><line stroke="#7a7a7a" stroke-width="0.8" x1="1202.8" x2="1238.8" y1="220.0" y2="220.0" /><line stroke="#7a7a7a" stroke-width="1.0" x1="1235.8" x2="1241.8" y1="220.0" y2="220.0" /><line stroke="#7a7a7a" stroke-width="0.8" x1="1202.8" x2="1238.8" y1="274.6" y2="274.6" /><line stroke="#7a7a7a" stroke-width="1.0" x1="1235.8" x2="1241.8" y1="274.6" y2="274.6" /><line stroke="#7a7a7a" stroke-width="0.8" x1="1202.8" x2="1238.8" y1="493.0" y2="493.0" /><line stroke="#7a7a7a" stroke-width="1.0" x1="1235.8" x2="1241.8" y1="493.0" y2="493.0" /><line stroke="#7a7a7a" stroke-width="0.8" x1="1202.8" x2="1238.8" y1="547.6" y2="547.6" /><line stroke="#7a7a7a" stroke-width="1.0" x1="1235.8" x2="1241.8" y1="547.6" y2="547.6" /><line stroke="#7a7a7a" stroke-width="0.8" x1="1202.8" x2="1238.8" y1="766.0" y2="766.0" /><line stroke="#7a7a7a" stroke-width="1.0" x1="1235.8" x2="1241.8" y1="766.0" y2="766.0" /><line stroke="#7a7a7a" stroke-width="0.8" x1="1202.8" x2="1238.8" y1="929.8" y2="929.8" /><line stroke="#7a7a7a" stroke-width="1.0" x1="1235.8" x2="1241.8" y1="929.8" y2="929.8" /><line stroke="#7a7a7a" stroke-width="0.8" x1="1202.8" x2="1238.8" y1="1093.6" y2="1093.6" /><line stroke="#7a7a7a" stroke-width="1.0" x1="1235.8" x2="1241.8" y1="1093.6" y2="1093.6" /><line stroke="#7a7a7a" stroke-width="0.8" x1="1202.8" x2="1238.8" y1="1202.8" y2="1202.8" /><line stroke="#7a7a7a" stroke-width="1.0" x1="1235.8" x2="1241.8" y1="1202.8" y2="1202.8" /><text fill="#7a7a7a" font-size="7.8" x="1243.8" y="383.79999999999995">1820</text><text fill="#7a7a7a" font-size="7.8" x="1243.8" y="656.8">1820</text><text fill="#7a7a7a" font-size="7.8" x="1243.8" y="847.9">1365</text><text fill="#7a7a7a" font-size="7.8" x="1243.8" y="1011.6999999999999">1365</text><text fill="#7a7a7a" font-size="7.8" x="1243.8" y="1148.1999999999998">910</text></svg>