<?xml version="1.0" encoding="utf-8" ?>
<svg baseProfile="tiny" height="1422.8px" version="1.2" width="1422.8px" xmlns="http://www.w3.org/2000/svg" xmlns:ev="http://www.w3.org/2001/xml-events" xmlns:xlink="http://www.w3.org/1999/xlink"><defs /><rect fill="#fafafa" height="1422.8" width="1422.8" x="0" y="0" /><line stroke="#ececec" stroke-width="0.7" x1="220.0" x2="220.0" y1="220.0" y2="1202.8" /><line stroke="#ececec" stroke-width="0.7" x1="274.6" x2="274.6" y1="220.0" y2="1202.8" /><line stroke="#ececec" stroke-width="0.7" x1="329.2" x2="329.2" y1="220.0" y2="1202.8" /><line stroke="#ececec" stroke-width="0.7" x1="383.8" x2="383.8" y1="220.0" y2="1202.8" /><line stroke="#ececec" stroke-width="0.7" x1="438.4" x2="438.4" y1="220.0" y2="1202.8" /><line stroke="#ececec" stroke-width="0.7" x1="493.0" x2="493.0" y1="220.0" y2="1202.8" /><line stroke="#ececec" stroke-width="0.7" x1="547.6" x2="547.6" y1="220.0" y2="1202.8" /><line stroke="#ececec" stroke-width="0.7" x1="602.2" x2="602.2" y1="220.0" y2="1202.8" /><line stroke="#ececec" stroke-width="0.7" x1="656.8" x2="656.8" y1="220.0" y2="1202.8" /><line stroke="#ececec" stroke-width="0.7" x1="711.4" x2="711.4" y1="220.0" y2="1202.8" /><line stroke="#ececec" stroke-width="0.7" x1="766.0" x2="766.0" y1="220.0" y2="1202.8" /><line stroke="#ececec" stroke-width="0.7" x1="820.6" x2="820.6" y1="220.0" y2="1202.8" /><line stroke="#ececec" stroke-width="0.7" x1="875.2" x2="875.2" y1="220.0" y2="1202.8" /><line stroke="#ececec" stroke-width="0.7" x1="929.8" x2="929.8" y1="220.0" y2="1202.8" /><line stroke="#ececec" stroke-width="0.7" x1="984.4" x2="984.4" y1="220.0" y2="1202.8" /><line stroke="#ececec" stroke-width="0.7" x1="1039.0" x2="1039.0" y1="220.0" y2="1202.8" /><line stroke="#ececec" stroke-width="0.7" x1="1093.6" x2="1093.6" y1="220.0" y2="1202.8" /><line stroke="#ececec" stroke-width="0.7" x1="1148.2" x2="1148.2" y1="220.0" y2="1202.8" /><line stroke="#ececec" stroke-width="0.7" x1="1202.8" x2="1202.8" y1="220.0" y2="1202.8" /><line stroke="#d1d1d1" stroke-width="1.1" x1="220.0" x2="220.0" y1="220.0" y2="1202.8" /><line stroke="#d1d1d1" stroke-width="1.1" x1="329.2" x2="329.2" y1="220.0" y2="1202.8" /><line stroke="#d1d1d1" stroke-width="1.1" x1="438.4" x2="438.4" y1="220.0" y2="1202.8" /><line stroke="#d1d1d1" stroke-width="1.1" x1="547.6" x2="547.6" y1="220.0" y2="1202.8" /><line stroke="#d1d1d1" stroke-width="1.1" x1="656.8" x2="656.8" y1="220.0" y2="1202.8" /><line stroke="#d1d1d1" stroke-width="1.1" x1="766.0" x2="766.0" y1="220.0" y2="1202.8" /><line stroke="#d1d1d1" stroke-width="1.1" x1="875.2" x2="875.2" y1="220.0" y2="1202.8" /><line stroke="#d1d1d1" stroke-width="1.1" x1="984.4" x2="984.4" y1="220.0" y2="1202.8" /><line stroke="#d1d1d1" stroke-width="1.1" x1="1093.6" x2="1093.6" y1="220.0" y2="1202.8" /><line stroke="#d1d1d1" stroke-width="1.1" x1="1202.8" x2="1202.8" y1="220.0" y2="1202.8" /><line stroke="#d1d1d1" stroke-width="1.1" x1="220.0" x2="1202.8" y1="220.0" y2="220.0" /><line stroke="#d1d1d1" stroke-width="1.1" x1="220.0" x2="1202.8" y1="329.2" y2="329.2" /><line stroke="#d1d1d1" stroke-width="1.1" x1="220.0" x2="1202.8" y1="438.4" y2="438.4" /><line stroke="#d1d1d1" stroke-width="1.1" x1="220.0" x2="1202.8" y1="547.6" y2="547.6" /><line stroke="#d1d1d1" stroke-width="1.1" x1="220.0" x2="1202.8" y1="656.8" y2="656.8" /><line stroke="#d1d1d1" stroke-width="1.1" x1="220.0" x2="1202.8" y1="766.0" y2="766.0" /><line stroke="#d1d1d1" stroke-width="1.1" x1="220.0" x2="1202.8" y1="875.2" y2="875.2" /><line stroke="#d1d1d1" stroke-width="1.1" x1="220.0" x2="1202.8" y1="984.4" y2="984.4" /><line stroke="#d1d1d1" stroke-width="1.1" x1="220.0" x2="1202.8" y1="1093.6" y2="1093.6" /><line stroke="#d1d1d1" stroke-width="1.1" x1="220.0" x2="1202.8" y1="1202.8" y2="1202.8" /><line stroke="#ececec" stroke-width="0.7" x1="220.0" x2="1202.8" y1="220.0" y2="220.0" /><line stroke="#ececec" stroke-width="0.7" x1="220.0" x2="1202.8" y1="274.6" y2="274.6" /><line stroke="#ececec" stroke-width="0.7" x1="220.0" x2="1202.8" y1="329.2" y2="329.2" /><line stroke="#ececec" stroke-width="0.7" x1="220.0" x2="1202.8" y1="383.8" y2="383.8" /><line stroke="#ececec" stroke-width="0.7" x1="220.0" x2="1202.8" y1="438.4" y2="438.4" /><line stroke="#ececec" stroke-width="0.7" x1="220.0" x2="1202.8" y1="493.0" y2="493.0" /><line stroke="#ececec" stroke-width="0.7" x1="220.0" x2="1202.8" y1="547.6" y2="547.6" /><line stroke="#ececec" stroke-width="0.7" x1="220.0" x2="1202.8" y1="602.2" y2="602.2" /><line stroke="#ececec" stroke-width="0.7" x1="220.0" x2="1202.8" y1="656.8" y2="656.8" /><line stroke="#ececec" stroke-width="0.7" x1="220.0" x2="1202.8" y1="711.4" y2="711.4" /><line stroke="#ececec" stroke-width="0.7" x1="220.0" x2="1202.8" y1="766.0" y2="766.0" /><line stroke="#ececec" stroke-width="0.7" x1="220.0" x2="1202.8" y1="820.6" y2="820.6" /><line stroke="#ececec" stroke-width="0.7" x1="220.0" x2="1202.8" y1="875.2" y2="875.2" /><line stroke="#ececec" stroke-width="0.7" x1="220.0" x2="1202.8" y1="929.8" y2="929.8" /><line stroke="#ececec" stroke-width="0.7" x1="220.0" x2="1202.8" y1="984.4" y2="984.4" /><line stroke="#ececec" stroke-width="0.7" x1="220.0" x2="1202.8" y1="1039.0" y2="1039.0" /><line stroke="#ececec" stroke-width="0.7" x1="220.0" x2="1202.8" y1="1093.6" y2="1093.6" /><line stroke="#ececec" stroke-width="0.7" x1="220.0" x2="1202.8" y1="1148.2" y2="1148.2" /><line stroke="#ececec" stroke-width="0.7" x1="220.0" x2="1202.8" y1="1202.8" y2="1202.8" /><rect fill="none" height="982.8" stroke="#6a6a6a" stroke-dasharray="8,4" stroke-width="2" width="982.8" x="220.0" y="220.0" /><rect fill="none" height="982.8" stroke="#1f1f1f" stroke-width="3.5" width="982.8" x="220.0" y="220.0" /><text fill="#555555" font-size="10" x="222.0" y="160.0">Site Envelope = Building Footprint</text><rect fill="#d9f2ff" height="491.4" stroke="none" width="382.2" x="220.0" y="711.4" /><line stroke="#2f2f2f" stroke-width="2.2" x1="220.0" x2="602.2" y1="711.4" y2="711.4" /><line stroke="#2f2f2f" stroke-width="2.2" x1="220.0" x2="602.2" y1="1202.8" y2="1202.8" /><line stroke="#2f2f2f" stroke-width="2.2" x1="220.0" x2="220.0" y1="711.4" y2="1202.8" /><line stroke="#2f2f2f" stroke-width="2.2" x1="602.2" x2="602.2" y1="711.4" y2="1202.8" /><rect fill="#d9f2ff" height="600.6" stroke="none" width="327.6" x="602.2" y="602.2" /><line stroke="#2f2f2f" stroke-width="2.2" x1="602.2" x2="929.8" y1="1202.8" y2="1202.8" /><line stroke="#2f2f2f" stroke-width="2.2" x1="602.2" x2="929.8" y1="602.2" y2="602.2" /><line stroke="#2f2f2f" stroke-width="2.2" x1="602.2" x2="602.2" y1="602.2" y2="1202.8" /><line stroke="#2f2f2f" stroke-width="2.2" x1="929.8" x2="929.8" y1="602.2" y2="1202.8" /><rect fill="#d9f2ff" height="600.6" stroke="none" width="273.0" x="929.8" y="602.2" /><line stroke="#2f2f2f" stroke-width="2.2" x1="929.8" x2="1202.8" y1="1202.8" y2="1202.8" /><line stroke="#2f2f2f" stroke-width="2.2" x1="929.8" x2="1202.8" y1="602.2" y2="602.2" /><line stroke="#2f2f2f" stroke-width="2.2" x1="929.8" x2="929.8" y1="602.2" y2="1202.8" /><line stroke="#2f2f2f" stroke-width="2.2" x1="1202.8" x2="1202.8" y1="602.2" y2="1202.8" /><rect fill="#efe9ff" height="109.2" stroke="none" width="109.2" x="493.0" y="602.2" /><rect fill="#efe9ff" height="109.2" stroke="none" width="600.6" x="493.0" y="493.0" /><rect fill="#efe9ff" height="382.2" stroke="none" width="109.2" x="1093.6" y="220.0" /><line stroke="#2f2f2f" stroke-width="2.2" x1="493.0" x2="1093.6" y1="493.0" y2="493.0" /><line stroke="#2f2f2f" stroke-width="2.2" x1="602.2" x2="1202.8" y1="602.2" y2="602.2" /><line stroke="#2f2f2f" stroke-width="2.2" x1="1093.6" x2="1202.8" y1="220.0" y2="220.0" /><line stroke="#2f2f2f" stroke-width="2.2" x1="493.0" x2="602.2" y1="711.4" y2="711.4" /><line stroke="#2f2f2f" stroke-width="2.2" x1="1202.8" x2="1202.8" y1="220.0" y2="602.2" /><line stroke="#2f2f2f" stroke-width="2.2" x1="493.0" x2="493.0" y1="493.0" y2="711.4" /><line stroke="#2f2f2f" stroke-width="2.2" x1="1093.6" x2="1093.6" y1="220.0" y2="493.0" /><line stroke="#2f2f2f" stroke-width="2.2" x1="602.2" x2="602.2" y1="602.2" y2="711.4" /><rect fill="#c5e8ff" height="273.0" stroke="none" width="655.2" x="220.0" y="220.0" /><line stroke="#2f2f2f" stroke-width="2.2" x1="220.0" x2="875.2" y1="493.0" y2="493.0" /><line stroke="#2f2f2f" stroke-width="2.2" x1="220.0" x2="875.2" y1="220.0" y2="220.0" /><line stroke="#2f2f2f" stroke-width="2.2" x1="875.2" x2="875.2" y1="220.0" y2="493.0" /><line stroke="#2f2f2f" stroke-width="2.2" x1="220.0" x2="220.0" y1="220.0" y2="493.0" /><rect fill="#ece7dd" height="218.4" stroke="none" width="273.0" x="220.0" y="493.0" /><line stroke="#2f2f2f" stroke-width="2.2" x1="220.0" x2="493.0" y1="493.0" y2="493.0" /><line stroke="#2f2f2f" stroke-width="2.2" x1="220.0" x2="493.0" y1="711.4" y2="711.4" /><line stroke="#2f2f2f" stroke-width="2.2" x1="220.0" x2="220.0" y1="493.0" y2="711.4" /><line stroke="#2f2f2f" stroke-width="2.2" x1="493.0" x2="493.0" y1="493.0" y2="711.4" /><rect fill="#f7f3ea" fill-opacity="0.35" height="218.4" stroke="#9a9a9a" stroke-dasharray="4,3" stroke-width="0.9" width="109.2" x="493.0" y="711.4" /><line stroke="#9c9c9c" stroke-opacity="0.7" stroke-width="0.8" x1="493.0" x2="512.2" y1="910.6" y2="929.8" /><line stroke="#9c9c9c" stroke-opacity="0.7" stroke-width="0.8" x1="493.0" x2="531.4" y1="891.4" y2="929.8" /><line stroke="#9c9c9c" stroke-opacity="0.7" stroke-width="0.8" x1="493.0" x2="550.6" y1="872.2" y2="929.8" /><line stroke="#9c9c9c" stroke-opacity="0.7" stroke-width="0.8" x1="493.0" x2="569.8" y1="853.0" y2="929.8" /><line stroke="#9c9c9c" stroke-opacity="0.7" stroke-width="0.8" x1="493.0" x2="589.0" y1="833.8" y2="929.8" /><line stroke="#9c9c9c" stroke-opacity="0.7" stroke-width="0.8" x1="493.0" x2="602.2" y1="814.6" y2="923.8" /><line stroke="#9c9c9c" stroke-opacity="0.7" stroke-width="0.8" x1="493.0" x2="602.2" y1="795.4" y2="904.6" /><line stroke="#9c9c9c" stroke-opacity="0.7" stroke-width="0.8" x1="493.0" x2="602.2" y1="776.2" y2="885.4" /><line stroke="#9c9c9c" stroke-opacity="0.7" stroke-width="0.8" x1="493.0" x2="602.2" y1="757.0" y2="866.2" /><line stroke="#9c9c9c" stroke-opacity="0.7" stroke-width="0.8" x1="493.0" x2="602.2" y1="737.8" y2="847.0" /><line stroke="#9c9c9c" stroke-opacity="0.7" stroke-width="0.8" x1="493.0" x2="602.2" y1="718.6" y2="827.8" /><line stroke="#9c9c9c" stroke-opacity="0.7" stroke-width="0.8" x1="505.0" x2="602.2" y1="711.4" y2="808.6" /><line stroke="#9c9c9c" stroke-opacity="0.7" stroke-width="0.8" x1="524.2" x2="602.2" y1="711.4" y2="789.4" /><line stroke="#9c9c9c" stroke-opacity="0.7" stroke-width="0.8" x1="543.4" x2="602.2" y1="711.4" y2="770.2" /><line stroke="#9c9c9c" stroke-opacity="0.7" stroke-width="0.8" x1="562.6" x2="602.2" y1="711.4" y2="751.0" /><line stroke="#9c9c9c" stroke-opacity="0.7" stroke-width="0.8" x1="581.8" x2="602.2" y1="711.4" y2="731.8" /><line stroke="#9c9c9c" stroke-opacity="0.7" stroke-width="0.8" x1="601.0" x2="602.2" y1="711.4" y2="712.6" /><rect fill="#f7f3ea" fill-opacity="0.35" height="218.4" stroke="#9a9a9a" stroke-dasharray="4,3" stroke-width="0.9" width="109.2" x="820.6" y="602.2" /><line stroke="#9c9c9c" stroke-opacity="0.7" stroke-width="0.8" x1="820.6" x2="839.8" y1="801.4" y2="820.6" /><line stroke="#9c9c9c" stroke-opacity="0.7" stroke-width="0.8" x1="820.6" x2="859.0" y1="782.2" y2="820.6" /><line stroke="#9c9c9c" stroke-opacity="0.7" stroke-width="0.8" x1="820.6" x2="878.2" y1="763.0" y2="820.6" /><line stroke="#9c9c9c" stroke-opacity="0.7" stroke-width="0.8" x1="820.6" x2="897.4" y1="743.8" y2="820.6" /><line stroke="#9c9c9c" stroke-opacity="0.7" stroke-width="0.8" x1="820.6" x2="916.6" y1="724.6" y2="820.6" /><line stroke="#9c9c9c" stroke-opacity="0.7" stroke-width="0.8" x1="820.6" x2="929.8" y1="705.4" y2="814.6" /><line stroke="#9c9c9c" stroke-opacity="0.7" stroke-width="0.8" x1="820.6" x2="929.8" y1="686.2" y2="795.4" /><line stroke="#9c9c9c" stroke-opacity="0.7" stroke-width="0.8" x1="820.6" x2="929.8" y1="667.0" y2="776.2" /><line stroke="#9c9c9c" stroke-opacity="0.7" stroke-width="0.8" x1="820.6" x2="929.8" y1="647.8" y2="757.0" /><line stroke="#9c9c9c" stroke-opacity="0.7" stroke-width="0.8" x1="820.6" x2="929.8" y1="628.6" y2="737.8" /><line stroke="#9c9c9c" stroke-opacity="0.7" stroke-width="0.8" x1="820.6" x2="929.8" y1="609.4" y2="718.6" /><line stroke="#9c9c9c" stroke-opacity="0.7" stroke-width="0.8" x1="832.6" x2="929.8" y1="602.2" y2="699.4" /><line stroke="#9c9c9c" stroke-opacity="0.7" stroke-width="0.8" x1="851.8" x2="929.8" y1="602.2" y2="680.2" /><line stroke="#9c9c9c" stroke-opacity="0.7" stroke-width="0.8" x1="871.0" x2="929.8" y1="602.2" y2="661.0" /><line stroke="#9c9c9c" stroke-opacity="0.7" stroke-width="0.8" x1="890.2" x2="929.8" y1="602.2" y2="641.8" /><line stroke="#9c9c9c" stroke-opacity="0.7" stroke-width="0.8" x1="909.4" x2="929.8" y1="602.2" y2="622.6" /><line stroke="#9c9c9c" stroke-opacity="0.7" stroke-width="0.8" x1="928.6" x2="929.8" y1="602.2" y2="603.4" /><rect fill="#f7f3ea" fill-opacity="0.35" height="218.4" stroke="#9a9a9a" stroke-dasharray="4,3" stroke-width="0.9" width="109.2" x="929.8" y="602.2" /><line stroke="#9c9c9c" stroke-opacity="0.7" stroke-width="0.8" x1="929.8" x2="949.0" y1="801.4" y2="820.6" /><line stroke="#9c9c9c" stroke-opacity="0.7" stroke-width="0.8" x1="929.8" x2="968.2" y1="782.2" y2="820.6" /><line stroke="#9c9c9c" stroke-opacity="0.7" stroke-width="0.8" x1="929.8" x2="987.4" y1="763.0" y2="820.6" /><line stroke="#9c9c9c" stroke-opacity="0.7" stroke-width="0.8" x1="929.8" x2="1006.6" y1="743.8" y2="820.6" /><line stroke="#9c9c9c" stroke-opacity="0.7" stroke-width="0.8" x1="929.8" x2="1025.8" y1="724.6" y2="820.6" /><line stroke="#9c9c9c" stroke-opacity="0.7" stroke-width="0.8" x1="929.8" x2="1039.0" y1="705.4" y2="814.6" /><line stroke="#9c9c9c" stroke-opacity="0.7" stroke-width="0.8" x1="929.8" x2="1039.0" y1="686.2" y2="795.4" /><line stroke="#9c9c9c" stroke-opacity="0.7" stroke-width="0.8" x1="929.8" x2="1039.0" y1="667.0" y2="776.2" /><line stroke="#9c9c9c" stroke-opacity="0.7" stroke-width="0.8" x1="929.8" x2="1039.0" y1="647.8" y2="757.0" /><line stroke="#9c9c9c" stroke-opacity="0.7" stroke-width="0.8" x1="929.8" x2="1039.0" y1="628.6" y2="737.8" /><line stroke="#9c9c9c" stroke-opacity="0.7" stroke-width="0.8" x1="929.8" x2="1039.0" y1="609.4" y2="718.6" /><line stroke="#9c9c9c" stroke-opacity="0.7" stroke-width="0.8" x1="941.8" x2="1039.0" y1="602.2" y2="699.4" /><line stroke="#9c9c9c" stroke-opacity="0.7" stroke-width="0.8" x1="961.0" x2="1039.0" y1="602.2" y2="680.2" /><line stroke="#9c9c9c" stroke-opacity="0.7" stroke-width="0.8" x1="980.2" x2="1039.0" y1="602.2" y2="661.0" /><line stroke="#9c9c9c" stroke-opacity="0.7" stroke-width="0.8" x1="999.4" x2="1039.0" y1="602.2" y2="641.8" /><line stroke="#9c9c9c" stroke-opacity="0.7" stroke-width="0.8" x1="1018.6" x2="1039.0" y1="602.2" y2="622.6" /><line stroke="#9c9c9c" stroke-opacity="0.7" stroke-width="0.8" x1="1037.8" x2="1039.0" y1="602.2" y2="603.4" /><rect fill="none" height="92.82" stroke="#7f7f7f" stroke-width="1.1" width="218.4" x="438.4" y="269.14" /><line stroke="#7f7f7f" stroke-width="0.9" x1="438.4" x2="656.8" y1="301.627" y2="301.627" /><rect fill="none" height="163.8" stroke="#7f7f7f" stroke-width="1.1" width="214.032" x="304.084" y="799.852" /><line stroke="#7f7f7f" stroke-width="0.9" x1="304.084" x2="518.116" y1="857.182" y2="857.182" /><rect fill="none" height="163.8" stroke="#7f7f7f" stroke-width="1.1" width="183.456" x="674.272" y="710.308" /><line stroke="#7f7f7f" stroke-width="0.9" x1="674.272" x2="857.728" y1="767.638" y2="767.638" /><rect fill="none" height="163.8" stroke="#7f7f7f" stroke-width="1.1" width="152.88" x="989.86" y="710.308" /><line stroke="#7f7f7f" stroke-width="0.9" x1="989.86" x2="1142.74" y1="767.638" y2="767.638" /><line stroke="#9a9a9a" stroke-width="0.9" x1="252.76" x2="460.24" y1="532.312" y2="532.312" /><line stroke="#9a9a9a" stroke-width="0.9" x1="252.76" x2="460.24" y1="672.088" y2="672.088" /><line stroke="#9a9a9a" stroke-dasharray="5,3" stroke-width="0.7" x1="252.76" x2="460.24" y1="602.2" y2="602.2" /><rect fill="#f4f4f4" height="163.8" stroke="#202020" stroke-dasharray="4,3" stroke-width="2.6" width="109.2" x="875.2" y="329.2" /><line stroke="#b8b8b8" stroke-width="0.9" x1="880.6" x2="979.0" y1="338.8" y2="338.8" /><line stroke="#b8b8b8" stroke-width="0.9" x1="880.6" x2="979.0" y1="358.0" y2="358.0" /><line stroke="#b8b8b8" stroke-width="0.9" x1="880.6" x2="979.0" y1="377.2" y2="377.2" /><line stroke="#b8b8b8" stroke-width="0.9" x1="880.6" x2="979.0" y1="396.4" y2="396.4" /><line stroke="#b8b8b8" stroke-width="0.9" x1="880.6" x2="979.0" y1="415.6" y2="415.6" /><line stroke="#b8b8b8" stroke-width="0.9" x1="880.6" x2="979.0" y1="434.8" y2="434.8" /><line stroke="#b8b8b8" stroke-width="0.9" x1="880.6" x2="979.0" y1="454.0" y2="454.0" /><line stroke="#b8b8b8" stroke-width="0.9" x1="880.6" x2="979.0" y1="473.2" y2="473.2" /><line stroke="#b8b8b8" stroke-width="0.9" x1="880.6" x2="979.0" y1="492.4" y2="492.4" /><rect fill="#f4f4f4" height="109.2" stroke="#202020" stroke-dasharray="4,3" stroke-width="2.6" width="218.4" x="875.2" y="220.0" /><line stroke="#b8b8b8" stroke-width="0.9" x1="880.6" x2="1088.2" y1="229.6" y2="229.6" /><line stroke="#b8b8b8" stroke-width="0.9" x1="880.6" x2="1088.2" y1="248.8" y2="248.8" /><line stroke="#b8b8b8" stroke-width="0.9" x1="880.6" x2="1088.2" y1="268.0" y2="268.0" /><line stroke="#b8b8b8" stroke-width="0.9" x1="880.6" x2="1088.2" y1="287.2" y2="287.2" /><line stroke="#b8b8b8" stroke-width="0.9" x1="880.6" x2="1088.2" y1="306.4" y2="306.4" /><line stroke="#b8b8b8" stroke-width="0.9" x1="880.6" x2="1088.2" y1="325.6" y2="325.6" /><rect fill="#ffffff" height="163.8" stroke="#202020" stroke-dasharray="8,4" stroke-width="2.6" width="109.2" x="984.4" y="329.2" /><text fill="#555555" font-size="9" text-anchor="middle" x="984.4" y="356.5">Open To Below</text><rect fill="none" height="273.0" stroke="#7e7e7e" stroke-dasharray="3,2" stroke-width="2.0" width="218.4" x="875.2" y="220.0" /><text fill="#666666" font-size="8.5" text-anchor="middle" x="984.4" y="234.4">Guardrail</text><line stroke="#2a2a2a" stroke-width="1.4" x1="997.504" x2="1080.496" y1="352.6" y2="352.6" /><line stroke="#2a2a2a" stroke-width="1.4" x1="997.504" x2="1080.496" y1="376.0" y2="376.0" /><line stroke="#2a2a2a" stroke-width="1.4" x1="997.504" x2="1080.496" y1="399.4" y2="399.4" /><line stroke="#2a2a2a" stroke-width="1.4" x1="997.504" x2="1080.496" y1="422.8" y2="422.8" /><line stroke="#2a2a2a" stroke-width="1.4" x1="997.504" x2="1080.496" y1="446.2" y2="446.2" /><line stroke="#2a2a2a" stroke-width="1.4" x1="997.504" x2="1080.496" y1="469.6" y2="469.6" /><text fill="#202020" font-size="11" text-anchor="middle" x="1039.0" y="411.1">Stair (DN)</text><text fill="#3a3a3a" font-size="9.0" text-anchor="middle" x="1039.0" y="425.5">13R/12T</text><text fill="#4a4a4a" font-size="7.8" text-anchor="middle" x="1039.0" y="433.9">H2730 R210 T228</text><line stroke="#ffffff" stroke-width="7" x1="1093.6" x2="1093.6" y1="329.2" y2="493.0" /><line stroke="#5e5e5e" stroke-width="1.0" x1="1093.6" x2="1093.6" y1="329.2" y2="493.0" /><line stroke="#ffffff" stroke-width="6" x1="625.3" x2="742.9" y1="493.0" y2="493.0" /><line stroke="#595959" stroke-width="1.2" x1="625.3" x2="701.74" y1="493.0" y2="416.56" /><path d="M 701.74,493.0 A 76.44,76.44 0 0 1 701.74,416.56" fill="none" stroke="#7a7a7a" stroke-width="1.0" /><line stroke="#ffffff" stroke-width="6" x1="502.0" x2="593.2" y1="711.4" y2="711.4" /><line stroke="#595959" stroke-width="1.2" x1="502.0" x2="561.28" y1="711.4" y2="770.68" /><path d="M 561.28,711.4 A 59.28,59.28 0 0 1 561.28,770.68" fill="none" stroke="#7a7a7a" stroke-width="1.0" /><line stroke="#ffffff" stroke-width="6" x1="707.2" x2="824.8" y1="602.2" y2="602.2" /><line stroke="#595959" stroke-width="1.2" x1="707.2" x2="783.64" y1="602.2" y2="525.76" /><path d="M 783.64,602.2 A 76.44,76.44 0 0 1 783.64,525.76" fill="none" stroke="#7a7a7a" stroke-width="1.0" /><line stroke="#ffffff" stroke-width="6" x1="966.1" x2="1057.3" y1="602.2" y2="602.2" /><line stroke="#595959" stroke-width="1.2" x1="966.1" x2="1025.38" y1="602.2" y2="661.48" /><path d="M 1025.38,602.2 A 59.28,59.28 0 0 1 1025.38,661.48" fill="none" stroke="#7a7a7a" stroke-width="1.0" /><line stroke="#ffffff" stroke-width="6" x1="297.7" x2="415.3" y1="493.0" y2="493.0" /><line stroke="#595959" stroke-width="1.2" x1="297.7" x2="374.14" y1="493.0" y2="416.56" /><path d="M 374.14,493.0 A 76.44,76.44 0 0 1 374.14,416.56" fill="none" stroke="#7a7a7a" stroke-width="1.0" /><line stroke="#66a7ff" stroke-width="2.2" x1="217.36" x2="217.36" y1="301.9" y2="411.1" /><line stroke="#66a7ff" stroke-width="2.2" x1="222.64" x2="222.64" y1="301.9" y2="411.1" /><line stroke="#66a7ff" stroke-width="2.2" x1="307.456" x2="499.456" y1="217.36" y2="217.36" /><line stroke="#66a7ff" stroke-width="2.2" x1="307.456" x2="499.456" y1="222.64" y2="222.64" /><line stroke="#66a7ff" stroke-width="2.2" x1="595.744" x2="787.744" y1="217.36" y2="217.36" /><line stroke="#66a7ff" stroke-width="2.2" x1="595.744" x2="787.744" y1="222.64" y2="222.64" /><line stroke="#66a7ff" stroke-width="2.2" x1="217.36" x2="217.36" y1="765.472" y2="932.512" /><line stroke="#66a7ff" stroke-width="2.2" x1="222.64" x2="222.64" y1="765.472" y2="932.512" /><line stroke="#66a7ff" stroke-width="2.2" x1="217.36" x2="217.36" y1="981.688" y2="1148.728" /><line stroke="#66a7ff" stroke-width="2.2" x1="222.64" x2="222.64" y1="981.688" y2="1148.728" /><line stroke="#66a7ff" stroke-width="2.2" x1="346.18" x2="476.02" y1="1200.16" y2="1200.16" /><line stroke="#66a7ff" stroke-width="2.2" x1="346.18" x2="476.02" y1="1205.44" y2="1205.44" /><line stroke="#66a7ff" stroke-width="2.2" x1="710.32" x2="821.68" y1="1200.16" y2="1200.16" /><line stroke="#66a7ff" stroke-width="2.2" x1="710.32" x2="821.68" y1="1205.44" y2="1205.44" /><line stroke="#66a7ff" stroke-width="2.2" x1="1200.16" x2="1200.16" y1="674.368" y2="866.368" /><line stroke="#66a7ff" stroke-width="2.2" x1="1205.44" x2="1205.44" y1="674.368" y2="866.368" /><line stroke="#66a7ff" stroke-width="2.2" x1="1200.16" x2="1200.16" y1="938.632" y2="1130.632" /><line stroke="#66a7ff" stroke-width="2.2" x1="1205.44" x2="1205.44" y1="938.632" y2="1130.632" /><line stroke="#66a7ff" stroke-width="2.2" x1="1011.7" x2="1120.9" y1="1200.16" y2="1200.16" /><line stroke="#66a7ff" stroke-width="2.2" x1="1011.7" x2="1120.9" y1="1205.44" y2="1205.44" /><line stroke="#9a9a9a" stroke-width="0.8" x1="1102.0" x2="1194.4" y1="228.4" y2="228.4" /><line stroke="#9a9a9a" stroke-width="0.8" x1="1102.0" x2="1102.0" y1="225.04" y2="231.76" /><line stroke="#9a9a9a" stroke-width="0.8" x1="1194.4" x2="1194.4" y1="225.04" y2="231.76" /><text fill="#8a8a8a" font-size="7.6" text-anchor="start" x="1108.7199999999998" y="225.76">910mm</text><line stroke="#9a9a9a" stroke-width="0.8" x1="1102.0" x2="1102.0" y1="228.4" y2="593.8" /><line stroke="#9a9a9a" stroke-width="0.8" x1="1098.64" x2="1105.36" y1="228.4" y2="228.4" /><line stroke="#9a9a9a" stroke-width="0.8" x1="1098.64" x2="1105.36" y1="593.8" y2="593.8" /><text fill="#8a8a8a" font-size="7.6" text-anchor="start" x="1106.08" y="236.07999999999998">3185mm</text><text fill="#1b1b1b" font-size="10" text-anchor="middle" x="411.1" y="942.6999999999999">Bedroom 2</text><text fill="#1b1b1b" font-size="10" text-anchor="middle" x="411.1" y="953.5">3185x4095mm</text><text fill="#1b1b1b" font-size="10" text-anchor="middle" x="411.1" y="964.3">13.0sqm / 8.1jo</text><text fill="#1b1b1b" font-size="10" text-anchor="middle" x="766.0" y="888.1">Bedroom 3</text><text fill="#1b1b1b" font-size="10" text-anchor="middle" x="766.0" y="898.9">2730x5005mm</text><text fill="#1b1b1b" font-size="10" text-anchor="middle" x="766.0" y="909.6999999999999">13.7sqm / 8.4jo</text><text fill="#1b1b1b" font-size="10" text-anchor="middle" x="1066.3" y="888.1">Bedroom 4</text><text fill="#1b1b1b" font-size="10" text-anchor="middle" x="1066.3" y="898.9">2275x5005mm</text><text fill="#1b1b1b" font-size="10" text-anchor="middle" x="1066.3" y="909.6999999999999">11.4sqm / 7.0jo</text><text fill="#1b1b1b" font-size="9" text-anchor="middle" x="892.9449999999999" y="496.34499999999997">Hall 2</text><text fill="#1b1b1b" font-size="9" text-anchor="middle" x="892.9449999999999" y="507.145">8.3sqm / 5.1jo</text><text fill="#1b1b1b" font-size="10" text-anchor="middle" x="547.5999999999999" y="342.1">Master</text><text fill="#1b1b1b" font-size="10" text-anchor="middle" x="547.5999999999999" y="352.9">5460x2275mm</text><text fill="#1b1b1b" font-size="10" text-anchor="middle" x="547.5999999999999" y="363.7">12.4sqm / 7.7jo</text><text fill="#1b1b1b" font-size="10" text-anchor="middle" x="356.5" y="587.8">W.I.C</text><text fill="#1b1b1b" font-size="10" text-anchor="middle" x="356.5" y="598.5999999999999">to master</text><text fill="#1b1b1b" font-size="10" text-anchor="middle" x="356.5" y="609.4">2275x1820mm</text><text fill="#1b1b1b" font-size="10" text-anchor="middle" x="356.5" y="620.2">4.1sqm / 2.6jo</text><text fill="#4a4a4a" font-size="10" text-anchor="middle" x="547.5999999999999" y="820.6">CL</text><text fill="#4a4a4a" font-size="10" text-anchor="middle" x="875.1999999999999" y="711.4">CL</text><text fill="#4a4a4a" font-size="10" text-anchor="middle" x="984.4" y="711.4">CL</text><text fill="#111111" font-size="14" x="220.0" y="180.0">F2 Plan  (8190 x 8190 mm)</text><text fill="#444444" font-size="10" x="220.0" y="198.0">Scale: 1px=8.3mm</text><rect fill="#ffffff" height="144" stroke="#777777" stroke-width="1" width="170" x="1290.8" y="150.0" /><text fill="#111111" font-size="11" x="1298.8" y="164.0">Legend</text><rect fill="#efe9ff" height="12" stroke="#333333" stroke-width="1" width="12" x="1298.8" y="174.0" /><text fill="#222222" font-size="10" x="1316.8" y="184.0">Hall</text><rect fill="#c5e8ff" height="12" stroke="#333333" stroke-width="1" width="12" x="1298.8" y="192.0" /><text fill="#222222" font-size="10" x="1316.8" y="202.0">Master Bedroom</text><rect fill="#d9f2ff" height="12" stroke="#333333" stroke-width="1" width="12" x="1298.8" y="210.0" /><text fill="#222222" font-size="10" x="1316.8" y="220.0">Bedroom</text><rect fill="#f7f3ea" height="12" stroke="#333333" stroke-width="1" width="12" x="1298.8" y="228.0" /><text fill="#222222" font-size="10" x="1316.8" y="238.0">Closet</text><rect fill="#ece7dd" height="12" stroke="#333333" stroke-width="1" width="12" x="1298.8" y="246.0" /><text fill="#222222" font-size="10" x="1316.8" y="256.0">Wic</text><line stroke="#6aa4ff" stroke-width="4" x1="1298.8" x2="1325.8" y1="276.0" y2="276.0" /><text fill="#222222" font-size="10" x="1332.8" y="279.0">Window</text><line stroke="#666666" stroke-width="2.4" x1="1298.8" x2="1325.8" y1="292.0" y2="292.0" /><path d="M 1298.8,292.0 A 10,10 0 0 1 1308.8,282.0" fill="none" stroke="#666666" stroke-width="1.2" /><text fill="#222222" font-size="10" x="1332.8" y="295.0">Door</text><rect fill="#ffffff" height="84" stroke="#777777" stroke-width="1" width="200" x="1290.8" y="520.0" /><text fill="#111111" font-size="10" x="1298.8" y="533.0">Area (F2)</text><text fill="#222222" font-size="9" x="1298.8" y="550.0">F1: in 67.1 sqm (20.3 tsubo), out 0.0 sqm (0.0 tsubo)</text><text fill="#222222" font-size="9" x="1298.8" y="566.0">F2: in 67.1 sqm (20.3 tsubo), out 0.0 sqm (0.0 tsubo)</text><text fill="#222222" font-size="9" x="1298.8" y="582.0">Total indoor: 134.2 sqm (40.6 tsubo)</text><text fill="#222222" font-size="9" x="1298.8" y="598.0">Total outdoor: 0.0 sqm (0.0 tsubo)</text><line stroke="#111111" stroke-width="2" x1="175.0" x2="175.0" y1="238.0" y2="208.0" /><polygon fill="#111111" points="175.0,208.0 181.0,214.0 169.0,214.0" /><text fill="#111111" font-size="12" x="170.0" y="202.0">N</text><line stroke="#545454" stroke-width="1.0" x1="220.0" x2="1202.8" y1="148.0" y2="148.0" /><line stroke="#545454" stroke-width="0.8" x1="220.0" x2="220.0" y1="220.0" y2="148.0" /><line stroke="#545454" stroke-width="1.0" x1="220.0" x2="220.0" y1="145.0" y2="151.0" /><line stroke="#545454" stroke-width="0.8" x1="1202.8" x2="1202.8" y1="220.0" y2="148.0" /><line stroke="#545454" stroke-width="1.0" x1="1202.8" x2="1202.8" y1="145.0" y2="151.0" /><text fill="#545454" font-size="8.8" text-anchor="middle" x="711.4" y="145.0">8190mm</text><line stroke="#666666" stroke-width="1.0" x1="220.0" x2="1202.8" y1="166.0" y2="166.0" /><line stroke="#666666" stroke-width="0.8" x1="220.0" x2="220.0" y1="220.0" y2="166.0" /><line stroke="#666666" stroke-width="1.0" x1="220.0" x2="220.0" y1="163.0" y2="169.0" /><line stroke="#666666" stroke-width="0.8" x1="875.2" x2="875.2" y1="220.0" y2="166.0" /><line stroke="#666666" stroke-width="1.0" x1="875.2" x2="875.2" y1="163.0" y2="169.0" /><line stroke="#666666" stroke-width="0.8" x1="1093.6" x2="1093.6" y1="220.0" y2="166.0" /><line stroke="#666666" stroke-width="1.0" x1="1093.6" x2="1093.6" y1="163.0" y2="169.0" /><line stroke="#666666" stroke-width="0.8" x1="1202.8" x2="1202.8" y1="220.0" y2="166.0" /><line stroke="#666666" stroke-width="1.0" x1="1202.8" x2="1202.8" y1="163.0" y2="169.0" /><text fill="#666666" font-size="8.2" text-anchor="middle" x="547.5999999999999" y="163.0">5460</text><text fill="#666666" font-size="8.2" text-anchor="middle" x="984.4" y="163.0">1820</text><text fill="#666666" font-size="8.2" text-anchor="middle" x="1148.1999999999998" y="163.0">910</text><line stroke="#7a7a7a" stroke-width="1.0" x1="220.0" x2="1202.8" y1="184.0" y2="184.0" /><line stroke="#7a7a7a" stroke-width="0.8" x1="220.0" x2="220.0" y1="220.0" y2="184.0" /><line stroke="#7a7a7a" stroke-width="1.0" x1="220.0" x2="220.0" y1="181.0" y2="187.0" /><line stroke="#7a7a7a" stroke-width="0.8" x1="329.2" x2="329.2" y1="220.0" y2="184.0" /><line stroke="#7a7a7a" stroke-width="1.0" x1="329.2" x2="329.2" y1="181.0" y2="187.0" /><line stroke="#7a7a7a" stroke-width="0.8" x1="493.0" x2="493.0" y1="220.0" y2="184.0" /><line stroke="#7a7a7a" stroke-width="1.0" x1="493.0" x2="493.0" y1="181.0" y2="187.0" /><line stroke="#7a7a7a" stroke-width="0.8" x1="602.2" x2="602.2" y1="220.0" y2="184.0" /><line stroke="#7a7a7a" stroke-width="1.0" x1="602.2" x2="602.2" y1="181.0" y2="187.0" /><line stroke="#7a7a7a" stroke-width="0.8" x1="766.0" x2="766.0" y1="220.0" y2="184.0" /><line stroke="#7a7a7a" stroke-width="1.0" x1="766.0" x2="766.0" y1="181.0" y2="187.0" /><line stroke="#7a7a7a" stroke-width="0.8" x1="1202.8" x2="1202.8" y1="220.0" y2="184.0" /><line stroke="#7a7a7a" stroke-width="1.0" x1="1202.8" x2="1202.8" y1="181.0" y2="187.0" /><text fill="#7a7a7a" font-size="7.8" text-anchor="middle" x="274.6" y="181.0">910</text><text fill="#7a7a7a" font-size="7.8" text-anchor="middle" x="411.1" y="181.0">1365</text><text fill="#7a7a7a" font-size="7.8" text-anchor="middle" x="547.5999999999999" y="181.0">910</text><text fill="#7a7a7a" font-size="7.8" text-anchor="middle" x="684.0999999999999" y="181.0">1365</text><text fill="#7a7a7a" font-size="7.8" text-anchor="middle" x="984.4" y="181.0">3640</text><line stroke="#545454" stroke-width="1.0" x1="220.0" x2="1202.8" y1="1274.8" y2="1274.8" /><line stroke="#545454" stroke-width="0.8" x1="220.0" x2="220.0" y1="1202.8" y2="1274.8" /><line stroke="#545454" stroke-width="1.0" x1="220.0" x2="220.0" y1="1271.8" y2="1277.8" /><line stroke="#545454" stroke-width="0.8" x1="1202.8" x2="1202.8" y1="1202.8" y2="1274.8" /><line stroke="#545454" stroke-width="1.0" x1="1202.8" x2="1202.8" y1="1271.8" y2="1277.8" /><text fill="#545454" font-size="8.8" text-anchor="middle" x="711.4" y="1284.8">8190mm</text><line stroke="#666666" stroke-width="1.0" x1="220.0" x2="1202.8" y1="1256.8" y2="1256.8" /><line stroke="#666666" stroke-width="0.8" x1="220.0" x2="220.0" y1="1202.8" y2="1256.8" /><line stroke="#666666" stroke-width="1.0" x1="220.0" x2="220.0" y1="1253.8" y2="1259.8" /><line stroke="#666666" stroke-width="0.8" x1="602.2" x2="602.2" y1="1202.8" y2="1256.8" /><line stroke="#666666" stroke-width="1.0" x1="602.2" x2="602.2" y1="1253.8" y2="1259.8" /><line stroke="#666666" stroke-width="0.8" x1="929.8" x2="929.8" y1="1202.8" y2="1256.8" /><line stroke="#666666" stroke-width="1.0" x1="929.8" x2="929.8" y1="1253.8" y2="1259.8" /><line stroke="#666666" stroke-width="0.8" x1="1202.8" x2="1202.8" y1="1202.8" y2="1256.8" /><line stroke="#666666" stroke-width="1.0" x1="1202.8" x2="1202.8" y1="1253.8" y2="1259.8" /><text fill="#666666" font-size="8.2" text-anchor="middle" x="411.1" y="1266.8">3185</text><text fill="#666666" font-size="8.2" text-anchor="middle" x="766.0" y="1266.8">2730</text><text fill="#666666" font-size="8.2" text-anchor="middle" x="1066.3" y="1266.8">2275</text><line stroke="#7a7a7a" stroke-width="1.0" x1="220.0" x2="1202.8" y1="1238.8" y2="1238.8" /><line stroke="#7a7a7a" stroke-width="0.8" x1="220.0" x2="220.0" y1="1202.8" y2="1238.8" /><line stroke="#7a7a7a" stroke-width="1.0" x1="220.0" x2="220.0" y1="1235.8" y2="1241.8" /><line stroke="#7a7a7a" stroke-width="0.8" x1="329.2" x2="329.2" y1="1202.8" y2="1238.8" /><line stroke="#7a7a7a" stroke-width="1.0" x1="329.2" x2="329.2" y1="1235.8" y2="1241.8" /><line stroke="#7a7a7a" stroke-width="0.8" x1="493.0" x2="493.0" y1="1202.8" y2="1238.8" /><line stroke="#7a7a7a" stroke-width="1.0" x1="493.0" x2="493.0" y1="1235.8" y2="1241.8" /><line stroke="#7a7a7a" stroke-width="0.8" x1="711.4" x2="711.4" y1="1202.8" y2="1238.8" /><line stroke="#7a7a7a" stroke-width="1.0" x1="711.4" x2="711.4" y1="1235.8" y2="1241.8" /><line stroke="#7a7a7a" stroke-width="0.8" x1="820.6" x2="820.6" y1="1202.8" y2="1238.8" /><line stroke="#7a7a7a" stroke-width="1.0" x1="820.6" x2="820.6" y1="1235.8" y2="1241.8" /><line stroke="#7a7a7a" stroke-width="0.8" x1="1039.0" x2="1039.0" y1="1202.8" y2="1238.8" /><line stroke="#7a7a7a" stroke-width="1.0" x1="1039.0" x2="1039.0" y1="1235.8" y2="1241.8" /><line stroke="#7a7a7a" stroke-width="0.8" x1="1148.2" x2="1148.2" y1="1202.8" y2="1238.8" /><line stroke="#7a7a7a" stroke-width="1.0" x1="1148.2" x2="1148.2" y1="1235.8" y2="1241.8" /><line stroke="#7a7a7a" stroke-width="0.8" x1="1202.8" x2="1202.8" y1="1202.8" y2="1238.8" /><line stroke="#7a7a7a" stroke-width="1.0" x1="1202.8" x2="1202.8" y1="1235.8" y2="1241.8" /><text fill="#7a7a7a" font-size="7.8" text-anchor="middle" x="274.6" y="1248.8">910</text><text fill="#7a7a7a" font-size="7.8" text-anchor="middle" x="411.1" y="1248.8">1365</text><text fill="#7a7a7a" font-size="7.8" text-anchor="middle" x="602.2" y="1248.8">1820</text><text fill="#7a7a7a" font-size="7.8" text-anchor="middle" x="766.0" y="1248.8">910</text><text fill="#7a7a7a" font-size="7.8" text-anchor="middle" x="929.8" y="1248.8">1820</text><text fill="#7a7a7a" font-size="7.8" text-anchor="middle" x="1093.6" y="1248.8">910</text><line stroke="#545454" stroke-width="1.0" x1="148.0" x2="148.0" y1="220.0" y2="1202.8" /><line stroke="#545454" stroke-width="0.8" x1="220.0" x2="148.0" y1="220.0" y2="220.0" /><line stroke="#545454" stroke-width="1.0" x1="145.0" x2="151.0" y1="220.0" y2="220.0" /><line stroke="#545454" stroke-width="0.8" x1="220.0" x2="148.0" y1="1202.8" y2="1202.8" /><line stroke="#545454" stroke-width="1.0" x1="145.0" x2="151.0" y1="1202.8" y2="1202.8" /><text fill="#545454" font-size="8.8" x="144.0" y="711.4">8190mm</text><line stroke="#666666" stroke-width="1.0" x1="166.0" x2="166.0" y1="220.0" y2="1202.8" /><line stroke="#666666" stroke-width="0.8" x1="220.0" x2="166.0" y1="220.0" y2="220.0" /><line stroke="#666666" stroke-width="1.0" x1="163.0" x2="169.0" y1="220.0" y2="220.0" /><line stroke="#666666" stroke-width="0.8" x1="220.0" x2="166.0" y1="493.0" y2="493.0" /><line stroke="#666666" stroke-width="1.0" x1="163.0" x2="169.0" y1="493.0" y2="493.0" /><line stroke="#666666" stroke-width="0.8" x1="220.0" x2="166.0" y1="711.4" y2="711.4" /><line stroke="#666666" stroke-width="1.0" x1="163.0" x2="169.0" y1="711.4" y2="711.4" /><line stroke="#666666" stroke-width="0.8" x1="220.0" x2="166.0" y1="1202.8" y2="1202.8" /><line stroke="#666666" stroke-width="1.0" x1="163.0" x2="169.0" y1="1202.8" y2="1202.8" /><text fill="#666666" font-size="8.2" x="162.0" y="356.5">2275</text><text fill="#666666" font-size="8.2" x="162.0" y="602.2">1820</text><text fill="#666666" font-size="8.2" x="162.0" y="957.1">4095</text><line stroke="#7a7a7a" stroke-width="1.0" x1="184.0" x2="184.0" y1="220.0" y2="1202.8" /><line stroke="#7a7a7a" stroke-width="0.8" x1="220.0" x2="184.0" y1="220.0" y2="220.0" /><line stroke="#7a7a7a" stroke-width="1.0" x1="181.0" x2="187.0" y1="220.0" y2="220.0" /><line stroke="#7a7a7a" stroke-width="0.8" x1="220.0" x2="184.0" y1="274.6" y2="274.6" /><line stroke="#7a7a7a" stroke-width="1.0" x1="181.0" x2="187.0" y1="274.6" y2="274.6" /><line stroke="#7a7a7a" stroke-width="0.8" x1="220.0" x2="184.0" y1="383.8" y2="383.8" /><line stroke="#7a7a7a" stroke-width="1.0" x1="181.0" x2="187.0" y1="383.8" y2="383.8" /><line stroke="#7a7a7a" stroke-width="0.8" x1="220.0" x2="184.0" y1="766.0" y2="766.0" /><line stroke="#7a7a7a" stroke-width="1.0" x1="181.0" x2="187.0" y1="766.0" y2="766.0" /><line stroke="#7a7a7a" stroke-width="0.8" x1="220.0" x2="184.0" y1="929.8" y2="929.8" /><line stroke="#7a7a7a" stroke-width="1.0" x1="181.0" x2="187.0" y1="929.8" y2="929.8" /><line stroke="#7a7a7a" stroke-width="0.8" x1="220.0" x2="184.0" y1="984.4" y2="984.4" /><line stroke="#7a7a7a" stroke-width="1.0" x1="181.0" x2="187.0" y1="984.4" y2="984.4" /><line stroke="#7a7a7a" stroke-width="0.8" x1="220.0" x2="184.0" y1="1148.2" y2="1148.2" /><line stroke="#7a7a7a" stroke-width="1.0" x1="181.0" x2="187.0" y1="1148.2" y2="1148.2" /><line stroke="#7a7a7a" stroke-width="0.8" x1="220.0" x2="184.0" y1="1202.8" y2="1202.8" /><line stroke="#7a7a7a" stroke-width="1.0" x1="181.0" x2="187.0" y1="1202.8" y2="1202.8" /><text fill="#7a7a7a" font-size="7.8" x="180.0" y="329.2">910</text><text fill="#7a7a7a" font-size="7.8" x="180.0" y="574.9">3185</text><text fill="#7a7a7a" font-size="7.8" x="180.0" y="847.9">1365</text><text fill="#7a7a7a" font-size="7.8" x="180.0" y="1066.3">1365</text><line stroke="#545454" stroke-width="1.0" x1="1274.8" x2="1274.8" y1="220.0" y2="1202.8" /><line stroke="#545454" stroke-width="0.8" x1="1202.8" x2="1274.8" y1="220.0" y2="220.0" /><line stroke="#545454" stroke-width="1.0" x1="1271.8" x2="1277.8" y1="220.0" y2="220.0" /><line stroke="#545454" stroke-width="0.8" x1="1202.8" x2="1274.8" y1="1202.8" y2="1202.8" /><line stroke="#545454" stroke-width="1.0" x1="1271.8" x2="1277.8" y1="1202.8" y2="1202.8" /><text fill="#545454" font-size="8.8" x="1279.8" y="711.4">8190mm</text><line stroke="#666666" stroke-width="1.0" x1="1256.8" x2="1256.8" y1="220.0" y2="1202.8" /><line stroke="#666666" stroke-width="0.8" x1="1202.8" x2="1256.8" y1="220.0" y2="220.0" /><line stroke="#666666" stroke-width="1.0" x1="1253.8" x2="1259.8" y1="220.0" y2="220.0" /><line stroke="#666666" stroke-width="0.8" x1="1202.8" x2="1256.8" y1="602.2" y2="602.2" /><line stroke="#666666" stroke-width="1.0" x1="1253.8" x2="1259.8" y1="602.2" y2="602.2" /><line stroke="#666666" stroke-width="0.8" x1="1202.8" x2="1256.8" y1="1202.8" y2="1202.8" /><line stroke="#666666" stroke-width="1.0" x1="1253.8" x2="1259.8" y1="1202.8" y2="1202.8" /><text fill="#666666" font-size="8.2" x="1261.8" y="411.1">3185</text><text fill="#666666" font-size="8.2" x="1261.8" y="902.5">5005</text><line stroke="#7a7a7a" stroke-width="1.0" x1="1238.8" x2="1238.8" y1="220.0" y2="1202.8" /><line stroke="#7a7a7a" stroke-width="0.8" x1="1202.8" x2="1238.8" y1="220.0" y2="220.0" /><line stroke="#7a7a7a" stroke-width="1.0" x1="1235.8" x2="1241.8" y1="220.0" y2="220.0" /><line stroke="#7a7a7a" stroke-width="0.8" x1="1202.8" x2="1238.8" y1="656.8" y2="656.8" /><line stroke="#7a7a7a" stroke-width="1.0" x1="1235.8" x2="1241.8" y1="656.8" y2="656.8" /><line stroke="#7a7a7a" stroke-width="0.8" x1="1202.8" x2="1238.8" y1="875.2" y2="875.2" /><line stroke="#7a7a7a" stroke-width="1.0" x1="1235.8" x2="1241.8" y1="875.2" y2="875.2" /><line stroke="#7a7a7a" stroke-width="0.8" x1="1202.8" x2="1238.8" y1="929.8" y2="929.8" /><line stroke="#7a7a7a" stroke-width="1.0" x1="1235.8" x2="1241.8" y1="929.8" y2="929.8" /><line stroke="#7a7a7a" stroke-width="0.8" x1="1202.8" x2="1238.8" y1="1148.2" y2="1148.2" /><line stroke="#7a7a7a" stroke-width="1.0" x1="1235.8" x2="1241.8" y1="1148.2" y2="1148.2" /><line stroke="#7a7a7a" stroke-width="0.8" x1="1202.8" x2="1238.8" y1="1202.8" y2="1202.8" /><line stroke="#7a7a7a" stroke-width="1.0" x1="1235.8" x2="1241.8" y1="1202.8" y2="1202.8" /><text fill="#7a7a7a" font-size="7.8" x="1243.8" y="438.4">3640</text><text fill="#7a7a7a" font-size="7.8" x="1243.8" y="766.0">1820</text><text fill="#7a7a7a" font-size="7.8" x="1243.8" y="1039.0">1820</text></svg>