<?xml version="1.0" encoding="utf-8" ?>
<svg baseProfile="tiny" height="1422.8px" version="1.2" width="1422.8px" xmlns="http://www.w3.org/2000/svg" xmlns:ev="http://www.w3.org/2001/xml-events" xmlns:xlink="http://www.w3.org/1999/xlink"><defs /><rect fill="#fafafa" height="1422.8" width="1422.8" x="0" y="0" /><line stroke="#ececec" stroke-width="0.7" x1="220.0" x2="220.0" y1="220.0" y2="1202.8" /><line stroke="#ececec" stroke-width="0.7" x1="274.6" x2="274.6" y1="220.0" y2="1202.8" /><line stroke="#ececec" stroke-width="0.7" x1="329.2" x2="329.2" y1="220.0" y2="1202.8" /><line stroke="#ececec" stroke-width="0.7" x1="383.8" x2="383.8" y1="220.0" y2="1202.8" /><line stroke="#ececec" stroke-width="0.7" x1="438.4" x2="438.4" y1="220.0" y2="1202.8" /><line stroke="#ececec" stroke-width="0.7" x1="493.0" x2="493.0" y1="220.0" y2="1202.8" /><line stroke="#ececec" stroke-width="0.7" x1="547.6" x2="547.6" y1="220.0" y2="1202.8" /><line stroke="#ececec" stroke-width="0.7" x1="602.2" x2="602.2" y1="220.0" y2="1202.8" /><line stroke="#ececec" stroke-width="0.7" x1="656.8" x2="656.8" y1="220.0" y2="1202.8" /><line stroke="#ececec" stroke-width="0.7" x1="711.4" x2="711.4" y1="220.0" y2="1202.8" /><line stroke="#ececec" stroke-width="0.7" x1="766.0" x2="766.0" y1="220.0" y2="1202.8" /><line stroke="#ececec" stroke-width="0.7" x1="820.6" x2="820.6" y1="220.0" y2="1202.8" /><line stroke="#ececec" stroke-width="0.7" x1="875.2" x2="875.2" y1="220.0" y2="1202.8" /><line stroke="#ececec" stroke-width="0.7" x1="929.8" x2="929.8" y1="220.0" y2="1202.8" /><line stroke="#ececec" stroke-width="0.7" x1="984.4" x2="984.4" y1="220.0" y2="1202.8" /><line stroke="#ececec" stroke-width="0.7" x1="1039.0" x2="1039.0" y1="220.0" y2="1202.8" /><line stroke="#ececec" stroke-width="0.7" x1="1093.6" x2="1093.6" y1="220.0" y2="1202.8" /><line stroke="#ececec" stroke-width="0.7" x1="1148.2" x2="1148.2" y1="220.0" y2="1202.8" /><line stroke="#ececec" stroke-width="0.7" x1="1202.8" x2="1202.8" y1="220.0" y2="1202.8" /><line stroke="#d1d1d1" stroke-width="1.1" x1="220.0" x2="220.0" y1="220.0" y2="1202.8" /><line stroke="#d1d1d1" stroke-width="1.1" x1="329.2" x2="329.2" y1="220.0" y2="1202.8" /><line stroke="#d1d1d1" stroke-width="1.1" x1="438.4" x2="438.4" y1="220.0" y2="1202.8" /><line stroke="#d1d1d1" stroke-width="1.1" x1="547.6" x2="547.6" y1="220.0" y2="1202.8" /><line stroke="#d1d1d1" stroke-width="1.1" x1="656.8" x2="656.8" y1="220.0" y2="1202.8" /><line stroke="#d1d1d1" stroke-width="1.1" x1="766.0" x2="766.0" y1="220.0" y2="1202.8" /><line stroke="#d1d1d1" stroke-width="1.1" x1="875.2" x2="875.2" y1="220.0" y2="1202.8" /><line stroke="#d1d1d1" stroke-width="1.1" x1="984.4" x2="984.4" y1="220.0" y2="1202.8" /><line stroke="#d1d1d1" stroke-width="1.1" x1="1093.6" x2="1093.6" y1="220.0" y2="1202.8" /><line stroke="#d1d1d1" stroke-width="1.1" x1="1202.8" x2="1202.8" y1="220.0" y2="1202.8" /><line stroke="#d1d1d1" stroke-width="1.1" x1="220.0" x2="1202.8" y1="220.0" y2="220.0" /><line stroke="#d1d1d1" stroke-width="1.1" x1="220.0" x2="1202.8" y1="329.2" y2="329.2" /><line stroke="#d1d1d1" stroke-width="1.1" x1="220.0" x2="1202.8" y1="438.4" y2="438.4" /><line stroke="#d1d1d1" stroke-width="1.1" x1="220.0" x2="1202.8" y1="547.6" y2="547.6" /><line stroke="#d1d1d1" stroke-width="1.1" x1="220.0" x2="1202.8" y1="656.8" y2="656.8" /><line stroke="#d1d1d1" stroke-width="1.1" x1="220.0" x2="1202.8" y1="766.0" y2="766.0" /><line stroke="#d1d1d1" stroke-width="1.1" x1="220.0" x2="1202.8" y1="875.2" y2="875.2" /><line stroke="#d1d1d1" stroke-width="1.1" x1="220.0" x2="1202.8" y1="984.4" y2="984.4" /><line stroke="#d1d1d1" stroke-width="1.1" x1="220.0" x2="1202.8" y1="1093.6" y2="1093.6" /><line stroke="#d1d1d1" stroke-width="1.1" x1="220.0" x2="1202.8" y1="1202.8" y2="1202.8" /><line stroke="#ececec" stroke-width="0.7" x1="220.0" x2="1202.8" y1="220.0" y2="220.0" /><line stroke="#ececec" stroke-width="0.7" x1="220.0" x2="1202.8" y1="274.6" y2="274.6" /><line stroke="#ececec" stroke-width="0.7" x1="220.0" x2="1202.8" y1="329.2" y2="329.2" /><line stroke="#ececec" stroke-width="0.7" x1="220.0" x2="1202.8" y1="383.8" y2="383.8" /><line stroke="#ececec" stroke-width="0.7" x1="220.0" x2="1202.8" y1="438.4" y2="438.4" /><line stroke="#ececec" stroke-width="0.7" x1="220.0" x2="1202.8" y1="493.0" y2="493.0" /><line stroke="#ececec" stroke-width="0.7" x1="220.0" x2="1202.8" y1="547.6" y2="547.6" /><line stroke="#ececec" stroke-width="0.7" x1="220.0" x2="1202.8" y1="602.2" y2="602.2" /><line stroke="#ececec" stroke-width="0.7" x1="220.0" x2="1202.8" y1="656.8" y2="656.8" /><line stroke="#ececec" stroke-width="0.7" x1="220.0" x2="1202.8" y1="711.4" y2="711.4" /><line stroke="#ececec" stroke-width="0.7" x1="220.0" x2="1202.8" y1="766.0" y2="766.0" /><line stroke="#ececec" stroke-width="0.7" x1="220.0" x2="1202.8" y1="820.6" y2="820.6" /><line stroke="#ececec" stroke-width="0.7" x1="220.0" x2="1202.8" y1="875.2" y2="875.2" /><line stroke="#ececec" stroke-width="0.7" x1="220.0" x2="1202.8" y1="929.8" y2="929.8" /><line stroke="#ececec" stroke-width="0.7" x1="220.0" x2="1202.8" y1="984.4" y2="984.4" /><line stroke="#ececec" stroke-width="0.7" x1="220.0" x2="1202.8" y1="1039.0" y2="1039.0" /><line stroke="#ececec" stroke-width="0.7" x1="220.0" x2="1202.8" y1="1093.6" y2="1093.6" /><line stroke="#ececec" stroke-width="0.7" x1="220.0" x2="1202.8" y1="1148.2" y2="1148.2" /><line stroke="#ececec" stroke-width="0.7" x1="220.0" x2="1202.8" y1="1202.8" y2="1202.8" /><rect fill="none" height="982.8" stroke="#6a6a6a" stroke-dasharray="8,4" stroke-width="2" width="982.8" x="220.0" y="220.0" /><rect fill="none" height="982.8" stroke="#1f1f1f" stroke-width="3.5" width="982.8" x="220.0" y="220.0" /><text fill="#555555" font-size="10" x="222.0" y="160.0">Site Envelope = Building Footprint</text><rect fill="#d9f2ff" height="655.2" stroke="none" width="327.6" x="875.2" y="220.0" /><line stroke="#2f2f2f" stroke-width="2.2" x1="875.2" x2="1202.8" y1="220.0" y2="220.0" /><line stroke="#2f2f2f" stroke-width="2.2" x1="875.2" x2="1202.8" y1="875.2" y2="875.2" /><line stroke="#2f2f2f" stroke-width="2.2" x1="1202.8" x2="1202.8" y1="220.0" y2="875.2" /><line stroke="#2f2f2f" stroke-width="2.2" x1="875.2" x2="875.2" y1="220.0" y2="875.2" /><rect fill="#d9f2ff" height="327.6" stroke="none" width="546.0" x="656.8" y="875.2" /><line stroke="#2f2f2f" stroke-width="2.2" x1="656.8" x2="1202.8" y1="875.2" y2="875.2" /><line stroke="#2f2f2f" stroke-width="2.2" x1="656.8" x2="1202.8" y1="1202.8" y2="1202.8" /><line stroke="#2f2f2f" stroke-width="2.2" x1="656.8" x2="656.8" y1="875.2" y2="1202.8" /><line stroke="#2f2f2f" stroke-width="2.2" x1="1202.8" x2="1202.8" y1="875.2" y2="1202.8" /><rect fill="#d9f2ff" height="327.6" stroke="none" width="436.8" x="220.0" y="875.2" /><line stroke="#2f2f2f" stroke-width="2.2" x1="220.0" x2="656.8" y1="875.2" y2="875.2" /><line stroke="#2f2f2f" stroke-width="2.2" x1="220.0" x2="656.8" y1="1202.8" y2="1202.8" /><line stroke="#2f2f2f" stroke-width="2.2" x1="220.0" x2="220.0" y1="875.2" y2="1202.8" /><line stroke="#2f2f2f" stroke-width="2.2" x1="656.8" x2="656.8" y1="875.2" y2="1202.8" /><rect fill="#efe9ff" height="109.2" stroke="none" width="218.4" x="656.8" y="220.0" /><rect fill="#efe9ff" height="327.6" stroke="none" width="109.2" x="656.8" y="329.2" /><rect fill="#efe9ff" height="218.4" stroke="none" width="382.2" x="493.0" y="656.8" /><line stroke="#2f2f2f" stroke-width="2.2" x1="493.0" x2="875.2" y1="875.2" y2="875.2" /><line stroke="#2f2f2f" stroke-width="2.2" x1="656.8" x2="875.2" y1="220.0" y2="220.0" /><line stroke="#2f2f2f" stroke-width="2.2" x1="766.0" x2="875.2" y1="329.2" y2="329.2" /><line stroke="#2f2f2f" stroke-width="2.2" x1="493.0" x2="656.8" y1="656.8" y2="656.8" /><line stroke="#2f2f2f" stroke-width="2.2" x1="766.0" x2="875.2" y1="656.8" y2="656.8" /><line stroke="#2f2f2f" stroke-width="2.2" x1="656.8" x2="656.8" y1="220.0" y2="656.8" /><line stroke="#2f2f2f" stroke-width="2.2" x1="875.2" x2="875.2" y1="220.0" y2="329.2" /><line stroke="#2f2f2f" stroke-width="2.2" x1="875.2" x2="875.2" y1="656.8" y2="875.2" /><line stroke="#2f2f2f" stroke-width="2.2" x1="766.0" x2="766.0" y1="329.2" y2="656.8" /><line stroke="#2f2f2f" stroke-width="2.2" x1="493.0" x2="493.0" y1="656.8" y2="875.2" /><rect fill="#c5e8ff" height="436.8" stroke="none" width="436.8" x="220.0" y="220.0" /><line stroke="#2f2f2f" stroke-width="2.2" x1="220.0" x2="656.8" y1="220.0" y2="220.0" /><line stroke="#2f2f2f" stroke-width="2.2" x1="220.0" x2="656.8" y1="656.8" y2="656.8" /><line stroke="#2f2f2f" stroke-width="2.2" x1="220.0" x2="220.0" y1="220.0" y2="656.8" /><line stroke="#2f2f2f" stroke-width="2.2" x1="656.8" x2="656.8" y1="220.0" y2="656.8" /><rect fill="#f0f0f0" height="218.4" stroke="none" width="273.0" x="220.0" y="656.8" /><line stroke="#2f2f2f" stroke-width="2.2" x1="220.0" x2="493.0" y1="875.2" y2="875.2" /><line stroke="#2f2f2f" stroke-width="2.2" x1="220.0" x2="493.0" y1="656.8" y2="656.8" /><line stroke="#2f2f2f" stroke-width="2.2" x1="220.0" x2="220.0" y1="656.8" y2="875.2" /><line stroke="#2f2f2f" stroke-width="2.2" x1="493.0" x2="493.0" y1="656.8" y2="875.2" /><rect fill="none" height="148.512" stroke="#7f7f7f" stroke-width="1.1" width="218.4" x="329.2" y="298.624" /><line stroke="#7f7f7f" stroke-width="0.9" x1="329.2" x2="547.6" y1="350.6032" y2="350.6032" /><rect fill="none" height="163.8" stroke="#7f7f7f" stroke-width="1.1" width="183.456" x="947.272" y="337.936" /><line stroke="#7f7f7f" stroke-width="0.9" x1="947.272" x2="1130.728" y1="395.266" y2="395.266" /><rect fill="none" height="111.384" stroke="#7f7f7f" stroke-width="1.1" width="218.4" x="820.6" y="934.168" /><line stroke="#7f7f7f" stroke-width="0.9" x1="820.6" x2="1039.0" y1="973.1524" y2="973.1524" /><rect fill="none" height="111.384" stroke="#7f7f7f" stroke-width="1.1" width="218.4" x="329.2" y="934.168" /><line stroke="#7f7f7f" stroke-width="0.9" x1="329.2" x2="547.6" y1="973.1524" y2="973.1524" /><line stroke="#9a9a9a" stroke-width="0.9" x1="252.76" x2="460.24" y1="696.112" y2="696.112" /><line stroke="#9a9a9a" stroke-width="0.9" x1="252.76" x2="460.24" y1="835.888" y2="835.888" /><rect fill="#ffffff" height="327.6" stroke="#202020" stroke-dasharray="8,4" stroke-width="2.6" width="109.2" x="766.0" y="329.2" /><line stroke="#2a2a2a" stroke-width="1.4" x1="779.104" x2="862.096" y1="354.4" y2="354.4" /><line stroke="#2a2a2a" stroke-width="1.4" x1="779.104" x2="862.096" y1="379.6" y2="379.6" /><line stroke="#2a2a2a" stroke-width="1.4" x1="779.104" x2="862.096" y1="404.8" y2="404.8" /><line stroke="#2a2a2a" stroke-width="1.4" x1="779.104" x2="862.096" y1="430.0" y2="430.0" /><line stroke="#2a2a2a" stroke-width="1.4" x1="779.104" x2="862.096" y1="455.2" y2="455.2" /><line stroke="#2a2a2a" stroke-width="1.4" x1="779.104" x2="862.096" y1="480.4" y2="480.4" /><line stroke="#2a2a2a" stroke-width="1.4" x1="779.104" x2="862.096" y1="505.6" y2="505.6" /><line stroke="#2a2a2a" stroke-width="1.4" x1="779.104" x2="862.096" y1="530.8" y2="530.8" /><line stroke="#2a2a2a" stroke-width="1.4" x1="779.104" x2="862.096" y1="556.0" y2="556.0" /><line stroke="#2a2a2a" stroke-width="1.4" x1="779.104" x2="862.096" y1="581.2" y2="581.2" /><line stroke="#2a2a2a" stroke-width="1.4" x1="779.104" x2="862.096" y1="606.4" y2="606.4" /><line stroke="#2a2a2a" stroke-width="1.4" x1="779.104" x2="862.096" y1="631.6" y2="631.6" /><text fill="#202020" font-size="11" text-anchor="middle" x="820.6" y="493.0">Stair (DN)</text><text fill="#3a3a3a" font-size="9.0" text-anchor="middle" x="820.6" y="507.4">13R/12T</text><text fill="#4a4a4a" font-size="7.8" text-anchor="middle" x="820.6" y="515.8">H2730 R210 T228</text><line stroke="#ffffff" stroke-width="7" x1="766.0" x2="875.2" y1="656.8" y2="656.8" /><line stroke="#5e5e5e" stroke-width="1.0" x1="766.0" x2="875.2" y1="656.8" y2="656.8" /><line stroke="#ffffff" stroke-width="6" x1="656.8" x2="656.8" y1="434.2" y2="551.8" /><line stroke="#595959" stroke-width="1.2" x1="656.8" x2="580.36" y1="434.2" y2="510.64" /><path d="M 656.8,510.64 A 76.44,76.44 0 0 1 580.36,510.64" fill="none" stroke="#7a7a7a" stroke-width="1.0" /><line stroke="#ffffff" stroke-width="6" x1="875.2" x2="875.2" y1="716.86" y2="815.14" /><line stroke="#595959" stroke-width="1.2" x1="875.2" x2="939.082" y1="716.86" y2="780.742" /><path d="M 875.1999999999999,780.7420000000001 A 63.882,63.882 0 0 1 939.082,780.7420000000001" fill="none" stroke="#7a7a7a" stroke-width="1.0" /><line stroke="#ffffff" stroke-width="6" x1="716.86" x2="815.14" y1="875.2" y2="875.2" /><line stroke="#ffffff" stroke-width="6" x1="529.3" x2="620.5" y1="875.2" y2="875.2" /><line stroke="#ffffff" stroke-width="6" x1="980.2" x2="1097.8" y1="875.2" y2="875.2" /><line stroke="#ffffff" stroke-width="6" x1="656.8" x2="656.8" y1="980.2" y2="1097.8" /><line stroke="#595959" stroke-width="1.2" x1="656.8" x2="733.24" y1="980.2" y2="1056.64" /><path d="M 656.8,1056.6399999999999 A 76.44,76.44 0 0 1 733.24,1056.6399999999999" fill="none" stroke="#7a7a7a" stroke-width="1.0" /><line stroke="#ffffff" stroke-width="6" x1="297.7" x2="415.3" y1="656.8" y2="656.8" /><line stroke="#595959" stroke-width="1.2" x1="297.7" x2="374.14" y1="656.8" y2="580.36" /><path d="M 374.14,656.8 A 76.44,76.44 0 0 1 374.14,580.36" fill="none" stroke="#7a7a7a" stroke-width="1.0" /><line stroke="#66a7ff" stroke-width="2.2" x1="217.36" x2="217.36" y1="268.084" y2="416.524" /><line stroke="#66a7ff" stroke-width="2.2" x1="222.64" x2="222.64" y1="268.084" y2="416.524" /><line stroke="#66a7ff" stroke-width="2.2" x1="217.36" x2="217.36" y1="460.276" y2="608.716" /><line stroke="#66a7ff" stroke-width="2.2" x1="222.64" x2="222.64" y1="460.276" y2="608.716" /><line stroke="#66a7ff" stroke-width="2.2" x1="268.084" x2="416.524" y1="217.36" y2="217.36" /><line stroke="#66a7ff" stroke-width="2.2" x1="268.084" x2="416.524" y1="222.64" y2="222.64" /><line stroke="#66a7ff" stroke-width="2.2" x1="460.276" x2="608.716" y1="217.36" y2="217.36" /><line stroke="#66a7ff" stroke-width="2.2" x1="460.276" x2="608.716" y1="222.64" y2="222.64" /><line stroke="#66a7ff" stroke-width="2.2" x1="1200.16" x2="1200.16" y1="307.456" y2="499.456" /><line stroke="#66a7ff" stroke-width="2.2" x1="1205.44" x2="1205.44" y1="307.456" y2="499.456" /><line stroke="#66a7ff" stroke-width="2.2" x1="1200.16" x2="1200.16" y1="595.744" y2="787.744" /><line stroke="#66a7ff" stroke-width="2.2" x1="1205.44" x2="1205.44" y1="595.744" y2="787.744" /><line stroke="#66a7ff" stroke-width="2.2" x1="983.32" x2="1094.68" y1="217.36" y2="217.36" /><line stroke="#66a7ff" stroke-width="2.2" x1="983.32" x2="1094.68" y1="222.64" y2="222.64" /><line stroke="#66a7ff" stroke-width="2.2" x1="1200.16" x2="1200.16" y1="983.32" y2="1094.68" /><line stroke="#66a7ff" stroke-width="2.2" x1="1205.44" x2="1205.44" y1="983.32" y2="1094.68" /><line stroke="#66a7ff" stroke-width="2.2" x1="716.86" x2="902.5" y1="1200.16" y2="1200.16" /><line stroke="#66a7ff" stroke-width="2.2" x1="716.86" x2="902.5" y1="1205.44" y2="1205.44" /><line stroke="#66a7ff" stroke-width="2.2" x1="957.1" x2="1142.74" y1="1200.16" y2="1200.16" /><line stroke="#66a7ff" stroke-width="2.2" x1="957.1" x2="1142.74" y1="1205.44" y2="1205.44" /><line stroke="#66a7ff" stroke-width="2.2" x1="217.36" x2="217.36" y1="983.32" y2="1094.68" /><line stroke="#66a7ff" stroke-width="2.2" x1="222.64" x2="222.64" y1="983.32" y2="1094.68" /><line stroke="#66a7ff" stroke-width="2.2" x1="268.084" x2="416.524" y1="1200.16" y2="1200.16" /><line stroke="#66a7ff" stroke-width="2.2" x1="268.084" x2="416.524" y1="1205.44" y2="1205.44" /><line stroke="#66a7ff" stroke-width="2.2" x1="460.276" x2="608.716" y1="1200.16" y2="1200.16" /><line stroke="#66a7ff" stroke-width="2.2" x1="460.276" x2="608.716" y1="1205.44" y2="1205.44" /><line stroke="#9a9a9a" stroke-width="0.8" x1="665.2" x2="757.6" y1="337.6" y2="337.6" /><line stroke="#9a9a9a" stroke-width="0.8" x1="665.2" x2="665.2" y1="334.24" y2="340.96" /><line stroke="#9a9a9a" stroke-width="0.8" x1="757.6" x2="757.6" y1="334.24" y2="340.96" /><text fill="#8a8a8a" font-size="7.6" text-anchor="start" x="671.92" y="334.96">910mm</text><line stroke="#9a9a9a" stroke-width="0.8" x1="665.2" x2="665.2" y1="337.6" y2="648.4" /><line stroke="#9a9a9a" stroke-width="0.8" x1="661.84" x2="668.56" y1="337.6" y2="337.6" /><line stroke="#9a9a9a" stroke-width="0.8" x1="661.84" x2="668.56" y1="648.4" y2="648.4" /><text fill="#8a8a8a" font-size="7.6" text-anchor="start" x="669.28" y="345.28">2730mm</text><line stroke="#9a9a9a" stroke-width="0.8" x1="501.4" x2="866.8" y1="665.2" y2="665.2" /><line stroke="#9a9a9a" stroke-width="0.8" x1="501.4" x2="501.4" y1="661.84" y2="668.56" /><line stroke="#9a9a9a" stroke-width="0.8" x1="866.8" x2="866.8" y1="661.84" y2="668.56" /><text fill="#8a8a8a" font-size="7.6" text-anchor="start" x="508.12" y="662.56">3185mm</text><line stroke="#9a9a9a" stroke-width="0.8" x1="501.4" x2="501.4" y1="665.2" y2="866.8" /><line stroke="#9a9a9a" stroke-width="0.8" x1="498.04" x2="504.76" y1="665.2" y2="665.2" /><line stroke="#9a9a9a" stroke-width="0.8" x1="498.04" x2="504.76" y1="866.8" y2="866.8" /><text fill="#8a8a8a" font-size="7.6" text-anchor="start" x="505.47999999999996" y="672.88">1820mm</text><text fill="#1b1b1b" font-size="10" text-anchor="middle" x="1039.0" y="533.2">Bedroom 2</text><text fill="#1b1b1b" font-size="10" text-anchor="middle" x="1039.0" y="544.0">2730x5460mm</text><text fill="#1b1b1b" font-size="10" text-anchor="middle" x="1039.0" y="554.8">14.9sqm / 9.2jo</text><text fill="#1b1b1b" font-size="10" text-anchor="middle" x="929.8" y="1024.6">Bedroom 3</text><text fill="#1b1b1b" font-size="10" text-anchor="middle" x="929.8" y="1035.4">4550x2730mm</text><text fill="#1b1b1b" font-size="10" text-anchor="middle" x="929.8" y="1046.1999999999998">12.4sqm / 7.7jo</text><text fill="#1b1b1b" font-size="10" text-anchor="middle" x="438.4" y="1024.6">Bedroom 4</text><text fill="#1b1b1b" font-size="10" text-anchor="middle" x="438.4" y="1035.4">3640x2730mm</text><text fill="#1b1b1b" font-size="10" text-anchor="middle" x="438.4" y="1046.1999999999998">9.9sqm / 6.1jo</text><text fill="#1b1b1b" font-size="9" text-anchor="middle" x="704.575" y="601.45">Hall 2</text><text fill="#1b1b1b" font-size="9" text-anchor="middle" x="704.575" y="612.25">9.9sqm / 6.1jo</text><text fill="#1b1b1b" font-size="10" text-anchor="middle" x="438.4" y="424.0">Master</text><text fill="#1b1b1b" font-size="10" text-anchor="middle" x="438.4" y="434.79999999999995">3640x3640mm</text><text fill="#1b1b1b" font-size="10" text-anchor="middle" x="438.4" y="445.6">13.2sqm / 8.2jo</text><text fill="#1b1b1b" font-size="10" text-anchor="middle" x="356.5" y="751.6">Storage 2</text><text fill="#1b1b1b" font-size="10" text-anchor="middle" x="356.5" y="762.4">2275x1820mm</text><text fill="#1b1b1b" font-size="10" text-anchor="middle" x="356.5" y="773.1999999999999">4.1sqm / 2.6jo</text><text fill="#111111" font-size="14" x="220.0" y="180.0">F2 Plan  (8190 x 8190 mm)</text><text fill="#444444" font-size="10" x="220.0" y="198.0">Scale: 1px=8.3mm</text><rect fill="#ffffff" height="126" stroke="#777777" stroke-width="1" width="170" x="1290.8" y="150.0" /><text fill="#111111" font-size="11" x="1298.8" y="164.0">Legend</text><rect fill="#efe9ff" height="12" stroke="#333333" stroke-width="1" width="12" x="1298.8" y="174.0" /><text fill="#222222" font-size="10" x="1316.8" y="184.0">Hall</text><rect fill="#c5e8ff" height="12" stroke="#333333" stroke-width="1" width="12" x="1298.8" y="192.0" /><text fill="#222222" font-size="10" x="1316.8" y="202.0">Master Bedroom</text><rect fill="#d9f2ff" height="12" stroke="#333333" stroke-width="1" width="12" x="1298.8" y="210.0" /><text fill="#222222" font-size="10" x="1316.8" y="220.0">Bedroom</text><rect fill="#f0f0f0" height="12" stroke="#333333" stroke-width="1" width="12" x="1298.8" y="228.0" /><text fill="#222222" font-size="10" x="1316.8" y="238.0">Storage</text><line stroke="#6aa4ff" stroke-width="4" x1="1298.8" x2="1325.8" y1="258.0" y2="258.0" /><text fill="#222222" font-size="10" x="1332.8" y="261.0">Window</text><line stroke="#666666" stroke-width="2.4" x1="1298.8" x2="1325.8" y1="274.0" y2="274.0" /><path d="M 1298.8,274.0 A 10,10 0 0 1 1308.8,264.0" fill="none" stroke="#666666" stroke-width="1.2" /><text fill="#222222" font-size="10" x="1332.8" y="277.0">Door</text><rect fill="#ffffff" height="68" stroke="#777777" stroke-width="1" width="200" x="1290.8" y="520.0" /><text fill="#111111" font-size="10" x="1298.8" y="533.0">Area (F2)</text><text fill="#222222" font-size="9" x="1298.8" y="550.0">F1: 67.1 sqm (20.3 tsubo)</text><text fill="#222222" font-size="9" x="1298.8" y="566.0">F2: 67.1 sqm (20.3 tsubo)</text><text fill="#222222" font-size="9" x="1298.8" y="582.0">Total: 134.2 sqm (40.6 tsubo)</text><line stroke="#111111" stroke-width="2" x1="175.0" x2="175.0" y1="238.0" y2="208.0" /><polygon fill="#111111" points="175.0,208.0 181.0,214.0 169.0,214.0" /><text fill="#111111" font-size="12" x="170.0" y="202.0">N</text><line stroke="#545454" stroke-width="1.0" x1="220.0" x2="1202.8" y1="148.0" y2="148.0" /><line stroke="#545454" stroke-width="0.8" x1="220.0" x2="220.0" y1="220.0" y2="148.0" /><line stroke="#545454" stroke-width="1.0" x1="220.0" x2="220.0" y1="145.0" y2="151.0" /><line stroke="#545454" stroke-width="0.8" x1="1202.8" x2="1202.8" y1="220.0" y2="148.0" /><line stroke="#545454" stroke-width="1.0" x1="1202.8" x2="1202.8" y1="145.0" y2="151.0" /><text fill="#545454" font-size="8.8" text-anchor="middle" x="711.4" y="145.0">8190mm</text><line stroke="#666666" stroke-width="1.0" x1="220.0" x2="1202.8" y1="166.0" y2="166.0" /><line stroke="#666666" stroke-width="0.8" x1="220.0" x2="220.0" y1="220.0" y2="166.0" /><line stroke="#666666" stroke-width="1.0" x1="220.0" x2="220.0" y1="163.0" y2="169.0" /><line stroke="#666666" stroke-width="0.8" x1="656.8" x2="656.8" y1="220.0" y2="166.0" /><line stroke="#666666" stroke-width="1.0" x1="656.8" x2="656.8" y1="163.0" y2="169.0" /><line stroke="#666666" stroke-width="0.8" x1="875.2" x2="875.2" y1="220.0" y2="166.0" /><line stroke="#666666" stroke-width="1.0" x1="875.2" x2="875.2" y1="163.0" y2="169.0" /><line stroke="#666666" stroke-width="0.8" x1="1202.8" x2="1202.8" y1="220.0" y2="166.0" /><line stroke="#666666" stroke-width="1.0" x1="1202.8" x2="1202.8" y1="163.0" y2="169.0" /><text fill="#666666" font-size="8.2" text-anchor="middle" x="438.4" y="163.0">3640</text><text fill="#666666" font-size="8.2" text-anchor="middle" x="766.0" y="163.0">1820</text><text fill="#666666" font-size="8.2" text-anchor="middle" x="1039.0" y="163.0">2730</text><line stroke="#7a7a7a" stroke-width="1.0" x1="220.0" x2="1202.8" y1="184.0" y2="184.0" /><line stroke="#7a7a7a" stroke-width="0.8" x1="220.0" x2="220.0" y1="220.0" y2="184.0" /><line stroke="#7a7a7a" stroke-width="1.0" x1="220.0" x2="220.0" y1="181.0" y2="187.0" /><line stroke="#7a7a7a" stroke-width="0.8" x1="274.6" x2="274.6" y1="220.0" y2="184.0" /><line stroke="#7a7a7a" stroke-width="1.0" x1="274.6" x2="274.6" y1="181.0" y2="187.0" /><line stroke="#7a7a7a" stroke-width="0.8" x1="438.4" x2="438.4" y1="220.0" y2="184.0" /><line stroke="#7a7a7a" stroke-width="1.0" x1="438.4" x2="438.4" y1="181.0" y2="187.0" /><line stroke="#7a7a7a" stroke-width="0.8" x1="602.2" x2="602.2" y1="220.0" y2="184.0" /><line stroke="#7a7a7a" stroke-width="1.0" x1="602.2" x2="602.2" y1="181.0" y2="187.0" /><line stroke="#7a7a7a" stroke-width="0.8" x1="984.4" x2="984.4" y1="220.0" y2="184.0" /><line stroke="#7a7a7a" stroke-width="1.0" x1="984.4" x2="984.4" y1="181.0" y2="187.0" /><line stroke="#7a7a7a" stroke-width="0.8" x1="1093.6" x2="1093.6" y1="220.0" y2="184.0" /><line stroke="#7a7a7a" stroke-width="1.0" x1="1093.6" x2="1093.6" y1="181.0" y2="187.0" /><line stroke="#7a7a7a" stroke-width="0.8" x1="1202.8" x2="1202.8" y1="220.0" y2="184.0" /><line stroke="#7a7a7a" stroke-width="1.0" x1="1202.8" x2="1202.8" y1="181.0" y2="187.0" /><text fill="#7a7a7a" font-size="7.8" text-anchor="middle" x="356.5" y="181.0">1365</text><text fill="#7a7a7a" font-size="7.8" text-anchor="middle" x="520.3" y="181.0">1365</text><text fill="#7a7a7a" font-size="7.8" text-anchor="middle" x="793.3" y="181.0">3185</text><text fill="#7a7a7a" font-size="7.8" text-anchor="middle" x="1039.0" y="181.0">910</text><text fill="#7a7a7a" font-size="7.8" text-anchor="middle" x="1148.1999999999998" y="181.0">910</text><line stroke="#545454" stroke-width="1.0" x1="220.0" x2="1202.8" y1="1274.8" y2="1274.8" /><line stroke="#545454" stroke-width="0.8" x1="220.0" x2="220.0" y1="1202.8" y2="1274.8" /><line stroke="#545454" stroke-width="1.0" x1="220.0" x2="220.0" y1="1271.8" y2="1277.8" /><line stroke="#545454" stroke-width="0.8" x1="1202.8" x2="1202.8" y1="1202.8" y2="1274.8" /><line stroke="#545454" stroke-width="1.0" x1="1202.8" x2="1202.8" y1="1271.8" y2="1277.8" /><text fill="#545454" font-size="8.8" text-anchor="middle" x="711.4" y="1284.8">8190mm</text><line stroke="#666666" stroke-width="1.0" x1="220.0" x2="1202.8" y1="1256.8" y2="1256.8" /><line stroke="#666666" stroke-width="0.8" x1="220.0" x2="220.0" y1="1202.8" y2="1256.8" /><line stroke="#666666" stroke-width="1.0" x1="220.0" x2="220.0" y1="1253.8" y2="1259.8" /><line stroke="#666666" stroke-width="0.8" x1="656.8" x2="656.8" y1="1202.8" y2="1256.8" /><line stroke="#666666" stroke-width="1.0" x1="656.8" x2="656.8" y1="1253.8" y2="1259.8" /><line stroke="#666666" stroke-width="0.8" x1="1202.8" x2="1202.8" y1="1202.8" y2="1256.8" /><line stroke="#666666" stroke-width="1.0" x1="1202.8" x2="1202.8" y1="1253.8" y2="1259.8" /><text fill="#666666" font-size="8.2" text-anchor="middle" x="438.4" y="1266.8">3640</text><text fill="#666666" font-size="8.2" text-anchor="middle" x="929.8" y="1266.8">4550</text><line stroke="#7a7a7a" stroke-width="1.0" x1="220.0" x2="1202.8" y1="1238.8" y2="1238.8" /><line stroke="#7a7a7a" stroke-width="0.8" x1="220.0" x2="220.0" y1="1202.8" y2="1238.8" /><line stroke="#7a7a7a" stroke-width="1.0" x1="220.0" x2="220.0" y1="1235.8" y2="1241.8" /><line stroke="#7a7a7a" stroke-width="0.8" x1="274.6" x2="274.6" y1="1202.8" y2="1238.8" /><line stroke="#7a7a7a" stroke-width="1.0" x1="274.6" x2="274.6" y1="1235.8" y2="1241.8" /><line stroke="#7a7a7a" stroke-width="0.8" x1="438.4" x2="438.4" y1="1202.8" y2="1238.8" /><line stroke="#7a7a7a" stroke-width="1.0" x1="438.4" x2="438.4" y1="1235.8" y2="1241.8" /><line stroke="#7a7a7a" stroke-width="0.8" x1="602.2" x2="602.2" y1="1202.8" y2="1238.8" /><line stroke="#7a7a7a" stroke-width="1.0" x1="602.2" x2="602.2" y1="1235.8" y2="1241.8" /><line stroke="#7a7a7a" stroke-width="0.8" x1="711.4" x2="711.4" y1="1202.8" y2="1238.8" /><line stroke="#7a7a7a" stroke-width="1.0" x1="711.4" x2="711.4" y1="1235.8" y2="1241.8" /><line stroke="#7a7a7a" stroke-width="0.8" x1="929.8" x2="929.8" y1="1202.8" y2="1238.8" /><line stroke="#7a7a7a" stroke-width="1.0" x1="929.8" x2="929.8" y1="1235.8" y2="1241.8" /><line stroke="#7a7a7a" stroke-width="0.8" x1="1148.2" x2="1148.2" y1="1202.8" y2="1238.8" /><line stroke="#7a7a7a" stroke-width="1.0" x1="1148.2" x2="1148.2" y1="1235.8" y2="1241.8" /><line stroke="#7a7a7a" stroke-width="0.8" x1="1202.8" x2="1202.8" y1="1202.8" y2="1238.8" /><line stroke="#7a7a7a" stroke-width="1.0" x1="1202.8" x2="1202.8" y1="1235.8" y2="1241.8" /><text fill="#7a7a7a" font-size="7.8" text-anchor="middle" x="356.5" y="1248.8">1365</text><text fill="#7a7a7a" font-size="7.8" text-anchor="middle" x="520.3" y="1248.8">1365</text><text fill="#7a7a7a" font-size="7.8" text-anchor="middle" x="656.8" y="1248.8">910</text><text fill="#7a7a7a" font-size="7.8" text-anchor="middle" x="820.6" y="1248.8">1820</text><text fill="#7a7a7a" font-size="7.8" text-anchor="middle" x="1039.0" y="1248.8">1820</text><line stroke="#545454" stroke-width="1.0" x1="148.0" x2="148.0" y1="220.0" y2="1202.8" /><line stroke="#545454" stroke-width="0.8" x1="220.0" x2="148.0" y1="220.0" y2="220.0" /><line stroke="#545454" stroke-width="1.0" x1="145.0" x2="151.0" y1="220.0" y2="220.0" /><line stroke="#545454" stroke-width="0.8" x1="220.0" x2="148.0" y1="1202.8" y2="1202.8" /><line stroke="#545454" stroke-width="1.0" x1="145.0" x2="151.0" y1="1202.8" y2="1202.8" /><text fill="#545454" font-size="8.8" x="144.0" y="711.4">8190mm</text><line stroke="#666666" stroke-width="1.0" x1="166.0" x2="166.0" y1="220.0" y2="1202.8" /><line stroke="#666666" stroke-width="0.8" x1="220.0" x2="166.0" y1="220.0" y2="220.0" /><line stroke="#666666" stroke-width="1.0" x1="163.0" x2="169.0" y1="220.0" y2="220.0" /><line stroke="#666666" stroke-width="0.8" x1="220.0" x2="166.0" y1="656.8" y2="656.8" /><line stroke="#666666" stroke-width="1.0" x1="163.0" x2="169.0" y1="656.8" y2="656.8" /><line stroke="#666666" stroke-width="0.8" x1="220.0" x2="166.0" y1="875.2" y2="875.2" /><line stroke="#666666" stroke-width="1.0" x1="163.0" x2="169.0" y1="875.2" y2="875.2" /><line stroke="#666666" stroke-width="0.8" x1="220.0" x2="166.0" y1="1202.8" y2="1202.8" /><line stroke="#666666" stroke-width="1.0" x1="163.0" x2="169.0" y1="1202.8" y2="1202.8" /><text fill="#666666" font-size="8.2" x="162.0" y="438.4">3640</text><text fill="#666666" font-size="8.2" x="162.0" y="766.0">1820</text><text fill="#666666" font-size="8.2" x="162.0" y="1039.0">2730</text><line stroke="#7a7a7a" stroke-width="1.0" x1="184.0" x2="184.0" y1="220.0" y2="1202.8" /><line stroke="#7a7a7a" stroke-width="0.8" x1="220.0" x2="184.0" y1="220.0" y2="220.0" /><line stroke="#7a7a7a" stroke-width="1.0" x1="181.0" x2="187.0" y1="220.0" y2="220.0" /><line stroke="#7a7a7a" stroke-width="0.8" x1="220.0" x2="184.0" y1="274.6" y2="274.6" /><line stroke="#7a7a7a" stroke-width="1.0" x1="181.0" x2="187.0" y1="274.6" y2="274.6" /><line stroke="#7a7a7a" stroke-width="0.8" x1="220.0" x2="184.0" y1="438.4" y2="438.4" /><line stroke="#7a7a7a" stroke-width="1.0" x1="181.0" x2="187.0" y1="438.4" y2="438.4" /><line stroke="#7a7a7a" stroke-width="0.8" x1="220.0" x2="184.0" y1="602.2" y2="602.2" /><line stroke="#7a7a7a" stroke-width="1.0" x1="181.0" x2="187.0" y1="602.2" y2="602.2" /><line stroke="#7a7a7a" stroke-width="0.8" x1="220.0" x2="184.0" y1="984.4" y2="984.4" /><line stroke="#7a7a7a" stroke-width="1.0" x1="181.0" x2="187.0" y1="984.4" y2="984.4" /><line stroke="#7a7a7a" stroke-width="0.8" x1="220.0" x2="184.0" y1="1093.6" y2="1093.6" /><line stroke="#7a7a7a" stroke-width="1.0" x1="181.0" x2="187.0" y1="1093.6" y2="1093.6" /><line stroke="#7a7a7a" stroke-width="0.8" x1="220.0" x2="184.0" y1="1202.8" y2="1202.8" /><line stroke="#7a7a7a" stroke-width="1.0" x1="181.0" x2="187.0" y1="1202.8" y2="1202.8" /><text fill="#7a7a7a" font-size="7.8" x="180.0" y="356.5">1365</text><text fill="#7a7a7a" font-size="7.8" x="180.0" y="520.3">1365</text><text fill="#7a7a7a" font-size="7.8" x="180.0" y="793.3">3185</text><text fill="#7a7a7a" font-size="7.8" x="180.0" y="1039.0">910</text><text fill="#7a7a7a" font-size="7.8" x="180.0" y="1148.1999999999998">910</text><line stroke="#545454" stroke-width="1.0" x1="1274.8" x2="1274.8" y1="220.0" y2="1202.8" /><line stroke="#545454" stroke-width="0.8" x1="1202.8" x2="1274.8" y1="220.0" y2="220.0" /><line stroke="#545454" stroke-width="1.0" x1="1271.8" x2="1277.8" y1="220.0" y2="220.0" /><line stroke="#545454" stroke-width="0.8" x1="1202.8" x2="1274.8" y1="1202.8" y2="1202.8" /><line stroke="#545454" stroke-width="1.0" x1="1271.8" x2="1277.8" y1="1202.8" y2="1202.8" /><text fill="#545454" font-size="8.8" x="1279.8" y="711.4">8190mm</text><line stroke="#666666" stroke-width="1.0" x1="1256.8" x2="1256.8" y1="220.0" y2="1202.8" /><line stroke="#666666" stroke-width="0.8" x1="1202.8" x2="1256.8" y1="220.0" y2="220.0" /><line stroke="#666666" stroke-width="1.0" x1="1253.8" x2="1259.8" y1="220.0" y2="220.0" /><line stroke="#666666" stroke-width="0.8" x1="1202.8" x2="1256.8" y1="875.2" y2="875.2" /><line stroke="#666666" stroke-width="1.0" x1="1253.8" x2="1259.8" y1="875.2" y2="875.2" /><line stroke="#666666" stroke-width="0.8" x1="1202.8" x2="1256.8" y1="1202.8" y2="1202.8" /><line stroke="#666666" stroke-width="1.0" x1="1253.8" x2="1259.8" y1="1202.8" y2="1202.8" /><text fill="#666666" font-size="8.2" x="1261.8" y="547.5999999999999">5460</text><text fill="#666666" font-size="8.2" x="1261.8" y="1039.0">2730</text><line stroke="#7a7a7a" stroke-width="1.0" x1="1238.8" x2="1238.8" y1="220.0" y2="1202.8" /><line stroke="#7a7a7a" stroke-width="0.8" x1="1202.8" x2="1238.8" y1="220.0" y2="220.0" /><line stroke="#7a7a7a" stroke-width="1.0" x1="1235.8" x2="1241.8" y1="220.0" y2="220.0" /><line stroke="#7a7a7a" stroke-width="0.8" x1="1202.8" x2="1238.8" y1="329.2" y2="329.2" /><line stroke="#7a7a7a" stroke-width="1.0" x1="1235.8" x2="1241.8" y1="329.2" y2="329.2" /><line stroke="#7a7a7a" stroke-width="0.8" x1="1202.8" x2="1238.8" y1="493.0" y2="493.0" /><line stroke="#7a7a7a" stroke-width="1.0" x1="1235.8" x2="1241.8" y1="493.0" y2="493.0" /><line stroke="#7a7a7a" stroke-width="0.8" x1="1202.8" x2="1238.8" y1="602.2" y2="602.2" /><line stroke="#7a7a7a" stroke-width="1.0" x1="1235.8" x2="1241.8" y1="602.2" y2="602.2" /><line stroke="#7a7a7a" stroke-width="0.8" x1="1202.8" x2="1238.8" y1="766.0" y2="766.0" /><line stroke="#7a7a7a" stroke-width="1.0" x1="1235.8" x2="1241.8" y1="766.0" y2="766.0" /><line stroke="#7a7a7a" stroke-width="0.8" x1="1202.8" x2="1238.8" y1="984.4" y2="984.4" /><line stroke="#7a7a7a" stroke-width="1.0" x1="1235.8" x2="1241.8" y1="984.4" y2="984.4" /><line stroke="#7a7a7a" stroke-width="0.8" x1="1202.8" x2="1238.8" y1="1093.6" y2="1093.6" /><line stroke="#7a7a7a" stroke-width="1.0" x1="1235.8" x2="1241.8" y1="1093.6" y2="1093.6" /><line stroke="#7a7a7a" stroke-width="0.8" x1="1202.8" x2="1238.8" y1="1202.8" y2="1202.8" /><line stroke="#7a7a7a" stroke-width="1.0" x1="1235.8" x2="1241.8" y1="1202.8" y2="1202.8" /><text fill="#7a7a7a" font-size="7.8" x="1243.8" y="274.6">910</text><text fill="#7a7a7a" font-size="7.8" x="1243.8" y="411.1">1365</text><text fill="#7a7a7a" font-size="7.8" x="1243.8" y="547.5999999999999">910</text><text fill="#7a7a7a" font-size="7.8" x="1243.8" y="684.0999999999999">1365</text><text fill="#7a7a7a" font-size="7.8" x="1243.8" y="875.1999999999999">1820</text><text fill="#7a7a7a" font-size="7.8" x="1243.8" y="1039.0">910</text><text fill="#7a7a7a" font-size="7.8" x="1243.8" y="1148.1999999999998">910</text></svg>