<?xml version="1.0" encoding="utf-8" ?>
<svg baseProfile="tiny" height="1422.8px" version="1.2" width="1422.8px" xmlns="http://www.w3.org/2000/svg" xmlns:ev="http://www.w3.org/2001/xml-events" xmlns:xlink="http://www.w3.org/1999/xlink"><defs /><rect fill="#fafafa" height="1422.8" width="1422.8" x="0" y="0" /><line stroke="#ececec" stroke-width="0.7" x1="220.0" x2="220.0" y1="220.0" y2="1202.8" /><line stroke="#ececec" stroke-width="0.7" x1="274.6" x2="274.6" y1="220.0" y2="1202.8" /><line stroke="#ececec" stroke-width="0.7" x1="329.2" x2="329.2" y1="220.0" y2="1202.8" /><line stroke="#ececec" stroke-width="0.7" x1="383.8" x2="383.8" y1="220.0" y2="1202.8" /><line stroke="#ececec" stroke-width="0.7" x1="438.4" x2="438.4" y1="220.0" y2="1202.8" /><line stroke="#ececec" stroke-width="0.7" x1="493.0" x2="493.0" y1="220.0" y2="1202.8" /><line stroke="#ececec" stroke-width="0.7" x1="547.6" x2="547.6" y1="220.0" y2="1202.8" /><line stroke="#ececec" stroke-width="0.7" x1="602.2" x2="602.2" y1="220.0" y2="1202.8" /><line stroke="#ececec" stroke-width="0.7" x1="656.8" x2="656.8" y1="220.0" y2="1202.8" /><line stroke="#ececec" stroke-width="0.7" x1="711.4" x2="711.4" y1="220.0" y2="1202.8" /><line stroke="#ececec" stroke-width="0.7" x1="766.0" x2="766.0" y1="220.0" y2="1202.8" /><line stroke="#ececec" stroke-width="0.7" x1="820.6" x2="820.6" y1="220.0" y2="1202.8" /><line stroke="#ececec" stroke-width="0.7" x1="875.2" x2="875.2" y1="220.0" y2="1202.8" /><line stroke="#ececec" stroke-width="0.7" x1="929.8" x2="929.8" y1="220.0" y2="1202.8" /><line stroke="#ececec" stroke-width="0.7" x1="984.4" x2="984.4" y1="220.0" y2="1202.8" /><line stroke="#ececec" stroke-width="0.7" x1="1039.0" x2="1039.0" y1="220.0" y2="1202.8" /><line stroke="#ececec" stroke-width="0.7" x1="1093.6" x2="1093.6" y1="220.0" y2="1202.8" /><line stroke="#ececec" stroke-width="0.7" x1="1148.2" x2="1148.2" y1="220.0" y2="1202.8" /><line stroke="#ececec" stroke-width="0.7" x1="1202.8" x2="1202.8" y1="220.0" y2="1202.8" /><line stroke="#d1d1d1" stroke-width="1.1" x1="220.0" x2="220.0" y1="220.0" y2="1202.8" /><line stroke="#d1d1d1" stroke-width="1.1" x1="329.2" x2="329.2" y1="220.0" y2="1202.8" /><line stroke="#d1d1d1" stroke-width="1.1" x1="438.4" x2="438.4" y1="220.0" y2="1202.8" /><line stroke="#d1d1d1" stroke-width="1.1" x1="547.6" x2="547.6" y1="220.0" y2="1202.8" /><line stroke="#d1d1d1" stroke-width="1.1" x1="656.8" x2="656.8" y1="220.0" y2="1202.8" /><line stroke="#d1d1d1" stroke-width="1.1" x1="766.0" x2="766.0" y1="220.0" y2="1202.8" /><line stroke="#d1d1d1" stroke-width="1.1" x1="875.2" x2="875.2" y1="220.0" y2="1202.8" /><line stroke="#d1d1d1" stroke-width="1.1" x1="984.4" x2="984.4" y1="220.0" y2="1202.8" /><line stroke="#d1d1d1" stroke-width="1.1" x1="1093.6" x2="1093.6" y1="220.0" y2="1202.8" /><line stroke="#d1d1d1" stroke-width="1.1" x1="1202.8" x2="1202.8" y1="220.0" y2="1202.8" /><line stroke="#d1d1d1" stroke-width="1.1" x1="220.0" x2="1202.8" y1="220.0" y2="220.0" /><line stroke="#d1d1d1" stroke-width="1.1" x1="220.0" x2="1202.8" y1="329.2" y2="329.2" /><line stroke="#d1d1d1" stroke-width="1.1" x1="220.0" x2="1202.8" y1="438.4" y2="438.4" /><line stroke="#d1d1d1" stroke-width="1.1" x1="220.0" x2="1202.8" y1="547.6" y2="547.6" /><line stroke="#d1d1d1" stroke-width="1.1" x1="220.0" x2="1202.8" y1="656.8" y2="656.8" /><line stroke="#d1d1d1" stroke-width="1.1" x1="220.0" x2="1202.8" y1="766.0" y2="766.0" /><line stroke="#d1d1d1" stroke-width="1.1" x1="220.0" x2="1202.8" y1="875.2" y2="875.2" /><line stroke="#d1d1d1" stroke-width="1.1" x1="220.0" x2="1202.8" y1="984.4" y2="984.4" /><line stroke="#d1d1d1" stroke-width="1.1" x1="220.0" x2="1202.8" y1="1093.6" y2="1093.6" /><line stroke="#d1d1d1" stroke-width="1.1" x1="220.0" x2="1202.8" y1="1202.8" y2="1202.8" /><line stroke="#ececec" stroke-width="0.7" x1="220.0" x2="1202.8" y1="220.0" y2="220.0" /><line stroke="#ececec" stroke-width="0.7" x1="220.0" x2="1202.8" y1="274.6" y2="274.6" /><line stroke="#ececec" stroke-width="0.7" x1="220.0" x2="1202.8" y1="329.2" y2="329.2" /><line stroke="#ececec" stroke-width="0.7" x1="220.0" x2="1202.8" y1="383.8" y2="383.8" /><line stroke="#ececec" stroke-width="0.7" x1="220.0" x2="1202.8" y1="438.4" y2="438.4" /><line stroke="#ececec" stroke-width="0.7" x1="220.0" x2="1202.8" y1="493.0" y2="493.0" /><line stroke="#ececec" stroke-width="0.7" x1="220.0" x2="1202.8" y1="547.6" y2="547.6" /><line stroke="#ececec" stroke-width="0.7" x1="220.0" x2="1202.8" y1="602.2" y2="602.2" /><line stroke="#ececec" stroke-width="0.7" x1="220.0" x2="1202.8" y1="656.8" y2="656.8" /><line stroke="#ececec" stroke-width="0.7" x1="220.0" x2="1202.8" y1="711.4" y2="711.4" /><line stroke="#ececec" stroke-width="0.7" x1="220.0" x2="1202.8" y1="766.0" y2="766.0" /><line stroke="#ececec" stroke-width="0.7" x1="220.0" x2="1202.8" y1="820.6" y2="820.6" /><line stroke="#ececec" stroke-width="0.7" x1="220.0" x2="1202.8" y1="875.2" y2="875.2" /><line stroke="#ececec" stroke-width="0.7" x1="220.0" x2="1202.8" y1="929.8" y2="929.8" /><line stroke="#ececec" stroke-width="0.7" x1="220.0" x2="1202.8" y1="984.4" y2="984.4" /><line stroke="#ececec" stroke-width="0.7" x1="220.0" x2="1202.8" y1="1039.0" y2="1039.0" /><line stroke="#ececec" stroke-width="0.7" x1="220.0" x2="1202.8" y1="1093.6" y2="1093.6" /><line stroke="#ececec" stroke-width="0.7" x1="220.0" x2="1202.8" y1="1148.2" y2="1148.2" /><line stroke="#ececec" stroke-width="0.7" x1="220.0" x2="1202.8" y1="1202.8" y2="1202.8" /><rect fill="none" height="982.8" stroke="#6a6a6a" stroke-dasharray="8,4" stroke-width="2" width="982.8" x="220.0" y="220.0" /><rect fill="none" height="982.8" stroke="#1f1f1f" stroke-width="3.5" width="982.8" x="220.0" y="220.0" /><text fill="#555555" font-size="10" x="222.0" y="160.0">Site Envelope = Building Footprint</text><rect fill="#d9f2ff" height="546.0" stroke="none" width="327.6" x="875.2" y="656.8" /><line stroke="#2f2f2f" stroke-width="2.2" x1="875.2" x2="1202.8" y1="656.8" y2="656.8" /><line stroke="#2f2f2f" stroke-width="2.2" x1="875.2" x2="1202.8" y1="1202.8" y2="1202.8" /><line stroke="#2f2f2f" stroke-width="2.2" x1="1202.8" x2="1202.8" y1="656.8" y2="1202.8" /><line stroke="#2f2f2f" stroke-width="2.2" x1="875.2" x2="875.2" y1="656.8" y2="1202.8" /><rect fill="#d9f2ff" height="436.8" stroke="none" width="436.8" x="766.0" y="220.0" /><line stroke="#2f2f2f" stroke-width="2.2" x1="766.0" x2="1202.8" y1="220.0" y2="220.0" /><line stroke="#2f2f2f" stroke-width="2.2" x1="766.0" x2="1202.8" y1="656.8" y2="656.8" /><line stroke="#2f2f2f" stroke-width="2.2" x1="766.0" x2="766.0" y1="220.0" y2="656.8" /><line stroke="#2f2f2f" stroke-width="2.2" x1="1202.8" x2="1202.8" y1="220.0" y2="656.8" /><rect fill="#d9f2ff" height="327.6" stroke="none" width="546.0" x="220.0" y="220.0" /><line stroke="#2f2f2f" stroke-width="2.2" x1="220.0" x2="766.0" y1="547.6" y2="547.6" /><line stroke="#2f2f2f" stroke-width="2.2" x1="220.0" x2="766.0" y1="220.0" y2="220.0" /><line stroke="#2f2f2f" stroke-width="2.2" x1="766.0" x2="766.0" y1="220.0" y2="547.6" /><line stroke="#2f2f2f" stroke-width="2.2" x1="220.0" x2="220.0" y1="220.0" y2="547.6" /><rect fill="#efe9ff" height="273.0" stroke="none" width="109.2" x="656.8" y="547.6" /><rect fill="#efe9ff" height="382.2" stroke="none" width="163.8" x="711.4" y="820.6" /><rect fill="#efe9ff" height="163.8" stroke="none" width="109.2" x="766.0" y="656.8" /><line stroke="#2f2f2f" stroke-width="2.2" x1="711.4" x2="875.2" y1="1202.8" y2="1202.8" /><line stroke="#2f2f2f" stroke-width="2.2" x1="656.8" x2="766.0" y1="547.6" y2="547.6" /><line stroke="#2f2f2f" stroke-width="2.2" x1="766.0" x2="875.2" y1="656.8" y2="656.8" /><line stroke="#2f2f2f" stroke-width="2.2" x1="656.8" x2="711.4" y1="820.6" y2="820.6" /><line stroke="#2f2f2f" stroke-width="2.2" x1="875.2" x2="875.2" y1="656.8" y2="1202.8" /><line stroke="#2f2f2f" stroke-width="2.2" x1="711.4" x2="711.4" y1="820.6" y2="1202.8" /><line stroke="#2f2f2f" stroke-width="2.2" x1="656.8" x2="656.8" y1="547.6" y2="820.6" /><line stroke="#2f2f2f" stroke-width="2.2" x1="766.0" x2="766.0" y1="547.6" y2="656.8" /><rect fill="#c5e8ff" height="382.2" stroke="none" width="491.4" x="220.0" y="820.6" /><line stroke="#2f2f2f" stroke-width="2.2" x1="220.0" x2="711.4" y1="820.6" y2="820.6" /><line stroke="#2f2f2f" stroke-width="2.2" x1="220.0" x2="711.4" y1="1202.8" y2="1202.8" /><line stroke="#2f2f2f" stroke-width="2.2" x1="711.4" x2="711.4" y1="820.6" y2="1202.8" /><line stroke="#2f2f2f" stroke-width="2.2" x1="220.0" x2="220.0" y1="820.6" y2="1202.8" /><rect fill="#ece7dd" height="273.0" stroke="none" width="218.4" x="220.0" y="547.6" /><line stroke="#2f2f2f" stroke-width="2.2" x1="220.0" x2="438.4" y1="547.6" y2="547.6" /><line stroke="#2f2f2f" stroke-width="2.2" x1="220.0" x2="438.4" y1="820.6" y2="820.6" /><line stroke="#2f2f2f" stroke-width="2.2" x1="220.0" x2="220.0" y1="547.6" y2="820.6" /><line stroke="#2f2f2f" stroke-width="2.2" x1="438.4" x2="438.4" y1="547.6" y2="820.6" /><rect fill="#f7f3ea" fill-opacity="0.35" height="109.2" stroke="#9a9a9a" stroke-dasharray="4,3" stroke-width="0.9" width="218.4" x="875.2" y="656.8" /><line stroke="#9c9c9c" stroke-opacity="0.7" stroke-width="0.8" x1="875.2" x2="894.4" y1="746.8" y2="766.0" /><line stroke="#9c9c9c" stroke-opacity="0.7" stroke-width="0.8" x1="875.2" x2="913.6" y1="727.6" y2="766.0" /><line stroke="#9c9c9c" stroke-opacity="0.7" stroke-width="0.8" x1="875.2" x2="932.8" y1="708.4" y2="766.0" /><line stroke="#9c9c9c" stroke-opacity="0.7" stroke-width="0.8" x1="875.2" x2="952.0" y1="689.2" y2="766.0" /><line stroke="#9c9c9c" stroke-opacity="0.7" stroke-width="0.8" x1="875.2" x2="971.2" y1="670.0" y2="766.0" /><line stroke="#9c9c9c" stroke-opacity="0.7" stroke-width="0.8" x1="881.2" x2="990.4" y1="656.8" y2="766.0" /><line stroke="#9c9c9c" stroke-opacity="0.7" stroke-width="0.8" x1="900.4" x2="1009.6" y1="656.8" y2="766.0" /><line stroke="#9c9c9c" stroke-opacity="0.7" stroke-width="0.8" x1="919.6" x2="1028.8" y1="656.8" y2="766.0" /><line stroke="#9c9c9c" stroke-opacity="0.7" stroke-width="0.8" x1="938.8" x2="1048.0" y1="656.8" y2="766.0" /><line stroke="#9c9c9c" stroke-opacity="0.7" stroke-width="0.8" x1="958.0" x2="1067.2" y1="656.8" y2="766.0" /><line stroke="#9c9c9c" stroke-opacity="0.7" stroke-width="0.8" x1="977.2" x2="1086.4" y1="656.8" y2="766.0" /><line stroke="#9c9c9c" stroke-opacity="0.7" stroke-width="0.8" x1="996.4" x2="1093.6" y1="656.8" y2="754.0" /><line stroke="#9c9c9c" stroke-opacity="0.7" stroke-width="0.8" x1="1015.6" x2="1093.6" y1="656.8" y2="734.8" /><line stroke="#9c9c9c" stroke-opacity="0.7" stroke-width="0.8" x1="1034.8" x2="1093.6" y1="656.8" y2="715.6" /><line stroke="#9c9c9c" stroke-opacity="0.7" stroke-width="0.8" x1="1054.0" x2="1093.6" y1="656.8" y2="696.4" /><line stroke="#9c9c9c" stroke-opacity="0.7" stroke-width="0.8" x1="1073.2" x2="1093.6" y1="656.8" y2="677.2" /><line stroke="#9c9c9c" stroke-opacity="0.7" stroke-width="0.8" x1="1092.4" x2="1093.6" y1="656.8" y2="658.0" /><rect fill="#f7f3ea" fill-opacity="0.35" height="109.2" stroke="#9a9a9a" stroke-dasharray="4,3" stroke-width="0.9" width="218.4" x="766.0" y="220.0" /><line stroke="#9c9c9c" stroke-opacity="0.7" stroke-width="0.8" x1="766.0" x2="785.2" y1="310.0" y2="329.2" /><line stroke="#9c9c9c" stroke-opacity="0.7" stroke-width="0.8" x1="766.0" x2="804.4" y1="290.8" y2="329.2" /><line stroke="#9c9c9c" stroke-opacity="0.7" stroke-width="0.8" x1="766.0" x2="823.6" y1="271.6" y2="329.2" /><line stroke="#9c9c9c" stroke-opacity="0.7" stroke-width="0.8" x1="766.0" x2="842.8" y1="252.4" y2="329.2" /><line stroke="#9c9c9c" stroke-opacity="0.7" stroke-width="0.8" x1="766.0" x2="862.0" y1="233.2" y2="329.2" /><line stroke="#9c9c9c" stroke-opacity="0.7" stroke-width="0.8" x1="772.0" x2="881.2" y1="220.0" y2="329.2" /><line stroke="#9c9c9c" stroke-opacity="0.7" stroke-width="0.8" x1="791.2" x2="900.4" y1="220.0" y2="329.2" /><line stroke="#9c9c9c" stroke-opacity="0.7" stroke-width="0.8" x1="810.4" x2="919.6" y1="220.0" y2="329.2" /><line stroke="#9c9c9c" stroke-opacity="0.7" stroke-width="0.8" x1="829.6" x2="938.8" y1="220.0" y2="329.2" /><line stroke="#9c9c9c" stroke-opacity="0.7" stroke-width="0.8" x1="848.8" x2="958.0" y1="220.0" y2="329.2" /><line stroke="#9c9c9c" stroke-opacity="0.7" stroke-width="0.8" x1="868.0" x2="977.2" y1="220.0" y2="329.2" /><line stroke="#9c9c9c" stroke-opacity="0.7" stroke-width="0.8" x1="887.2" x2="984.4" y1="220.0" y2="317.2" /><line stroke="#9c9c9c" stroke-opacity="0.7" stroke-width="0.8" x1="906.4" x2="984.4" y1="220.0" y2="298.0" /><line stroke="#9c9c9c" stroke-opacity="0.7" stroke-width="0.8" x1="925.6" x2="984.4" y1="220.0" y2="278.8" /><line stroke="#9c9c9c" stroke-opacity="0.7" stroke-width="0.8" x1="944.8" x2="984.4" y1="220.0" y2="259.6" /><line stroke="#9c9c9c" stroke-opacity="0.7" stroke-width="0.8" x1="964.0" x2="984.4" y1="220.0" y2="240.4" /><line stroke="#9c9c9c" stroke-opacity="0.7" stroke-width="0.8" x1="983.2" x2="984.4" y1="220.0" y2="221.2" /><rect fill="#f7f3ea" fill-opacity="0.35" height="109.2" stroke="#9a9a9a" stroke-dasharray="4,3" stroke-width="0.9" width="218.4" x="220.0" y="220.0" /><line stroke="#9c9c9c" stroke-opacity="0.7" stroke-width="0.8" x1="220.0" x2="239.2" y1="310.0" y2="329.2" /><line stroke="#9c9c9c" stroke-opacity="0.7" stroke-width="0.8" x1="220.0" x2="258.4" y1="290.8" y2="329.2" /><line stroke="#9c9c9c" stroke-opacity="0.7" stroke-width="0.8" x1="220.0" x2="277.6" y1="271.6" y2="329.2" /><line stroke="#9c9c9c" stroke-opacity="0.7" stroke-width="0.8" x1="220.0" x2="296.8" y1="252.4" y2="329.2" /><line stroke="#9c9c9c" stroke-opacity="0.7" stroke-width="0.8" x1="220.0" x2="316.0" y1="233.2" y2="329.2" /><line stroke="#9c9c9c" stroke-opacity="0.7" stroke-width="0.8" x1="226.0" x2="335.2" y1="220.0" y2="329.2" /><line stroke="#9c9c9c" stroke-opacity="0.7" stroke-width="0.8" x1="245.2" x2="354.4" y1="220.0" y2="329.2" /><line stroke="#9c9c9c" stroke-opacity="0.7" stroke-width="0.8" x1="264.4" x2="373.6" y1="220.0" y2="329.2" /><line stroke="#9c9c9c" stroke-opacity="0.7" stroke-width="0.8" x1="283.6" x2="392.8" y1="220.0" y2="329.2" /><line stroke="#9c9c9c" stroke-opacity="0.7" stroke-width="0.8" x1="302.8" x2="412.0" y1="220.0" y2="329.2" /><line stroke="#9c9c9c" stroke-opacity="0.7" stroke-width="0.8" x1="322.0" x2="431.2" y1="220.0" y2="329.2" /><line stroke="#9c9c9c" stroke-opacity="0.7" stroke-width="0.8" x1="341.2" x2="438.4" y1="220.0" y2="317.2" /><line stroke="#9c9c9c" stroke-opacity="0.7" stroke-width="0.8" x1="360.4" x2="438.4" y1="220.0" y2="298.0" /><line stroke="#9c9c9c" stroke-opacity="0.7" stroke-width="0.8" x1="379.6" x2="438.4" y1="220.0" y2="278.8" /><line stroke="#9c9c9c" stroke-opacity="0.7" stroke-width="0.8" x1="398.8" x2="438.4" y1="220.0" y2="259.6" /><line stroke="#9c9c9c" stroke-opacity="0.7" stroke-width="0.8" x1="418.0" x2="438.4" y1="220.0" y2="240.4" /><line stroke="#9c9c9c" stroke-opacity="0.7" stroke-width="0.8" x1="437.2" x2="438.4" y1="220.0" y2="221.2" /><rect fill="none" height="129.948" stroke="#7f7f7f" stroke-width="1.1" width="218.4" x="356.5" y="889.396" /><line stroke="#7f7f7f" stroke-width="0.9" x1="356.5" x2="574.9" y1="934.8778" y2="934.8778" /><rect fill="none" height="163.8" stroke="#7f7f7f" stroke-width="1.1" width="183.456" x="947.272" y="755.08" /><line stroke="#7f7f7f" stroke-width="0.9" x1="947.272" x2="1130.728" y1="812.41" y2="812.41" /><rect fill="none" height="148.512" stroke="#7f7f7f" stroke-width="1.1" width="218.4" x="875.2" y="298.624" /><line stroke="#7f7f7f" stroke-width="0.9" x1="875.2" x2="1093.6" y1="350.6032" y2="350.6032" /><rect fill="none" height="111.384" stroke="#7f7f7f" stroke-width="1.1" width="218.4" x="383.8" y="278.968" /><line stroke="#7f7f7f" stroke-width="0.9" x1="383.8" x2="602.2" y1="317.9524" y2="317.9524" /><line stroke="#9a9a9a" stroke-width="0.9" x1="246.208" x2="412.192" y1="596.74" y2="596.74" /><line stroke="#9a9a9a" stroke-width="0.9" x1="246.208" x2="412.192" y1="771.46" y2="771.46" /><line stroke="#9a9a9a" stroke-dasharray="5,3" stroke-width="0.7" x1="246.208" x2="412.192" y1="684.1" y2="684.1" /><rect fill="#f4f4f4" height="163.8" stroke="#202020" stroke-dasharray="4,3" stroke-width="2.6" width="109.2" x="438.4" y="656.8" /><line stroke="#b8b8b8" stroke-width="0.9" x1="443.8" x2="542.2" y1="666.4" y2="666.4" /><line stroke="#b8b8b8" stroke-width="0.9" x1="443.8" x2="542.2" y1="685.6" y2="685.6" /><line stroke="#b8b8b8" stroke-width="0.9" x1="443.8" x2="542.2" y1="704.8" y2="704.8" /><line stroke="#b8b8b8" stroke-width="0.9" x1="443.8" x2="542.2" y1="724.0" y2="724.0" /><line stroke="#b8b8b8" stroke-width="0.9" x1="443.8" x2="542.2" y1="743.2" y2="743.2" /><line stroke="#b8b8b8" stroke-width="0.9" x1="443.8" x2="542.2" y1="762.4" y2="762.4" /><line stroke="#b8b8b8" stroke-width="0.9" x1="443.8" x2="542.2" y1="781.6" y2="781.6" /><line stroke="#b8b8b8" stroke-width="0.9" x1="443.8" x2="542.2" y1="800.8" y2="800.8" /><line stroke="#b8b8b8" stroke-width="0.9" x1="443.8" x2="542.2" y1="820.0" y2="820.0" /><rect fill="#f4f4f4" height="109.2" stroke="#202020" stroke-dasharray="4,3" stroke-width="2.6" width="218.4" x="438.4" y="547.6" /><line stroke="#b8b8b8" stroke-width="0.9" x1="443.8" x2="651.4" y1="557.2" y2="557.2" /><line stroke="#b8b8b8" stroke-width="0.9" x1="443.8" x2="651.4" y1="576.4" y2="576.4" /><line stroke="#b8b8b8" stroke-width="0.9" x1="443.8" x2="651.4" y1="595.6" y2="595.6" /><line stroke="#b8b8b8" stroke-width="0.9" x1="443.8" x2="651.4" y1="614.8" y2="614.8" /><line stroke="#b8b8b8" stroke-width="0.9" x1="443.8" x2="651.4" y1="634.0" y2="634.0" /><line stroke="#b8b8b8" stroke-width="0.9" x1="443.8" x2="651.4" y1="653.2" y2="653.2" /><rect fill="#ffffff" height="163.8" stroke="#202020" stroke-dasharray="8,4" stroke-width="2.6" width="109.2" x="547.6" y="656.8" /><text fill="#555555" font-size="9" text-anchor="middle" x="547.5999999999999" y="684.0999999999999">Open To Below</text><rect fill="none" height="273.0" stroke="#7e7e7e" stroke-dasharray="3,2" stroke-width="2.0" width="218.4" x="438.4" y="547.6" /><text fill="#666666" font-size="8.5" text-anchor="middle" x="547.5999999999999" y="562.0">Guardrail</text><line stroke="#2a2a2a" stroke-width="1.4" x1="560.704" x2="643.696" y1="680.2" y2="680.2" /><line stroke="#2a2a2a" stroke-width="1.4" x1="560.704" x2="643.696" y1="703.6" y2="703.6" /><line stroke="#2a2a2a" stroke-width="1.4" x1="560.704" x2="643.696" y1="727.0" y2="727.0" /><line stroke="#2a2a2a" stroke-width="1.4" x1="560.704" x2="643.696" y1="750.4" y2="750.4" /><line stroke="#2a2a2a" stroke-width="1.4" x1="560.704" x2="643.696" y1="773.8" y2="773.8" /><line stroke="#2a2a2a" stroke-width="1.4" x1="560.704" x2="643.696" y1="797.2" y2="797.2" /><text fill="#202020" font-size="11" text-anchor="middle" x="602.2" y="738.6999999999999">Stair (DN)</text><text fill="#3a3a3a" font-size="9.0" text-anchor="middle" x="602.2" y="753.1">13R/12T</text><text fill="#4a4a4a" font-size="7.8" text-anchor="middle" x="602.2" y="761.5">H2730 R210 T228</text><line stroke="#ffffff" stroke-width="7" x1="656.8" x2="656.8" y1="656.8" y2="820.6" /><line stroke="#5e5e5e" stroke-width="1.0" x1="656.8" x2="656.8" y1="656.8" y2="820.6" /><line stroke="#ffffff" stroke-width="6" x1="711.4" x2="711.4" y1="952.9" y2="1070.5" /><line stroke="#595959" stroke-width="1.2" x1="711.4" x2="634.96" y1="952.9" y2="1029.34" /><path d="M 711.4,1029.34 A 76.44,76.44 0 0 1 634.96,1029.34" fill="none" stroke="#7a7a7a" stroke-width="1.0" /><line stroke="#ffffff" stroke-width="6" x1="875.2" x2="875.2" y1="952.9" y2="1070.5" /><line stroke="#595959" stroke-width="1.2" x1="875.2" x2="951.64" y1="952.9" y2="1029.34" /><path d="M 875.1999999999999,1029.34 A 76.44,76.44 0 0 1 951.64,1029.34" fill="none" stroke="#7a7a7a" stroke-width="1.0" /><line stroke="#ffffff" stroke-width="6" x1="766.0" x2="766.0" y1="556.6" y2="647.8" /><line stroke="#595959" stroke-width="1.2" x1="766.0" x2="706.72" y1="556.6" y2="615.88" /><path d="M 766.0,615.88 A 59.28,59.28 0 0 1 706.72,615.88" fill="none" stroke="#7a7a7a" stroke-width="1.0" /><line stroke="#ffffff" stroke-width="6" x1="665.8" x2="757.0" y1="547.6" y2="547.6" /><line stroke="#595959" stroke-width="1.2" x1="665.8" x2="725.08" y1="547.6" y2="606.88" /><path d="M 725.0799999999999,547.5999999999999 A 59.28,59.28 0 0 1 725.0799999999999,606.88" fill="none" stroke="#7a7a7a" stroke-width="1.0" /><line stroke="#ffffff" stroke-width="6" x1="280.06" x2="378.34" y1="820.6" y2="820.6" /><line stroke="#595959" stroke-width="1.2" x1="280.06" x2="343.942" y1="820.6" y2="756.718" /><path d="M 343.942,820.6 A 63.882,63.882 0 0 1 343.942,756.718" fill="none" stroke="#7a7a7a" stroke-width="1.0" /><line stroke="#66a7ff" stroke-width="2.2" x1="217.36" x2="217.36" y1="946.78" y2="1076.62" /><line stroke="#66a7ff" stroke-width="2.2" x1="222.64" x2="222.64" y1="946.78" y2="1076.62" /><line stroke="#66a7ff" stroke-width="2.2" x1="274.072" x2="441.112" y1="1200.16" y2="1200.16" /><line stroke="#66a7ff" stroke-width="2.2" x1="274.072" x2="441.112" y1="1205.44" y2="1205.44" /><line stroke="#66a7ff" stroke-width="2.2" x1="490.288" x2="657.328" y1="1200.16" y2="1200.16" /><line stroke="#66a7ff" stroke-width="2.2" x1="490.288" x2="657.328" y1="1205.44" y2="1205.44" /><line stroke="#66a7ff" stroke-width="2.2" x1="1200.16" x2="1200.16" y1="716.86" y2="902.5" /><line stroke="#66a7ff" stroke-width="2.2" x1="1205.44" x2="1205.44" y1="716.86" y2="902.5" /><line stroke="#66a7ff" stroke-width="2.2" x1="1200.16" x2="1200.16" y1="957.1" y2="1142.74" /><line stroke="#66a7ff" stroke-width="2.2" x1="1205.44" x2="1205.44" y1="957.1" y2="1142.74" /><line stroke="#66a7ff" stroke-width="2.2" x1="983.32" x2="1094.68" y1="1200.16" y2="1200.16" /><line stroke="#66a7ff" stroke-width="2.2" x1="983.32" x2="1094.68" y1="1205.44" y2="1205.44" /><line stroke="#66a7ff" stroke-width="2.2" x1="1200.16" x2="1200.16" y1="268.084" y2="416.524" /><line stroke="#66a7ff" stroke-width="2.2" x1="1205.44" x2="1205.44" y1="268.084" y2="416.524" /><line stroke="#66a7ff" stroke-width="2.2" x1="1200.16" x2="1200.16" y1="460.276" y2="608.716" /><line stroke="#66a7ff" stroke-width="2.2" x1="1205.44" x2="1205.44" y1="460.276" y2="608.716" /><line stroke="#66a7ff" stroke-width="2.2" x1="814.084" x2="962.524" y1="217.36" y2="217.36" /><line stroke="#66a7ff" stroke-width="2.2" x1="814.084" x2="962.524" y1="222.64" y2="222.64" /><line stroke="#66a7ff" stroke-width="2.2" x1="1006.276" x2="1154.716" y1="217.36" y2="217.36" /><line stroke="#66a7ff" stroke-width="2.2" x1="1006.276" x2="1154.716" y1="222.64" y2="222.64" /><line stroke="#66a7ff" stroke-width="2.2" x1="217.36" x2="217.36" y1="328.12" y2="439.48" /><line stroke="#66a7ff" stroke-width="2.2" x1="222.64" x2="222.64" y1="328.12" y2="439.48" /><line stroke="#66a7ff" stroke-width="2.2" x1="280.06" x2="465.7" y1="217.36" y2="217.36" /><line stroke="#66a7ff" stroke-width="2.2" x1="280.06" x2="465.7" y1="222.64" y2="222.64" /><line stroke="#66a7ff" stroke-width="2.2" x1="520.3" x2="705.94" y1="217.36" y2="217.36" /><line stroke="#66a7ff" stroke-width="2.2" x1="520.3" x2="705.94" y1="222.64" y2="222.64" /><line stroke="#9a9a9a" stroke-width="0.8" x1="665.2" x2="757.6" y1="556.0" y2="556.0" /><line stroke="#9a9a9a" stroke-width="0.8" x1="665.2" x2="665.2" y1="552.64" y2="559.36" /><line stroke="#9a9a9a" stroke-width="0.8" x1="757.6" x2="757.6" y1="552.64" y2="559.36" /><text fill="#8a8a8a" font-size="7.6" text-anchor="start" x="671.92" y="553.36">910mm</text><line stroke="#9a9a9a" stroke-width="0.8" x1="665.2" x2="665.2" y1="556.0" y2="812.2" /><line stroke="#9a9a9a" stroke-width="0.8" x1="661.84" x2="668.56" y1="556.0" y2="556.0" /><line stroke="#9a9a9a" stroke-width="0.8" x1="661.84" x2="668.56" y1="812.2" y2="812.2" /><text fill="#8a8a8a" font-size="7.6" text-anchor="start" x="669.28" y="563.6800000000001">2275mm</text><line stroke="#9a9a9a" stroke-width="0.8" x1="719.8" x2="866.8" y1="829.0" y2="829.0" /><line stroke="#9a9a9a" stroke-width="0.8" x1="719.8" x2="719.8" y1="825.64" y2="832.36" /><line stroke="#9a9a9a" stroke-width="0.8" x1="866.8" x2="866.8" y1="825.64" y2="832.36" /><text fill="#8a8a8a" font-size="7.6" text-anchor="start" x="726.52" y="826.36">1365mm</text><line stroke="#9a9a9a" stroke-width="0.8" x1="719.8" x2="719.8" y1="829.0" y2="1194.4" /><line stroke="#9a9a9a" stroke-width="0.8" x1="716.44" x2="723.16" y1="829.0" y2="829.0" /><line stroke="#9a9a9a" stroke-width="0.8" x1="716.44" x2="723.16" y1="1194.4" y2="1194.4" /><text fill="#8a8a8a" font-size="7.6" text-anchor="start" x="723.88" y="836.68">3185mm</text><line stroke="#9a9a9a" stroke-width="0.8" x1="774.4" x2="866.8" y1="665.2" y2="665.2" /><line stroke="#9a9a9a" stroke-width="0.8" x1="774.4" x2="774.4" y1="661.84" y2="668.56" /><line stroke="#9a9a9a" stroke-width="0.8" x1="866.8" x2="866.8" y1="661.84" y2="668.56" /><text fill="#8a8a8a" font-size="7.6" text-anchor="start" x="781.12" y="662.56">910mm</text><line stroke="#9a9a9a" stroke-width="0.8" x1="774.4" x2="774.4" y1="665.2" y2="812.2" /><line stroke="#9a9a9a" stroke-width="0.8" x1="771.04" x2="777.76" y1="665.2" y2="665.2" /><line stroke="#9a9a9a" stroke-width="0.8" x1="771.04" x2="777.76" y1="812.2" y2="812.2" /><text fill="#8a8a8a" font-size="7.6" text-anchor="start" x="778.48" y="672.88">1365mm</text><text fill="#1b1b1b" font-size="10" text-anchor="middle" x="1039.0" y="915.4">Bedroom 2</text><text fill="#1b1b1b" font-size="10" text-anchor="middle" x="1039.0" y="926.1999999999999">2730x4550mm</text><text fill="#1b1b1b" font-size="10" text-anchor="middle" x="1039.0" y="937.0">12.4sqm / 7.7jo</text><text fill="#1b1b1b" font-size="10" text-anchor="middle" x="984.4" y="424.0">Bedroom 3</text><text fill="#1b1b1b" font-size="10" text-anchor="middle" x="984.4" y="434.79999999999995">3640x3640mm</text><text fill="#1b1b1b" font-size="10" text-anchor="middle" x="984.4" y="445.6">13.2sqm / 8.2jo</text><text fill="#1b1b1b" font-size="10" text-anchor="middle" x="493.0" y="369.4">Bedroom 4</text><text fill="#1b1b1b" font-size="10" text-anchor="middle" x="493.0" y="380.2">4550x2730mm</text><text fill="#1b1b1b" font-size="10" text-anchor="middle" x="493.0" y="391.0">12.4sqm / 7.7jo</text><text fill="#1b1b1b" font-size="9" text-anchor="middle" x="775.5918918918919" y="864.4891891891892">Hall 2</text><text fill="#1b1b1b" font-size="9" text-anchor="middle" x="775.5918918918919" y="875.2891891891892">7.7sqm / 4.7jo</text><text fill="#1b1b1b" font-size="10" text-anchor="middle" x="465.7" y="997.3">Master</text><text fill="#1b1b1b" font-size="10" text-anchor="middle" x="465.7" y="1008.1">4095x3185mm</text><text fill="#1b1b1b" font-size="10" text-anchor="middle" x="465.7" y="1018.9">13.0sqm / 8.1jo</text><text fill="#1b1b1b" font-size="10" text-anchor="middle" x="329.2" y="669.7">W.I.C</text><text fill="#1b1b1b" font-size="10" text-anchor="middle" x="329.2" y="680.5">to master</text><text fill="#1b1b1b" font-size="10" text-anchor="middle" x="329.2" y="691.3">1820x2275mm</text><text fill="#1b1b1b" font-size="10" text-anchor="middle" x="329.2" y="702.0999999999999">4.1sqm / 2.6jo</text><text fill="#4a4a4a" font-size="10" text-anchor="middle" x="984.4" y="711.4">CL</text><text fill="#4a4a4a" font-size="10" text-anchor="middle" x="875.1999999999999" y="274.6">CL</text><text fill="#4a4a4a" font-size="10" text-anchor="middle" x="329.2" y="274.6">CL</text><text fill="#111111" font-size="14" x="220.0" y="180.0">F2 Plan  (8190 x 8190 mm)</text><text fill="#444444" font-size="10" x="220.0" y="198.0">Scale: 1px=8.3mm</text><rect fill="#ffffff" height="144" stroke="#777777" stroke-width="1" width="170" x="1290.8" y="150.0" /><text fill="#111111" font-size="11" x="1298.8" y="164.0">Legend</text><rect fill="#efe9ff" height="12" stroke="#333333" stroke-width="1" width="12" x="1298.8" y="174.0" /><text fill="#222222" font-size="10" x="1316.8" y="184.0">Hall</text><rect fill="#c5e8ff" height="12" stroke="#333333" stroke-width="1" width="12" x="1298.8" y="192.0" /><text fill="#222222" font-size="10" x="1316.8" y="202.0">Master Bedroom</text><rect fill="#d9f2ff" height="12" stroke="#333333" stroke-width="1" width="12" x="1298.8" y="210.0" /><text fill="#222222" font-size="10" x="1316.8" y="220.0">Bedroom</text><rect fill="#f7f3ea" height="12" stroke="#333333" stroke-width="1" width="12" x="1298.8" y="228.0" /><text fill="#222222" font-size="10" x="1316.8" y="238.0">Closet</text><rect fill="#ece7dd" height="12" stroke="#333333" stroke-width="1" width="12" x="1298.8" y="246.0" /><text fill="#222222" font-size="10" x="1316.8" y="256.0">Wic</text><line stroke="#6aa4ff" stroke-width="4" x1="1298.8" x2="1325.8" y1="276.0" y2="276.0" /><text fill="#222222" font-size="10" x="1332.8" y="279.0">Window</text><line stroke="#666666" stroke-width="2.4" x1="1298.8" x2="1325.8" y1="292.0" y2="292.0" /><path d="M 1298.8,292.0 A 10,10 0 0 1 1308.8,282.0" fill="none" stroke="#666666" stroke-width="1.2" /><text fill="#222222" font-size="10" x="1332.8" y="295.0">Door</text><rect fill="#ffffff" height="84" stroke="#777777" stroke-width="1" width="200" x="1290.8" y="520.0" /><text fill="#111111" font-size="10" x="1298.8" y="533.0">Area (F2)</text><text fill="#222222" font-size="9" x="1298.8" y="550.0">F1: in 67.1 sqm (20.3 tsubo), out 0.0 sqm (0.0 tsubo)</text><text fill="#222222" font-size="9" x="1298.8" y="566.0">F2: in 67.1 sqm (20.3 tsubo), out 0.0 sqm (0.0 tsubo)</text><text fill="#222222" font-size="9" x="1298.8" y="582.0">Total indoor: 134.2 sqm (40.6 tsubo)</text><text fill="#222222" font-size="9" x="1298.8" y="598.0">Total outdoor: 0.0 sqm (0.0 tsubo)</text><line stroke="#111111" stroke-width="2" x1="175.0" x2="175.0" y1="238.0" y2="208.0" /><polygon fill="#111111" points="175.0,208.0 181.0,214.0 169.0,214.0" /><text fill="#111111" font-size="12" x="170.0" y="202.0">N</text><line stroke="#545454" stroke-width="1.0" x1="220.0" x2="1202.8" y1="148.0" y2="148.0" /><line stroke="#545454" stroke-width="0.8" x1="220.0" x2="220.0" y1="220.0" y2="148.0" /><line stroke="#545454" stroke-width="1.0" x1="220.0" x2="220.0" y1="145.0" y2="151.0" /><line stroke="#545454" stroke-width="0.8" x1="1202.8" x2="1202.8" y1="220.0" y2="148.0" /><line stroke="#545454" stroke-width="1.0" x1="1202.8" x2="1202.8" y1="145.0" y2="151.0" /><text fill="#545454" font-size="8.8" text-anchor="middle" x="711.4" y="145.0">8190mm</text><line stroke="#666666" stroke-width="1.0" x1="220.0" x2="1202.8" y1="166.0" y2="166.0" /><line stroke="#666666" stroke-width="0.8" x1="220.0" x2="220.0" y1="220.0" y2="166.0" /><line stroke="#666666" stroke-width="1.0" x1="220.0" x2="220.0" y1="163.0" y2="169.0" /><line stroke="#666666" stroke-width="0.8" x1="766.0" x2="766.0" y1="220.0" y2="166.0" /><line stroke="#666666" stroke-width="1.0" x1="766.0" x2="766.0" y1="163.0" y2="169.0" /><line stroke="#666666" stroke-width="0.8" x1="1202.8" x2="1202.8" y1="220.0" y2="166.0" /><line stroke="#666666" stroke-width="1.0" x1="1202.8" x2="1202.8" y1="163.0" y2="169.0" /><text fill="#666666" font-size="8.2" text-anchor="middle" x="493.0" y="163.0">4550</text><text fill="#666666" font-size="8.2" text-anchor="middle" x="984.4" y="163.0">3640</text><line stroke="#7a7a7a" stroke-width="1.0" x1="220.0" x2="1202.8" y1="184.0" y2="184.0" /><line stroke="#7a7a7a" stroke-width="0.8" x1="220.0" x2="220.0" y1="220.0" y2="184.0" /><line stroke="#7a7a7a" stroke-width="1.0" x1="220.0" x2="220.0" y1="181.0" y2="187.0" /><line stroke="#7a7a7a" stroke-width="0.8" x1="274.6" x2="274.6" y1="220.0" y2="184.0" /><line stroke="#7a7a7a" stroke-width="1.0" x1="274.6" x2="274.6" y1="181.0" y2="187.0" /><line stroke="#7a7a7a" stroke-width="0.8" x1="493.0" x2="493.0" y1="220.0" y2="184.0" /><line stroke="#7a7a7a" stroke-width="1.0" x1="493.0" x2="493.0" y1="181.0" y2="187.0" /><line stroke="#7a7a7a" stroke-width="0.8" x1="711.4" x2="711.4" y1="220.0" y2="184.0" /><line stroke="#7a7a7a" stroke-width="1.0" x1="711.4" x2="711.4" y1="181.0" y2="187.0" /><line stroke="#7a7a7a" stroke-width="0.8" x1="820.6" x2="820.6" y1="220.0" y2="184.0" /><line stroke="#7a7a7a" stroke-width="1.0" x1="820.6" x2="820.6" y1="181.0" y2="187.0" /><line stroke="#7a7a7a" stroke-width="0.8" x1="984.4" x2="984.4" y1="220.0" y2="184.0" /><line stroke="#7a7a7a" stroke-width="1.0" x1="984.4" x2="984.4" y1="181.0" y2="187.0" /><line stroke="#7a7a7a" stroke-width="0.8" x1="1148.2" x2="1148.2" y1="220.0" y2="184.0" /><line stroke="#7a7a7a" stroke-width="1.0" x1="1148.2" x2="1148.2" y1="181.0" y2="187.0" /><line stroke="#7a7a7a" stroke-width="0.8" x1="1202.8" x2="1202.8" y1="220.0" y2="184.0" /><line stroke="#7a7a7a" stroke-width="1.0" x1="1202.8" x2="1202.8" y1="181.0" y2="187.0" /><text fill="#7a7a7a" font-size="7.8" text-anchor="middle" x="383.79999999999995" y="181.0">1820</text><text fill="#7a7a7a" font-size="7.8" text-anchor="middle" x="602.2" y="181.0">1820</text><text fill="#7a7a7a" font-size="7.8" text-anchor="middle" x="766.0" y="181.0">910</text><text fill="#7a7a7a" font-size="7.8" text-anchor="middle" x="902.5" y="181.0">1365</text><text fill="#7a7a7a" font-size="7.8" text-anchor="middle" x="1066.3" y="181.0">1365</text><line stroke="#545454" stroke-width="1.0" x1="220.0" x2="1202.8" y1="1274.8" y2="1274.8" /><line stroke="#545454" stroke-width="0.8" x1="220.0" x2="220.0" y1="1202.8" y2="1274.8" /><line stroke="#545454" stroke-width="1.0" x1="220.0" x2="220.0" y1="1271.8" y2="1277.8" /><line stroke="#545454" stroke-width="0.8" x1="1202.8" x2="1202.8" y1="1202.8" y2="1274.8" /><line stroke="#545454" stroke-width="1.0" x1="1202.8" x2="1202.8" y1="1271.8" y2="1277.8" /><text fill="#545454" font-size="8.8" text-anchor="middle" x="711.4" y="1284.8">8190mm</text><line stroke="#666666" stroke-width="1.0" x1="220.0" x2="1202.8" y1="1256.8" y2="1256.8" /><line stroke="#666666" stroke-width="0.8" x1="220.0" x2="220.0" y1="1202.8" y2="1256.8" /><line stroke="#666666" stroke-width="1.0" x1="220.0" x2="220.0" y1="1253.8" y2="1259.8" /><line stroke="#666666" stroke-width="0.8" x1="711.4" x2="711.4" y1="1202.8" y2="1256.8" /><line stroke="#666666" stroke-width="1.0" x1="711.4" x2="711.4" y1="1253.8" y2="1259.8" /><line stroke="#666666" stroke-width="0.8" x1="875.2" x2="875.2" y1="1202.8" y2="1256.8" /><line stroke="#666666" stroke-width="1.0" x1="875.2" x2="875.2" y1="1253.8" y2="1259.8" /><line stroke="#666666" stroke-width="0.8" x1="1202.8" x2="1202.8" y1="1202.8" y2="1256.8" /><line stroke="#666666" stroke-width="1.0" x1="1202.8" x2="1202.8" y1="1253.8" y2="1259.8" /><text fill="#666666" font-size="8.2" text-anchor="middle" x="465.7" y="1266.8">4095</text><text fill="#666666" font-size="8.2" text-anchor="middle" x="793.3" y="1266.8">1365</text><text fill="#666666" font-size="8.2" text-anchor="middle" x="1039.0" y="1266.8">2730</text><line stroke="#7a7a7a" stroke-width="1.0" x1="220.0" x2="1202.8" y1="1238.8" y2="1238.8" /><line stroke="#7a7a7a" stroke-width="0.8" x1="220.0" x2="220.0" y1="1202.8" y2="1238.8" /><line stroke="#7a7a7a" stroke-width="1.0" x1="220.0" x2="220.0" y1="1235.8" y2="1241.8" /><line stroke="#7a7a7a" stroke-width="0.8" x1="274.6" x2="274.6" y1="1202.8" y2="1238.8" /><line stroke="#7a7a7a" stroke-width="1.0" x1="274.6" x2="274.6" y1="1235.8" y2="1241.8" /><line stroke="#7a7a7a" stroke-width="0.8" x1="438.4" x2="438.4" y1="1202.8" y2="1238.8" /><line stroke="#7a7a7a" stroke-width="1.0" x1="438.4" x2="438.4" y1="1235.8" y2="1241.8" /><line stroke="#7a7a7a" stroke-width="0.8" x1="493.0" x2="493.0" y1="1202.8" y2="1238.8" /><line stroke="#7a7a7a" stroke-width="1.0" x1="493.0" x2="493.0" y1="1235.8" y2="1241.8" /><line stroke="#7a7a7a" stroke-width="0.8" x1="656.8" x2="656.8" y1="1202.8" y2="1238.8" /><line stroke="#7a7a7a" stroke-width="1.0" x1="656.8" x2="656.8" y1="1235.8" y2="1241.8" /><line stroke="#7a7a7a" stroke-width="0.8" x1="984.4" x2="984.4" y1="1202.8" y2="1238.8" /><line stroke="#7a7a7a" stroke-width="1.0" x1="984.4" x2="984.4" y1="1235.8" y2="1241.8" /><line stroke="#7a7a7a" stroke-width="0.8" x1="1093.6" x2="1093.6" y1="1202.8" y2="1238.8" /><line stroke="#7a7a7a" stroke-width="1.0" x1="1093.6" x2="1093.6" y1="1235.8" y2="1241.8" /><line stroke="#7a7a7a" stroke-width="0.8" x1="1202.8" x2="1202.8" y1="1202.8" y2="1238.8" /><line stroke="#7a7a7a" stroke-width="1.0" x1="1202.8" x2="1202.8" y1="1235.8" y2="1241.8" /><text fill="#7a7a7a" font-size="7.8" text-anchor="middle" x="356.5" y="1248.8">1365</text><text fill="#7a7a7a" font-size="7.8" text-anchor="middle" x="574.9" y="1248.8">1365</text><text fill="#7a7a7a" font-size="7.8" text-anchor="middle" x="820.6" y="1248.8">2730</text><text fill="#7a7a7a" font-size="7.8" text-anchor="middle" x="1039.0" y="1248.8">910</text><text fill="#7a7a7a" font-size="7.8" text-anchor="middle" x="1148.1999999999998" y="1248.8">910</text><line stroke="#545454" stroke-width="1.0" x1="148.0" x2="148.0" y1="220.0" y2="1202.8" /><line stroke="#545454" stroke-width="0.8" x1="220.0" x2="148.0" y1="220.0" y2="220.0" /><line stroke="#545454" stroke-width="1.0" x1="145.0" x2="151.0" y1="220.0" y2="220.0" /><line stroke="#545454" stroke-width="0.8" x1="220.0" x2="148.0" y1="1202.8" y2="1202.8" /><line stroke="#545454" stroke-width="1.0" x1="145.0" x2="151.0" y1="1202.8" y2="1202.8" /><text fill="#545454" font-size="8.8" x="144.0" y="711.4">8190mm</text><line stroke="#666666" stroke-width="1.0" x1="166.0" x2="166.0" y1="220.0" y2="1202.8" /><line stroke="#666666" stroke-width="0.8" x1="220.0" x2="166.0" y1="220.0" y2="220.0" /><line stroke="#666666" stroke-width="1.0" x1="163.0" x2="169.0" y1="220.0" y2="220.0" /><line stroke="#666666" stroke-width="0.8" x1="220.0" x2="166.0" y1="547.6" y2="547.6" /><line stroke="#666666" stroke-width="1.0" x1="163.0" x2="169.0" y1="547.6" y2="547.6" /><line stroke="#666666" stroke-width="0.8" x1="220.0" x2="166.0" y1="820.6" y2="820.6" /><line stroke="#666666" stroke-width="1.0" x1="163.0" x2="169.0" y1="820.6" y2="820.6" /><line stroke="#666666" stroke-width="0.8" x1="220.0" x2="166.0" y1="1202.8" y2="1202.8" /><line stroke="#666666" stroke-width="1.0" x1="163.0" x2="169.0" y1="1202.8" y2="1202.8" /><text fill="#666666" font-size="8.2" x="162.0" y="383.79999999999995">2730</text><text fill="#666666" font-size="8.2" x="162.0" y="684.0999999999999">2275</text><text fill="#666666" font-size="8.2" x="162.0" y="1011.6999999999999">3185</text><line stroke="#7a7a7a" stroke-width="1.0" x1="184.0" x2="184.0" y1="220.0" y2="1202.8" /><line stroke="#7a7a7a" stroke-width="0.8" x1="220.0" x2="184.0" y1="220.0" y2="220.0" /><line stroke="#7a7a7a" stroke-width="1.0" x1="181.0" x2="187.0" y1="220.0" y2="220.0" /><line stroke="#7a7a7a" stroke-width="0.8" x1="220.0" x2="184.0" y1="329.2" y2="329.2" /><line stroke="#7a7a7a" stroke-width="1.0" x1="181.0" x2="187.0" y1="329.2" y2="329.2" /><line stroke="#7a7a7a" stroke-width="0.8" x1="220.0" x2="184.0" y1="438.4" y2="438.4" /><line stroke="#7a7a7a" stroke-width="1.0" x1="181.0" x2="187.0" y1="438.4" y2="438.4" /><line stroke="#7a7a7a" stroke-width="0.8" x1="220.0" x2="184.0" y1="929.8" y2="929.8" /><line stroke="#7a7a7a" stroke-width="1.0" x1="181.0" x2="187.0" y1="929.8" y2="929.8" /><line stroke="#7a7a7a" stroke-width="0.8" x1="220.0" x2="184.0" y1="1093.6" y2="1093.6" /><line stroke="#7a7a7a" stroke-width="1.0" x1="181.0" x2="187.0" y1="1093.6" y2="1093.6" /><line stroke="#7a7a7a" stroke-width="0.8" x1="220.0" x2="184.0" y1="1202.8" y2="1202.8" /><line stroke="#7a7a7a" stroke-width="1.0" x1="181.0" x2="187.0" y1="1202.8" y2="1202.8" /><text fill="#7a7a7a" font-size="7.8" x="180.0" y="274.6">910</text><text fill="#7a7a7a" font-size="7.8" x="180.0" y="383.79999999999995">910</text><text fill="#7a7a7a" font-size="7.8" x="180.0" y="684.0999999999999">4095</text><text fill="#7a7a7a" font-size="7.8" x="180.0" y="1011.6999999999999">1365</text><text fill="#7a7a7a" font-size="7.8" x="180.0" y="1148.1999999999998">910</text><line stroke="#545454" stroke-width="1.0" x1="1274.8" x2="1274.8" y1="220.0" y2="1202.8" /><line stroke="#545454" stroke-width="0.8" x1="1202.8" x2="1274.8" y1="220.0" y2="220.0" /><line stroke="#545454" stroke-width="1.0" x1="1271.8" x2="1277.8" y1="220.0" y2="220.0" /><line stroke="#545454" stroke-width="0.8" x1="1202.8" x2="1274.8" y1="1202.8" y2="1202.8" /><line stroke="#545454" stroke-width="1.0" x1="1271.8" x2="1277.8" y1="1202.8" y2="1202.8" /><text fill="#545454" font-size="8.8" x="1279.8" y="711.4">8190mm</text><line stroke="#666666" stroke-width="1.0" x1="1256.8" x2="1256.8" y1="220.0" y2="1202.8" /><line stroke="#666666" stroke-width="0.8" x1="1202.8" x2="1256.8" y1="220.0" y2="220.0" /><line stroke="#666666" stroke-width="1.0" x1="1253.8" x2="1259.8" y1="220.0" y2="220.0" /><line stroke="#666666" stroke-width="0.8" x1="1202.8" x2="1256.8" y1="656.8" y2="656.8" /><line stroke="#666666" stroke-width="1.0" x1="1253.8" x2="1259.8" y1="656.8" y2="656.8" /><line stroke="#666666" stroke-width="0.8" x1="1202.8" x2="1256.8" y1="1202.8" y2="1202.8" /><line stroke="#666666" stroke-width="1.0" x1="1253.8" x2="1259.8" y1="1202.8" y2="1202.8" /><text fill="#666666" font-size="8.2" x="1261.8" y="438.4">3640</text><text fill="#666666" font-size="8.2" x="1261.8" y="929.8">4550</text><line stroke="#7a7a7a" stroke-width="1.0" x1="1238.8" x2="1238.8" y1="220.0" y2="1202.8" /><line stroke="#7a7a7a" stroke-width="0.8" x1="1202.8" x2="1238.8" y1="220.0" y2="220.0" /><line stroke="#7a7a7a" stroke-width="1.0" x1="1235.8" x2="1241.8" y1="220.0" y2="220.0" /><line stroke="#7a7a7a" stroke-width="0.8" x1="1202.8" x2="1238.8" y1="274.6" y2="274.6" /><line stroke="#7a7a7a" stroke-width="1.0" x1="1235.8" x2="1241.8" y1="274.6" y2="274.6" /><line stroke="#7a7a7a" stroke-width="0.8" x1="1202.8" x2="1238.8" y1="438.4" y2="438.4" /><line stroke="#7a7a7a" stroke-width="1.0" x1="1235.8" x2="1241.8" y1="438.4" y2="438.4" /><line stroke="#7a7a7a" stroke-width="0.8" x1="1202.8" x2="1238.8" y1="602.2" y2="602.2" /><line stroke="#7a7a7a" stroke-width="1.0" x1="1235.8" x2="1241.8" y1="602.2" y2="602.2" /><line stroke="#7a7a7a" stroke-width="0.8" x1="1202.8" x2="1238.8" y1="711.4" y2="711.4" /><line stroke="#7a7a7a" stroke-width="1.0" x1="1235.8" x2="1241.8" y1="711.4" y2="711.4" /><line stroke="#7a7a7a" stroke-width="0.8" x1="1202.8" x2="1238.8" y1="929.8" y2="929.8" /><line stroke="#7a7a7a" stroke-width="1.0" x1="1235.8" x2="1241.8" y1="929.8" y2="929.8" /><line stroke="#7a7a7a" stroke-width="0.8" x1="1202.8" x2="1238.8" y1="1148.2" y2="1148.2" /><line stroke="#7a7a7a" stroke-width="1.0" x1="1235.8" x2="1241.8" y1="1148.2" y2="1148.2" /><line stroke="#7a7a7a" stroke-width="0.8" x1="1202.8" x2="1238.8" y1="1202.8" y2="1202.8" /><line stroke="#7a7a7a" stroke-width="1.0" x1="1235.8" x2="1241.8" y1="1202.8" y2="1202.8" /><text fill="#7a7a7a" font-size="7.8" x="1243.8" y="356.5">1365</text><text fill="#7a7a7a" font-size="7.8" x="1243.8" y="520.3">1365</text><text fill="#7a7a7a" font-size="7.8" x="1243.8" y="656.8">910</text><text fill="#7a7a7a" font-size="7.8" x="1243.8" y="820.6">1820</text><text fill="#7a7a7a" font-size="7.8" x="1243.8" y="1039.0">1820</text></svg>