<?xml version="1.0" encoding="utf-8" ?>
<svg baseProfile="tiny" height="1204.4px" version="1.2" width="1532.0px" xmlns="http://www.w3.org/2000/svg" xmlns:ev="http://www.w3.org/2001/xml-events" xmlns:xlink="http://www.w3.org/1999/xlink"><defs /><rect fill="#fafafa" height="1204.4" width="1532.0" x="0" y="0" /><line stroke="#ececec" stroke-width="0.7" x1="220.0" x2="220.0" y1="220.0" y2="984.4" /><line stroke="#ececec" stroke-width="0.7" x1="274.6" x2="274.6" y1="220.0" y2="984.4" /><line stroke="#ececec" stroke-width="0.7" x1="329.2" x2="329.2" y1="220.0" y2="984.4" /><line stroke="#ececec" stroke-width="0.7" x1="383.8" x2="383.8" y1="220.0" y2="984.4" /><line stroke="#ececec" stroke-width="0.7" x1="438.4" x2="438.4" y1="220.0" y2="984.4" /><line stroke="#ececec" stroke-width="0.7" x1="493.0" x2="493.0" y1="220.0" y2="984.4" /><line stroke="#ececec" stroke-width="0.7" x1="547.6" x2="547.6" y1="220.0" y2="984.4" /><line stroke="#ececec" stroke-width="0.7" x1="602.2" x2="602.2" y1="220.0" y2="984.4" /><line stroke="#ececec" stroke-width="0.7" x1="656.8" x2="656.8" y1="220.0" y2="984.4" /><line stroke="#ececec" stroke-width="0.7" x1="711.4" x2="711.4" y1="220.0" y2="984.4" /><line stroke="#ececec" stroke-width="0.7" x1="766.0" x2="766.0" y1="220.0" y2="984.4" /><line stroke="#ececec" stroke-width="0.7" x1="820.6" x2="820.6" y1="220.0" y2="984.4" /><line stroke="#ececec" stroke-width="0.7" x1="875.2" x2="875.2" y1="220.0" y2="984.4" /><line stroke="#ececec" stroke-width="0.7" x1="929.8" x2="929.8" y1="220.0" y2="984.4" /><line stroke="#ececec" stroke-width="0.7" x1="984.4" x2="984.4" y1="220.0" y2="984.4" /><line stroke="#ececec" stroke-width="0.7" x1="1039.0" x2="1039.0" y1="220.0" y2="984.4" /><line stroke="#ececec" stroke-width="0.7" x1="1093.6" x2="1093.6" y1="220.0" y2="984.4" /><line stroke="#ececec" stroke-width="0.7" x1="1148.2" x2="1148.2" y1="220.0" y2="984.4" /><line stroke="#ececec" stroke-width="0.7" x1="1202.8" x2="1202.8" y1="220.0" y2="984.4" /><line stroke="#ececec" stroke-width="0.7" x1="1257.4" x2="1257.4" y1="220.0" y2="984.4" /><line stroke="#ececec" stroke-width="0.7" x1="1312.0" x2="1312.0" y1="220.0" y2="984.4" /><line stroke="#d1d1d1" stroke-width="1.1" x1="220.0" x2="220.0" y1="220.0" y2="984.4" /><line stroke="#d1d1d1" stroke-width="1.1" x1="329.2" x2="329.2" y1="220.0" y2="984.4" /><line stroke="#d1d1d1" stroke-width="1.1" x1="438.4" x2="438.4" y1="220.0" y2="984.4" /><line stroke="#d1d1d1" stroke-width="1.1" x1="547.6" x2="547.6" y1="220.0" y2="984.4" /><line stroke="#d1d1d1" stroke-width="1.1" x1="656.8" x2="656.8" y1="220.0" y2="984.4" /><line stroke="#d1d1d1" stroke-width="1.1" x1="766.0" x2="766.0" y1="220.0" y2="984.4" /><line stroke="#d1d1d1" stroke-width="1.1" x1="875.2" x2="875.2" y1="220.0" y2="984.4" /><line stroke="#d1d1d1" stroke-width="1.1" x1="984.4" x2="984.4" y1="220.0" y2="984.4" /><line stroke="#d1d1d1" stroke-width="1.1" x1="1093.6" x2="1093.6" y1="220.0" y2="984.4" /><line stroke="#d1d1d1" stroke-width="1.1" x1="1202.8" x2="1202.8" y1="220.0" y2="984.4" /><line stroke="#d1d1d1" stroke-width="1.1" x1="1312.0" x2="1312.0" y1="220.0" y2="984.4" /><line stroke="#d1d1d1" stroke-width="1.1" x1="220.0" x2="1312.0" y1="220.0" y2="220.0" /><line stroke="#d1d1d1" stroke-width="1.1" x1="220.0" x2="1312.0" y1="329.2" y2="329.2" /><line stroke="#d1d1d1" stroke-width="1.1" x1="220.0" x2="1312.0" y1="438.4" y2="438.4" /><line stroke="#d1d1d1" stroke-width="1.1" x1="220.0" x2="1312.0" y1="547.6" y2="547.6" /><line stroke="#d1d1d1" stroke-width="1.1" x1="220.0" x2="1312.0" y1="656.8" y2="656.8" /><line stroke="#d1d1d1" stroke-width="1.1" x1="220.0" x2="1312.0" y1="766.0" y2="766.0" /><line stroke="#d1d1d1" stroke-width="1.1" x1="220.0" x2="1312.0" y1="875.2" y2="875.2" /><line stroke="#d1d1d1" stroke-width="1.1" x1="220.0" x2="1312.0" y1="984.4" y2="984.4" /><line stroke="#ececec" stroke-width="0.7" x1="220.0" x2="1312.0" y1="220.0" y2="220.0" /><line stroke="#ececec" stroke-width="0.7" x1="220.0" x2="1312.0" y1="274.6" y2="274.6" /><line stroke="#ececec" stroke-width="0.7" x1="220.0" x2="1312.0" y1="329.2" y2="329.2" /><line stroke="#ececec" stroke-width="0.7" x1="220.0" x2="1312.0" y1="383.8" y2="383.8" /><line stroke="#ececec" stroke-width="0.7" x1="220.0" x2="1312.0" y1="438.4" y2="438.4" /><line stroke="#ececec" stroke-width="0.7" x1="220.0" x2="1312.0" y1="493.0" y2="493.0" /><line stroke="#ececec" stroke-width="0.7" x1="220.0" x2="1312.0" y1="547.6" y2="547.6" /><line stroke="#ececec" stroke-width="0.7" x1="220.0" x2="1312.0" y1="602.2" y2="602.2" /><line stroke="#ececec" stroke-width="0.7" x1="220.0" x2="1312.0" y1="656.8" y2="656.8" /><line stroke="#ececec" stroke-width="0.7" x1="220.0" x2="1312.0" y1="711.4" y2="711.4" /><line stroke="#ececec" stroke-width="0.7" x1="220.0" x2="1312.0" y1="766.0" y2="766.0" /><line stroke="#ececec" stroke-width="0.7" x1="220.0" x2="1312.0" y1="820.6" y2="820.6" /><line stroke="#ececec" stroke-width="0.7" x1="220.0" x2="1312.0" y1="875.2" y2="875.2" /><line stroke="#ececec" stroke-width="0.7" x1="220.0" x2="1312.0" y1="929.8" y2="929.8" /><line stroke="#ececec" stroke-width="0.7" x1="220.0" x2="1312.0" y1="984.4" y2="984.4" /><rect fill="none" height="764.4" stroke="#6a6a6a" stroke-dasharray="8,4" stroke-width="2" width="1092.0" x="220.0" y="220.0" /><rect fill="none" height="764.4" stroke="#1f1f1f" stroke-width="3.5" width="1092.0" x="220.0" y="220.0" /><text fill="#555555" font-size="10" x="222.0" y="160.0">Site Envelope = Building Footprint</text><rect fill="#dcecff" height="218.4" stroke="none" width="218.4" x="1093.6" y="220.0" /><line stroke="#2f2f2f" stroke-width="2.2" x1="1093.6" x2="1312.0" y1="220.0" y2="220.0" /><line stroke="#2f2f2f" stroke-width="2.2" x1="1093.6" x2="1312.0" y1="438.4" y2="438.4" /><line stroke="#2f2f2f" stroke-width="2.2" x1="1093.6" x2="1093.6" y1="220.0" y2="438.4" /><line stroke="#2f2f2f" stroke-width="2.2" x1="1312.0" x2="1312.0" y1="220.0" y2="438.4" /><rect fill="#d9f2ff" height="273.0" stroke="none" width="436.8" x="220.0" y="220.0" /><line stroke="#2f2f2f" stroke-width="2.2" x1="220.0" x2="656.8" y1="493.0" y2="493.0" /><line stroke="#2f2f2f" stroke-width="2.2" x1="220.0" x2="656.8" y1="220.0" y2="220.0" /><line stroke="#2f2f2f" stroke-width="2.2" x1="656.8" x2="656.8" y1="220.0" y2="493.0" /><line stroke="#2f2f2f" stroke-width="2.2" x1="220.0" x2="220.0" y1="220.0" y2="493.0" /><rect fill="#f8f0d9" height="163.8" stroke="none" width="327.6" x="984.4" y="438.4" /><line stroke="#2f2f2f" stroke-width="2.2" x1="984.4" x2="1312.0" y1="438.4" y2="438.4" /><line stroke="#2f2f2f" stroke-width="2.2" x1="984.4" x2="1312.0" y1="602.2" y2="602.2" /><line stroke="#2f2f2f" stroke-width="2.2" x1="1312.0" x2="1312.0" y1="438.4" y2="602.2" /><line stroke="#2f2f2f" stroke-width="2.2" x1="984.4" x2="984.4" y1="438.4" y2="602.2" /><rect fill="#efe9ff" height="163.8" stroke="none" width="109.2" x="1202.8" y="602.2" /><rect fill="#efe9ff" height="109.2" stroke="none" width="218.4" x="984.4" y="602.2" /><rect fill="#efe9ff" height="546.0" stroke="none" width="109.2" x="875.2" y="438.4" /><line stroke="#2f2f2f" stroke-width="2.2" x1="984.4" x2="1312.0" y1="602.2" y2="602.2" /><line stroke="#2f2f2f" stroke-width="2.2" x1="875.2" x2="984.4" y1="984.4" y2="984.4" /><line stroke="#2f2f2f" stroke-width="2.2" x1="984.4" x2="1202.8" y1="711.4" y2="711.4" /><line stroke="#2f2f2f" stroke-width="2.2" x1="1202.8" x2="1312.0" y1="766.0" y2="766.0" /><line stroke="#2f2f2f" stroke-width="2.2" x1="875.2" x2="984.4" y1="438.4" y2="438.4" /><line stroke="#2f2f2f" stroke-width="2.2" x1="875.2" x2="875.2" y1="438.4" y2="984.4" /><line stroke="#2f2f2f" stroke-width="2.2" x1="1202.8" x2="1202.8" y1="711.4" y2="766.0" /><line stroke="#2f2f2f" stroke-width="2.2" x1="984.4" x2="984.4" y1="438.4" y2="602.2" /><line stroke="#2f2f2f" stroke-width="2.2" x1="984.4" x2="984.4" y1="711.4" y2="984.4" /><line stroke="#2f2f2f" stroke-width="2.2" x1="1312.0" x2="1312.0" y1="602.2" y2="766.0" /><rect fill="#ffe2b8" height="491.4" stroke="none" width="655.2" x="220.0" y="493.0" /><line stroke="#2f2f2f" stroke-width="2.2" x1="220.0" x2="875.2" y1="493.0" y2="493.0" /><line stroke="#2f2f2f" stroke-width="2.2" x1="220.0" x2="875.2" y1="984.4" y2="984.4" /><line stroke="#2f2f2f" stroke-width="2.2" x1="220.0" x2="220.0" y1="493.0" y2="984.4" /><line stroke="#2f2f2f" stroke-width="2.2" x1="875.2" x2="875.2" y1="493.0" y2="984.4" /><rect fill="#f0f0f0" height="273.0" stroke="none" width="218.4" x="656.8" y="220.0" /><line stroke="#2f2f2f" stroke-width="2.2" x1="656.8" x2="875.2" y1="493.0" y2="493.0" /><line stroke="#2f2f2f" stroke-width="2.2" x1="656.8" x2="875.2" y1="220.0" y2="220.0" /><line stroke="#2f2f2f" stroke-width="2.2" x1="875.2" x2="875.2" y1="220.0" y2="493.0" /><line stroke="#2f2f2f" stroke-width="2.2" x1="656.8" x2="656.8" y1="220.0" y2="493.0" /><rect fill="#fbe7e6" height="218.4" stroke="none" width="109.2" x="1202.8" y="766.0" /><line stroke="#2f2f2f" stroke-width="2.2" x1="1202.8" x2="1312.0" y1="984.4" y2="984.4" /><line stroke="#2f2f2f" stroke-width="2.2" x1="1202.8" x2="1312.0" y1="766.0" y2="766.0" /><line stroke="#2f2f2f" stroke-width="2.2" x1="1202.8" x2="1202.8" y1="766.0" y2="984.4" /><line stroke="#2f2f2f" stroke-width="2.2" x1="1312.0" x2="1312.0" y1="766.0" y2="984.4" /><rect fill="#e7fbfb" height="218.4" stroke="none" width="218.4" x="875.2" y="220.0" /><line stroke="#2f2f2f" stroke-width="2.2" x1="875.2" x2="1093.6" y1="438.4" y2="438.4" /><line stroke="#2f2f2f" stroke-width="2.2" x1="875.2" x2="1093.6" y1="220.0" y2="220.0" /><line stroke="#2f2f2f" stroke-width="2.2" x1="1093.6" x2="1093.6" y1="220.0" y2="438.4" /><line stroke="#2f2f2f" stroke-width="2.2" x1="875.2" x2="875.2" y1="220.0" y2="438.4" /><rect fill="none" height="49.14" stroke="#8a6b4a" stroke-width="1.0" width="209.664" x="573.808" y="542.14" /><rect fill="none" height="108.108" stroke="#8a6b4a" stroke-width="1.0" width="44.226" x="739.246" y="542.14" /><circle cx="636.3904" cy="566.71" fill="none" r="8.4" stroke="#8a6b4a" stroke-width="0.9" /><circle cx="657.9904" cy="566.71" fill="none" r="8.4" stroke="#8a6b4a" stroke-width="0.9" /><rect fill="none" height="25.9459" stroke="#8a6b4a" stroke-width="0.9" width="30.0737" x="745.8799" y="587.5454" /><rect fill="none" height="58.968" stroke="#8a6b4a" stroke-width="1.0" width="144.144" x="482.08" y="699.388" /><rect fill="none" height="92.82" stroke="#7f7f7f" stroke-width="1.1" width="218.4" x="329.2" y="269.14" /><line stroke="#7f7f7f" stroke-width="0.9" x1="329.2" x2="547.6" y1="301.627" y2="301.627" /><line stroke="#9a9a9a" stroke-width="0.9" x1="683.008" x2="848.992" y1="269.14" y2="269.14" /><line stroke="#9a9a9a" stroke-width="0.9" x1="683.008" x2="848.992" y1="443.86" y2="443.86" /><rect fill="none" height="48.048" stroke="#6f6f6f" stroke-width="1.0" width="74.256" x="914.512" y="259.312" /><rect fill="none" height="48.048" stroke="#6f6f6f" stroke-width="1.0" width="74.256" x="1001.872" y="259.312" /><line stroke="#8f8f8f" stroke-width="0.8" x1="905.776" x2="1063.024" y1="244.912" y2="244.912" /><circle cx="1067.2" cy="246.4" fill="none" r="8.4" stroke="#7c7c7c" stroke-width="0.9" /><line stroke="#7c7c7c" stroke-width="0.8" x1="1056.4" x2="1078.0" y1="246.4" y2="246.4" /><line stroke="#7c7c7c" stroke-width="0.8" x1="1067.2" x2="1067.2" y1="235.6" y2="257.2" /><rect fill="none" height="109.2" rx="6" ry="6" stroke="#6f6f6f" stroke-width="1.0" width="135.408" x="1137.28" y="268.048" /><circle cx="1285.6" cy="246.4" fill="none" r="8.4" stroke="#7c7c7c" stroke-width="0.9" /><line stroke="#7c7c7c" stroke-width="0.8" x1="1274.8" x2="1296.4" y1="246.4" y2="246.4" /><line stroke="#7c7c7c" stroke-width="0.8" x1="1285.6" x2="1285.6" y1="235.6" y2="257.2" /><rect fill="#ffffff" height="163.8" stroke="#202020" stroke-dasharray="8,4" stroke-width="2.6" width="109.2" x="984.4" y="820.6" /><rect fill="#ffffff" height="109.2" stroke="#202020" stroke-dasharray="8,4" stroke-width="2.6" width="218.4" x="984.4" y="711.4" /><rect fill="#ffffff" height="163.8" stroke="#202020" stroke-dasharray="8,4" stroke-width="2.6" width="109.2" x="1093.6" y="820.6" /><line stroke="#2a2a2a" stroke-width="1.4" x1="997.504" x2="1080.496" y1="844.0" y2="844.0" /><line stroke="#2a2a2a" stroke-width="1.4" x1="997.504" x2="1080.496" y1="867.4" y2="867.4" /><line stroke="#2a2a2a" stroke-width="1.4" x1="997.504" x2="1080.496" y1="890.8" y2="890.8" /><line stroke="#2a2a2a" stroke-width="1.4" x1="997.504" x2="1080.496" y1="914.2" y2="914.2" /><line stroke="#2a2a2a" stroke-width="1.4" x1="997.504" x2="1080.496" y1="937.6" y2="937.6" /><line stroke="#2a2a2a" stroke-width="1.4" x1="997.504" x2="1080.496" y1="961.0" y2="961.0" /><line stroke="#2a2a2a" stroke-width="1.4" x1="1106.704" x2="1189.696" y1="844.0" y2="844.0" /><line stroke="#2a2a2a" stroke-width="1.4" x1="1106.704" x2="1189.696" y1="867.4" y2="867.4" /><line stroke="#2a2a2a" stroke-width="1.4" x1="1106.704" x2="1189.696" y1="890.8" y2="890.8" /><line stroke="#2a2a2a" stroke-width="1.4" x1="1106.704" x2="1189.696" y1="914.2" y2="914.2" /><line stroke="#2a2a2a" stroke-width="1.4" x1="1106.704" x2="1189.696" y1="937.6" y2="937.6" /><line stroke="#2a2a2a" stroke-width="1.4" x1="1106.704" x2="1189.696" y1="961.0" y2="961.0" /><text fill="#202020" font-size="11" text-anchor="middle" x="1039.0" y="902.5">Stair (UP)</text><text fill="#3a3a3a" font-size="9.0" text-anchor="middle" x="1039.0" y="916.9">13R/12T</text><text fill="#4a4a4a" font-size="7.8" text-anchor="middle" x="1039.0" y="925.3">H2730 R210 T228</text><line stroke="#ffffff" stroke-width="7" x1="984.4" x2="984.4" y1="820.6" y2="984.4" /><line stroke="#5e5e5e" stroke-width="1.0" x1="984.4" x2="984.4" y1="820.6" y2="984.4" /><line stroke="#ffffff" stroke-width="6" x1="1044.46" x2="1142.74" y1="602.2" y2="602.2" /><line stroke="#595959" stroke-width="1.2" x1="1044.46" x2="1108.342" y1="602.2" y2="666.082" /><path d="M 1108.342,602.2 A 63.882,63.882 0 0 1 1108.342,666.082" fill="none" stroke="#7a7a7a" stroke-width="1.0" /><line stroke="#ffffff" stroke-width="6" x1="875.2" x2="875.2" y1="679.9" y2="797.5" /><line stroke="#595959" stroke-width="1.2" x1="875.2" x2="798.76" y1="679.9" y2="756.34" /><path d="M 875.1999999999999,756.34 A 76.44,76.44 0 0 1 798.76,756.34" fill="none" stroke="#7a7a7a" stroke-width="1.0" /><line stroke="#ffffff" stroke-width="6" x1="1211.8" x2="1303.0" y1="766.0" y2="766.0" /><line stroke="#ffffff" stroke-width="6" x1="884.2" x2="975.4" y1="438.4" y2="438.4" /><line stroke="#ffffff" stroke-width="6" x1="1093.6" x2="1093.6" y1="280.06" y2="378.34" /><line stroke="#595959" stroke-width="1.2" x1="1093.6" x2="1029.718" y1="280.06" y2="343.942" /><path d="M 1093.6,343.942 A 63.882,63.882 0 0 1 1029.7179999999998,343.942" fill="none" stroke="#7a7a7a" stroke-width="1.0" /><line stroke="#ffffff" stroke-width="6" x1="379.6" x2="497.2" y1="493.0" y2="493.0" /><line stroke="#595959" stroke-width="1.2" x1="379.6" x2="456.04" y1="493.0" y2="569.44" /><path d="M 456.03999999999996,493.0 A 76.44,76.44 0 0 1 456.03999999999996,569.44" fill="none" stroke="#7a7a7a" stroke-width="1.0" /><line stroke="#ffffff" stroke-width="6" x1="716.86" x2="815.14" y1="493.0" y2="493.0" /><line stroke="#595959" stroke-width="1.2" x1="716.86" x2="780.742" y1="493.0" y2="429.118" /><path d="M 780.7420000000001,493.0 A 63.882,63.882 0 0 1 780.7420000000001,429.118" fill="none" stroke="#7a7a7a" stroke-width="1.0" /><line stroke="#ffffff" stroke-width="7" x1="1312.0" x2="1312.0" y1="474.7" y2="565.9" /><line stroke="#595959" stroke-width="1.2" x1="1312.0" x2="1252.72" y1="474.7" y2="533.98" /><path d="M 1312.0,533.98 A 59.28,59.28 0 0 1 1252.72,533.98" fill="none" stroke="#7a7a7a" stroke-width="1.0" /><line stroke="#66a7ff" stroke-width="2.2" x1="217.36" x2="217.36" y1="547.072" y2="714.112" /><line stroke="#66a7ff" stroke-width="2.2" x1="222.64" x2="222.64" y1="547.072" y2="714.112" /><line stroke="#66a7ff" stroke-width="2.2" x1="217.36" x2="217.36" y1="763.288" y2="930.328" /><line stroke="#66a7ff" stroke-width="2.2" x1="222.64" x2="222.64" y1="763.288" y2="930.328" /><line stroke="#66a7ff" stroke-width="2.2" x1="307.456" x2="499.456" y1="981.76" y2="981.76" /><line stroke="#66a7ff" stroke-width="2.2" x1="307.456" x2="499.456" y1="987.04" y2="987.04" /><line stroke="#66a7ff" stroke-width="2.2" x1="595.744" x2="787.744" y1="981.76" y2="981.76" /><line stroke="#66a7ff" stroke-width="2.2" x1="595.744" x2="787.744" y1="987.04" y2="987.04" /><line stroke="#66a7ff" stroke-width="2.2" x1="217.36" x2="217.36" y1="301.9" y2="411.1" /><line stroke="#66a7ff" stroke-width="2.2" x1="222.64" x2="222.64" y1="301.9" y2="411.1" /><line stroke="#66a7ff" stroke-width="2.2" x1="268.084" x2="416.524" y1="217.36" y2="217.36" /><line stroke="#66a7ff" stroke-width="2.2" x1="268.084" x2="416.524" y1="222.64" y2="222.64" /><line stroke="#66a7ff" stroke-width="2.2" x1="460.276" x2="608.716" y1="217.36" y2="217.36" /><line stroke="#66a7ff" stroke-width="2.2" x1="460.276" x2="608.716" y1="222.64" y2="222.64" /><line stroke="#9a9a9a" stroke-width="0.8" x1="1211.2" x2="1303.6" y1="610.6" y2="610.6" /><line stroke="#9a9a9a" stroke-width="0.8" x1="1211.2" x2="1211.2" y1="607.24" y2="613.96" /><line stroke="#9a9a9a" stroke-width="0.8" x1="1303.6" x2="1303.6" y1="607.24" y2="613.96" /><text fill="#8a8a8a" font-size="7.6" text-anchor="start" x="1217.92" y="607.96">910mm</text><line stroke="#9a9a9a" stroke-width="0.8" x1="1211.2" x2="1211.2" y1="610.6" y2="757.6" /><line stroke="#9a9a9a" stroke-width="0.8" x1="1207.84" x2="1214.56" y1="610.6" y2="610.6" /><line stroke="#9a9a9a" stroke-width="0.8" x1="1207.84" x2="1214.56" y1="757.6" y2="757.6" /><text fill="#8a8a8a" font-size="7.6" text-anchor="start" x="1215.28" y="618.28">1365mm</text><line stroke="#9a9a9a" stroke-width="0.8" x1="883.6" x2="976.0" y1="446.8" y2="446.8" /><line stroke="#9a9a9a" stroke-width="0.8" x1="883.6" x2="883.6" y1="443.44" y2="450.16" /><line stroke="#9a9a9a" stroke-width="0.8" x1="976.0" x2="976.0" y1="443.44" y2="450.16" /><text fill="#8a8a8a" font-size="7.6" text-anchor="start" x="890.3199999999999" y="444.15999999999997">910mm</text><line stroke="#9a9a9a" stroke-width="0.8" x1="883.6" x2="883.6" y1="446.8" y2="976.0" /><line stroke="#9a9a9a" stroke-width="0.8" x1="880.24" x2="886.96" y1="446.8" y2="446.8" /><line stroke="#9a9a9a" stroke-width="0.8" x1="880.24" x2="886.96" y1="976.0" y2="976.0" /><text fill="#8a8a8a" font-size="7.6" text-anchor="start" x="887.68" y="454.48">4550mm</text><text fill="#1b1b1b" font-size="10" text-anchor="middle" x="1202.8" y="314.8">Bath 1</text><text fill="#1b1b1b" font-size="10" text-anchor="middle" x="1202.8" y="325.6">1820x1820mm</text><text fill="#1b1b1b" font-size="10" text-anchor="middle" x="1202.8" y="336.4">3.3sqm / 2.0jo</text><text fill="#1b1b1b" font-size="10" text-anchor="middle" x="438.4" y="342.1">Bedroom 1</text><text fill="#1b1b1b" font-size="10" text-anchor="middle" x="438.4" y="352.9">3640x2275mm</text><text fill="#1b1b1b" font-size="10" text-anchor="middle" x="438.4" y="363.7">8.3sqm / 5.1jo</text><text fill="#1b1b1b" font-size="10" text-anchor="middle" x="1148.1999999999998" y="505.9">Entry</text><text fill="#1b1b1b" font-size="10" text-anchor="middle" x="1148.1999999999998" y="516.7">2730x1365mm</text><text fill="#1b1b1b" font-size="10" text-anchor="middle" x="1148.1999999999998" y="527.5">3.7sqm / 2.3jo</text><text fill="#1b1b1b" font-size="9" text-anchor="middle" x="1026.1529411764704" y="679.335294117647">Hall 1</text><text fill="#1b1b1b" font-size="9" text-anchor="middle" x="1026.1529411764704" y="690.135294117647">7.0sqm / 4.3jo</text><text fill="#1b1b1b" font-size="10" text-anchor="middle" x="547.5999999999999" y="724.3">Ldk</text><text fill="#1b1b1b" font-size="10" text-anchor="middle" x="547.5999999999999" y="735.1">5460x4095mm</text><text fill="#1b1b1b" font-size="10" text-anchor="middle" x="547.5999999999999" y="745.9">22.4sqm / 13.8jo</text><text fill="#1b1b1b" font-size="10" text-anchor="middle" x="766.0" y="342.1">Pantry 1</text><text fill="#1b1b1b" font-size="10" text-anchor="middle" x="766.0" y="352.9">1820x2275mm</text><text fill="#1b1b1b" font-size="10" text-anchor="middle" x="766.0" y="363.7">4.1sqm / 2.6jo</text><text fill="#1b1b1b" font-size="10" text-anchor="middle" x="1257.3999999999999" y="860.8">Toilet 1</text><text fill="#1b1b1b" font-size="10" text-anchor="middle" x="1257.3999999999999" y="871.6">910x1820mm</text><text fill="#1b1b1b" font-size="10" text-anchor="middle" x="1257.3999999999999" y="882.4">1.7sqm / 1.0jo</text><text fill="#1b1b1b" font-size="10" text-anchor="middle" x="984.4" y="314.8">Wash 1</text><text fill="#1b1b1b" font-size="10" text-anchor="middle" x="984.4" y="325.6">1820x1820mm</text><text fill="#1b1b1b" font-size="10" text-anchor="middle" x="984.4" y="336.4">3.3sqm / 2.0jo</text><text fill="#111111" font-size="14" x="220.0" y="180.0">F1 Plan  (9100 x 6370 mm)</text><text fill="#444444" font-size="10" x="220.0" y="198.0">Scale: 1px=8.3mm</text><rect fill="#ffffff" height="198" stroke="#777777" stroke-width="1" width="170" x="1400.0" y="150.0" /><text fill="#111111" font-size="11" x="1408.0" y="164.0">Legend</text><rect fill="#f8f0d9" height="12" stroke="#333333" stroke-width="1" width="12" x="1408.0" y="174.0" /><text fill="#222222" font-size="10" x="1426.0" y="184.0">Entry</text><rect fill="#efe9ff" height="12" stroke="#333333" stroke-width="1" width="12" x="1408.0" y="192.0" /><text fill="#222222" font-size="10" x="1426.0" y="202.0">Hall</text><rect fill="#ffe2b8" height="12" stroke="#333333" stroke-width="1" width="12" x="1408.0" y="210.0" /><text fill="#222222" font-size="10" x="1426.0" y="220.0">Ldk</text><rect fill="#d9f2ff" height="12" stroke="#333333" stroke-width="1" width="12" x="1408.0" y="228.0" /><text fill="#222222" font-size="10" x="1426.0" y="238.0">Bedroom</text><rect fill="#fbe7e6" height="12" stroke="#333333" stroke-width="1" width="12" x="1408.0" y="246.0" /><text fill="#222222" font-size="10" x="1426.0" y="256.0">Toilet</text><rect fill="#e7fbfb" height="12" stroke="#333333" stroke-width="1" width="12" x="1408.0" y="264.0" /><text fill="#222222" font-size="10" x="1426.0" y="274.0">Washroom</text><rect fill="#dcecff" height="12" stroke="#333333" stroke-width="1" width="12" x="1408.0" y="282.0" /><text fill="#222222" font-size="10" x="1426.0" y="292.0">Bath</text><rect fill="#f0f0f0" height="12" stroke="#333333" stroke-width="1" width="12" x="1408.0" y="300.0" /><text fill="#222222" font-size="10" x="1426.0" y="310.0">Storage</text><line stroke="#6aa4ff" stroke-width="4" x1="1408.0" x2="1435.0" y1="330.0" y2="330.0" /><text fill="#222222" font-size="10" x="1442.0" y="333.0">Window</text><line stroke="#666666" stroke-width="2.4" x1="1408.0" x2="1435.0" y1="346.0" y2="346.0" /><path d="M 1408.0,346.0 A 10,10 0 0 1 1418.0,336.0" fill="none" stroke="#666666" stroke-width="1.2" /><text fill="#222222" font-size="10" x="1442.0" y="349.0">Door</text><rect fill="#ffffff" height="84" stroke="#777777" stroke-width="1" width="200" x="1400.0" y="520.0" /><text fill="#111111" font-size="10" x="1408.0" y="533.0">Area (F1)</text><text fill="#222222" font-size="9" x="1408.0" y="550.0">F1: in 58.0 sqm (17.5 tsubo), out 0.0 sqm (0.0 tsubo)</text><text fill="#222222" font-size="9" x="1408.0" y="566.0">F2: in 58.0 sqm (17.5 tsubo), out 0.0 sqm (0.0 tsubo)</text><text fill="#222222" font-size="9" x="1408.0" y="582.0">Total indoor: 115.9 sqm (35.1 tsubo)</text><text fill="#222222" font-size="9" x="1408.0" y="598.0">Total outdoor: 0.0 sqm (0.0 tsubo)</text><line stroke="#111111" stroke-width="2" x1="175.0" x2="175.0" y1="238.0" y2="208.0" /><polygon fill="#111111" points="175.0,208.0 181.0,214.0 169.0,214.0" /><text fill="#111111" font-size="12" x="170.0" y="202.0">N</text><line stroke="#545454" stroke-width="1.0" x1="220.0" x2="1312.0" y1="148.0" y2="148.0" /><line stroke="#545454" stroke-width="0.8" x1="220.0" x2="220.0" y1="220.0" y2="148.0" /><line stroke="#545454" stroke-width="1.0" x1="220.0" x2="220.0" y1="145.0" y2="151.0" /><line stroke="#545454" stroke-width="0.8" x1="1312.0" x2="1312.0" y1="220.0" y2="148.0" /><line stroke="#545454" stroke-width="1.0" x1="1312.0" x2="1312.0" y1="145.0" y2="151.0" /><text fill="#545454" font-size="8.8" text-anchor="middle" x="766.0" y="145.0">9100mm</text><line stroke="#666666" stroke-width="1.0" x1="220.0" x2="1312.0" y1="166.0" y2="166.0" /><line stroke="#666666" stroke-width="0.8" x1="220.0" x2="220.0" y1="220.0" y2="166.0" /><line stroke="#666666" stroke-width="1.0" x1="220.0" x2="220.0" y1="163.0" y2="169.0" /><line stroke="#666666" stroke-width="0.8" x1="656.8" x2="656.8" y1="220.0" y2="166.0" /><line stroke="#666666" stroke-width="1.0" x1="656.8" x2="656.8" y1="163.0" y2="169.0" /><line stroke="#666666" stroke-width="0.8" x1="875.2" x2="875.2" y1="220.0" y2="166.0" /><line stroke="#666666" stroke-width="1.0" x1="875.2" x2="875.2" y1="163.0" y2="169.0" /><line stroke="#666666" stroke-width="0.8" x1="1093.6" x2="1093.6" y1="220.0" y2="166.0" /><line stroke="#666666" stroke-width="1.0" x1="1093.6" x2="1093.6" y1="163.0" y2="169.0" /><line stroke="#666666" stroke-width="0.8" x1="1312.0" x2="1312.0" y1="220.0" y2="166.0" /><line stroke="#666666" stroke-width="1.0" x1="1312.0" x2="1312.0" y1="163.0" y2="169.0" /><text fill="#666666" font-size="8.2" text-anchor="middle" x="438.4" y="163.0">3640</text><text fill="#666666" font-size="8.2" text-anchor="middle" x="766.0" y="163.0">1820</text><text fill="#666666" font-size="8.2" text-anchor="middle" x="984.4" y="163.0">1820</text><text fill="#666666" font-size="8.2" text-anchor="middle" x="1202.8" y="163.0">1820</text><line stroke="#7a7a7a" stroke-width="1.0" x1="220.0" x2="1312.0" y1="184.0" y2="184.0" /><line stroke="#7a7a7a" stroke-width="0.8" x1="220.0" x2="220.0" y1="220.0" y2="184.0" /><line stroke="#7a7a7a" stroke-width="1.0" x1="220.0" x2="220.0" y1="181.0" y2="187.0" /><line stroke="#7a7a7a" stroke-width="0.8" x1="274.6" x2="274.6" y1="220.0" y2="184.0" /><line stroke="#7a7a7a" stroke-width="1.0" x1="274.6" x2="274.6" y1="181.0" y2="187.0" /><line stroke="#7a7a7a" stroke-width="0.8" x1="438.4" x2="438.4" y1="220.0" y2="184.0" /><line stroke="#7a7a7a" stroke-width="1.0" x1="438.4" x2="438.4" y1="181.0" y2="187.0" /><line stroke="#7a7a7a" stroke-width="0.8" x1="602.2" x2="602.2" y1="220.0" y2="184.0" /><line stroke="#7a7a7a" stroke-width="1.0" x1="602.2" x2="602.2" y1="181.0" y2="187.0" /><line stroke="#7a7a7a" stroke-width="0.8" x1="1312.0" x2="1312.0" y1="220.0" y2="184.0" /><line stroke="#7a7a7a" stroke-width="1.0" x1="1312.0" x2="1312.0" y1="181.0" y2="187.0" /><text fill="#7a7a7a" font-size="7.8" text-anchor="middle" x="356.5" y="181.0">1365</text><text fill="#7a7a7a" font-size="7.8" text-anchor="middle" x="520.3" y="181.0">1365</text><text fill="#7a7a7a" font-size="7.8" text-anchor="middle" x="957.1" y="181.0">5915</text><line stroke="#545454" stroke-width="1.0" x1="220.0" x2="1312.0" y1="1056.4" y2="1056.4" /><line stroke="#545454" stroke-width="0.8" x1="220.0" x2="220.0" y1="984.4" y2="1056.4" /><line stroke="#545454" stroke-width="1.0" x1="220.0" x2="220.0" y1="1053.4" y2="1059.4" /><line stroke="#545454" stroke-width="0.8" x1="1312.0" x2="1312.0" y1="984.4" y2="1056.4" /><line stroke="#545454" stroke-width="1.0" x1="1312.0" x2="1312.0" y1="1053.4" y2="1059.4" /><text fill="#545454" font-size="8.8" text-anchor="middle" x="766.0" y="1066.4">9100mm</text><line stroke="#666666" stroke-width="1.0" x1="220.0" x2="1312.0" y1="1038.4" y2="1038.4" /><line stroke="#666666" stroke-width="0.8" x1="220.0" x2="220.0" y1="984.4" y2="1038.4" /><line stroke="#666666" stroke-width="1.0" x1="220.0" x2="220.0" y1="1035.4" y2="1041.4" /><line stroke="#666666" stroke-width="0.8" x1="875.2" x2="875.2" y1="984.4" y2="1038.4" /><line stroke="#666666" stroke-width="1.0" x1="875.2" x2="875.2" y1="1035.4" y2="1041.4" /><line stroke="#666666" stroke-width="0.8" x1="984.4" x2="984.4" y1="984.4" y2="1038.4" /><line stroke="#666666" stroke-width="1.0" x1="984.4" x2="984.4" y1="1035.4" y2="1041.4" /><line stroke="#666666" stroke-width="0.8" x1="1093.6" x2="1093.6" y1="984.4" y2="1038.4" /><line stroke="#666666" stroke-width="1.0" x1="1093.6" x2="1093.6" y1="1035.4" y2="1041.4" /><line stroke="#666666" stroke-width="0.8" x1="1202.8" x2="1202.8" y1="984.4" y2="1038.4" /><line stroke="#666666" stroke-width="1.0" x1="1202.8" x2="1202.8" y1="1035.4" y2="1041.4" /><line stroke="#666666" stroke-width="0.8" x1="1312.0" x2="1312.0" y1="984.4" y2="1038.4" /><line stroke="#666666" stroke-width="1.0" x1="1312.0" x2="1312.0" y1="1035.4" y2="1041.4" /><text fill="#666666" font-size="8.2" text-anchor="middle" x="547.5999999999999" y="1048.4">5460</text><text fill="#666666" font-size="8.2" text-anchor="middle" x="929.8" y="1048.4">910</text><text fill="#666666" font-size="8.2" text-anchor="middle" x="1039.0" y="1048.4">910</text><text fill="#666666" font-size="8.2" text-anchor="middle" x="1148.1999999999998" y="1048.4">910</text><text fill="#666666" font-size="8.2" text-anchor="middle" x="1257.3999999999999" y="1048.4">910</text><line stroke="#7a7a7a" stroke-width="1.0" x1="220.0" x2="1312.0" y1="1020.4" y2="1020.4" /><line stroke="#7a7a7a" stroke-width="0.8" x1="220.0" x2="220.0" y1="984.4" y2="1020.4" /><line stroke="#7a7a7a" stroke-width="1.0" x1="220.0" x2="220.0" y1="1017.4" y2="1023.4" /><line stroke="#7a7a7a" stroke-width="0.8" x1="329.2" x2="329.2" y1="984.4" y2="1020.4" /><line stroke="#7a7a7a" stroke-width="1.0" x1="329.2" x2="329.2" y1="1017.4" y2="1023.4" /><line stroke="#7a7a7a" stroke-width="0.8" x1="493.0" x2="493.0" y1="984.4" y2="1020.4" /><line stroke="#7a7a7a" stroke-width="1.0" x1="493.0" x2="493.0" y1="1017.4" y2="1023.4" /><line stroke="#7a7a7a" stroke-width="0.8" x1="602.2" x2="602.2" y1="984.4" y2="1020.4" /><line stroke="#7a7a7a" stroke-width="1.0" x1="602.2" x2="602.2" y1="1017.4" y2="1023.4" /><line stroke="#7a7a7a" stroke-width="0.8" x1="766.0" x2="766.0" y1="984.4" y2="1020.4" /><line stroke="#7a7a7a" stroke-width="1.0" x1="766.0" x2="766.0" y1="1017.4" y2="1023.4" /><line stroke="#7a7a7a" stroke-width="0.8" x1="1312.0" x2="1312.0" y1="984.4" y2="1020.4" /><line stroke="#7a7a7a" stroke-width="1.0" x1="1312.0" x2="1312.0" y1="1017.4" y2="1023.4" /><text fill="#7a7a7a" font-size="7.8" text-anchor="middle" x="274.6" y="1030.4">910</text><text fill="#7a7a7a" font-size="7.8" text-anchor="middle" x="411.1" y="1030.4">1365</text><text fill="#7a7a7a" font-size="7.8" text-anchor="middle" x="547.5999999999999" y="1030.4">910</text><text fill="#7a7a7a" font-size="7.8" text-anchor="middle" x="684.0999999999999" y="1030.4">1365</text><text fill="#7a7a7a" font-size="7.8" text-anchor="middle" x="1039.0" y="1030.4">4550</text><line stroke="#545454" stroke-width="1.0" x1="148.0" x2="148.0" y1="220.0" y2="984.4" /><line stroke="#545454" stroke-width="0.8" x1="220.0" x2="148.0" y1="220.0" y2="220.0" /><line stroke="#545454" stroke-width="1.0" x1="145.0" x2="151.0" y1="220.0" y2="220.0" /><line stroke="#545454" stroke-width="0.8" x1="220.0" x2="148.0" y1="984.4" y2="984.4" /><line stroke="#545454" stroke-width="1.0" x1="145.0" x2="151.0" y1="984.4" y2="984.4" /><text fill="#545454" font-size="8.8" x="144.0" y="602.2">6370mm</text><line stroke="#666666" stroke-width="1.0" x1="166.0" x2="166.0" y1="220.0" y2="984.4" /><line stroke="#666666" stroke-width="0.8" x1="220.0" x2="166.0" y1="220.0" y2="220.0" /><line stroke="#666666" stroke-width="1.0" x1="163.0" x2="169.0" y1="220.0" y2="220.0" /><line stroke="#666666" stroke-width="0.8" x1="220.0" x2="166.0" y1="493.0" y2="493.0" /><line stroke="#666666" stroke-width="1.0" x1="163.0" x2="169.0" y1="493.0" y2="493.0" /><line stroke="#666666" stroke-width="0.8" x1="220.0" x2="166.0" y1="984.4" y2="984.4" /><line stroke="#666666" stroke-width="1.0" x1="163.0" x2="169.0" y1="984.4" y2="984.4" /><text fill="#666666" font-size="8.2" x="162.0" y="356.5">2275</text><text fill="#666666" font-size="8.2" x="162.0" y="738.6999999999999">4095</text><line stroke="#7a7a7a" stroke-width="1.0" x1="184.0" x2="184.0" y1="220.0" y2="984.4" /><line stroke="#7a7a7a" stroke-width="0.8" x1="220.0" x2="184.0" y1="220.0" y2="220.0" /><line stroke="#7a7a7a" stroke-width="1.0" x1="181.0" x2="187.0" y1="220.0" y2="220.0" /><line stroke="#7a7a7a" stroke-width="0.8" x1="220.0" x2="184.0" y1="274.6" y2="274.6" /><line stroke="#7a7a7a" stroke-width="1.0" x1="181.0" x2="187.0" y1="274.6" y2="274.6" /><line stroke="#7a7a7a" stroke-width="0.8" x1="220.0" x2="184.0" y1="383.8" y2="383.8" /><line stroke="#7a7a7a" stroke-width="1.0" x1="181.0" x2="187.0" y1="383.8" y2="383.8" /><line stroke="#7a7a7a" stroke-width="0.8" x1="220.0" x2="184.0" y1="547.6" y2="547.6" /><line stroke="#7a7a7a" stroke-width="1.0" x1="181.0" x2="187.0" y1="547.6" y2="547.6" /><line stroke="#7a7a7a" stroke-width="0.8" x1="220.0" x2="184.0" y1="711.4" y2="711.4" /><line stroke="#7a7a7a" stroke-width="1.0" x1="181.0" x2="187.0" y1="711.4" y2="711.4" /><line stroke="#7a7a7a" stroke-width="0.8" x1="220.0" x2="184.0" y1="766.0" y2="766.0" /><line stroke="#7a7a7a" stroke-width="1.0" x1="181.0" x2="187.0" y1="766.0" y2="766.0" /><line stroke="#7a7a7a" stroke-width="0.8" x1="220.0" x2="184.0" y1="929.8" y2="929.8" /><line stroke="#7a7a7a" stroke-width="1.0" x1="181.0" x2="187.0" y1="929.8" y2="929.8" /><line stroke="#7a7a7a" stroke-width="0.8" x1="220.0" x2="184.0" y1="984.4" y2="984.4" /><line stroke="#7a7a7a" stroke-width="1.0" x1="181.0" x2="187.0" y1="984.4" y2="984.4" /><text fill="#7a7a7a" font-size="7.8" x="180.0" y="329.2">910</text><text fill="#7a7a7a" font-size="7.8" x="180.0" y="465.7">1365</text><text fill="#7a7a7a" font-size="7.8" x="180.0" y="629.5">1365</text><text fill="#7a7a7a" font-size="7.8" x="180.0" y="847.9">1365</text><line stroke="#545454" stroke-width="1.0" x1="1384.0" x2="1384.0" y1="220.0" y2="984.4" /><line stroke="#545454" stroke-width="0.8" x1="1312.0" x2="1384.0" y1="220.0" y2="220.0" /><line stroke="#545454" stroke-width="1.0" x1="1381.0" x2="1387.0" y1="220.0" y2="220.0" /><line stroke="#545454" stroke-width="0.8" x1="1312.0" x2="1384.0" y1="984.4" y2="984.4" /><line stroke="#545454" stroke-width="1.0" x1="1381.0" x2="1387.0" y1="984.4" y2="984.4" /><text fill="#545454" font-size="8.8" x="1389.0" y="602.2">6370mm</text><line stroke="#666666" stroke-width="1.0" x1="1366.0" x2="1366.0" y1="220.0" y2="984.4" /><line stroke="#666666" stroke-width="0.8" x1="1312.0" x2="1366.0" y1="220.0" y2="220.0" /><line stroke="#666666" stroke-width="1.0" x1="1363.0" x2="1369.0" y1="220.0" y2="220.0" /><line stroke="#666666" stroke-width="0.8" x1="1312.0" x2="1366.0" y1="438.4" y2="438.4" /><line stroke="#666666" stroke-width="1.0" x1="1363.0" x2="1369.0" y1="438.4" y2="438.4" /><line stroke="#666666" stroke-width="0.8" x1="1312.0" x2="1366.0" y1="602.2" y2="602.2" /><line stroke="#666666" stroke-width="1.0" x1="1363.0" x2="1369.0" y1="602.2" y2="602.2" /><line stroke="#666666" stroke-width="0.8" x1="1312.0" x2="1366.0" y1="766.0" y2="766.0" /><line stroke="#666666" stroke-width="1.0" x1="1363.0" x2="1369.0" y1="766.0" y2="766.0" /><line stroke="#666666" stroke-width="0.8" x1="1312.0" x2="1366.0" y1="984.4" y2="984.4" /><line stroke="#666666" stroke-width="1.0" x1="1363.0" x2="1369.0" y1="984.4" y2="984.4" /><text fill="#666666" font-size="8.2" x="1371.0" y="329.2">1820</text><text fill="#666666" font-size="8.2" x="1371.0" y="520.3">1365</text><text fill="#666666" font-size="8.2" x="1371.0" y="684.0999999999999">1365</text><text fill="#666666" font-size="8.2" x="1371.0" y="875.1999999999999">1820</text><line stroke="#7a7a7a" stroke-width="1.0" x1="1348.0" x2="1348.0" y1="220.0" y2="984.4" /><line stroke="#7a7a7a" stroke-width="0.8" x1="1312.0" x2="1348.0" y1="220.0" y2="220.0" /><line stroke="#7a7a7a" stroke-width="1.0" x1="1345.0" x2="1351.0" y1="220.0" y2="220.0" /><line stroke="#7a7a7a" stroke-width="0.8" x1="1312.0" x2="1348.0" y1="493.0" y2="493.0" /><line stroke="#7a7a7a" stroke-width="1.0" x1="1345.0" x2="1351.0" y1="493.0" y2="493.0" /><line stroke="#7a7a7a" stroke-width="0.8" x1="1312.0" x2="1348.0" y1="547.6" y2="547.6" /><line stroke="#7a7a7a" stroke-width="1.0" x1="1345.0" x2="1351.0" y1="547.6" y2="547.6" /><line stroke="#7a7a7a" stroke-width="0.8" x1="1312.0" x2="1348.0" y1="984.4" y2="984.4" /><line stroke="#7a7a7a" stroke-width="1.0" x1="1345.0" x2="1351.0" y1="984.4" y2="984.4" /><text fill="#7a7a7a" font-size="7.8" x="1353.0" y="356.5">2275</text><text fill="#7a7a7a" font-size="7.8" x="1353.0" y="766.0">3640</text></svg>