<?xml version="1.0" encoding="utf-8" ?>
<svg baseProfile="tiny" height="1204.4px" version="1.2" width="1532.0px" xmlns="http://www.w3.org/2000/svg" xmlns:ev="http://www.w3.org/2001/xml-events" xmlns:xlink="http://www.w3.org/1999/xlink"><defs /><rect fill="#fafafa" height="1204.4" width="1532.0" x="0" y="0" /><line stroke="#ececec" stroke-width="0.7" x1="220.0" x2="220.0" y1="220.0" y2="984.4" /><line stroke="#ececec" stroke-width="0.7" x1="274.6" x2="274.6" y1="220.0" y2="984.4" /><line stroke="#ececec" stroke-width="0.7" x1="329.2" x2="329.2" y1="220.0" y2="984.4" /><line stroke="#ececec" stroke-width="0.7" x1="383.8" x2="383.8" y1="220.0" y2="984.4" /><line stroke="#ececec" stroke-width="0.7" x1="438.4" x2="438.4" y1="220.0" y2="984.4" /><line stroke="#ececec" stroke-width="0.7" x1="493.0" x2="493.0" y1="220.0" y2="984.4" /><line stroke="#ececec" stroke-width="0.7" x1="547.6" x2="547.6" y1="220.0" y2="984.4" /><line stroke="#ececec" stroke-width="0.7" x1="602.2" x2="602.2" y1="220.0" y2="984.4" /><line stroke="#ececec" stroke-width="0.7" x1="656.8" x2="656.8" y1="220.0" y2="984.4" /><line stroke="#ececec" stroke-width="0.7" x1="711.4" x2="711.4" y1="220.0" y2="984.4" /><line stroke="#ececec" stroke-width="0.7" x1="766.0" x2="766.0" y1="220.0" y2="984.4" /><line stroke="#ececec" stroke-width="0.7" x1="820.6" x2="820.6" y1="220.0" y2="984.4" /><line stroke="#ececec" stroke-width="0.7" x1="875.2" x2="875.2" y1="220.0" y2="984.4" /><line stroke="#ececec" stroke-width="0.7" x1="929.8" x2="929.8" y1="220.0" y2="984.4" /><line stroke="#ececec" stroke-width="0.7" x1="984.4" x2="984.4" y1="220.0" y2="984.4" /><line stroke="#ececec" stroke-width="0.7" x1="1039.0" x2="1039.0" y1="220.0" y2="984.4" /><line stroke="#ececec" stroke-width="0.7" x1="1093.6" x2="1093.6" y1="220.0" y2="984.4" /><line stroke="#ececec" stroke-width="0.7" x1="1148.2" x2="1148.2" y1="220.0" y2="984.4" /><line stroke="#ececec" stroke-width="0.7" x1="1202.8" x2="1202.8" y1="220.0" y2="984.4" /><line stroke="#ececec" stroke-width="0.7" x1="1257.4" x2="1257.4" y1="220.0" y2="984.4" /><line stroke="#ececec" stroke-width="0.7" x1="1312.0" x2="1312.0" y1="220.0" y2="984.4" /><line stroke="#d1d1d1" stroke-width="1.1" x1="220.0" x2="220.0" y1="220.0" y2="984.4" /><line stroke="#d1d1d1" stroke-width="1.1" x1="329.2" x2="329.2" y1="220.0" y2="984.4" /><line stroke="#d1d1d1" stroke-width="1.1" x1="438.4" x2="438.4" y1="220.0" y2="984.4" /><line stroke="#d1d1d1" stroke-width="1.1" x1="547.6" x2="547.6" y1="220.0" y2="984.4" /><line stroke="#d1d1d1" stroke-width="1.1" x1="656.8" x2="656.8" y1="220.0" y2="984.4" /><line stroke="#d1d1d1" stroke-width="1.1" x1="766.0" x2="766.0" y1="220.0" y2="984.4" /><line stroke="#d1d1d1" stroke-width="1.1" x1="875.2" x2="875.2" y1="220.0" y2="984.4" /><line stroke="#d1d1d1" stroke-width="1.1" x1="984.4" x2="984.4" y1="220.0" y2="984.4" /><line stroke="#d1d1d1" stroke-width="1.1" x1="1093.6" x2="1093.6" y1="220.0" y2="984.4" /><line stroke="#d1d1d1" stroke-width="1.1" x1="1202.8" x2="1202.8" y1="220.0" y2="984.4" /><line stroke="#d1d1d1" stroke-width="1.1" x1="1312.0" x2="1312.0" y1="220.0" y2="984.4" /><line stroke="#d1d1d1" stroke-width="1.1" x1="220.0" x2="1312.0" y1="220.0" y2="220.0" /><line stroke="#d1d1d1" stroke-width="1.1" x1="220.0" x2="1312.0" y1="329.2" y2="329.2" /><line stroke="#d1d1d1" stroke-width="1.1" x1="220.0" x2="1312.0" y1="438.4" y2="438.4" /><line stroke="#d1d1d1" stroke-width="1.1" x1="220.0" x2="1312.0" y1="547.6" y2="547.6" /><line stroke="#d1d1d1" stroke-width="1.1" x1="220.0" x2="1312.0" y1="656.8" y2="656.8" /><line stroke="#d1d1d1" stroke-width="1.1" x1="220.0" x2="1312.0" y1="766.0" y2="766.0" /><line stroke="#d1d1d1" stroke-width="1.1" x1="220.0" x2="1312.0" y1="875.2" y2="875.2" /><line stroke="#d1d1d1" stroke-width="1.1" x1="220.0" x2="1312.0" y1="984.4" y2="984.4" /><line stroke="#ececec" stroke-width="0.7" x1="220.0" x2="1312.0" y1="220.0" y2="220.0" /><line stroke="#ececec" stroke-width="0.7" x1="220.0" x2="1312.0" y1="274.6" y2="274.6" /><line stroke="#ececec" stroke-width="0.7" x1="220.0" x2="1312.0" y1="329.2" y2="329.2" /><line stroke="#ececec" stroke-width="0.7" x1="220.0" x2="1312.0" y1="383.8" y2="383.8" /><line stroke="#ececec" stroke-width="0.7" x1="220.0" x2="1312.0" y1="438.4" y2="438.4" /><line stroke="#ececec" stroke-width="0.7" x1="220.0" x2="1312.0" y1="493.0" y2="493.0" /><line stroke="#ececec" stroke-width="0.7" x1="220.0" x2="1312.0" y1="547.6" y2="547.6" /><line stroke="#ececec" stroke-width="0.7" x1="220.0" x2="1312.0" y1="602.2" y2="602.2" /><line stroke="#ececec" stroke-width="0.7" x1="220.0" x2="1312.0" y1="656.8" y2="656.8" /><line stroke="#ececec" stroke-width="0.7" x1="220.0" x2="1312.0" y1="711.4" y2="711.4" /><line stroke="#ececec" stroke-width="0.7" x1="220.0" x2="1312.0" y1="766.0" y2="766.0" /><line stroke="#ececec" stroke-width="0.7" x1="220.0" x2="1312.0" y1="820.6" y2="820.6" /><line stroke="#ececec" stroke-width="0.7" x1="220.0" x2="1312.0" y1="875.2" y2="875.2" /><line stroke="#ececec" stroke-width="0.7" x1="220.0" x2="1312.0" y1="929.8" y2="929.8" /><line stroke="#ececec" stroke-width="0.7" x1="220.0" x2="1312.0" y1="984.4" y2="984.4" /><rect fill="none" height="764.4" stroke="#6a6a6a" stroke-dasharray="8,4" stroke-width="2" width="1092.0" x="220.0" y="220.0" /><rect fill="none" height="764.4" stroke="#1f1f1f" stroke-width="3.5" width="1092.0" x="220.0" y="220.0" /><text fill="#555555" font-size="10" x="222.0" y="160.0">Site Envelope = Building Footprint</text><rect fill="#d9f2ff" height="600.6" stroke="none" width="327.6" x="984.4" y="220.0" /><line stroke="#2f2f2f" stroke-width="2.2" x1="984.4" x2="1312.0" y1="820.6" y2="820.6" /><line stroke="#2f2f2f" stroke-width="2.2" x1="984.4" x2="1312.0" y1="220.0" y2="220.0" /><line stroke="#2f2f2f" stroke-width="2.2" x1="984.4" x2="984.4" y1="220.0" y2="820.6" /><line stroke="#2f2f2f" stroke-width="2.2" x1="1312.0" x2="1312.0" y1="220.0" y2="820.6" /><rect fill="#d9f2ff" height="327.6" stroke="none" width="546.0" x="438.4" y="220.0" /><line stroke="#2f2f2f" stroke-width="2.2" x1="438.4" x2="984.4" y1="547.6" y2="547.6" /><line stroke="#2f2f2f" stroke-width="2.2" x1="438.4" x2="984.4" y1="220.0" y2="220.0" /><line stroke="#2f2f2f" stroke-width="2.2" x1="984.4" x2="984.4" y1="220.0" y2="547.6" /><line stroke="#2f2f2f" stroke-width="2.2" x1="438.4" x2="438.4" y1="220.0" y2="547.6" /><rect fill="#efe9ff" height="436.8" stroke="none" width="109.2" x="766.0" y="547.6" /><rect fill="#efe9ff" height="109.2" stroke="none" width="109.2" x="875.2" y="875.2" /><rect fill="#efe9ff" height="163.8" stroke="none" width="327.6" x="984.4" y="820.6" /><line stroke="#2f2f2f" stroke-width="2.2" x1="984.4" x2="1312.0" y1="820.6" y2="820.6" /><line stroke="#2f2f2f" stroke-width="2.2" x1="766.0" x2="1312.0" y1="984.4" y2="984.4" /><line stroke="#2f2f2f" stroke-width="2.2" x1="875.2" x2="984.4" y1="875.2" y2="875.2" /><line stroke="#2f2f2f" stroke-width="2.2" x1="766.0" x2="875.2" y1="547.6" y2="547.6" /><line stroke="#2f2f2f" stroke-width="2.2" x1="766.0" x2="766.0" y1="547.6" y2="984.4" /><line stroke="#2f2f2f" stroke-width="2.2" x1="875.2" x2="875.2" y1="547.6" y2="875.2" /><line stroke="#2f2f2f" stroke-width="2.2" x1="1312.0" x2="1312.0" y1="820.6" y2="984.4" /><line stroke="#2f2f2f" stroke-width="2.2" x1="984.4" x2="984.4" y1="820.6" y2="875.2" /><rect fill="#c5e8ff" height="436.8" stroke="none" width="546.0" x="220.0" y="547.6" /><line stroke="#2f2f2f" stroke-width="2.2" x1="220.0" x2="766.0" y1="547.6" y2="547.6" /><line stroke="#2f2f2f" stroke-width="2.2" x1="220.0" x2="766.0" y1="984.4" y2="984.4" /><line stroke="#2f2f2f" stroke-width="2.2" x1="220.0" x2="220.0" y1="547.6" y2="984.4" /><line stroke="#2f2f2f" stroke-width="2.2" x1="766.0" x2="766.0" y1="547.6" y2="984.4" /><rect fill="#f0f0f0" height="327.6" stroke="none" width="218.4" x="220.0" y="220.0" /><line stroke="#2f2f2f" stroke-width="2.2" x1="220.0" x2="438.4" y1="220.0" y2="220.0" /><line stroke="#2f2f2f" stroke-width="2.2" x1="220.0" x2="438.4" y1="547.6" y2="547.6" /><line stroke="#2f2f2f" stroke-width="2.2" x1="438.4" x2="438.4" y1="220.0" y2="547.6" /><line stroke="#2f2f2f" stroke-width="2.2" x1="220.0" x2="220.0" y1="220.0" y2="547.6" /><rect fill="none" height="148.512" stroke="#7f7f7f" stroke-width="1.1" width="218.4" x="383.8" y="626.224" /><line stroke="#7f7f7f" stroke-width="0.9" x1="383.8" x2="602.2" y1="678.2032" y2="678.2032" /><rect fill="none" height="163.8" stroke="#7f7f7f" stroke-width="1.1" width="183.456" x="1056.472" y="328.108" /><line stroke="#7f7f7f" stroke-width="0.9" x1="1056.472" x2="1239.928" y1="385.438" y2="385.438" /><rect fill="none" height="111.384" stroke="#7f7f7f" stroke-width="1.1" width="218.4" x="602.2" y="278.968" /><line stroke="#7f7f7f" stroke-width="0.9" x1="602.2" x2="820.6" y1="317.9524" y2="317.9524" /><line stroke="#9a9a9a" stroke-width="0.9" x1="246.208" x2="412.192" y1="278.968" y2="278.968" /><line stroke="#9a9a9a" stroke-width="0.9" x1="246.208" x2="412.192" y1="488.632" y2="488.632" /><rect fill="#ffffff" height="327.6" stroke="#202020" stroke-dasharray="8,4" stroke-width="2.6" width="109.2" x="875.2" y="547.6" /><line stroke="#2a2a2a" stroke-width="1.4" x1="888.304" x2="971.296" y1="572.8" y2="572.8" /><line stroke="#2a2a2a" stroke-width="1.4" x1="888.304" x2="971.296" y1="598.0" y2="598.0" /><line stroke="#2a2a2a" stroke-width="1.4" x1="888.304" x2="971.296" y1="623.2" y2="623.2" /><line stroke="#2a2a2a" stroke-width="1.4" x1="888.304" x2="971.296" y1="648.4" y2="648.4" /><line stroke="#2a2a2a" stroke-width="1.4" x1="888.304" x2="971.296" y1="673.6" y2="673.6" /><line stroke="#2a2a2a" stroke-width="1.4" x1="888.304" x2="971.296" y1="698.8" y2="698.8" /><line stroke="#2a2a2a" stroke-width="1.4" x1="888.304" x2="971.296" y1="724.0" y2="724.0" /><line stroke="#2a2a2a" stroke-width="1.4" x1="888.304" x2="971.296" y1="749.2" y2="749.2" /><line stroke="#2a2a2a" stroke-width="1.4" x1="888.304" x2="971.296" y1="774.4" y2="774.4" /><line stroke="#2a2a2a" stroke-width="1.4" x1="888.304" x2="971.296" y1="799.6" y2="799.6" /><line stroke="#2a2a2a" stroke-width="1.4" x1="888.304" x2="971.296" y1="824.8" y2="824.8" /><line stroke="#2a2a2a" stroke-width="1.4" x1="888.304" x2="971.296" y1="850.0" y2="850.0" /><text fill="#202020" font-size="11" text-anchor="middle" x="929.8" y="711.4">Stair (DN)</text><text fill="#3a3a3a" font-size="9.0" text-anchor="middle" x="929.8" y="725.8">13R/12T</text><text fill="#4a4a4a" font-size="7.8" text-anchor="middle" x="929.8" y="734.1999999999999">H2730 R210 T228</text><line stroke="#ffffff" stroke-width="7" x1="875.2" x2="984.4" y1="875.2" y2="875.2" /><line stroke="#5e5e5e" stroke-width="1.0" x1="875.2" x2="984.4" y1="875.2" y2="875.2" /><line stroke="#ffffff" stroke-width="6" x1="766.0" x2="766.0" y1="707.2" y2="824.8" /><line stroke="#595959" stroke-width="1.2" x1="766.0" x2="689.56" y1="707.2" y2="783.64" /><path d="M 766.0,783.64 A 76.44,76.44 0 0 1 689.56,783.64" fill="none" stroke="#7a7a7a" stroke-width="1.0" /><line stroke="#ffffff" stroke-width="6" x1="1089.4" x2="1207.0" y1="820.6" y2="820.6" /><line stroke="#595959" stroke-width="1.2" x1="1089.4" x2="1165.84" y1="820.6" y2="897.04" /><path d="M 1165.84,820.6 A 76.44,76.44 0 0 1 1165.84,897.04" fill="none" stroke="#7a7a7a" stroke-width="1.0" /><line stroke="#ffffff" stroke-width="6" x1="775.0" x2="866.2" y1="547.6" y2="547.6" /><line stroke="#595959" stroke-width="1.2" x1="775.0" x2="834.28" y1="547.6" y2="488.32" /><path d="M 834.28,547.5999999999999 A 59.28,59.28 0 0 1 834.28,488.32" fill="none" stroke="#7a7a7a" stroke-width="1.0" /><line stroke="#ffffff" stroke-width="6" x1="984.4" x2="984.4" y1="325.0" y2="442.6" /><line stroke="#595959" stroke-width="1.2" x1="984.4" x2="1060.84" y1="325.0" y2="401.44" /><path d="M 984.4,401.44 A 76.44,76.44 0 0 1 1060.84,401.44" fill="none" stroke="#7a7a7a" stroke-width="1.0" /><line stroke="#ffffff" stroke-width="6" x1="280.06" x2="378.34" y1="547.6" y2="547.6" /><line stroke="#595959" stroke-width="1.2" x1="280.06" x2="343.942" y1="547.6" y2="483.718" /><path d="M 343.942,547.5999999999999 A 63.882,63.882 0 0 1 343.942,483.718" fill="none" stroke="#7a7a7a" stroke-width="1.0" /><line stroke="#66a7ff" stroke-width="2.2" x1="217.36" x2="217.36" y1="595.684" y2="744.124" /><line stroke="#66a7ff" stroke-width="2.2" x1="222.64" x2="222.64" y1="595.684" y2="744.124" /><line stroke="#66a7ff" stroke-width="2.2" x1="217.36" x2="217.36" y1="787.876" y2="936.316" /><line stroke="#66a7ff" stroke-width="2.2" x1="222.64" x2="222.64" y1="787.876" y2="936.316" /><line stroke="#66a7ff" stroke-width="2.2" x1="280.06" x2="465.7" y1="981.76" y2="981.76" /><line stroke="#66a7ff" stroke-width="2.2" x1="280.06" x2="465.7" y1="987.04" y2="987.04" /><line stroke="#66a7ff" stroke-width="2.2" x1="520.3" x2="705.94" y1="981.76" y2="981.76" /><line stroke="#66a7ff" stroke-width="2.2" x1="520.3" x2="705.94" y1="987.04" y2="987.04" /><line stroke="#66a7ff" stroke-width="2.2" x1="1309.36" x2="1309.36" y1="292.168" y2="484.168" /><line stroke="#66a7ff" stroke-width="2.2" x1="1314.64" x2="1314.64" y1="292.168" y2="484.168" /><line stroke="#66a7ff" stroke-width="2.2" x1="1309.36" x2="1309.36" y1="556.432" y2="748.432" /><line stroke="#66a7ff" stroke-width="2.2" x1="1314.64" x2="1314.64" y1="556.432" y2="748.432" /><line stroke="#66a7ff" stroke-width="2.2" x1="1092.52" x2="1203.88" y1="217.36" y2="217.36" /><line stroke="#66a7ff" stroke-width="2.2" x1="1092.52" x2="1203.88" y1="222.64" y2="222.64" /><line stroke="#66a7ff" stroke-width="2.2" x1="498.46" x2="684.1" y1="217.36" y2="217.36" /><line stroke="#66a7ff" stroke-width="2.2" x1="498.46" x2="684.1" y1="222.64" y2="222.64" /><line stroke="#66a7ff" stroke-width="2.2" x1="738.7" x2="924.34" y1="217.36" y2="217.36" /><line stroke="#66a7ff" stroke-width="2.2" x1="738.7" x2="924.34" y1="222.64" y2="222.64" /><line stroke="#9a9a9a" stroke-width="0.8" x1="774.4" x2="866.8" y1="556.0" y2="556.0" /><line stroke="#9a9a9a" stroke-width="0.8" x1="774.4" x2="774.4" y1="552.64" y2="559.36" /><line stroke="#9a9a9a" stroke-width="0.8" x1="866.8" x2="866.8" y1="552.64" y2="559.36" /><text fill="#8a8a8a" font-size="7.6" text-anchor="start" x="781.12" y="553.36">910mm</text><line stroke="#9a9a9a" stroke-width="0.8" x1="774.4" x2="774.4" y1="556.0" y2="976.0" /><line stroke="#9a9a9a" stroke-width="0.8" x1="771.04" x2="777.76" y1="556.0" y2="556.0" /><line stroke="#9a9a9a" stroke-width="0.8" x1="771.04" x2="777.76" y1="976.0" y2="976.0" /><text fill="#8a8a8a" font-size="7.6" text-anchor="start" x="778.48" y="563.6800000000001">3640mm</text><line stroke="#9a9a9a" stroke-width="0.8" x1="992.8" x2="1303.6" y1="829.0" y2="829.0" /><line stroke="#9a9a9a" stroke-width="0.8" x1="992.8" x2="992.8" y1="825.64" y2="832.36" /><line stroke="#9a9a9a" stroke-width="0.8" x1="1303.6" x2="1303.6" y1="825.64" y2="832.36" /><text fill="#8a8a8a" font-size="7.6" text-anchor="start" x="999.52" y="826.36">2730mm</text><line stroke="#9a9a9a" stroke-width="0.8" x1="992.8" x2="992.8" y1="829.0" y2="976.0" /><line stroke="#9a9a9a" stroke-width="0.8" x1="989.44" x2="996.16" y1="829.0" y2="829.0" /><line stroke="#9a9a9a" stroke-width="0.8" x1="989.44" x2="996.16" y1="976.0" y2="976.0" /><text fill="#8a8a8a" font-size="7.6" text-anchor="start" x="996.88" y="836.68">1365mm</text><text fill="#1b1b1b" font-size="10" text-anchor="middle" x="1148.1999999999998" y="505.9">Bedroom 2</text><text fill="#1b1b1b" font-size="10" text-anchor="middle" x="1148.1999999999998" y="516.7">2730x5005mm</text><text fill="#1b1b1b" font-size="10" text-anchor="middle" x="1148.1999999999998" y="527.5">13.7sqm / 8.4jo</text><text fill="#1b1b1b" font-size="10" text-anchor="middle" x="711.4" y="369.4">Bedroom 3</text><text fill="#1b1b1b" font-size="10" text-anchor="middle" x="711.4" y="380.2">4550x2730mm</text><text fill="#1b1b1b" font-size="10" text-anchor="middle" x="711.4" y="391.0">12.4sqm / 7.7jo</text><text fill="#1b1b1b" font-size="9" text-anchor="middle" x="987.2736842105263" y="833.5">Hall 2</text><text fill="#1b1b1b" font-size="9" text-anchor="middle" x="987.2736842105263" y="844.3">7.9sqm / 4.9jo</text><text fill="#1b1b1b" font-size="10" text-anchor="middle" x="493.0" y="751.6">Master</text><text fill="#1b1b1b" font-size="10" text-anchor="middle" x="493.0" y="762.4">4550x3640mm</text><text fill="#1b1b1b" font-size="10" text-anchor="middle" x="493.0" y="773.1999999999999">16.6sqm / 10.2jo</text><text fill="#1b1b1b" font-size="10" text-anchor="middle" x="329.2" y="369.4">Storage 2</text><text fill="#1b1b1b" font-size="10" text-anchor="middle" x="329.2" y="380.2">1820x2730mm</text><text fill="#1b1b1b" font-size="10" text-anchor="middle" x="329.2" y="391.0">5.0sqm / 3.1jo</text><text fill="#111111" font-size="14" x="220.0" y="180.0">F2 Plan  (9100 x 6370 mm)</text><text fill="#444444" font-size="10" x="220.0" y="198.0">Scale: 1px=8.3mm</text><rect fill="#ffffff" height="126" stroke="#777777" stroke-width="1" width="170" x="1400.0" y="150.0" /><text fill="#111111" font-size="11" x="1408.0" y="164.0">Legend</text><rect fill="#efe9ff" height="12" stroke="#333333" stroke-width="1" width="12" x="1408.0" y="174.0" /><text fill="#222222" font-size="10" x="1426.0" y="184.0">Hall</text><rect fill="#c5e8ff" height="12" stroke="#333333" stroke-width="1" width="12" x="1408.0" y="192.0" /><text fill="#222222" font-size="10" x="1426.0" y="202.0">Master Bedroom</text><rect fill="#d9f2ff" height="12" stroke="#333333" stroke-width="1" width="12" x="1408.0" y="210.0" /><text fill="#222222" font-size="10" x="1426.0" y="220.0">Bedroom</text><rect fill="#f0f0f0" height="12" stroke="#333333" stroke-width="1" width="12" x="1408.0" y="228.0" /><text fill="#222222" font-size="10" x="1426.0" y="238.0">Storage</text><line stroke="#6aa4ff" stroke-width="4" x1="1408.0" x2="1435.0" y1="258.0" y2="258.0" /><text fill="#222222" font-size="10" x="1442.0" y="261.0">Window</text><line stroke="#666666" stroke-width="2.4" x1="1408.0" x2="1435.0" y1="274.0" y2="274.0" /><path d="M 1408.0,274.0 A 10,10 0 0 1 1418.0,264.0" fill="none" stroke="#666666" stroke-width="1.2" /><text fill="#222222" font-size="10" x="1442.0" y="277.0">Door</text><rect fill="#ffffff" height="84" stroke="#777777" stroke-width="1" width="200" x="1400.0" y="520.0" /><text fill="#111111" font-size="10" x="1408.0" y="533.0">Area (F2)</text><text fill="#222222" font-size="9" x="1408.0" y="550.0">F1: in 58.0 sqm (17.5 tsubo), out 0.0 sqm (0.0 tsubo)</text><text fill="#222222" font-size="9" x="1408.0" y="566.0">F2: in 58.0 sqm (17.5 tsubo), out 0.0 sqm (0.0 tsubo)</text><text fill="#222222" font-size="9" x="1408.0" y="582.0">Total indoor: 115.9 sqm (35.1 tsubo)</text><text fill="#222222" font-size="9" x="1408.0" y="598.0">Total outdoor: 0.0 sqm (0.0 tsubo)</text><line stroke="#111111" stroke-width="2" x1="175.0" x2="175.0" y1="238.0" y2="208.0" /><polygon fill="#111111" points="175.0,208.0 181.0,214.0 169.0,214.0" /><text fill="#111111" font-size="12" x="170.0" y="202.0">N</text><line stroke="#545454" stroke-width="1.0" x1="220.0" x2="1312.0" y1="148.0" y2="148.0" /><line stroke="#545454" stroke-width="0.8" x1="220.0" x2="220.0" y1="220.0" y2="148.0" /><line stroke="#545454" stroke-width="1.0" x1="220.0" x2="220.0" y1="145.0" y2="151.0" /><line stroke="#545454" stroke-width="0.8" x1="1312.0" x2="1312.0" y1="220.0" y2="148.0" /><line stroke="#545454" stroke-width="1.0" x1="1312.0" x2="1312.0" y1="145.0" y2="151.0" /><text fill="#545454" font-size="8.8" text-anchor="middle" x="766.0" y="145.0">9100mm</text><line stroke="#666666" stroke-width="1.0" x1="220.0" x2="1312.0" y1="166.0" y2="166.0" /><line stroke="#666666" stroke-width="0.8" x1="220.0" x2="220.0" y1="220.0" y2="166.0" /><line stroke="#666666" stroke-width="1.0" x1="220.0" x2="220.0" y1="163.0" y2="169.0" /><line stroke="#666666" stroke-width="0.8" x1="438.4" x2="438.4" y1="220.0" y2="166.0" /><line stroke="#666666" stroke-width="1.0" x1="438.4" x2="438.4" y1="163.0" y2="169.0" /><line stroke="#666666" stroke-width="0.8" x1="984.4" x2="984.4" y1="220.0" y2="166.0" /><line stroke="#666666" stroke-width="1.0" x1="984.4" x2="984.4" y1="163.0" y2="169.0" /><line stroke="#666666" stroke-width="0.8" x1="1312.0" x2="1312.0" y1="220.0" y2="166.0" /><line stroke="#666666" stroke-width="1.0" x1="1312.0" x2="1312.0" y1="163.0" y2="169.0" /><text fill="#666666" font-size="8.2" text-anchor="middle" x="329.2" y="163.0">1820</text><text fill="#666666" font-size="8.2" text-anchor="middle" x="711.4" y="163.0">4550</text><text fill="#666666" font-size="8.2" text-anchor="middle" x="1148.1999999999998" y="163.0">2730</text><line stroke="#7a7a7a" stroke-width="1.0" x1="220.0" x2="1312.0" y1="184.0" y2="184.0" /><line stroke="#7a7a7a" stroke-width="0.8" x1="220.0" x2="220.0" y1="220.0" y2="184.0" /><line stroke="#7a7a7a" stroke-width="1.0" x1="220.0" x2="220.0" y1="181.0" y2="187.0" /><line stroke="#7a7a7a" stroke-width="0.8" x1="493.0" x2="493.0" y1="220.0" y2="184.0" /><line stroke="#7a7a7a" stroke-width="1.0" x1="493.0" x2="493.0" y1="181.0" y2="187.0" /><line stroke="#7a7a7a" stroke-width="0.8" x1="711.4" x2="711.4" y1="220.0" y2="184.0" /><line stroke="#7a7a7a" stroke-width="1.0" x1="711.4" x2="711.4" y1="181.0" y2="187.0" /><line stroke="#7a7a7a" stroke-width="0.8" x1="929.8" x2="929.8" y1="220.0" y2="184.0" /><line stroke="#7a7a7a" stroke-width="1.0" x1="929.8" x2="929.8" y1="181.0" y2="187.0" /><line stroke="#7a7a7a" stroke-width="0.8" x1="1093.6" x2="1093.6" y1="220.0" y2="184.0" /><line stroke="#7a7a7a" stroke-width="1.0" x1="1093.6" x2="1093.6" y1="181.0" y2="187.0" /><line stroke="#7a7a7a" stroke-width="0.8" x1="1202.8" x2="1202.8" y1="220.0" y2="184.0" /><line stroke="#7a7a7a" stroke-width="1.0" x1="1202.8" x2="1202.8" y1="181.0" y2="187.0" /><line stroke="#7a7a7a" stroke-width="0.8" x1="1312.0" x2="1312.0" y1="220.0" y2="184.0" /><line stroke="#7a7a7a" stroke-width="1.0" x1="1312.0" x2="1312.0" y1="181.0" y2="187.0" /><text fill="#7a7a7a" font-size="7.8" text-anchor="middle" x="356.5" y="181.0">2275</text><text fill="#7a7a7a" font-size="7.8" text-anchor="middle" x="602.2" y="181.0">1820</text><text fill="#7a7a7a" font-size="7.8" text-anchor="middle" x="820.6" y="181.0">1820</text><text fill="#7a7a7a" font-size="7.8" text-anchor="middle" x="1011.6999999999999" y="181.0">1365</text><text fill="#7a7a7a" font-size="7.8" text-anchor="middle" x="1148.1999999999998" y="181.0">910</text><text fill="#7a7a7a" font-size="7.8" text-anchor="middle" x="1257.3999999999999" y="181.0">910</text><line stroke="#545454" stroke-width="1.0" x1="220.0" x2="1312.0" y1="1056.4" y2="1056.4" /><line stroke="#545454" stroke-width="0.8" x1="220.0" x2="220.0" y1="984.4" y2="1056.4" /><line stroke="#545454" stroke-width="1.0" x1="220.0" x2="220.0" y1="1053.4" y2="1059.4" /><line stroke="#545454" stroke-width="0.8" x1="1312.0" x2="1312.0" y1="984.4" y2="1056.4" /><line stroke="#545454" stroke-width="1.0" x1="1312.0" x2="1312.0" y1="1053.4" y2="1059.4" /><text fill="#545454" font-size="8.8" text-anchor="middle" x="766.0" y="1066.4">9100mm</text><line stroke="#666666" stroke-width="1.0" x1="220.0" x2="1312.0" y1="1038.4" y2="1038.4" /><line stroke="#666666" stroke-width="0.8" x1="220.0" x2="220.0" y1="984.4" y2="1038.4" /><line stroke="#666666" stroke-width="1.0" x1="220.0" x2="220.0" y1="1035.4" y2="1041.4" /><line stroke="#666666" stroke-width="0.8" x1="766.0" x2="766.0" y1="984.4" y2="1038.4" /><line stroke="#666666" stroke-width="1.0" x1="766.0" x2="766.0" y1="1035.4" y2="1041.4" /><line stroke="#666666" stroke-width="0.8" x1="875.2" x2="875.2" y1="984.4" y2="1038.4" /><line stroke="#666666" stroke-width="1.0" x1="875.2" x2="875.2" y1="1035.4" y2="1041.4" /><line stroke="#666666" stroke-width="0.8" x1="984.4" x2="984.4" y1="984.4" y2="1038.4" /><line stroke="#666666" stroke-width="1.0" x1="984.4" x2="984.4" y1="1035.4" y2="1041.4" /><line stroke="#666666" stroke-width="0.8" x1="1312.0" x2="1312.0" y1="984.4" y2="1038.4" /><line stroke="#666666" stroke-width="1.0" x1="1312.0" x2="1312.0" y1="1035.4" y2="1041.4" /><text fill="#666666" font-size="8.2" text-anchor="middle" x="493.0" y="1048.4">4550</text><text fill="#666666" font-size="8.2" text-anchor="middle" x="820.6" y="1048.4">910</text><text fill="#666666" font-size="8.2" text-anchor="middle" x="929.8" y="1048.4">910</text><text fill="#666666" font-size="8.2" text-anchor="middle" x="1148.1999999999998" y="1048.4">2730</text><line stroke="#7a7a7a" stroke-width="1.0" x1="220.0" x2="1312.0" y1="1020.4" y2="1020.4" /><line stroke="#7a7a7a" stroke-width="0.8" x1="220.0" x2="220.0" y1="984.4" y2="1020.4" /><line stroke="#7a7a7a" stroke-width="1.0" x1="220.0" x2="220.0" y1="1017.4" y2="1023.4" /><line stroke="#7a7a7a" stroke-width="0.8" x1="274.6" x2="274.6" y1="984.4" y2="1020.4" /><line stroke="#7a7a7a" stroke-width="1.0" x1="274.6" x2="274.6" y1="1017.4" y2="1023.4" /><line stroke="#7a7a7a" stroke-width="0.8" x1="493.0" x2="493.0" y1="984.4" y2="1020.4" /><line stroke="#7a7a7a" stroke-width="1.0" x1="493.0" x2="493.0" y1="1017.4" y2="1023.4" /><line stroke="#7a7a7a" stroke-width="0.8" x1="711.4" x2="711.4" y1="984.4" y2="1020.4" /><line stroke="#7a7a7a" stroke-width="1.0" x1="711.4" x2="711.4" y1="1017.4" y2="1023.4" /><line stroke="#7a7a7a" stroke-width="0.8" x1="1312.0" x2="1312.0" y1="984.4" y2="1020.4" /><line stroke="#7a7a7a" stroke-width="1.0" x1="1312.0" x2="1312.0" y1="1017.4" y2="1023.4" /><text fill="#7a7a7a" font-size="7.8" text-anchor="middle" x="383.79999999999995" y="1030.4">1820</text><text fill="#7a7a7a" font-size="7.8" text-anchor="middle" x="602.2" y="1030.4">1820</text><text fill="#7a7a7a" font-size="7.8" text-anchor="middle" x="1011.6999999999999" y="1030.4">5005</text><line stroke="#545454" stroke-width="1.0" x1="148.0" x2="148.0" y1="220.0" y2="984.4" /><line stroke="#545454" stroke-width="0.8" x1="220.0" x2="148.0" y1="220.0" y2="220.0" /><line stroke="#545454" stroke-width="1.0" x1="145.0" x2="151.0" y1="220.0" y2="220.0" /><line stroke="#545454" stroke-width="0.8" x1="220.0" x2="148.0" y1="984.4" y2="984.4" /><line stroke="#545454" stroke-width="1.0" x1="145.0" x2="151.0" y1="984.4" y2="984.4" /><text fill="#545454" font-size="8.8" x="144.0" y="602.2">6370mm</text><line stroke="#666666" stroke-width="1.0" x1="166.0" x2="166.0" y1="220.0" y2="984.4" /><line stroke="#666666" stroke-width="0.8" x1="220.0" x2="166.0" y1="220.0" y2="220.0" /><line stroke="#666666" stroke-width="1.0" x1="163.0" x2="169.0" y1="220.0" y2="220.0" /><line stroke="#666666" stroke-width="0.8" x1="220.0" x2="166.0" y1="547.6" y2="547.6" /><line stroke="#666666" stroke-width="1.0" x1="163.0" x2="169.0" y1="547.6" y2="547.6" /><line stroke="#666666" stroke-width="0.8" x1="220.0" x2="166.0" y1="984.4" y2="984.4" /><line stroke="#666666" stroke-width="1.0" x1="163.0" x2="169.0" y1="984.4" y2="984.4" /><text fill="#666666" font-size="8.2" x="162.0" y="383.79999999999995">2730</text><text fill="#666666" font-size="8.2" x="162.0" y="766.0">3640</text><line stroke="#7a7a7a" stroke-width="1.0" x1="184.0" x2="184.0" y1="220.0" y2="984.4" /><line stroke="#7a7a7a" stroke-width="0.8" x1="220.0" x2="184.0" y1="220.0" y2="220.0" /><line stroke="#7a7a7a" stroke-width="1.0" x1="181.0" x2="187.0" y1="220.0" y2="220.0" /><line stroke="#7a7a7a" stroke-width="0.8" x1="220.0" x2="184.0" y1="602.2" y2="602.2" /><line stroke="#7a7a7a" stroke-width="1.0" x1="181.0" x2="187.0" y1="602.2" y2="602.2" /><line stroke="#7a7a7a" stroke-width="0.8" x1="220.0" x2="184.0" y1="766.0" y2="766.0" /><line stroke="#7a7a7a" stroke-width="1.0" x1="181.0" x2="187.0" y1="766.0" y2="766.0" /><line stroke="#7a7a7a" stroke-width="0.8" x1="220.0" x2="184.0" y1="929.8" y2="929.8" /><line stroke="#7a7a7a" stroke-width="1.0" x1="181.0" x2="187.0" y1="929.8" y2="929.8" /><line stroke="#7a7a7a" stroke-width="0.8" x1="220.0" x2="184.0" y1="984.4" y2="984.4" /><line stroke="#7a7a7a" stroke-width="1.0" x1="181.0" x2="187.0" y1="984.4" y2="984.4" /><text fill="#7a7a7a" font-size="7.8" x="180.0" y="411.1">3185</text><text fill="#7a7a7a" font-size="7.8" x="180.0" y="684.0999999999999">1365</text><text fill="#7a7a7a" font-size="7.8" x="180.0" y="847.9">1365</text><line stroke="#545454" stroke-width="1.0" x1="1384.0" x2="1384.0" y1="220.0" y2="984.4" /><line stroke="#545454" stroke-width="0.8" x1="1312.0" x2="1384.0" y1="220.0" y2="220.0" /><line stroke="#545454" stroke-width="1.0" x1="1381.0" x2="1387.0" y1="220.0" y2="220.0" /><line stroke="#545454" stroke-width="0.8" x1="1312.0" x2="1384.0" y1="984.4" y2="984.4" /><line stroke="#545454" stroke-width="1.0" x1="1381.0" x2="1387.0" y1="984.4" y2="984.4" /><text fill="#545454" font-size="8.8" x="1389.0" y="602.2">6370mm</text><line stroke="#666666" stroke-width="1.0" x1="1366.0" x2="1366.0" y1="220.0" y2="984.4" /><line stroke="#666666" stroke-width="0.8" x1="1312.0" x2="1366.0" y1="220.0" y2="220.0" /><line stroke="#666666" stroke-width="1.0" x1="1363.0" x2="1369.0" y1="220.0" y2="220.0" /><line stroke="#666666" stroke-width="0.8" x1="1312.0" x2="1366.0" y1="820.6" y2="820.6" /><line stroke="#666666" stroke-width="1.0" x1="1363.0" x2="1369.0" y1="820.6" y2="820.6" /><line stroke="#666666" stroke-width="0.8" x1="1312.0" x2="1366.0" y1="984.4" y2="984.4" /><line stroke="#666666" stroke-width="1.0" x1="1363.0" x2="1369.0" y1="984.4" y2="984.4" /><text fill="#666666" font-size="8.2" x="1371.0" y="520.3">5005</text><text fill="#666666" font-size="8.2" x="1371.0" y="902.5">1365</text><line stroke="#7a7a7a" stroke-width="1.0" x1="1348.0" x2="1348.0" y1="220.0" y2="984.4" /><line stroke="#7a7a7a" stroke-width="0.8" x1="1312.0" x2="1348.0" y1="220.0" y2="220.0" /><line stroke="#7a7a7a" stroke-width="1.0" x1="1345.0" x2="1351.0" y1="220.0" y2="220.0" /><line stroke="#7a7a7a" stroke-width="0.8" x1="1312.0" x2="1348.0" y1="274.6" y2="274.6" /><line stroke="#7a7a7a" stroke-width="1.0" x1="1345.0" x2="1351.0" y1="274.6" y2="274.6" /><line stroke="#7a7a7a" stroke-width="0.8" x1="1312.0" x2="1348.0" y1="493.0" y2="493.0" /><line stroke="#7a7a7a" stroke-width="1.0" x1="1345.0" x2="1351.0" y1="493.0" y2="493.0" /><line stroke="#7a7a7a" stroke-width="0.8" x1="1312.0" x2="1348.0" y1="547.6" y2="547.6" /><line stroke="#7a7a7a" stroke-width="1.0" x1="1345.0" x2="1351.0" y1="547.6" y2="547.6" /><line stroke="#7a7a7a" stroke-width="0.8" x1="1312.0" x2="1348.0" y1="766.0" y2="766.0" /><line stroke="#7a7a7a" stroke-width="1.0" x1="1345.0" x2="1351.0" y1="766.0" y2="766.0" /><line stroke="#7a7a7a" stroke-width="0.8" x1="1312.0" x2="1348.0" y1="984.4" y2="984.4" /><line stroke="#7a7a7a" stroke-width="1.0" x1="1345.0" x2="1351.0" y1="984.4" y2="984.4" /><text fill="#7a7a7a" font-size="7.8" x="1353.0" y="383.79999999999995">1820</text><text fill="#7a7a7a" font-size="7.8" x="1353.0" y="656.8">1820</text><text fill="#7a7a7a" font-size="7.8" x="1353.0" y="875.1999999999999">1820</text></svg>