<?xml version="1.0" encoding="utf-8" ?>
<svg baseProfile="tiny" height="1204.4px" version="1.2" width="1750.3999999999999px" xmlns="http://www.w3.org/2000/svg" xmlns:ev="http://www.w3.org/2001/xml-events" xmlns:xlink="http://www.w3.org/1999/xlink"><defs /><rect fill="#fafafa" height="1204.4" width="1750.4" x="0" y="0" /><line stroke="#ececec" stroke-width="0.7" x1="220.0" x2="220.0" y1="220.0" y2="984.4" /><line stroke="#ececec" stroke-width="0.7" x1="274.6" x2="274.6" y1="220.0" y2="984.4" /><line stroke="#ececec" stroke-width="0.7" x1="329.2" x2="329.2" y1="220.0" y2="984.4" /><line stroke="#ececec" stroke-width="0.7" x1="383.8" x2="383.8" y1="220.0" y2="984.4" /><line stroke="#ececec" stroke-width="0.7" x1="438.4" x2="438.4" y1="220.0" y2="984.4" /><line stroke="#ececec" stroke-width="0.7" x1="493.0" x2="493.0" y1="220.0" y2="984.4" /><line stroke="#ececec" stroke-width="0.7" x1="547.6" x2="547.6" y1="220.0" y2="984.4" /><line stroke="#ececec" stroke-width="0.7" x1="602.2" x2="602.2" y1="220.0" y2="984.4" /><line stroke="#ececec" stroke-width="0.7" x1="656.8" x2="656.8" y1="220.0" y2="984.4" /><line stroke="#ececec" stroke-width="0.7" x1="711.4" x2="711.4" y1="220.0" y2="984.4" /><line stroke="#ececec" stroke-width="0.7" x1="766.0" x2="766.0" y1="220.0" y2="984.4" /><line stroke="#ececec" stroke-width="0.7" x1="820.6" x2="820.6" y1="220.0" y2="984.4" /><line stroke="#ececec" stroke-width="0.7" x1="875.2" x2="875.2" y1="220.0" y2="984.4" /><line stroke="#ececec" stroke-width="0.7" x1="929.8" x2="929.8" y1="220.0" y2="984.4" /><line stroke="#ececec" stroke-width="0.7" x1="984.4" x2="984.4" y1="220.0" y2="984.4" /><line stroke="#ececec" stroke-width="0.7" x1="1039.0" x2="1039.0" y1="220.0" y2="984.4" /><line stroke="#ececec" stroke-width="0.7" x1="1093.6" x2="1093.6" y1="220.0" y2="984.4" /><line stroke="#ececec" stroke-width="0.7" x1="1148.2" x2="1148.2" y1="220.0" y2="984.4" /><line stroke="#ececec" stroke-width="0.7" x1="1202.8" x2="1202.8" y1="220.0" y2="984.4" /><line stroke="#ececec" stroke-width="0.7" x1="1257.4" x2="1257.4" y1="220.0" y2="984.4" /><line stroke="#ececec" stroke-width="0.7" x1="1312.0" x2="1312.0" y1="220.0" y2="984.4" /><line stroke="#ececec" stroke-width="0.7" x1="1366.6" x2="1366.6" y1="220.0" y2="984.4" /><line stroke="#ececec" stroke-width="0.7" x1="1421.2" x2="1421.2" y1="220.0" y2="984.4" /><line stroke="#ececec" stroke-width="0.7" x1="1475.8" x2="1475.8" y1="220.0" y2="984.4" /><line stroke="#ececec" stroke-width="0.7" x1="1530.4" x2="1530.4" y1="220.0" y2="984.4" /><line stroke="#d1d1d1" stroke-width="1.1" x1="220.0" x2="220.0" y1="220.0" y2="984.4" /><line stroke="#d1d1d1" stroke-width="1.1" x1="329.2" x2="329.2" y1="220.0" y2="984.4" /><line stroke="#d1d1d1" stroke-width="1.1" x1="438.4" x2="438.4" y1="220.0" y2="984.4" /><line stroke="#d1d1d1" stroke-width="1.1" x1="547.6" x2="547.6" y1="220.0" y2="984.4" /><line stroke="#d1d1d1" stroke-width="1.1" x1="656.8" x2="656.8" y1="220.0" y2="984.4" /><line stroke="#d1d1d1" stroke-width="1.1" x1="766.0" x2="766.0" y1="220.0" y2="984.4" /><line stroke="#d1d1d1" stroke-width="1.1" x1="875.2" x2="875.2" y1="220.0" y2="984.4" /><line stroke="#d1d1d1" stroke-width="1.1" x1="984.4" x2="984.4" y1="220.0" y2="984.4" /><line stroke="#d1d1d1" stroke-width="1.1" x1="1093.6" x2="1093.6" y1="220.0" y2="984.4" /><line stroke="#d1d1d1" stroke-width="1.1" x1="1202.8" x2="1202.8" y1="220.0" y2="984.4" /><line stroke="#d1d1d1" stroke-width="1.1" x1="1312.0" x2="1312.0" y1="220.0" y2="984.4" /><line stroke="#d1d1d1" stroke-width="1.1" x1="1421.2" x2="1421.2" y1="220.0" y2="984.4" /><line stroke="#d1d1d1" stroke-width="1.1" x1="1530.4" x2="1530.4" y1="220.0" y2="984.4" /><line stroke="#d1d1d1" stroke-width="1.1" x1="220.0" x2="1530.4" y1="220.0" y2="220.0" /><line stroke="#d1d1d1" stroke-width="1.1" x1="220.0" x2="1530.4" y1="329.2" y2="329.2" /><line stroke="#d1d1d1" stroke-width="1.1" x1="220.0" x2="1530.4" y1="438.4" y2="438.4" /><line stroke="#d1d1d1" stroke-width="1.1" x1="220.0" x2="1530.4" y1="547.6" y2="547.6" /><line stroke="#d1d1d1" stroke-width="1.1" x1="220.0" x2="1530.4" y1="656.8" y2="656.8" /><line stroke="#d1d1d1" stroke-width="1.1" x1="220.0" x2="1530.4" y1="766.0" y2="766.0" /><line stroke="#d1d1d1" stroke-width="1.1" x1="220.0" x2="1530.4" y1="875.2" y2="875.2" /><line stroke="#d1d1d1" stroke-width="1.1" x1="220.0" x2="1530.4" y1="984.4" y2="984.4" /><line stroke="#ececec" stroke-width="0.7" x1="220.0" x2="1530.4" y1="220.0" y2="220.0" /><line stroke="#ececec" stroke-width="0.7" x1="220.0" x2="1530.4" y1="274.6" y2="274.6" /><line stroke="#ececec" stroke-width="0.7" x1="220.0" x2="1530.4" y1="329.2" y2="329.2" /><line stroke="#ececec" stroke-width="0.7" x1="220.0" x2="1530.4" y1="383.8" y2="383.8" /><line stroke="#ececec" stroke-width="0.7" x1="220.0" x2="1530.4" y1="438.4" y2="438.4" /><line stroke="#ececec" stroke-width="0.7" x1="220.0" x2="1530.4" y1="493.0" y2="493.0" /><line stroke="#ececec" stroke-width="0.7" x1="220.0" x2="1530.4" y1="547.6" y2="547.6" /><line stroke="#ececec" stroke-width="0.7" x1="220.0" x2="1530.4" y1="602.2" y2="602.2" /><line stroke="#ececec" stroke-width="0.7" x1="220.0" x2="1530.4" y1="656.8" y2="656.8" /><line stroke="#ececec" stroke-width="0.7" x1="220.0" x2="1530.4" y1="711.4" y2="711.4" /><line stroke="#ececec" stroke-width="0.7" x1="220.0" x2="1530.4" y1="766.0" y2="766.0" /><line stroke="#ececec" stroke-width="0.7" x1="220.0" x2="1530.4" y1="820.6" y2="820.6" /><line stroke="#ececec" stroke-width="0.7" x1="220.0" x2="1530.4" y1="875.2" y2="875.2" /><line stroke="#ececec" stroke-width="0.7" x1="220.0" x2="1530.4" y1="929.8" y2="929.8" /><line stroke="#ececec" stroke-width="0.7" x1="220.0" x2="1530.4" y1="984.4" y2="984.4" /><rect fill="none" height="764.4" stroke="#6a6a6a" stroke-dasharray="8,4" stroke-width="2" width="1310.4" x="220.0" y="220.0" /><rect fill="none" height="764.4" stroke="#1f1f1f" stroke-width="3.5" width="1310.4" x="220.0" y="220.0" /><text fill="#555555" font-size="10" x="222.0" y="160.0">Site Envelope = Building Footprint</text><rect fill="#dcecff" height="218.4" stroke="none" width="218.4" x="984.4" y="220.0" /><line stroke="#2f2f2f" stroke-width="2.2" x1="984.4" x2="1202.8" y1="438.4" y2="438.4" /><line stroke="#2f2f2f" stroke-width="2.2" x1="984.4" x2="1202.8" y1="220.0" y2="220.0" /><line stroke="#2f2f2f" stroke-width="2.2" x1="1202.8" x2="1202.8" y1="220.0" y2="438.4" /><line stroke="#2f2f2f" stroke-width="2.2" x1="984.4" x2="984.4" y1="220.0" y2="438.4" /><rect fill="#d9f2ff" height="546.0" stroke="none" width="218.4" x="1312.0" y="220.0" /><line stroke="#2f2f2f" stroke-width="2.2" x1="1312.0" x2="1530.4" y1="220.0" y2="220.0" /><line stroke="#2f2f2f" stroke-width="2.2" x1="1312.0" x2="1530.4" y1="766.0" y2="766.0" /><line stroke="#2f2f2f" stroke-width="2.2" x1="1312.0" x2="1312.0" y1="220.0" y2="766.0" /><line stroke="#2f2f2f" stroke-width="2.2" x1="1530.4" x2="1530.4" y1="220.0" y2="766.0" /><rect fill="#d9f2ff" height="327.6" stroke="none" width="327.6" x="220.0" y="220.0" /><line stroke="#2f2f2f" stroke-width="2.2" x1="220.0" x2="547.6" y1="220.0" y2="220.0" /><line stroke="#2f2f2f" stroke-width="2.2" x1="220.0" x2="547.6" y1="547.6" y2="547.6" /><line stroke="#2f2f2f" stroke-width="2.2" x1="547.6" x2="547.6" y1="220.0" y2="547.6" /><line stroke="#2f2f2f" stroke-width="2.2" x1="220.0" x2="220.0" y1="220.0" y2="547.6" /><rect fill="#f8f0d9" height="218.4" stroke="none" width="218.4" x="547.6" y="220.0" /><line stroke="#2f2f2f" stroke-width="2.2" x1="547.6" x2="766.0" y1="438.4" y2="438.4" /><line stroke="#2f2f2f" stroke-width="2.2" x1="547.6" x2="766.0" y1="220.0" y2="220.0" /><line stroke="#2f2f2f" stroke-width="2.2" x1="547.6" x2="547.6" y1="220.0" y2="438.4" /><line stroke="#2f2f2f" stroke-width="2.2" x1="766.0" x2="766.0" y1="220.0" y2="438.4" /><rect fill="#efe9ff" height="109.2" stroke="none" width="109.2" x="547.6" y="438.4" /><rect fill="#efe9ff" height="109.2" stroke="none" width="163.8" x="656.8" y="438.4" /><rect fill="#efe9ff" height="109.2" stroke="none" width="491.4" x="820.6" y="438.4" /><line stroke="#2f2f2f" stroke-width="2.2" x1="547.6" x2="1312.0" y1="438.4" y2="438.4" /><line stroke="#2f2f2f" stroke-width="2.2" x1="547.6" x2="1312.0" y1="547.6" y2="547.6" /><line stroke="#2f2f2f" stroke-width="2.2" x1="1312.0" x2="1312.0" y1="438.4" y2="547.6" /><line stroke="#2f2f2f" stroke-width="2.2" x1="547.6" x2="547.6" y1="438.4" y2="547.6" /><rect fill="#ffe2b8" height="436.8" stroke="none" width="764.4" x="220.0" y="547.6" /><line stroke="#2f2f2f" stroke-width="2.2" x1="220.0" x2="984.4" y1="547.6" y2="547.6" /><line stroke="#2f2f2f" stroke-width="2.2" x1="220.0" x2="984.4" y1="984.4" y2="984.4" /><line stroke="#2f2f2f" stroke-width="2.2" x1="220.0" x2="220.0" y1="547.6" y2="984.4" /><line stroke="#2f2f2f" stroke-width="2.2" x1="984.4" x2="984.4" y1="547.6" y2="984.4" /><rect fill="#c5e8ff" height="436.8" stroke="none" width="327.6" x="984.4" y="547.6" /><line stroke="#2f2f2f" stroke-width="2.2" x1="984.4" x2="1312.0" y1="547.6" y2="547.6" /><line stroke="#2f2f2f" stroke-width="2.2" x1="984.4" x2="1312.0" y1="984.4" y2="984.4" /><line stroke="#2f2f2f" stroke-width="2.2" x1="984.4" x2="984.4" y1="547.6" y2="984.4" /><line stroke="#2f2f2f" stroke-width="2.2" x1="1312.0" x2="1312.0" y1="547.6" y2="984.4" /><rect fill="#fbe7e6" height="218.4" stroke="none" width="109.2" x="1202.8" y="220.0" /><line stroke="#2f2f2f" stroke-width="2.2" x1="1202.8" x2="1312.0" y1="220.0" y2="220.0" /><line stroke="#2f2f2f" stroke-width="2.2" x1="1202.8" x2="1312.0" y1="438.4" y2="438.4" /><line stroke="#2f2f2f" stroke-width="2.2" x1="1202.8" x2="1202.8" y1="220.0" y2="438.4" /><line stroke="#2f2f2f" stroke-width="2.2" x1="1312.0" x2="1312.0" y1="220.0" y2="438.4" /><rect fill="#e7fbfb" height="218.4" stroke="none" width="218.4" x="766.0" y="220.0" /><line stroke="#2f2f2f" stroke-width="2.2" x1="766.0" x2="984.4" y1="438.4" y2="438.4" /><line stroke="#2f2f2f" stroke-width="2.2" x1="766.0" x2="984.4" y1="220.0" y2="220.0" /><line stroke="#2f2f2f" stroke-width="2.2" x1="984.4" x2="984.4" y1="220.0" y2="438.4" /><line stroke="#2f2f2f" stroke-width="2.2" x1="766.0" x2="766.0" y1="220.0" y2="438.4" /><rect fill="#ece7dd" height="218.4" stroke="none" width="218.4" x="1312.0" y="766.0" /><line stroke="#2f2f2f" stroke-width="2.2" x1="1312.0" x2="1530.4" y1="766.0" y2="766.0" /><line stroke="#2f2f2f" stroke-width="2.2" x1="1312.0" x2="1530.4" y1="984.4" y2="984.4" /><line stroke="#2f2f2f" stroke-width="2.2" x1="1530.4" x2="1530.4" y1="766.0" y2="984.4" /><line stroke="#2f2f2f" stroke-width="2.2" x1="1312.0" x2="1312.0" y1="766.0" y2="984.4" /><rect fill="#f7f3ea" fill-opacity="0.35" height="109.2" stroke="#9a9a9a" stroke-dasharray="4,3" stroke-width="0.9" width="218.4" x="1312.0" y="656.8" /><line stroke="#9c9c9c" stroke-opacity="0.7" stroke-width="0.8" x1="1312.0" x2="1331.2" y1="746.8" y2="766.0" /><line stroke="#9c9c9c" stroke-opacity="0.7" stroke-width="0.8" x1="1312.0" x2="1350.4" y1="727.6" y2="766.0" /><line stroke="#9c9c9c" stroke-opacity="0.7" stroke-width="0.8" x1="1312.0" x2="1369.6" y1="708.4" y2="766.0" /><line stroke="#9c9c9c" stroke-opacity="0.7" stroke-width="0.8" x1="1312.0" x2="1388.8" y1="689.2" y2="766.0" /><line stroke="#9c9c9c" stroke-opacity="0.7" stroke-width="0.8" x1="1312.0" x2="1408.0" y1="670.0" y2="766.0" /><line stroke="#9c9c9c" stroke-opacity="0.7" stroke-width="0.8" x1="1318.0" x2="1427.2" y1="656.8" y2="766.0" /><line stroke="#9c9c9c" stroke-opacity="0.7" stroke-width="0.8" x1="1337.2" x2="1446.4" y1="656.8" y2="766.0" /><line stroke="#9c9c9c" stroke-opacity="0.7" stroke-width="0.8" x1="1356.4" x2="1465.6" y1="656.8" y2="766.0" /><line stroke="#9c9c9c" stroke-opacity="0.7" stroke-width="0.8" x1="1375.6" x2="1484.8" y1="656.8" y2="766.0" /><line stroke="#9c9c9c" stroke-opacity="0.7" stroke-width="0.8" x1="1394.8" x2="1504.0" y1="656.8" y2="766.0" /><line stroke="#9c9c9c" stroke-opacity="0.7" stroke-width="0.8" x1="1414.0" x2="1523.2" y1="656.8" y2="766.0" /><line stroke="#9c9c9c" stroke-opacity="0.7" stroke-width="0.8" x1="1433.2" x2="1530.4" y1="656.8" y2="754.0" /><line stroke="#9c9c9c" stroke-opacity="0.7" stroke-width="0.8" x1="1452.4" x2="1530.4" y1="656.8" y2="734.8" /><line stroke="#9c9c9c" stroke-opacity="0.7" stroke-width="0.8" x1="1471.6" x2="1530.4" y1="656.8" y2="715.6" /><line stroke="#9c9c9c" stroke-opacity="0.7" stroke-width="0.8" x1="1490.8" x2="1530.4" y1="656.8" y2="696.4" /><line stroke="#9c9c9c" stroke-opacity="0.7" stroke-width="0.8" x1="1510.0" x2="1530.4" y1="656.8" y2="677.2" /><line stroke="#9c9c9c" stroke-opacity="0.7" stroke-width="0.8" x1="1529.2" x2="1530.4" y1="656.8" y2="658.0" /><rect fill="#f7f3ea" fill-opacity="0.35" height="109.2" stroke="#9a9a9a" stroke-dasharray="4,3" stroke-width="0.9" width="109.2" x="220.0" y="438.4" /><line stroke="#9c9c9c" stroke-opacity="0.7" stroke-width="0.8" x1="220.0" x2="239.2" y1="528.4" y2="547.6" /><line stroke="#9c9c9c" stroke-opacity="0.7" stroke-width="0.8" x1="220.0" x2="258.4" y1="509.2" y2="547.6" /><line stroke="#9c9c9c" stroke-opacity="0.7" stroke-width="0.8" x1="220.0" x2="277.6" y1="490.0" y2="547.6" /><line stroke="#9c9c9c" stroke-opacity="0.7" stroke-width="0.8" x1="220.0" x2="296.8" y1="470.8" y2="547.6" /><line stroke="#9c9c9c" stroke-opacity="0.7" stroke-width="0.8" x1="220.0" x2="316.0" y1="451.6" y2="547.6" /><line stroke="#9c9c9c" stroke-opacity="0.7" stroke-width="0.8" x1="226.0" x2="329.2" y1="438.4" y2="541.6" /><line stroke="#9c9c9c" stroke-opacity="0.7" stroke-width="0.8" x1="245.2" x2="329.2" y1="438.4" y2="522.4" /><line stroke="#9c9c9c" stroke-opacity="0.7" stroke-width="0.8" x1="264.4" x2="329.2" y1="438.4" y2="503.2" /><line stroke="#9c9c9c" stroke-opacity="0.7" stroke-width="0.8" x1="283.6" x2="329.2" y1="438.4" y2="484.0" /><line stroke="#9c9c9c" stroke-opacity="0.7" stroke-width="0.8" x1="302.8" x2="329.2" y1="438.4" y2="464.8" /><line stroke="#9c9c9c" stroke-opacity="0.7" stroke-width="0.8" x1="322.0" x2="329.2" y1="438.4" y2="445.6" /><rect fill="none" height="43.68" stroke="#8a6b4a" stroke-width="1.0" width="244.608" x="632.776" y="591.28" /><rect fill="none" height="96.096" stroke="#8a6b4a" stroke-width="1.0" width="39.312" x="838.072" y="591.28" /><circle cx="707.5888" cy="613.12" fill="none" r="8.4" stroke="#8a6b4a" stroke-width="0.9" /><circle cx="729.1888" cy="613.12" fill="none" r="8.4" stroke="#8a6b4a" stroke-width="0.9" /><rect fill="none" height="23.063" stroke="#8a6b4a" stroke-width="0.9" width="26.7322" x="843.9688" y="631.6403" /><rect fill="none" height="52.416" stroke="#8a6b4a" stroke-width="1.0" width="163.8" x="525.76" y="731.056" /><rect fill="none" height="148.512" stroke="#7f7f7f" stroke-width="1.1" width="183.456" x="1056.472" y="626.224" /><line stroke="#7f7f7f" stroke-width="0.9" x1="1056.472" x2="1239.928" y1="678.2032" y2="678.2032" /><rect fill="none" height="163.8" stroke="#7f7f7f" stroke-width="1.1" width="122.304" x="1360.048" y="318.28" /><line stroke="#7f7f7f" stroke-width="0.9" x1="1360.048" x2="1482.352" y1="375.61" y2="375.61" /><rect fill="none" height="111.384" stroke="#7f7f7f" stroke-width="1.1" width="183.456" x="292.072" y="278.968" /><line stroke="#7f7f7f" stroke-width="0.9" x1="292.072" x2="475.528" y1="317.9524" y2="317.9524" /><rect fill="none" height="48.048" stroke="#6f6f6f" stroke-width="1.0" width="74.256" x="805.312" y="259.312" /><rect fill="none" height="48.048" stroke="#6f6f6f" stroke-width="1.0" width="74.256" x="892.672" y="259.312" /><line stroke="#8f8f8f" stroke-width="0.8" x1="796.576" x2="953.824" y1="244.912" y2="244.912" /><circle cx="958.0" cy="246.4" fill="none" r="8.4" stroke="#7c7c7c" stroke-width="0.9" /><line stroke="#7c7c7c" stroke-width="0.8" x1="947.2" x2="968.8" y1="246.4" y2="246.4" /><line stroke="#7c7c7c" stroke-width="0.8" x1="958.0" x2="958.0" y1="235.6" y2="257.2" /><rect fill="none" height="109.2" rx="6" ry="6" stroke="#6f6f6f" stroke-width="1.0" width="135.408" x="1028.08" y="268.048" /><circle cx="1176.4" cy="246.4" fill="none" r="8.4" stroke="#7c7c7c" stroke-width="0.9" /><line stroke="#7c7c7c" stroke-width="0.8" x1="1165.6" x2="1187.2" y1="246.4" y2="246.4" /><line stroke="#7c7c7c" stroke-width="0.8" x1="1176.4" x2="1176.4" y1="235.6" y2="257.2" /><line stroke="#9a9a9a" stroke-width="0.9" x1="1338.208" x2="1504.192" y1="805.312" y2="805.312" /><line stroke="#9a9a9a" stroke-width="0.9" x1="1338.208" x2="1504.192" y1="945.088" y2="945.088" /><line stroke="#9a9a9a" stroke-dasharray="5,3" stroke-width="0.7" x1="1338.208" x2="1504.192" y1="875.2" y2="875.2" /><line stroke="#ffffff" stroke-width="6" x1="556.6" x2="647.8" y1="438.4" y2="438.4" /><line stroke="#ffffff" stroke-width="6" x1="693.1" x2="784.3" y1="547.6" y2="547.6" /><line stroke="#595959" stroke-width="1.2" x1="693.1" x2="752.38" y1="547.6" y2="488.32" /><path d="M 752.38,547.5999999999999 A 59.28,59.28 0 0 1 752.38,488.32" fill="none" stroke="#7a7a7a" stroke-width="1.0" /><line stroke="#ffffff" stroke-width="6" x1="1211.8" x2="1303.0" y1="438.4" y2="438.4" /><line stroke="#ffffff" stroke-width="6" x1="856.9" x2="948.1" y1="438.4" y2="438.4" /><line stroke="#ffffff" stroke-width="6" x1="984.4" x2="984.4" y1="280.06" y2="378.34" /><line stroke="#595959" stroke-width="1.2" x1="984.4" x2="1048.282" y1="280.06" y2="343.942" /><path d="M 984.4,343.942 A 63.882,63.882 0 0 1 1048.2820000000002,343.942" fill="none" stroke="#7a7a7a" stroke-width="1.0" /><line stroke="#ffffff" stroke-width="6" x1="984.4" x2="984.4" y1="707.2" y2="824.8" /><line stroke="#595959" stroke-width="1.2" x1="984.4" x2="907.96" y1="707.2" y2="783.64" /><path d="M 984.4,783.64 A 76.44,76.44 0 0 1 907.9599999999999,783.64" fill="none" stroke="#7a7a7a" stroke-width="1.0" /><line stroke="#ffffff" stroke-width="6" x1="1312.0" x2="1312.0" y1="447.4" y2="538.6" /><line stroke="#595959" stroke-width="1.2" x1="1312.0" x2="1371.28" y1="447.4" y2="506.68" /><path d="M 1312.0,506.68 A 59.28,59.28 0 0 1 1371.28,506.68" fill="none" stroke="#7a7a7a" stroke-width="1.0" /><line stroke="#ffffff" stroke-width="6" x1="547.6" x2="547.6" y1="447.4" y2="538.6" /><line stroke="#595959" stroke-width="1.2" x1="547.6" x2="488.32" y1="447.4" y2="506.68" /><path d="M 547.5999999999999,506.68 A 59.28,59.28 0 0 1 488.32,506.68" fill="none" stroke="#7a7a7a" stroke-width="1.0" /><line stroke="#ffffff" stroke-width="6" x1="1312.0" x2="1312.0" y1="826.06" y2="924.34" /><line stroke="#595959" stroke-width="1.2" x1="1312.0" x2="1248.118" y1="826.06" y2="889.942" /><path d="M 1312.0,889.942 A 63.882,63.882 0 0 1 1248.118,889.942" fill="none" stroke="#7a7a7a" stroke-width="1.0" /><line stroke="#ffffff" stroke-width="7" x1="607.66" x2="705.94" y1="220.0" y2="220.0" /><line stroke="#595959" stroke-width="1.2" x1="607.66" x2="671.542" y1="220.0" y2="283.882" /><path d="M 671.5419999999999,220.0 A 63.882,63.882 0 0 1 671.5419999999999,283.882" fill="none" stroke="#7a7a7a" stroke-width="1.0" /><line stroke="#66a7ff" stroke-width="2.2" x1="217.36" x2="217.36" y1="595.684" y2="744.124" /><line stroke="#66a7ff" stroke-width="2.2" x1="222.64" x2="222.64" y1="595.684" y2="744.124" /><line stroke="#66a7ff" stroke-width="2.2" x1="217.36" x2="217.36" y1="787.876" y2="936.316" /><line stroke="#66a7ff" stroke-width="2.2" x1="222.64" x2="222.64" y1="787.876" y2="936.316" /><line stroke="#66a7ff" stroke-width="2.2" x1="338.032" x2="530.032" y1="981.76" y2="981.76" /><line stroke="#66a7ff" stroke-width="2.2" x1="338.032" x2="530.032" y1="987.04" y2="987.04" /><line stroke="#66a7ff" stroke-width="2.2" x1="674.368" x2="866.368" y1="981.76" y2="981.76" /><line stroke="#66a7ff" stroke-width="2.2" x1="674.368" x2="866.368" y1="987.04" y2="987.04" /><line stroke="#66a7ff" stroke-width="2.2" x1="1092.52" x2="1203.88" y1="981.76" y2="981.76" /><line stroke="#66a7ff" stroke-width="2.2" x1="1092.52" x2="1203.88" y1="987.04" y2="987.04" /><line stroke="#66a7ff" stroke-width="2.2" x1="1527.76" x2="1527.76" y1="280.06" y2="465.7" /><line stroke="#66a7ff" stroke-width="2.2" x1="1533.04" x2="1533.04" y1="280.06" y2="465.7" /><line stroke="#66a7ff" stroke-width="2.2" x1="1527.76" x2="1527.76" y1="520.3" y2="705.94" /><line stroke="#66a7ff" stroke-width="2.2" x1="1533.04" x2="1533.04" y1="520.3" y2="705.94" /><line stroke="#66a7ff" stroke-width="2.2" x1="1366.6" x2="1475.8" y1="217.36" y2="217.36" /><line stroke="#66a7ff" stroke-width="2.2" x1="1366.6" x2="1475.8" y1="222.64" y2="222.64" /><line stroke="#66a7ff" stroke-width="2.2" x1="217.36" x2="217.36" y1="328.12" y2="439.48" /><line stroke="#66a7ff" stroke-width="2.2" x1="222.64" x2="222.64" y1="328.12" y2="439.48" /><line stroke="#66a7ff" stroke-width="2.2" x1="328.12" x2="439.48" y1="217.36" y2="217.36" /><line stroke="#66a7ff" stroke-width="2.2" x1="328.12" x2="439.48" y1="222.64" y2="222.64" /><text fill="#1b1b1b" font-size="10" text-anchor="middle" x="1093.6" y="314.8">Bath 1</text><text fill="#1b1b1b" font-size="10" text-anchor="middle" x="1093.6" y="325.6">1820x1820mm</text><text fill="#1b1b1b" font-size="10" text-anchor="middle" x="1093.6" y="336.4">3.3sqm / 2.0jo</text><text fill="#1b1b1b" font-size="10" text-anchor="middle" x="1421.2" y="478.59999999999997">Bedroom 2</text><text fill="#1b1b1b" font-size="10" text-anchor="middle" x="1421.2" y="489.4">1820x4550mm</text><text fill="#1b1b1b" font-size="10" text-anchor="middle" x="1421.2" y="500.2">8.3sqm / 5.1jo</text><text fill="#1b1b1b" font-size="10" text-anchor="middle" x="383.79999999999995" y="369.4">Bedroom 3</text><text fill="#1b1b1b" font-size="10" text-anchor="middle" x="383.79999999999995" y="380.2">2730x2730mm</text><text fill="#1b1b1b" font-size="10" text-anchor="middle" x="383.79999999999995" y="391.0">7.5sqm / 4.6jo</text><text fill="#1b1b1b" font-size="10" text-anchor="middle" x="656.8" y="314.8">Entry</text><text fill="#1b1b1b" font-size="10" text-anchor="middle" x="656.8" y="325.6">1820x1820mm</text><text fill="#1b1b1b" font-size="10" text-anchor="middle" x="656.8" y="336.4">3.3sqm / 2.0jo</text><text fill="#1b1b1b" font-size="9" text-anchor="middle" x="929.8" y="478.59999999999997">Hall 1</text><text fill="#1b1b1b" font-size="9" text-anchor="middle" x="929.8" y="489.4">5.8sqm / 3.6jo</text><text fill="#1b1b1b" font-size="10" text-anchor="middle" x="602.2" y="751.6">Ldk</text><text fill="#1b1b1b" font-size="10" text-anchor="middle" x="602.2" y="762.4">6370x3640mm</text><text fill="#1b1b1b" font-size="10" text-anchor="middle" x="602.2" y="773.1999999999999">23.2sqm / 14.3jo</text><text fill="#1b1b1b" font-size="10" text-anchor="middle" x="1148.1999999999998" y="751.6">Master</text><text fill="#1b1b1b" font-size="10" text-anchor="middle" x="1148.1999999999998" y="762.4">2730x3640mm</text><text fill="#1b1b1b" font-size="10" text-anchor="middle" x="1148.1999999999998" y="773.1999999999999">9.9sqm / 6.1jo</text><text fill="#1b1b1b" font-size="10" text-anchor="middle" x="1257.3999999999999" y="314.8">Toilet 1</text><text fill="#1b1b1b" font-size="10" text-anchor="middle" x="1257.3999999999999" y="325.6">910x1820mm</text><text fill="#1b1b1b" font-size="10" text-anchor="middle" x="1257.3999999999999" y="336.4">1.7sqm / 1.0jo</text><text fill="#1b1b1b" font-size="10" text-anchor="middle" x="875.1999999999999" y="314.8">Wash 1</text><text fill="#1b1b1b" font-size="10" text-anchor="middle" x="875.1999999999999" y="325.6">1820x1820mm</text><text fill="#1b1b1b" font-size="10" text-anchor="middle" x="875.1999999999999" y="336.4">3.3sqm / 2.0jo</text><text fill="#1b1b1b" font-size="10" text-anchor="middle" x="1421.2" y="860.8">W.I.C</text><text fill="#1b1b1b" font-size="10" text-anchor="middle" x="1421.2" y="871.6">to master</text><text fill="#1b1b1b" font-size="10" text-anchor="middle" x="1421.2" y="882.4">1820x1820mm</text><text fill="#1b1b1b" font-size="10" text-anchor="middle" x="1421.2" y="893.1999999999999">3.3sqm / 2.0jo</text><text fill="#4a4a4a" font-size="10" text-anchor="middle" x="1421.2" y="711.4">CL</text><text fill="#4a4a4a" font-size="10" text-anchor="middle" x="274.6" y="493.0">CL</text><text fill="#111111" font-size="14" x="220.0" y="180.0">F1 Plan  (10920 x 6370 mm)</text><text fill="#444444" font-size="10" x="220.0" y="198.0">Scale: 1px=8.3mm</text><rect fill="#ffffff" height="234" stroke="#777777" stroke-width="1" width="170" x="1618.4" y="150.0" /><text fill="#111111" font-size="11" x="1626.3999999999999" y="164.0">Legend</text><rect fill="#f8f0d9" height="12" stroke="#333333" stroke-width="1" width="12" x="1626.4" y="174.0" /><text fill="#222222" font-size="10" x="1644.3999999999999" y="184.0">Entry</text><rect fill="#efe9ff" height="12" stroke="#333333" stroke-width="1" width="12" x="1626.4" y="192.0" /><text fill="#222222" font-size="10" x="1644.3999999999999" y="202.0">Hall</text><rect fill="#ffe2b8" height="12" stroke="#333333" stroke-width="1" width="12" x="1626.4" y="210.0" /><text fill="#222222" font-size="10" x="1644.3999999999999" y="220.0">Ldk</text><rect fill="#c5e8ff" height="12" stroke="#333333" stroke-width="1" width="12" x="1626.4" y="228.0" /><text fill="#222222" font-size="10" x="1644.3999999999999" y="238.0">Master Bedroom</text><rect fill="#d9f2ff" height="12" stroke="#333333" stroke-width="1" width="12" x="1626.4" y="246.0" /><text fill="#222222" font-size="10" x="1644.3999999999999" y="256.0">Bedroom</text><rect fill="#fbe7e6" height="12" stroke="#333333" stroke-width="1" width="12" x="1626.4" y="264.0" /><text fill="#222222" font-size="10" x="1644.3999999999999" y="274.0">Toilet</text><rect fill="#e7fbfb" height="12" stroke="#333333" stroke-width="1" width="12" x="1626.4" y="282.0" /><text fill="#222222" font-size="10" x="1644.3999999999999" y="292.0">Washroom</text><rect fill="#dcecff" height="12" stroke="#333333" stroke-width="1" width="12" x="1626.4" y="300.0" /><text fill="#222222" font-size="10" x="1644.3999999999999" y="310.0">Bath</text><rect fill="#f7f3ea" height="12" stroke="#333333" stroke-width="1" width="12" x="1626.4" y="318.0" /><text fill="#222222" font-size="10" x="1644.3999999999999" y="328.0">Closet</text><rect fill="#ece7dd" height="12" stroke="#333333" stroke-width="1" width="12" x="1626.4" y="336.0" /><text fill="#222222" font-size="10" x="1644.3999999999999" y="346.0">Wic</text><line stroke="#6aa4ff" stroke-width="4" x1="1626.4" x2="1653.4" y1="366.0" y2="366.0" /><text fill="#222222" font-size="10" x="1660.3999999999999" y="369.0">Window</text><line stroke="#666666" stroke-width="2.4" x1="1626.4" x2="1653.4" y1="382.0" y2="382.0" /><path d="M 1626.3999999999999,382.0 A 10,10 0 0 1 1636.3999999999999,372.0" fill="none" stroke="#666666" stroke-width="1.2" /><text fill="#222222" font-size="10" x="1660.3999999999999" y="385.0">Door</text><rect fill="#ffffff" height="68" stroke="#777777" stroke-width="1" width="200" x="1618.4" y="520.0" /><text fill="#111111" font-size="10" x="1626.3999999999999" y="533.0">Area (F1)</text><text fill="#222222" font-size="9" x="1626.3999999999999" y="550.0">F1: in 69.6 sqm (21.0 tsubo), out 0.0 sqm (0.0 tsubo)</text><text fill="#222222" font-size="9" x="1626.3999999999999" y="566.0">Total indoor: 69.6 sqm (21.0 tsubo)</text><text fill="#222222" font-size="9" x="1626.3999999999999" y="582.0">Total outdoor: 0.0 sqm (0.0 tsubo)</text><line stroke="#111111" stroke-width="2" x1="175.0" x2="175.0" y1="238.0" y2="208.0" /><polygon fill="#111111" points="175.0,208.0 181.0,214.0 169.0,214.0" /><text fill="#111111" font-size="12" x="170.0" y="202.0">N</text><line stroke="#545454" stroke-width="1.0" x1="220.0" x2="1530.4" y1="148.0" y2="148.0" /><line stroke="#545454" stroke-width="0.8" x1="220.0" x2="220.0" y1="220.0" y2="148.0" /><line stroke="#545454" stroke-width="1.0" x1="220.0" x2="220.0" y1="145.0" y2="151.0" /><line stroke="#545454" stroke-width="0.8" x1="1530.4" x2="1530.4" y1="220.0" y2="148.0" /><line stroke="#545454" stroke-width="1.0" x1="1530.4" x2="1530.4" y1="145.0" y2="151.0" /><text fill="#545454" font-size="8.8" text-anchor="middle" x="875.1999999999999" y="145.0">10920mm</text><line stroke="#666666" stroke-width="1.0" x1="220.0" x2="1530.4" y1="166.0" y2="166.0" /><line stroke="#666666" stroke-width="0.8" x1="220.0" x2="220.0" y1="220.0" y2="166.0" /><line stroke="#666666" stroke-width="1.0" x1="220.0" x2="220.0" y1="163.0" y2="169.0" /><line stroke="#666666" stroke-width="0.8" x1="547.6" x2="547.6" y1="220.0" y2="166.0" /><line stroke="#666666" stroke-width="1.0" x1="547.6" x2="547.6" y1="163.0" y2="169.0" /><line stroke="#666666" stroke-width="0.8" x1="766.0" x2="766.0" y1="220.0" y2="166.0" /><line stroke="#666666" stroke-width="1.0" x1="766.0" x2="766.0" y1="163.0" y2="169.0" /><line stroke="#666666" stroke-width="0.8" x1="984.4" x2="984.4" y1="220.0" y2="166.0" /><line stroke="#666666" stroke-width="1.0" x1="984.4" x2="984.4" y1="163.0" y2="169.0" /><line stroke="#666666" stroke-width="0.8" x1="1202.8" x2="1202.8" y1="220.0" y2="166.0" /><line stroke="#666666" stroke-width="1.0" x1="1202.8" x2="1202.8" y1="163.0" y2="169.0" /><line stroke="#666666" stroke-width="0.8" x1="1312.0" x2="1312.0" y1="220.0" y2="166.0" /><line stroke="#666666" stroke-width="1.0" x1="1312.0" x2="1312.0" y1="163.0" y2="169.0" /><line stroke="#666666" stroke-width="0.8" x1="1530.4" x2="1530.4" y1="220.0" y2="166.0" /><line stroke="#666666" stroke-width="1.0" x1="1530.4" x2="1530.4" y1="163.0" y2="169.0" /><text fill="#666666" font-size="8.2" text-anchor="middle" x="383.79999999999995" y="163.0">2730</text><text fill="#666666" font-size="8.2" text-anchor="middle" x="656.8" y="163.0">1820</text><text fill="#666666" font-size="8.2" text-anchor="middle" x="875.1999999999999" y="163.0">1820</text><text fill="#666666" font-size="8.2" text-anchor="middle" x="1093.6" y="163.0">1820</text><text fill="#666666" font-size="8.2" text-anchor="middle" x="1257.3999999999999" y="163.0">910</text><text fill="#666666" font-size="8.2" text-anchor="middle" x="1421.2" y="163.0">1820</text><line stroke="#7a7a7a" stroke-width="1.0" x1="220.0" x2="1530.4" y1="184.0" y2="184.0" /><line stroke="#7a7a7a" stroke-width="0.8" x1="220.0" x2="220.0" y1="220.0" y2="184.0" /><line stroke="#7a7a7a" stroke-width="1.0" x1="220.0" x2="220.0" y1="181.0" y2="187.0" /><line stroke="#7a7a7a" stroke-width="0.8" x1="329.2" x2="329.2" y1="220.0" y2="184.0" /><line stroke="#7a7a7a" stroke-width="1.0" x1="329.2" x2="329.2" y1="181.0" y2="187.0" /><line stroke="#7a7a7a" stroke-width="0.8" x1="438.4" x2="438.4" y1="220.0" y2="184.0" /><line stroke="#7a7a7a" stroke-width="1.0" x1="438.4" x2="438.4" y1="181.0" y2="187.0" /><line stroke="#7a7a7a" stroke-width="0.8" x1="602.2" x2="602.2" y1="220.0" y2="184.0" /><line stroke="#7a7a7a" stroke-width="1.0" x1="602.2" x2="602.2" y1="181.0" y2="187.0" /><line stroke="#7a7a7a" stroke-width="0.8" x1="711.4" x2="711.4" y1="220.0" y2="184.0" /><line stroke="#7a7a7a" stroke-width="1.0" x1="711.4" x2="711.4" y1="181.0" y2="187.0" /><line stroke="#7a7a7a" stroke-width="0.8" x1="1366.6" x2="1366.6" y1="220.0" y2="184.0" /><line stroke="#7a7a7a" stroke-width="1.0" x1="1366.6" x2="1366.6" y1="181.0" y2="187.0" /><line stroke="#7a7a7a" stroke-width="0.8" x1="1475.8" x2="1475.8" y1="220.0" y2="184.0" /><line stroke="#7a7a7a" stroke-width="1.0" x1="1475.8" x2="1475.8" y1="181.0" y2="187.0" /><line stroke="#7a7a7a" stroke-width="0.8" x1="1530.4" x2="1530.4" y1="220.0" y2="184.0" /><line stroke="#7a7a7a" stroke-width="1.0" x1="1530.4" x2="1530.4" y1="181.0" y2="187.0" /><text fill="#7a7a7a" font-size="7.8" text-anchor="middle" x="274.6" y="181.0">910</text><text fill="#7a7a7a" font-size="7.8" text-anchor="middle" x="383.79999999999995" y="181.0">910</text><text fill="#7a7a7a" font-size="7.8" text-anchor="middle" x="520.3" y="181.0">1365</text><text fill="#7a7a7a" font-size="7.8" text-anchor="middle" x="656.8" y="181.0">910</text><text fill="#7a7a7a" font-size="7.8" text-anchor="middle" x="1039.0" y="181.0">5460</text><text fill="#7a7a7a" font-size="7.8" text-anchor="middle" x="1421.2" y="181.0">910</text><line stroke="#545454" stroke-width="1.0" x1="220.0" x2="1530.4" y1="1056.4" y2="1056.4" /><line stroke="#545454" stroke-width="0.8" x1="220.0" x2="220.0" y1="984.4" y2="1056.4" /><line stroke="#545454" stroke-width="1.0" x1="220.0" x2="220.0" y1="1053.4" y2="1059.4" /><line stroke="#545454" stroke-width="0.8" x1="1530.4" x2="1530.4" y1="984.4" y2="1056.4" /><line stroke="#545454" stroke-width="1.0" x1="1530.4" x2="1530.4" y1="1053.4" y2="1059.4" /><text fill="#545454" font-size="8.8" text-anchor="middle" x="875.1999999999999" y="1066.4">10920mm</text><line stroke="#666666" stroke-width="1.0" x1="220.0" x2="1530.4" y1="1038.4" y2="1038.4" /><line stroke="#666666" stroke-width="0.8" x1="220.0" x2="220.0" y1="984.4" y2="1038.4" /><line stroke="#666666" stroke-width="1.0" x1="220.0" x2="220.0" y1="1035.4" y2="1041.4" /><line stroke="#666666" stroke-width="0.8" x1="984.4" x2="984.4" y1="984.4" y2="1038.4" /><line stroke="#666666" stroke-width="1.0" x1="984.4" x2="984.4" y1="1035.4" y2="1041.4" /><line stroke="#666666" stroke-width="0.8" x1="1312.0" x2="1312.0" y1="984.4" y2="1038.4" /><line stroke="#666666" stroke-width="1.0" x1="1312.0" x2="1312.0" y1="1035.4" y2="1041.4" /><line stroke="#666666" stroke-width="0.8" x1="1530.4" x2="1530.4" y1="984.4" y2="1038.4" /><line stroke="#666666" stroke-width="1.0" x1="1530.4" x2="1530.4" y1="1035.4" y2="1041.4" /><text fill="#666666" font-size="8.2" text-anchor="middle" x="602.2" y="1048.4">6370</text><text fill="#666666" font-size="8.2" text-anchor="middle" x="1148.1999999999998" y="1048.4">2730</text><text fill="#666666" font-size="8.2" text-anchor="middle" x="1421.2" y="1048.4">1820</text><line stroke="#7a7a7a" stroke-width="1.0" x1="220.0" x2="1530.4" y1="1020.4" y2="1020.4" /><line stroke="#7a7a7a" stroke-width="0.8" x1="220.0" x2="220.0" y1="984.4" y2="1020.4" /><line stroke="#7a7a7a" stroke-width="1.0" x1="220.0" x2="220.0" y1="1017.4" y2="1023.4" /><line stroke="#7a7a7a" stroke-width="0.8" x1="329.2" x2="329.2" y1="984.4" y2="1020.4" /><line stroke="#7a7a7a" stroke-width="1.0" x1="329.2" x2="329.2" y1="1017.4" y2="1023.4" /><line stroke="#7a7a7a" stroke-width="0.8" x1="547.6" x2="547.6" y1="984.4" y2="1020.4" /><line stroke="#7a7a7a" stroke-width="1.0" x1="547.6" x2="547.6" y1="1017.4" y2="1023.4" /><line stroke="#7a7a7a" stroke-width="0.8" x1="656.8" x2="656.8" y1="984.4" y2="1020.4" /><line stroke="#7a7a7a" stroke-width="1.0" x1="656.8" x2="656.8" y1="1017.4" y2="1023.4" /><line stroke="#7a7a7a" stroke-width="0.8" x1="875.2" x2="875.2" y1="984.4" y2="1020.4" /><line stroke="#7a7a7a" stroke-width="1.0" x1="875.2" x2="875.2" y1="1017.4" y2="1023.4" /><line stroke="#7a7a7a" stroke-width="0.8" x1="1093.6" x2="1093.6" y1="984.4" y2="1020.4" /><line stroke="#7a7a7a" stroke-width="1.0" x1="1093.6" x2="1093.6" y1="1017.4" y2="1023.4" /><line stroke="#7a7a7a" stroke-width="0.8" x1="1202.8" x2="1202.8" y1="984.4" y2="1020.4" /><line stroke="#7a7a7a" stroke-width="1.0" x1="1202.8" x2="1202.8" y1="1017.4" y2="1023.4" /><line stroke="#7a7a7a" stroke-width="0.8" x1="1530.4" x2="1530.4" y1="984.4" y2="1020.4" /><line stroke="#7a7a7a" stroke-width="1.0" x1="1530.4" x2="1530.4" y1="1017.4" y2="1023.4" /><text fill="#7a7a7a" font-size="7.8" text-anchor="middle" x="274.6" y="1030.4">910</text><text fill="#7a7a7a" font-size="7.8" text-anchor="middle" x="438.4" y="1030.4">1820</text><text fill="#7a7a7a" font-size="7.8" text-anchor="middle" x="602.2" y="1030.4">910</text><text fill="#7a7a7a" font-size="7.8" text-anchor="middle" x="766.0" y="1030.4">1820</text><text fill="#7a7a7a" font-size="7.8" text-anchor="middle" x="984.4" y="1030.4">1820</text><text fill="#7a7a7a" font-size="7.8" text-anchor="middle" x="1148.1999999999998" y="1030.4">910</text><text fill="#7a7a7a" font-size="7.8" text-anchor="middle" x="1366.6" y="1030.4">2730</text><line stroke="#545454" stroke-width="1.0" x1="148.0" x2="148.0" y1="220.0" y2="984.4" /><line stroke="#545454" stroke-width="0.8" x1="220.0" x2="148.0" y1="220.0" y2="220.0" /><line stroke="#545454" stroke-width="1.0" x1="145.0" x2="151.0" y1="220.0" y2="220.0" /><line stroke="#545454" stroke-width="0.8" x1="220.0" x2="148.0" y1="984.4" y2="984.4" /><line stroke="#545454" stroke-width="1.0" x1="145.0" x2="151.0" y1="984.4" y2="984.4" /><text fill="#545454" font-size="8.8" x="144.0" y="602.2">6370mm</text><line stroke="#666666" stroke-width="1.0" x1="166.0" x2="166.0" y1="220.0" y2="984.4" /><line stroke="#666666" stroke-width="0.8" x1="220.0" x2="166.0" y1="220.0" y2="220.0" /><line stroke="#666666" stroke-width="1.0" x1="163.0" x2="169.0" y1="220.0" y2="220.0" /><line stroke="#666666" stroke-width="0.8" x1="220.0" x2="166.0" y1="547.6" y2="547.6" /><line stroke="#666666" stroke-width="1.0" x1="163.0" x2="169.0" y1="547.6" y2="547.6" /><line stroke="#666666" stroke-width="0.8" x1="220.0" x2="166.0" y1="984.4" y2="984.4" /><line stroke="#666666" stroke-width="1.0" x1="163.0" x2="169.0" y1="984.4" y2="984.4" /><text fill="#666666" font-size="8.2" x="162.0" y="383.79999999999995">2730</text><text fill="#666666" font-size="8.2" x="162.0" y="766.0">3640</text><line stroke="#7a7a7a" stroke-width="1.0" x1="184.0" x2="184.0" y1="220.0" y2="984.4" /><line stroke="#7a7a7a" stroke-width="0.8" x1="220.0" x2="184.0" y1="220.0" y2="220.0" /><line stroke="#7a7a7a" stroke-width="1.0" x1="181.0" x2="187.0" y1="220.0" y2="220.0" /><line stroke="#7a7a7a" stroke-width="0.8" x1="220.0" x2="184.0" y1="329.2" y2="329.2" /><line stroke="#7a7a7a" stroke-width="1.0" x1="181.0" x2="187.0" y1="329.2" y2="329.2" /><line stroke="#7a7a7a" stroke-width="0.8" x1="220.0" x2="184.0" y1="438.4" y2="438.4" /><line stroke="#7a7a7a" stroke-width="1.0" x1="181.0" x2="187.0" y1="438.4" y2="438.4" /><line stroke="#7a7a7a" stroke-width="0.8" x1="220.0" x2="184.0" y1="602.2" y2="602.2" /><line stroke="#7a7a7a" stroke-width="1.0" x1="181.0" x2="187.0" y1="602.2" y2="602.2" /><line stroke="#7a7a7a" stroke-width="0.8" x1="220.0" x2="184.0" y1="766.0" y2="766.0" /><line stroke="#7a7a7a" stroke-width="1.0" x1="181.0" x2="187.0" y1="766.0" y2="766.0" /><line stroke="#7a7a7a" stroke-width="0.8" x1="220.0" x2="184.0" y1="929.8" y2="929.8" /><line stroke="#7a7a7a" stroke-width="1.0" x1="181.0" x2="187.0" y1="929.8" y2="929.8" /><line stroke="#7a7a7a" stroke-width="0.8" x1="220.0" x2="184.0" y1="984.4" y2="984.4" /><line stroke="#7a7a7a" stroke-width="1.0" x1="181.0" x2="187.0" y1="984.4" y2="984.4" /><text fill="#7a7a7a" font-size="7.8" x="180.0" y="274.6">910</text><text fill="#7a7a7a" font-size="7.8" x="180.0" y="383.79999999999995">910</text><text fill="#7a7a7a" font-size="7.8" x="180.0" y="520.3">1365</text><text fill="#7a7a7a" font-size="7.8" x="180.0" y="684.0999999999999">1365</text><text fill="#7a7a7a" font-size="7.8" x="180.0" y="847.9">1365</text><line stroke="#545454" stroke-width="1.0" x1="1602.4" x2="1602.4" y1="220.0" y2="984.4" /><line stroke="#545454" stroke-width="0.8" x1="1530.4" x2="1602.4" y1="220.0" y2="220.0" /><line stroke="#545454" stroke-width="1.0" x1="1599.4" x2="1605.4" y1="220.0" y2="220.0" /><line stroke="#545454" stroke-width="0.8" x1="1530.4" x2="1602.4" y1="984.4" y2="984.4" /><line stroke="#545454" stroke-width="1.0" x1="1599.4" x2="1605.4" y1="984.4" y2="984.4" /><text fill="#545454" font-size="8.8" x="1607.3999999999999" y="602.2">6370mm</text><line stroke="#666666" stroke-width="1.0" x1="1584.4" x2="1584.4" y1="220.0" y2="984.4" /><line stroke="#666666" stroke-width="0.8" x1="1530.4" x2="1584.4" y1="220.0" y2="220.0" /><line stroke="#666666" stroke-width="1.0" x1="1581.4" x2="1587.4" y1="220.0" y2="220.0" /><line stroke="#666666" stroke-width="0.8" x1="1530.4" x2="1584.4" y1="766.0" y2="766.0" /><line stroke="#666666" stroke-width="1.0" x1="1581.4" x2="1587.4" y1="766.0" y2="766.0" /><line stroke="#666666" stroke-width="0.8" x1="1530.4" x2="1584.4" y1="984.4" y2="984.4" /><line stroke="#666666" stroke-width="1.0" x1="1581.4" x2="1587.4" y1="984.4" y2="984.4" /><text fill="#666666" font-size="8.2" x="1589.3999999999999" y="493.0">4550</text><text fill="#666666" font-size="8.2" x="1589.3999999999999" y="875.1999999999999">1820</text><line stroke="#7a7a7a" stroke-width="1.0" x1="1566.4" x2="1566.4" y1="220.0" y2="984.4" /><line stroke="#7a7a7a" stroke-width="0.8" x1="1530.4" x2="1566.4" y1="220.0" y2="220.0" /><line stroke="#7a7a7a" stroke-width="1.0" x1="1563.4" x2="1569.4" y1="220.0" y2="220.0" /><line stroke="#7a7a7a" stroke-width="0.8" x1="1530.4" x2="1566.4" y1="274.6" y2="274.6" /><line stroke="#7a7a7a" stroke-width="1.0" x1="1563.4" x2="1569.4" y1="274.6" y2="274.6" /><line stroke="#7a7a7a" stroke-width="0.8" x1="1530.4" x2="1566.4" y1="493.0" y2="493.0" /><line stroke="#7a7a7a" stroke-width="1.0" x1="1563.4" x2="1569.4" y1="493.0" y2="493.0" /><line stroke="#7a7a7a" stroke-width="0.8" x1="1530.4" x2="1566.4" y1="711.4" y2="711.4" /><line stroke="#7a7a7a" stroke-width="1.0" x1="1563.4" x2="1569.4" y1="711.4" y2="711.4" /><line stroke="#7a7a7a" stroke-width="0.8" x1="1530.4" x2="1566.4" y1="984.4" y2="984.4" /><line stroke="#7a7a7a" stroke-width="1.0" x1="1563.4" x2="1569.4" y1="984.4" y2="984.4" /><text fill="#7a7a7a" font-size="7.8" x="1571.3999999999999" y="383.79999999999995">1820</text><text fill="#7a7a7a" font-size="7.8" x="1571.3999999999999" y="602.2">1820</text><text fill="#7a7a7a" font-size="7.8" x="1571.3999999999999" y="847.9">2275</text></svg>