<?xml version="1.0" encoding="utf-8" ?>
<svg baseProfile="tiny" height="1204.4px" version="1.2" width="1532.0px" xmlns="http://www.w3.org/2000/svg" xmlns:ev="http://www.w3.org/2001/xml-events" xmlns:xlink="http://www.w3.org/1999/xlink"><defs /><rect fill="#fafafa" height="1204.4" width="1532.0" x="0" y="0" /><line stroke="#ececec" stroke-width="0.7" x1="220.0" x2="220.0" y1="220.0" y2="984.4" /><line stroke="#ececec" stroke-width="0.7" x1="274.6" x2="274.6" y1="220.0" y2="984.4" /><line stroke="#ececec" stroke-width="0.7" x1="329.2" x2="329.2" y1="220.0" y2="984.4" /><line stroke="#ececec" stroke-width="0.7" x1="383.8" x2="383.8" y1="220.0" y2="984.4" /><line stroke="#ececec" stroke-width="0.7" x1="438.4" x2="438.4" y1="220.0" y2="984.4" /><line stroke="#ececec" stroke-width="0.7" x1="493.0" x2="493.0" y1="220.0" y2="984.4" /><line stroke="#ececec" stroke-width="0.7" x1="547.6" x2="547.6" y1="220.0" y2="984.4" /><line stroke="#ececec" stroke-width="0.7" x1="602.2" x2="602.2" y1="220.0" y2="984.4" /><line stroke="#ececec" stroke-width="0.7" x1="656.8" x2="656.8" y1="220.0" y2="984.4" /><line stroke="#ececec" stroke-width="0.7" x1="711.4" x2="711.4" y1="220.0" y2="984.4" /><line stroke="#ececec" stroke-width="0.7" x1="766.0" x2="766.0" y1="220.0" y2="984.4" /><line stroke="#ececec" stroke-width="0.7" x1="820.6" x2="820.6" y1="220.0" y2="984.4" /><line stroke="#ececec" stroke-width="0.7" x1="875.2" x2="875.2" y1="220.0" y2="984.4" /><line stroke="#ececec" stroke-width="0.7" x1="929.8" x2="929.8" y1="220.0" y2="984.4" /><line stroke="#ececec" stroke-width="0.7" x1="984.4" x2="984.4" y1="220.0" y2="984.4" /><line stroke="#ececec" stroke-width="0.7" x1="1039.0" x2="1039.0" y1="220.0" y2="984.4" /><line stroke="#ececec" stroke-width="0.7" x1="1093.6" x2="1093.6" y1="220.0" y2="984.4" /><line stroke="#ececec" stroke-width="0.7" x1="1148.2" x2="1148.2" y1="220.0" y2="984.4" /><line stroke="#ececec" stroke-width="0.7" x1="1202.8" x2="1202.8" y1="220.0" y2="984.4" /><line stroke="#ececec" stroke-width="0.7" x1="1257.4" x2="1257.4" y1="220.0" y2="984.4" /><line stroke="#ececec" stroke-width="0.7" x1="1312.0" x2="1312.0" y1="220.0" y2="984.4" /><line stroke="#d1d1d1" stroke-width="1.1" x1="220.0" x2="220.0" y1="220.0" y2="984.4" /><line stroke="#d1d1d1" stroke-width="1.1" x1="329.2" x2="329.2" y1="220.0" y2="984.4" /><line stroke="#d1d1d1" stroke-width="1.1" x1="438.4" x2="438.4" y1="220.0" y2="984.4" /><line stroke="#d1d1d1" stroke-width="1.1" x1="547.6" x2="547.6" y1="220.0" y2="984.4" /><line stroke="#d1d1d1" stroke-width="1.1" x1="656.8" x2="656.8" y1="220.0" y2="984.4" /><line stroke="#d1d1d1" stroke-width="1.1" x1="766.0" x2="766.0" y1="220.0" y2="984.4" /><line stroke="#d1d1d1" stroke-width="1.1" x1="875.2" x2="875.2" y1="220.0" y2="984.4" /><line stroke="#d1d1d1" stroke-width="1.1" x1="984.4" x2="984.4" y1="220.0" y2="984.4" /><line stroke="#d1d1d1" stroke-width="1.1" x1="1093.6" x2="1093.6" y1="220.0" y2="984.4" /><line stroke="#d1d1d1" stroke-width="1.1" x1="1202.8" x2="1202.8" y1="220.0" y2="984.4" /><line stroke="#d1d1d1" stroke-width="1.1" x1="1312.0" x2="1312.0" y1="220.0" y2="984.4" /><line stroke="#d1d1d1" stroke-width="1.1" x1="220.0" x2="1312.0" y1="220.0" y2="220.0" /><line stroke="#d1d1d1" stroke-width="1.1" x1="220.0" x2="1312.0" y1="329.2" y2="329.2" /><line stroke="#d1d1d1" stroke-width="1.1" x1="220.0" x2="1312.0" y1="438.4" y2="438.4" /><line stroke="#d1d1d1" stroke-width="1.1" x1="220.0" x2="1312.0" y1="547.6" y2="547.6" /><line stroke="#d1d1d1" stroke-width="1.1" x1="220.0" x2="1312.0" y1="656.8" y2="656.8" /><line stroke="#d1d1d1" stroke-width="1.1" x1="220.0" x2="1312.0" y1="766.0" y2="766.0" /><line stroke="#d1d1d1" stroke-width="1.1" x1="220.0" x2="1312.0" y1="875.2" y2="875.2" /><line stroke="#d1d1d1" stroke-width="1.1" x1="220.0" x2="1312.0" y1="984.4" y2="984.4" /><line stroke="#ececec" stroke-width="0.7" x1="220.0" x2="1312.0" y1="220.0" y2="220.0" /><line stroke="#ececec" stroke-width="0.7" x1="220.0" x2="1312.0" y1="274.6" y2="274.6" /><line stroke="#ececec" stroke-width="0.7" x1="220.0" x2="1312.0" y1="329.2" y2="329.2" /><line stroke="#ececec" stroke-width="0.7" x1="220.0" x2="1312.0" y1="383.8" y2="383.8" /><line stroke="#ececec" stroke-width="0.7" x1="220.0" x2="1312.0" y1="438.4" y2="438.4" /><line stroke="#ececec" stroke-width="0.7" x1="220.0" x2="1312.0" y1="493.0" y2="493.0" /><line stroke="#ececec" stroke-width="0.7" x1="220.0" x2="1312.0" y1="547.6" y2="547.6" /><line stroke="#ececec" stroke-width="0.7" x1="220.0" x2="1312.0" y1="602.2" y2="602.2" /><line stroke="#ececec" stroke-width="0.7" x1="220.0" x2="1312.0" y1="656.8" y2="656.8" /><line stroke="#ececec" stroke-width="0.7" x1="220.0" x2="1312.0" y1="711.4" y2="711.4" /><line stroke="#ececec" stroke-width="0.7" x1="220.0" x2="1312.0" y1="766.0" y2="766.0" /><line stroke="#ececec" stroke-width="0.7" x1="220.0" x2="1312.0" y1="820.6" y2="820.6" /><line stroke="#ececec" stroke-width="0.7" x1="220.0" x2="1312.0" y1="875.2" y2="875.2" /><line stroke="#ececec" stroke-width="0.7" x1="220.0" x2="1312.0" y1="929.8" y2="929.8" /><line stroke="#ececec" stroke-width="0.7" x1="220.0" x2="1312.0" y1="984.4" y2="984.4" /><rect fill="none" height="764.4" stroke="#6a6a6a" stroke-dasharray="8,4" stroke-width="2" width="1092.0" x="220.0" y="220.0" /><rect fill="none" height="764.4" stroke="#1f1f1f" stroke-width="3.5" width="1092.0" x="220.0" y="220.0" /><text fill="#555555" font-size="10" x="222.0" y="160.0">Site Envelope = Building Footprint</text><rect fill="#dcecff" height="218.4" stroke="none" width="218.4" x="220.0" y="766.0" /><line stroke="#2f2f2f" stroke-width="2.2" x1="220.0" x2="438.4" y1="984.4" y2="984.4" /><line stroke="#2f2f2f" stroke-width="2.2" x1="220.0" x2="438.4" y1="766.0" y2="766.0" /><line stroke="#2f2f2f" stroke-width="2.2" x1="438.4" x2="438.4" y1="766.0" y2="984.4" /><line stroke="#2f2f2f" stroke-width="2.2" x1="220.0" x2="220.0" y1="766.0" y2="984.4" /><rect fill="#d9f2ff" height="546.0" stroke="none" width="327.6" x="220.0" y="220.0" /><line stroke="#2f2f2f" stroke-width="2.2" x1="220.0" x2="547.6" y1="220.0" y2="220.0" /><line stroke="#2f2f2f" stroke-width="2.2" x1="220.0" x2="547.6" y1="766.0" y2="766.0" /><line stroke="#2f2f2f" stroke-width="2.2" x1="220.0" x2="220.0" y1="220.0" y2="766.0" /><line stroke="#2f2f2f" stroke-width="2.2" x1="547.6" x2="547.6" y1="220.0" y2="766.0" /><rect fill="#f8f0d9" height="163.8" stroke="none" width="273.0" x="1039.0" y="820.6" /><line stroke="#2f2f2f" stroke-width="2.2" x1="1039.0" x2="1312.0" y1="984.4" y2="984.4" /><line stroke="#2f2f2f" stroke-width="2.2" x1="1039.0" x2="1312.0" y1="820.6" y2="820.6" /><line stroke="#2f2f2f" stroke-width="2.2" x1="1039.0" x2="1039.0" y1="820.6" y2="984.4" /><line stroke="#2f2f2f" stroke-width="2.2" x1="1312.0" x2="1312.0" y1="820.6" y2="984.4" /><rect fill="#efe9ff" height="109.2" stroke="none" width="109.2" x="929.8" y="875.2" /><rect fill="#efe9ff" height="273.0" stroke="none" width="163.8" x="766.0" y="711.4" /><rect fill="#efe9ff" height="163.8" stroke="none" width="218.4" x="547.6" y="602.2" /><line stroke="#2f2f2f" stroke-width="2.2" x1="766.0" x2="1039.0" y1="984.4" y2="984.4" /><line stroke="#2f2f2f" stroke-width="2.2" x1="766.0" x2="929.8" y1="711.4" y2="711.4" /><line stroke="#2f2f2f" stroke-width="2.2" x1="547.6" x2="766.0" y1="766.0" y2="766.0" /><line stroke="#2f2f2f" stroke-width="2.2" x1="547.6" x2="766.0" y1="602.2" y2="602.2" /><line stroke="#2f2f2f" stroke-width="2.2" x1="929.8" x2="1039.0" y1="875.2" y2="875.2" /><line stroke="#2f2f2f" stroke-width="2.2" x1="766.0" x2="766.0" y1="602.2" y2="711.4" /><line stroke="#2f2f2f" stroke-width="2.2" x1="766.0" x2="766.0" y1="766.0" y2="984.4" /><line stroke="#2f2f2f" stroke-width="2.2" x1="547.6" x2="547.6" y1="602.2" y2="766.0" /><line stroke="#2f2f2f" stroke-width="2.2" x1="929.8" x2="929.8" y1="711.4" y2="875.2" /><line stroke="#2f2f2f" stroke-width="2.2" x1="1039.0" x2="1039.0" y1="875.2" y2="984.4" /><rect fill="#ffe2b8" height="382.2" stroke="none" width="764.4" x="547.6" y="220.0" /><line stroke="#2f2f2f" stroke-width="2.2" x1="547.6" x2="1312.0" y1="602.2" y2="602.2" /><line stroke="#2f2f2f" stroke-width="2.2" x1="547.6" x2="1312.0" y1="220.0" y2="220.0" /><line stroke="#2f2f2f" stroke-width="2.2" x1="1312.0" x2="1312.0" y1="220.0" y2="602.2" /><line stroke="#2f2f2f" stroke-width="2.2" x1="547.6" x2="547.6" y1="220.0" y2="602.2" /><rect fill="#f0f0f0" height="218.4" stroke="none" width="273.0" x="1039.0" y="602.2" /><line stroke="#2f2f2f" stroke-width="2.2" x1="1039.0" x2="1312.0" y1="602.2" y2="602.2" /><line stroke="#2f2f2f" stroke-width="2.2" x1="1039.0" x2="1312.0" y1="820.6" y2="820.6" /><line stroke="#2f2f2f" stroke-width="2.2" x1="1039.0" x2="1039.0" y1="602.2" y2="820.6" /><line stroke="#2f2f2f" stroke-width="2.2" x1="1312.0" x2="1312.0" y1="602.2" y2="820.6" /><rect fill="#fbe7e6" height="218.4" stroke="none" width="109.2" x="656.8" y="766.0" /><line stroke="#2f2f2f" stroke-width="2.2" x1="656.8" x2="766.0" y1="766.0" y2="766.0" /><line stroke="#2f2f2f" stroke-width="2.2" x1="656.8" x2="766.0" y1="984.4" y2="984.4" /><line stroke="#2f2f2f" stroke-width="2.2" x1="656.8" x2="656.8" y1="766.0" y2="984.4" /><line stroke="#2f2f2f" stroke-width="2.2" x1="766.0" x2="766.0" y1="766.0" y2="984.4" /><rect fill="#e7fbfb" height="218.4" stroke="none" width="218.4" x="438.4" y="766.0" /><line stroke="#2f2f2f" stroke-width="2.2" x1="438.4" x2="656.8" y1="984.4" y2="984.4" /><line stroke="#2f2f2f" stroke-width="2.2" x1="438.4" x2="656.8" y1="766.0" y2="766.0" /><line stroke="#2f2f2f" stroke-width="2.2" x1="656.8" x2="656.8" y1="766.0" y2="984.4" /><line stroke="#2f2f2f" stroke-width="2.2" x1="438.4" x2="438.4" y1="766.0" y2="984.4" /><rect fill="#f7f3ea" fill-opacity="0.35" height="109.2" stroke="#9a9a9a" stroke-dasharray="4,3" stroke-width="0.9" width="218.4" x="220.0" y="220.0" /><line stroke="#9c9c9c" stroke-opacity="0.7" stroke-width="0.8" x1="220.0" x2="239.2" y1="310.0" y2="329.2" /><line stroke="#9c9c9c" stroke-opacity="0.7" stroke-width="0.8" x1="220.0" x2="258.4" y1="290.8" y2="329.2" /><line stroke="#9c9c9c" stroke-opacity="0.7" stroke-width="0.8" x1="220.0" x2="277.6" y1="271.6" y2="329.2" /><line stroke="#9c9c9c" stroke-opacity="0.7" stroke-width="0.8" x1="220.0" x2="296.8" y1="252.4" y2="329.2" /><line stroke="#9c9c9c" stroke-opacity="0.7" stroke-width="0.8" x1="220.0" x2="316.0" y1="233.2" y2="329.2" /><line stroke="#9c9c9c" stroke-opacity="0.7" stroke-width="0.8" x1="226.0" x2="335.2" y1="220.0" y2="329.2" /><line stroke="#9c9c9c" stroke-opacity="0.7" stroke-width="0.8" x1="245.2" x2="354.4" y1="220.0" y2="329.2" /><line stroke="#9c9c9c" stroke-opacity="0.7" stroke-width="0.8" x1="264.4" x2="373.6" y1="220.0" y2="329.2" /><line stroke="#9c9c9c" stroke-opacity="0.7" stroke-width="0.8" x1="283.6" x2="392.8" y1="220.0" y2="329.2" /><line stroke="#9c9c9c" stroke-opacity="0.7" stroke-width="0.8" x1="302.8" x2="412.0" y1="220.0" y2="329.2" /><line stroke="#9c9c9c" stroke-opacity="0.7" stroke-width="0.8" x1="322.0" x2="431.2" y1="220.0" y2="329.2" /><line stroke="#9c9c9c" stroke-opacity="0.7" stroke-width="0.8" x1="341.2" x2="438.4" y1="220.0" y2="317.2" /><line stroke="#9c9c9c" stroke-opacity="0.7" stroke-width="0.8" x1="360.4" x2="438.4" y1="220.0" y2="298.0" /><line stroke="#9c9c9c" stroke-opacity="0.7" stroke-width="0.8" x1="379.6" x2="438.4" y1="220.0" y2="278.8" /><line stroke="#9c9c9c" stroke-opacity="0.7" stroke-width="0.8" x1="398.8" x2="438.4" y1="220.0" y2="259.6" /><line stroke="#9c9c9c" stroke-opacity="0.7" stroke-width="0.8" x1="418.0" x2="438.4" y1="220.0" y2="240.4" /><line stroke="#9c9c9c" stroke-opacity="0.7" stroke-width="0.8" x1="437.2" x2="438.4" y1="220.0" y2="221.2" /><rect fill="none" height="38.22" stroke="#8a6b4a" stroke-width="1.0" width="244.608" x="960.376" y="258.22" /><rect fill="none" height="84.084" stroke="#8a6b4a" stroke-width="1.0" width="34.398" x="1170.586" y="258.22" /><circle cx="1035.1888" cy="277.33" fill="none" r="8.4" stroke="#8a6b4a" stroke-width="0.9" /><circle cx="1056.7888" cy="277.33" fill="none" r="8.4" stroke="#8a6b4a" stroke-width="0.9" /><rect fill="none" height="20.1802" stroke="#8a6b4a" stroke-width="0.9" width="23.3906" x="1175.7457" y="293.5353" /><rect fill="none" height="45.864" stroke="#8a6b4a" stroke-width="1.0" width="163.8" x="853.36" y="380.524" /><rect fill="none" height="163.8" stroke="#7f7f7f" stroke-width="1.1" width="183.456" x="292.072" y="318.28" /><line stroke="#7f7f7f" stroke-width="0.9" x1="292.072" x2="475.528" y1="375.61" y2="375.61" /><line stroke="#9a9a9a" stroke-width="0.9" x1="1071.76" x2="1279.24" y1="641.512" y2="641.512" /><line stroke="#9a9a9a" stroke-width="0.9" x1="1071.76" x2="1279.24" y1="781.288" y2="781.288" /><rect fill="none" height="48.048" stroke="#6f6f6f" stroke-width="1.0" width="74.256" x="477.712" y="805.312" /><rect fill="none" height="48.048" stroke="#6f6f6f" stroke-width="1.0" width="74.256" x="565.072" y="805.312" /><line stroke="#8f8f8f" stroke-width="0.8" x1="468.976" x2="626.224" y1="790.912" y2="790.912" /><circle cx="630.4" cy="792.4" fill="none" r="8.4" stroke="#7c7c7c" stroke-width="0.9" /><line stroke="#7c7c7c" stroke-width="0.8" x1="619.6" x2="641.2" y1="792.4" y2="792.4" /><line stroke="#7c7c7c" stroke-width="0.8" x1="630.4" x2="630.4" y1="781.6" y2="803.2" /><rect fill="none" height="109.2" rx="6" ry="6" stroke="#6f6f6f" stroke-width="1.0" width="135.408" x="263.68" y="814.048" /><circle cx="412.0" cy="792.4" fill="none" r="8.4" stroke="#7c7c7c" stroke-width="0.9" /><line stroke="#7c7c7c" stroke-width="0.8" x1="401.2" x2="422.8" y1="792.4" y2="792.4" /><line stroke="#7c7c7c" stroke-width="0.8" x1="412.0" x2="412.0" y1="781.6" y2="803.2" /><rect fill="#ffffff" height="109.2" stroke="#202020" stroke-dasharray="8,4" stroke-width="2.6" width="163.8" x="766.0" y="602.2" /><rect fill="#ffffff" height="109.2" stroke="#202020" stroke-dasharray="8,4" stroke-width="2.6" width="109.2" x="929.8" y="602.2" /><rect fill="#ffffff" height="163.8" stroke="#202020" stroke-dasharray="8,4" stroke-width="2.6" width="109.2" x="929.8" y="711.4" /><line stroke="#2a2a2a" stroke-width="1.4" x1="789.4" x2="789.4" y1="602.2" y2="711.4" /><line stroke="#2a2a2a" stroke-width="1.4" x1="812.8" x2="812.8" y1="602.2" y2="711.4" /><line stroke="#2a2a2a" stroke-width="1.4" x1="836.2" x2="836.2" y1="602.2" y2="711.4" /><line stroke="#2a2a2a" stroke-width="1.4" x1="859.6" x2="859.6" y1="602.2" y2="711.4" /><line stroke="#2a2a2a" stroke-width="1.4" x1="883.0" x2="883.0" y1="602.2" y2="711.4" /><line stroke="#2a2a2a" stroke-width="1.4" x1="906.4" x2="906.4" y1="602.2" y2="711.4" /><line stroke="#2a2a2a" stroke-width="1.4" x1="929.8" x2="1039.0" y1="734.8" y2="734.8" /><line stroke="#2a2a2a" stroke-width="1.4" x1="929.8" x2="1039.0" y1="758.2" y2="758.2" /><line stroke="#2a2a2a" stroke-width="1.4" x1="929.8" x2="1039.0" y1="781.6" y2="781.6" /><line stroke="#2a2a2a" stroke-width="1.4" x1="929.8" x2="1039.0" y1="805.0" y2="805.0" /><line stroke="#2a2a2a" stroke-width="1.4" x1="929.8" x2="1039.0" y1="828.4" y2="828.4" /><line stroke="#2a2a2a" stroke-width="1.4" x1="929.8" x2="1039.0" y1="851.8" y2="851.8" /><text fill="#202020" font-size="11" text-anchor="middle" x="847.9" y="656.8">Stair (UP)</text><text fill="#3a3a3a" font-size="9.0" text-anchor="middle" x="847.9" y="671.2">13R/12T</text><text fill="#4a4a4a" font-size="7.8" text-anchor="middle" x="847.9" y="679.5999999999999">H2730 R210 T228</text><line stroke="#ffffff" stroke-width="7" x1="766.0" x2="766.0" y1="602.2" y2="711.4" /><line stroke="#5e5e5e" stroke-width="1.0" x1="766.0" x2="766.0" y1="602.2" y2="711.4" /><line stroke="#ffffff" stroke-width="6" x1="1039.0" x2="1039.0" y1="884.2" y2="975.4" /><line stroke="#ffffff" stroke-width="6" x1="607.66" x2="705.94" y1="602.2" y2="602.2" /><line stroke="#595959" stroke-width="1.2" x1="607.66" x2="671.542" y1="602.2" y2="538.318" /><path d="M 671.5419999999999,602.2 A 63.882,63.882 0 0 1 671.5419999999999,538.318" fill="none" stroke="#7a7a7a" stroke-width="1.0" /><line stroke="#ffffff" stroke-width="6" x1="766.0" x2="766.0" y1="826.06" y2="924.34" /><line stroke="#595959" stroke-width="1.2" x1="766.0" x2="829.882" y1="826.06" y2="889.942" /><path d="M 766.0,889.942 A 63.882,63.882 0 0 1 829.8820000000001,889.942" fill="none" stroke="#7a7a7a" stroke-width="1.0" /><line stroke="#ffffff" stroke-width="6" x1="556.6" x2="647.8" y1="766.0" y2="766.0" /><line stroke="#ffffff" stroke-width="6" x1="438.4" x2="438.4" y1="826.06" y2="924.34" /><line stroke="#595959" stroke-width="1.2" x1="438.4" x2="374.518" y1="826.06" y2="889.942" /><path d="M 438.4,889.942 A 63.882,63.882 0 0 1 374.51800000000003,889.942" fill="none" stroke="#7a7a7a" stroke-width="1.0" /><line stroke="#ffffff" stroke-width="6" x1="547.6" x2="547.6" y1="352.3" y2="469.9" /><line stroke="#595959" stroke-width="1.2" x1="547.6" x2="624.04" y1="352.3" y2="428.74" /><path d="M 547.5999999999999,428.74 A 76.44,76.44 0 0 1 624.04,428.74" fill="none" stroke="#7a7a7a" stroke-width="1.0" /><line stroke="#ffffff" stroke-width="6" x1="1116.7" x2="1234.3" y1="602.2" y2="602.2" /><line stroke="#595959" stroke-width="1.2" x1="1116.7" x2="1193.14" y1="602.2" y2="525.76" /><path d="M 1193.1399999999999,602.2 A 76.44,76.44 0 0 1 1193.1399999999999,525.76" fill="none" stroke="#7a7a7a" stroke-width="1.0" /><line stroke="#ffffff" stroke-width="7" x1="1116.7" x2="1234.3" y1="984.4" y2="984.4" /><line stroke="#595959" stroke-width="1.2" x1="1116.7" x2="1193.14" y1="984.4" y2="907.96" /><path d="M 1193.1399999999999,984.4 A 76.44,76.44 0 0 1 1193.1399999999999,907.9599999999999" fill="none" stroke="#7a7a7a" stroke-width="1.0" /><line stroke="#66a7ff" stroke-width="2.2" x1="1309.36" x2="1309.36" y1="847.9" y2="957.1" /><line stroke="#66a7ff" stroke-width="2.2" x1="1314.64" x2="1314.64" y1="847.9" y2="957.1" /><line stroke="#66a7ff" stroke-width="2.2" x1="1309.36" x2="1309.36" y1="346.18" y2="476.02" /><line stroke="#66a7ff" stroke-width="2.2" x1="1314.64" x2="1314.64" y1="346.18" y2="476.02" /><line stroke="#66a7ff" stroke-width="2.2" x1="665.632" x2="857.632" y1="217.36" y2="217.36" /><line stroke="#66a7ff" stroke-width="2.2" x1="665.632" x2="857.632" y1="222.64" y2="222.64" /><line stroke="#66a7ff" stroke-width="2.2" x1="1001.968" x2="1193.968" y1="217.36" y2="217.36" /><line stroke="#66a7ff" stroke-width="2.2" x1="1001.968" x2="1193.968" y1="222.64" y2="222.64" /><line stroke="#66a7ff" stroke-width="2.2" x1="217.36" x2="217.36" y1="280.06" y2="465.7" /><line stroke="#66a7ff" stroke-width="2.2" x1="222.64" x2="222.64" y1="280.06" y2="465.7" /><line stroke="#66a7ff" stroke-width="2.2" x1="217.36" x2="217.36" y1="520.3" y2="705.94" /><line stroke="#66a7ff" stroke-width="2.2" x1="222.64" x2="222.64" y1="520.3" y2="705.94" /><line stroke="#66a7ff" stroke-width="2.2" x1="328.12" x2="439.48" y1="217.36" y2="217.36" /><line stroke="#66a7ff" stroke-width="2.2" x1="328.12" x2="439.48" y1="222.64" y2="222.64" /><line stroke="#9a9a9a" stroke-width="0.8" x1="774.4" x2="921.4" y1="719.8" y2="719.8" /><line stroke="#9a9a9a" stroke-width="0.8" x1="774.4" x2="774.4" y1="716.44" y2="723.16" /><line stroke="#9a9a9a" stroke-width="0.8" x1="921.4" x2="921.4" y1="716.44" y2="723.16" /><text fill="#8a8a8a" font-size="7.6" text-anchor="start" x="781.12" y="717.16">1365mm</text><line stroke="#9a9a9a" stroke-width="0.8" x1="774.4" x2="774.4" y1="719.8" y2="976.0" /><line stroke="#9a9a9a" stroke-width="0.8" x1="771.04" x2="777.76" y1="719.8" y2="719.8" /><line stroke="#9a9a9a" stroke-width="0.8" x1="771.04" x2="777.76" y1="976.0" y2="976.0" /><text fill="#8a8a8a" font-size="7.6" text-anchor="start" x="778.48" y="727.48">2275mm</text><line stroke="#9a9a9a" stroke-width="0.8" x1="556.0" x2="757.6" y1="610.6" y2="610.6" /><line stroke="#9a9a9a" stroke-width="0.8" x1="556.0" x2="556.0" y1="607.24" y2="613.96" /><line stroke="#9a9a9a" stroke-width="0.8" x1="757.6" x2="757.6" y1="607.24" y2="613.96" /><text fill="#8a8a8a" font-size="7.6" text-anchor="start" x="562.72" y="607.96">1820mm</text><line stroke="#9a9a9a" stroke-width="0.8" x1="556.0" x2="556.0" y1="610.6" y2="757.6" /><line stroke="#9a9a9a" stroke-width="0.8" x1="552.64" x2="559.36" y1="610.6" y2="610.6" /><line stroke="#9a9a9a" stroke-width="0.8" x1="552.64" x2="559.36" y1="757.6" y2="757.6" /><text fill="#8a8a8a" font-size="7.6" text-anchor="start" x="560.0799999999999" y="618.28">1365mm</text><text fill="#1b1b1b" font-size="10" text-anchor="middle" x="329.2" y="860.8">Bath 1</text><text fill="#1b1b1b" font-size="10" text-anchor="middle" x="329.2" y="871.6">1820x1820mm</text><text fill="#1b1b1b" font-size="10" text-anchor="middle" x="329.2" y="882.4">3.3sqm / 2.0jo</text><text fill="#1b1b1b" font-size="10" text-anchor="middle" x="383.79999999999995" y="478.59999999999997">Bedroom 1</text><text fill="#1b1b1b" font-size="10" text-anchor="middle" x="383.79999999999995" y="489.4">2730x4550mm</text><text fill="#1b1b1b" font-size="10" text-anchor="middle" x="383.79999999999995" y="500.2">12.4sqm / 7.7jo</text><text fill="#1b1b1b" font-size="10" text-anchor="middle" x="1175.5" y="888.1">Entry</text><text fill="#1b1b1b" font-size="10" text-anchor="middle" x="1175.5" y="898.9">2275x1365mm</text><text fill="#1b1b1b" font-size="10" text-anchor="middle" x="1175.5" y="909.6999999999999">3.1sqm / 1.9jo</text><text fill="#1b1b1b" font-size="9" text-anchor="middle" x="791.5387096774193" y="780.6612903225806">Hall 1</text><text fill="#1b1b1b" font-size="9" text-anchor="middle" x="791.5387096774193" y="791.4612903225807">6.4sqm / 4.0jo</text><text fill="#1b1b1b" font-size="10" text-anchor="middle" x="929.8" y="396.7">Ldk</text><text fill="#1b1b1b" font-size="10" text-anchor="middle" x="929.8" y="407.5">6370x3185mm</text><text fill="#1b1b1b" font-size="10" text-anchor="middle" x="929.8" y="418.29999999999995">20.3sqm / 12.5jo</text><text fill="#1b1b1b" font-size="10" text-anchor="middle" x="1175.5" y="697.0">Pantry 1</text><text fill="#1b1b1b" font-size="10" text-anchor="middle" x="1175.5" y="707.8">2275x1820mm</text><text fill="#1b1b1b" font-size="10" text-anchor="middle" x="1175.5" y="718.5999999999999">4.1sqm / 2.6jo</text><text fill="#1b1b1b" font-size="10" text-anchor="middle" x="711.4" y="860.8">Toilet 1</text><text fill="#1b1b1b" font-size="10" text-anchor="middle" x="711.4" y="871.6">910x1820mm</text><text fill="#1b1b1b" font-size="10" text-anchor="middle" x="711.4" y="882.4">1.7sqm / 1.0jo</text><text fill="#1b1b1b" font-size="10" text-anchor="middle" x="547.5999999999999" y="860.8">Wash 1</text><text fill="#1b1b1b" font-size="10" text-anchor="middle" x="547.5999999999999" y="871.6">1820x1820mm</text><text fill="#1b1b1b" font-size="10" text-anchor="middle" x="547.5999999999999" y="882.4">3.3sqm / 2.0jo</text><text fill="#4a4a4a" font-size="10" text-anchor="middle" x="329.2" y="274.6">CL</text><text fill="#111111" font-size="14" x="220.0" y="180.0">F1 Plan  (9100 x 6370 mm)</text><text fill="#444444" font-size="10" x="220.0" y="198.0">Scale: 1px=8.3mm</text><rect fill="#ffffff" height="216" stroke="#777777" stroke-width="1" width="170" x="1400.0" y="150.0" /><text fill="#111111" font-size="11" x="1408.0" y="164.0">Legend</text><rect fill="#f8f0d9" height="12" stroke="#333333" stroke-width="1" width="12" x="1408.0" y="174.0" /><text fill="#222222" font-size="10" x="1426.0" y="184.0">Entry</text><rect fill="#efe9ff" height="12" stroke="#333333" stroke-width="1" width="12" x="1408.0" y="192.0" /><text fill="#222222" font-size="10" x="1426.0" y="202.0">Hall</text><rect fill="#ffe2b8" height="12" stroke="#333333" stroke-width="1" width="12" x="1408.0" y="210.0" /><text fill="#222222" font-size="10" x="1426.0" y="220.0">Ldk</text><rect fill="#d9f2ff" height="12" stroke="#333333" stroke-width="1" width="12" x="1408.0" y="228.0" /><text fill="#222222" font-size="10" x="1426.0" y="238.0">Bedroom</text><rect fill="#fbe7e6" height="12" stroke="#333333" stroke-width="1" width="12" x="1408.0" y="246.0" /><text fill="#222222" font-size="10" x="1426.0" y="256.0">Toilet</text><rect fill="#e7fbfb" height="12" stroke="#333333" stroke-width="1" width="12" x="1408.0" y="264.0" /><text fill="#222222" font-size="10" x="1426.0" y="274.0">Washroom</text><rect fill="#dcecff" height="12" stroke="#333333" stroke-width="1" width="12" x="1408.0" y="282.0" /><text fill="#222222" font-size="10" x="1426.0" y="292.0">Bath</text><rect fill="#f7f3ea" height="12" stroke="#333333" stroke-width="1" width="12" x="1408.0" y="300.0" /><text fill="#222222" font-size="10" x="1426.0" y="310.0">Closet</text><rect fill="#f0f0f0" height="12" stroke="#333333" stroke-width="1" width="12" x="1408.0" y="318.0" /><text fill="#222222" font-size="10" x="1426.0" y="328.0">Storage</text><line stroke="#6aa4ff" stroke-width="4" x1="1408.0" x2="1435.0" y1="348.0" y2="348.0" /><text fill="#222222" font-size="10" x="1442.0" y="351.0">Window</text><line stroke="#666666" stroke-width="2.4" x1="1408.0" x2="1435.0" y1="364.0" y2="364.0" /><path d="M 1408.0,364.0 A 10,10 0 0 1 1418.0,354.0" fill="none" stroke="#666666" stroke-width="1.2" /><text fill="#222222" font-size="10" x="1442.0" y="367.0">Door</text><rect fill="#ffffff" height="84" stroke="#777777" stroke-width="1" width="200" x="1400.0" y="520.0" /><text fill="#111111" font-size="10" x="1408.0" y="533.0">Area (F1)</text><text fill="#222222" font-size="9" x="1408.0" y="550.0">F1: in 58.0 sqm (17.5 tsubo), out 0.0 sqm (0.0 tsubo)</text><text fill="#222222" font-size="9" x="1408.0" y="566.0">F2: in 58.0 sqm (17.5 tsubo), out 0.0 sqm (0.0 tsubo)</text><text fill="#222222" font-size="9" x="1408.0" y="582.0">Total indoor: 115.9 sqm (35.1 tsubo)</text><text fill="#222222" font-size="9" x="1408.0" y="598.0">Total outdoor: 0.0 sqm (0.0 tsubo)</text><line stroke="#111111" stroke-width="2" x1="175.0" x2="175.0" y1="238.0" y2="208.0" /><polygon fill="#111111" points="175.0,208.0 181.0,214.0 169.0,214.0" /><text fill="#111111" font-size="12" x="170.0" y="202.0">N</text><line stroke="#545454" stroke-width="1.0" x1="220.0" x2="1312.0" y1="148.0" y2="148.0" /><line stroke="#545454" stroke-width="0.8" x1="220.0" x2="220.0" y1="220.0" y2="148.0" /><line stroke="#545454" stroke-width="1.0" x1="220.0" x2="220.0" y1="145.0" y2="151.0" /><line stroke="#545454" stroke-width="0.8" x1="1312.0" x2="1312.0" y1="220.0" y2="148.0" /><line stroke="#545454" stroke-width="1.0" x1="1312.0" x2="1312.0" y1="145.0" y2="151.0" /><text fill="#545454" font-size="8.8" text-anchor="middle" x="766.0" y="145.0">9100mm</text><line stroke="#666666" stroke-width="1.0" x1="220.0" x2="1312.0" y1="166.0" y2="166.0" /><line stroke="#666666" stroke-width="0.8" x1="220.0" x2="220.0" y1="220.0" y2="166.0" /><line stroke="#666666" stroke-width="1.0" x1="220.0" x2="220.0" y1="163.0" y2="169.0" /><line stroke="#666666" stroke-width="0.8" x1="547.6" x2="547.6" y1="220.0" y2="166.0" /><line stroke="#666666" stroke-width="1.0" x1="547.6" x2="547.6" y1="163.0" y2="169.0" /><line stroke="#666666" stroke-width="0.8" x1="1312.0" x2="1312.0" y1="220.0" y2="166.0" /><line stroke="#666666" stroke-width="1.0" x1="1312.0" x2="1312.0" y1="163.0" y2="169.0" /><text fill="#666666" font-size="8.2" text-anchor="middle" x="383.79999999999995" y="163.0">2730</text><text fill="#666666" font-size="8.2" text-anchor="middle" x="929.8" y="163.0">6370</text><line stroke="#7a7a7a" stroke-width="1.0" x1="220.0" x2="1312.0" y1="184.0" y2="184.0" /><line stroke="#7a7a7a" stroke-width="0.8" x1="220.0" x2="220.0" y1="220.0" y2="184.0" /><line stroke="#7a7a7a" stroke-width="1.0" x1="220.0" x2="220.0" y1="181.0" y2="187.0" /><line stroke="#7a7a7a" stroke-width="0.8" x1="329.2" x2="329.2" y1="220.0" y2="184.0" /><line stroke="#7a7a7a" stroke-width="1.0" x1="329.2" x2="329.2" y1="181.0" y2="187.0" /><line stroke="#7a7a7a" stroke-width="0.8" x1="438.4" x2="438.4" y1="220.0" y2="184.0" /><line stroke="#7a7a7a" stroke-width="1.0" x1="438.4" x2="438.4" y1="181.0" y2="187.0" /><line stroke="#7a7a7a" stroke-width="0.8" x1="656.8" x2="656.8" y1="220.0" y2="184.0" /><line stroke="#7a7a7a" stroke-width="1.0" x1="656.8" x2="656.8" y1="181.0" y2="187.0" /><line stroke="#7a7a7a" stroke-width="0.8" x1="875.2" x2="875.2" y1="220.0" y2="184.0" /><line stroke="#7a7a7a" stroke-width="1.0" x1="875.2" x2="875.2" y1="181.0" y2="187.0" /><line stroke="#7a7a7a" stroke-width="0.8" x1="984.4" x2="984.4" y1="220.0" y2="184.0" /><line stroke="#7a7a7a" stroke-width="1.0" x1="984.4" x2="984.4" y1="181.0" y2="187.0" /><line stroke="#7a7a7a" stroke-width="0.8" x1="1202.8" x2="1202.8" y1="220.0" y2="184.0" /><line stroke="#7a7a7a" stroke-width="1.0" x1="1202.8" x2="1202.8" y1="181.0" y2="187.0" /><line stroke="#7a7a7a" stroke-width="0.8" x1="1312.0" x2="1312.0" y1="220.0" y2="184.0" /><line stroke="#7a7a7a" stroke-width="1.0" x1="1312.0" x2="1312.0" y1="181.0" y2="187.0" /><text fill="#7a7a7a" font-size="7.8" text-anchor="middle" x="274.6" y="181.0">910</text><text fill="#7a7a7a" font-size="7.8" text-anchor="middle" x="383.79999999999995" y="181.0">910</text><text fill="#7a7a7a" font-size="7.8" text-anchor="middle" x="547.5999999999999" y="181.0">1820</text><text fill="#7a7a7a" font-size="7.8" text-anchor="middle" x="766.0" y="181.0">1820</text><text fill="#7a7a7a" font-size="7.8" text-anchor="middle" x="929.8" y="181.0">910</text><text fill="#7a7a7a" font-size="7.8" text-anchor="middle" x="1093.6" y="181.0">1820</text><text fill="#7a7a7a" font-size="7.8" text-anchor="middle" x="1257.3999999999999" y="181.0">910</text><line stroke="#545454" stroke-width="1.0" x1="220.0" x2="1312.0" y1="1056.4" y2="1056.4" /><line stroke="#545454" stroke-width="0.8" x1="220.0" x2="220.0" y1="984.4" y2="1056.4" /><line stroke="#545454" stroke-width="1.0" x1="220.0" x2="220.0" y1="1053.4" y2="1059.4" /><line stroke="#545454" stroke-width="0.8" x1="1312.0" x2="1312.0" y1="984.4" y2="1056.4" /><line stroke="#545454" stroke-width="1.0" x1="1312.0" x2="1312.0" y1="1053.4" y2="1059.4" /><text fill="#545454" font-size="8.8" text-anchor="middle" x="766.0" y="1066.4">9100mm</text><line stroke="#666666" stroke-width="1.0" x1="220.0" x2="1312.0" y1="1038.4" y2="1038.4" /><line stroke="#666666" stroke-width="0.8" x1="220.0" x2="220.0" y1="984.4" y2="1038.4" /><line stroke="#666666" stroke-width="1.0" x1="220.0" x2="220.0" y1="1035.4" y2="1041.4" /><line stroke="#666666" stroke-width="0.8" x1="438.4" x2="438.4" y1="984.4" y2="1038.4" /><line stroke="#666666" stroke-width="1.0" x1="438.4" x2="438.4" y1="1035.4" y2="1041.4" /><line stroke="#666666" stroke-width="0.8" x1="656.8" x2="656.8" y1="984.4" y2="1038.4" /><line stroke="#666666" stroke-width="1.0" x1="656.8" x2="656.8" y1="1035.4" y2="1041.4" /><line stroke="#666666" stroke-width="0.8" x1="766.0" x2="766.0" y1="984.4" y2="1038.4" /><line stroke="#666666" stroke-width="1.0" x1="766.0" x2="766.0" y1="1035.4" y2="1041.4" /><line stroke="#666666" stroke-width="0.8" x1="929.8" x2="929.8" y1="984.4" y2="1038.4" /><line stroke="#666666" stroke-width="1.0" x1="929.8" x2="929.8" y1="1035.4" y2="1041.4" /><line stroke="#666666" stroke-width="0.8" x1="1039.0" x2="1039.0" y1="984.4" y2="1038.4" /><line stroke="#666666" stroke-width="1.0" x1="1039.0" x2="1039.0" y1="1035.4" y2="1041.4" /><line stroke="#666666" stroke-width="0.8" x1="1312.0" x2="1312.0" y1="984.4" y2="1038.4" /><line stroke="#666666" stroke-width="1.0" x1="1312.0" x2="1312.0" y1="1035.4" y2="1041.4" /><text fill="#666666" font-size="8.2" text-anchor="middle" x="329.2" y="1048.4">1820</text><text fill="#666666" font-size="8.2" text-anchor="middle" x="547.5999999999999" y="1048.4">1820</text><text fill="#666666" font-size="8.2" text-anchor="middle" x="711.4" y="1048.4">910</text><text fill="#666666" font-size="8.2" text-anchor="middle" x="847.9" y="1048.4">1365</text><text fill="#666666" font-size="8.2" text-anchor="middle" x="984.4" y="1048.4">910</text><text fill="#666666" font-size="8.2" text-anchor="middle" x="1175.5" y="1048.4">2275</text><line stroke="#7a7a7a" stroke-width="1.0" x1="220.0" x2="1312.0" y1="1020.4" y2="1020.4" /><line stroke="#7a7a7a" stroke-width="0.8" x1="220.0" x2="220.0" y1="984.4" y2="1020.4" /><line stroke="#7a7a7a" stroke-width="1.0" x1="220.0" x2="220.0" y1="1017.4" y2="1023.4" /><line stroke="#7a7a7a" stroke-width="0.8" x1="1093.6" x2="1093.6" y1="984.4" y2="1020.4" /><line stroke="#7a7a7a" stroke-width="1.0" x1="1093.6" x2="1093.6" y1="1017.4" y2="1023.4" /><line stroke="#7a7a7a" stroke-width="0.8" x1="1257.4" x2="1257.4" y1="984.4" y2="1020.4" /><line stroke="#7a7a7a" stroke-width="1.0" x1="1257.4" x2="1257.4" y1="1017.4" y2="1023.4" /><line stroke="#7a7a7a" stroke-width="0.8" x1="1312.0" x2="1312.0" y1="984.4" y2="1020.4" /><line stroke="#7a7a7a" stroke-width="1.0" x1="1312.0" x2="1312.0" y1="1017.4" y2="1023.4" /><text fill="#7a7a7a" font-size="7.8" text-anchor="middle" x="656.8" y="1030.4">7280</text><text fill="#7a7a7a" font-size="7.8" text-anchor="middle" x="1175.5" y="1030.4">1365</text><line stroke="#545454" stroke-width="1.0" x1="148.0" x2="148.0" y1="220.0" y2="984.4" /><line stroke="#545454" stroke-width="0.8" x1="220.0" x2="148.0" y1="220.0" y2="220.0" /><line stroke="#545454" stroke-width="1.0" x1="145.0" x2="151.0" y1="220.0" y2="220.0" /><line stroke="#545454" stroke-width="0.8" x1="220.0" x2="148.0" y1="984.4" y2="984.4" /><line stroke="#545454" stroke-width="1.0" x1="145.0" x2="151.0" y1="984.4" y2="984.4" /><text fill="#545454" font-size="8.8" x="144.0" y="602.2">6370mm</text><line stroke="#666666" stroke-width="1.0" x1="166.0" x2="166.0" y1="220.0" y2="984.4" /><line stroke="#666666" stroke-width="0.8" x1="220.0" x2="166.0" y1="220.0" y2="220.0" /><line stroke="#666666" stroke-width="1.0" x1="163.0" x2="169.0" y1="220.0" y2="220.0" /><line stroke="#666666" stroke-width="0.8" x1="220.0" x2="166.0" y1="766.0" y2="766.0" /><line stroke="#666666" stroke-width="1.0" x1="163.0" x2="169.0" y1="766.0" y2="766.0" /><line stroke="#666666" stroke-width="0.8" x1="220.0" x2="166.0" y1="984.4" y2="984.4" /><line stroke="#666666" stroke-width="1.0" x1="163.0" x2="169.0" y1="984.4" y2="984.4" /><text fill="#666666" font-size="8.2" x="162.0" y="493.0">4550</text><text fill="#666666" font-size="8.2" x="162.0" y="875.1999999999999">1820</text><line stroke="#7a7a7a" stroke-width="1.0" x1="184.0" x2="184.0" y1="220.0" y2="984.4" /><line stroke="#7a7a7a" stroke-width="0.8" x1="220.0" x2="184.0" y1="220.0" y2="220.0" /><line stroke="#7a7a7a" stroke-width="1.0" x1="181.0" x2="187.0" y1="220.0" y2="220.0" /><line stroke="#7a7a7a" stroke-width="0.8" x1="220.0" x2="184.0" y1="274.6" y2="274.6" /><line stroke="#7a7a7a" stroke-width="1.0" x1="181.0" x2="187.0" y1="274.6" y2="274.6" /><line stroke="#7a7a7a" stroke-width="0.8" x1="220.0" x2="184.0" y1="493.0" y2="493.0" /><line stroke="#7a7a7a" stroke-width="1.0" x1="181.0" x2="187.0" y1="493.0" y2="493.0" /><line stroke="#7a7a7a" stroke-width="0.8" x1="220.0" x2="184.0" y1="711.4" y2="711.4" /><line stroke="#7a7a7a" stroke-width="1.0" x1="181.0" x2="187.0" y1="711.4" y2="711.4" /><line stroke="#7a7a7a" stroke-width="0.8" x1="220.0" x2="184.0" y1="984.4" y2="984.4" /><line stroke="#7a7a7a" stroke-width="1.0" x1="181.0" x2="187.0" y1="984.4" y2="984.4" /><text fill="#7a7a7a" font-size="7.8" x="180.0" y="383.79999999999995">1820</text><text fill="#7a7a7a" font-size="7.8" x="180.0" y="602.2">1820</text><text fill="#7a7a7a" font-size="7.8" x="180.0" y="847.9">2275</text><line stroke="#545454" stroke-width="1.0" x1="1384.0" x2="1384.0" y1="220.0" y2="984.4" /><line stroke="#545454" stroke-width="0.8" x1="1312.0" x2="1384.0" y1="220.0" y2="220.0" /><line stroke="#545454" stroke-width="1.0" x1="1381.0" x2="1387.0" y1="220.0" y2="220.0" /><line stroke="#545454" stroke-width="0.8" x1="1312.0" x2="1384.0" y1="984.4" y2="984.4" /><line stroke="#545454" stroke-width="1.0" x1="1381.0" x2="1387.0" y1="984.4" y2="984.4" /><text fill="#545454" font-size="8.8" x="1389.0" y="602.2">6370mm</text><line stroke="#666666" stroke-width="1.0" x1="1366.0" x2="1366.0" y1="220.0" y2="984.4" /><line stroke="#666666" stroke-width="0.8" x1="1312.0" x2="1366.0" y1="220.0" y2="220.0" /><line stroke="#666666" stroke-width="1.0" x1="1363.0" x2="1369.0" y1="220.0" y2="220.0" /><line stroke="#666666" stroke-width="0.8" x1="1312.0" x2="1366.0" y1="602.2" y2="602.2" /><line stroke="#666666" stroke-width="1.0" x1="1363.0" x2="1369.0" y1="602.2" y2="602.2" /><line stroke="#666666" stroke-width="0.8" x1="1312.0" x2="1366.0" y1="820.6" y2="820.6" /><line stroke="#666666" stroke-width="1.0" x1="1363.0" x2="1369.0" y1="820.6" y2="820.6" /><line stroke="#666666" stroke-width="0.8" x1="1312.0" x2="1366.0" y1="984.4" y2="984.4" /><line stroke="#666666" stroke-width="1.0" x1="1363.0" x2="1369.0" y1="984.4" y2="984.4" /><text fill="#666666" font-size="8.2" x="1371.0" y="411.1">3185</text><text fill="#666666" font-size="8.2" x="1371.0" y="711.4">1820</text><text fill="#666666" font-size="8.2" x="1371.0" y="902.5">1365</text><line stroke="#7a7a7a" stroke-width="1.0" x1="1348.0" x2="1348.0" y1="220.0" y2="984.4" /><line stroke="#7a7a7a" stroke-width="0.8" x1="1312.0" x2="1348.0" y1="220.0" y2="220.0" /><line stroke="#7a7a7a" stroke-width="1.0" x1="1345.0" x2="1351.0" y1="220.0" y2="220.0" /><line stroke="#7a7a7a" stroke-width="0.8" x1="1312.0" x2="1348.0" y1="329.2" y2="329.2" /><line stroke="#7a7a7a" stroke-width="1.0" x1="1345.0" x2="1351.0" y1="329.2" y2="329.2" /><line stroke="#7a7a7a" stroke-width="0.8" x1="1312.0" x2="1348.0" y1="493.0" y2="493.0" /><line stroke="#7a7a7a" stroke-width="1.0" x1="1345.0" x2="1351.0" y1="493.0" y2="493.0" /><line stroke="#7a7a7a" stroke-width="0.8" x1="1312.0" x2="1348.0" y1="820.6" y2="820.6" /><line stroke="#7a7a7a" stroke-width="1.0" x1="1345.0" x2="1351.0" y1="820.6" y2="820.6" /><line stroke="#7a7a7a" stroke-width="0.8" x1="1312.0" x2="1348.0" y1="929.8" y2="929.8" /><line stroke="#7a7a7a" stroke-width="1.0" x1="1345.0" x2="1351.0" y1="929.8" y2="929.8" /><line stroke="#7a7a7a" stroke-width="0.8" x1="1312.0" x2="1348.0" y1="984.4" y2="984.4" /><line stroke="#7a7a7a" stroke-width="1.0" x1="1345.0" x2="1351.0" y1="984.4" y2="984.4" /><text fill="#7a7a7a" font-size="7.8" x="1353.0" y="274.6">910</text><text fill="#7a7a7a" font-size="7.8" x="1353.0" y="411.1">1365</text><text fill="#7a7a7a" font-size="7.8" x="1353.0" y="656.8">2730</text><text fill="#7a7a7a" font-size="7.8" x="1353.0" y="875.1999999999999">910</text></svg>