<?xml version="1.0" encoding="utf-8" ?>
<svg baseProfile="tiny" height="1204.4px" version="1.2" width="1532.0px" xmlns="http://www.w3.org/2000/svg" xmlns:ev="http://www.w3.org/2001/xml-events" xmlns:xlink="http://www.w3.org/1999/xlink"><defs /><rect fill="#fafafa" height="1204.4" width="1532.0" x="0" y="0" /><line stroke="#ececec" stroke-width="0.7" x1="220.0" x2="220.0" y1="220.0" y2="984.4" /><line stroke="#ececec" stroke-width="0.7" x1="274.6" x2="274.6" y1="220.0" y2="984.4" /><line stroke="#ececec" stroke-width="0.7" x1="329.2" x2="329.2" y1="220.0" y2="984.4" /><line stroke="#ececec" stroke-width="0.7" x1="383.8" x2="383.8" y1="220.0" y2="984.4" /><line stroke="#ececec" stroke-width="0.7" x1="438.4" x2="438.4" y1="220.0" y2="984.4" /><line stroke="#ececec" stroke-width="0.7" x1="493.0" x2="493.0" y1="220.0" y2="984.4" /><line stroke="#ececec" stroke-width="0.7" x1="547.6" x2="547.6" y1="220.0" y2="984.4" /><line stroke="#ececec" stroke-width="0.7" x1="602.2" x2="602.2" y1="220.0" y2="984.4" /><line stroke="#ececec" stroke-width="0.7" x1="656.8" x2="656.8" y1="220.0" y2="984.4" /><line stroke="#ececec" stroke-width="0.7" x1="711.4" x2="711.4" y1="220.0" y2="984.4" /><line stroke="#ececec" stroke-width="0.7" x1="766.0" x2="766.0" y1="220.0" y2="984.4" /><line stroke="#ececec" stroke-width="0.7" x1="820.6" x2="820.6" y1="220.0" y2="984.4" /><line stroke="#ececec" stroke-width="0.7" x1="875.2" x2="875.2" y1="220.0" y2="984.4" /><line stroke="#ececec" stroke-width="0.7" x1="929.8" x2="929.8" y1="220.0" y2="984.4" /><line stroke="#ececec" stroke-width="0.7" x1="984.4" x2="984.4" y1="220.0" y2="984.4" /><line stroke="#ececec" stroke-width="0.7" x1="1039.0" x2="1039.0" y1="220.0" y2="984.4" /><line stroke="#ececec" stroke-width="0.7" x1="1093.6" x2="1093.6" y1="220.0" y2="984.4" /><line stroke="#ececec" stroke-width="0.7" x1="1148.2" x2="1148.2" y1="220.0" y2="984.4" /><line stroke="#ececec" stroke-width="0.7" x1="1202.8" x2="1202.8" y1="220.0" y2="984.4" /><line stroke="#ececec" stroke-width="0.7" x1="1257.4" x2="1257.4" y1="220.0" y2="984.4" /><line stroke="#ececec" stroke-width="0.7" x1="1312.0" x2="1312.0" y1="220.0" y2="984.4" /><line stroke="#d1d1d1" stroke-width="1.1" x1="220.0" x2="220.0" y1="220.0" y2="984.4" /><line stroke="#d1d1d1" stroke-width="1.1" x1="329.2" x2="329.2" y1="220.0" y2="984.4" /><line stroke="#d1d1d1" stroke-width="1.1" x1="438.4" x2="438.4" y1="220.0" y2="984.4" /><line stroke="#d1d1d1" stroke-width="1.1" x1="547.6" x2="547.6" y1="220.0" y2="984.4" /><line stroke="#d1d1d1" stroke-width="1.1" x1="656.8" x2="656.8" y1="220.0" y2="984.4" /><line stroke="#d1d1d1" stroke-width="1.1" x1="766.0" x2="766.0" y1="220.0" y2="984.4" /><line stroke="#d1d1d1" stroke-width="1.1" x1="875.2" x2="875.2" y1="220.0" y2="984.4" /><line stroke="#d1d1d1" stroke-width="1.1" x1="984.4" x2="984.4" y1="220.0" y2="984.4" /><line stroke="#d1d1d1" stroke-width="1.1" x1="1093.6" x2="1093.6" y1="220.0" y2="984.4" /><line stroke="#d1d1d1" stroke-width="1.1" x1="1202.8" x2="1202.8" y1="220.0" y2="984.4" /><line stroke="#d1d1d1" stroke-width="1.1" x1="1312.0" x2="1312.0" y1="220.0" y2="984.4" /><line stroke="#d1d1d1" stroke-width="1.1" x1="220.0" x2="1312.0" y1="220.0" y2="220.0" /><line stroke="#d1d1d1" stroke-width="1.1" x1="220.0" x2="1312.0" y1="329.2" y2="329.2" /><line stroke="#d1d1d1" stroke-width="1.1" x1="220.0" x2="1312.0" y1="438.4" y2="438.4" /><line stroke="#d1d1d1" stroke-width="1.1" x1="220.0" x2="1312.0" y1="547.6" y2="547.6" /><line stroke="#d1d1d1" stroke-width="1.1" x1="220.0" x2="1312.0" y1="656.8" y2="656.8" /><line stroke="#d1d1d1" stroke-width="1.1" x1="220.0" x2="1312.0" y1="766.0" y2="766.0" /><line stroke="#d1d1d1" stroke-width="1.1" x1="220.0" x2="1312.0" y1="875.2" y2="875.2" /><line stroke="#d1d1d1" stroke-width="1.1" x1="220.0" x2="1312.0" y1="984.4" y2="984.4" /><line stroke="#ececec" stroke-width="0.7" x1="220.0" x2="1312.0" y1="220.0" y2="220.0" /><line stroke="#ececec" stroke-width="0.7" x1="220.0" x2="1312.0" y1="274.6" y2="274.6" /><line stroke="#ececec" stroke-width="0.7" x1="220.0" x2="1312.0" y1="329.2" y2="329.2" /><line stroke="#ececec" stroke-width="0.7" x1="220.0" x2="1312.0" y1="383.8" y2="383.8" /><line stroke="#ececec" stroke-width="0.7" x1="220.0" x2="1312.0" y1="438.4" y2="438.4" /><line stroke="#ececec" stroke-width="0.7" x1="220.0" x2="1312.0" y1="493.0" y2="493.0" /><line stroke="#ececec" stroke-width="0.7" x1="220.0" x2="1312.0" y1="547.6" y2="547.6" /><line stroke="#ececec" stroke-width="0.7" x1="220.0" x2="1312.0" y1="602.2" y2="602.2" /><line stroke="#ececec" stroke-width="0.7" x1="220.0" x2="1312.0" y1="656.8" y2="656.8" /><line stroke="#ececec" stroke-width="0.7" x1="220.0" x2="1312.0" y1="711.4" y2="711.4" /><line stroke="#ececec" stroke-width="0.7" x1="220.0" x2="1312.0" y1="766.0" y2="766.0" /><line stroke="#ececec" stroke-width="0.7" x1="220.0" x2="1312.0" y1="820.6" y2="820.6" /><line stroke="#ececec" stroke-width="0.7" x1="220.0" x2="1312.0" y1="875.2" y2="875.2" /><line stroke="#ececec" stroke-width="0.7" x1="220.0" x2="1312.0" y1="929.8" y2="929.8" /><line stroke="#ececec" stroke-width="0.7" x1="220.0" x2="1312.0" y1="984.4" y2="984.4" /><rect fill="none" height="764.4" stroke="#6a6a6a" stroke-dasharray="8,4" stroke-width="2" width="1092.0" x="220.0" y="220.0" /><rect fill="none" height="764.4" stroke="#1f1f1f" stroke-width="3.5" width="1092.0" x="220.0" y="220.0" /><text fill="#555555" font-size="10" x="222.0" y="160.0">Site Envelope = Building Footprint</text><rect fill="#dcecff" height="218.4" stroke="none" width="218.4" x="711.4" y="220.0" /><line stroke="#2f2f2f" stroke-width="2.2" x1="711.4" x2="929.8" y1="438.4" y2="438.4" /><line stroke="#2f2f2f" stroke-width="2.2" x1="711.4" x2="929.8" y1="220.0" y2="220.0" /><line stroke="#2f2f2f" stroke-width="2.2" x1="929.8" x2="929.8" y1="220.0" y2="438.4" /><line stroke="#2f2f2f" stroke-width="2.2" x1="711.4" x2="711.4" y1="220.0" y2="438.4" /><rect fill="#d9f2ff" height="382.2" stroke="none" width="382.2" x="929.8" y="602.2" /><line stroke="#2f2f2f" stroke-width="2.2" x1="929.8" x2="1312.0" y1="602.2" y2="602.2" /><line stroke="#2f2f2f" stroke-width="2.2" x1="929.8" x2="1312.0" y1="984.4" y2="984.4" /><line stroke="#2f2f2f" stroke-width="2.2" x1="929.8" x2="929.8" y1="602.2" y2="984.4" /><line stroke="#2f2f2f" stroke-width="2.2" x1="1312.0" x2="1312.0" y1="602.2" y2="984.4" /><rect fill="#f8f0d9" height="327.6" stroke="none" width="163.8" x="220.0" y="220.0" /><line stroke="#2f2f2f" stroke-width="2.2" x1="220.0" x2="383.8" y1="220.0" y2="220.0" /><line stroke="#2f2f2f" stroke-width="2.2" x1="220.0" x2="383.8" y1="547.6" y2="547.6" /><line stroke="#2f2f2f" stroke-width="2.2" x1="220.0" x2="220.0" y1="220.0" y2="547.6" /><line stroke="#2f2f2f" stroke-width="2.2" x1="383.8" x2="383.8" y1="220.0" y2="547.6" /><rect fill="#efe9ff" height="109.2" stroke="none" width="109.2" x="929.8" y="220.0" /><rect fill="#efe9ff" height="163.8" stroke="none" width="273.0" x="929.8" y="329.2" /><rect fill="#efe9ff" height="109.2" stroke="none" width="546.0" x="383.8" y="438.4" /><line stroke="#2f2f2f" stroke-width="2.2" x1="383.8" x2="929.8" y1="438.4" y2="438.4" /><line stroke="#2f2f2f" stroke-width="2.2" x1="383.8" x2="929.8" y1="547.6" y2="547.6" /><line stroke="#2f2f2f" stroke-width="2.2" x1="1039.0" x2="1202.8" y1="329.2" y2="329.2" /><line stroke="#2f2f2f" stroke-width="2.2" x1="929.8" x2="1202.8" y1="493.0" y2="493.0" /><line stroke="#2f2f2f" stroke-width="2.2" x1="929.8" x2="1039.0" y1="220.0" y2="220.0" /><line stroke="#2f2f2f" stroke-width="2.2" x1="383.8" x2="383.8" y1="438.4" y2="547.6" /><line stroke="#2f2f2f" stroke-width="2.2" x1="929.8" x2="929.8" y1="220.0" y2="438.4" /><line stroke="#2f2f2f" stroke-width="2.2" x1="929.8" x2="929.8" y1="493.0" y2="547.6" /><line stroke="#2f2f2f" stroke-width="2.2" x1="1202.8" x2="1202.8" y1="329.2" y2="493.0" /><line stroke="#2f2f2f" stroke-width="2.2" x1="1039.0" x2="1039.0" y1="220.0" y2="329.2" /><rect fill="#ffe2b8" height="436.8" stroke="none" width="709.8" x="220.0" y="547.6" /><line stroke="#2f2f2f" stroke-width="2.2" x1="220.0" x2="929.8" y1="547.6" y2="547.6" /><line stroke="#2f2f2f" stroke-width="2.2" x1="220.0" x2="929.8" y1="984.4" y2="984.4" /><line stroke="#2f2f2f" stroke-width="2.2" x1="220.0" x2="220.0" y1="547.6" y2="984.4" /><line stroke="#2f2f2f" stroke-width="2.2" x1="929.8" x2="929.8" y1="547.6" y2="984.4" /><rect fill="#f0f0f0" height="109.2" stroke="none" width="382.2" x="929.8" y="493.0" /><line stroke="#2f2f2f" stroke-width="2.2" x1="929.8" x2="1312.0" y1="493.0" y2="493.0" /><line stroke="#2f2f2f" stroke-width="2.2" x1="929.8" x2="1312.0" y1="602.2" y2="602.2" /><line stroke="#2f2f2f" stroke-width="2.2" x1="1312.0" x2="1312.0" y1="493.0" y2="602.2" /><line stroke="#2f2f2f" stroke-width="2.2" x1="929.8" x2="929.8" y1="493.0" y2="602.2" /><rect fill="#fbe7e6" height="218.4" stroke="none" width="109.2" x="383.8" y="220.0" /><line stroke="#2f2f2f" stroke-width="2.2" x1="383.8" x2="493.0" y1="220.0" y2="220.0" /><line stroke="#2f2f2f" stroke-width="2.2" x1="383.8" x2="493.0" y1="438.4" y2="438.4" /><line stroke="#2f2f2f" stroke-width="2.2" x1="493.0" x2="493.0" y1="220.0" y2="438.4" /><line stroke="#2f2f2f" stroke-width="2.2" x1="383.8" x2="383.8" y1="220.0" y2="438.4" /><rect fill="#e7fbfb" height="218.4" stroke="none" width="218.4" x="493.0" y="220.0" /><line stroke="#2f2f2f" stroke-width="2.2" x1="493.0" x2="711.4" y1="438.4" y2="438.4" /><line stroke="#2f2f2f" stroke-width="2.2" x1="493.0" x2="711.4" y1="220.0" y2="220.0" /><line stroke="#2f2f2f" stroke-width="2.2" x1="711.4" x2="711.4" y1="220.0" y2="438.4" /><line stroke="#2f2f2f" stroke-width="2.2" x1="493.0" x2="493.0" y1="220.0" y2="438.4" /><rect fill="#f7f3ea" fill-opacity="0.35" height="382.2" stroke="#9a9a9a" stroke-dasharray="4,3" stroke-width="0.9" width="109.2" x="1202.8" y="602.2" /><line stroke="#9c9c9c" stroke-opacity="0.7" stroke-width="0.8" x1="1202.8" x2="1222.0" y1="965.2" y2="984.4" /><line stroke="#9c9c9c" stroke-opacity="0.7" stroke-width="0.8" x1="1202.8" x2="1241.2" y1="946.0" y2="984.4" /><line stroke="#9c9c9c" stroke-opacity="0.7" stroke-width="0.8" x1="1202.8" x2="1260.4" y1="926.8" y2="984.4" /><line stroke="#9c9c9c" stroke-opacity="0.7" stroke-width="0.8" x1="1202.8" x2="1279.6" y1="907.6" y2="984.4" /><line stroke="#9c9c9c" stroke-opacity="0.7" stroke-width="0.8" x1="1202.8" x2="1298.8" y1="888.4" y2="984.4" /><line stroke="#9c9c9c" stroke-opacity="0.7" stroke-width="0.8" x1="1202.8" x2="1312.0" y1="869.2" y2="978.4" /><line stroke="#9c9c9c" stroke-opacity="0.7" stroke-width="0.8" x1="1202.8" x2="1312.0" y1="850.0" y2="959.2" /><line stroke="#9c9c9c" stroke-opacity="0.7" stroke-width="0.8" x1="1202.8" x2="1312.0" y1="830.8" y2="940.0" /><line stroke="#9c9c9c" stroke-opacity="0.7" stroke-width="0.8" x1="1202.8" x2="1312.0" y1="811.6" y2="920.8" /><line stroke="#9c9c9c" stroke-opacity="0.7" stroke-width="0.8" x1="1202.8" x2="1312.0" y1="792.4" y2="901.6" /><line stroke="#9c9c9c" stroke-opacity="0.7" stroke-width="0.8" x1="1202.8" x2="1312.0" y1="773.2" y2="882.4" /><line stroke="#9c9c9c" stroke-opacity="0.7" stroke-width="0.8" x1="1202.8" x2="1312.0" y1="754.0" y2="863.2" /><line stroke="#9c9c9c" stroke-opacity="0.7" stroke-width="0.8" x1="1202.8" x2="1312.0" y1="734.8" y2="844.0" /><line stroke="#9c9c9c" stroke-opacity="0.7" stroke-width="0.8" x1="1202.8" x2="1312.0" y1="715.6" y2="824.8" /><line stroke="#9c9c9c" stroke-opacity="0.7" stroke-width="0.8" x1="1202.8" x2="1312.0" y1="696.4" y2="805.6" /><line stroke="#9c9c9c" stroke-opacity="0.7" stroke-width="0.8" x1="1202.8" x2="1312.0" y1="677.2" y2="786.4" /><line stroke="#9c9c9c" stroke-opacity="0.7" stroke-width="0.8" x1="1202.8" x2="1312.0" y1="658.0" y2="767.2" /><line stroke="#9c9c9c" stroke-opacity="0.7" stroke-width="0.8" x1="1202.8" x2="1312.0" y1="638.8" y2="748.0" /><line stroke="#9c9c9c" stroke-opacity="0.7" stroke-width="0.8" x1="1202.8" x2="1312.0" y1="619.6" y2="728.8" /><line stroke="#9c9c9c" stroke-opacity="0.7" stroke-width="0.8" x1="1204.6" x2="1312.0" y1="602.2" y2="709.6" /><line stroke="#9c9c9c" stroke-opacity="0.7" stroke-width="0.8" x1="1223.8" x2="1312.0" y1="602.2" y2="690.4" /><line stroke="#9c9c9c" stroke-opacity="0.7" stroke-width="0.8" x1="1243.0" x2="1312.0" y1="602.2" y2="671.2" /><line stroke="#9c9c9c" stroke-opacity="0.7" stroke-width="0.8" x1="1262.2" x2="1312.0" y1="602.2" y2="652.0" /><line stroke="#9c9c9c" stroke-opacity="0.7" stroke-width="0.8" x1="1281.4" x2="1312.0" y1="602.2" y2="632.8" /><line stroke="#9c9c9c" stroke-opacity="0.7" stroke-width="0.8" x1="1300.6" x2="1312.0" y1="602.2" y2="613.6" /><rect fill="none" height="43.68" stroke="#8a6b4a" stroke-width="1.0" width="227.136" x="603.292" y="591.28" /><rect fill="none" height="96.096" stroke="#8a6b4a" stroke-width="1.0" width="39.312" x="791.116" y="591.28" /><circle cx="671.9896" cy="613.12" fill="none" r="8.4" stroke="#8a6b4a" stroke-width="0.9" /><circle cx="693.5896" cy="613.12" fill="none" r="8.4" stroke="#8a6b4a" stroke-width="0.9" /><rect fill="none" height="23.063" stroke="#8a6b4a" stroke-width="0.9" width="26.7322" x="797.0128" y="631.6403" /><rect fill="none" height="52.416" stroke="#8a6b4a" stroke-width="1.0" width="156.156" x="503.92" y="731.056" /><rect fill="none" height="129.948" stroke="#7f7f7f" stroke-width="1.1" width="214.032" x="1013.884" y="670.996" /><line stroke="#7f7f7f" stroke-width="0.9" x1="1013.884" x2="1227.916" y1="716.4778" y2="716.4778" /><rect fill="none" height="48.048" stroke="#6f6f6f" stroke-width="1.0" width="74.256" x="532.312" y="259.312" /><rect fill="none" height="48.048" stroke="#6f6f6f" stroke-width="1.0" width="74.256" x="619.672" y="259.312" /><line stroke="#8f8f8f" stroke-width="0.8" x1="523.576" x2="680.824" y1="244.912" y2="244.912" /><circle cx="685.0" cy="246.4" fill="none" r="8.4" stroke="#7c7c7c" stroke-width="0.9" /><line stroke="#7c7c7c" stroke-width="0.8" x1="674.2" x2="695.8" y1="246.4" y2="246.4" /><line stroke="#7c7c7c" stroke-width="0.8" x1="685.0" x2="685.0" y1="235.6" y2="257.2" /><rect fill="none" height="109.2" rx="6" ry="6" stroke="#6f6f6f" stroke-width="1.0" width="135.408" x="755.08" y="268.048" /><circle cx="903.4" cy="246.4" fill="none" r="8.4" stroke="#7c7c7c" stroke-width="0.9" /><line stroke="#7c7c7c" stroke-width="0.8" x1="892.6" x2="914.2" y1="246.4" y2="246.4" /><line stroke="#7c7c7c" stroke-width="0.8" x1="903.4" x2="903.4" y1="235.6" y2="257.2" /><rect fill="#ffffff" height="109.2" stroke="#202020" stroke-dasharray="8,4" stroke-width="2.6" width="163.8" x="1039.0" y="220.0" /><rect fill="#ffffff" height="109.2" stroke="#202020" stroke-dasharray="8,4" stroke-width="2.6" width="109.2" x="1202.8" y="220.0" /><rect fill="#ffffff" height="163.8" stroke="#202020" stroke-dasharray="8,4" stroke-width="2.6" width="109.2" x="1202.8" y="329.2" /><line stroke="#2a2a2a" stroke-width="1.4" x1="1062.4" x2="1062.4" y1="220.0" y2="329.2" /><line stroke="#2a2a2a" stroke-width="1.4" x1="1085.8" x2="1085.8" y1="220.0" y2="329.2" /><line stroke="#2a2a2a" stroke-width="1.4" x1="1109.2" x2="1109.2" y1="220.0" y2="329.2" /><line stroke="#2a2a2a" stroke-width="1.4" x1="1132.6" x2="1132.6" y1="220.0" y2="329.2" /><line stroke="#2a2a2a" stroke-width="1.4" x1="1156.0" x2="1156.0" y1="220.0" y2="329.2" /><line stroke="#2a2a2a" stroke-width="1.4" x1="1179.4" x2="1179.4" y1="220.0" y2="329.2" /><line stroke="#2a2a2a" stroke-width="1.4" x1="1202.8" x2="1312.0" y1="352.6" y2="352.6" /><line stroke="#2a2a2a" stroke-width="1.4" x1="1202.8" x2="1312.0" y1="376.0" y2="376.0" /><line stroke="#2a2a2a" stroke-width="1.4" x1="1202.8" x2="1312.0" y1="399.4" y2="399.4" /><line stroke="#2a2a2a" stroke-width="1.4" x1="1202.8" x2="1312.0" y1="422.8" y2="422.8" /><line stroke="#2a2a2a" stroke-width="1.4" x1="1202.8" x2="1312.0" y1="446.2" y2="446.2" /><line stroke="#2a2a2a" stroke-width="1.4" x1="1202.8" x2="1312.0" y1="469.6" y2="469.6" /><text fill="#202020" font-size="11" text-anchor="middle" x="1120.9" y="274.6">Stair (UP)</text><text fill="#3a3a3a" font-size="9.0" text-anchor="middle" x="1120.9" y="289.0">13R/12T</text><text fill="#4a4a4a" font-size="7.8" text-anchor="middle" x="1120.9" y="297.4">H2730 R210 T228</text><line stroke="#ffffff" stroke-width="7" x1="1039.0" x2="1039.0" y1="220.0" y2="329.2" /><line stroke="#5e5e5e" stroke-width="1.0" x1="1039.0" x2="1039.0" y1="220.0" y2="329.2" /><line stroke="#ffffff" stroke-width="6" x1="383.8" x2="383.8" y1="447.4" y2="538.6" /><line stroke="#ffffff" stroke-width="6" x1="598.0" x2="715.6" y1="547.6" y2="547.6" /><line stroke="#595959" stroke-width="1.2" x1="598.0" x2="674.44" y1="547.6" y2="471.16" /><path d="M 674.44,547.5999999999999 A 76.44,76.44 0 0 1 674.44,471.15999999999997" fill="none" stroke="#7a7a7a" stroke-width="1.0" /><line stroke="#ffffff" stroke-width="6" x1="392.8" x2="484.0" y1="438.4" y2="438.4" /><line stroke="#ffffff" stroke-width="6" x1="553.06" x2="651.34" y1="438.4" y2="438.4" /><line stroke="#595959" stroke-width="1.2" x1="553.06" x2="616.942" y1="438.4" y2="374.518" /><path d="M 616.942,438.4 A 63.882,63.882 0 0 1 616.942,374.51800000000003" fill="none" stroke="#7a7a7a" stroke-width="1.0" /><line stroke="#ffffff" stroke-width="6" x1="711.4" x2="711.4" y1="280.06" y2="378.34" /><line stroke="#595959" stroke-width="1.2" x1="711.4" x2="647.518" y1="280.06" y2="343.942" /><path d="M 711.4,343.942 A 63.882,63.882 0 0 1 647.518,343.942" fill="none" stroke="#7a7a7a" stroke-width="1.0" /><line stroke="#ffffff" stroke-width="6" x1="929.8" x2="929.8" y1="734.5" y2="852.1" /><line stroke="#595959" stroke-width="1.2" x1="929.8" x2="1006.24" y1="734.5" y2="810.94" /><path d="M 929.8,810.9399999999999 A 76.44,76.44 0 0 1 1006.24,810.9399999999999" fill="none" stroke="#7a7a7a" stroke-width="1.0" /><line stroke="#ffffff" stroke-width="6" x1="929.8" x2="929.8" y1="529.3" y2="620.5" /><line stroke="#ffffff" stroke-width="7" x1="220.0" x2="220.0" y1="325.0" y2="442.6" /><line stroke="#595959" stroke-width="1.2" x1="220.0" x2="296.44" y1="325.0" y2="401.44" /><path d="M 220.0,401.44 A 76.44,76.44 0 0 1 296.44,401.44" fill="none" stroke="#7a7a7a" stroke-width="1.0" /><line stroke="#66a7ff" stroke-width="2.2" x1="247.3" x2="356.5" y1="217.36" y2="217.36" /><line stroke="#66a7ff" stroke-width="2.2" x1="247.3" x2="356.5" y1="222.64" y2="222.64" /><line stroke="#66a7ff" stroke-width="2.2" x1="217.36" x2="217.36" y1="595.684" y2="744.124" /><line stroke="#66a7ff" stroke-width="2.2" x1="222.64" x2="222.64" y1="595.684" y2="744.124" /><line stroke="#66a7ff" stroke-width="2.2" x1="217.36" x2="217.36" y1="787.876" y2="936.316" /><line stroke="#66a7ff" stroke-width="2.2" x1="222.64" x2="222.64" y1="787.876" y2="936.316" /><line stroke="#66a7ff" stroke-width="2.2" x1="322.744" x2="514.744" y1="981.76" y2="981.76" /><line stroke="#66a7ff" stroke-width="2.2" x1="322.744" x2="514.744" y1="987.04" y2="987.04" /><line stroke="#66a7ff" stroke-width="2.2" x1="635.056" x2="827.056" y1="981.76" y2="981.76" /><line stroke="#66a7ff" stroke-width="2.2" x1="635.056" x2="827.056" y1="987.04" y2="987.04" /><line stroke="#66a7ff" stroke-width="2.2" x1="1011.7" x2="1120.9" y1="981.76" y2="981.76" /><line stroke="#66a7ff" stroke-width="2.2" x1="1011.7" x2="1120.9" y1="987.04" y2="987.04" /><line stroke="#9a9a9a" stroke-width="0.8" x1="938.2" x2="1194.4" y1="337.6" y2="337.6" /><line stroke="#9a9a9a" stroke-width="0.8" x1="938.2" x2="938.2" y1="334.24" y2="340.96" /><line stroke="#9a9a9a" stroke-width="0.8" x1="1194.4" x2="1194.4" y1="334.24" y2="340.96" /><text fill="#8a8a8a" font-size="7.6" text-anchor="start" x="944.92" y="334.96">2275mm</text><line stroke="#9a9a9a" stroke-width="0.8" x1="938.2" x2="938.2" y1="337.6" y2="484.6" /><line stroke="#9a9a9a" stroke-width="0.8" x1="934.84" x2="941.56" y1="337.6" y2="337.6" /><line stroke="#9a9a9a" stroke-width="0.8" x1="934.84" x2="941.56" y1="484.6" y2="484.6" /><text fill="#8a8a8a" font-size="7.6" text-anchor="start" x="942.28" y="345.28">1365mm</text><text fill="#1b1b1b" font-size="10" text-anchor="middle" x="820.6" y="314.8">Bath 1</text><text fill="#1b1b1b" font-size="10" text-anchor="middle" x="820.6" y="325.6">1820x1820mm</text><text fill="#1b1b1b" font-size="10" text-anchor="middle" x="820.6" y="336.4">3.3sqm / 2.0jo</text><text fill="#1b1b1b" font-size="10" text-anchor="middle" x="1120.9" y="778.9">Bedroom 1</text><text fill="#1b1b1b" font-size="10" text-anchor="middle" x="1120.9" y="789.6999999999999">3185x3185mm</text><text fill="#1b1b1b" font-size="10" text-anchor="middle" x="1120.9" y="800.5">10.1sqm / 6.3jo</text><text fill="#1b1b1b" font-size="10" text-anchor="middle" x="301.9" y="369.4">Entry</text><text fill="#1b1b1b" font-size="10" text-anchor="middle" x="301.9" y="380.2">1365x2730mm</text><text fill="#1b1b1b" font-size="10" text-anchor="middle" x="301.9" y="391.0">3.7sqm / 2.3jo</text><text fill="#1b1b1b" font-size="9" text-anchor="middle" x="847.9" y="424.7">Hall 1</text><text fill="#1b1b1b" font-size="9" text-anchor="middle" x="847.9" y="435.5">8.1sqm / 5.0jo</text><text fill="#1b1b1b" font-size="10" text-anchor="middle" x="574.9" y="751.6">Ldk</text><text fill="#1b1b1b" font-size="10" text-anchor="middle" x="574.9" y="762.4">5915x3640mm</text><text fill="#1b1b1b" font-size="10" text-anchor="middle" x="574.9" y="773.1999999999999">21.5sqm / 13.3jo</text><text fill="#1b1b1b" font-size="10" text-anchor="middle" x="1120.9" y="533.2">Pantry 1</text><text fill="#1b1b1b" font-size="10" text-anchor="middle" x="1120.9" y="544.0">3185x910mm</text><text fill="#1b1b1b" font-size="10" text-anchor="middle" x="1120.9" y="554.8">2.9sqm / 1.8jo</text><text fill="#1b1b1b" font-size="10" text-anchor="middle" x="438.4" y="314.8">Toilet 1</text><text fill="#1b1b1b" font-size="10" text-anchor="middle" x="438.4" y="325.6">910x1820mm</text><text fill="#1b1b1b" font-size="10" text-anchor="middle" x="438.4" y="336.4">1.7sqm / 1.0jo</text><text fill="#1b1b1b" font-size="10" text-anchor="middle" x="602.2" y="314.8">Wash 1</text><text fill="#1b1b1b" font-size="10" text-anchor="middle" x="602.2" y="325.6">1820x1820mm</text><text fill="#1b1b1b" font-size="10" text-anchor="middle" x="602.2" y="336.4">3.3sqm / 2.0jo</text><text fill="#4a4a4a" font-size="10" text-anchor="middle" x="1257.3999999999999" y="793.3">CL</text><text fill="#111111" font-size="14" x="220.0" y="180.0">F1 Plan  (9100 x 6370 mm)</text><text fill="#444444" font-size="10" x="220.0" y="198.0">Scale: 1px=8.3mm</text><rect fill="#ffffff" height="216" stroke="#777777" stroke-width="1" width="170" x="1400.0" y="150.0" /><text fill="#111111" font-size="11" x="1408.0" y="164.0">Legend</text><rect fill="#f8f0d9" height="12" stroke="#333333" stroke-width="1" width="12" x="1408.0" y="174.0" /><text fill="#222222" font-size="10" x="1426.0" y="184.0">Entry</text><rect fill="#efe9ff" height="12" stroke="#333333" stroke-width="1" width="12" x="1408.0" y="192.0" /><text fill="#222222" font-size="10" x="1426.0" y="202.0">Hall</text><rect fill="#ffe2b8" height="12" stroke="#333333" stroke-width="1" width="12" x="1408.0" y="210.0" /><text fill="#222222" font-size="10" x="1426.0" y="220.0">Ldk</text><rect fill="#d9f2ff" height="12" stroke="#333333" stroke-width="1" width="12" x="1408.0" y="228.0" /><text fill="#222222" font-size="10" x="1426.0" y="238.0">Bedroom</text><rect fill="#fbe7e6" height="12" stroke="#333333" stroke-width="1" width="12" x="1408.0" y="246.0" /><text fill="#222222" font-size="10" x="1426.0" y="256.0">Toilet</text><rect fill="#e7fbfb" height="12" stroke="#333333" stroke-width="1" width="12" x="1408.0" y="264.0" /><text fill="#222222" font-size="10" x="1426.0" y="274.0">Washroom</text><rect fill="#dcecff" height="12" stroke="#333333" stroke-width="1" width="12" x="1408.0" y="282.0" /><text fill="#222222" font-size="10" x="1426.0" y="292.0">Bath</text><rect fill="#f7f3ea" height="12" stroke="#333333" stroke-width="1" width="12" x="1408.0" y="300.0" /><text fill="#222222" font-size="10" x="1426.0" y="310.0">Closet</text><rect fill="#f0f0f0" height="12" stroke="#333333" stroke-width="1" width="12" x="1408.0" y="318.0" /><text fill="#222222" font-size="10" x="1426.0" y="328.0">Storage</text><line stroke="#6aa4ff" stroke-width="4" x1="1408.0" x2="1435.0" y1="348.0" y2="348.0" /><text fill="#222222" font-size="10" x="1442.0" y="351.0">Window</text><line stroke="#666666" stroke-width="2.4" x1="1408.0" x2="1435.0" y1="364.0" y2="364.0" /><path d="M 1408.0,364.0 A 10,10 0 0 1 1418.0,354.0" fill="none" stroke="#666666" stroke-width="1.2" /><text fill="#222222" font-size="10" x="1442.0" y="367.0">Door</text><rect fill="#ffffff" height="84" stroke="#777777" stroke-width="1" width="200" x="1400.0" y="520.0" /><text fill="#111111" font-size="10" x="1408.0" y="533.0">Area (F1)</text><text fill="#222222" font-size="9" x="1408.0" y="550.0">F1: in 58.0 sqm (17.5 tsubo), out 0.0 sqm (0.0 tsubo)</text><text fill="#222222" font-size="9" x="1408.0" y="566.0">F2: in 58.0 sqm (17.5 tsubo), out 0.0 sqm (0.0 tsubo)</text><text fill="#222222" font-size="9" x="1408.0" y="582.0">Total indoor: 115.9 sqm (35.1 tsubo)</text><text fill="#222222" font-size="9" x="1408.0" y="598.0">Total outdoor: 0.0 sqm (0.0 tsubo)</text><line stroke="#111111" stroke-width="2" x1="175.0" x2="175.0" y1="238.0" y2="208.0" /><polygon fill="#111111" points="175.0,208.0 181.0,214.0 169.0,214.0" /><text fill="#111111" font-size="12" x="170.0" y="202.0">N</text><line stroke="#545454" stroke-width="1.0" x1="220.0" x2="1312.0" y1="148.0" y2="148.0" /><line stroke="#545454" stroke-width="0.8" x1="220.0" x2="220.0" y1="220.0" y2="148.0" /><line stroke="#545454" stroke-width="1.0" x1="220.0" x2="220.0" y1="145.0" y2="151.0" /><line stroke="#545454" stroke-width="0.8" x1="1312.0" x2="1312.0" y1="220.0" y2="148.0" /><line stroke="#545454" stroke-width="1.0" x1="1312.0" x2="1312.0" y1="145.0" y2="151.0" /><text fill="#545454" font-size="8.8" text-anchor="middle" x="766.0" y="145.0">9100mm</text><line stroke="#666666" stroke-width="1.0" x1="220.0" x2="1312.0" y1="166.0" y2="166.0" /><line stroke="#666666" stroke-width="0.8" x1="220.0" x2="220.0" y1="220.0" y2="166.0" /><line stroke="#666666" stroke-width="1.0" x1="220.0" x2="220.0" y1="163.0" y2="169.0" /><line stroke="#666666" stroke-width="0.8" x1="383.8" x2="383.8" y1="220.0" y2="166.0" /><line stroke="#666666" stroke-width="1.0" x1="383.8" x2="383.8" y1="163.0" y2="169.0" /><line stroke="#666666" stroke-width="0.8" x1="493.0" x2="493.0" y1="220.0" y2="166.0" /><line stroke="#666666" stroke-width="1.0" x1="493.0" x2="493.0" y1="163.0" y2="169.0" /><line stroke="#666666" stroke-width="0.8" x1="711.4" x2="711.4" y1="220.0" y2="166.0" /><line stroke="#666666" stroke-width="1.0" x1="711.4" x2="711.4" y1="163.0" y2="169.0" /><line stroke="#666666" stroke-width="0.8" x1="929.8" x2="929.8" y1="220.0" y2="166.0" /><line stroke="#666666" stroke-width="1.0" x1="929.8" x2="929.8" y1="163.0" y2="169.0" /><line stroke="#666666" stroke-width="0.8" x1="1039.0" x2="1039.0" y1="220.0" y2="166.0" /><line stroke="#666666" stroke-width="1.0" x1="1039.0" x2="1039.0" y1="163.0" y2="169.0" /><line stroke="#666666" stroke-width="0.8" x1="1202.8" x2="1202.8" y1="220.0" y2="166.0" /><line stroke="#666666" stroke-width="1.0" x1="1202.8" x2="1202.8" y1="163.0" y2="169.0" /><line stroke="#666666" stroke-width="0.8" x1="1312.0" x2="1312.0" y1="220.0" y2="166.0" /><line stroke="#666666" stroke-width="1.0" x1="1312.0" x2="1312.0" y1="163.0" y2="169.0" /><text fill="#666666" font-size="8.2" text-anchor="middle" x="301.9" y="163.0">1365</text><text fill="#666666" font-size="8.2" text-anchor="middle" x="438.4" y="163.0">910</text><text fill="#666666" font-size="8.2" text-anchor="middle" x="602.2" y="163.0">1820</text><text fill="#666666" font-size="8.2" text-anchor="middle" x="820.6" y="163.0">1820</text><text fill="#666666" font-size="8.2" text-anchor="middle" x="984.4" y="163.0">910</text><text fill="#666666" font-size="8.2" text-anchor="middle" x="1120.9" y="163.0">1365</text><text fill="#666666" font-size="8.2" text-anchor="middle" x="1257.3999999999999" y="163.0">910</text><line stroke="#7a7a7a" stroke-width="1.0" x1="220.0" x2="1312.0" y1="184.0" y2="184.0" /><line stroke="#7a7a7a" stroke-width="0.8" x1="220.0" x2="220.0" y1="220.0" y2="184.0" /><line stroke="#7a7a7a" stroke-width="1.0" x1="220.0" x2="220.0" y1="181.0" y2="187.0" /><line stroke="#7a7a7a" stroke-width="0.8" x1="274.6" x2="274.6" y1="220.0" y2="184.0" /><line stroke="#7a7a7a" stroke-width="1.0" x1="274.6" x2="274.6" y1="181.0" y2="187.0" /><line stroke="#7a7a7a" stroke-width="0.8" x1="383.8" x2="383.8" y1="220.0" y2="184.0" /><line stroke="#7a7a7a" stroke-width="1.0" x1="383.8" x2="383.8" y1="181.0" y2="187.0" /><line stroke="#7a7a7a" stroke-width="0.8" x1="1312.0" x2="1312.0" y1="220.0" y2="184.0" /><line stroke="#7a7a7a" stroke-width="1.0" x1="1312.0" x2="1312.0" y1="181.0" y2="187.0" /><text fill="#7a7a7a" font-size="7.8" text-anchor="middle" x="329.2" y="181.0">910</text><text fill="#7a7a7a" font-size="7.8" text-anchor="middle" x="847.9" y="181.0">7735</text><line stroke="#545454" stroke-width="1.0" x1="220.0" x2="1312.0" y1="1056.4" y2="1056.4" /><line stroke="#545454" stroke-width="0.8" x1="220.0" x2="220.0" y1="984.4" y2="1056.4" /><line stroke="#545454" stroke-width="1.0" x1="220.0" x2="220.0" y1="1053.4" y2="1059.4" /><line stroke="#545454" stroke-width="0.8" x1="1312.0" x2="1312.0" y1="984.4" y2="1056.4" /><line stroke="#545454" stroke-width="1.0" x1="1312.0" x2="1312.0" y1="1053.4" y2="1059.4" /><text fill="#545454" font-size="8.8" text-anchor="middle" x="766.0" y="1066.4">9100mm</text><line stroke="#666666" stroke-width="1.0" x1="220.0" x2="1312.0" y1="1038.4" y2="1038.4" /><line stroke="#666666" stroke-width="0.8" x1="220.0" x2="220.0" y1="984.4" y2="1038.4" /><line stroke="#666666" stroke-width="1.0" x1="220.0" x2="220.0" y1="1035.4" y2="1041.4" /><line stroke="#666666" stroke-width="0.8" x1="929.8" x2="929.8" y1="984.4" y2="1038.4" /><line stroke="#666666" stroke-width="1.0" x1="929.8" x2="929.8" y1="1035.4" y2="1041.4" /><line stroke="#666666" stroke-width="0.8" x1="1312.0" x2="1312.0" y1="984.4" y2="1038.4" /><line stroke="#666666" stroke-width="1.0" x1="1312.0" x2="1312.0" y1="1035.4" y2="1041.4" /><text fill="#666666" font-size="8.2" text-anchor="middle" x="574.9" y="1048.4">5915</text><text fill="#666666" font-size="8.2" text-anchor="middle" x="1120.9" y="1048.4">3185</text><line stroke="#7a7a7a" stroke-width="1.0" x1="220.0" x2="1312.0" y1="1020.4" y2="1020.4" /><line stroke="#7a7a7a" stroke-width="0.8" x1="220.0" x2="220.0" y1="984.4" y2="1020.4" /><line stroke="#7a7a7a" stroke-width="1.0" x1="220.0" x2="220.0" y1="1017.4" y2="1023.4" /><line stroke="#7a7a7a" stroke-width="0.8" x1="329.2" x2="329.2" y1="984.4" y2="1020.4" /><line stroke="#7a7a7a" stroke-width="1.0" x1="329.2" x2="329.2" y1="1017.4" y2="1023.4" /><line stroke="#7a7a7a" stroke-width="0.8" x1="493.0" x2="493.0" y1="984.4" y2="1020.4" /><line stroke="#7a7a7a" stroke-width="1.0" x1="493.0" x2="493.0" y1="1017.4" y2="1023.4" /><line stroke="#7a7a7a" stroke-width="0.8" x1="656.8" x2="656.8" y1="984.4" y2="1020.4" /><line stroke="#7a7a7a" stroke-width="1.0" x1="656.8" x2="656.8" y1="1017.4" y2="1023.4" /><line stroke="#7a7a7a" stroke-width="0.8" x1="820.6" x2="820.6" y1="984.4" y2="1020.4" /><line stroke="#7a7a7a" stroke-width="1.0" x1="820.6" x2="820.6" y1="1017.4" y2="1023.4" /><line stroke="#7a7a7a" stroke-width="0.8" x1="1039.0" x2="1039.0" y1="984.4" y2="1020.4" /><line stroke="#7a7a7a" stroke-width="1.0" x1="1039.0" x2="1039.0" y1="1017.4" y2="1023.4" /><line stroke="#7a7a7a" stroke-width="0.8" x1="1148.2" x2="1148.2" y1="984.4" y2="1020.4" /><line stroke="#7a7a7a" stroke-width="1.0" x1="1148.2" x2="1148.2" y1="1017.4" y2="1023.4" /><line stroke="#7a7a7a" stroke-width="0.8" x1="1312.0" x2="1312.0" y1="984.4" y2="1020.4" /><line stroke="#7a7a7a" stroke-width="1.0" x1="1312.0" x2="1312.0" y1="1017.4" y2="1023.4" /><text fill="#7a7a7a" font-size="7.8" text-anchor="middle" x="274.6" y="1030.4">910</text><text fill="#7a7a7a" font-size="7.8" text-anchor="middle" x="411.1" y="1030.4">1365</text><text fill="#7a7a7a" font-size="7.8" text-anchor="middle" x="574.9" y="1030.4">1365</text><text fill="#7a7a7a" font-size="7.8" text-anchor="middle" x="738.6999999999999" y="1030.4">1365</text><text fill="#7a7a7a" font-size="7.8" text-anchor="middle" x="929.8" y="1030.4">1820</text><text fill="#7a7a7a" font-size="7.8" text-anchor="middle" x="1093.6" y="1030.4">910</text><text fill="#7a7a7a" font-size="7.8" text-anchor="middle" x="1230.1" y="1030.4">1365</text><line stroke="#545454" stroke-width="1.0" x1="148.0" x2="148.0" y1="220.0" y2="984.4" /><line stroke="#545454" stroke-width="0.8" x1="220.0" x2="148.0" y1="220.0" y2="220.0" /><line stroke="#545454" stroke-width="1.0" x1="145.0" x2="151.0" y1="220.0" y2="220.0" /><line stroke="#545454" stroke-width="0.8" x1="220.0" x2="148.0" y1="984.4" y2="984.4" /><line stroke="#545454" stroke-width="1.0" x1="145.0" x2="151.0" y1="984.4" y2="984.4" /><text fill="#545454" font-size="8.8" x="144.0" y="602.2">6370mm</text><line stroke="#666666" stroke-width="1.0" x1="166.0" x2="166.0" y1="220.0" y2="984.4" /><line stroke="#666666" stroke-width="0.8" x1="220.0" x2="166.0" y1="220.0" y2="220.0" /><line stroke="#666666" stroke-width="1.0" x1="163.0" x2="169.0" y1="220.0" y2="220.0" /><line stroke="#666666" stroke-width="0.8" x1="220.0" x2="166.0" y1="547.6" y2="547.6" /><line stroke="#666666" stroke-width="1.0" x1="163.0" x2="169.0" y1="547.6" y2="547.6" /><line stroke="#666666" stroke-width="0.8" x1="220.0" x2="166.0" y1="984.4" y2="984.4" /><line stroke="#666666" stroke-width="1.0" x1="163.0" x2="169.0" y1="984.4" y2="984.4" /><text fill="#666666" font-size="8.2" x="162.0" y="383.79999999999995">2730</text><text fill="#666666" font-size="8.2" x="162.0" y="766.0">3640</text><line stroke="#7a7a7a" stroke-width="1.0" x1="184.0" x2="184.0" y1="220.0" y2="984.4" /><line stroke="#7a7a7a" stroke-width="0.8" x1="220.0" x2="184.0" y1="220.0" y2="220.0" /><line stroke="#7a7a7a" stroke-width="1.0" x1="181.0" x2="187.0" y1="220.0" y2="220.0" /><line stroke="#7a7a7a" stroke-width="0.8" x1="220.0" x2="184.0" y1="329.2" y2="329.2" /><line stroke="#7a7a7a" stroke-width="1.0" x1="181.0" x2="187.0" y1="329.2" y2="329.2" /><line stroke="#7a7a7a" stroke-width="0.8" x1="220.0" x2="184.0" y1="438.4" y2="438.4" /><line stroke="#7a7a7a" stroke-width="1.0" x1="181.0" x2="187.0" y1="438.4" y2="438.4" /><line stroke="#7a7a7a" stroke-width="0.8" x1="220.0" x2="184.0" y1="602.2" y2="602.2" /><line stroke="#7a7a7a" stroke-width="1.0" x1="181.0" x2="187.0" y1="602.2" y2="602.2" /><line stroke="#7a7a7a" stroke-width="0.8" x1="220.0" x2="184.0" y1="766.0" y2="766.0" /><line stroke="#7a7a7a" stroke-width="1.0" x1="181.0" x2="187.0" y1="766.0" y2="766.0" /><line stroke="#7a7a7a" stroke-width="0.8" x1="220.0" x2="184.0" y1="929.8" y2="929.8" /><line stroke="#7a7a7a" stroke-width="1.0" x1="181.0" x2="187.0" y1="929.8" y2="929.8" /><line stroke="#7a7a7a" stroke-width="0.8" x1="220.0" x2="184.0" y1="984.4" y2="984.4" /><line stroke="#7a7a7a" stroke-width="1.0" x1="181.0" x2="187.0" y1="984.4" y2="984.4" /><text fill="#7a7a7a" font-size="7.8" x="180.0" y="274.6">910</text><text fill="#7a7a7a" font-size="7.8" x="180.0" y="383.79999999999995">910</text><text fill="#7a7a7a" font-size="7.8" x="180.0" y="520.3">1365</text><text fill="#7a7a7a" font-size="7.8" x="180.0" y="684.0999999999999">1365</text><text fill="#7a7a7a" font-size="7.8" x="180.0" y="847.9">1365</text><line stroke="#545454" stroke-width="1.0" x1="1384.0" x2="1384.0" y1="220.0" y2="984.4" /><line stroke="#545454" stroke-width="0.8" x1="1312.0" x2="1384.0" y1="220.0" y2="220.0" /><line stroke="#545454" stroke-width="1.0" x1="1381.0" x2="1387.0" y1="220.0" y2="220.0" /><line stroke="#545454" stroke-width="0.8" x1="1312.0" x2="1384.0" y1="984.4" y2="984.4" /><line stroke="#545454" stroke-width="1.0" x1="1381.0" x2="1387.0" y1="984.4" y2="984.4" /><text fill="#545454" font-size="8.8" x="1389.0" y="602.2">6370mm</text><line stroke="#666666" stroke-width="1.0" x1="1366.0" x2="1366.0" y1="220.0" y2="984.4" /><line stroke="#666666" stroke-width="0.8" x1="1312.0" x2="1366.0" y1="220.0" y2="220.0" /><line stroke="#666666" stroke-width="1.0" x1="1363.0" x2="1369.0" y1="220.0" y2="220.0" /><line stroke="#666666" stroke-width="0.8" x1="1312.0" x2="1366.0" y1="329.2" y2="329.2" /><line stroke="#666666" stroke-width="1.0" x1="1363.0" x2="1369.0" y1="329.2" y2="329.2" /><line stroke="#666666" stroke-width="0.8" x1="1312.0" x2="1366.0" y1="493.0" y2="493.0" /><line stroke="#666666" stroke-width="1.0" x1="1363.0" x2="1369.0" y1="493.0" y2="493.0" /><line stroke="#666666" stroke-width="0.8" x1="1312.0" x2="1366.0" y1="602.2" y2="602.2" /><line stroke="#666666" stroke-width="1.0" x1="1363.0" x2="1369.0" y1="602.2" y2="602.2" /><line stroke="#666666" stroke-width="0.8" x1="1312.0" x2="1366.0" y1="984.4" y2="984.4" /><line stroke="#666666" stroke-width="1.0" x1="1363.0" x2="1369.0" y1="984.4" y2="984.4" /><text fill="#666666" font-size="8.2" x="1371.0" y="274.6">910</text><text fill="#666666" font-size="8.2" x="1371.0" y="411.1">1365</text><text fill="#666666" font-size="8.2" x="1371.0" y="547.5999999999999">910</text><text fill="#666666" font-size="8.2" x="1371.0" y="793.3">3185</text></svg>