<?xml version="1.0" encoding="utf-8" ?>
<svg baseProfile="tiny" height="1204.4px" version="1.2" width="1532.0px" xmlns="http://www.w3.org/2000/svg" xmlns:ev="http://www.w3.org/2001/xml-events" xmlns:xlink="http://www.w3.org/1999/xlink"><defs /><rect fill="#fafafa" height="1204.4" width="1532.0" x="0" y="0" /><line stroke="#ececec" stroke-width="0.7" x1="220.0" x2="220.0" y1="220.0" y2="984.4" /><line stroke="#ececec" stroke-width="0.7" x1="274.6" x2="274.6" y1="220.0" y2="984.4" /><line stroke="#ececec" stroke-width="0.7" x1="329.2" x2="329.2" y1="220.0" y2="984.4" /><line stroke="#ececec" stroke-width="0.7" x1="383.8" x2="383.8" y1="220.0" y2="984.4" /><line stroke="#ececec" stroke-width="0.7" x1="438.4" x2="438.4" y1="220.0" y2="984.4" /><line stroke="#ececec" stroke-width="0.7" x1="493.0" x2="493.0" y1="220.0" y2="984.4" /><line stroke="#ececec" stroke-width="0.7" x1="547.6" x2="547.6" y1="220.0" y2="984.4" /><line stroke="#ececec" stroke-width="0.7" x1="602.2" x2="602.2" y1="220.0" y2="984.4" /><line stroke="#ececec" stroke-width="0.7" x1="656.8" x2="656.8" y1="220.0" y2="984.4" /><line stroke="#ececec" stroke-width="0.7" x1="711.4" x2="711.4" y1="220.0" y2="984.4" /><line stroke="#ececec" stroke-width="0.7" x1="766.0" x2="766.0" y1="220.0" y2="984.4" /><line stroke="#ececec" stroke-width="0.7" x1="820.6" x2="820.6" y1="220.0" y2="984.4" /><line stroke="#ececec" stroke-width="0.7" x1="875.2" x2="875.2" y1="220.0" y2="984.4" /><line stroke="#ececec" stroke-width="0.7" x1="929.8" x2="929.8" y1="220.0" y2="984.4" /><line stroke="#ececec" stroke-width="0.7" x1="984.4" x2="984.4" y1="220.0" y2="984.4" /><line stroke="#ececec" stroke-width="0.7" x1="1039.0" x2="1039.0" y1="220.0" y2="984.4" /><line stroke="#ececec" stroke-width="0.7" x1="1093.6" x2="1093.6" y1="220.0" y2="984.4" /><line stroke="#ececec" stroke-width="0.7" x1="1148.2" x2="1148.2" y1="220.0" y2="984.4" /><line stroke="#ececec" stroke-width="0.7" x1="1202.8" x2="1202.8" y1="220.0" y2="984.4" /><line stroke="#ececec" stroke-width="0.7" x1="1257.4" x2="1257.4" y1="220.0" y2="984.4" /><line stroke="#ececec" stroke-width="0.7" x1="1312.0" x2="1312.0" y1="220.0" y2="984.4" /><line stroke="#d1d1d1" stroke-width="1.1" x1="220.0" x2="220.0" y1="220.0" y2="984.4" /><line stroke="#d1d1d1" stroke-width="1.1" x1="329.2" x2="329.2" y1="220.0" y2="984.4" /><line stroke="#d1d1d1" stroke-width="1.1" x1="438.4" x2="438.4" y1="220.0" y2="984.4" /><line stroke="#d1d1d1" stroke-width="1.1" x1="547.6" x2="547.6" y1="220.0" y2="984.4" /><line stroke="#d1d1d1" stroke-width="1.1" x1="656.8" x2="656.8" y1="220.0" y2="984.4" /><line stroke="#d1d1d1" stroke-width="1.1" x1="766.0" x2="766.0" y1="220.0" y2="984.4" /><line stroke="#d1d1d1" stroke-width="1.1" x1="875.2" x2="875.2" y1="220.0" y2="984.4" /><line stroke="#d1d1d1" stroke-width="1.1" x1="984.4" x2="984.4" y1="220.0" y2="984.4" /><line stroke="#d1d1d1" stroke-width="1.1" x1="1093.6" x2="1093.6" y1="220.0" y2="984.4" /><line stroke="#d1d1d1" stroke-width="1.1" x1="1202.8" x2="1202.8" y1="220.0" y2="984.4" /><line stroke="#d1d1d1" stroke-width="1.1" x1="1312.0" x2="1312.0" y1="220.0" y2="984.4" /><line stroke="#d1d1d1" stroke-width="1.1" x1="220.0" x2="1312.0" y1="220.0" y2="220.0" /><line stroke="#d1d1d1" stroke-width="1.1" x1="220.0" x2="1312.0" y1="329.2" y2="329.2" /><line stroke="#d1d1d1" stroke-width="1.1" x1="220.0" x2="1312.0" y1="438.4" y2="438.4" /><line stroke="#d1d1d1" stroke-width="1.1" x1="220.0" x2="1312.0" y1="547.6" y2="547.6" /><line stroke="#d1d1d1" stroke-width="1.1" x1="220.0" x2="1312.0" y1="656.8" y2="656.8" /><line stroke="#d1d1d1" stroke-width="1.1" x1="220.0" x2="1312.0" y1="766.0" y2="766.0" /><line stroke="#d1d1d1" stroke-width="1.1" x1="220.0" x2="1312.0" y1="875.2" y2="875.2" /><line stroke="#d1d1d1" stroke-width="1.1" x1="220.0" x2="1312.0" y1="984.4" y2="984.4" /><line stroke="#ececec" stroke-width="0.7" x1="220.0" x2="1312.0" y1="220.0" y2="220.0" /><line stroke="#ececec" stroke-width="0.7" x1="220.0" x2="1312.0" y1="274.6" y2="274.6" /><line stroke="#ececec" stroke-width="0.7" x1="220.0" x2="1312.0" y1="329.2" y2="329.2" /><line stroke="#ececec" stroke-width="0.7" x1="220.0" x2="1312.0" y1="383.8" y2="383.8" /><line stroke="#ececec" stroke-width="0.7" x1="220.0" x2="1312.0" y1="438.4" y2="438.4" /><line stroke="#ececec" stroke-width="0.7" x1="220.0" x2="1312.0" y1="493.0" y2="493.0" /><line stroke="#ececec" stroke-width="0.7" x1="220.0" x2="1312.0" y1="547.6" y2="547.6" /><line stroke="#ececec" stroke-width="0.7" x1="220.0" x2="1312.0" y1="602.2" y2="602.2" /><line stroke="#ececec" stroke-width="0.7" x1="220.0" x2="1312.0" y1="656.8" y2="656.8" /><line stroke="#ececec" stroke-width="0.7" x1="220.0" x2="1312.0" y1="711.4" y2="711.4" /><line stroke="#ececec" stroke-width="0.7" x1="220.0" x2="1312.0" y1="766.0" y2="766.0" /><line stroke="#ececec" stroke-width="0.7" x1="220.0" x2="1312.0" y1="820.6" y2="820.6" /><line stroke="#ececec" stroke-width="0.7" x1="220.0" x2="1312.0" y1="875.2" y2="875.2" /><line stroke="#ececec" stroke-width="0.7" x1="220.0" x2="1312.0" y1="929.8" y2="929.8" /><line stroke="#ececec" stroke-width="0.7" x1="220.0" x2="1312.0" y1="984.4" y2="984.4" /><rect fill="none" height="764.4" stroke="#6a6a6a" stroke-dasharray="8,4" stroke-width="2" width="1092.0" x="220.0" y="220.0" /><rect fill="none" height="764.4" stroke="#1f1f1f" stroke-width="3.5" width="1092.0" x="220.0" y="220.0" /><text fill="#555555" font-size="10" x="222.0" y="160.0">Site Envelope = Building Footprint</text><rect fill="#d9f2ff" height="436.8" stroke="none" width="436.8" x="875.2" y="547.6" /><line stroke="#2f2f2f" stroke-width="2.2" x1="875.2" x2="1312.0" y1="547.6" y2="547.6" /><line stroke="#2f2f2f" stroke-width="2.2" x1="875.2" x2="1312.0" y1="984.4" y2="984.4" /><line stroke="#2f2f2f" stroke-width="2.2" x1="875.2" x2="875.2" y1="547.6" y2="984.4" /><line stroke="#2f2f2f" stroke-width="2.2" x1="1312.0" x2="1312.0" y1="547.6" y2="984.4" /><rect fill="#d9f2ff" height="327.6" stroke="none" width="709.8" x="602.2" y="220.0" /><line stroke="#2f2f2f" stroke-width="2.2" x1="602.2" x2="1312.0" y1="547.6" y2="547.6" /><line stroke="#2f2f2f" stroke-width="2.2" x1="602.2" x2="1312.0" y1="220.0" y2="220.0" /><line stroke="#2f2f2f" stroke-width="2.2" x1="1312.0" x2="1312.0" y1="220.0" y2="547.6" /><line stroke="#2f2f2f" stroke-width="2.2" x1="602.2" x2="602.2" y1="220.0" y2="547.6" /><rect fill="#efe9ff" height="109.2" stroke="none" width="273.0" x="602.2" y="547.6" /><rect fill="#efe9ff" height="163.8" stroke="none" width="109.2" x="493.0" y="493.0" /><rect fill="#efe9ff" height="327.6" stroke="none" width="163.8" x="329.2" y="329.2" /><line stroke="#2f2f2f" stroke-width="2.2" x1="329.2" x2="493.0" y1="329.2" y2="329.2" /><line stroke="#2f2f2f" stroke-width="2.2" x1="329.2" x2="875.2" y1="656.8" y2="656.8" /><line stroke="#2f2f2f" stroke-width="2.2" x1="602.2" x2="875.2" y1="547.6" y2="547.6" /><line stroke="#2f2f2f" stroke-width="2.2" x1="493.0" x2="602.2" y1="493.0" y2="493.0" /><line stroke="#2f2f2f" stroke-width="2.2" x1="329.2" x2="329.2" y1="329.2" y2="656.8" /><line stroke="#2f2f2f" stroke-width="2.2" x1="493.0" x2="493.0" y1="329.2" y2="493.0" /><line stroke="#2f2f2f" stroke-width="2.2" x1="875.2" x2="875.2" y1="547.6" y2="656.8" /><line stroke="#2f2f2f" stroke-width="2.2" x1="602.2" x2="602.2" y1="493.0" y2="547.6" /><rect fill="#c5e8ff" height="327.6" stroke="none" width="655.2" x="220.0" y="656.8" /><line stroke="#2f2f2f" stroke-width="2.2" x1="220.0" x2="875.2" y1="984.4" y2="984.4" /><line stroke="#2f2f2f" stroke-width="2.2" x1="220.0" x2="875.2" y1="656.8" y2="656.8" /><line stroke="#2f2f2f" stroke-width="2.2" x1="875.2" x2="875.2" y1="656.8" y2="984.4" /><line stroke="#2f2f2f" stroke-width="2.2" x1="220.0" x2="220.0" y1="656.8" y2="984.4" /><rect fill="#f0f0f0" height="436.8" stroke="none" width="109.2" x="220.0" y="220.0" /><line stroke="#2f2f2f" stroke-width="2.2" x1="220.0" x2="329.2" y1="220.0" y2="220.0" /><line stroke="#2f2f2f" stroke-width="2.2" x1="220.0" x2="329.2" y1="656.8" y2="656.8" /><line stroke="#2f2f2f" stroke-width="2.2" x1="329.2" x2="329.2" y1="220.0" y2="656.8" /><line stroke="#2f2f2f" stroke-width="2.2" x1="220.0" x2="220.0" y1="220.0" y2="656.8" /><rect fill="#f7f3ea" fill-opacity="0.35" height="327.6" stroke="#9a9a9a" stroke-dasharray="4,3" stroke-width="0.9" width="109.2" x="766.0" y="656.8" /><line stroke="#9c9c9c" stroke-opacity="0.7" stroke-width="0.8" x1="766.0" x2="785.2" y1="965.2" y2="984.4" /><line stroke="#9c9c9c" stroke-opacity="0.7" stroke-width="0.8" x1="766.0" x2="804.4" y1="946.0" y2="984.4" /><line stroke="#9c9c9c" stroke-opacity="0.7" stroke-width="0.8" x1="766.0" x2="823.6" y1="926.8" y2="984.4" /><line stroke="#9c9c9c" stroke-opacity="0.7" stroke-width="0.8" x1="766.0" x2="842.8" y1="907.6" y2="984.4" /><line stroke="#9c9c9c" stroke-opacity="0.7" stroke-width="0.8" x1="766.0" x2="862.0" y1="888.4" y2="984.4" /><line stroke="#9c9c9c" stroke-opacity="0.7" stroke-width="0.8" x1="766.0" x2="875.2" y1="869.2" y2="978.4" /><line stroke="#9c9c9c" stroke-opacity="0.7" stroke-width="0.8" x1="766.0" x2="875.2" y1="850.0" y2="959.2" /><line stroke="#9c9c9c" stroke-opacity="0.7" stroke-width="0.8" x1="766.0" x2="875.2" y1="830.8" y2="940.0" /><line stroke="#9c9c9c" stroke-opacity="0.7" stroke-width="0.8" x1="766.0" x2="875.2" y1="811.6" y2="920.8" /><line stroke="#9c9c9c" stroke-opacity="0.7" stroke-width="0.8" x1="766.0" x2="875.2" y1="792.4" y2="901.6" /><line stroke="#9c9c9c" stroke-opacity="0.7" stroke-width="0.8" x1="766.0" x2="875.2" y1="773.2" y2="882.4" /><line stroke="#9c9c9c" stroke-opacity="0.7" stroke-width="0.8" x1="766.0" x2="875.2" y1="754.0" y2="863.2" /><line stroke="#9c9c9c" stroke-opacity="0.7" stroke-width="0.8" x1="766.0" x2="875.2" y1="734.8" y2="844.0" /><line stroke="#9c9c9c" stroke-opacity="0.7" stroke-width="0.8" x1="766.0" x2="875.2" y1="715.6" y2="824.8" /><line stroke="#9c9c9c" stroke-opacity="0.7" stroke-width="0.8" x1="766.0" x2="875.2" y1="696.4" y2="805.6" /><line stroke="#9c9c9c" stroke-opacity="0.7" stroke-width="0.8" x1="766.0" x2="875.2" y1="677.2" y2="786.4" /><line stroke="#9c9c9c" stroke-opacity="0.7" stroke-width="0.8" x1="766.0" x2="875.2" y1="658.0" y2="767.2" /><line stroke="#9c9c9c" stroke-opacity="0.7" stroke-width="0.8" x1="784.0" x2="875.2" y1="656.8" y2="748.0" /><line stroke="#9c9c9c" stroke-opacity="0.7" stroke-width="0.8" x1="803.2" x2="875.2" y1="656.8" y2="728.8" /><line stroke="#9c9c9c" stroke-opacity="0.7" stroke-width="0.8" x1="822.4" x2="875.2" y1="656.8" y2="709.6" /><line stroke="#9c9c9c" stroke-opacity="0.7" stroke-width="0.8" x1="841.6" x2="875.2" y1="656.8" y2="690.4" /><line stroke="#9c9c9c" stroke-opacity="0.7" stroke-width="0.8" x1="860.8" x2="875.2" y1="656.8" y2="671.2" /><rect fill="#f7f3ea" fill-opacity="0.35" height="109.2" stroke="#9a9a9a" stroke-dasharray="4,3" stroke-width="0.9" width="436.8" x="875.2" y="547.6" /><line stroke="#9c9c9c" stroke-opacity="0.7" stroke-width="0.8" x1="875.2" x2="894.4" y1="637.6" y2="656.8" /><line stroke="#9c9c9c" stroke-opacity="0.7" stroke-width="0.8" x1="875.2" x2="913.6" y1="618.4" y2="656.8" /><line stroke="#9c9c9c" stroke-opacity="0.7" stroke-width="0.8" x1="875.2" x2="932.8" y1="599.2" y2="656.8" /><line stroke="#9c9c9c" stroke-opacity="0.7" stroke-width="0.8" x1="875.2" x2="952.0" y1="580.0" y2="656.8" /><line stroke="#9c9c9c" stroke-opacity="0.7" stroke-width="0.8" x1="875.2" x2="971.2" y1="560.8" y2="656.8" /><line stroke="#9c9c9c" stroke-opacity="0.7" stroke-width="0.8" x1="881.2" x2="990.4" y1="547.6" y2="656.8" /><line stroke="#9c9c9c" stroke-opacity="0.7" stroke-width="0.8" x1="900.4" x2="1009.6" y1="547.6" y2="656.8" /><line stroke="#9c9c9c" stroke-opacity="0.7" stroke-width="0.8" x1="919.6" x2="1028.8" y1="547.6" y2="656.8" /><line stroke="#9c9c9c" stroke-opacity="0.7" stroke-width="0.8" x1="938.8" x2="1048.0" y1="547.6" y2="656.8" /><line stroke="#9c9c9c" stroke-opacity="0.7" stroke-width="0.8" x1="958.0" x2="1067.2" y1="547.6" y2="656.8" /><line stroke="#9c9c9c" stroke-opacity="0.7" stroke-width="0.8" x1="977.2" x2="1086.4" y1="547.6" y2="656.8" /><line stroke="#9c9c9c" stroke-opacity="0.7" stroke-width="0.8" x1="996.4" x2="1105.6" y1="547.6" y2="656.8" /><line stroke="#9c9c9c" stroke-opacity="0.7" stroke-width="0.8" x1="1015.6" x2="1124.8" y1="547.6" y2="656.8" /><line stroke="#9c9c9c" stroke-opacity="0.7" stroke-width="0.8" x1="1034.8" x2="1144.0" y1="547.6" y2="656.8" /><line stroke="#9c9c9c" stroke-opacity="0.7" stroke-width="0.8" x1="1054.0" x2="1163.2" y1="547.6" y2="656.8" /><line stroke="#9c9c9c" stroke-opacity="0.7" stroke-width="0.8" x1="1073.2" x2="1182.4" y1="547.6" y2="656.8" /><line stroke="#9c9c9c" stroke-opacity="0.7" stroke-width="0.8" x1="1092.4" x2="1201.6" y1="547.6" y2="656.8" /><line stroke="#9c9c9c" stroke-opacity="0.7" stroke-width="0.8" x1="1111.6" x2="1220.8" y1="547.6" y2="656.8" /><line stroke="#9c9c9c" stroke-opacity="0.7" stroke-width="0.8" x1="1130.8" x2="1240.0" y1="547.6" y2="656.8" /><line stroke="#9c9c9c" stroke-opacity="0.7" stroke-width="0.8" x1="1150.0" x2="1259.2" y1="547.6" y2="656.8" /><line stroke="#9c9c9c" stroke-opacity="0.7" stroke-width="0.8" x1="1169.2" x2="1278.4" y1="547.6" y2="656.8" /><line stroke="#9c9c9c" stroke-opacity="0.7" stroke-width="0.8" x1="1188.4" x2="1297.6" y1="547.6" y2="656.8" /><line stroke="#9c9c9c" stroke-opacity="0.7" stroke-width="0.8" x1="1207.6" x2="1312.0" y1="547.6" y2="652.0" /><line stroke="#9c9c9c" stroke-opacity="0.7" stroke-width="0.8" x1="1226.8" x2="1312.0" y1="547.6" y2="632.8" /><line stroke="#9c9c9c" stroke-opacity="0.7" stroke-width="0.8" x1="1246.0" x2="1312.0" y1="547.6" y2="613.6" /><line stroke="#9c9c9c" stroke-opacity="0.7" stroke-width="0.8" x1="1265.2" x2="1312.0" y1="547.6" y2="594.4" /><line stroke="#9c9c9c" stroke-opacity="0.7" stroke-width="0.8" x1="1284.4" x2="1312.0" y1="547.6" y2="575.2" /><line stroke="#9c9c9c" stroke-opacity="0.7" stroke-width="0.8" x1="1303.6" x2="1312.0" y1="547.6" y2="556.0" /><rect fill="#f7f3ea" fill-opacity="0.35" height="218.4" stroke="#9a9a9a" stroke-dasharray="4,3" stroke-width="0.9" width="109.2" x="602.2" y="220.0" /><line stroke="#9c9c9c" stroke-opacity="0.7" stroke-width="0.8" x1="602.2" x2="621.4" y1="419.2" y2="438.4" /><line stroke="#9c9c9c" stroke-opacity="0.7" stroke-width="0.8" x1="602.2" x2="640.6" y1="400.0" y2="438.4" /><line stroke="#9c9c9c" stroke-opacity="0.7" stroke-width="0.8" x1="602.2" x2="659.8" y1="380.8" y2="438.4" /><line stroke="#9c9c9c" stroke-opacity="0.7" stroke-width="0.8" x1="602.2" x2="679.0" y1="361.6" y2="438.4" /><line stroke="#9c9c9c" stroke-opacity="0.7" stroke-width="0.8" x1="602.2" x2="698.2" y1="342.4" y2="438.4" /><line stroke="#9c9c9c" stroke-opacity="0.7" stroke-width="0.8" x1="602.2" x2="711.4" y1="323.2" y2="432.4" /><line stroke="#9c9c9c" stroke-opacity="0.7" stroke-width="0.8" x1="602.2" x2="711.4" y1="304.0" y2="413.2" /><line stroke="#9c9c9c" stroke-opacity="0.7" stroke-width="0.8" x1="602.2" x2="711.4" y1="284.8" y2="394.0" /><line stroke="#9c9c9c" stroke-opacity="0.7" stroke-width="0.8" x1="602.2" x2="711.4" y1="265.6" y2="374.8" /><line stroke="#9c9c9c" stroke-opacity="0.7" stroke-width="0.8" x1="602.2" x2="711.4" y1="246.4" y2="355.6" /><line stroke="#9c9c9c" stroke-opacity="0.7" stroke-width="0.8" x1="602.2" x2="711.4" y1="227.2" y2="336.4" /><line stroke="#9c9c9c" stroke-opacity="0.7" stroke-width="0.8" x1="614.2" x2="711.4" y1="220.0" y2="317.2" /><line stroke="#9c9c9c" stroke-opacity="0.7" stroke-width="0.8" x1="633.4" x2="711.4" y1="220.0" y2="298.0" /><line stroke="#9c9c9c" stroke-opacity="0.7" stroke-width="0.8" x1="652.6" x2="711.4" y1="220.0" y2="278.8" /><line stroke="#9c9c9c" stroke-opacity="0.7" stroke-width="0.8" x1="671.8" x2="711.4" y1="220.0" y2="259.6" /><line stroke="#9c9c9c" stroke-opacity="0.7" stroke-width="0.8" x1="691.0" x2="711.4" y1="220.0" y2="240.4" /><line stroke="#9c9c9c" stroke-opacity="0.7" stroke-width="0.8" x1="710.2" x2="711.4" y1="220.0" y2="221.2" /><rect fill="none" height="111.384" stroke="#7f7f7f" stroke-width="1.1" width="218.4" x="438.4" y="715.768" /><line stroke="#7f7f7f" stroke-width="0.9" x1="438.4" x2="656.8" y1="754.7524" y2="754.7524" /><rect fill="none" height="148.512" stroke="#7f7f7f" stroke-width="1.1" width="218.4" x="984.4" y="626.224" /><line stroke="#7f7f7f" stroke-width="0.9" x1="984.4" x2="1202.8" y1="678.2032" y2="678.2032" /><rect fill="none" height="111.384" stroke="#7f7f7f" stroke-width="1.1" width="218.4" x="847.9" y="278.968" /><line stroke="#7f7f7f" stroke-width="0.9" x1="847.9" x2="1066.3" y1="317.9524" y2="317.9524" /><rect fill="#f4f4f4" height="109.2" stroke="#202020" stroke-dasharray="4,3" stroke-width="2.6" width="163.8" x="329.2" y="220.0" /><line stroke="#b8b8b8" stroke-width="0.9" x1="334.6" x2="487.6" y1="229.6" y2="229.6" /><line stroke="#b8b8b8" stroke-width="0.9" x1="334.6" x2="487.6" y1="248.8" y2="248.8" /><line stroke="#b8b8b8" stroke-width="0.9" x1="334.6" x2="487.6" y1="268.0" y2="268.0" /><line stroke="#b8b8b8" stroke-width="0.9" x1="334.6" x2="487.6" y1="287.2" y2="287.2" /><line stroke="#b8b8b8" stroke-width="0.9" x1="334.6" x2="487.6" y1="306.4" y2="306.4" /><line stroke="#b8b8b8" stroke-width="0.9" x1="334.6" x2="487.6" y1="325.6" y2="325.6" /><rect fill="#f4f4f4" height="109.2" stroke="#202020" stroke-dasharray="4,3" stroke-width="2.6" width="109.2" x="493.0" y="220.0" /><line stroke="#b8b8b8" stroke-width="0.9" x1="498.4" x2="596.8" y1="229.6" y2="229.6" /><line stroke="#b8b8b8" stroke-width="0.9" x1="498.4" x2="596.8" y1="248.8" y2="248.8" /><line stroke="#b8b8b8" stroke-width="0.9" x1="498.4" x2="596.8" y1="268.0" y2="268.0" /><line stroke="#b8b8b8" stroke-width="0.9" x1="498.4" x2="596.8" y1="287.2" y2="287.2" /><line stroke="#b8b8b8" stroke-width="0.9" x1="498.4" x2="596.8" y1="306.4" y2="306.4" /><line stroke="#b8b8b8" stroke-width="0.9" x1="498.4" x2="596.8" y1="325.6" y2="325.6" /><rect fill="#ffffff" height="163.8" stroke="#202020" stroke-dasharray="8,4" stroke-width="2.6" width="109.2" x="493.0" y="329.2" /><text fill="#555555" font-size="9" text-anchor="middle" x="465.7" y="274.6">Open To Below</text><rect fill="none" height="109.2" stroke="#7e7e7e" stroke-dasharray="3,2" stroke-width="2.0" width="273.0" x="329.2" y="220.0" /><text fill="#666666" font-size="8.5" text-anchor="middle" x="465.7" y="234.4">Guardrail</text><line stroke="#2a2a2a" stroke-width="1.4" x1="493.0" x2="602.2" y1="352.6" y2="352.6" /><line stroke="#2a2a2a" stroke-width="1.4" x1="493.0" x2="602.2" y1="376.0" y2="376.0" /><line stroke="#2a2a2a" stroke-width="1.4" x1="493.0" x2="602.2" y1="399.4" y2="399.4" /><line stroke="#2a2a2a" stroke-width="1.4" x1="493.0" x2="602.2" y1="422.8" y2="422.8" /><line stroke="#2a2a2a" stroke-width="1.4" x1="493.0" x2="602.2" y1="446.2" y2="446.2" /><line stroke="#2a2a2a" stroke-width="1.4" x1="493.0" x2="602.2" y1="469.6" y2="469.6" /><text fill="#202020" font-size="11" text-anchor="middle" x="547.5999999999999" y="411.1">Stair (DN)</text><text fill="#3a3a3a" font-size="9.0" text-anchor="middle" x="547.5999999999999" y="425.5">13R/12T</text><text fill="#4a4a4a" font-size="7.8" text-anchor="middle" x="547.5999999999999" y="433.9">H2730 R210 T228</text><line stroke="#ffffff" stroke-width="7" x1="493.0" x2="602.2" y1="493.0" y2="493.0" /><line stroke="#5e5e5e" stroke-width="1.0" x1="493.0" x2="602.2" y1="493.0" y2="493.0" /><line stroke="#ffffff" stroke-width="6" x1="679.9" x2="797.5" y1="656.8" y2="656.8" /><line stroke="#595959" stroke-width="1.2" x1="679.9" x2="756.34" y1="656.8" y2="580.36" /><path d="M 756.34,656.8 A 76.44,76.44 0 0 1 756.34,580.36" fill="none" stroke="#7a7a7a" stroke-width="1.0" /><line stroke="#ffffff" stroke-width="6" x1="875.2" x2="875.2" y1="556.6" y2="647.8" /><line stroke="#595959" stroke-width="1.2" x1="875.2" x2="934.48" y1="556.6" y2="615.88" /><path d="M 875.1999999999999,615.88 A 59.28,59.28 0 0 1 934.48,615.88" fill="none" stroke="#7a7a7a" stroke-width="1.0" /><line stroke="#ffffff" stroke-width="6" x1="679.9" x2="797.5" y1="547.6" y2="547.6" /><line stroke="#595959" stroke-width="1.2" x1="679.9" x2="756.34" y1="547.6" y2="471.16" /><path d="M 756.34,547.5999999999999 A 76.44,76.44 0 0 1 756.34,471.15999999999997" fill="none" stroke="#7a7a7a" stroke-width="1.0" /><line stroke="#ffffff" stroke-width="6" x1="229.0" x2="320.2" y1="656.8" y2="656.8" /><line stroke="#595959" stroke-width="1.2" x1="229.0" x2="288.28" y1="656.8" y2="597.52" /><path d="M 288.28,656.8 A 59.28,59.28 0 0 1 288.28,597.52" fill="none" stroke="#7a7a7a" stroke-width="1.0" /><line stroke="#66a7ff" stroke-width="2.2" x1="217.36" x2="217.36" y1="764.92" y2="876.28" /><line stroke="#66a7ff" stroke-width="2.2" x1="222.64" x2="222.64" y1="764.92" y2="876.28" /><line stroke="#66a7ff" stroke-width="2.2" x1="307.456" x2="499.456" y1="981.76" y2="981.76" /><line stroke="#66a7ff" stroke-width="2.2" x1="307.456" x2="499.456" y1="987.04" y2="987.04" /><line stroke="#66a7ff" stroke-width="2.2" x1="595.744" x2="787.744" y1="981.76" y2="981.76" /><line stroke="#66a7ff" stroke-width="2.2" x1="595.744" x2="787.744" y1="987.04" y2="987.04" /><line stroke="#66a7ff" stroke-width="2.2" x1="1309.36" x2="1309.36" y1="595.684" y2="744.124" /><line stroke="#66a7ff" stroke-width="2.2" x1="1314.64" x2="1314.64" y1="595.684" y2="744.124" /><line stroke="#66a7ff" stroke-width="2.2" x1="1309.36" x2="1309.36" y1="787.876" y2="936.316" /><line stroke="#66a7ff" stroke-width="2.2" x1="1314.64" x2="1314.64" y1="787.876" y2="936.316" /><line stroke="#66a7ff" stroke-width="2.2" x1="923.284" x2="1071.724" y1="981.76" y2="981.76" /><line stroke="#66a7ff" stroke-width="2.2" x1="923.284" x2="1071.724" y1="987.04" y2="987.04" /><line stroke="#66a7ff" stroke-width="2.2" x1="1115.476" x2="1263.916" y1="981.76" y2="981.76" /><line stroke="#66a7ff" stroke-width="2.2" x1="1115.476" x2="1263.916" y1="987.04" y2="987.04" /><line stroke="#66a7ff" stroke-width="2.2" x1="1309.36" x2="1309.36" y1="328.12" y2="439.48" /><line stroke="#66a7ff" stroke-width="2.2" x1="1314.64" x2="1314.64" y1="328.12" y2="439.48" /><line stroke="#66a7ff" stroke-width="2.2" x1="704.944" x2="896.944" y1="217.36" y2="217.36" /><line stroke="#66a7ff" stroke-width="2.2" x1="704.944" x2="896.944" y1="222.64" y2="222.64" /><line stroke="#66a7ff" stroke-width="2.2" x1="1017.256" x2="1209.256" y1="217.36" y2="217.36" /><line stroke="#66a7ff" stroke-width="2.2" x1="1017.256" x2="1209.256" y1="222.64" y2="222.64" /><line stroke="#9a9a9a" stroke-width="0.8" x1="501.4" x2="593.8" y1="501.4" y2="501.4" /><line stroke="#9a9a9a" stroke-width="0.8" x1="501.4" x2="501.4" y1="498.04" y2="504.76" /><line stroke="#9a9a9a" stroke-width="0.8" x1="593.8" x2="593.8" y1="498.04" y2="504.76" /><text fill="#8a8a8a" font-size="7.6" text-anchor="start" x="508.12" y="498.76">910mm</text><line stroke="#9a9a9a" stroke-width="0.8" x1="501.4" x2="501.4" y1="501.4" y2="648.4" /><line stroke="#9a9a9a" stroke-width="0.8" x1="498.04" x2="504.76" y1="501.4" y2="501.4" /><line stroke="#9a9a9a" stroke-width="0.8" x1="498.04" x2="504.76" y1="648.4" y2="648.4" /><text fill="#8a8a8a" font-size="7.6" text-anchor="start" x="505.47999999999996" y="509.08">1365mm</text><line stroke="#9a9a9a" stroke-width="0.8" x1="337.6" x2="484.6" y1="337.6" y2="337.6" /><line stroke="#9a9a9a" stroke-width="0.8" x1="337.6" x2="337.6" y1="334.24" y2="340.96" /><line stroke="#9a9a9a" stroke-width="0.8" x1="484.6" x2="484.6" y1="334.24" y2="340.96" /><text fill="#8a8a8a" font-size="7.6" text-anchor="start" x="344.32" y="334.96">1365mm</text><line stroke="#9a9a9a" stroke-width="0.8" x1="337.6" x2="337.6" y1="337.6" y2="648.4" /><line stroke="#9a9a9a" stroke-width="0.8" x1="334.24" x2="340.96" y1="337.6" y2="337.6" /><line stroke="#9a9a9a" stroke-width="0.8" x1="334.24" x2="340.96" y1="648.4" y2="648.4" /><text fill="#8a8a8a" font-size="7.6" text-anchor="start" x="341.68" y="345.28">2730mm</text><text fill="#1b1b1b" font-size="10" text-anchor="middle" x="1093.6" y="751.6">Bedroom 2</text><text fill="#1b1b1b" font-size="10" text-anchor="middle" x="1093.6" y="762.4">3640x3640mm</text><text fill="#1b1b1b" font-size="10" text-anchor="middle" x="1093.6" y="773.1999999999999">13.2sqm / 8.2jo</text><text fill="#1b1b1b" font-size="10" text-anchor="middle" x="957.1" y="369.4">Bedroom 3</text><text fill="#1b1b1b" font-size="10" text-anchor="middle" x="957.1" y="380.2">5915x2730mm</text><text fill="#1b1b1b" font-size="10" text-anchor="middle" x="957.1" y="391.0">16.1sqm / 10.0jo</text><text fill="#1b1b1b" font-size="9" text-anchor="middle" x="531.5411764705882" y="525.1705882352941">Hall 2</text><text fill="#1b1b1b" font-size="9" text-anchor="middle" x="531.5411764705882" y="535.9705882352941">7.0sqm / 4.3jo</text><text fill="#1b1b1b" font-size="10" text-anchor="middle" x="547.5999999999999" y="806.1999999999999">Master</text><text fill="#1b1b1b" font-size="10" text-anchor="middle" x="547.5999999999999" y="817.0">5460x2730mm</text><text fill="#1b1b1b" font-size="10" text-anchor="middle" x="547.5999999999999" y="827.8">14.9sqm / 9.2jo</text><text fill="#1b1b1b" font-size="10" text-anchor="middle" x="274.6" y="424.0">Roof Buffer</text><text fill="#1b1b1b" font-size="10" text-anchor="middle" x="274.6" y="434.79999999999995">910x3640mm</text><text fill="#1b1b1b" font-size="10" text-anchor="middle" x="274.6" y="445.6">3.3sqm / 2.0jo</text><text fill="#4a4a4a" font-size="10" text-anchor="middle" x="820.6" y="820.6">CL</text><text fill="#4a4a4a" font-size="10" text-anchor="middle" x="1093.6" y="602.2">CL</text><text fill="#4a4a4a" font-size="10" text-anchor="middle" x="656.8" y="329.2">CL</text><text fill="#111111" font-size="14" x="220.0" y="180.0">F2 Plan  (9100 x 6370 mm)</text><text fill="#444444" font-size="10" x="220.0" y="198.0">Scale: 1px=8.3mm</text><rect fill="#ffffff" height="144" stroke="#777777" stroke-width="1" width="170" x="1400.0" y="150.0" /><text fill="#111111" font-size="11" x="1408.0" y="164.0">Legend</text><rect fill="#efe9ff" height="12" stroke="#333333" stroke-width="1" width="12" x="1408.0" y="174.0" /><text fill="#222222" font-size="10" x="1426.0" y="184.0">Hall</text><rect fill="#c5e8ff" height="12" stroke="#333333" stroke-width="1" width="12" x="1408.0" y="192.0" /><text fill="#222222" font-size="10" x="1426.0" y="202.0">Master Bedroom</text><rect fill="#d9f2ff" height="12" stroke="#333333" stroke-width="1" width="12" x="1408.0" y="210.0" /><text fill="#222222" font-size="10" x="1426.0" y="220.0">Bedroom</text><rect fill="#f7f3ea" height="12" stroke="#333333" stroke-width="1" width="12" x="1408.0" y="228.0" /><text fill="#222222" font-size="10" x="1426.0" y="238.0">Closet</text><rect fill="#f0f0f0" height="12" stroke="#333333" stroke-width="1" width="12" x="1408.0" y="246.0" /><text fill="#222222" font-size="10" x="1426.0" y="256.0">Storage</text><line stroke="#6aa4ff" stroke-width="4" x1="1408.0" x2="1435.0" y1="276.0" y2="276.0" /><text fill="#222222" font-size="10" x="1442.0" y="279.0">Window</text><line stroke="#666666" stroke-width="2.4" x1="1408.0" x2="1435.0" y1="292.0" y2="292.0" /><path d="M 1408.0,292.0 A 10,10 0 0 1 1418.0,282.0" fill="none" stroke="#666666" stroke-width="1.2" /><text fill="#222222" font-size="10" x="1442.0" y="295.0">Door</text><rect fill="#ffffff" height="84" stroke="#777777" stroke-width="1" width="200" x="1400.0" y="520.0" /><text fill="#111111" font-size="10" x="1408.0" y="533.0">Area (F2)</text><text fill="#222222" font-size="9" x="1408.0" y="550.0">F1: in 58.0 sqm (17.5 tsubo), out 0.0 sqm (0.0 tsubo)</text><text fill="#222222" font-size="9" x="1408.0" y="566.0">F2: in 58.0 sqm (17.5 tsubo), out 0.0 sqm (0.0 tsubo)</text><text fill="#222222" font-size="9" x="1408.0" y="582.0">Total indoor: 115.9 sqm (35.1 tsubo)</text><text fill="#222222" font-size="9" x="1408.0" y="598.0">Total outdoor: 0.0 sqm (0.0 tsubo)</text><line stroke="#111111" stroke-width="2" x1="175.0" x2="175.0" y1="238.0" y2="208.0" /><polygon fill="#111111" points="175.0,208.0 181.0,214.0 169.0,214.0" /><text fill="#111111" font-size="12" x="170.0" y="202.0">N</text><line stroke="#545454" stroke-width="1.0" x1="220.0" x2="1312.0" y1="148.0" y2="148.0" /><line stroke="#545454" stroke-width="0.8" x1="220.0" x2="220.0" y1="220.0" y2="148.0" /><line stroke="#545454" stroke-width="1.0" x1="220.0" x2="220.0" y1="145.0" y2="151.0" /><line stroke="#545454" stroke-width="0.8" x1="1312.0" x2="1312.0" y1="220.0" y2="148.0" /><line stroke="#545454" stroke-width="1.0" x1="1312.0" x2="1312.0" y1="145.0" y2="151.0" /><text fill="#545454" font-size="8.8" text-anchor="middle" x="766.0" y="145.0">9100mm</text><line stroke="#666666" stroke-width="1.0" x1="220.0" x2="1312.0" y1="166.0" y2="166.0" /><line stroke="#666666" stroke-width="0.8" x1="220.0" x2="220.0" y1="220.0" y2="166.0" /><line stroke="#666666" stroke-width="1.0" x1="220.0" x2="220.0" y1="163.0" y2="169.0" /><line stroke="#666666" stroke-width="0.8" x1="329.2" x2="329.2" y1="220.0" y2="166.0" /><line stroke="#666666" stroke-width="1.0" x1="329.2" x2="329.2" y1="163.0" y2="169.0" /><line stroke="#666666" stroke-width="0.8" x1="493.0" x2="493.0" y1="220.0" y2="166.0" /><line stroke="#666666" stroke-width="1.0" x1="493.0" x2="493.0" y1="163.0" y2="169.0" /><line stroke="#666666" stroke-width="0.8" x1="602.2" x2="602.2" y1="220.0" y2="166.0" /><line stroke="#666666" stroke-width="1.0" x1="602.2" x2="602.2" y1="163.0" y2="169.0" /><line stroke="#666666" stroke-width="0.8" x1="1312.0" x2="1312.0" y1="220.0" y2="166.0" /><line stroke="#666666" stroke-width="1.0" x1="1312.0" x2="1312.0" y1="163.0" y2="169.0" /><text fill="#666666" font-size="8.2" text-anchor="middle" x="274.6" y="163.0">910</text><text fill="#666666" font-size="8.2" text-anchor="middle" x="411.1" y="163.0">1365</text><text fill="#666666" font-size="8.2" text-anchor="middle" x="547.5999999999999" y="163.0">910</text><text fill="#666666" font-size="8.2" text-anchor="middle" x="957.1" y="163.0">5915</text><line stroke="#7a7a7a" stroke-width="1.0" x1="220.0" x2="1312.0" y1="184.0" y2="184.0" /><line stroke="#7a7a7a" stroke-width="0.8" x1="220.0" x2="220.0" y1="220.0" y2="184.0" /><line stroke="#7a7a7a" stroke-width="1.0" x1="220.0" x2="220.0" y1="181.0" y2="187.0" /><line stroke="#7a7a7a" stroke-width="0.8" x1="711.4" x2="711.4" y1="220.0" y2="184.0" /><line stroke="#7a7a7a" stroke-width="1.0" x1="711.4" x2="711.4" y1="181.0" y2="187.0" /><line stroke="#7a7a7a" stroke-width="0.8" x1="875.2" x2="875.2" y1="220.0" y2="184.0" /><line stroke="#7a7a7a" stroke-width="1.0" x1="875.2" x2="875.2" y1="181.0" y2="187.0" /><line stroke="#7a7a7a" stroke-width="0.8" x1="1039.0" x2="1039.0" y1="220.0" y2="184.0" /><line stroke="#7a7a7a" stroke-width="1.0" x1="1039.0" x2="1039.0" y1="181.0" y2="187.0" /><line stroke="#7a7a7a" stroke-width="0.8" x1="1202.8" x2="1202.8" y1="220.0" y2="184.0" /><line stroke="#7a7a7a" stroke-width="1.0" x1="1202.8" x2="1202.8" y1="181.0" y2="187.0" /><line stroke="#7a7a7a" stroke-width="0.8" x1="1312.0" x2="1312.0" y1="220.0" y2="184.0" /><line stroke="#7a7a7a" stroke-width="1.0" x1="1312.0" x2="1312.0" y1="181.0" y2="187.0" /><text fill="#7a7a7a" font-size="7.8" text-anchor="middle" x="465.7" y="181.0">4095</text><text fill="#7a7a7a" font-size="7.8" text-anchor="middle" x="793.3" y="181.0">1365</text><text fill="#7a7a7a" font-size="7.8" text-anchor="middle" x="957.1" y="181.0">1365</text><text fill="#7a7a7a" font-size="7.8" text-anchor="middle" x="1120.9" y="181.0">1365</text><text fill="#7a7a7a" font-size="7.8" text-anchor="middle" x="1257.3999999999999" y="181.0">910</text><line stroke="#545454" stroke-width="1.0" x1="220.0" x2="1312.0" y1="1056.4" y2="1056.4" /><line stroke="#545454" stroke-width="0.8" x1="220.0" x2="220.0" y1="984.4" y2="1056.4" /><line stroke="#545454" stroke-width="1.0" x1="220.0" x2="220.0" y1="1053.4" y2="1059.4" /><line stroke="#545454" stroke-width="0.8" x1="1312.0" x2="1312.0" y1="984.4" y2="1056.4" /><line stroke="#545454" stroke-width="1.0" x1="1312.0" x2="1312.0" y1="1053.4" y2="1059.4" /><text fill="#545454" font-size="8.8" text-anchor="middle" x="766.0" y="1066.4">9100mm</text><line stroke="#666666" stroke-width="1.0" x1="220.0" x2="1312.0" y1="1038.4" y2="1038.4" /><line stroke="#666666" stroke-width="0.8" x1="220.0" x2="220.0" y1="984.4" y2="1038.4" /><line stroke="#666666" stroke-width="1.0" x1="220.0" x2="220.0" y1="1035.4" y2="1041.4" /><line stroke="#666666" stroke-width="0.8" x1="875.2" x2="875.2" y1="984.4" y2="1038.4" /><line stroke="#666666" stroke-width="1.0" x1="875.2" x2="875.2" y1="1035.4" y2="1041.4" /><line stroke="#666666" stroke-width="0.8" x1="1312.0" x2="1312.0" y1="984.4" y2="1038.4" /><line stroke="#666666" stroke-width="1.0" x1="1312.0" x2="1312.0" y1="1035.4" y2="1041.4" /><text fill="#666666" font-size="8.2" text-anchor="middle" x="547.5999999999999" y="1048.4">5460</text><text fill="#666666" font-size="8.2" text-anchor="middle" x="1093.6" y="1048.4">3640</text><line stroke="#7a7a7a" stroke-width="1.0" x1="220.0" x2="1312.0" y1="1020.4" y2="1020.4" /><line stroke="#7a7a7a" stroke-width="0.8" x1="220.0" x2="220.0" y1="984.4" y2="1020.4" /><line stroke="#7a7a7a" stroke-width="1.0" x1="220.0" x2="220.0" y1="1017.4" y2="1023.4" /><line stroke="#7a7a7a" stroke-width="0.8" x1="329.2" x2="329.2" y1="984.4" y2="1020.4" /><line stroke="#7a7a7a" stroke-width="1.0" x1="329.2" x2="329.2" y1="1017.4" y2="1023.4" /><line stroke="#7a7a7a" stroke-width="0.8" x1="493.0" x2="493.0" y1="984.4" y2="1020.4" /><line stroke="#7a7a7a" stroke-width="1.0" x1="493.0" x2="493.0" y1="1017.4" y2="1023.4" /><line stroke="#7a7a7a" stroke-width="0.8" x1="602.2" x2="602.2" y1="984.4" y2="1020.4" /><line stroke="#7a7a7a" stroke-width="1.0" x1="602.2" x2="602.2" y1="1017.4" y2="1023.4" /><line stroke="#7a7a7a" stroke-width="0.8" x1="766.0" x2="766.0" y1="984.4" y2="1020.4" /><line stroke="#7a7a7a" stroke-width="1.0" x1="766.0" x2="766.0" y1="1017.4" y2="1023.4" /><line stroke="#7a7a7a" stroke-width="0.8" x1="929.8" x2="929.8" y1="984.4" y2="1020.4" /><line stroke="#7a7a7a" stroke-width="1.0" x1="929.8" x2="929.8" y1="1017.4" y2="1023.4" /><line stroke="#7a7a7a" stroke-width="0.8" x1="1093.6" x2="1093.6" y1="984.4" y2="1020.4" /><line stroke="#7a7a7a" stroke-width="1.0" x1="1093.6" x2="1093.6" y1="1017.4" y2="1023.4" /><line stroke="#7a7a7a" stroke-width="0.8" x1="1257.4" x2="1257.4" y1="984.4" y2="1020.4" /><line stroke="#7a7a7a" stroke-width="1.0" x1="1257.4" x2="1257.4" y1="1017.4" y2="1023.4" /><line stroke="#7a7a7a" stroke-width="0.8" x1="1312.0" x2="1312.0" y1="984.4" y2="1020.4" /><line stroke="#7a7a7a" stroke-width="1.0" x1="1312.0" x2="1312.0" y1="1017.4" y2="1023.4" /><text fill="#7a7a7a" font-size="7.8" text-anchor="middle" x="274.6" y="1030.4">910</text><text fill="#7a7a7a" font-size="7.8" text-anchor="middle" x="411.1" y="1030.4">1365</text><text fill="#7a7a7a" font-size="7.8" text-anchor="middle" x="547.5999999999999" y="1030.4">910</text><text fill="#7a7a7a" font-size="7.8" text-anchor="middle" x="684.0999999999999" y="1030.4">1365</text><text fill="#7a7a7a" font-size="7.8" text-anchor="middle" x="847.9" y="1030.4">1365</text><text fill="#7a7a7a" font-size="7.8" text-anchor="middle" x="1011.6999999999999" y="1030.4">1365</text><text fill="#7a7a7a" font-size="7.8" text-anchor="middle" x="1175.5" y="1030.4">1365</text><line stroke="#545454" stroke-width="1.0" x1="148.0" x2="148.0" y1="220.0" y2="984.4" /><line stroke="#545454" stroke-width="0.8" x1="220.0" x2="148.0" y1="220.0" y2="220.0" /><line stroke="#545454" stroke-width="1.0" x1="145.0" x2="151.0" y1="220.0" y2="220.0" /><line stroke="#545454" stroke-width="0.8" x1="220.0" x2="148.0" y1="984.4" y2="984.4" /><line stroke="#545454" stroke-width="1.0" x1="145.0" x2="151.0" y1="984.4" y2="984.4" /><text fill="#545454" font-size="8.8" x="144.0" y="602.2">6370mm</text><line stroke="#666666" stroke-width="1.0" x1="166.0" x2="166.0" y1="220.0" y2="984.4" /><line stroke="#666666" stroke-width="0.8" x1="220.0" x2="166.0" y1="220.0" y2="220.0" /><line stroke="#666666" stroke-width="1.0" x1="163.0" x2="169.0" y1="220.0" y2="220.0" /><line stroke="#666666" stroke-width="0.8" x1="220.0" x2="166.0" y1="656.8" y2="656.8" /><line stroke="#666666" stroke-width="1.0" x1="163.0" x2="169.0" y1="656.8" y2="656.8" /><line stroke="#666666" stroke-width="0.8" x1="220.0" x2="166.0" y1="984.4" y2="984.4" /><line stroke="#666666" stroke-width="1.0" x1="163.0" x2="169.0" y1="984.4" y2="984.4" /><text fill="#666666" font-size="8.2" x="162.0" y="438.4">3640</text><text fill="#666666" font-size="8.2" x="162.0" y="820.6">2730</text><line stroke="#7a7a7a" stroke-width="1.0" x1="184.0" x2="184.0" y1="220.0" y2="984.4" /><line stroke="#7a7a7a" stroke-width="0.8" x1="220.0" x2="184.0" y1="220.0" y2="220.0" /><line stroke="#7a7a7a" stroke-width="1.0" x1="181.0" x2="187.0" y1="220.0" y2="220.0" /><line stroke="#7a7a7a" stroke-width="0.8" x1="220.0" x2="184.0" y1="766.0" y2="766.0" /><line stroke="#7a7a7a" stroke-width="1.0" x1="181.0" x2="187.0" y1="766.0" y2="766.0" /><line stroke="#7a7a7a" stroke-width="0.8" x1="220.0" x2="184.0" y1="875.2" y2="875.2" /><line stroke="#7a7a7a" stroke-width="1.0" x1="181.0" x2="187.0" y1="875.2" y2="875.2" /><line stroke="#7a7a7a" stroke-width="0.8" x1="220.0" x2="184.0" y1="984.4" y2="984.4" /><line stroke="#7a7a7a" stroke-width="1.0" x1="181.0" x2="187.0" y1="984.4" y2="984.4" /><text fill="#7a7a7a" font-size="7.8" x="180.0" y="493.0">4550</text><text fill="#7a7a7a" font-size="7.8" x="180.0" y="820.6">910</text><text fill="#7a7a7a" font-size="7.8" x="180.0" y="929.8">910</text><line stroke="#545454" stroke-width="1.0" x1="1384.0" x2="1384.0" y1="220.0" y2="984.4" /><line stroke="#545454" stroke-width="0.8" x1="1312.0" x2="1384.0" y1="220.0" y2="220.0" /><line stroke="#545454" stroke-width="1.0" x1="1381.0" x2="1387.0" y1="220.0" y2="220.0" /><line stroke="#545454" stroke-width="0.8" x1="1312.0" x2="1384.0" y1="984.4" y2="984.4" /><line stroke="#545454" stroke-width="1.0" x1="1381.0" x2="1387.0" y1="984.4" y2="984.4" /><text fill="#545454" font-size="8.8" x="1389.0" y="602.2">6370mm</text><line stroke="#666666" stroke-width="1.0" x1="1366.0" x2="1366.0" y1="220.0" y2="984.4" /><line stroke="#666666" stroke-width="0.8" x1="1312.0" x2="1366.0" y1="220.0" y2="220.0" /><line stroke="#666666" stroke-width="1.0" x1="1363.0" x2="1369.0" y1="220.0" y2="220.0" /><line stroke="#666666" stroke-width="0.8" x1="1312.0" x2="1366.0" y1="547.6" y2="547.6" /><line stroke="#666666" stroke-width="1.0" x1="1363.0" x2="1369.0" y1="547.6" y2="547.6" /><line stroke="#666666" stroke-width="0.8" x1="1312.0" x2="1366.0" y1="984.4" y2="984.4" /><line stroke="#666666" stroke-width="1.0" x1="1363.0" x2="1369.0" y1="984.4" y2="984.4" /><text fill="#666666" font-size="8.2" x="1371.0" y="383.79999999999995">2730</text><text fill="#666666" font-size="8.2" x="1371.0" y="766.0">3640</text><line stroke="#7a7a7a" stroke-width="1.0" x1="1348.0" x2="1348.0" y1="220.0" y2="984.4" /><line stroke="#7a7a7a" stroke-width="0.8" x1="1312.0" x2="1348.0" y1="220.0" y2="220.0" /><line stroke="#7a7a7a" stroke-width="1.0" x1="1345.0" x2="1351.0" y1="220.0" y2="220.0" /><line stroke="#7a7a7a" stroke-width="0.8" x1="1312.0" x2="1348.0" y1="329.2" y2="329.2" /><line stroke="#7a7a7a" stroke-width="1.0" x1="1345.0" x2="1351.0" y1="329.2" y2="329.2" /><line stroke="#7a7a7a" stroke-width="0.8" x1="1312.0" x2="1348.0" y1="438.4" y2="438.4" /><line stroke="#7a7a7a" stroke-width="1.0" x1="1345.0" x2="1351.0" y1="438.4" y2="438.4" /><line stroke="#7a7a7a" stroke-width="0.8" x1="1312.0" x2="1348.0" y1="602.2" y2="602.2" /><line stroke="#7a7a7a" stroke-width="1.0" x1="1345.0" x2="1351.0" y1="602.2" y2="602.2" /><line stroke="#7a7a7a" stroke-width="0.8" x1="1312.0" x2="1348.0" y1="766.0" y2="766.0" /><line stroke="#7a7a7a" stroke-width="1.0" x1="1345.0" x2="1351.0" y1="766.0" y2="766.0" /><line stroke="#7a7a7a" stroke-width="0.8" x1="1312.0" x2="1348.0" y1="929.8" y2="929.8" /><line stroke="#7a7a7a" stroke-width="1.0" x1="1345.0" x2="1351.0" y1="929.8" y2="929.8" /><line stroke="#7a7a7a" stroke-width="0.8" x1="1312.0" x2="1348.0" y1="984.4" y2="984.4" /><line stroke="#7a7a7a" stroke-width="1.0" x1="1345.0" x2="1351.0" y1="984.4" y2="984.4" /><text fill="#7a7a7a" font-size="7.8" x="1353.0" y="274.6">910</text><text fill="#7a7a7a" font-size="7.8" x="1353.0" y="383.79999999999995">910</text><text fill="#7a7a7a" font-size="7.8" x="1353.0" y="520.3">1365</text><text fill="#7a7a7a" font-size="7.8" x="1353.0" y="684.0999999999999">1365</text><text fill="#7a7a7a" font-size="7.8" x="1353.0" y="847.9">1365</text></svg>