<?xml version="1.0" encoding="utf-8" ?>
<svg baseProfile="tiny" height="1204.4px" version="1.2" width="1532.0px" xmlns="http://www.w3.org/2000/svg" xmlns:ev="http://www.w3.org/2001/xml-events" xmlns:xlink="http://www.w3.org/1999/xlink"><defs /><rect fill="#fafafa" height="1204.4" width="1532.0" x="0" y="0" /><line stroke="#ececec" stroke-width="0.7" x1="220.0" x2="220.0" y1="220.0" y2="984.4" /><line stroke="#ececec" stroke-width="0.7" x1="274.6" x2="274.6" y1="220.0" y2="984.4" /><line stroke="#ececec" stroke-width="0.7" x1="329.2" x2="329.2" y1="220.0" y2="984.4" /><line stroke="#ececec" stroke-width="0.7" x1="383.8" x2="383.8" y1="220.0" y2="984.4" /><line stroke="#ececec" stroke-width="0.7" x1="438.4" x2="438.4" y1="220.0" y2="984.4" /><line stroke="#ececec" stroke-width="0.7" x1="493.0" x2="493.0" y1="220.0" y2="984.4" /><line stroke="#ececec" stroke-width="0.7" x1="547.6" x2="547.6" y1="220.0" y2="984.4" /><line stroke="#ececec" stroke-width="0.7" x1="602.2" x2="602.2" y1="220.0" y2="984.4" /><line stroke="#ececec" stroke-width="0.7" x1="656.8" x2="656.8" y1="220.0" y2="984.4" /><line stroke="#ececec" stroke-width="0.7" x1="711.4" x2="711.4" y1="220.0" y2="984.4" /><line stroke="#ececec" stroke-width="0.7" x1="766.0" x2="766.0" y1="220.0" y2="984.4" /><line stroke="#ececec" stroke-width="0.7" x1="820.6" x2="820.6" y1="220.0" y2="984.4" /><line stroke="#ececec" stroke-width="0.7" x1="875.2" x2="875.2" y1="220.0" y2="984.4" /><line stroke="#ececec" stroke-width="0.7" x1="929.8" x2="929.8" y1="220.0" y2="984.4" /><line stroke="#ececec" stroke-width="0.7" x1="984.4" x2="984.4" y1="220.0" y2="984.4" /><line stroke="#ececec" stroke-width="0.7" x1="1039.0" x2="1039.0" y1="220.0" y2="984.4" /><line stroke="#ececec" stroke-width="0.7" x1="1093.6" x2="1093.6" y1="220.0" y2="984.4" /><line stroke="#ececec" stroke-width="0.7" x1="1148.2" x2="1148.2" y1="220.0" y2="984.4" /><line stroke="#ececec" stroke-width="0.7" x1="1202.8" x2="1202.8" y1="220.0" y2="984.4" /><line stroke="#ececec" stroke-width="0.7" x1="1257.4" x2="1257.4" y1="220.0" y2="984.4" /><line stroke="#ececec" stroke-width="0.7" x1="1312.0" x2="1312.0" y1="220.0" y2="984.4" /><line stroke="#d1d1d1" stroke-width="1.1" x1="220.0" x2="220.0" y1="220.0" y2="984.4" /><line stroke="#d1d1d1" stroke-width="1.1" x1="329.2" x2="329.2" y1="220.0" y2="984.4" /><line stroke="#d1d1d1" stroke-width="1.1" x1="438.4" x2="438.4" y1="220.0" y2="984.4" /><line stroke="#d1d1d1" stroke-width="1.1" x1="547.6" x2="547.6" y1="220.0" y2="984.4" /><line stroke="#d1d1d1" stroke-width="1.1" x1="656.8" x2="656.8" y1="220.0" y2="984.4" /><line stroke="#d1d1d1" stroke-width="1.1" x1="766.0" x2="766.0" y1="220.0" y2="984.4" /><line stroke="#d1d1d1" stroke-width="1.1" x1="875.2" x2="875.2" y1="220.0" y2="984.4" /><line stroke="#d1d1d1" stroke-width="1.1" x1="984.4" x2="984.4" y1="220.0" y2="984.4" /><line stroke="#d1d1d1" stroke-width="1.1" x1="1093.6" x2="1093.6" y1="220.0" y2="984.4" /><line stroke="#d1d1d1" stroke-width="1.1" x1="1202.8" x2="1202.8" y1="220.0" y2="984.4" /><line stroke="#d1d1d1" stroke-width="1.1" x1="1312.0" x2="1312.0" y1="220.0" y2="984.4" /><line stroke="#d1d1d1" stroke-width="1.1" x1="220.0" x2="1312.0" y1="220.0" y2="220.0" /><line stroke="#d1d1d1" stroke-width="1.1" x1="220.0" x2="1312.0" y1="329.2" y2="329.2" /><line stroke="#d1d1d1" stroke-width="1.1" x1="220.0" x2="1312.0" y1="438.4" y2="438.4" /><line stroke="#d1d1d1" stroke-width="1.1" x1="220.0" x2="1312.0" y1="547.6" y2="547.6" /><line stroke="#d1d1d1" stroke-width="1.1" x1="220.0" x2="1312.0" y1="656.8" y2="656.8" /><line stroke="#d1d1d1" stroke-width="1.1" x1="220.0" x2="1312.0" y1="766.0" y2="766.0" /><line stroke="#d1d1d1" stroke-width="1.1" x1="220.0" x2="1312.0" y1="875.2" y2="875.2" /><line stroke="#d1d1d1" stroke-width="1.1" x1="220.0" x2="1312.0" y1="984.4" y2="984.4" /><line stroke="#ececec" stroke-width="0.7" x1="220.0" x2="1312.0" y1="220.0" y2="220.0" /><line stroke="#ececec" stroke-width="0.7" x1="220.0" x2="1312.0" y1="274.6" y2="274.6" /><line stroke="#ececec" stroke-width="0.7" x1="220.0" x2="1312.0" y1="329.2" y2="329.2" /><line stroke="#ececec" stroke-width="0.7" x1="220.0" x2="1312.0" y1="383.8" y2="383.8" /><line stroke="#ececec" stroke-width="0.7" x1="220.0" x2="1312.0" y1="438.4" y2="438.4" /><line stroke="#ececec" stroke-width="0.7" x1="220.0" x2="1312.0" y1="493.0" y2="493.0" /><line stroke="#ececec" stroke-width="0.7" x1="220.0" x2="1312.0" y1="547.6" y2="547.6" /><line stroke="#ececec" stroke-width="0.7" x1="220.0" x2="1312.0" y1="602.2" y2="602.2" /><line stroke="#ececec" stroke-width="0.7" x1="220.0" x2="1312.0" y1="656.8" y2="656.8" /><line stroke="#ececec" stroke-width="0.7" x1="220.0" x2="1312.0" y1="711.4" y2="711.4" /><line stroke="#ececec" stroke-width="0.7" x1="220.0" x2="1312.0" y1="766.0" y2="766.0" /><line stroke="#ececec" stroke-width="0.7" x1="220.0" x2="1312.0" y1="820.6" y2="820.6" /><line stroke="#ececec" stroke-width="0.7" x1="220.0" x2="1312.0" y1="875.2" y2="875.2" /><line stroke="#ececec" stroke-width="0.7" x1="220.0" x2="1312.0" y1="929.8" y2="929.8" /><line stroke="#ececec" stroke-width="0.7" x1="220.0" x2="1312.0" y1="984.4" y2="984.4" /><rect fill="none" height="764.4" stroke="#6a6a6a" stroke-dasharray="8,4" stroke-width="2" width="1092.0" x="220.0" y="220.0" /><rect fill="none" height="764.4" stroke="#1f1f1f" stroke-width="3.5" width="1092.0" x="220.0" y="220.0" /><text fill="#555555" font-size="10" x="222.0" y="160.0">Site Envelope = Building Footprint</text><rect fill="#d9f2ff" height="327.6" stroke="none" width="491.4" x="602.2" y="656.8" /><line stroke="#2f2f2f" stroke-width="2.2" x1="602.2" x2="1093.6" y1="656.8" y2="656.8" /><line stroke="#2f2f2f" stroke-width="2.2" x1="602.2" x2="1093.6" y1="984.4" y2="984.4" /><line stroke="#2f2f2f" stroke-width="2.2" x1="1093.6" x2="1093.6" y1="656.8" y2="984.4" /><line stroke="#2f2f2f" stroke-width="2.2" x1="602.2" x2="602.2" y1="656.8" y2="984.4" /><rect fill="#d9f2ff" height="546.0" stroke="none" width="382.2" x="220.0" y="438.4" /><line stroke="#2f2f2f" stroke-width="2.2" x1="220.0" x2="602.2" y1="438.4" y2="438.4" /><line stroke="#2f2f2f" stroke-width="2.2" x1="220.0" x2="602.2" y1="984.4" y2="984.4" /><line stroke="#2f2f2f" stroke-width="2.2" x1="220.0" x2="220.0" y1="438.4" y2="984.4" /><line stroke="#2f2f2f" stroke-width="2.2" x1="602.2" x2="602.2" y1="438.4" y2="984.4" /><rect fill="#efe9ff" height="109.2" stroke="none" width="491.4" x="602.2" y="547.6" /><rect fill="#efe9ff" height="327.6" stroke="none" width="109.2" x="1093.6" y="547.6" /><rect fill="#efe9ff" height="109.2" stroke="none" width="218.4" x="1093.6" y="875.2" /><line stroke="#2f2f2f" stroke-width="2.2" x1="602.2" x2="1202.8" y1="547.6" y2="547.6" /><line stroke="#2f2f2f" stroke-width="2.2" x1="1093.6" x2="1312.0" y1="984.4" y2="984.4" /><line stroke="#2f2f2f" stroke-width="2.2" x1="602.2" x2="1093.6" y1="656.8" y2="656.8" /><line stroke="#2f2f2f" stroke-width="2.2" x1="1202.8" x2="1312.0" y1="875.2" y2="875.2" /><line stroke="#2f2f2f" stroke-width="2.2" x1="1202.8" x2="1202.8" y1="547.6" y2="875.2" /><line stroke="#2f2f2f" stroke-width="2.2" x1="1312.0" x2="1312.0" y1="875.2" y2="984.4" /><line stroke="#2f2f2f" stroke-width="2.2" x1="1093.6" x2="1093.6" y1="656.8" y2="984.4" /><line stroke="#2f2f2f" stroke-width="2.2" x1="602.2" x2="602.2" y1="547.6" y2="656.8" /><rect fill="#c5e8ff" height="327.6" stroke="none" width="709.8" x="602.2" y="220.0" /><line stroke="#2f2f2f" stroke-width="2.2" x1="602.2" x2="1312.0" y1="547.6" y2="547.6" /><line stroke="#2f2f2f" stroke-width="2.2" x1="602.2" x2="1312.0" y1="220.0" y2="220.0" /><line stroke="#2f2f2f" stroke-width="2.2" x1="1312.0" x2="1312.0" y1="220.0" y2="547.6" /><line stroke="#2f2f2f" stroke-width="2.2" x1="602.2" x2="602.2" y1="220.0" y2="547.6" /><rect fill="#f0f0f0" height="218.4" stroke="none" width="382.2" x="220.0" y="220.0" /><line stroke="#2f2f2f" stroke-width="2.2" x1="220.0" x2="602.2" y1="438.4" y2="438.4" /><line stroke="#2f2f2f" stroke-width="2.2" x1="220.0" x2="602.2" y1="220.0" y2="220.0" /><line stroke="#2f2f2f" stroke-width="2.2" x1="602.2" x2="602.2" y1="220.0" y2="438.4" /><line stroke="#2f2f2f" stroke-width="2.2" x1="220.0" x2="220.0" y1="220.0" y2="438.4" /><rect fill="none" height="111.384" stroke="#7f7f7f" stroke-width="1.1" width="218.4" x="847.9" y="278.968" /><line stroke="#7f7f7f" stroke-width="0.9" x1="847.9" x2="1066.3" y1="317.9524" y2="317.9524" /><rect fill="none" height="111.384" stroke="#7f7f7f" stroke-width="1.1" width="218.4" x="738.7" y="715.768" /><line stroke="#7f7f7f" stroke-width="0.9" x1="738.7" x2="957.1" y1="754.7524" y2="754.7524" /><rect fill="none" height="163.8" stroke="#7f7f7f" stroke-width="1.1" width="214.032" x="304.084" y="536.68" /><line stroke="#7f7f7f" stroke-width="0.9" x1="304.084" x2="518.116" y1="594.01" y2="594.01" /><line stroke="#9a9a9a" stroke-width="0.9" x1="265.864" x2="556.336" y1="259.312" y2="259.312" /><line stroke="#9a9a9a" stroke-width="0.9" x1="265.864" x2="556.336" y1="399.088" y2="399.088" /><rect fill="#ffffff" height="327.6" stroke="#202020" stroke-dasharray="8,4" stroke-width="2.6" width="109.2" x="1202.8" y="547.6" /><line stroke="#2a2a2a" stroke-width="1.4" x1="1215.904" x2="1298.896" y1="572.8" y2="572.8" /><line stroke="#2a2a2a" stroke-width="1.4" x1="1215.904" x2="1298.896" y1="598.0" y2="598.0" /><line stroke="#2a2a2a" stroke-width="1.4" x1="1215.904" x2="1298.896" y1="623.2" y2="623.2" /><line stroke="#2a2a2a" stroke-width="1.4" x1="1215.904" x2="1298.896" y1="648.4" y2="648.4" /><line stroke="#2a2a2a" stroke-width="1.4" x1="1215.904" x2="1298.896" y1="673.6" y2="673.6" /><line stroke="#2a2a2a" stroke-width="1.4" x1="1215.904" x2="1298.896" y1="698.8" y2="698.8" /><line stroke="#2a2a2a" stroke-width="1.4" x1="1215.904" x2="1298.896" y1="724.0" y2="724.0" /><line stroke="#2a2a2a" stroke-width="1.4" x1="1215.904" x2="1298.896" y1="749.2" y2="749.2" /><line stroke="#2a2a2a" stroke-width="1.4" x1="1215.904" x2="1298.896" y1="774.4" y2="774.4" /><line stroke="#2a2a2a" stroke-width="1.4" x1="1215.904" x2="1298.896" y1="799.6" y2="799.6" /><line stroke="#2a2a2a" stroke-width="1.4" x1="1215.904" x2="1298.896" y1="824.8" y2="824.8" /><line stroke="#2a2a2a" stroke-width="1.4" x1="1215.904" x2="1298.896" y1="850.0" y2="850.0" /><text fill="#202020" font-size="11" text-anchor="middle" x="1257.3999999999999" y="711.4">Stair (DN)</text><text fill="#3a3a3a" font-size="9.0" text-anchor="middle" x="1257.3999999999999" y="725.8">13R/12T</text><text fill="#4a4a4a" font-size="7.8" text-anchor="middle" x="1257.3999999999999" y="734.1999999999999">H2730 R210 T228</text><line stroke="#ffffff" stroke-width="7" x1="1202.8" x2="1312.0" y1="875.2" y2="875.2" /><line stroke="#5e5e5e" stroke-width="1.0" x1="1202.8" x2="1312.0" y1="875.2" y2="875.2" /><line stroke="#ffffff" stroke-width="6" x1="789.1" x2="906.7" y1="547.6" y2="547.6" /><line stroke="#595959" stroke-width="1.2" x1="789.1" x2="865.54" y1="547.6" y2="471.16" /><path d="M 865.54,547.5999999999999 A 76.44,76.44 0 0 1 865.54,471.15999999999997" fill="none" stroke="#7a7a7a" stroke-width="1.0" /><line stroke="#ffffff" stroke-width="6" x1="789.1" x2="906.7" y1="656.8" y2="656.8" /><line stroke="#595959" stroke-width="1.2" x1="789.1" x2="865.54" y1="656.8" y2="733.24" /><path d="M 865.54,656.8 A 76.44,76.44 0 0 1 865.54,733.24" fill="none" stroke="#7a7a7a" stroke-width="1.0" /><line stroke="#ffffff" stroke-width="6" x1="602.2" x2="602.2" y1="556.6" y2="647.8" /><line stroke="#ffffff" stroke-width="6" x1="602.2" x2="602.2" y1="761.8" y2="879.4" /><line stroke="#ffffff" stroke-width="6" x1="602.2" x2="602.2" y1="280.06" y2="378.34" /><line stroke="#66a7ff" stroke-width="2.2" x1="1309.36" x2="1309.36" y1="328.12" y2="439.48" /><line stroke="#66a7ff" stroke-width="2.2" x1="1314.64" x2="1314.64" y1="328.12" y2="439.48" /><line stroke="#66a7ff" stroke-width="2.2" x1="704.944" x2="896.944" y1="217.36" y2="217.36" /><line stroke="#66a7ff" stroke-width="2.2" x1="704.944" x2="896.944" y1="222.64" y2="222.64" /><line stroke="#66a7ff" stroke-width="2.2" x1="1017.256" x2="1209.256" y1="217.36" y2="217.36" /><line stroke="#66a7ff" stroke-width="2.2" x1="1017.256" x2="1209.256" y1="222.64" y2="222.64" /><line stroke="#66a7ff" stroke-width="2.2" x1="656.272" x2="823.312" y1="981.76" y2="981.76" /><line stroke="#66a7ff" stroke-width="2.2" x1="656.272" x2="823.312" y1="987.04" y2="987.04" /><line stroke="#66a7ff" stroke-width="2.2" x1="872.488" x2="1039.528" y1="981.76" y2="981.76" /><line stroke="#66a7ff" stroke-width="2.2" x1="872.488" x2="1039.528" y1="987.04" y2="987.04" /><line stroke="#66a7ff" stroke-width="2.2" x1="217.36" x2="217.36" y1="498.46" y2="684.1" /><line stroke="#66a7ff" stroke-width="2.2" x1="222.64" x2="222.64" y1="498.46" y2="684.1" /><line stroke="#66a7ff" stroke-width="2.2" x1="217.36" x2="217.36" y1="738.7" y2="924.34" /><line stroke="#66a7ff" stroke-width="2.2" x1="222.64" x2="222.64" y1="738.7" y2="924.34" /><line stroke="#66a7ff" stroke-width="2.2" x1="346.18" x2="476.02" y1="981.76" y2="981.76" /><line stroke="#66a7ff" stroke-width="2.2" x1="346.18" x2="476.02" y1="987.04" y2="987.04" /><line stroke="#9a9a9a" stroke-width="0.8" x1="1102.0" x2="1194.4" y1="556.0" y2="556.0" /><line stroke="#9a9a9a" stroke-width="0.8" x1="1102.0" x2="1102.0" y1="552.64" y2="559.36" /><line stroke="#9a9a9a" stroke-width="0.8" x1="1194.4" x2="1194.4" y1="552.64" y2="559.36" /><text fill="#8a8a8a" font-size="7.6" text-anchor="start" x="1108.7199999999998" y="553.36">910mm</text><line stroke="#9a9a9a" stroke-width="0.8" x1="1102.0" x2="1102.0" y1="556.0" y2="866.8" /><line stroke="#9a9a9a" stroke-width="0.8" x1="1098.64" x2="1105.36" y1="556.0" y2="556.0" /><line stroke="#9a9a9a" stroke-width="0.8" x1="1098.64" x2="1105.36" y1="866.8" y2="866.8" /><text fill="#8a8a8a" font-size="7.6" text-anchor="start" x="1106.08" y="563.6800000000001">2730mm</text><text fill="#1b1b1b" font-size="10" text-anchor="middle" x="847.9" y="806.1999999999999">Bedroom 2</text><text fill="#1b1b1b" font-size="10" text-anchor="middle" x="847.9" y="817.0">4095x2730mm</text><text fill="#1b1b1b" font-size="10" text-anchor="middle" x="847.9" y="827.8">11.2sqm / 6.9jo</text><text fill="#1b1b1b" font-size="10" text-anchor="middle" x="411.1" y="697.0">Bedroom 3</text><text fill="#1b1b1b" font-size="10" text-anchor="middle" x="411.1" y="707.8">3185x4550mm</text><text fill="#1b1b1b" font-size="10" text-anchor="middle" x="411.1" y="718.5999999999999">14.5sqm / 8.9jo</text><text fill="#1b1b1b" font-size="9" text-anchor="middle" x="1017.4473684210526" y="691.2526315789473">Hall 2</text><text fill="#1b1b1b" font-size="9" text-anchor="middle" x="1017.4473684210526" y="702.0526315789473">7.9sqm / 4.9jo</text><text fill="#1b1b1b" font-size="10" text-anchor="middle" x="957.1" y="369.4">Master</text><text fill="#1b1b1b" font-size="10" text-anchor="middle" x="957.1" y="380.2">5915x2730mm</text><text fill="#1b1b1b" font-size="10" text-anchor="middle" x="957.1" y="391.0">16.1sqm / 10.0jo</text><text fill="#1b1b1b" font-size="10" text-anchor="middle" x="411.1" y="314.8">Roof Buffer</text><text fill="#1b1b1b" font-size="10" text-anchor="middle" x="411.1" y="325.6">3185x1820mm</text><text fill="#1b1b1b" font-size="10" text-anchor="middle" x="411.1" y="336.4">5.8sqm / 3.6jo</text><text fill="#111111" font-size="14" x="220.0" y="180.0">F2 Plan  (9100 x 6370 mm)</text><text fill="#444444" font-size="10" x="220.0" y="198.0">Scale: 1px=8.3mm</text><rect fill="#ffffff" height="126" stroke="#777777" stroke-width="1" width="170" x="1400.0" y="150.0" /><text fill="#111111" font-size="11" x="1408.0" y="164.0">Legend</text><rect fill="#efe9ff" height="12" stroke="#333333" stroke-width="1" width="12" x="1408.0" y="174.0" /><text fill="#222222" font-size="10" x="1426.0" y="184.0">Hall</text><rect fill="#c5e8ff" height="12" stroke="#333333" stroke-width="1" width="12" x="1408.0" y="192.0" /><text fill="#222222" font-size="10" x="1426.0" y="202.0">Master Bedroom</text><rect fill="#d9f2ff" height="12" stroke="#333333" stroke-width="1" width="12" x="1408.0" y="210.0" /><text fill="#222222" font-size="10" x="1426.0" y="220.0">Bedroom</text><rect fill="#f0f0f0" height="12" stroke="#333333" stroke-width="1" width="12" x="1408.0" y="228.0" /><text fill="#222222" font-size="10" x="1426.0" y="238.0">Storage</text><line stroke="#6aa4ff" stroke-width="4" x1="1408.0" x2="1435.0" y1="258.0" y2="258.0" /><text fill="#222222" font-size="10" x="1442.0" y="261.0">Window</text><line stroke="#666666" stroke-width="2.4" x1="1408.0" x2="1435.0" y1="274.0" y2="274.0" /><path d="M 1408.0,274.0 A 10,10 0 0 1 1418.0,264.0" fill="none" stroke="#666666" stroke-width="1.2" /><text fill="#222222" font-size="10" x="1442.0" y="277.0">Door</text><rect fill="#ffffff" height="84" stroke="#777777" stroke-width="1" width="200" x="1400.0" y="520.0" /><text fill="#111111" font-size="10" x="1408.0" y="533.0">Area (F2)</text><text fill="#222222" font-size="9" x="1408.0" y="550.0">F1: in 58.0 sqm (17.5 tsubo), out 0.0 sqm (0.0 tsubo)</text><text fill="#222222" font-size="9" x="1408.0" y="566.0">F2: in 58.0 sqm (17.5 tsubo), out 0.0 sqm (0.0 tsubo)</text><text fill="#222222" font-size="9" x="1408.0" y="582.0">Total indoor: 115.9 sqm (35.1 tsubo)</text><text fill="#222222" font-size="9" x="1408.0" y="598.0">Total outdoor: 0.0 sqm (0.0 tsubo)</text><line stroke="#111111" stroke-width="2" x1="175.0" x2="175.0" y1="238.0" y2="208.0" /><polygon fill="#111111" points="175.0,208.0 181.0,214.0 169.0,214.0" /><text fill="#111111" font-size="12" x="170.0" y="202.0">N</text><line stroke="#545454" stroke-width="1.0" x1="220.0" x2="1312.0" y1="148.0" y2="148.0" /><line stroke="#545454" stroke-width="0.8" x1="220.0" x2="220.0" y1="220.0" y2="148.0" /><line stroke="#545454" stroke-width="1.0" x1="220.0" x2="220.0" y1="145.0" y2="151.0" /><line stroke="#545454" stroke-width="0.8" x1="1312.0" x2="1312.0" y1="220.0" y2="148.0" /><line stroke="#545454" stroke-width="1.0" x1="1312.0" x2="1312.0" y1="145.0" y2="151.0" /><text fill="#545454" font-size="8.8" text-anchor="middle" x="766.0" y="145.0">9100mm</text><line stroke="#666666" stroke-width="1.0" x1="220.0" x2="1312.0" y1="166.0" y2="166.0" /><line stroke="#666666" stroke-width="0.8" x1="220.0" x2="220.0" y1="220.0" y2="166.0" /><line stroke="#666666" stroke-width="1.0" x1="220.0" x2="220.0" y1="163.0" y2="169.0" /><line stroke="#666666" stroke-width="0.8" x1="602.2" x2="602.2" y1="220.0" y2="166.0" /><line stroke="#666666" stroke-width="1.0" x1="602.2" x2="602.2" y1="163.0" y2="169.0" /><line stroke="#666666" stroke-width="0.8" x1="1312.0" x2="1312.0" y1="220.0" y2="166.0" /><line stroke="#666666" stroke-width="1.0" x1="1312.0" x2="1312.0" y1="163.0" y2="169.0" /><text fill="#666666" font-size="8.2" text-anchor="middle" x="411.1" y="163.0">3185</text><text fill="#666666" font-size="8.2" text-anchor="middle" x="957.1" y="163.0">5915</text><line stroke="#7a7a7a" stroke-width="1.0" x1="220.0" x2="1312.0" y1="184.0" y2="184.0" /><line stroke="#7a7a7a" stroke-width="0.8" x1="220.0" x2="220.0" y1="220.0" y2="184.0" /><line stroke="#7a7a7a" stroke-width="1.0" x1="220.0" x2="220.0" y1="181.0" y2="187.0" /><line stroke="#7a7a7a" stroke-width="0.8" x1="711.4" x2="711.4" y1="220.0" y2="184.0" /><line stroke="#7a7a7a" stroke-width="1.0" x1="711.4" x2="711.4" y1="181.0" y2="187.0" /><line stroke="#7a7a7a" stroke-width="0.8" x1="875.2" x2="875.2" y1="220.0" y2="184.0" /><line stroke="#7a7a7a" stroke-width="1.0" x1="875.2" x2="875.2" y1="181.0" y2="187.0" /><line stroke="#7a7a7a" stroke-width="0.8" x1="1039.0" x2="1039.0" y1="220.0" y2="184.0" /><line stroke="#7a7a7a" stroke-width="1.0" x1="1039.0" x2="1039.0" y1="181.0" y2="187.0" /><line stroke="#7a7a7a" stroke-width="0.8" x1="1202.8" x2="1202.8" y1="220.0" y2="184.0" /><line stroke="#7a7a7a" stroke-width="1.0" x1="1202.8" x2="1202.8" y1="181.0" y2="187.0" /><line stroke="#7a7a7a" stroke-width="0.8" x1="1312.0" x2="1312.0" y1="220.0" y2="184.0" /><line stroke="#7a7a7a" stroke-width="1.0" x1="1312.0" x2="1312.0" y1="181.0" y2="187.0" /><text fill="#7a7a7a" font-size="7.8" text-anchor="middle" x="465.7" y="181.0">4095</text><text fill="#7a7a7a" font-size="7.8" text-anchor="middle" x="793.3" y="181.0">1365</text><text fill="#7a7a7a" font-size="7.8" text-anchor="middle" x="957.1" y="181.0">1365</text><text fill="#7a7a7a" font-size="7.8" text-anchor="middle" x="1120.9" y="181.0">1365</text><text fill="#7a7a7a" font-size="7.8" text-anchor="middle" x="1257.3999999999999" y="181.0">910</text><line stroke="#545454" stroke-width="1.0" x1="220.0" x2="1312.0" y1="1056.4" y2="1056.4" /><line stroke="#545454" stroke-width="0.8" x1="220.0" x2="220.0" y1="984.4" y2="1056.4" /><line stroke="#545454" stroke-width="1.0" x1="220.0" x2="220.0" y1="1053.4" y2="1059.4" /><line stroke="#545454" stroke-width="0.8" x1="1312.0" x2="1312.0" y1="984.4" y2="1056.4" /><line stroke="#545454" stroke-width="1.0" x1="1312.0" x2="1312.0" y1="1053.4" y2="1059.4" /><text fill="#545454" font-size="8.8" text-anchor="middle" x="766.0" y="1066.4">9100mm</text><line stroke="#666666" stroke-width="1.0" x1="220.0" x2="1312.0" y1="1038.4" y2="1038.4" /><line stroke="#666666" stroke-width="0.8" x1="220.0" x2="220.0" y1="984.4" y2="1038.4" /><line stroke="#666666" stroke-width="1.0" x1="220.0" x2="220.0" y1="1035.4" y2="1041.4" /><line stroke="#666666" stroke-width="0.8" x1="602.2" x2="602.2" y1="984.4" y2="1038.4" /><line stroke="#666666" stroke-width="1.0" x1="602.2" x2="602.2" y1="1035.4" y2="1041.4" /><line stroke="#666666" stroke-width="0.8" x1="1093.6" x2="1093.6" y1="984.4" y2="1038.4" /><line stroke="#666666" stroke-width="1.0" x1="1093.6" x2="1093.6" y1="1035.4" y2="1041.4" /><line stroke="#666666" stroke-width="0.8" x1="1312.0" x2="1312.0" y1="984.4" y2="1038.4" /><line stroke="#666666" stroke-width="1.0" x1="1312.0" x2="1312.0" y1="1035.4" y2="1041.4" /><text fill="#666666" font-size="8.2" text-anchor="middle" x="411.1" y="1048.4">3185</text><text fill="#666666" font-size="8.2" text-anchor="middle" x="847.9" y="1048.4">4095</text><text fill="#666666" font-size="8.2" text-anchor="middle" x="1202.8" y="1048.4">1820</text><line stroke="#7a7a7a" stroke-width="1.0" x1="220.0" x2="1312.0" y1="1020.4" y2="1020.4" /><line stroke="#7a7a7a" stroke-width="0.8" x1="220.0" x2="220.0" y1="984.4" y2="1020.4" /><line stroke="#7a7a7a" stroke-width="1.0" x1="220.0" x2="220.0" y1="1017.4" y2="1023.4" /><line stroke="#7a7a7a" stroke-width="0.8" x1="329.2" x2="329.2" y1="984.4" y2="1020.4" /><line stroke="#7a7a7a" stroke-width="1.0" x1="329.2" x2="329.2" y1="1017.4" y2="1023.4" /><line stroke="#7a7a7a" stroke-width="0.8" x1="493.0" x2="493.0" y1="984.4" y2="1020.4" /><line stroke="#7a7a7a" stroke-width="1.0" x1="493.0" x2="493.0" y1="1017.4" y2="1023.4" /><line stroke="#7a7a7a" stroke-width="0.8" x1="656.8" x2="656.8" y1="984.4" y2="1020.4" /><line stroke="#7a7a7a" stroke-width="1.0" x1="656.8" x2="656.8" y1="1017.4" y2="1023.4" /><line stroke="#7a7a7a" stroke-width="0.8" x1="820.6" x2="820.6" y1="984.4" y2="1020.4" /><line stroke="#7a7a7a" stroke-width="1.0" x1="820.6" x2="820.6" y1="1017.4" y2="1023.4" /><line stroke="#7a7a7a" stroke-width="0.8" x1="875.2" x2="875.2" y1="984.4" y2="1020.4" /><line stroke="#7a7a7a" stroke-width="1.0" x1="875.2" x2="875.2" y1="1017.4" y2="1023.4" /><line stroke="#7a7a7a" stroke-width="0.8" x1="1039.0" x2="1039.0" y1="984.4" y2="1020.4" /><line stroke="#7a7a7a" stroke-width="1.0" x1="1039.0" x2="1039.0" y1="1017.4" y2="1023.4" /><line stroke="#7a7a7a" stroke-width="0.8" x1="1312.0" x2="1312.0" y1="984.4" y2="1020.4" /><line stroke="#7a7a7a" stroke-width="1.0" x1="1312.0" x2="1312.0" y1="1017.4" y2="1023.4" /><text fill="#7a7a7a" font-size="7.8" text-anchor="middle" x="274.6" y="1030.4">910</text><text fill="#7a7a7a" font-size="7.8" text-anchor="middle" x="411.1" y="1030.4">1365</text><text fill="#7a7a7a" font-size="7.8" text-anchor="middle" x="574.9" y="1030.4">1365</text><text fill="#7a7a7a" font-size="7.8" text-anchor="middle" x="738.6999999999999" y="1030.4">1365</text><text fill="#7a7a7a" font-size="7.8" text-anchor="middle" x="957.1" y="1030.4">1365</text><text fill="#7a7a7a" font-size="7.8" text-anchor="middle" x="1175.5" y="1030.4">2275</text><line stroke="#545454" stroke-width="1.0" x1="148.0" x2="148.0" y1="220.0" y2="984.4" /><line stroke="#545454" stroke-width="0.8" x1="220.0" x2="148.0" y1="220.0" y2="220.0" /><line stroke="#545454" stroke-width="1.0" x1="145.0" x2="151.0" y1="220.0" y2="220.0" /><line stroke="#545454" stroke-width="0.8" x1="220.0" x2="148.0" y1="984.4" y2="984.4" /><line stroke="#545454" stroke-width="1.0" x1="145.0" x2="151.0" y1="984.4" y2="984.4" /><text fill="#545454" font-size="8.8" x="144.0" y="602.2">6370mm</text><line stroke="#666666" stroke-width="1.0" x1="166.0" x2="166.0" y1="220.0" y2="984.4" /><line stroke="#666666" stroke-width="0.8" x1="220.0" x2="166.0" y1="220.0" y2="220.0" /><line stroke="#666666" stroke-width="1.0" x1="163.0" x2="169.0" y1="220.0" y2="220.0" /><line stroke="#666666" stroke-width="0.8" x1="220.0" x2="166.0" y1="438.4" y2="438.4" /><line stroke="#666666" stroke-width="1.0" x1="163.0" x2="169.0" y1="438.4" y2="438.4" /><line stroke="#666666" stroke-width="0.8" x1="220.0" x2="166.0" y1="984.4" y2="984.4" /><line stroke="#666666" stroke-width="1.0" x1="163.0" x2="169.0" y1="984.4" y2="984.4" /><text fill="#666666" font-size="8.2" x="162.0" y="329.2">1820</text><text fill="#666666" font-size="8.2" x="162.0" y="711.4">4550</text><line stroke="#7a7a7a" stroke-width="1.0" x1="184.0" x2="184.0" y1="220.0" y2="984.4" /><line stroke="#7a7a7a" stroke-width="0.8" x1="220.0" x2="184.0" y1="220.0" y2="220.0" /><line stroke="#7a7a7a" stroke-width="1.0" x1="181.0" x2="187.0" y1="220.0" y2="220.0" /><line stroke="#7a7a7a" stroke-width="0.8" x1="220.0" x2="184.0" y1="493.0" y2="493.0" /><line stroke="#7a7a7a" stroke-width="1.0" x1="181.0" x2="187.0" y1="493.0" y2="493.0" /><line stroke="#7a7a7a" stroke-width="0.8" x1="220.0" x2="184.0" y1="711.4" y2="711.4" /><line stroke="#7a7a7a" stroke-width="1.0" x1="181.0" x2="187.0" y1="711.4" y2="711.4" /><line stroke="#7a7a7a" stroke-width="0.8" x1="220.0" x2="184.0" y1="929.8" y2="929.8" /><line stroke="#7a7a7a" stroke-width="1.0" x1="181.0" x2="187.0" y1="929.8" y2="929.8" /><line stroke="#7a7a7a" stroke-width="0.8" x1="220.0" x2="184.0" y1="984.4" y2="984.4" /><line stroke="#7a7a7a" stroke-width="1.0" x1="181.0" x2="187.0" y1="984.4" y2="984.4" /><text fill="#7a7a7a" font-size="7.8" x="180.0" y="356.5">2275</text><text fill="#7a7a7a" font-size="7.8" x="180.0" y="602.2">1820</text><text fill="#7a7a7a" font-size="7.8" x="180.0" y="820.6">1820</text><line stroke="#545454" stroke-width="1.0" x1="1384.0" x2="1384.0" y1="220.0" y2="984.4" /><line stroke="#545454" stroke-width="0.8" x1="1312.0" x2="1384.0" y1="220.0" y2="220.0" /><line stroke="#545454" stroke-width="1.0" x1="1381.0" x2="1387.0" y1="220.0" y2="220.0" /><line stroke="#545454" stroke-width="0.8" x1="1312.0" x2="1384.0" y1="984.4" y2="984.4" /><line stroke="#545454" stroke-width="1.0" x1="1381.0" x2="1387.0" y1="984.4" y2="984.4" /><text fill="#545454" font-size="8.8" x="1389.0" y="602.2">6370mm</text><line stroke="#666666" stroke-width="1.0" x1="1366.0" x2="1366.0" y1="220.0" y2="984.4" /><line stroke="#666666" stroke-width="0.8" x1="1312.0" x2="1366.0" y1="220.0" y2="220.0" /><line stroke="#666666" stroke-width="1.0" x1="1363.0" x2="1369.0" y1="220.0" y2="220.0" /><line stroke="#666666" stroke-width="0.8" x1="1312.0" x2="1366.0" y1="547.6" y2="547.6" /><line stroke="#666666" stroke-width="1.0" x1="1363.0" x2="1369.0" y1="547.6" y2="547.6" /><line stroke="#666666" stroke-width="0.8" x1="1312.0" x2="1366.0" y1="875.2" y2="875.2" /><line stroke="#666666" stroke-width="1.0" x1="1363.0" x2="1369.0" y1="875.2" y2="875.2" /><line stroke="#666666" stroke-width="0.8" x1="1312.0" x2="1366.0" y1="984.4" y2="984.4" /><line stroke="#666666" stroke-width="1.0" x1="1363.0" x2="1369.0" y1="984.4" y2="984.4" /><text fill="#666666" font-size="8.2" x="1371.0" y="383.79999999999995">2730</text><text fill="#666666" font-size="8.2" x="1371.0" y="711.4">2730</text><text fill="#666666" font-size="8.2" x="1371.0" y="929.8">910</text><line stroke="#7a7a7a" stroke-width="1.0" x1="1348.0" x2="1348.0" y1="220.0" y2="984.4" /><line stroke="#7a7a7a" stroke-width="0.8" x1="1312.0" x2="1348.0" y1="220.0" y2="220.0" /><line stroke="#7a7a7a" stroke-width="1.0" x1="1345.0" x2="1351.0" y1="220.0" y2="220.0" /><line stroke="#7a7a7a" stroke-width="0.8" x1="1312.0" x2="1348.0" y1="329.2" y2="329.2" /><line stroke="#7a7a7a" stroke-width="1.0" x1="1345.0" x2="1351.0" y1="329.2" y2="329.2" /><line stroke="#7a7a7a" stroke-width="0.8" x1="1312.0" x2="1348.0" y1="438.4" y2="438.4" /><line stroke="#7a7a7a" stroke-width="1.0" x1="1345.0" x2="1351.0" y1="438.4" y2="438.4" /><line stroke="#7a7a7a" stroke-width="0.8" x1="1312.0" x2="1348.0" y1="984.4" y2="984.4" /><line stroke="#7a7a7a" stroke-width="1.0" x1="1345.0" x2="1351.0" y1="984.4" y2="984.4" /><text fill="#7a7a7a" font-size="7.8" x="1353.0" y="274.6">910</text><text fill="#7a7a7a" font-size="7.8" x="1353.0" y="383.79999999999995">910</text><text fill="#7a7a7a" font-size="7.8" x="1353.0" y="711.4">4550</text></svg>