<?xml version="1.0" encoding="utf-8" ?>
<svg baseProfile="tiny" height="1095.1999999999998px" version="1.2" width="1313.6px" xmlns="http://www.w3.org/2000/svg" xmlns:ev="http://www.w3.org/2001/xml-events" xmlns:xlink="http://www.w3.org/1999/xlink"><defs /><rect fill="#fafafa" height="1095.2" width="1313.6" x="0" y="0" /><line stroke="#ececec" stroke-width="0.7" x1="220.0" x2="220.0" y1="220.0" y2="875.2" /><line stroke="#ececec" stroke-width="0.7" x1="274.6" x2="274.6" y1="220.0" y2="875.2" /><line stroke="#ececec" stroke-width="0.7" x1="329.2" x2="329.2" y1="220.0" y2="875.2" /><line stroke="#ececec" stroke-width="0.7" x1="383.8" x2="383.8" y1="220.0" y2="875.2" /><line stroke="#ececec" stroke-width="0.7" x1="438.4" x2="438.4" y1="220.0" y2="875.2" /><line stroke="#ececec" stroke-width="0.7" x1="493.0" x2="493.0" y1="220.0" y2="875.2" /><line stroke="#ececec" stroke-width="0.7" x1="547.6" x2="547.6" y1="220.0" y2="875.2" /><line stroke="#ececec" stroke-width="0.7" x1="602.2" x2="602.2" y1="220.0" y2="875.2" /><line stroke="#ececec" stroke-width="0.7" x1="656.8" x2="656.8" y1="220.0" y2="875.2" /><line stroke="#ececec" stroke-width="0.7" x1="711.4" x2="711.4" y1="220.0" y2="875.2" /><line stroke="#ececec" stroke-width="0.7" x1="766.0" x2="766.0" y1="220.0" y2="875.2" /><line stroke="#ececec" stroke-width="0.7" x1="820.6" x2="820.6" y1="220.0" y2="875.2" /><line stroke="#ececec" stroke-width="0.7" x1="875.2" x2="875.2" y1="220.0" y2="875.2" /><line stroke="#ececec" stroke-width="0.7" x1="929.8" x2="929.8" y1="220.0" y2="875.2" /><line stroke="#ececec" stroke-width="0.7" x1="984.4" x2="984.4" y1="220.0" y2="875.2" /><line stroke="#ececec" stroke-width="0.7" x1="1039.0" x2="1039.0" y1="220.0" y2="875.2" /><line stroke="#ececec" stroke-width="0.7" x1="1093.6" x2="1093.6" y1="220.0" y2="875.2" /><line stroke="#d1d1d1" stroke-width="1.1" x1="220.0" x2="220.0" y1="220.0" y2="875.2" /><line stroke="#d1d1d1" stroke-width="1.1" x1="329.2" x2="329.2" y1="220.0" y2="875.2" /><line stroke="#d1d1d1" stroke-width="1.1" x1="438.4" x2="438.4" y1="220.0" y2="875.2" /><line stroke="#d1d1d1" stroke-width="1.1" x1="547.6" x2="547.6" y1="220.0" y2="875.2" /><line stroke="#d1d1d1" stroke-width="1.1" x1="656.8" x2="656.8" y1="220.0" y2="875.2" /><line stroke="#d1d1d1" stroke-width="1.1" x1="766.0" x2="766.0" y1="220.0" y2="875.2" /><line stroke="#d1d1d1" stroke-width="1.1" x1="875.2" x2="875.2" y1="220.0" y2="875.2" /><line stroke="#d1d1d1" stroke-width="1.1" x1="984.4" x2="984.4" y1="220.0" y2="875.2" /><line stroke="#d1d1d1" stroke-width="1.1" x1="1093.6" x2="1093.6" y1="220.0" y2="875.2" /><line stroke="#d1d1d1" stroke-width="1.1" x1="220.0" x2="1093.6" y1="220.0" y2="220.0" /><line stroke="#d1d1d1" stroke-width="1.1" x1="220.0" x2="1093.6" y1="329.2" y2="329.2" /><line stroke="#d1d1d1" stroke-width="1.1" x1="220.0" x2="1093.6" y1="438.4" y2="438.4" /><line stroke="#d1d1d1" stroke-width="1.1" x1="220.0" x2="1093.6" y1="547.6" y2="547.6" /><line stroke="#d1d1d1" stroke-width="1.1" x1="220.0" x2="1093.6" y1="656.8" y2="656.8" /><line stroke="#d1d1d1" stroke-width="1.1" x1="220.0" x2="1093.6" y1="766.0" y2="766.0" /><line stroke="#d1d1d1" stroke-width="1.1" x1="220.0" x2="1093.6" y1="875.2" y2="875.2" /><line stroke="#ececec" stroke-width="0.7" x1="220.0" x2="1093.6" y1="220.0" y2="220.0" /><line stroke="#ececec" stroke-width="0.7" x1="220.0" x2="1093.6" y1="274.6" y2="274.6" /><line stroke="#ececec" stroke-width="0.7" x1="220.0" x2="1093.6" y1="329.2" y2="329.2" /><line stroke="#ececec" stroke-width="0.7" x1="220.0" x2="1093.6" y1="383.8" y2="383.8" /><line stroke="#ececec" stroke-width="0.7" x1="220.0" x2="1093.6" y1="438.4" y2="438.4" /><line stroke="#ececec" stroke-width="0.7" x1="220.0" x2="1093.6" y1="493.0" y2="493.0" /><line stroke="#ececec" stroke-width="0.7" x1="220.0" x2="1093.6" y1="547.6" y2="547.6" /><line stroke="#ececec" stroke-width="0.7" x1="220.0" x2="1093.6" y1="602.2" y2="602.2" /><line stroke="#ececec" stroke-width="0.7" x1="220.0" x2="1093.6" y1="656.8" y2="656.8" /><line stroke="#ececec" stroke-width="0.7" x1="220.0" x2="1093.6" y1="711.4" y2="711.4" /><line stroke="#ececec" stroke-width="0.7" x1="220.0" x2="1093.6" y1="766.0" y2="766.0" /><line stroke="#ececec" stroke-width="0.7" x1="220.0" x2="1093.6" y1="820.6" y2="820.6" /><line stroke="#ececec" stroke-width="0.7" x1="220.0" x2="1093.6" y1="875.2" y2="875.2" /><rect fill="none" height="655.2" stroke="#6a6a6a" stroke-dasharray="8,4" stroke-width="2" width="873.6" x="220.0" y="220.0" /><rect fill="none" height="655.2" stroke="#1f1f1f" stroke-width="3.5" width="873.6" x="220.0" y="220.0" /><text fill="#555555" font-size="10" x="222.0" y="160.0">Site Envelope = Building Footprint</text><rect fill="#dcecff" height="218.4" stroke="none" width="218.4" x="602.2" y="656.8" /><line stroke="#2f2f2f" stroke-width="2.2" x1="602.2" x2="820.6" y1="656.8" y2="656.8" /><line stroke="#2f2f2f" stroke-width="2.2" x1="602.2" x2="820.6" y1="875.2" y2="875.2" /><line stroke="#2f2f2f" stroke-width="2.2" x1="820.6" x2="820.6" y1="656.8" y2="875.2" /><line stroke="#2f2f2f" stroke-width="2.2" x1="602.2" x2="602.2" y1="656.8" y2="875.2" /><rect fill="#f8f0d9" height="163.8" stroke="none" width="273.0" x="820.6" y="711.4" /><line stroke="#2f2f2f" stroke-width="2.2" x1="820.6" x2="1093.6" y1="875.2" y2="875.2" /><line stroke="#2f2f2f" stroke-width="2.2" x1="820.6" x2="1093.6" y1="711.4" y2="711.4" /><line stroke="#2f2f2f" stroke-width="2.2" x1="820.6" x2="820.6" y1="711.4" y2="875.2" /><line stroke="#2f2f2f" stroke-width="2.2" x1="1093.6" x2="1093.6" y1="711.4" y2="875.2" /><rect fill="#efe9ff" height="382.2" stroke="none" width="163.8" x="820.6" y="329.2" /><rect fill="#efe9ff" height="218.4" stroke="none" width="109.2" x="711.4" y="220.0" /><line stroke="#2f2f2f" stroke-width="2.2" x1="711.4" x2="820.6" y1="438.4" y2="438.4" /><line stroke="#2f2f2f" stroke-width="2.2" x1="820.6" x2="984.4" y1="711.4" y2="711.4" /><line stroke="#2f2f2f" stroke-width="2.2" x1="711.4" x2="820.6" y1="220.0" y2="220.0" /><line stroke="#2f2f2f" stroke-width="2.2" x1="820.6" x2="984.4" y1="329.2" y2="329.2" /><line stroke="#2f2f2f" stroke-width="2.2" x1="984.4" x2="984.4" y1="329.2" y2="711.4" /><line stroke="#2f2f2f" stroke-width="2.2" x1="711.4" x2="711.4" y1="220.0" y2="438.4" /><line stroke="#2f2f2f" stroke-width="2.2" x1="820.6" x2="820.6" y1="220.0" y2="329.2" /><line stroke="#2f2f2f" stroke-width="2.2" x1="820.6" x2="820.6" y1="438.4" y2="711.4" /><rect fill="#ffe2b8" height="436.8" stroke="none" width="382.2" x="220.0" y="438.4" /><rect fill="#ffe2b8" height="218.4" stroke="none" width="491.4" x="220.0" y="220.0" /><line stroke="#2f2f2f" stroke-width="2.2" x1="220.0" x2="711.4" y1="220.0" y2="220.0" /><line stroke="#2f2f2f" stroke-width="2.2" x1="602.2" x2="711.4" y1="438.4" y2="438.4" /><line stroke="#2f2f2f" stroke-width="2.2" x1="220.0" x2="602.2" y1="875.2" y2="875.2" /><line stroke="#2f2f2f" stroke-width="2.2" x1="220.0" x2="220.0" y1="220.0" y2="875.2" /><line stroke="#2f2f2f" stroke-width="2.2" x1="602.2" x2="602.2" y1="438.4" y2="875.2" /><line stroke="#2f2f2f" stroke-width="2.2" x1="711.4" x2="711.4" y1="220.0" y2="438.4" /><rect fill="#fbe7e6" height="218.4" stroke="none" width="109.2" x="984.4" y="493.0" /><line stroke="#2f2f2f" stroke-width="2.2" x1="984.4" x2="1093.6" y1="711.4" y2="711.4" /><line stroke="#2f2f2f" stroke-width="2.2" x1="984.4" x2="1093.6" y1="493.0" y2="493.0" /><line stroke="#2f2f2f" stroke-width="2.2" x1="1093.6" x2="1093.6" y1="493.0" y2="711.4" /><line stroke="#2f2f2f" stroke-width="2.2" x1="984.4" x2="984.4" y1="493.0" y2="711.4" /><rect fill="#e7fbfb" height="218.4" stroke="none" width="218.4" x="602.2" y="438.4" /><line stroke="#2f2f2f" stroke-width="2.2" x1="602.2" x2="820.6" y1="438.4" y2="438.4" /><line stroke="#2f2f2f" stroke-width="2.2" x1="602.2" x2="820.6" y1="656.8" y2="656.8" /><line stroke="#2f2f2f" stroke-width="2.2" x1="820.6" x2="820.6" y1="438.4" y2="656.8" /><line stroke="#2f2f2f" stroke-width="2.2" x1="602.2" x2="602.2" y1="438.4" y2="656.8" /><rect fill="none" height="43.68" stroke="#8a6b4a" stroke-width="1.0" width="122.304" x="426.388" y="482.08" /><rect fill="none" height="96.096" stroke="#8a6b4a" stroke-width="1.0" width="39.312" x="509.38" y="482.08" /><circle cx="458.3944" cy="503.92" fill="none" r="8.4" stroke="#8a6b4a" stroke-width="0.9" /><circle cx="479.9944" cy="503.92" fill="none" r="8.4" stroke="#8a6b4a" stroke-width="0.9" /><rect fill="none" height="23.063" stroke="#8a6b4a" stroke-width="0.9" width="26.7322" x="515.2768" y="522.4403" /><rect fill="none" height="52.416" stroke="#8a6b4a" stroke-width="1.0" width="84.084" x="372.88" y="621.856" /><rect fill="none" height="48.048" stroke="#6f6f6f" stroke-width="1.0" width="74.256" x="641.512" y="477.712" /><rect fill="none" height="48.048" stroke="#6f6f6f" stroke-width="1.0" width="74.256" x="728.872" y="477.712" /><line stroke="#8f8f8f" stroke-width="0.8" x1="632.776" x2="790.024" y1="463.312" y2="463.312" /><circle cx="794.2" cy="464.8" fill="none" r="8.4" stroke="#7c7c7c" stroke-width="0.9" /><line stroke="#7c7c7c" stroke-width="0.8" x1="783.4" x2="805.0" y1="464.8" y2="464.8" /><line stroke="#7c7c7c" stroke-width="0.8" x1="794.2" x2="794.2" y1="454.0" y2="475.6" /><rect fill="none" height="109.2" rx="6" ry="6" stroke="#6f6f6f" stroke-width="1.0" width="135.408" x="645.88" y="704.848" /><circle cx="794.2" cy="683.2" fill="none" r="8.4" stroke="#7c7c7c" stroke-width="0.9" /><line stroke="#7c7c7c" stroke-width="0.8" x1="783.4" x2="805.0" y1="683.2" y2="683.2" /><line stroke="#7c7c7c" stroke-width="0.8" x1="794.2" x2="794.2" y1="672.4" y2="694.0" /><rect fill="#ffffff" height="109.2" stroke="#202020" stroke-dasharray="8,4" stroke-width="2.6" width="163.8" x="820.6" y="220.0" /><rect fill="#ffffff" height="109.2" stroke="#202020" stroke-dasharray="8,4" stroke-width="2.6" width="109.2" x="984.4" y="220.0" /><rect fill="#ffffff" height="163.8" stroke="#202020" stroke-dasharray="8,4" stroke-width="2.6" width="109.2" x="984.4" y="329.2" /><line stroke="#2a2a2a" stroke-width="1.4" x1="844.0" x2="844.0" y1="220.0" y2="329.2" /><line stroke="#2a2a2a" stroke-width="1.4" x1="867.4" x2="867.4" y1="220.0" y2="329.2" /><line stroke="#2a2a2a" stroke-width="1.4" x1="890.8" x2="890.8" y1="220.0" y2="329.2" /><line stroke="#2a2a2a" stroke-width="1.4" x1="914.2" x2="914.2" y1="220.0" y2="329.2" /><line stroke="#2a2a2a" stroke-width="1.4" x1="937.6" x2="937.6" y1="220.0" y2="329.2" /><line stroke="#2a2a2a" stroke-width="1.4" x1="961.0" x2="961.0" y1="220.0" y2="329.2" /><line stroke="#2a2a2a" stroke-width="1.4" x1="984.4" x2="1093.6" y1="352.6" y2="352.6" /><line stroke="#2a2a2a" stroke-width="1.4" x1="984.4" x2="1093.6" y1="376.0" y2="376.0" /><line stroke="#2a2a2a" stroke-width="1.4" x1="984.4" x2="1093.6" y1="399.4" y2="399.4" /><line stroke="#2a2a2a" stroke-width="1.4" x1="984.4" x2="1093.6" y1="422.8" y2="422.8" /><line stroke="#2a2a2a" stroke-width="1.4" x1="984.4" x2="1093.6" y1="446.2" y2="446.2" /><line stroke="#2a2a2a" stroke-width="1.4" x1="984.4" x2="1093.6" y1="469.6" y2="469.6" /><text fill="#202020" font-size="11" text-anchor="middle" x="902.5" y="274.6">Stair (UP)</text><text fill="#3a3a3a" font-size="9.0" text-anchor="middle" x="902.5" y="289.0">13R/12T</text><text fill="#4a4a4a" font-size="7.8" text-anchor="middle" x="902.5" y="297.4">H2730 R210 T228</text><line stroke="#ffffff" stroke-width="7" x1="820.6" x2="820.6" y1="220.0" y2="329.2" /><line stroke="#5e5e5e" stroke-width="1.0" x1="820.6" x2="820.6" y1="220.0" y2="329.2" /><line stroke="#ffffff" stroke-width="6" x1="856.9" x2="948.1" y1="711.4" y2="711.4" /><line stroke="#595959" stroke-width="1.2" x1="856.9" x2="916.18" y1="711.4" y2="770.68" /><path d="M 916.18,711.4 A 59.28,59.28 0 0 1 916.18,770.68" fill="none" stroke="#7a7a7a" stroke-width="1.0" /><line stroke="#ffffff" stroke-width="6" x1="711.4" x2="711.4" y1="280.06" y2="378.34" /><line stroke="#595959" stroke-width="1.2" x1="711.4" x2="647.518" y1="280.06" y2="343.942" /><path d="M 711.4,343.942 A 63.882,63.882 0 0 1 647.518,343.942" fill="none" stroke="#7a7a7a" stroke-width="1.0" /><line stroke="#ffffff" stroke-width="6" x1="984.4" x2="984.4" y1="553.06" y2="651.34" /><line stroke="#595959" stroke-width="1.2" x1="984.4" x2="920.518" y1="553.06" y2="616.942" /><path d="M 984.4,616.942 A 63.882,63.882 0 0 1 920.5179999999999,616.942" fill="none" stroke="#7a7a7a" stroke-width="1.0" /><line stroke="#ffffff" stroke-width="6" x1="820.6" x2="820.6" y1="498.46" y2="596.74" /><line stroke="#595959" stroke-width="1.2" x1="820.6" x2="884.482" y1="498.46" y2="562.342" /><path d="M 820.6,562.342 A 63.882,63.882 0 0 1 884.482,562.342" fill="none" stroke="#7a7a7a" stroke-width="1.0" /><line stroke="#ffffff" stroke-width="6" x1="662.26" x2="760.54" y1="656.8" y2="656.8" /><line stroke="#595959" stroke-width="1.2" x1="662.26" x2="726.142" y1="656.8" y2="592.918" /><path d="M 726.142,656.8 A 63.882,63.882 0 0 1 726.142,592.918" fill="none" stroke="#7a7a7a" stroke-width="1.0" /><line stroke="#ffffff" stroke-width="7" x1="898.3" x2="1015.9" y1="875.2" y2="875.2" /><line stroke="#595959" stroke-width="1.2" x1="898.3" x2="974.74" y1="875.2" y2="798.76" /><path d="M 974.74,875.1999999999999 A 76.44,76.44 0 0 1 974.74,798.76" fill="none" stroke="#7a7a7a" stroke-width="1.0" /><line stroke="#66a7ff" stroke-width="2.2" x1="1090.96" x2="1090.96" y1="738.7" y2="847.9" /><line stroke="#66a7ff" stroke-width="2.2" x1="1096.24" x2="1096.24" y1="738.7" y2="847.9" /><line stroke="#66a7ff" stroke-width="2.2" x1="217.36" x2="217.36" y1="486.484" y2="634.924" /><line stroke="#66a7ff" stroke-width="2.2" x1="222.64" x2="222.64" y1="486.484" y2="634.924" /><line stroke="#66a7ff" stroke-width="2.2" x1="217.36" x2="217.36" y1="678.676" y2="827.116" /><line stroke="#66a7ff" stroke-width="2.2" x1="222.64" x2="222.64" y1="678.676" y2="827.116" /><line stroke="#66a7ff" stroke-width="2.2" x1="346.18" x2="476.02" y1="872.56" y2="872.56" /><line stroke="#66a7ff" stroke-width="2.2" x1="346.18" x2="476.02" y1="877.84" y2="877.84" /><line stroke="#66a7ff" stroke-width="2.2" x1="217.36" x2="217.36" y1="274.6" y2="383.8" /><line stroke="#66a7ff" stroke-width="2.2" x1="222.64" x2="222.64" y1="274.6" y2="383.8" /><line stroke="#66a7ff" stroke-width="2.2" x1="274.072" x2="441.112" y1="217.36" y2="217.36" /><line stroke="#66a7ff" stroke-width="2.2" x1="274.072" x2="441.112" y1="222.64" y2="222.64" /><line stroke="#66a7ff" stroke-width="2.2" x1="490.288" x2="657.328" y1="217.36" y2="217.36" /><line stroke="#66a7ff" stroke-width="2.2" x1="490.288" x2="657.328" y1="222.64" y2="222.64" /><line stroke="#9a9a9a" stroke-width="0.8" x1="829.0" x2="976.0" y1="337.6" y2="337.6" /><line stroke="#9a9a9a" stroke-width="0.8" x1="829.0" x2="829.0" y1="334.24" y2="340.96" /><line stroke="#9a9a9a" stroke-width="0.8" x1="976.0" x2="976.0" y1="334.24" y2="340.96" /><text fill="#8a8a8a" font-size="7.6" text-anchor="start" x="835.72" y="334.96">1365mm</text><line stroke="#9a9a9a" stroke-width="0.8" x1="829.0" x2="829.0" y1="337.6" y2="703.0" /><line stroke="#9a9a9a" stroke-width="0.8" x1="825.64" x2="832.36" y1="337.6" y2="337.6" /><line stroke="#9a9a9a" stroke-width="0.8" x1="825.64" x2="832.36" y1="703.0" y2="703.0" /><text fill="#8a8a8a" font-size="7.6" text-anchor="start" x="833.0799999999999" y="345.28">3185mm</text><line stroke="#9a9a9a" stroke-width="0.8" x1="719.8" x2="812.2" y1="228.4" y2="228.4" /><line stroke="#9a9a9a" stroke-width="0.8" x1="719.8" x2="719.8" y1="225.04" y2="231.76" /><line stroke="#9a9a9a" stroke-width="0.8" x1="812.2" x2="812.2" y1="225.04" y2="231.76" /><text fill="#8a8a8a" font-size="7.6" text-anchor="start" x="726.52" y="225.76">910mm</text><line stroke="#9a9a9a" stroke-width="0.8" x1="719.8" x2="719.8" y1="228.4" y2="430.0" /><line stroke="#9a9a9a" stroke-width="0.8" x1="716.44" x2="723.16" y1="228.4" y2="228.4" /><line stroke="#9a9a9a" stroke-width="0.8" x1="716.44" x2="723.16" y1="430.0" y2="430.0" /><text fill="#8a8a8a" font-size="7.6" text-anchor="start" x="723.88" y="236.07999999999998">1820mm</text><line stroke="#9a9a9a" stroke-width="0.8" x1="228.4" x2="593.8" y1="446.8" y2="446.8" /><line stroke="#9a9a9a" stroke-width="0.8" x1="228.4" x2="228.4" y1="443.44" y2="450.16" /><line stroke="#9a9a9a" stroke-width="0.8" x1="593.8" x2="593.8" y1="443.44" y2="450.16" /><text fill="#8a8a8a" font-size="7.6" text-anchor="start" x="235.12" y="444.15999999999997">3185mm</text><line stroke="#9a9a9a" stroke-width="0.8" x1="228.4" x2="228.4" y1="446.8" y2="866.8" /><line stroke="#9a9a9a" stroke-width="0.8" x1="225.04" x2="231.76" y1="446.8" y2="446.8" /><line stroke="#9a9a9a" stroke-width="0.8" x1="225.04" x2="231.76" y1="866.8" y2="866.8" /><text fill="#8a8a8a" font-size="7.6" text-anchor="start" x="232.48" y="454.48">3640mm</text><line stroke="#9a9a9a" stroke-width="0.8" x1="228.4" x2="703.0" y1="228.4" y2="228.4" /><line stroke="#9a9a9a" stroke-width="0.8" x1="228.4" x2="228.4" y1="225.04" y2="231.76" /><line stroke="#9a9a9a" stroke-width="0.8" x1="703.0" x2="703.0" y1="225.04" y2="231.76" /><text fill="#8a8a8a" font-size="7.6" text-anchor="start" x="235.12" y="225.76">4095mm</text><line stroke="#9a9a9a" stroke-width="0.8" x1="228.4" x2="228.4" y1="228.4" y2="430.0" /><line stroke="#9a9a9a" stroke-width="0.8" x1="225.04" x2="231.76" y1="228.4" y2="228.4" /><line stroke="#9a9a9a" stroke-width="0.8" x1="225.04" x2="231.76" y1="430.0" y2="430.0" /><text fill="#8a8a8a" font-size="7.6" text-anchor="start" x="232.48" y="236.07999999999998">1820mm</text><text fill="#1b1b1b" font-size="10" text-anchor="middle" x="711.4" y="751.6">Bath 1</text><text fill="#1b1b1b" font-size="10" text-anchor="middle" x="711.4" y="762.4">1820x1820mm</text><text fill="#1b1b1b" font-size="10" text-anchor="middle" x="711.4" y="773.1999999999999">3.3sqm / 2.0jo</text><text fill="#1b1b1b" font-size="10" text-anchor="middle" x="957.1" y="778.9">Entry</text><text fill="#1b1b1b" font-size="10" text-anchor="middle" x="957.1" y="789.6999999999999">2275x1365mm</text><text fill="#1b1b1b" font-size="10" text-anchor="middle" x="957.1" y="800.5">3.1sqm / 1.9jo</text><text fill="#1b1b1b" font-size="9" text-anchor="middle" x="864.8448275862069" y="453.1827586206897">Hall 1</text><text fill="#1b1b1b" font-size="9" text-anchor="middle" x="864.8448275862069" y="463.98275862068965">6.0sqm / 3.7jo</text><text fill="#1b1b1b" font-size="9" text-anchor="middle" x="432.46521739130435" y="514.2086956521739">Ldk</text><text fill="#1b1b1b" font-size="9" text-anchor="middle" x="432.46521739130435" y="525.0086956521739">L-shape (2 parts)</text><text fill="#1b1b1b" font-size="9" text-anchor="middle" x="432.46521739130435" y="535.8086956521738">3185x3640 | 4095x1820</text><text fill="#1b1b1b" font-size="9" text-anchor="middle" x="432.46521739130435" y="546.6086956521739">19.0sqm / 11.8jo</text><text fill="#1b1b1b" font-size="10" text-anchor="middle" x="1039.0" y="587.8">Toilet 1</text><text fill="#1b1b1b" font-size="10" text-anchor="middle" x="1039.0" y="598.5999999999999">910x1820mm</text><text fill="#1b1b1b" font-size="10" text-anchor="middle" x="1039.0" y="609.4">1.7sqm / 1.0jo</text><text fill="#1b1b1b" font-size="10" text-anchor="middle" x="711.4" y="533.2">Wash 1</text><text fill="#1b1b1b" font-size="10" text-anchor="middle" x="711.4" y="544.0">1820x1820mm</text><text fill="#1b1b1b" font-size="10" text-anchor="middle" x="711.4" y="554.8">3.3sqm / 2.0jo</text><text fill="#111111" font-size="14" x="220.0" y="180.0">F1 Plan  (7280 x 5460 mm)</text><text fill="#444444" font-size="10" x="220.0" y="198.0">Scale: 1px=8.3mm</text><rect fill="#ffffff" height="162" stroke="#777777" stroke-width="1" width="170" x="1181.6" y="150.0" /><text fill="#111111" font-size="11" x="1189.6" y="164.0">Legend</text><rect fill="#f8f0d9" height="12" stroke="#333333" stroke-width="1" width="12" x="1189.6" y="174.0" /><text fill="#222222" font-size="10" x="1207.6" y="184.0">Entry</text><rect fill="#efe9ff" height="12" stroke="#333333" stroke-width="1" width="12" x="1189.6" y="192.0" /><text fill="#222222" font-size="10" x="1207.6" y="202.0">Hall</text><rect fill="#ffe2b8" height="12" stroke="#333333" stroke-width="1" width="12" x="1189.6" y="210.0" /><text fill="#222222" font-size="10" x="1207.6" y="220.0">Ldk</text><rect fill="#fbe7e6" height="12" stroke="#333333" stroke-width="1" width="12" x="1189.6" y="228.0" /><text fill="#222222" font-size="10" x="1207.6" y="238.0">Toilet</text><rect fill="#e7fbfb" height="12" stroke="#333333" stroke-width="1" width="12" x="1189.6" y="246.0" /><text fill="#222222" font-size="10" x="1207.6" y="256.0">Washroom</text><rect fill="#dcecff" height="12" stroke="#333333" stroke-width="1" width="12" x="1189.6" y="264.0" /><text fill="#222222" font-size="10" x="1207.6" y="274.0">Bath</text><line stroke="#6aa4ff" stroke-width="4" x1="1189.6" x2="1216.6" y1="294.0" y2="294.0" /><text fill="#222222" font-size="10" x="1223.6" y="297.0">Window</text><line stroke="#666666" stroke-width="2.4" x1="1189.6" x2="1216.6" y1="310.0" y2="310.0" /><path d="M 1189.6,310.0 A 10,10 0 0 1 1199.6,300.0" fill="none" stroke="#666666" stroke-width="1.2" /><text fill="#222222" font-size="10" x="1223.6" y="313.0">Door</text><rect fill="#ffffff" height="84" stroke="#777777" stroke-width="1" width="200" x="1181.6" y="520.0" /><text fill="#111111" font-size="10" x="1189.6" y="533.0">Area (F1)</text><text fill="#222222" font-size="9" x="1189.6" y="550.0">F1: in 39.7 sqm (12.0 tsubo), out 0.0 sqm (0.0 tsubo)</text><text fill="#222222" font-size="9" x="1189.6" y="566.0">F2: in 39.7 sqm (12.0 tsubo), out 0.0 sqm (0.0 tsubo)</text><text fill="#222222" font-size="9" x="1189.6" y="582.0">Total indoor: 79.5 sqm (24.0 tsubo)</text><text fill="#222222" font-size="9" x="1189.6" y="598.0">Total outdoor: 0.0 sqm (0.0 tsubo)</text><line stroke="#111111" stroke-width="2" x1="175.0" x2="175.0" y1="238.0" y2="208.0" /><polygon fill="#111111" points="175.0,208.0 181.0,214.0 169.0,214.0" /><text fill="#111111" font-size="12" x="170.0" y="202.0">N</text><line stroke="#545454" stroke-width="1.0" x1="220.0" x2="1093.6" y1="148.0" y2="148.0" /><line stroke="#545454" stroke-width="0.8" x1="220.0" x2="220.0" y1="220.0" y2="148.0" /><line stroke="#545454" stroke-width="1.0" x1="220.0" x2="220.0" y1="145.0" y2="151.0" /><line stroke="#545454" stroke-width="0.8" x1="1093.6" x2="1093.6" y1="220.0" y2="148.0" /><line stroke="#545454" stroke-width="1.0" x1="1093.6" x2="1093.6" y1="145.0" y2="151.0" /><text fill="#545454" font-size="8.8" text-anchor="middle" x="656.8" y="145.0">7280mm</text><line stroke="#666666" stroke-width="1.0" x1="220.0" x2="1093.6" y1="166.0" y2="166.0" /><line stroke="#666666" stroke-width="0.8" x1="220.0" x2="220.0" y1="220.0" y2="166.0" /><line stroke="#666666" stroke-width="1.0" x1="220.0" x2="220.0" y1="163.0" y2="169.0" /><line stroke="#666666" stroke-width="0.8" x1="711.4" x2="711.4" y1="220.0" y2="166.0" /><line stroke="#666666" stroke-width="1.0" x1="711.4" x2="711.4" y1="163.0" y2="169.0" /><line stroke="#666666" stroke-width="0.8" x1="820.6" x2="820.6" y1="220.0" y2="166.0" /><line stroke="#666666" stroke-width="1.0" x1="820.6" x2="820.6" y1="163.0" y2="169.0" /><line stroke="#666666" stroke-width="0.8" x1="984.4" x2="984.4" y1="220.0" y2="166.0" /><line stroke="#666666" stroke-width="1.0" x1="984.4" x2="984.4" y1="163.0" y2="169.0" /><line stroke="#666666" stroke-width="0.8" x1="1093.6" x2="1093.6" y1="220.0" y2="166.0" /><line stroke="#666666" stroke-width="1.0" x1="1093.6" x2="1093.6" y1="163.0" y2="169.0" /><text fill="#666666" font-size="8.2" text-anchor="middle" x="465.7" y="163.0">4095</text><text fill="#666666" font-size="8.2" text-anchor="middle" x="766.0" y="163.0">910</text><text fill="#666666" font-size="8.2" text-anchor="middle" x="902.5" y="163.0">1365</text><text fill="#666666" font-size="8.2" text-anchor="middle" x="1039.0" y="163.0">910</text><line stroke="#7a7a7a" stroke-width="1.0" x1="220.0" x2="1093.6" y1="184.0" y2="184.0" /><line stroke="#7a7a7a" stroke-width="0.8" x1="220.0" x2="220.0" y1="220.0" y2="184.0" /><line stroke="#7a7a7a" stroke-width="1.0" x1="220.0" x2="220.0" y1="181.0" y2="187.0" /><line stroke="#7a7a7a" stroke-width="0.8" x1="274.6" x2="274.6" y1="220.0" y2="184.0" /><line stroke="#7a7a7a" stroke-width="1.0" x1="274.6" x2="274.6" y1="181.0" y2="187.0" /><line stroke="#7a7a7a" stroke-width="0.8" x1="438.4" x2="438.4" y1="220.0" y2="184.0" /><line stroke="#7a7a7a" stroke-width="1.0" x1="438.4" x2="438.4" y1="181.0" y2="187.0" /><line stroke="#7a7a7a" stroke-width="0.8" x1="493.0" x2="493.0" y1="220.0" y2="184.0" /><line stroke="#7a7a7a" stroke-width="1.0" x1="493.0" x2="493.0" y1="181.0" y2="187.0" /><line stroke="#7a7a7a" stroke-width="0.8" x1="656.8" x2="656.8" y1="220.0" y2="184.0" /><line stroke="#7a7a7a" stroke-width="1.0" x1="656.8" x2="656.8" y1="181.0" y2="187.0" /><line stroke="#7a7a7a" stroke-width="0.8" x1="1093.6" x2="1093.6" y1="220.0" y2="184.0" /><line stroke="#7a7a7a" stroke-width="1.0" x1="1093.6" x2="1093.6" y1="181.0" y2="187.0" /><text fill="#7a7a7a" font-size="7.8" text-anchor="middle" x="356.5" y="181.0">1365</text><text fill="#7a7a7a" font-size="7.8" text-anchor="middle" x="574.9" y="181.0">1365</text><text fill="#7a7a7a" font-size="7.8" text-anchor="middle" x="875.1999999999999" y="181.0">3640</text><line stroke="#545454" stroke-width="1.0" x1="220.0" x2="1093.6" y1="947.2" y2="947.2" /><line stroke="#545454" stroke-width="0.8" x1="220.0" x2="220.0" y1="875.2" y2="947.2" /><line stroke="#545454" stroke-width="1.0" x1="220.0" x2="220.0" y1="944.2" y2="950.2" /><line stroke="#545454" stroke-width="0.8" x1="1093.6" x2="1093.6" y1="875.2" y2="947.2" /><line stroke="#545454" stroke-width="1.0" x1="1093.6" x2="1093.6" y1="944.2" y2="950.2" /><text fill="#545454" font-size="8.8" text-anchor="middle" x="656.8" y="957.1999999999999">7280mm</text><line stroke="#666666" stroke-width="1.0" x1="220.0" x2="1093.6" y1="929.2" y2="929.2" /><line stroke="#666666" stroke-width="0.8" x1="220.0" x2="220.0" y1="875.2" y2="929.2" /><line stroke="#666666" stroke-width="1.0" x1="220.0" x2="220.0" y1="926.2" y2="932.2" /><line stroke="#666666" stroke-width="0.8" x1="602.2" x2="602.2" y1="875.2" y2="929.2" /><line stroke="#666666" stroke-width="1.0" x1="602.2" x2="602.2" y1="926.2" y2="932.2" /><line stroke="#666666" stroke-width="0.8" x1="820.6" x2="820.6" y1="875.2" y2="929.2" /><line stroke="#666666" stroke-width="1.0" x1="820.6" x2="820.6" y1="926.2" y2="932.2" /><line stroke="#666666" stroke-width="0.8" x1="1093.6" x2="1093.6" y1="875.2" y2="929.2" /><line stroke="#666666" stroke-width="1.0" x1="1093.6" x2="1093.6" y1="926.2" y2="932.2" /><text fill="#666666" font-size="8.2" text-anchor="middle" x="411.1" y="939.1999999999999">3185</text><text fill="#666666" font-size="8.2" text-anchor="middle" x="711.4" y="939.1999999999999">1820</text><text fill="#666666" font-size="8.2" text-anchor="middle" x="957.1" y="939.1999999999999">2275</text><line stroke="#7a7a7a" stroke-width="1.0" x1="220.0" x2="1093.6" y1="911.2" y2="911.2" /><line stroke="#7a7a7a" stroke-width="0.8" x1="220.0" x2="220.0" y1="875.2" y2="911.2" /><line stroke="#7a7a7a" stroke-width="1.0" x1="220.0" x2="220.0" y1="908.2" y2="914.2" /><line stroke="#7a7a7a" stroke-width="0.8" x1="329.2" x2="329.2" y1="875.2" y2="911.2" /><line stroke="#7a7a7a" stroke-width="1.0" x1="329.2" x2="329.2" y1="908.2" y2="914.2" /><line stroke="#7a7a7a" stroke-width="0.8" x1="493.0" x2="493.0" y1="875.2" y2="911.2" /><line stroke="#7a7a7a" stroke-width="1.0" x1="493.0" x2="493.0" y1="908.2" y2="914.2" /><line stroke="#7a7a7a" stroke-width="0.8" x1="875.2" x2="875.2" y1="875.2" y2="911.2" /><line stroke="#7a7a7a" stroke-width="1.0" x1="875.2" x2="875.2" y1="908.2" y2="914.2" /><line stroke="#7a7a7a" stroke-width="0.8" x1="1039.0" x2="1039.0" y1="875.2" y2="911.2" /><line stroke="#7a7a7a" stroke-width="1.0" x1="1039.0" x2="1039.0" y1="908.2" y2="914.2" /><line stroke="#7a7a7a" stroke-width="0.8" x1="1093.6" x2="1093.6" y1="875.2" y2="911.2" /><line stroke="#7a7a7a" stroke-width="1.0" x1="1093.6" x2="1093.6" y1="908.2" y2="914.2" /><text fill="#7a7a7a" font-size="7.8" text-anchor="middle" x="274.6" y="921.1999999999999">910</text><text fill="#7a7a7a" font-size="7.8" text-anchor="middle" x="411.1" y="921.1999999999999">1365</text><text fill="#7a7a7a" font-size="7.8" text-anchor="middle" x="684.0999999999999" y="921.1999999999999">3185</text><text fill="#7a7a7a" font-size="7.8" text-anchor="middle" x="957.1" y="921.1999999999999">1365</text><line stroke="#545454" stroke-width="1.0" x1="148.0" x2="148.0" y1="220.0" y2="875.2" /><line stroke="#545454" stroke-width="0.8" x1="220.0" x2="148.0" y1="220.0" y2="220.0" /><line stroke="#545454" stroke-width="1.0" x1="145.0" x2="151.0" y1="220.0" y2="220.0" /><line stroke="#545454" stroke-width="0.8" x1="220.0" x2="148.0" y1="875.2" y2="875.2" /><line stroke="#545454" stroke-width="1.0" x1="145.0" x2="151.0" y1="875.2" y2="875.2" /><text fill="#545454" font-size="8.8" x="144.0" y="547.5999999999999">5460mm</text><line stroke="#666666" stroke-width="1.0" x1="166.0" x2="166.0" y1="220.0" y2="875.2" /><line stroke="#666666" stroke-width="0.8" x1="220.0" x2="166.0" y1="220.0" y2="220.0" /><line stroke="#666666" stroke-width="1.0" x1="163.0" x2="169.0" y1="220.0" y2="220.0" /><line stroke="#666666" stroke-width="0.8" x1="220.0" x2="166.0" y1="438.4" y2="438.4" /><line stroke="#666666" stroke-width="1.0" x1="163.0" x2="169.0" y1="438.4" y2="438.4" /><line stroke="#666666" stroke-width="0.8" x1="220.0" x2="166.0" y1="875.2" y2="875.2" /><line stroke="#666666" stroke-width="1.0" x1="163.0" x2="169.0" y1="875.2" y2="875.2" /><text fill="#666666" font-size="8.2" x="162.0" y="329.2">1820</text><text fill="#666666" font-size="8.2" x="162.0" y="656.8">3640</text><line stroke="#7a7a7a" stroke-width="1.0" x1="184.0" x2="184.0" y1="220.0" y2="875.2" /><line stroke="#7a7a7a" stroke-width="0.8" x1="220.0" x2="184.0" y1="220.0" y2="220.0" /><line stroke="#7a7a7a" stroke-width="1.0" x1="181.0" x2="187.0" y1="220.0" y2="220.0" /><line stroke="#7a7a7a" stroke-width="0.8" x1="220.0" x2="184.0" y1="274.6" y2="274.6" /><line stroke="#7a7a7a" stroke-width="1.0" x1="181.0" x2="187.0" y1="274.6" y2="274.6" /><line stroke="#7a7a7a" stroke-width="0.8" x1="220.0" x2="184.0" y1="383.8" y2="383.8" /><line stroke="#7a7a7a" stroke-width="1.0" x1="181.0" x2="187.0" y1="383.8" y2="383.8" /><line stroke="#7a7a7a" stroke-width="0.8" x1="220.0" x2="184.0" y1="493.0" y2="493.0" /><line stroke="#7a7a7a" stroke-width="1.0" x1="181.0" x2="187.0" y1="493.0" y2="493.0" /><line stroke="#7a7a7a" stroke-width="0.8" x1="220.0" x2="184.0" y1="656.8" y2="656.8" /><line stroke="#7a7a7a" stroke-width="1.0" x1="181.0" x2="187.0" y1="656.8" y2="656.8" /><line stroke="#7a7a7a" stroke-width="0.8" x1="220.0" x2="184.0" y1="820.6" y2="820.6" /><line stroke="#7a7a7a" stroke-width="1.0" x1="181.0" x2="187.0" y1="820.6" y2="820.6" /><line stroke="#7a7a7a" stroke-width="0.8" x1="220.0" x2="184.0" y1="875.2" y2="875.2" /><line stroke="#7a7a7a" stroke-width="1.0" x1="181.0" x2="187.0" y1="875.2" y2="875.2" /><text fill="#7a7a7a" font-size="7.8" x="180.0" y="329.2">910</text><text fill="#7a7a7a" font-size="7.8" x="180.0" y="438.4">910</text><text fill="#7a7a7a" font-size="7.8" x="180.0" y="574.9">1365</text><text fill="#7a7a7a" font-size="7.8" x="180.0" y="738.6999999999999">1365</text><line stroke="#545454" stroke-width="1.0" x1="1165.6" x2="1165.6" y1="220.0" y2="875.2" /><line stroke="#545454" stroke-width="0.8" x1="1093.6" x2="1165.6" y1="220.0" y2="220.0" /><line stroke="#545454" stroke-width="1.0" x1="1162.6" x2="1168.6" y1="220.0" y2="220.0" /><line stroke="#545454" stroke-width="0.8" x1="1093.6" x2="1165.6" y1="875.2" y2="875.2" /><line stroke="#545454" stroke-width="1.0" x1="1162.6" x2="1168.6" y1="875.2" y2="875.2" /><text fill="#545454" font-size="8.8" x="1170.6" y="547.5999999999999">5460mm</text><line stroke="#666666" stroke-width="1.0" x1="1147.6" x2="1147.6" y1="220.0" y2="875.2" /><line stroke="#666666" stroke-width="0.8" x1="1093.6" x2="1147.6" y1="220.0" y2="220.0" /><line stroke="#666666" stroke-width="1.0" x1="1144.6" x2="1150.6" y1="220.0" y2="220.0" /><line stroke="#666666" stroke-width="0.8" x1="1093.6" x2="1147.6" y1="329.2" y2="329.2" /><line stroke="#666666" stroke-width="1.0" x1="1144.6" x2="1150.6" y1="329.2" y2="329.2" /><line stroke="#666666" stroke-width="0.8" x1="1093.6" x2="1147.6" y1="493.0" y2="493.0" /><line stroke="#666666" stroke-width="1.0" x1="1144.6" x2="1150.6" y1="493.0" y2="493.0" /><line stroke="#666666" stroke-width="0.8" x1="1093.6" x2="1147.6" y1="711.4" y2="711.4" /><line stroke="#666666" stroke-width="1.0" x1="1144.6" x2="1150.6" y1="711.4" y2="711.4" /><line stroke="#666666" stroke-width="0.8" x1="1093.6" x2="1147.6" y1="875.2" y2="875.2" /><line stroke="#666666" stroke-width="1.0" x1="1144.6" x2="1150.6" y1="875.2" y2="875.2" /><text fill="#666666" font-size="8.2" x="1152.6" y="274.6">910</text><text fill="#666666" font-size="8.2" x="1152.6" y="411.1">1365</text><text fill="#666666" font-size="8.2" x="1152.6" y="602.2">1820</text><text fill="#666666" font-size="8.2" x="1152.6" y="793.3">1365</text><line stroke="#7a7a7a" stroke-width="1.0" x1="1129.6" x2="1129.6" y1="220.0" y2="875.2" /><line stroke="#7a7a7a" stroke-width="0.8" x1="1093.6" x2="1129.6" y1="220.0" y2="220.0" /><line stroke="#7a7a7a" stroke-width="1.0" x1="1126.6" x2="1132.6" y1="220.0" y2="220.0" /><line stroke="#7a7a7a" stroke-width="0.8" x1="1093.6" x2="1129.6" y1="711.4" y2="711.4" /><line stroke="#7a7a7a" stroke-width="1.0" x1="1126.6" x2="1132.6" y1="711.4" y2="711.4" /><line stroke="#7a7a7a" stroke-width="0.8" x1="1093.6" x2="1129.6" y1="820.6" y2="820.6" /><line stroke="#7a7a7a" stroke-width="1.0" x1="1126.6" x2="1132.6" y1="820.6" y2="820.6" /><line stroke="#7a7a7a" stroke-width="0.8" x1="1093.6" x2="1129.6" y1="875.2" y2="875.2" /><line stroke="#7a7a7a" stroke-width="1.0" x1="1126.6" x2="1132.6" y1="875.2" y2="875.2" /><text fill="#7a7a7a" font-size="7.8" x="1134.6" y="465.7">4095</text><text fill="#7a7a7a" font-size="7.8" x="1134.6" y="766.0">910</text></svg>