<?xml version="1.0" encoding="utf-8" ?>
<svg baseProfile="tiny" height="1095.1999999999998px" version="1.2" width="1313.6px" xmlns="http://www.w3.org/2000/svg" xmlns:ev="http://www.w3.org/2001/xml-events" xmlns:xlink="http://www.w3.org/1999/xlink"><defs /><rect fill="#fafafa" height="1095.2" width="1313.6" x="0" y="0" /><line stroke="#ececec" stroke-width="0.7" x1="220.0" x2="220.0" y1="220.0" y2="875.2" /><line stroke="#ececec" stroke-width="0.7" x1="274.6" x2="274.6" y1="220.0" y2="875.2" /><line stroke="#ececec" stroke-width="0.7" x1="329.2" x2="329.2" y1="220.0" y2="875.2" /><line stroke="#ececec" stroke-width="0.7" x1="383.8" x2="383.8" y1="220.0" y2="875.2" /><line stroke="#ececec" stroke-width="0.7" x1="438.4" x2="438.4" y1="220.0" y2="875.2" /><line stroke="#ececec" stroke-width="0.7" x1="493.0" x2="493.0" y1="220.0" y2="875.2" /><line stroke="#ececec" stroke-width="0.7" x1="547.6" x2="547.6" y1="220.0" y2="875.2" /><line stroke="#ececec" stroke-width="0.7" x1="602.2" x2="602.2" y1="220.0" y2="875.2" /><line stroke="#ececec" stroke-width="0.7" x1="656.8" x2="656.8" y1="220.0" y2="875.2" /><line stroke="#ececec" stroke-width="0.7" x1="711.4" x2="711.4" y1="220.0" y2="875.2" /><line stroke="#ececec" stroke-width="0.7" x1="766.0" x2="766.0" y1="220.0" y2="875.2" /><line stroke="#ececec" stroke-width="0.7" x1="820.6" x2="820.6" y1="220.0" y2="875.2" /><line stroke="#ececec" stroke-width="0.7" x1="875.2" x2="875.2" y1="220.0" y2="875.2" /><line stroke="#ececec" stroke-width="0.7" x1="929.8" x2="929.8" y1="220.0" y2="875.2" /><line stroke="#ececec" stroke-width="0.7" x1="984.4" x2="984.4" y1="220.0" y2="875.2" /><line stroke="#ececec" stroke-width="0.7" x1="1039.0" x2="1039.0" y1="220.0" y2="875.2" /><line stroke="#ececec" stroke-width="0.7" x1="1093.6" x2="1093.6" y1="220.0" y2="875.2" /><line stroke="#d1d1d1" stroke-width="1.1" x1="220.0" x2="220.0" y1="220.0" y2="875.2" /><line stroke="#d1d1d1" stroke-width="1.1" x1="329.2" x2="329.2" y1="220.0" y2="875.2" /><line stroke="#d1d1d1" stroke-width="1.1" x1="438.4" x2="438.4" y1="220.0" y2="875.2" /><line stroke="#d1d1d1" stroke-width="1.1" x1="547.6" x2="547.6" y1="220.0" y2="875.2" /><line stroke="#d1d1d1" stroke-width="1.1" x1="656.8" x2="656.8" y1="220.0" y2="875.2" /><line stroke="#d1d1d1" stroke-width="1.1" x1="766.0" x2="766.0" y1="220.0" y2="875.2" /><line stroke="#d1d1d1" stroke-width="1.1" x1="875.2" x2="875.2" y1="220.0" y2="875.2" /><line stroke="#d1d1d1" stroke-width="1.1" x1="984.4" x2="984.4" y1="220.0" y2="875.2" /><line stroke="#d1d1d1" stroke-width="1.1" x1="1093.6" x2="1093.6" y1="220.0" y2="875.2" /><line stroke="#d1d1d1" stroke-width="1.1" x1="220.0" x2="1093.6" y1="220.0" y2="220.0" /><line stroke="#d1d1d1" stroke-width="1.1" x1="220.0" x2="1093.6" y1="329.2" y2="329.2" /><line stroke="#d1d1d1" stroke-width="1.1" x1="220.0" x2="1093.6" y1="438.4" y2="438.4" /><line stroke="#d1d1d1" stroke-width="1.1" x1="220.0" x2="1093.6" y1="547.6" y2="547.6" /><line stroke="#d1d1d1" stroke-width="1.1" x1="220.0" x2="1093.6" y1="656.8" y2="656.8" /><line stroke="#d1d1d1" stroke-width="1.1" x1="220.0" x2="1093.6" y1="766.0" y2="766.0" /><line stroke="#d1d1d1" stroke-width="1.1" x1="220.0" x2="1093.6" y1="875.2" y2="875.2" /><line stroke="#ececec" stroke-width="0.7" x1="220.0" x2="1093.6" y1="220.0" y2="220.0" /><line stroke="#ececec" stroke-width="0.7" x1="220.0" x2="1093.6" y1="274.6" y2="274.6" /><line stroke="#ececec" stroke-width="0.7" x1="220.0" x2="1093.6" y1="329.2" y2="329.2" /><line stroke="#ececec" stroke-width="0.7" x1="220.0" x2="1093.6" y1="383.8" y2="383.8" /><line stroke="#ececec" stroke-width="0.7" x1="220.0" x2="1093.6" y1="438.4" y2="438.4" /><line stroke="#ececec" stroke-width="0.7" x1="220.0" x2="1093.6" y1="493.0" y2="493.0" /><line stroke="#ececec" stroke-width="0.7" x1="220.0" x2="1093.6" y1="547.6" y2="547.6" /><line stroke="#ececec" stroke-width="0.7" x1="220.0" x2="1093.6" y1="602.2" y2="602.2" /><line stroke="#ececec" stroke-width="0.7" x1="220.0" x2="1093.6" y1="656.8" y2="656.8" /><line stroke="#ececec" stroke-width="0.7" x1="220.0" x2="1093.6" y1="711.4" y2="711.4" /><line stroke="#ececec" stroke-width="0.7" x1="220.0" x2="1093.6" y1="766.0" y2="766.0" /><line stroke="#ececec" stroke-width="0.7" x1="220.0" x2="1093.6" y1="820.6" y2="820.6" /><line stroke="#ececec" stroke-width="0.7" x1="220.0" x2="1093.6" y1="875.2" y2="875.2" /><rect fill="none" height="655.2" stroke="#6a6a6a" stroke-dasharray="8,4" stroke-width="2" width="873.6" x="220.0" y="220.0" /><rect fill="none" height="655.2" stroke="#1f1f1f" stroke-width="3.5" width="873.6" x="220.0" y="220.0" /><text fill="#555555" font-size="10" x="222.0" y="160.0">Site Envelope = Building Footprint</text><rect fill="#d9f2ff" height="327.6" stroke="none" width="546.0" x="438.4" y="547.6" /><line stroke="#2f2f2f" stroke-width="2.2" x1="438.4" x2="984.4" y1="547.6" y2="547.6" /><line stroke="#2f2f2f" stroke-width="2.2" x1="438.4" x2="984.4" y1="875.2" y2="875.2" /><line stroke="#2f2f2f" stroke-width="2.2" x1="984.4" x2="984.4" y1="547.6" y2="875.2" /><line stroke="#2f2f2f" stroke-width="2.2" x1="438.4" x2="438.4" y1="547.6" y2="875.2" /><rect fill="#efe9ff" height="382.2" stroke="none" width="109.2" x="984.4" y="493.0" /><rect fill="#efe9ff" height="218.4" stroke="none" width="163.8" x="820.6" y="329.2" /><line stroke="#2f2f2f" stroke-width="2.2" x1="984.4" x2="1093.6" y1="875.2" y2="875.2" /><line stroke="#2f2f2f" stroke-width="2.2" x1="820.6" x2="984.4" y1="547.6" y2="547.6" /><line stroke="#2f2f2f" stroke-width="2.2" x1="820.6" x2="984.4" y1="329.2" y2="329.2" /><line stroke="#2f2f2f" stroke-width="2.2" x1="984.4" x2="1093.6" y1="493.0" y2="493.0" /><line stroke="#2f2f2f" stroke-width="2.2" x1="984.4" x2="984.4" y1="329.2" y2="493.0" /><line stroke="#2f2f2f" stroke-width="2.2" x1="984.4" x2="984.4" y1="547.6" y2="875.2" /><line stroke="#2f2f2f" stroke-width="2.2" x1="820.6" x2="820.6" y1="329.2" y2="547.6" /><line stroke="#2f2f2f" stroke-width="2.2" x1="1093.6" x2="1093.6" y1="493.0" y2="875.2" /><rect fill="#c5e8ff" height="327.6" stroke="none" width="600.6" x="220.0" y="220.0" /><line stroke="#2f2f2f" stroke-width="2.2" x1="220.0" x2="820.6" y1="547.6" y2="547.6" /><line stroke="#2f2f2f" stroke-width="2.2" x1="220.0" x2="820.6" y1="220.0" y2="220.0" /><line stroke="#2f2f2f" stroke-width="2.2" x1="820.6" x2="820.6" y1="220.0" y2="547.6" /><line stroke="#2f2f2f" stroke-width="2.2" x1="220.0" x2="220.0" y1="220.0" y2="547.6" /><rect fill="#f0f0f0" height="327.6" stroke="none" width="218.4" x="220.0" y="547.6" /><line stroke="#2f2f2f" stroke-width="2.2" x1="220.0" x2="438.4" y1="547.6" y2="547.6" /><line stroke="#2f2f2f" stroke-width="2.2" x1="220.0" x2="438.4" y1="875.2" y2="875.2" /><line stroke="#2f2f2f" stroke-width="2.2" x1="220.0" x2="220.0" y1="547.6" y2="875.2" /><line stroke="#2f2f2f" stroke-width="2.2" x1="438.4" x2="438.4" y1="547.6" y2="875.2" /><rect fill="none" height="111.384" stroke="#7f7f7f" stroke-width="1.1" width="218.4" x="411.1" y="278.968" /><line stroke="#7f7f7f" stroke-width="0.9" x1="411.1" x2="629.5" y1="317.9524" y2="317.9524" /><rect fill="none" height="111.384" stroke="#7f7f7f" stroke-width="1.1" width="218.4" x="602.2" y="606.568" /><line stroke="#7f7f7f" stroke-width="0.9" x1="602.2" x2="820.6" y1="645.5524" y2="645.5524" /><line stroke="#9a9a9a" stroke-width="0.9" x1="246.208" x2="412.192" y1="606.568" y2="606.568" /><line stroke="#9a9a9a" stroke-width="0.9" x1="246.208" x2="412.192" y1="816.232" y2="816.232" /><rect fill="#f4f4f4" height="109.2" stroke="#202020" stroke-dasharray="4,3" stroke-width="2.6" width="163.8" x="820.6" y="220.0" /><line stroke="#b8b8b8" stroke-width="0.9" x1="826.0" x2="979.0" y1="229.6" y2="229.6" /><line stroke="#b8b8b8" stroke-width="0.9" x1="826.0" x2="979.0" y1="248.8" y2="248.8" /><line stroke="#b8b8b8" stroke-width="0.9" x1="826.0" x2="979.0" y1="268.0" y2="268.0" /><line stroke="#b8b8b8" stroke-width="0.9" x1="826.0" x2="979.0" y1="287.2" y2="287.2" /><line stroke="#b8b8b8" stroke-width="0.9" x1="826.0" x2="979.0" y1="306.4" y2="306.4" /><line stroke="#b8b8b8" stroke-width="0.9" x1="826.0" x2="979.0" y1="325.6" y2="325.6" /><rect fill="#f4f4f4" height="109.2" stroke="#202020" stroke-dasharray="4,3" stroke-width="2.6" width="109.2" x="984.4" y="220.0" /><line stroke="#b8b8b8" stroke-width="0.9" x1="989.8" x2="1088.2" y1="229.6" y2="229.6" /><line stroke="#b8b8b8" stroke-width="0.9" x1="989.8" x2="1088.2" y1="248.8" y2="248.8" /><line stroke="#b8b8b8" stroke-width="0.9" x1="989.8" x2="1088.2" y1="268.0" y2="268.0" /><line stroke="#b8b8b8" stroke-width="0.9" x1="989.8" x2="1088.2" y1="287.2" y2="287.2" /><line stroke="#b8b8b8" stroke-width="0.9" x1="989.8" x2="1088.2" y1="306.4" y2="306.4" /><line stroke="#b8b8b8" stroke-width="0.9" x1="989.8" x2="1088.2" y1="325.6" y2="325.6" /><rect fill="#ffffff" height="163.8" stroke="#202020" stroke-dasharray="8,4" stroke-width="2.6" width="109.2" x="984.4" y="329.2" /><text fill="#555555" font-size="9" text-anchor="middle" x="957.1" y="274.6">Open To Below</text><rect fill="none" height="109.2" stroke="#7e7e7e" stroke-dasharray="3,2" stroke-width="2.0" width="273.0" x="820.6" y="220.0" /><text fill="#666666" font-size="8.5" text-anchor="middle" x="957.1" y="234.4">Guardrail</text><line stroke="#2a2a2a" stroke-width="1.4" x1="984.4" x2="1093.6" y1="352.6" y2="352.6" /><line stroke="#2a2a2a" stroke-width="1.4" x1="984.4" x2="1093.6" y1="376.0" y2="376.0" /><line stroke="#2a2a2a" stroke-width="1.4" x1="984.4" x2="1093.6" y1="399.4" y2="399.4" /><line stroke="#2a2a2a" stroke-width="1.4" x1="984.4" x2="1093.6" y1="422.8" y2="422.8" /><line stroke="#2a2a2a" stroke-width="1.4" x1="984.4" x2="1093.6" y1="446.2" y2="446.2" /><line stroke="#2a2a2a" stroke-width="1.4" x1="984.4" x2="1093.6" y1="469.6" y2="469.6" /><text fill="#202020" font-size="11" text-anchor="middle" x="1039.0" y="411.1">Stair (DN)</text><text fill="#3a3a3a" font-size="9.0" text-anchor="middle" x="1039.0" y="425.5">13R/12T</text><text fill="#4a4a4a" font-size="7.8" text-anchor="middle" x="1039.0" y="433.9">H2730 R210 T228</text><line stroke="#ffffff" stroke-width="7" x1="984.4" x2="1093.6" y1="493.0" y2="493.0" /><line stroke="#5e5e5e" stroke-width="1.0" x1="984.4" x2="1093.6" y1="493.0" y2="493.0" /><line stroke="#ffffff" stroke-width="6" x1="820.6" x2="820.6" y1="389.26" y2="487.54" /><line stroke="#595959" stroke-width="1.2" x1="820.6" x2="756.718" y1="389.26" y2="453.142" /><path d="M 820.6,453.14199999999994 A 63.882,63.882 0 0 1 756.718,453.14199999999994" fill="none" stroke="#7a7a7a" stroke-width="1.0" /><line stroke="#ffffff" stroke-width="6" x1="984.4" x2="984.4" y1="652.6" y2="770.2" /><line stroke="#595959" stroke-width="1.2" x1="984.4" x2="1060.84" y1="652.6" y2="729.04" /><path d="M 984.4,729.04 A 76.44,76.44 0 0 1 1060.84,729.04" fill="none" stroke="#7a7a7a" stroke-width="1.0" /><line stroke="#ffffff" stroke-width="6" x1="570.7" x2="688.3" y1="547.6" y2="547.6" /><line stroke="#595959" stroke-width="1.2" x1="570.7" x2="647.14" y1="547.6" y2="471.16" /><path d="M 647.14,547.5999999999999 A 76.44,76.44 0 0 1 647.14,471.15999999999997" fill="none" stroke="#7a7a7a" stroke-width="1.0" /><line stroke="#ffffff" stroke-width="6" x1="280.06" x2="378.34" y1="547.6" y2="547.6" /><line stroke="#595959" stroke-width="1.2" x1="280.06" x2="343.942" y1="547.6" y2="611.482" /><path d="M 343.942,547.5999999999999 A 63.882,63.882 0 0 1 343.942,611.482" fill="none" stroke="#7a7a7a" stroke-width="1.0" /><line stroke="#66a7ff" stroke-width="2.2" x1="217.36" x2="217.36" y1="328.12" y2="439.48" /><line stroke="#66a7ff" stroke-width="2.2" x1="222.64" x2="222.64" y1="328.12" y2="439.48" /><line stroke="#66a7ff" stroke-width="2.2" x1="292.168" x2="484.168" y1="217.36" y2="217.36" /><line stroke="#66a7ff" stroke-width="2.2" x1="292.168" x2="484.168" y1="222.64" y2="222.64" /><line stroke="#66a7ff" stroke-width="2.2" x1="556.432" x2="748.432" y1="217.36" y2="217.36" /><line stroke="#66a7ff" stroke-width="2.2" x1="556.432" x2="748.432" y1="222.64" y2="222.64" /><line stroke="#66a7ff" stroke-width="2.2" x1="498.46" x2="684.1" y1="872.56" y2="872.56" /><line stroke="#66a7ff" stroke-width="2.2" x1="498.46" x2="684.1" y1="877.84" y2="877.84" /><line stroke="#66a7ff" stroke-width="2.2" x1="738.7" x2="924.34" y1="872.56" y2="872.56" /><line stroke="#66a7ff" stroke-width="2.2" x1="738.7" x2="924.34" y1="877.84" y2="877.84" /><line stroke="#9a9a9a" stroke-width="0.8" x1="992.8" x2="1085.2" y1="501.4" y2="501.4" /><line stroke="#9a9a9a" stroke-width="0.8" x1="992.8" x2="992.8" y1="498.04" y2="504.76" /><line stroke="#9a9a9a" stroke-width="0.8" x1="1085.2" x2="1085.2" y1="498.04" y2="504.76" /><text fill="#8a8a8a" font-size="7.6" text-anchor="start" x="999.52" y="498.76">910mm</text><line stroke="#9a9a9a" stroke-width="0.8" x1="992.8" x2="992.8" y1="501.4" y2="866.8" /><line stroke="#9a9a9a" stroke-width="0.8" x1="989.44" x2="996.16" y1="501.4" y2="501.4" /><line stroke="#9a9a9a" stroke-width="0.8" x1="989.44" x2="996.16" y1="866.8" y2="866.8" /><text fill="#8a8a8a" font-size="7.6" text-anchor="start" x="996.88" y="509.08">3185mm</text><line stroke="#9a9a9a" stroke-width="0.8" x1="829.0" x2="976.0" y1="337.6" y2="337.6" /><line stroke="#9a9a9a" stroke-width="0.8" x1="829.0" x2="829.0" y1="334.24" y2="340.96" /><line stroke="#9a9a9a" stroke-width="0.8" x1="976.0" x2="976.0" y1="334.24" y2="340.96" /><text fill="#8a8a8a" font-size="7.6" text-anchor="start" x="835.72" y="334.96">1365mm</text><line stroke="#9a9a9a" stroke-width="0.8" x1="829.0" x2="829.0" y1="337.6" y2="539.2" /><line stroke="#9a9a9a" stroke-width="0.8" x1="825.64" x2="832.36" y1="337.6" y2="337.6" /><line stroke="#9a9a9a" stroke-width="0.8" x1="825.64" x2="832.36" y1="539.2" y2="539.2" /><text fill="#8a8a8a" font-size="7.6" text-anchor="start" x="833.0799999999999" y="345.28">1820mm</text><text fill="#1b1b1b" font-size="10" text-anchor="middle" x="711.4" y="697.0">Bedroom 2</text><text fill="#1b1b1b" font-size="10" text-anchor="middle" x="711.4" y="707.8">4550x2730mm</text><text fill="#1b1b1b" font-size="10" text-anchor="middle" x="711.4" y="718.5999999999999">12.4sqm / 7.7jo</text><text fill="#1b1b1b" font-size="9" text-anchor="middle" x="976.0" y="556.3">Hall 2</text><text fill="#1b1b1b" font-size="9" text-anchor="middle" x="976.0" y="567.0999999999999">5.4sqm / 3.3jo</text><text fill="#1b1b1b" font-size="10" text-anchor="middle" x="520.3" y="369.4">Master</text><text fill="#1b1b1b" font-size="10" text-anchor="middle" x="520.3" y="380.2">5005x2730mm</text><text fill="#1b1b1b" font-size="10" text-anchor="middle" x="520.3" y="391.0">13.7sqm / 8.4jo</text><text fill="#1b1b1b" font-size="10" text-anchor="middle" x="329.2" y="697.0">Storage 2</text><text fill="#1b1b1b" font-size="10" text-anchor="middle" x="329.2" y="707.8">1820x2730mm</text><text fill="#1b1b1b" font-size="10" text-anchor="middle" x="329.2" y="718.5999999999999">5.0sqm / 3.1jo</text><text fill="#111111" font-size="14" x="220.0" y="180.0">F2 Plan  (7280 x 5460 mm)</text><text fill="#444444" font-size="10" x="220.0" y="198.0">Scale: 1px=8.3mm</text><rect fill="#ffffff" height="126" stroke="#777777" stroke-width="1" width="170" x="1181.6" y="150.0" /><text fill="#111111" font-size="11" x="1189.6" y="164.0">Legend</text><rect fill="#efe9ff" height="12" stroke="#333333" stroke-width="1" width="12" x="1189.6" y="174.0" /><text fill="#222222" font-size="10" x="1207.6" y="184.0">Hall</text><rect fill="#c5e8ff" height="12" stroke="#333333" stroke-width="1" width="12" x="1189.6" y="192.0" /><text fill="#222222" font-size="10" x="1207.6" y="202.0">Master Bedroom</text><rect fill="#d9f2ff" height="12" stroke="#333333" stroke-width="1" width="12" x="1189.6" y="210.0" /><text fill="#222222" font-size="10" x="1207.6" y="220.0">Bedroom</text><rect fill="#f0f0f0" height="12" stroke="#333333" stroke-width="1" width="12" x="1189.6" y="228.0" /><text fill="#222222" font-size="10" x="1207.6" y="238.0">Storage</text><line stroke="#6aa4ff" stroke-width="4" x1="1189.6" x2="1216.6" y1="258.0" y2="258.0" /><text fill="#222222" font-size="10" x="1223.6" y="261.0">Window</text><line stroke="#666666" stroke-width="2.4" x1="1189.6" x2="1216.6" y1="274.0" y2="274.0" /><path d="M 1189.6,274.0 A 10,10 0 0 1 1199.6,264.0" fill="none" stroke="#666666" stroke-width="1.2" /><text fill="#222222" font-size="10" x="1223.6" y="277.0">Door</text><rect fill="#ffffff" height="84" stroke="#777777" stroke-width="1" width="200" x="1181.6" y="520.0" /><text fill="#111111" font-size="10" x="1189.6" y="533.0">Area (F2)</text><text fill="#222222" font-size="9" x="1189.6" y="550.0">F1: in 39.7 sqm (12.0 tsubo), out 0.0 sqm (0.0 tsubo)</text><text fill="#222222" font-size="9" x="1189.6" y="566.0">F2: in 39.7 sqm (12.0 tsubo), out 0.0 sqm (0.0 tsubo)</text><text fill="#222222" font-size="9" x="1189.6" y="582.0">Total indoor: 79.5 sqm (24.0 tsubo)</text><text fill="#222222" font-size="9" x="1189.6" y="598.0">Total outdoor: 0.0 sqm (0.0 tsubo)</text><line stroke="#111111" stroke-width="2" x1="175.0" x2="175.0" y1="238.0" y2="208.0" /><polygon fill="#111111" points="175.0,208.0 181.0,214.0 169.0,214.0" /><text fill="#111111" font-size="12" x="170.0" y="202.0">N</text><line stroke="#545454" stroke-width="1.0" x1="220.0" x2="1093.6" y1="148.0" y2="148.0" /><line stroke="#545454" stroke-width="0.8" x1="220.0" x2="220.0" y1="220.0" y2="148.0" /><line stroke="#545454" stroke-width="1.0" x1="220.0" x2="220.0" y1="145.0" y2="151.0" /><line stroke="#545454" stroke-width="0.8" x1="1093.6" x2="1093.6" y1="220.0" y2="148.0" /><line stroke="#545454" stroke-width="1.0" x1="1093.6" x2="1093.6" y1="145.0" y2="151.0" /><text fill="#545454" font-size="8.8" text-anchor="middle" x="656.8" y="145.0">7280mm</text><line stroke="#666666" stroke-width="1.0" x1="220.0" x2="1093.6" y1="166.0" y2="166.0" /><line stroke="#666666" stroke-width="0.8" x1="220.0" x2="220.0" y1="220.0" y2="166.0" /><line stroke="#666666" stroke-width="1.0" x1="220.0" x2="220.0" y1="163.0" y2="169.0" /><line stroke="#666666" stroke-width="0.8" x1="820.6" x2="820.6" y1="220.0" y2="166.0" /><line stroke="#666666" stroke-width="1.0" x1="820.6" x2="820.6" y1="163.0" y2="169.0" /><line stroke="#666666" stroke-width="0.8" x1="984.4" x2="984.4" y1="220.0" y2="166.0" /><line stroke="#666666" stroke-width="1.0" x1="984.4" x2="984.4" y1="163.0" y2="169.0" /><line stroke="#666666" stroke-width="0.8" x1="1093.6" x2="1093.6" y1="220.0" y2="166.0" /><line stroke="#666666" stroke-width="1.0" x1="1093.6" x2="1093.6" y1="163.0" y2="169.0" /><text fill="#666666" font-size="8.2" text-anchor="middle" x="520.3" y="163.0">5005</text><text fill="#666666" font-size="8.2" text-anchor="middle" x="902.5" y="163.0">1365</text><text fill="#666666" font-size="8.2" text-anchor="middle" x="1039.0" y="163.0">910</text><line stroke="#7a7a7a" stroke-width="1.0" x1="220.0" x2="1093.6" y1="184.0" y2="184.0" /><line stroke="#7a7a7a" stroke-width="0.8" x1="220.0" x2="220.0" y1="220.0" y2="184.0" /><line stroke="#7a7a7a" stroke-width="1.0" x1="220.0" x2="220.0" y1="181.0" y2="187.0" /><line stroke="#7a7a7a" stroke-width="0.8" x1="274.6" x2="274.6" y1="220.0" y2="184.0" /><line stroke="#7a7a7a" stroke-width="1.0" x1="274.6" x2="274.6" y1="181.0" y2="187.0" /><line stroke="#7a7a7a" stroke-width="0.8" x1="493.0" x2="493.0" y1="220.0" y2="184.0" /><line stroke="#7a7a7a" stroke-width="1.0" x1="493.0" x2="493.0" y1="181.0" y2="187.0" /><line stroke="#7a7a7a" stroke-width="0.8" x1="547.6" x2="547.6" y1="220.0" y2="184.0" /><line stroke="#7a7a7a" stroke-width="1.0" x1="547.6" x2="547.6" y1="181.0" y2="187.0" /><line stroke="#7a7a7a" stroke-width="0.8" x1="766.0" x2="766.0" y1="220.0" y2="184.0" /><line stroke="#7a7a7a" stroke-width="1.0" x1="766.0" x2="766.0" y1="181.0" y2="187.0" /><line stroke="#7a7a7a" stroke-width="0.8" x1="1093.6" x2="1093.6" y1="220.0" y2="184.0" /><line stroke="#7a7a7a" stroke-width="1.0" x1="1093.6" x2="1093.6" y1="181.0" y2="187.0" /><text fill="#7a7a7a" font-size="7.8" text-anchor="middle" x="383.79999999999995" y="181.0">1820</text><text fill="#7a7a7a" font-size="7.8" text-anchor="middle" x="656.8" y="181.0">1820</text><text fill="#7a7a7a" font-size="7.8" text-anchor="middle" x="929.8" y="181.0">2730</text><line stroke="#545454" stroke-width="1.0" x1="220.0" x2="1093.6" y1="947.2" y2="947.2" /><line stroke="#545454" stroke-width="0.8" x1="220.0" x2="220.0" y1="875.2" y2="947.2" /><line stroke="#545454" stroke-width="1.0" x1="220.0" x2="220.0" y1="944.2" y2="950.2" /><line stroke="#545454" stroke-width="0.8" x1="1093.6" x2="1093.6" y1="875.2" y2="947.2" /><line stroke="#545454" stroke-width="1.0" x1="1093.6" x2="1093.6" y1="944.2" y2="950.2" /><text fill="#545454" font-size="8.8" text-anchor="middle" x="656.8" y="957.1999999999999">7280mm</text><line stroke="#666666" stroke-width="1.0" x1="220.0" x2="1093.6" y1="929.2" y2="929.2" /><line stroke="#666666" stroke-width="0.8" x1="220.0" x2="220.0" y1="875.2" y2="929.2" /><line stroke="#666666" stroke-width="1.0" x1="220.0" x2="220.0" y1="926.2" y2="932.2" /><line stroke="#666666" stroke-width="0.8" x1="438.4" x2="438.4" y1="875.2" y2="929.2" /><line stroke="#666666" stroke-width="1.0" x1="438.4" x2="438.4" y1="926.2" y2="932.2" /><line stroke="#666666" stroke-width="0.8" x1="984.4" x2="984.4" y1="875.2" y2="929.2" /><line stroke="#666666" stroke-width="1.0" x1="984.4" x2="984.4" y1="926.2" y2="932.2" /><line stroke="#666666" stroke-width="0.8" x1="1093.6" x2="1093.6" y1="875.2" y2="929.2" /><line stroke="#666666" stroke-width="1.0" x1="1093.6" x2="1093.6" y1="926.2" y2="932.2" /><text fill="#666666" font-size="8.2" text-anchor="middle" x="329.2" y="939.1999999999999">1820</text><text fill="#666666" font-size="8.2" text-anchor="middle" x="711.4" y="939.1999999999999">4550</text><text fill="#666666" font-size="8.2" text-anchor="middle" x="1039.0" y="939.1999999999999">910</text><line stroke="#7a7a7a" stroke-width="1.0" x1="220.0" x2="1093.6" y1="911.2" y2="911.2" /><line stroke="#7a7a7a" stroke-width="0.8" x1="220.0" x2="220.0" y1="875.2" y2="911.2" /><line stroke="#7a7a7a" stroke-width="1.0" x1="220.0" x2="220.0" y1="908.2" y2="914.2" /><line stroke="#7a7a7a" stroke-width="0.8" x1="493.0" x2="493.0" y1="875.2" y2="911.2" /><line stroke="#7a7a7a" stroke-width="1.0" x1="493.0" x2="493.0" y1="908.2" y2="914.2" /><line stroke="#7a7a7a" stroke-width="0.8" x1="711.4" x2="711.4" y1="875.2" y2="911.2" /><line stroke="#7a7a7a" stroke-width="1.0" x1="711.4" x2="711.4" y1="908.2" y2="914.2" /><line stroke="#7a7a7a" stroke-width="0.8" x1="929.8" x2="929.8" y1="875.2" y2="911.2" /><line stroke="#7a7a7a" stroke-width="1.0" x1="929.8" x2="929.8" y1="908.2" y2="914.2" /><line stroke="#7a7a7a" stroke-width="0.8" x1="1093.6" x2="1093.6" y1="875.2" y2="911.2" /><line stroke="#7a7a7a" stroke-width="1.0" x1="1093.6" x2="1093.6" y1="908.2" y2="914.2" /><text fill="#7a7a7a" font-size="7.8" text-anchor="middle" x="356.5" y="921.1999999999999">2275</text><text fill="#7a7a7a" font-size="7.8" text-anchor="middle" x="602.2" y="921.1999999999999">1820</text><text fill="#7a7a7a" font-size="7.8" text-anchor="middle" x="820.6" y="921.1999999999999">1820</text><text fill="#7a7a7a" font-size="7.8" text-anchor="middle" x="1011.6999999999999" y="921.1999999999999">1365</text><line stroke="#545454" stroke-width="1.0" x1="148.0" x2="148.0" y1="220.0" y2="875.2" /><line stroke="#545454" stroke-width="0.8" x1="220.0" x2="148.0" y1="220.0" y2="220.0" /><line stroke="#545454" stroke-width="1.0" x1="145.0" x2="151.0" y1="220.0" y2="220.0" /><line stroke="#545454" stroke-width="0.8" x1="220.0" x2="148.0" y1="875.2" y2="875.2" /><line stroke="#545454" stroke-width="1.0" x1="145.0" x2="151.0" y1="875.2" y2="875.2" /><text fill="#545454" font-size="8.8" x="144.0" y="547.5999999999999">5460mm</text><line stroke="#666666" stroke-width="1.0" x1="166.0" x2="166.0" y1="220.0" y2="875.2" /><line stroke="#666666" stroke-width="0.8" x1="220.0" x2="166.0" y1="220.0" y2="220.0" /><line stroke="#666666" stroke-width="1.0" x1="163.0" x2="169.0" y1="220.0" y2="220.0" /><line stroke="#666666" stroke-width="0.8" x1="220.0" x2="166.0" y1="547.6" y2="547.6" /><line stroke="#666666" stroke-width="1.0" x1="163.0" x2="169.0" y1="547.6" y2="547.6" /><line stroke="#666666" stroke-width="0.8" x1="220.0" x2="166.0" y1="875.2" y2="875.2" /><line stroke="#666666" stroke-width="1.0" x1="163.0" x2="169.0" y1="875.2" y2="875.2" /><text fill="#666666" font-size="8.2" x="162.0" y="383.79999999999995">2730</text><text fill="#666666" font-size="8.2" x="162.0" y="711.4">2730</text><line stroke="#7a7a7a" stroke-width="1.0" x1="184.0" x2="184.0" y1="220.0" y2="875.2" /><line stroke="#7a7a7a" stroke-width="0.8" x1="220.0" x2="184.0" y1="220.0" y2="220.0" /><line stroke="#7a7a7a" stroke-width="1.0" x1="181.0" x2="187.0" y1="220.0" y2="220.0" /><line stroke="#7a7a7a" stroke-width="0.8" x1="220.0" x2="184.0" y1="329.2" y2="329.2" /><line stroke="#7a7a7a" stroke-width="1.0" x1="181.0" x2="187.0" y1="329.2" y2="329.2" /><line stroke="#7a7a7a" stroke-width="0.8" x1="220.0" x2="184.0" y1="438.4" y2="438.4" /><line stroke="#7a7a7a" stroke-width="1.0" x1="181.0" x2="187.0" y1="438.4" y2="438.4" /><line stroke="#7a7a7a" stroke-width="0.8" x1="220.0" x2="184.0" y1="875.2" y2="875.2" /><line stroke="#7a7a7a" stroke-width="1.0" x1="181.0" x2="187.0" y1="875.2" y2="875.2" /><text fill="#7a7a7a" font-size="7.8" x="180.0" y="274.6">910</text><text fill="#7a7a7a" font-size="7.8" x="180.0" y="383.79999999999995">910</text><text fill="#7a7a7a" font-size="7.8" x="180.0" y="656.8">3640</text><line stroke="#545454" stroke-width="1.0" x1="1165.6" x2="1165.6" y1="220.0" y2="875.2" /><line stroke="#545454" stroke-width="0.8" x1="1093.6" x2="1165.6" y1="220.0" y2="220.0" /><line stroke="#545454" stroke-width="1.0" x1="1162.6" x2="1168.6" y1="220.0" y2="220.0" /><line stroke="#545454" stroke-width="0.8" x1="1093.6" x2="1165.6" y1="875.2" y2="875.2" /><line stroke="#545454" stroke-width="1.0" x1="1162.6" x2="1168.6" y1="875.2" y2="875.2" /><text fill="#545454" font-size="8.8" x="1170.6" y="547.5999999999999">5460mm</text><line stroke="#666666" stroke-width="1.0" x1="1147.6" x2="1147.6" y1="220.0" y2="875.2" /><line stroke="#666666" stroke-width="0.8" x1="1093.6" x2="1147.6" y1="220.0" y2="220.0" /><line stroke="#666666" stroke-width="1.0" x1="1144.6" x2="1150.6" y1="220.0" y2="220.0" /><line stroke="#666666" stroke-width="0.8" x1="1093.6" x2="1147.6" y1="329.2" y2="329.2" /><line stroke="#666666" stroke-width="1.0" x1="1144.6" x2="1150.6" y1="329.2" y2="329.2" /><line stroke="#666666" stroke-width="0.8" x1="1093.6" x2="1147.6" y1="493.0" y2="493.0" /><line stroke="#666666" stroke-width="1.0" x1="1144.6" x2="1150.6" y1="493.0" y2="493.0" /><line stroke="#666666" stroke-width="0.8" x1="1093.6" x2="1147.6" y1="875.2" y2="875.2" /><line stroke="#666666" stroke-width="1.0" x1="1144.6" x2="1150.6" y1="875.2" y2="875.2" /><text fill="#666666" font-size="8.2" x="1152.6" y="274.6">910</text><text fill="#666666" font-size="8.2" x="1152.6" y="411.1">1365</text><text fill="#666666" font-size="8.2" x="1152.6" y="684.0999999999999">3185</text></svg>