<?xml version="1.0" encoding="utf-8" ?>
<svg baseProfile="tiny" height="1204.4px" version="1.2" width="1532.0px" xmlns="http://www.w3.org/2000/svg" xmlns:ev="http://www.w3.org/2001/xml-events" xmlns:xlink="http://www.w3.org/1999/xlink"><defs /><rect fill="#fafafa" height="1204.4" width="1532.0" x="0" y="0" /><line stroke="#ececec" stroke-width="0.7" x1="220.0" x2="220.0" y1="220.0" y2="984.4" /><line stroke="#ececec" stroke-width="0.7" x1="274.6" x2="274.6" y1="220.0" y2="984.4" /><line stroke="#ececec" stroke-width="0.7" x1="329.2" x2="329.2" y1="220.0" y2="984.4" /><line stroke="#ececec" stroke-width="0.7" x1="383.8" x2="383.8" y1="220.0" y2="984.4" /><line stroke="#ececec" stroke-width="0.7" x1="438.4" x2="438.4" y1="220.0" y2="984.4" /><line stroke="#ececec" stroke-width="0.7" x1="493.0" x2="493.0" y1="220.0" y2="984.4" /><line stroke="#ececec" stroke-width="0.7" x1="547.6" x2="547.6" y1="220.0" y2="984.4" /><line stroke="#ececec" stroke-width="0.7" x1="602.2" x2="602.2" y1="220.0" y2="984.4" /><line stroke="#ececec" stroke-width="0.7" x1="656.8" x2="656.8" y1="220.0" y2="984.4" /><line stroke="#ececec" stroke-width="0.7" x1="711.4" x2="711.4" y1="220.0" y2="984.4" /><line stroke="#ececec" stroke-width="0.7" x1="766.0" x2="766.0" y1="220.0" y2="984.4" /><line stroke="#ececec" stroke-width="0.7" x1="820.6" x2="820.6" y1="220.0" y2="984.4" /><line stroke="#ececec" stroke-width="0.7" x1="875.2" x2="875.2" y1="220.0" y2="984.4" /><line stroke="#ececec" stroke-width="0.7" x1="929.8" x2="929.8" y1="220.0" y2="984.4" /><line stroke="#ececec" stroke-width="0.7" x1="984.4" x2="984.4" y1="220.0" y2="984.4" /><line stroke="#ececec" stroke-width="0.7" x1="1039.0" x2="1039.0" y1="220.0" y2="984.4" /><line stroke="#ececec" stroke-width="0.7" x1="1093.6" x2="1093.6" y1="220.0" y2="984.4" /><line stroke="#ececec" stroke-width="0.7" x1="1148.2" x2="1148.2" y1="220.0" y2="984.4" /><line stroke="#ececec" stroke-width="0.7" x1="1202.8" x2="1202.8" y1="220.0" y2="984.4" /><line stroke="#ececec" stroke-width="0.7" x1="1257.4" x2="1257.4" y1="220.0" y2="984.4" /><line stroke="#ececec" stroke-width="0.7" x1="1312.0" x2="1312.0" y1="220.0" y2="984.4" /><line stroke="#d1d1d1" stroke-width="1.1" x1="220.0" x2="220.0" y1="220.0" y2="984.4" /><line stroke="#d1d1d1" stroke-width="1.1" x1="329.2" x2="329.2" y1="220.0" y2="984.4" /><line stroke="#d1d1d1" stroke-width="1.1" x1="438.4" x2="438.4" y1="220.0" y2="984.4" /><line stroke="#d1d1d1" stroke-width="1.1" x1="547.6" x2="547.6" y1="220.0" y2="984.4" /><line stroke="#d1d1d1" stroke-width="1.1" x1="656.8" x2="656.8" y1="220.0" y2="984.4" /><line stroke="#d1d1d1" stroke-width="1.1" x1="766.0" x2="766.0" y1="220.0" y2="984.4" /><line stroke="#d1d1d1" stroke-width="1.1" x1="875.2" x2="875.2" y1="220.0" y2="984.4" /><line stroke="#d1d1d1" stroke-width="1.1" x1="984.4" x2="984.4" y1="220.0" y2="984.4" /><line stroke="#d1d1d1" stroke-width="1.1" x1="1093.6" x2="1093.6" y1="220.0" y2="984.4" /><line stroke="#d1d1d1" stroke-width="1.1" x1="1202.8" x2="1202.8" y1="220.0" y2="984.4" /><line stroke="#d1d1d1" stroke-width="1.1" x1="1312.0" x2="1312.0" y1="220.0" y2="984.4" /><line stroke="#d1d1d1" stroke-width="1.1" x1="220.0" x2="1312.0" y1="220.0" y2="220.0" /><line stroke="#d1d1d1" stroke-width="1.1" x1="220.0" x2="1312.0" y1="329.2" y2="329.2" /><line stroke="#d1d1d1" stroke-width="1.1" x1="220.0" x2="1312.0" y1="438.4" y2="438.4" /><line stroke="#d1d1d1" stroke-width="1.1" x1="220.0" x2="1312.0" y1="547.6" y2="547.6" /><line stroke="#d1d1d1" stroke-width="1.1" x1="220.0" x2="1312.0" y1="656.8" y2="656.8" /><line stroke="#d1d1d1" stroke-width="1.1" x1="220.0" x2="1312.0" y1="766.0" y2="766.0" /><line stroke="#d1d1d1" stroke-width="1.1" x1="220.0" x2="1312.0" y1="875.2" y2="875.2" /><line stroke="#d1d1d1" stroke-width="1.1" x1="220.0" x2="1312.0" y1="984.4" y2="984.4" /><line stroke="#ececec" stroke-width="0.7" x1="220.0" x2="1312.0" y1="220.0" y2="220.0" /><line stroke="#ececec" stroke-width="0.7" x1="220.0" x2="1312.0" y1="274.6" y2="274.6" /><line stroke="#ececec" stroke-width="0.7" x1="220.0" x2="1312.0" y1="329.2" y2="329.2" /><line stroke="#ececec" stroke-width="0.7" x1="220.0" x2="1312.0" y1="383.8" y2="383.8" /><line stroke="#ececec" stroke-width="0.7" x1="220.0" x2="1312.0" y1="438.4" y2="438.4" /><line stroke="#ececec" stroke-width="0.7" x1="220.0" x2="1312.0" y1="493.0" y2="493.0" /><line stroke="#ececec" stroke-width="0.7" x1="220.0" x2="1312.0" y1="547.6" y2="547.6" /><line stroke="#ececec" stroke-width="0.7" x1="220.0" x2="1312.0" y1="602.2" y2="602.2" /><line stroke="#ececec" stroke-width="0.7" x1="220.0" x2="1312.0" y1="656.8" y2="656.8" /><line stroke="#ececec" stroke-width="0.7" x1="220.0" x2="1312.0" y1="711.4" y2="711.4" /><line stroke="#ececec" stroke-width="0.7" x1="220.0" x2="1312.0" y1="766.0" y2="766.0" /><line stroke="#ececec" stroke-width="0.7" x1="220.0" x2="1312.0" y1="820.6" y2="820.6" /><line stroke="#ececec" stroke-width="0.7" x1="220.0" x2="1312.0" y1="875.2" y2="875.2" /><line stroke="#ececec" stroke-width="0.7" x1="220.0" x2="1312.0" y1="929.8" y2="929.8" /><line stroke="#ececec" stroke-width="0.7" x1="220.0" x2="1312.0" y1="984.4" y2="984.4" /><rect fill="none" height="764.4" stroke="#6a6a6a" stroke-dasharray="8,4" stroke-width="2" width="1092.0" x="220.0" y="220.0" /><rect fill="none" height="764.4" stroke="#1f1f1f" stroke-width="3.5" width="1092.0" x="220.0" y="220.0" /><text fill="#555555" font-size="10" x="222.0" y="160.0">Site Envelope = Building Footprint</text><rect fill="#dcecff" height="218.4" stroke="none" width="218.4" x="1093.6" y="766.0" /><line stroke="#2f2f2f" stroke-width="2.2" x1="1093.6" x2="1312.0" y1="984.4" y2="984.4" /><line stroke="#2f2f2f" stroke-width="2.2" x1="1093.6" x2="1312.0" y1="766.0" y2="766.0" /><line stroke="#2f2f2f" stroke-width="2.2" x1="1093.6" x2="1093.6" y1="766.0" y2="984.4" /><line stroke="#2f2f2f" stroke-width="2.2" x1="1312.0" x2="1312.0" y1="766.0" y2="984.4" /><rect fill="#d9f2ff" height="327.6" stroke="none" width="491.4" x="220.0" y="656.8" /><line stroke="#2f2f2f" stroke-width="2.2" x1="220.0" x2="711.4" y1="984.4" y2="984.4" /><line stroke="#2f2f2f" stroke-width="2.2" x1="220.0" x2="711.4" y1="656.8" y2="656.8" /><line stroke="#2f2f2f" stroke-width="2.2" x1="220.0" x2="220.0" y1="656.8" y2="984.4" /><line stroke="#2f2f2f" stroke-width="2.2" x1="711.4" x2="711.4" y1="656.8" y2="984.4" /><rect fill="#d9f2ff" height="327.6" stroke="none" width="382.2" x="711.4" y="656.8" /><line stroke="#2f2f2f" stroke-width="2.2" x1="711.4" x2="1093.6" y1="656.8" y2="656.8" /><line stroke="#2f2f2f" stroke-width="2.2" x1="711.4" x2="1093.6" y1="984.4" y2="984.4" /><line stroke="#2f2f2f" stroke-width="2.2" x1="1093.6" x2="1093.6" y1="656.8" y2="984.4" /><line stroke="#2f2f2f" stroke-width="2.2" x1="711.4" x2="711.4" y1="656.8" y2="984.4" /><rect fill="#f8f0d9" height="218.4" stroke="none" width="218.4" x="1093.6" y="220.0" /><line stroke="#2f2f2f" stroke-width="2.2" x1="1093.6" x2="1312.0" y1="220.0" y2="220.0" /><line stroke="#2f2f2f" stroke-width="2.2" x1="1093.6" x2="1312.0" y1="438.4" y2="438.4" /><line stroke="#2f2f2f" stroke-width="2.2" x1="1093.6" x2="1093.6" y1="220.0" y2="438.4" /><line stroke="#2f2f2f" stroke-width="2.2" x1="1312.0" x2="1312.0" y1="220.0" y2="438.4" /><rect fill="#efe9ff" height="109.2" stroke="none" width="109.2" x="875.2" y="547.6" /><rect fill="#efe9ff" height="218.4" stroke="none" width="109.2" x="984.4" y="438.4" /><rect fill="#efe9ff" height="109.2" stroke="none" width="218.4" x="1093.6" y="438.4" /><line stroke="#2f2f2f" stroke-width="2.2" x1="984.4" x2="1312.0" y1="438.4" y2="438.4" /><line stroke="#2f2f2f" stroke-width="2.2" x1="875.2" x2="984.4" y1="547.6" y2="547.6" /><line stroke="#2f2f2f" stroke-width="2.2" x1="1093.6" x2="1312.0" y1="547.6" y2="547.6" /><line stroke="#2f2f2f" stroke-width="2.2" x1="875.2" x2="1093.6" y1="656.8" y2="656.8" /><line stroke="#2f2f2f" stroke-width="2.2" x1="875.2" x2="875.2" y1="547.6" y2="656.8" /><line stroke="#2f2f2f" stroke-width="2.2" x1="1312.0" x2="1312.0" y1="438.4" y2="547.6" /><line stroke="#2f2f2f" stroke-width="2.2" x1="1093.6" x2="1093.6" y1="547.6" y2="656.8" /><line stroke="#2f2f2f" stroke-width="2.2" x1="984.4" x2="984.4" y1="438.4" y2="547.6" /><rect fill="#ffe2b8" height="436.8" stroke="none" width="655.2" x="220.0" y="220.0" /><line stroke="#2f2f2f" stroke-width="2.2" x1="220.0" x2="875.2" y1="220.0" y2="220.0" /><line stroke="#2f2f2f" stroke-width="2.2" x1="220.0" x2="875.2" y1="656.8" y2="656.8" /><line stroke="#2f2f2f" stroke-width="2.2" x1="220.0" x2="220.0" y1="220.0" y2="656.8" /><line stroke="#2f2f2f" stroke-width="2.2" x1="875.2" x2="875.2" y1="220.0" y2="656.8" /><rect fill="#f0f0f0" height="327.6" stroke="none" width="109.2" x="875.2" y="220.0" /><line stroke="#2f2f2f" stroke-width="2.2" x1="875.2" x2="984.4" y1="220.0" y2="220.0" /><line stroke="#2f2f2f" stroke-width="2.2" x1="875.2" x2="984.4" y1="547.6" y2="547.6" /><line stroke="#2f2f2f" stroke-width="2.2" x1="984.4" x2="984.4" y1="220.0" y2="547.6" /><line stroke="#2f2f2f" stroke-width="2.2" x1="875.2" x2="875.2" y1="220.0" y2="547.6" /><rect fill="#fbe7e6" height="218.4" stroke="none" width="109.2" x="984.4" y="220.0" /><line stroke="#2f2f2f" stroke-width="2.2" x1="984.4" x2="1093.6" y1="438.4" y2="438.4" /><line stroke="#2f2f2f" stroke-width="2.2" x1="984.4" x2="1093.6" y1="220.0" y2="220.0" /><line stroke="#2f2f2f" stroke-width="2.2" x1="1093.6" x2="1093.6" y1="220.0" y2="438.4" /><line stroke="#2f2f2f" stroke-width="2.2" x1="984.4" x2="984.4" y1="220.0" y2="438.4" /><rect fill="#e7fbfb" height="218.4" stroke="none" width="218.4" x="1093.6" y="547.6" /><line stroke="#2f2f2f" stroke-width="2.2" x1="1093.6" x2="1312.0" y1="766.0" y2="766.0" /><line stroke="#2f2f2f" stroke-width="2.2" x1="1093.6" x2="1312.0" y1="547.6" y2="547.6" /><line stroke="#2f2f2f" stroke-width="2.2" x1="1093.6" x2="1093.6" y1="547.6" y2="766.0" /><line stroke="#2f2f2f" stroke-width="2.2" x1="1312.0" x2="1312.0" y1="547.6" y2="766.0" /><rect fill="#f7f3ea" fill-opacity="0.35" height="327.6" stroke="#9a9a9a" stroke-dasharray="4,3" stroke-width="0.9" width="109.2" x="602.2" y="656.8" /><line stroke="#9c9c9c" stroke-opacity="0.7" stroke-width="0.8" x1="602.2" x2="621.4" y1="965.2" y2="984.4" /><line stroke="#9c9c9c" stroke-opacity="0.7" stroke-width="0.8" x1="602.2" x2="640.6" y1="946.0" y2="984.4" /><line stroke="#9c9c9c" stroke-opacity="0.7" stroke-width="0.8" x1="602.2" x2="659.8" y1="926.8" y2="984.4" /><line stroke="#9c9c9c" stroke-opacity="0.7" stroke-width="0.8" x1="602.2" x2="679.0" y1="907.6" y2="984.4" /><line stroke="#9c9c9c" stroke-opacity="0.7" stroke-width="0.8" x1="602.2" x2="698.2" y1="888.4" y2="984.4" /><line stroke="#9c9c9c" stroke-opacity="0.7" stroke-width="0.8" x1="602.2" x2="711.4" y1="869.2" y2="978.4" /><line stroke="#9c9c9c" stroke-opacity="0.7" stroke-width="0.8" x1="602.2" x2="711.4" y1="850.0" y2="959.2" /><line stroke="#9c9c9c" stroke-opacity="0.7" stroke-width="0.8" x1="602.2" x2="711.4" y1="830.8" y2="940.0" /><line stroke="#9c9c9c" stroke-opacity="0.7" stroke-width="0.8" x1="602.2" x2="711.4" y1="811.6" y2="920.8" /><line stroke="#9c9c9c" stroke-opacity="0.7" stroke-width="0.8" x1="602.2" x2="711.4" y1="792.4" y2="901.6" /><line stroke="#9c9c9c" stroke-opacity="0.7" stroke-width="0.8" x1="602.2" x2="711.4" y1="773.2" y2="882.4" /><line stroke="#9c9c9c" stroke-opacity="0.7" stroke-width="0.8" x1="602.2" x2="711.4" y1="754.0" y2="863.2" /><line stroke="#9c9c9c" stroke-opacity="0.7" stroke-width="0.8" x1="602.2" x2="711.4" y1="734.8" y2="844.0" /><line stroke="#9c9c9c" stroke-opacity="0.7" stroke-width="0.8" x1="602.2" x2="711.4" y1="715.6" y2="824.8" /><line stroke="#9c9c9c" stroke-opacity="0.7" stroke-width="0.8" x1="602.2" x2="711.4" y1="696.4" y2="805.6" /><line stroke="#9c9c9c" stroke-opacity="0.7" stroke-width="0.8" x1="602.2" x2="711.4" y1="677.2" y2="786.4" /><line stroke="#9c9c9c" stroke-opacity="0.7" stroke-width="0.8" x1="602.2" x2="711.4" y1="658.0" y2="767.2" /><line stroke="#9c9c9c" stroke-opacity="0.7" stroke-width="0.8" x1="620.2" x2="711.4" y1="656.8" y2="748.0" /><line stroke="#9c9c9c" stroke-opacity="0.7" stroke-width="0.8" x1="639.4" x2="711.4" y1="656.8" y2="728.8" /><line stroke="#9c9c9c" stroke-opacity="0.7" stroke-width="0.8" x1="658.6" x2="711.4" y1="656.8" y2="709.6" /><line stroke="#9c9c9c" stroke-opacity="0.7" stroke-width="0.8" x1="677.8" x2="711.4" y1="656.8" y2="690.4" /><line stroke="#9c9c9c" stroke-opacity="0.7" stroke-width="0.8" x1="697.0" x2="711.4" y1="656.8" y2="671.2" /><rect fill="#f7f3ea" fill-opacity="0.35" height="327.6" stroke="#9a9a9a" stroke-dasharray="4,3" stroke-width="0.9" width="109.2" x="984.4" y="656.8" /><line stroke="#9c9c9c" stroke-opacity="0.7" stroke-width="0.8" x1="984.4" x2="1003.6" y1="965.2" y2="984.4" /><line stroke="#9c9c9c" stroke-opacity="0.7" stroke-width="0.8" x1="984.4" x2="1022.8" y1="946.0" y2="984.4" /><line stroke="#9c9c9c" stroke-opacity="0.7" stroke-width="0.8" x1="984.4" x2="1042.0" y1="926.8" y2="984.4" /><line stroke="#9c9c9c" stroke-opacity="0.7" stroke-width="0.8" x1="984.4" x2="1061.2" y1="907.6" y2="984.4" /><line stroke="#9c9c9c" stroke-opacity="0.7" stroke-width="0.8" x1="984.4" x2="1080.4" y1="888.4" y2="984.4" /><line stroke="#9c9c9c" stroke-opacity="0.7" stroke-width="0.8" x1="984.4" x2="1093.6" y1="869.2" y2="978.4" /><line stroke="#9c9c9c" stroke-opacity="0.7" stroke-width="0.8" x1="984.4" x2="1093.6" y1="850.0" y2="959.2" /><line stroke="#9c9c9c" stroke-opacity="0.7" stroke-width="0.8" x1="984.4" x2="1093.6" y1="830.8" y2="940.0" /><line stroke="#9c9c9c" stroke-opacity="0.7" stroke-width="0.8" x1="984.4" x2="1093.6" y1="811.6" y2="920.8" /><line stroke="#9c9c9c" stroke-opacity="0.7" stroke-width="0.8" x1="984.4" x2="1093.6" y1="792.4" y2="901.6" /><line stroke="#9c9c9c" stroke-opacity="0.7" stroke-width="0.8" x1="984.4" x2="1093.6" y1="773.2" y2="882.4" /><line stroke="#9c9c9c" stroke-opacity="0.7" stroke-width="0.8" x1="984.4" x2="1093.6" y1="754.0" y2="863.2" /><line stroke="#9c9c9c" stroke-opacity="0.7" stroke-width="0.8" x1="984.4" x2="1093.6" y1="734.8" y2="844.0" /><line stroke="#9c9c9c" stroke-opacity="0.7" stroke-width="0.8" x1="984.4" x2="1093.6" y1="715.6" y2="824.8" /><line stroke="#9c9c9c" stroke-opacity="0.7" stroke-width="0.8" x1="984.4" x2="1093.6" y1="696.4" y2="805.6" /><line stroke="#9c9c9c" stroke-opacity="0.7" stroke-width="0.8" x1="984.4" x2="1093.6" y1="677.2" y2="786.4" /><line stroke="#9c9c9c" stroke-opacity="0.7" stroke-width="0.8" x1="984.4" x2="1093.6" y1="658.0" y2="767.2" /><line stroke="#9c9c9c" stroke-opacity="0.7" stroke-width="0.8" x1="1002.4" x2="1093.6" y1="656.8" y2="748.0" /><line stroke="#9c9c9c" stroke-opacity="0.7" stroke-width="0.8" x1="1021.6" x2="1093.6" y1="656.8" y2="728.8" /><line stroke="#9c9c9c" stroke-opacity="0.7" stroke-width="0.8" x1="1040.8" x2="1093.6" y1="656.8" y2="709.6" /><line stroke="#9c9c9c" stroke-opacity="0.7" stroke-width="0.8" x1="1060.0" x2="1093.6" y1="656.8" y2="690.4" /><line stroke="#9c9c9c" stroke-opacity="0.7" stroke-width="0.8" x1="1079.2" x2="1093.6" y1="656.8" y2="671.2" /><rect fill="none" height="43.68" stroke="#8a6b4a" stroke-width="1.0" width="209.664" x="573.808" y="263.68" /><rect fill="none" height="96.096" stroke="#8a6b4a" stroke-width="1.0" width="39.312" x="744.16" y="263.68" /><circle cx="636.3904" cy="285.52" fill="none" r="8.4" stroke="#8a6b4a" stroke-width="0.9" /><circle cx="657.9904" cy="285.52" fill="none" r="8.4" stroke="#8a6b4a" stroke-width="0.9" /><rect fill="none" height="23.063" stroke="#8a6b4a" stroke-width="0.9" width="26.7322" x="750.0568" y="304.0403" /><rect fill="none" height="52.416" stroke="#8a6b4a" stroke-width="1.0" width="144.144" x="482.08" y="403.456" /><rect fill="none" height="111.384" stroke="#7f7f7f" stroke-width="1.1" width="218.4" x="356.5" y="715.768" /><line stroke="#7f7f7f" stroke-width="0.9" x1="356.5" x2="574.9" y1="754.7524" y2="754.7524" /><rect fill="none" height="111.384" stroke="#7f7f7f" stroke-width="1.1" width="214.032" x="795.484" y="715.768" /><line stroke="#7f7f7f" stroke-width="0.9" x1="795.484" x2="1009.516" y1="754.7524" y2="754.7524" /><rect fill="none" height="48.048" stroke="#6f6f6f" stroke-width="1.0" width="74.256" x="1132.912" y="586.912" /><rect fill="none" height="48.048" stroke="#6f6f6f" stroke-width="1.0" width="74.256" x="1220.272" y="586.912" /><line stroke="#8f8f8f" stroke-width="0.8" x1="1124.176" x2="1281.424" y1="572.512" y2="572.512" /><circle cx="1285.6" cy="574.0" fill="none" r="8.4" stroke="#7c7c7c" stroke-width="0.9" /><line stroke="#7c7c7c" stroke-width="0.8" x1="1274.8" x2="1296.4" y1="574.0" y2="574.0" /><line stroke="#7c7c7c" stroke-width="0.8" x1="1285.6" x2="1285.6" y1="563.2" y2="584.8" /><rect fill="none" height="109.2" rx="6" ry="6" stroke="#6f6f6f" stroke-width="1.0" width="135.408" x="1137.28" y="814.048" /><circle cx="1285.6" cy="792.4" fill="none" r="8.4" stroke="#7c7c7c" stroke-width="0.9" /><line stroke="#7c7c7c" stroke-width="0.8" x1="1274.8" x2="1296.4" y1="792.4" y2="792.4" /><line stroke="#7c7c7c" stroke-width="0.8" x1="1285.6" x2="1285.6" y1="781.6" y2="803.2" /><line stroke="#ffffff" stroke-width="6" x1="1153.66" x2="1251.94" y1="438.4" y2="438.4" /><line stroke="#595959" stroke-width="1.2" x1="1153.66" x2="1217.542" y1="438.4" y2="502.282" /><path d="M 1217.542,438.4 A 63.882,63.882 0 0 1 1217.542,502.282" fill="none" stroke="#7a7a7a" stroke-width="1.0" /><line stroke="#ffffff" stroke-width="6" x1="875.2" x2="875.2" y1="556.6" y2="647.8" /><line stroke="#ffffff" stroke-width="6" x1="352.3" x2="469.9" y1="656.8" y2="656.8" /><line stroke="#595959" stroke-width="1.2" x1="352.3" x2="428.74" y1="656.8" y2="733.24" /><path d="M 428.74,656.8 A 76.44,76.44 0 0 1 428.74,733.24" fill="none" stroke="#7a7a7a" stroke-width="1.0" /><line stroke="#ffffff" stroke-width="6" x1="747.7" x2="838.9" y1="656.8" y2="656.8" /><line stroke="#595959" stroke-width="1.2" x1="747.7" x2="806.98" y1="656.8" y2="597.52" /><path d="M 806.98,656.8 A 59.28,59.28 0 0 1 806.98,597.52" fill="none" stroke="#7a7a7a" stroke-width="1.0" /><line stroke="#ffffff" stroke-width="6" x1="993.4" x2="1084.6" y1="438.4" y2="438.4" /><line stroke="#ffffff" stroke-width="6" x1="1153.66" x2="1251.94" y1="547.6" y2="547.6" /><line stroke="#595959" stroke-width="1.2" x1="1153.66" x2="1217.542" y1="547.6" y2="483.718" /><path d="M 1217.542,547.5999999999999 A 63.882,63.882 0 0 1 1217.542,483.718" fill="none" stroke="#7a7a7a" stroke-width="1.0" /><line stroke="#ffffff" stroke-width="6" x1="875.2" x2="875.2" y1="325.0" y2="442.6" /><line stroke="#595959" stroke-width="1.2" x1="875.2" x2="951.64" y1="325.0" y2="401.44" /><path d="M 875.1999999999999,401.44 A 76.44,76.44 0 0 1 951.64,401.44" fill="none" stroke="#7a7a7a" stroke-width="1.0" /><line stroke="#ffffff" stroke-width="6" x1="1153.66" x2="1251.94" y1="766.0" y2="766.0" /><line stroke="#595959" stroke-width="1.2" x1="1153.66" x2="1217.542" y1="766.0" y2="702.118" /><path d="M 1217.542,766.0 A 63.882,63.882 0 0 1 1217.542,702.1179999999999" fill="none" stroke="#7a7a7a" stroke-width="1.0" /><line stroke="#ffffff" stroke-width="7" x1="1312.0" x2="1312.0" y1="280.06" y2="378.34" /><line stroke="#595959" stroke-width="1.2" x1="1312.0" x2="1248.118" y1="280.06" y2="343.942" /><path d="M 1312.0,343.942 A 63.882,63.882 0 0 1 1248.118,343.942" fill="none" stroke="#7a7a7a" stroke-width="1.0" /><line stroke="#66a7ff" stroke-width="2.2" x1="1148.2" x2="1257.4" y1="217.36" y2="217.36" /><line stroke="#66a7ff" stroke-width="2.2" x1="1148.2" x2="1257.4" y1="222.64" y2="222.64" /><line stroke="#66a7ff" stroke-width="2.2" x1="217.36" x2="217.36" y1="268.084" y2="416.524" /><line stroke="#66a7ff" stroke-width="2.2" x1="222.64" x2="222.64" y1="268.084" y2="416.524" /><line stroke="#66a7ff" stroke-width="2.2" x1="217.36" x2="217.36" y1="460.276" y2="608.716" /><line stroke="#66a7ff" stroke-width="2.2" x1="222.64" x2="222.64" y1="460.276" y2="608.716" /><line stroke="#66a7ff" stroke-width="2.2" x1="307.456" x2="499.456" y1="217.36" y2="217.36" /><line stroke="#66a7ff" stroke-width="2.2" x1="307.456" x2="499.456" y1="222.64" y2="222.64" /><line stroke="#66a7ff" stroke-width="2.2" x1="595.744" x2="787.744" y1="217.36" y2="217.36" /><line stroke="#66a7ff" stroke-width="2.2" x1="595.744" x2="787.744" y1="222.64" y2="222.64" /><line stroke="#66a7ff" stroke-width="2.2" x1="217.36" x2="217.36" y1="764.92" y2="876.28" /><line stroke="#66a7ff" stroke-width="2.2" x1="222.64" x2="222.64" y1="764.92" y2="876.28" /><line stroke="#66a7ff" stroke-width="2.2" x1="346.18" x2="476.02" y1="981.76" y2="981.76" /><line stroke="#66a7ff" stroke-width="2.2" x1="346.18" x2="476.02" y1="987.04" y2="987.04" /><line stroke="#66a7ff" stroke-width="2.2" x1="793.3" x2="902.5" y1="981.76" y2="981.76" /><line stroke="#66a7ff" stroke-width="2.2" x1="793.3" x2="902.5" y1="987.04" y2="987.04" /><line stroke="#9a9a9a" stroke-width="0.8" x1="992.8" x2="1085.2" y1="446.8" y2="446.8" /><line stroke="#9a9a9a" stroke-width="0.8" x1="992.8" x2="992.8" y1="443.44" y2="450.16" /><line stroke="#9a9a9a" stroke-width="0.8" x1="1085.2" x2="1085.2" y1="443.44" y2="450.16" /><text fill="#8a8a8a" font-size="7.6" text-anchor="start" x="999.52" y="444.15999999999997">910mm</text><line stroke="#9a9a9a" stroke-width="0.8" x1="992.8" x2="992.8" y1="446.8" y2="648.4" /><line stroke="#9a9a9a" stroke-width="0.8" x1="989.44" x2="996.16" y1="446.8" y2="446.8" /><line stroke="#9a9a9a" stroke-width="0.8" x1="989.44" x2="996.16" y1="648.4" y2="648.4" /><text fill="#8a8a8a" font-size="7.6" text-anchor="start" x="996.88" y="454.48">1820mm</text><text fill="#1b1b1b" font-size="10" text-anchor="middle" x="1202.8" y="860.8">Bath 1</text><text fill="#1b1b1b" font-size="10" text-anchor="middle" x="1202.8" y="871.6">1820x1820mm</text><text fill="#1b1b1b" font-size="10" text-anchor="middle" x="1202.8" y="882.4">3.3sqm / 2.0jo</text><text fill="#1b1b1b" font-size="10" text-anchor="middle" x="465.7" y="806.1999999999999">Bedroom 1</text><text fill="#1b1b1b" font-size="10" text-anchor="middle" x="465.7" y="817.0">4095x2730mm</text><text fill="#1b1b1b" font-size="10" text-anchor="middle" x="465.7" y="827.8">11.2sqm / 6.9jo</text><text fill="#1b1b1b" font-size="10" text-anchor="middle" x="902.5" y="806.1999999999999">Bedroom 2</text><text fill="#1b1b1b" font-size="10" text-anchor="middle" x="902.5" y="817.0">3185x2730mm</text><text fill="#1b1b1b" font-size="10" text-anchor="middle" x="902.5" y="827.8">8.7sqm / 5.4jo</text><text fill="#1b1b1b" font-size="10" text-anchor="middle" x="1202.8" y="314.8">Entry</text><text fill="#1b1b1b" font-size="10" text-anchor="middle" x="1202.8" y="325.6">1820x1820mm</text><text fill="#1b1b1b" font-size="10" text-anchor="middle" x="1202.8" y="336.4">3.3sqm / 2.0jo</text><text fill="#1b1b1b" font-size="9" text-anchor="middle" x="1082.6799999999998" y="522.28">Hall 1</text><text fill="#1b1b1b" font-size="9" text-anchor="middle" x="1082.6799999999998" y="533.0799999999999">4.1sqm / 2.6jo</text><text fill="#1b1b1b" font-size="10" text-anchor="middle" x="547.5999999999999" y="424.0">Ldk</text><text fill="#1b1b1b" font-size="10" text-anchor="middle" x="547.5999999999999" y="434.79999999999995">5460x3640mm</text><text fill="#1b1b1b" font-size="10" text-anchor="middle" x="547.5999999999999" y="445.6">19.9sqm / 12.3jo</text><text fill="#1b1b1b" font-size="10" text-anchor="middle" x="929.8" y="369.4">Storage 1</text><text fill="#1b1b1b" font-size="10" text-anchor="middle" x="929.8" y="380.2">910x2730mm</text><text fill="#1b1b1b" font-size="10" text-anchor="middle" x="929.8" y="391.0">2.5sqm / 1.5jo</text><text fill="#1b1b1b" font-size="10" text-anchor="middle" x="1039.0" y="314.8">Toilet 1</text><text fill="#1b1b1b" font-size="10" text-anchor="middle" x="1039.0" y="325.6">910x1820mm</text><text fill="#1b1b1b" font-size="10" text-anchor="middle" x="1039.0" y="336.4">1.7sqm / 1.0jo</text><text fill="#1b1b1b" font-size="10" text-anchor="middle" x="1202.8" y="642.4">Wash 1</text><text fill="#1b1b1b" font-size="10" text-anchor="middle" x="1202.8" y="653.2">1820x1820mm</text><text fill="#1b1b1b" font-size="10" text-anchor="middle" x="1202.8" y="664.0">3.3sqm / 2.0jo</text><text fill="#4a4a4a" font-size="10" text-anchor="middle" x="656.8" y="820.6">CL</text><text fill="#4a4a4a" font-size="10" text-anchor="middle" x="1039.0" y="820.6">CL</text><text fill="#111111" font-size="14" x="220.0" y="180.0">F1 Plan  (9100 x 6370 mm)</text><text fill="#444444" font-size="10" x="220.0" y="198.0">Scale: 1px=8.3mm</text><rect fill="#ffffff" height="216" stroke="#777777" stroke-width="1" width="170" x="1400.0" y="150.0" /><text fill="#111111" font-size="11" x="1408.0" y="164.0">Legend</text><rect fill="#f8f0d9" height="12" stroke="#333333" stroke-width="1" width="12" x="1408.0" y="174.0" /><text fill="#222222" font-size="10" x="1426.0" y="184.0">Entry</text><rect fill="#efe9ff" height="12" stroke="#333333" stroke-width="1" width="12" x="1408.0" y="192.0" /><text fill="#222222" font-size="10" x="1426.0" y="202.0">Hall</text><rect fill="#ffe2b8" height="12" stroke="#333333" stroke-width="1" width="12" x="1408.0" y="210.0" /><text fill="#222222" font-size="10" x="1426.0" y="220.0">Ldk</text><rect fill="#d9f2ff" height="12" stroke="#333333" stroke-width="1" width="12" x="1408.0" y="228.0" /><text fill="#222222" font-size="10" x="1426.0" y="238.0">Bedroom</text><rect fill="#fbe7e6" height="12" stroke="#333333" stroke-width="1" width="12" x="1408.0" y="246.0" /><text fill="#222222" font-size="10" x="1426.0" y="256.0">Toilet</text><rect fill="#e7fbfb" height="12" stroke="#333333" stroke-width="1" width="12" x="1408.0" y="264.0" /><text fill="#222222" font-size="10" x="1426.0" y="274.0">Washroom</text><rect fill="#dcecff" height="12" stroke="#333333" stroke-width="1" width="12" x="1408.0" y="282.0" /><text fill="#222222" font-size="10" x="1426.0" y="292.0">Bath</text><rect fill="#f7f3ea" height="12" stroke="#333333" stroke-width="1" width="12" x="1408.0" y="300.0" /><text fill="#222222" font-size="10" x="1426.0" y="310.0">Closet</text><rect fill="#f0f0f0" height="12" stroke="#333333" stroke-width="1" width="12" x="1408.0" y="318.0" /><text fill="#222222" font-size="10" x="1426.0" y="328.0">Storage</text><line stroke="#6aa4ff" stroke-width="4" x1="1408.0" x2="1435.0" y1="348.0" y2="348.0" /><text fill="#222222" font-size="10" x="1442.0" y="351.0">Window</text><line stroke="#666666" stroke-width="2.4" x1="1408.0" x2="1435.0" y1="364.0" y2="364.0" /><path d="M 1408.0,364.0 A 10,10 0 0 1 1418.0,354.0" fill="none" stroke="#666666" stroke-width="1.2" /><text fill="#222222" font-size="10" x="1442.0" y="367.0">Door</text><rect fill="#ffffff" height="68" stroke="#777777" stroke-width="1" width="200" x="1400.0" y="520.0" /><text fill="#111111" font-size="10" x="1408.0" y="533.0">Area (F1)</text><text fill="#222222" font-size="9" x="1408.0" y="550.0">F1: in 58.0 sqm (17.5 tsubo), out 0.0 sqm (0.0 tsubo)</text><text fill="#222222" font-size="9" x="1408.0" y="566.0">Total indoor: 58.0 sqm (17.5 tsubo)</text><text fill="#222222" font-size="9" x="1408.0" y="582.0">Total outdoor: 0.0 sqm (0.0 tsubo)</text><line stroke="#111111" stroke-width="2" x1="175.0" x2="175.0" y1="238.0" y2="208.0" /><polygon fill="#111111" points="175.0,208.0 181.0,214.0 169.0,214.0" /><text fill="#111111" font-size="12" x="170.0" y="202.0">N</text><line stroke="#545454" stroke-width="1.0" x1="220.0" x2="1312.0" y1="148.0" y2="148.0" /><line stroke="#545454" stroke-width="0.8" x1="220.0" x2="220.0" y1="220.0" y2="148.0" /><line stroke="#545454" stroke-width="1.0" x1="220.0" x2="220.0" y1="145.0" y2="151.0" /><line stroke="#545454" stroke-width="0.8" x1="1312.0" x2="1312.0" y1="220.0" y2="148.0" /><line stroke="#545454" stroke-width="1.0" x1="1312.0" x2="1312.0" y1="145.0" y2="151.0" /><text fill="#545454" font-size="8.8" text-anchor="middle" x="766.0" y="145.0">9100mm</text><line stroke="#666666" stroke-width="1.0" x1="220.0" x2="1312.0" y1="166.0" y2="166.0" /><line stroke="#666666" stroke-width="0.8" x1="220.0" x2="220.0" y1="220.0" y2="166.0" /><line stroke="#666666" stroke-width="1.0" x1="220.0" x2="220.0" y1="163.0" y2="169.0" /><line stroke="#666666" stroke-width="0.8" x1="875.2" x2="875.2" y1="220.0" y2="166.0" /><line stroke="#666666" stroke-width="1.0" x1="875.2" x2="875.2" y1="163.0" y2="169.0" /><line stroke="#666666" stroke-width="0.8" x1="984.4" x2="984.4" y1="220.0" y2="166.0" /><line stroke="#666666" stroke-width="1.0" x1="984.4" x2="984.4" y1="163.0" y2="169.0" /><line stroke="#666666" stroke-width="0.8" x1="1093.6" x2="1093.6" y1="220.0" y2="166.0" /><line stroke="#666666" stroke-width="1.0" x1="1093.6" x2="1093.6" y1="163.0" y2="169.0" /><line stroke="#666666" stroke-width="0.8" x1="1312.0" x2="1312.0" y1="220.0" y2="166.0" /><line stroke="#666666" stroke-width="1.0" x1="1312.0" x2="1312.0" y1="163.0" y2="169.0" /><text fill="#666666" font-size="8.2" text-anchor="middle" x="547.5999999999999" y="163.0">5460</text><text fill="#666666" font-size="8.2" text-anchor="middle" x="929.8" y="163.0">910</text><text fill="#666666" font-size="8.2" text-anchor="middle" x="1039.0" y="163.0">910</text><text fill="#666666" font-size="8.2" text-anchor="middle" x="1202.8" y="163.0">1820</text><line stroke="#7a7a7a" stroke-width="1.0" x1="220.0" x2="1312.0" y1="184.0" y2="184.0" /><line stroke="#7a7a7a" stroke-width="0.8" x1="220.0" x2="220.0" y1="220.0" y2="184.0" /><line stroke="#7a7a7a" stroke-width="1.0" x1="220.0" x2="220.0" y1="181.0" y2="187.0" /><line stroke="#7a7a7a" stroke-width="0.8" x1="329.2" x2="329.2" y1="220.0" y2="184.0" /><line stroke="#7a7a7a" stroke-width="1.0" x1="329.2" x2="329.2" y1="181.0" y2="187.0" /><line stroke="#7a7a7a" stroke-width="0.8" x1="493.0" x2="493.0" y1="220.0" y2="184.0" /><line stroke="#7a7a7a" stroke-width="1.0" x1="493.0" x2="493.0" y1="181.0" y2="187.0" /><line stroke="#7a7a7a" stroke-width="0.8" x1="602.2" x2="602.2" y1="220.0" y2="184.0" /><line stroke="#7a7a7a" stroke-width="1.0" x1="602.2" x2="602.2" y1="181.0" y2="187.0" /><line stroke="#7a7a7a" stroke-width="0.8" x1="766.0" x2="766.0" y1="220.0" y2="184.0" /><line stroke="#7a7a7a" stroke-width="1.0" x1="766.0" x2="766.0" y1="181.0" y2="187.0" /><line stroke="#7a7a7a" stroke-width="0.8" x1="1148.2" x2="1148.2" y1="220.0" y2="184.0" /><line stroke="#7a7a7a" stroke-width="1.0" x1="1148.2" x2="1148.2" y1="181.0" y2="187.0" /><line stroke="#7a7a7a" stroke-width="0.8" x1="1257.4" x2="1257.4" y1="220.0" y2="184.0" /><line stroke="#7a7a7a" stroke-width="1.0" x1="1257.4" x2="1257.4" y1="181.0" y2="187.0" /><line stroke="#7a7a7a" stroke-width="0.8" x1="1312.0" x2="1312.0" y1="220.0" y2="184.0" /><line stroke="#7a7a7a" stroke-width="1.0" x1="1312.0" x2="1312.0" y1="181.0" y2="187.0" /><text fill="#7a7a7a" font-size="7.8" text-anchor="middle" x="274.6" y="181.0">910</text><text fill="#7a7a7a" font-size="7.8" text-anchor="middle" x="411.1" y="181.0">1365</text><text fill="#7a7a7a" font-size="7.8" text-anchor="middle" x="547.5999999999999" y="181.0">910</text><text fill="#7a7a7a" font-size="7.8" text-anchor="middle" x="684.0999999999999" y="181.0">1365</text><text fill="#7a7a7a" font-size="7.8" text-anchor="middle" x="957.1" y="181.0">3185</text><text fill="#7a7a7a" font-size="7.8" text-anchor="middle" x="1202.8" y="181.0">910</text><line stroke="#545454" stroke-width="1.0" x1="220.0" x2="1312.0" y1="1056.4" y2="1056.4" /><line stroke="#545454" stroke-width="0.8" x1="220.0" x2="220.0" y1="984.4" y2="1056.4" /><line stroke="#545454" stroke-width="1.0" x1="220.0" x2="220.0" y1="1053.4" y2="1059.4" /><line stroke="#545454" stroke-width="0.8" x1="1312.0" x2="1312.0" y1="984.4" y2="1056.4" /><line stroke="#545454" stroke-width="1.0" x1="1312.0" x2="1312.0" y1="1053.4" y2="1059.4" /><text fill="#545454" font-size="8.8" text-anchor="middle" x="766.0" y="1066.4">9100mm</text><line stroke="#666666" stroke-width="1.0" x1="220.0" x2="1312.0" y1="1038.4" y2="1038.4" /><line stroke="#666666" stroke-width="0.8" x1="220.0" x2="220.0" y1="984.4" y2="1038.4" /><line stroke="#666666" stroke-width="1.0" x1="220.0" x2="220.0" y1="1035.4" y2="1041.4" /><line stroke="#666666" stroke-width="0.8" x1="711.4" x2="711.4" y1="984.4" y2="1038.4" /><line stroke="#666666" stroke-width="1.0" x1="711.4" x2="711.4" y1="1035.4" y2="1041.4" /><line stroke="#666666" stroke-width="0.8" x1="1093.6" x2="1093.6" y1="984.4" y2="1038.4" /><line stroke="#666666" stroke-width="1.0" x1="1093.6" x2="1093.6" y1="1035.4" y2="1041.4" /><line stroke="#666666" stroke-width="0.8" x1="1312.0" x2="1312.0" y1="984.4" y2="1038.4" /><line stroke="#666666" stroke-width="1.0" x1="1312.0" x2="1312.0" y1="1035.4" y2="1041.4" /><text fill="#666666" font-size="8.2" text-anchor="middle" x="465.7" y="1048.4">4095</text><text fill="#666666" font-size="8.2" text-anchor="middle" x="902.5" y="1048.4">3185</text><text fill="#666666" font-size="8.2" text-anchor="middle" x="1202.8" y="1048.4">1820</text><line stroke="#7a7a7a" stroke-width="1.0" x1="220.0" x2="1312.0" y1="1020.4" y2="1020.4" /><line stroke="#7a7a7a" stroke-width="0.8" x1="220.0" x2="220.0" y1="984.4" y2="1020.4" /><line stroke="#7a7a7a" stroke-width="1.0" x1="220.0" x2="220.0" y1="1017.4" y2="1023.4" /><line stroke="#7a7a7a" stroke-width="0.8" x1="329.2" x2="329.2" y1="984.4" y2="1020.4" /><line stroke="#7a7a7a" stroke-width="1.0" x1="329.2" x2="329.2" y1="1017.4" y2="1023.4" /><line stroke="#7a7a7a" stroke-width="0.8" x1="493.0" x2="493.0" y1="984.4" y2="1020.4" /><line stroke="#7a7a7a" stroke-width="1.0" x1="493.0" x2="493.0" y1="1017.4" y2="1023.4" /><line stroke="#7a7a7a" stroke-width="0.8" x1="820.6" x2="820.6" y1="984.4" y2="1020.4" /><line stroke="#7a7a7a" stroke-width="1.0" x1="820.6" x2="820.6" y1="1017.4" y2="1023.4" /><line stroke="#7a7a7a" stroke-width="0.8" x1="929.8" x2="929.8" y1="984.4" y2="1020.4" /><line stroke="#7a7a7a" stroke-width="1.0" x1="929.8" x2="929.8" y1="1017.4" y2="1023.4" /><line stroke="#7a7a7a" stroke-width="0.8" x1="1312.0" x2="1312.0" y1="984.4" y2="1020.4" /><line stroke="#7a7a7a" stroke-width="1.0" x1="1312.0" x2="1312.0" y1="1017.4" y2="1023.4" /><text fill="#7a7a7a" font-size="7.8" text-anchor="middle" x="274.6" y="1030.4">910</text><text fill="#7a7a7a" font-size="7.8" text-anchor="middle" x="411.1" y="1030.4">1365</text><text fill="#7a7a7a" font-size="7.8" text-anchor="middle" x="656.8" y="1030.4">2730</text><text fill="#7a7a7a" font-size="7.8" text-anchor="middle" x="875.1999999999999" y="1030.4">910</text><text fill="#7a7a7a" font-size="7.8" text-anchor="middle" x="1120.9" y="1030.4">3185</text><line stroke="#545454" stroke-width="1.0" x1="148.0" x2="148.0" y1="220.0" y2="984.4" /><line stroke="#545454" stroke-width="0.8" x1="220.0" x2="148.0" y1="220.0" y2="220.0" /><line stroke="#545454" stroke-width="1.0" x1="145.0" x2="151.0" y1="220.0" y2="220.0" /><line stroke="#545454" stroke-width="0.8" x1="220.0" x2="148.0" y1="984.4" y2="984.4" /><line stroke="#545454" stroke-width="1.0" x1="145.0" x2="151.0" y1="984.4" y2="984.4" /><text fill="#545454" font-size="8.8" x="144.0" y="602.2">6370mm</text><line stroke="#666666" stroke-width="1.0" x1="166.0" x2="166.0" y1="220.0" y2="984.4" /><line stroke="#666666" stroke-width="0.8" x1="220.0" x2="166.0" y1="220.0" y2="220.0" /><line stroke="#666666" stroke-width="1.0" x1="163.0" x2="169.0" y1="220.0" y2="220.0" /><line stroke="#666666" stroke-width="0.8" x1="220.0" x2="166.0" y1="656.8" y2="656.8" /><line stroke="#666666" stroke-width="1.0" x1="163.0" x2="169.0" y1="656.8" y2="656.8" /><line stroke="#666666" stroke-width="0.8" x1="220.0" x2="166.0" y1="984.4" y2="984.4" /><line stroke="#666666" stroke-width="1.0" x1="163.0" x2="169.0" y1="984.4" y2="984.4" /><text fill="#666666" font-size="8.2" x="162.0" y="438.4">3640</text><text fill="#666666" font-size="8.2" x="162.0" y="820.6">2730</text><line stroke="#7a7a7a" stroke-width="1.0" x1="184.0" x2="184.0" y1="220.0" y2="984.4" /><line stroke="#7a7a7a" stroke-width="0.8" x1="220.0" x2="184.0" y1="220.0" y2="220.0" /><line stroke="#7a7a7a" stroke-width="1.0" x1="181.0" x2="187.0" y1="220.0" y2="220.0" /><line stroke="#7a7a7a" stroke-width="0.8" x1="220.0" x2="184.0" y1="274.6" y2="274.6" /><line stroke="#7a7a7a" stroke-width="1.0" x1="181.0" x2="187.0" y1="274.6" y2="274.6" /><line stroke="#7a7a7a" stroke-width="0.8" x1="220.0" x2="184.0" y1="438.4" y2="438.4" /><line stroke="#7a7a7a" stroke-width="1.0" x1="181.0" x2="187.0" y1="438.4" y2="438.4" /><line stroke="#7a7a7a" stroke-width="0.8" x1="220.0" x2="184.0" y1="602.2" y2="602.2" /><line stroke="#7a7a7a" stroke-width="1.0" x1="181.0" x2="187.0" y1="602.2" y2="602.2" /><line stroke="#7a7a7a" stroke-width="0.8" x1="220.0" x2="184.0" y1="766.0" y2="766.0" /><line stroke="#7a7a7a" stroke-width="1.0" x1="181.0" x2="187.0" y1="766.0" y2="766.0" /><line stroke="#7a7a7a" stroke-width="0.8" x1="220.0" x2="184.0" y1="875.2" y2="875.2" /><line stroke="#7a7a7a" stroke-width="1.0" x1="181.0" x2="187.0" y1="875.2" y2="875.2" /><line stroke="#7a7a7a" stroke-width="0.8" x1="220.0" x2="184.0" y1="984.4" y2="984.4" /><line stroke="#7a7a7a" stroke-width="1.0" x1="181.0" x2="187.0" y1="984.4" y2="984.4" /><text fill="#7a7a7a" font-size="7.8" x="180.0" y="356.5">1365</text><text fill="#7a7a7a" font-size="7.8" x="180.0" y="520.3">1365</text><text fill="#7a7a7a" font-size="7.8" x="180.0" y="684.0999999999999">1365</text><text fill="#7a7a7a" font-size="7.8" x="180.0" y="820.6">910</text><text fill="#7a7a7a" font-size="7.8" x="180.0" y="929.8">910</text><line stroke="#545454" stroke-width="1.0" x1="1384.0" x2="1384.0" y1="220.0" y2="984.4" /><line stroke="#545454" stroke-width="0.8" x1="1312.0" x2="1384.0" y1="220.0" y2="220.0" /><line stroke="#545454" stroke-width="1.0" x1="1381.0" x2="1387.0" y1="220.0" y2="220.0" /><line stroke="#545454" stroke-width="0.8" x1="1312.0" x2="1384.0" y1="984.4" y2="984.4" /><line stroke="#545454" stroke-width="1.0" x1="1381.0" x2="1387.0" y1="984.4" y2="984.4" /><text fill="#545454" font-size="8.8" x="1389.0" y="602.2">6370mm</text><line stroke="#666666" stroke-width="1.0" x1="1366.0" x2="1366.0" y1="220.0" y2="984.4" /><line stroke="#666666" stroke-width="0.8" x1="1312.0" x2="1366.0" y1="220.0" y2="220.0" /><line stroke="#666666" stroke-width="1.0" x1="1363.0" x2="1369.0" y1="220.0" y2="220.0" /><line stroke="#666666" stroke-width="0.8" x1="1312.0" x2="1366.0" y1="438.4" y2="438.4" /><line stroke="#666666" stroke-width="1.0" x1="1363.0" x2="1369.0" y1="438.4" y2="438.4" /><line stroke="#666666" stroke-width="0.8" x1="1312.0" x2="1366.0" y1="547.6" y2="547.6" /><line stroke="#666666" stroke-width="1.0" x1="1363.0" x2="1369.0" y1="547.6" y2="547.6" /><line stroke="#666666" stroke-width="0.8" x1="1312.0" x2="1366.0" y1="766.0" y2="766.0" /><line stroke="#666666" stroke-width="1.0" x1="1363.0" x2="1369.0" y1="766.0" y2="766.0" /><line stroke="#666666" stroke-width="0.8" x1="1312.0" x2="1366.0" y1="984.4" y2="984.4" /><line stroke="#666666" stroke-width="1.0" x1="1363.0" x2="1369.0" y1="984.4" y2="984.4" /><text fill="#666666" font-size="8.2" x="1371.0" y="329.2">1820</text><text fill="#666666" font-size="8.2" x="1371.0" y="493.0">910</text><text fill="#666666" font-size="8.2" x="1371.0" y="656.8">1820</text><text fill="#666666" font-size="8.2" x="1371.0" y="875.1999999999999">1820</text><line stroke="#7a7a7a" stroke-width="1.0" x1="1348.0" x2="1348.0" y1="220.0" y2="984.4" /><line stroke="#7a7a7a" stroke-width="0.8" x1="1312.0" x2="1348.0" y1="220.0" y2="220.0" /><line stroke="#7a7a7a" stroke-width="1.0" x1="1345.0" x2="1351.0" y1="220.0" y2="220.0" /><line stroke="#7a7a7a" stroke-width="0.8" x1="1312.0" x2="1348.0" y1="274.6" y2="274.6" /><line stroke="#7a7a7a" stroke-width="1.0" x1="1345.0" x2="1351.0" y1="274.6" y2="274.6" /><line stroke="#7a7a7a" stroke-width="0.8" x1="1312.0" x2="1348.0" y1="383.8" y2="383.8" /><line stroke="#7a7a7a" stroke-width="1.0" x1="1345.0" x2="1351.0" y1="383.8" y2="383.8" /><line stroke="#7a7a7a" stroke-width="0.8" x1="1312.0" x2="1348.0" y1="984.4" y2="984.4" /><line stroke="#7a7a7a" stroke-width="1.0" x1="1345.0" x2="1351.0" y1="984.4" y2="984.4" /><text fill="#7a7a7a" font-size="7.8" x="1353.0" y="329.2">910</text><text fill="#7a7a7a" font-size="7.8" x="1353.0" y="684.0999999999999">5005</text></svg>