<?xml version="1.0" encoding="utf-8" ?>
<svg baseProfile="tiny" height="1095.1999999999998px" version="1.2" width="1750.3999999999999px" xmlns="http://www.w3.org/2000/svg" xmlns:ev="http://www.w3.org/2001/xml-events" xmlns:xlink="http://www.w3.org/1999/xlink"><defs /><rect fill="#fafafa" height="1095.2" width="1750.4" x="0" y="0" /><line stroke="#ececec" stroke-width="0.7" x1="220.0" x2="220.0" y1="220.0" y2="875.2" /><line stroke="#ececec" stroke-width="0.7" x1="274.6" x2="274.6" y1="220.0" y2="875.2" /><line stroke="#ececec" stroke-width="0.7" x1="329.2" x2="329.2" y1="220.0" y2="875.2" /><line stroke="#ececec" stroke-width="0.7" x1="383.8" x2="383.8" y1="220.0" y2="875.2" /><line stroke="#ececec" stroke-width="0.7" x1="438.4" x2="438.4" y1="220.0" y2="875.2" /><line stroke="#ececec" stroke-width="0.7" x1="493.0" x2="493.0" y1="220.0" y2="875.2" /><line stroke="#ececec" stroke-width="0.7" x1="547.6" x2="547.6" y1="220.0" y2="875.2" /><line stroke="#ececec" stroke-width="0.7" x1="602.2" x2="602.2" y1="220.0" y2="875.2" /><line stroke="#ececec" stroke-width="0.7" x1="656.8" x2="656.8" y1="220.0" y2="875.2" /><line stroke="#ececec" stroke-width="0.7" x1="711.4" x2="711.4" y1="220.0" y2="875.2" /><line stroke="#ececec" stroke-width="0.7" x1="766.0" x2="766.0" y1="220.0" y2="875.2" /><line stroke="#ececec" stroke-width="0.7" x1="820.6" x2="820.6" y1="220.0" y2="875.2" /><line stroke="#ececec" stroke-width="0.7" x1="875.2" x2="875.2" y1="220.0" y2="875.2" /><line stroke="#ececec" stroke-width="0.7" x1="929.8" x2="929.8" y1="220.0" y2="875.2" /><line stroke="#ececec" stroke-width="0.7" x1="984.4" x2="984.4" y1="220.0" y2="875.2" /><line stroke="#ececec" stroke-width="0.7" x1="1039.0" x2="1039.0" y1="220.0" y2="875.2" /><line stroke="#ececec" stroke-width="0.7" x1="1093.6" x2="1093.6" y1="220.0" y2="875.2" /><line stroke="#ececec" stroke-width="0.7" x1="1148.2" x2="1148.2" y1="220.0" y2="875.2" /><line stroke="#ececec" stroke-width="0.7" x1="1202.8" x2="1202.8" y1="220.0" y2="875.2" /><line stroke="#ececec" stroke-width="0.7" x1="1257.4" x2="1257.4" y1="220.0" y2="875.2" /><line stroke="#ececec" stroke-width="0.7" x1="1312.0" x2="1312.0" y1="220.0" y2="875.2" /><line stroke="#ececec" stroke-width="0.7" x1="1366.6" x2="1366.6" y1="220.0" y2="875.2" /><line stroke="#ececec" stroke-width="0.7" x1="1421.2" x2="1421.2" y1="220.0" y2="875.2" /><line stroke="#ececec" stroke-width="0.7" x1="1475.8" x2="1475.8" y1="220.0" y2="875.2" /><line stroke="#ececec" stroke-width="0.7" x1="1530.4" x2="1530.4" y1="220.0" y2="875.2" /><line stroke="#d1d1d1" stroke-width="1.1" x1="220.0" x2="220.0" y1="220.0" y2="875.2" /><line stroke="#d1d1d1" stroke-width="1.1" x1="329.2" x2="329.2" y1="220.0" y2="875.2" /><line stroke="#d1d1d1" stroke-width="1.1" x1="438.4" x2="438.4" y1="220.0" y2="875.2" /><line stroke="#d1d1d1" stroke-width="1.1" x1="547.6" x2="547.6" y1="220.0" y2="875.2" /><line stroke="#d1d1d1" stroke-width="1.1" x1="656.8" x2="656.8" y1="220.0" y2="875.2" /><line stroke="#d1d1d1" stroke-width="1.1" x1="766.0" x2="766.0" y1="220.0" y2="875.2" /><line stroke="#d1d1d1" stroke-width="1.1" x1="875.2" x2="875.2" y1="220.0" y2="875.2" /><line stroke="#d1d1d1" stroke-width="1.1" x1="984.4" x2="984.4" y1="220.0" y2="875.2" /><line stroke="#d1d1d1" stroke-width="1.1" x1="1093.6" x2="1093.6" y1="220.0" y2="875.2" /><line stroke="#d1d1d1" stroke-width="1.1" x1="1202.8" x2="1202.8" y1="220.0" y2="875.2" /><line stroke="#d1d1d1" stroke-width="1.1" x1="1312.0" x2="1312.0" y1="220.0" y2="875.2" /><line stroke="#d1d1d1" stroke-width="1.1" x1="1421.2" x2="1421.2" y1="220.0" y2="875.2" /><line stroke="#d1d1d1" stroke-width="1.1" x1="1530.4" x2="1530.4" y1="220.0" y2="875.2" /><line stroke="#d1d1d1" stroke-width="1.1" x1="220.0" x2="1530.4" y1="220.0" y2="220.0" /><line stroke="#d1d1d1" stroke-width="1.1" x1="220.0" x2="1530.4" y1="329.2" y2="329.2" /><line stroke="#d1d1d1" stroke-width="1.1" x1="220.0" x2="1530.4" y1="438.4" y2="438.4" /><line stroke="#d1d1d1" stroke-width="1.1" x1="220.0" x2="1530.4" y1="547.6" y2="547.6" /><line stroke="#d1d1d1" stroke-width="1.1" x1="220.0" x2="1530.4" y1="656.8" y2="656.8" /><line stroke="#d1d1d1" stroke-width="1.1" x1="220.0" x2="1530.4" y1="766.0" y2="766.0" /><line stroke="#d1d1d1" stroke-width="1.1" x1="220.0" x2="1530.4" y1="875.2" y2="875.2" /><line stroke="#ececec" stroke-width="0.7" x1="220.0" x2="1530.4" y1="220.0" y2="220.0" /><line stroke="#ececec" stroke-width="0.7" x1="220.0" x2="1530.4" y1="274.6" y2="274.6" /><line stroke="#ececec" stroke-width="0.7" x1="220.0" x2="1530.4" y1="329.2" y2="329.2" /><line stroke="#ececec" stroke-width="0.7" x1="220.0" x2="1530.4" y1="383.8" y2="383.8" /><line stroke="#ececec" stroke-width="0.7" x1="220.0" x2="1530.4" y1="438.4" y2="438.4" /><line stroke="#ececec" stroke-width="0.7" x1="220.0" x2="1530.4" y1="493.0" y2="493.0" /><line stroke="#ececec" stroke-width="0.7" x1="220.0" x2="1530.4" y1="547.6" y2="547.6" /><line stroke="#ececec" stroke-width="0.7" x1="220.0" x2="1530.4" y1="602.2" y2="602.2" /><line stroke="#ececec" stroke-width="0.7" x1="220.0" x2="1530.4" y1="656.8" y2="656.8" /><line stroke="#ececec" stroke-width="0.7" x1="220.0" x2="1530.4" y1="711.4" y2="711.4" /><line stroke="#ececec" stroke-width="0.7" x1="220.0" x2="1530.4" y1="766.0" y2="766.0" /><line stroke="#ececec" stroke-width="0.7" x1="220.0" x2="1530.4" y1="820.6" y2="820.6" /><line stroke="#ececec" stroke-width="0.7" x1="220.0" x2="1530.4" y1="875.2" y2="875.2" /><rect fill="none" height="655.2" stroke="#6a6a6a" stroke-dasharray="8,4" stroke-width="2" width="1310.4" x="220.0" y="220.0" /><rect fill="none" height="655.2" stroke="#1f1f1f" stroke-width="3.5" width="1310.4" x="220.0" y="220.0" /><text fill="#555555" font-size="10" x="222.0" y="160.0">Site Envelope = Building Footprint</text><rect fill="#dcecff" height="218.4" stroke="none" width="218.4" x="656.8" y="220.0" /><line stroke="#2f2f2f" stroke-width="2.2" x1="656.8" x2="875.2" y1="438.4" y2="438.4" /><line stroke="#2f2f2f" stroke-width="2.2" x1="656.8" x2="875.2" y1="220.0" y2="220.0" /><line stroke="#2f2f2f" stroke-width="2.2" x1="875.2" x2="875.2" y1="220.0" y2="438.4" /><line stroke="#2f2f2f" stroke-width="2.2" x1="656.8" x2="656.8" y1="220.0" y2="438.4" /><rect fill="#f8f0d9" height="273.0" stroke="none" width="163.8" x="1257.4" y="602.2" /><line stroke="#2f2f2f" stroke-width="2.2" x1="1257.4" x2="1421.2" y1="602.2" y2="602.2" /><line stroke="#2f2f2f" stroke-width="2.2" x1="1257.4" x2="1421.2" y1="875.2" y2="875.2" /><line stroke="#2f2f2f" stroke-width="2.2" x1="1257.4" x2="1257.4" y1="602.2" y2="875.2" /><line stroke="#2f2f2f" stroke-width="2.2" x1="1421.2" x2="1421.2" y1="602.2" y2="875.2" /><rect fill="#efe9ff" height="163.8" stroke="none" width="109.2" x="1421.2" y="493.0" /><rect fill="#efe9ff" height="273.0" stroke="none" width="163.8" x="1257.4" y="329.2" /><rect fill="#efe9ff" height="218.4" stroke="none" width="163.8" x="1093.6" y="220.0" /><line stroke="#2f2f2f" stroke-width="2.2" x1="1421.2" x2="1530.4" y1="493.0" y2="493.0" /><line stroke="#2f2f2f" stroke-width="2.2" x1="1093.6" x2="1257.4" y1="220.0" y2="220.0" /><line stroke="#2f2f2f" stroke-width="2.2" x1="1257.4" x2="1421.2" y1="602.2" y2="602.2" /><line stroke="#2f2f2f" stroke-width="2.2" x1="1093.6" x2="1257.4" y1="438.4" y2="438.4" /><line stroke="#2f2f2f" stroke-width="2.2" x1="1257.4" x2="1421.2" y1="329.2" y2="329.2" /><line stroke="#2f2f2f" stroke-width="2.2" x1="1421.2" x2="1530.4" y1="656.8" y2="656.8" /><line stroke="#2f2f2f" stroke-width="2.2" x1="1421.2" x2="1421.2" y1="329.2" y2="493.0" /><line stroke="#2f2f2f" stroke-width="2.2" x1="1421.2" x2="1421.2" y1="602.2" y2="656.8" /><line stroke="#2f2f2f" stroke-width="2.2" x1="1093.6" x2="1093.6" y1="220.0" y2="438.4" /><line stroke="#2f2f2f" stroke-width="2.2" x1="1257.4" x2="1257.4" y1="220.0" y2="329.2" /><line stroke="#2f2f2f" stroke-width="2.2" x1="1257.4" x2="1257.4" y1="438.4" y2="602.2" /><line stroke="#2f2f2f" stroke-width="2.2" x1="1530.4" x2="1530.4" y1="493.0" y2="656.8" /><rect fill="#ffe2b8" height="436.8" stroke="none" width="764.4" x="493.0" y="438.4" /><line stroke="#2f2f2f" stroke-width="2.2" x1="493.0" x2="1257.4" y1="438.4" y2="438.4" /><line stroke="#2f2f2f" stroke-width="2.2" x1="493.0" x2="1257.4" y1="875.2" y2="875.2" /><line stroke="#2f2f2f" stroke-width="2.2" x1="1257.4" x2="1257.4" y1="438.4" y2="875.2" /><line stroke="#2f2f2f" stroke-width="2.2" x1="493.0" x2="493.0" y1="438.4" y2="875.2" /><rect fill="#f0f0f0" height="218.4" stroke="none" width="163.8" x="493.0" y="220.0" /><line stroke="#2f2f2f" stroke-width="2.2" x1="493.0" x2="656.8" y1="438.4" y2="438.4" /><line stroke="#2f2f2f" stroke-width="2.2" x1="493.0" x2="656.8" y1="220.0" y2="220.0" /><line stroke="#2f2f2f" stroke-width="2.2" x1="493.0" x2="493.0" y1="220.0" y2="438.4" /><line stroke="#2f2f2f" stroke-width="2.2" x1="656.8" x2="656.8" y1="220.0" y2="438.4" /><rect fill="#d9f2ff" height="655.2" stroke="none" width="273.0" x="220.0" y="220.0" /><line stroke="#2f2f2f" stroke-width="2.2" x1="220.0" x2="493.0" y1="875.2" y2="875.2" /><line stroke="#2f2f2f" stroke-width="2.2" x1="220.0" x2="493.0" y1="220.0" y2="220.0" /><line stroke="#2f2f2f" stroke-width="2.2" x1="220.0" x2="220.0" y1="220.0" y2="875.2" /><line stroke="#2f2f2f" stroke-width="2.2" x1="493.0" x2="493.0" y1="220.0" y2="875.2" /><rect fill="#fbe7e6" height="218.4" stroke="none" width="109.2" x="1421.2" y="656.8" /><line stroke="#2f2f2f" stroke-width="2.2" x1="1421.2" x2="1530.4" y1="656.8" y2="656.8" /><line stroke="#2f2f2f" stroke-width="2.2" x1="1421.2" x2="1530.4" y1="875.2" y2="875.2" /><line stroke="#2f2f2f" stroke-width="2.2" x1="1530.4" x2="1530.4" y1="656.8" y2="875.2" /><line stroke="#2f2f2f" stroke-width="2.2" x1="1421.2" x2="1421.2" y1="656.8" y2="875.2" /><rect fill="#e7fbfb" height="218.4" stroke="none" width="218.4" x="875.2" y="220.0" /><line stroke="#2f2f2f" stroke-width="2.2" x1="875.2" x2="1093.6" y1="438.4" y2="438.4" /><line stroke="#2f2f2f" stroke-width="2.2" x1="875.2" x2="1093.6" y1="220.0" y2="220.0" /><line stroke="#2f2f2f" stroke-width="2.2" x1="1093.6" x2="1093.6" y1="220.0" y2="438.4" /><line stroke="#2f2f2f" stroke-width="2.2" x1="875.2" x2="875.2" y1="220.0" y2="438.4" /><rect fill="#f7f3ea" fill-opacity="0.35" height="109.2" stroke="#9a9a9a" stroke-dasharray="4,3" stroke-width="0.9" width="218.4" x="220.0" y="220.0" /><line stroke="#9c9c9c" stroke-opacity="0.7" stroke-width="0.8" x1="220.0" x2="239.2" y1="310.0" y2="329.2" /><line stroke="#9c9c9c" stroke-opacity="0.7" stroke-width="0.8" x1="220.0" x2="258.4" y1="290.8" y2="329.2" /><line stroke="#9c9c9c" stroke-opacity="0.7" stroke-width="0.8" x1="220.0" x2="277.6" y1="271.6" y2="329.2" /><line stroke="#9c9c9c" stroke-opacity="0.7" stroke-width="0.8" x1="220.0" x2="296.8" y1="252.4" y2="329.2" /><line stroke="#9c9c9c" stroke-opacity="0.7" stroke-width="0.8" x1="220.0" x2="316.0" y1="233.2" y2="329.2" /><line stroke="#9c9c9c" stroke-opacity="0.7" stroke-width="0.8" x1="226.0" x2="335.2" y1="220.0" y2="329.2" /><line stroke="#9c9c9c" stroke-opacity="0.7" stroke-width="0.8" x1="245.2" x2="354.4" y1="220.0" y2="329.2" /><line stroke="#9c9c9c" stroke-opacity="0.7" stroke-width="0.8" x1="264.4" x2="373.6" y1="220.0" y2="329.2" /><line stroke="#9c9c9c" stroke-opacity="0.7" stroke-width="0.8" x1="283.6" x2="392.8" y1="220.0" y2="329.2" /><line stroke="#9c9c9c" stroke-opacity="0.7" stroke-width="0.8" x1="302.8" x2="412.0" y1="220.0" y2="329.2" /><line stroke="#9c9c9c" stroke-opacity="0.7" stroke-width="0.8" x1="322.0" x2="431.2" y1="220.0" y2="329.2" /><line stroke="#9c9c9c" stroke-opacity="0.7" stroke-width="0.8" x1="341.2" x2="438.4" y1="220.0" y2="317.2" /><line stroke="#9c9c9c" stroke-opacity="0.7" stroke-width="0.8" x1="360.4" x2="438.4" y1="220.0" y2="298.0" /><line stroke="#9c9c9c" stroke-opacity="0.7" stroke-width="0.8" x1="379.6" x2="438.4" y1="220.0" y2="278.8" /><line stroke="#9c9c9c" stroke-opacity="0.7" stroke-width="0.8" x1="398.8" x2="438.4" y1="220.0" y2="259.6" /><line stroke="#9c9c9c" stroke-opacity="0.7" stroke-width="0.8" x1="418.0" x2="438.4" y1="220.0" y2="240.4" /><line stroke="#9c9c9c" stroke-opacity="0.7" stroke-width="0.8" x1="437.2" x2="438.4" y1="220.0" y2="221.2" /><rect fill="none" height="43.68" stroke="#8a6b4a" stroke-width="1.0" width="244.608" x="905.776" y="482.08" /><rect fill="none" height="96.096" stroke="#8a6b4a" stroke-width="1.0" width="39.312" x="1111.072" y="482.08" /><circle cx="980.5888" cy="503.92" fill="none" r="8.4" stroke="#8a6b4a" stroke-width="0.9" /><circle cx="1002.1888" cy="503.92" fill="none" r="8.4" stroke="#8a6b4a" stroke-width="0.9" /><rect fill="none" height="23.063" stroke="#8a6b4a" stroke-width="0.9" width="26.7322" x="1116.9688" y="522.4403" /><rect fill="none" height="52.416" stroke="#8a6b4a" stroke-width="1.0" width="163.8" x="798.76" y="621.856" /><rect fill="none" height="163.8" stroke="#7f7f7f" stroke-width="1.1" width="152.88" x="280.06" y="337.936" /><line stroke="#7f7f7f" stroke-width="0.9" x1="280.06" x2="432.94" y1="395.266" y2="395.266" /><rect fill="none" height="48.048" stroke="#6f6f6f" stroke-width="1.0" width="74.256" x="914.512" y="259.312" /><rect fill="none" height="48.048" stroke="#6f6f6f" stroke-width="1.0" width="74.256" x="1001.872" y="259.312" /><line stroke="#8f8f8f" stroke-width="0.8" x1="905.776" x2="1063.024" y1="244.912" y2="244.912" /><circle cx="1067.2" cy="246.4" fill="none" r="8.4" stroke="#7c7c7c" stroke-width="0.9" /><line stroke="#7c7c7c" stroke-width="0.8" x1="1056.4" x2="1078.0" y1="246.4" y2="246.4" /><line stroke="#7c7c7c" stroke-width="0.8" x1="1067.2" x2="1067.2" y1="235.6" y2="257.2" /><rect fill="none" height="109.2" rx="6" ry="6" stroke="#6f6f6f" stroke-width="1.0" width="135.408" x="700.48" y="268.048" /><circle cx="848.8" cy="246.4" fill="none" r="8.4" stroke="#7c7c7c" stroke-width="0.9" /><line stroke="#7c7c7c" stroke-width="0.8" x1="838.0" x2="859.6" y1="246.4" y2="246.4" /><line stroke="#7c7c7c" stroke-width="0.8" x1="848.8" x2="848.8" y1="235.6" y2="257.2" /><line stroke="#9a9a9a" stroke-width="0.9" x1="512.656" x2="637.144" y1="259.312" y2="259.312" /><line stroke="#9a9a9a" stroke-width="0.9" x1="512.656" x2="637.144" y1="399.088" y2="399.088" /><rect fill="#ffffff" height="109.2" stroke="#202020" stroke-dasharray="8,4" stroke-width="2.6" width="163.8" x="1257.4" y="220.0" /><rect fill="#ffffff" height="109.2" stroke="#202020" stroke-dasharray="8,4" stroke-width="2.6" width="109.2" x="1421.2" y="220.0" /><rect fill="#ffffff" height="163.8" stroke="#202020" stroke-dasharray="8,4" stroke-width="2.6" width="109.2" x="1421.2" y="329.2" /><line stroke="#2a2a2a" stroke-width="1.4" x1="1280.8" x2="1280.8" y1="220.0" y2="329.2" /><line stroke="#2a2a2a" stroke-width="1.4" x1="1304.2" x2="1304.2" y1="220.0" y2="329.2" /><line stroke="#2a2a2a" stroke-width="1.4" x1="1327.6" x2="1327.6" y1="220.0" y2="329.2" /><line stroke="#2a2a2a" stroke-width="1.4" x1="1351.0" x2="1351.0" y1="220.0" y2="329.2" /><line stroke="#2a2a2a" stroke-width="1.4" x1="1374.4" x2="1374.4" y1="220.0" y2="329.2" /><line stroke="#2a2a2a" stroke-width="1.4" x1="1397.8" x2="1397.8" y1="220.0" y2="329.2" /><line stroke="#2a2a2a" stroke-width="1.4" x1="1421.2" x2="1530.4" y1="352.6" y2="352.6" /><line stroke="#2a2a2a" stroke-width="1.4" x1="1421.2" x2="1530.4" y1="376.0" y2="376.0" /><line stroke="#2a2a2a" stroke-width="1.4" x1="1421.2" x2="1530.4" y1="399.4" y2="399.4" /><line stroke="#2a2a2a" stroke-width="1.4" x1="1421.2" x2="1530.4" y1="422.8" y2="422.8" /><line stroke="#2a2a2a" stroke-width="1.4" x1="1421.2" x2="1530.4" y1="446.2" y2="446.2" /><line stroke="#2a2a2a" stroke-width="1.4" x1="1421.2" x2="1530.4" y1="469.6" y2="469.6" /><text fill="#202020" font-size="11" text-anchor="middle" x="1339.3" y="274.6">Stair (UP)</text><text fill="#3a3a3a" font-size="9.0" text-anchor="middle" x="1339.3" y="289.0">13R/12T</text><text fill="#4a4a4a" font-size="7.8" text-anchor="middle" x="1339.3" y="297.4">H2730 R210 T228</text><line stroke="#ffffff" stroke-width="7" x1="1257.4" x2="1257.4" y1="220.0" y2="329.2" /><line stroke="#5e5e5e" stroke-width="1.0" x1="1257.4" x2="1257.4" y1="220.0" y2="329.2" /><line stroke="#ffffff" stroke-width="6" x1="1293.7" x2="1384.9" y1="602.2" y2="602.2" /><line stroke="#595959" stroke-width="1.2" x1="1293.7" x2="1352.98" y1="602.2" y2="661.48" /><path d="M 1352.98,602.2 A 59.28,59.28 0 0 1 1352.98,661.48" fill="none" stroke="#7a7a7a" stroke-width="1.0" /><line stroke="#ffffff" stroke-width="6" x1="1257.4" x2="1257.4" y1="474.7" y2="565.9" /><line stroke="#595959" stroke-width="1.2" x1="1257.4" x2="1198.12" y1="474.7" y2="533.98" /><path d="M 1257.3999999999999,533.98 A 59.28,59.28 0 0 1 1198.12,533.98" fill="none" stroke="#7a7a7a" stroke-width="1.0" /><line stroke="#ffffff" stroke-width="6" x1="1430.2" x2="1521.4" y1="656.8" y2="656.8" /><line stroke="#ffffff" stroke-width="6" x1="1093.6" x2="1093.6" y1="280.06" y2="378.34" /><line stroke="#595959" stroke-width="1.2" x1="1093.6" x2="1029.718" y1="280.06" y2="343.942" /><path d="M 1093.6,343.942 A 63.882,63.882 0 0 1 1029.7179999999998,343.942" fill="none" stroke="#7a7a7a" stroke-width="1.0" /><line stroke="#ffffff" stroke-width="6" x1="875.2" x2="875.2" y1="280.06" y2="378.34" /><line stroke="#595959" stroke-width="1.2" x1="875.2" x2="811.318" y1="280.06" y2="343.942" /><path d="M 875.1999999999999,343.942 A 63.882,63.882 0 0 1 811.318,343.942" fill="none" stroke="#7a7a7a" stroke-width="1.0" /><line stroke="#ffffff" stroke-width="6" x1="493.0" x2="493.0" y1="598.0" y2="715.6" /><line stroke="#595959" stroke-width="1.2" x1="493.0" x2="569.44" y1="598.0" y2="674.44" /><path d="M 493.0,674.44 A 76.44,76.44 0 0 1 569.44,674.44" fill="none" stroke="#7a7a7a" stroke-width="1.0" /><line stroke="#ffffff" stroke-width="6" x1="529.3" x2="620.5" y1="438.4" y2="438.4" /><line stroke="#595959" stroke-width="1.2" x1="529.3" x2="588.58" y1="438.4" y2="379.12" /><path d="M 588.5799999999999,438.4 A 59.28,59.28 0 0 1 588.5799999999999,379.12" fill="none" stroke="#7a7a7a" stroke-width="1.0" /><line stroke="#ffffff" stroke-width="7" x1="1293.7" x2="1384.9" y1="875.2" y2="875.2" /><line stroke="#595959" stroke-width="1.2" x1="1293.7" x2="1352.98" y1="875.2" y2="815.92" /><path d="M 1352.98,875.1999999999999 A 59.28,59.28 0 0 1 1352.98,815.92" fill="none" stroke="#7a7a7a" stroke-width="1.0" /><line stroke="#66a7ff" stroke-width="2.2" x1="611.032" x2="803.032" y1="872.56" y2="872.56" /><line stroke="#66a7ff" stroke-width="2.2" x1="611.032" x2="803.032" y1="877.84" y2="877.84" /><line stroke="#66a7ff" stroke-width="2.2" x1="947.368" x2="1139.368" y1="872.56" y2="872.56" /><line stroke="#66a7ff" stroke-width="2.2" x1="947.368" x2="1139.368" y1="877.84" y2="877.84" /><line stroke="#66a7ff" stroke-width="2.2" x1="217.36" x2="217.36" y1="307.456" y2="499.456" /><line stroke="#66a7ff" stroke-width="2.2" x1="222.64" x2="222.64" y1="307.456" y2="499.456" /><line stroke="#66a7ff" stroke-width="2.2" x1="217.36" x2="217.36" y1="595.744" y2="787.744" /><line stroke="#66a7ff" stroke-width="2.2" x1="222.64" x2="222.64" y1="595.744" y2="787.744" /><line stroke="#66a7ff" stroke-width="2.2" x1="301.9" x2="411.1" y1="217.36" y2="217.36" /><line stroke="#66a7ff" stroke-width="2.2" x1="301.9" x2="411.1" y1="222.64" y2="222.64" /><line stroke="#66a7ff" stroke-width="2.2" x1="301.9" x2="411.1" y1="872.56" y2="872.56" /><line stroke="#66a7ff" stroke-width="2.2" x1="301.9" x2="411.1" y1="877.84" y2="877.84" /><line stroke="#9a9a9a" stroke-width="0.8" x1="1429.6" x2="1522.0" y1="501.4" y2="501.4" /><line stroke="#9a9a9a" stroke-width="0.8" x1="1429.6" x2="1429.6" y1="498.04" y2="504.76" /><line stroke="#9a9a9a" stroke-width="0.8" x1="1522.0" x2="1522.0" y1="498.04" y2="504.76" /><text fill="#8a8a8a" font-size="7.6" text-anchor="start" x="1436.32" y="498.76">910mm</text><line stroke="#9a9a9a" stroke-width="0.8" x1="1429.6" x2="1429.6" y1="501.4" y2="648.4" /><line stroke="#9a9a9a" stroke-width="0.8" x1="1426.24" x2="1432.96" y1="501.4" y2="501.4" /><line stroke="#9a9a9a" stroke-width="0.8" x1="1426.24" x2="1432.96" y1="648.4" y2="648.4" /><text fill="#8a8a8a" font-size="7.6" text-anchor="start" x="1433.68" y="509.08">1365mm</text><line stroke="#9a9a9a" stroke-width="0.8" x1="1265.8" x2="1412.8" y1="337.6" y2="337.6" /><line stroke="#9a9a9a" stroke-width="0.8" x1="1265.8" x2="1265.8" y1="334.24" y2="340.96" /><line stroke="#9a9a9a" stroke-width="0.8" x1="1412.8" x2="1412.8" y1="334.24" y2="340.96" /><text fill="#8a8a8a" font-size="7.6" text-anchor="start" x="1272.52" y="334.96">1365mm</text><line stroke="#9a9a9a" stroke-width="0.8" x1="1265.8" x2="1265.8" y1="337.6" y2="593.8" /><line stroke="#9a9a9a" stroke-width="0.8" x1="1262.44" x2="1269.16" y1="337.6" y2="337.6" /><line stroke="#9a9a9a" stroke-width="0.8" x1="1262.44" x2="1269.16" y1="593.8" y2="593.8" /><text fill="#8a8a8a" font-size="7.6" text-anchor="start" x="1269.8799999999999" y="345.28">2275mm</text><line stroke="#9a9a9a" stroke-width="0.8" x1="1102.0" x2="1249.0" y1="228.4" y2="228.4" /><line stroke="#9a9a9a" stroke-width="0.8" x1="1102.0" x2="1102.0" y1="225.04" y2="231.76" /><line stroke="#9a9a9a" stroke-width="0.8" x1="1249.0" x2="1249.0" y1="225.04" y2="231.76" /><text fill="#8a8a8a" font-size="7.6" text-anchor="start" x="1108.7199999999998" y="225.76">1365mm</text><line stroke="#9a9a9a" stroke-width="0.8" x1="1102.0" x2="1102.0" y1="228.4" y2="430.0" /><line stroke="#9a9a9a" stroke-width="0.8" x1="1098.64" x2="1105.36" y1="228.4" y2="228.4" /><line stroke="#9a9a9a" stroke-width="0.8" x1="1098.64" x2="1105.36" y1="430.0" y2="430.0" /><text fill="#8a8a8a" font-size="7.6" text-anchor="start" x="1106.08" y="236.07999999999998">1820mm</text><text fill="#1b1b1b" font-size="10" text-anchor="middle" x="766.0" y="314.8">Bath 1</text><text fill="#1b1b1b" font-size="10" text-anchor="middle" x="766.0" y="325.6">1820x1820mm</text><text fill="#1b1b1b" font-size="10" text-anchor="middle" x="766.0" y="336.4">3.3sqm / 2.0jo</text><text fill="#1b1b1b" font-size="10" text-anchor="middle" x="1339.3" y="724.3">Entry</text><text fill="#1b1b1b" font-size="10" text-anchor="middle" x="1339.3" y="735.1">1365x2275mm</text><text fill="#1b1b1b" font-size="10" text-anchor="middle" x="1339.3" y="745.9">3.1sqm / 1.9jo</text><text fill="#1b1b1b" font-size="9" text-anchor="middle" x="1304.5545454545454" y="421.5181818181818">Hall 1</text><text fill="#1b1b1b" font-size="9" text-anchor="middle" x="1304.5545454545454" y="432.3181818181818">6.8sqm / 4.2jo</text><text fill="#1b1b1b" font-size="10" text-anchor="middle" x="875.1999999999999" y="642.4">Ldk</text><text fill="#1b1b1b" font-size="10" text-anchor="middle" x="875.1999999999999" y="653.2">6370x3640mm</text><text fill="#1b1b1b" font-size="10" text-anchor="middle" x="875.1999999999999" y="664.0">23.2sqm / 14.3jo</text><text fill="#1b1b1b" font-size="10" text-anchor="middle" x="574.9" y="314.8">Pantry 1</text><text fill="#1b1b1b" font-size="10" text-anchor="middle" x="574.9" y="325.6">1365x1820mm</text><text fill="#1b1b1b" font-size="10" text-anchor="middle" x="574.9" y="336.4">2.5sqm / 1.5jo</text><text fill="#1b1b1b" font-size="10" text-anchor="middle" x="356.5" y="533.2">Study 1</text><text fill="#1b1b1b" font-size="10" text-anchor="middle" x="356.5" y="544.0">2275x5460mm</text><text fill="#1b1b1b" font-size="10" text-anchor="middle" x="356.5" y="554.8">12.4sqm / 7.7jo</text><text fill="#1b1b1b" font-size="10" text-anchor="middle" x="1475.8" y="751.6">Toilet 1</text><text fill="#1b1b1b" font-size="10" text-anchor="middle" x="1475.8" y="762.4">910x1820mm</text><text fill="#1b1b1b" font-size="10" text-anchor="middle" x="1475.8" y="773.1999999999999">1.7sqm / 1.0jo</text><text fill="#1b1b1b" font-size="10" text-anchor="middle" x="984.4" y="314.8">Wash 1</text><text fill="#1b1b1b" font-size="10" text-anchor="middle" x="984.4" y="325.6">1820x1820mm</text><text fill="#1b1b1b" font-size="10" text-anchor="middle" x="984.4" y="336.4">3.3sqm / 2.0jo</text><text fill="#4a4a4a" font-size="10" text-anchor="middle" x="329.2" y="274.6">CL</text><text fill="#111111" font-size="14" x="220.0" y="180.0">F1 Plan  (10920 x 5460 mm)</text><text fill="#444444" font-size="10" x="220.0" y="198.0">Scale: 1px=8.3mm</text><rect fill="#ffffff" height="216" stroke="#777777" stroke-width="1" width="170" x="1618.4" y="150.0" /><text fill="#111111" font-size="11" x="1626.3999999999999" y="164.0">Legend</text><rect fill="#f8f0d9" height="12" stroke="#333333" stroke-width="1" width="12" x="1626.4" y="174.0" /><text fill="#222222" font-size="10" x="1644.3999999999999" y="184.0">Entry</text><rect fill="#efe9ff" height="12" stroke="#333333" stroke-width="1" width="12" x="1626.4" y="192.0" /><text fill="#222222" font-size="10" x="1644.3999999999999" y="202.0">Hall</text><rect fill="#ffe2b8" height="12" stroke="#333333" stroke-width="1" width="12" x="1626.4" y="210.0" /><text fill="#222222" font-size="10" x="1644.3999999999999" y="220.0">Ldk</text><rect fill="#d9f2ff" height="12" stroke="#333333" stroke-width="1" width="12" x="1626.4" y="228.0" /><text fill="#222222" font-size="10" x="1644.3999999999999" y="238.0">Bedroom</text><rect fill="#fbe7e6" height="12" stroke="#333333" stroke-width="1" width="12" x="1626.4" y="246.0" /><text fill="#222222" font-size="10" x="1644.3999999999999" y="256.0">Toilet</text><rect fill="#e7fbfb" height="12" stroke="#333333" stroke-width="1" width="12" x="1626.4" y="264.0" /><text fill="#222222" font-size="10" x="1644.3999999999999" y="274.0">Washroom</text><rect fill="#dcecff" height="12" stroke="#333333" stroke-width="1" width="12" x="1626.4" y="282.0" /><text fill="#222222" font-size="10" x="1644.3999999999999" y="292.0">Bath</text><rect fill="#f7f3ea" height="12" stroke="#333333" stroke-width="1" width="12" x="1626.4" y="300.0" /><text fill="#222222" font-size="10" x="1644.3999999999999" y="310.0">Closet</text><rect fill="#f0f0f0" height="12" stroke="#333333" stroke-width="1" width="12" x="1626.4" y="318.0" /><text fill="#222222" font-size="10" x="1644.3999999999999" y="328.0">Storage</text><line stroke="#6aa4ff" stroke-width="4" x1="1626.4" x2="1653.4" y1="348.0" y2="348.0" /><text fill="#222222" font-size="10" x="1660.3999999999999" y="351.0">Window</text><line stroke="#666666" stroke-width="2.4" x1="1626.4" x2="1653.4" y1="364.0" y2="364.0" /><path d="M 1626.3999999999999,364.0 A 10,10 0 0 1 1636.3999999999999,354.0" fill="none" stroke="#666666" stroke-width="1.2" /><text fill="#222222" font-size="10" x="1660.3999999999999" y="367.0">Door</text><rect fill="#ffffff" height="84" stroke="#777777" stroke-width="1" width="200" x="1618.4" y="520.0" /><text fill="#111111" font-size="10" x="1626.3999999999999" y="533.0">Area (F1)</text><text fill="#222222" font-size="9" x="1626.3999999999999" y="550.0">F1: in 59.6 sqm (18.0 tsubo), out 0.0 sqm (0.0 tsubo)</text><text fill="#222222" font-size="9" x="1626.3999999999999" y="566.0">F2: in 59.6 sqm (18.0 tsubo), out 0.0 sqm (0.0 tsubo)</text><text fill="#222222" font-size="9" x="1626.3999999999999" y="582.0">Total indoor: 119.2 sqm (36.1 tsubo)</text><text fill="#222222" font-size="9" x="1626.3999999999999" y="598.0">Total outdoor: 0.0 sqm (0.0 tsubo)</text><line stroke="#111111" stroke-width="2" x1="175.0" x2="175.0" y1="238.0" y2="208.0" /><polygon fill="#111111" points="175.0,208.0 181.0,214.0 169.0,214.0" /><text fill="#111111" font-size="12" x="170.0" y="202.0">N</text><line stroke="#545454" stroke-width="1.0" x1="220.0" x2="1530.4" y1="148.0" y2="148.0" /><line stroke="#545454" stroke-width="0.8" x1="220.0" x2="220.0" y1="220.0" y2="148.0" /><line stroke="#545454" stroke-width="1.0" x1="220.0" x2="220.0" y1="145.0" y2="151.0" /><line stroke="#545454" stroke-width="0.8" x1="1530.4" x2="1530.4" y1="220.0" y2="148.0" /><line stroke="#545454" stroke-width="1.0" x1="1530.4" x2="1530.4" y1="145.0" y2="151.0" /><text fill="#545454" font-size="8.8" text-anchor="middle" x="875.1999999999999" y="145.0">10920mm</text><line stroke="#666666" stroke-width="1.0" x1="220.0" x2="1530.4" y1="166.0" y2="166.0" /><line stroke="#666666" stroke-width="0.8" x1="220.0" x2="220.0" y1="220.0" y2="166.0" /><line stroke="#666666" stroke-width="1.0" x1="220.0" x2="220.0" y1="163.0" y2="169.0" /><line stroke="#666666" stroke-width="0.8" x1="493.0" x2="493.0" y1="220.0" y2="166.0" /><line stroke="#666666" stroke-width="1.0" x1="493.0" x2="493.0" y1="163.0" y2="169.0" /><line stroke="#666666" stroke-width="0.8" x1="656.8" x2="656.8" y1="220.0" y2="166.0" /><line stroke="#666666" stroke-width="1.0" x1="656.8" x2="656.8" y1="163.0" y2="169.0" /><line stroke="#666666" stroke-width="0.8" x1="875.2" x2="875.2" y1="220.0" y2="166.0" /><line stroke="#666666" stroke-width="1.0" x1="875.2" x2="875.2" y1="163.0" y2="169.0" /><line stroke="#666666" stroke-width="0.8" x1="1093.6" x2="1093.6" y1="220.0" y2="166.0" /><line stroke="#666666" stroke-width="1.0" x1="1093.6" x2="1093.6" y1="163.0" y2="169.0" /><line stroke="#666666" stroke-width="0.8" x1="1257.4" x2="1257.4" y1="220.0" y2="166.0" /><line stroke="#666666" stroke-width="1.0" x1="1257.4" x2="1257.4" y1="163.0" y2="169.0" /><line stroke="#666666" stroke-width="0.8" x1="1421.2" x2="1421.2" y1="220.0" y2="166.0" /><line stroke="#666666" stroke-width="1.0" x1="1421.2" x2="1421.2" y1="163.0" y2="169.0" /><line stroke="#666666" stroke-width="0.8" x1="1530.4" x2="1530.4" y1="220.0" y2="166.0" /><line stroke="#666666" stroke-width="1.0" x1="1530.4" x2="1530.4" y1="163.0" y2="169.0" /><text fill="#666666" font-size="8.2" text-anchor="middle" x="356.5" y="163.0">2275</text><text fill="#666666" font-size="8.2" text-anchor="middle" x="574.9" y="163.0">1365</text><text fill="#666666" font-size="8.2" text-anchor="middle" x="766.0" y="163.0">1820</text><text fill="#666666" font-size="8.2" text-anchor="middle" x="984.4" y="163.0">1820</text><text fill="#666666" font-size="8.2" text-anchor="middle" x="1175.5" y="163.0">1365</text><text fill="#666666" font-size="8.2" text-anchor="middle" x="1339.3" y="163.0">1365</text><text fill="#666666" font-size="8.2" text-anchor="middle" x="1475.8" y="163.0">910</text><line stroke="#7a7a7a" stroke-width="1.0" x1="220.0" x2="1530.4" y1="184.0" y2="184.0" /><line stroke="#7a7a7a" stroke-width="0.8" x1="220.0" x2="220.0" y1="220.0" y2="184.0" /><line stroke="#7a7a7a" stroke-width="1.0" x1="220.0" x2="220.0" y1="181.0" y2="187.0" /><line stroke="#7a7a7a" stroke-width="0.8" x1="274.6" x2="274.6" y1="220.0" y2="184.0" /><line stroke="#7a7a7a" stroke-width="1.0" x1="274.6" x2="274.6" y1="181.0" y2="187.0" /><line stroke="#7a7a7a" stroke-width="0.8" x1="383.8" x2="383.8" y1="220.0" y2="184.0" /><line stroke="#7a7a7a" stroke-width="1.0" x1="383.8" x2="383.8" y1="181.0" y2="187.0" /><line stroke="#7a7a7a" stroke-width="0.8" x1="1530.4" x2="1530.4" y1="220.0" y2="184.0" /><line stroke="#7a7a7a" stroke-width="1.0" x1="1530.4" x2="1530.4" y1="181.0" y2="187.0" /><text fill="#7a7a7a" font-size="7.8" text-anchor="middle" x="329.2" y="181.0">910</text><text fill="#7a7a7a" font-size="7.8" text-anchor="middle" x="957.1" y="181.0">9555</text><line stroke="#545454" stroke-width="1.0" x1="220.0" x2="1530.4" y1="947.2" y2="947.2" /><line stroke="#545454" stroke-width="0.8" x1="220.0" x2="220.0" y1="875.2" y2="947.2" /><line stroke="#545454" stroke-width="1.0" x1="220.0" x2="220.0" y1="944.2" y2="950.2" /><line stroke="#545454" stroke-width="0.8" x1="1530.4" x2="1530.4" y1="875.2" y2="947.2" /><line stroke="#545454" stroke-width="1.0" x1="1530.4" x2="1530.4" y1="944.2" y2="950.2" /><text fill="#545454" font-size="8.8" text-anchor="middle" x="875.1999999999999" y="957.1999999999999">10920mm</text><line stroke="#666666" stroke-width="1.0" x1="220.0" x2="1530.4" y1="929.2" y2="929.2" /><line stroke="#666666" stroke-width="0.8" x1="220.0" x2="220.0" y1="875.2" y2="929.2" /><line stroke="#666666" stroke-width="1.0" x1="220.0" x2="220.0" y1="926.2" y2="932.2" /><line stroke="#666666" stroke-width="0.8" x1="493.0" x2="493.0" y1="875.2" y2="929.2" /><line stroke="#666666" stroke-width="1.0" x1="493.0" x2="493.0" y1="926.2" y2="932.2" /><line stroke="#666666" stroke-width="0.8" x1="1257.4" x2="1257.4" y1="875.2" y2="929.2" /><line stroke="#666666" stroke-width="1.0" x1="1257.4" x2="1257.4" y1="926.2" y2="932.2" /><line stroke="#666666" stroke-width="0.8" x1="1421.2" x2="1421.2" y1="875.2" y2="929.2" /><line stroke="#666666" stroke-width="1.0" x1="1421.2" x2="1421.2" y1="926.2" y2="932.2" /><line stroke="#666666" stroke-width="0.8" x1="1530.4" x2="1530.4" y1="875.2" y2="929.2" /><line stroke="#666666" stroke-width="1.0" x1="1530.4" x2="1530.4" y1="926.2" y2="932.2" /><text fill="#666666" font-size="8.2" text-anchor="middle" x="356.5" y="939.1999999999999">2275</text><text fill="#666666" font-size="8.2" text-anchor="middle" x="875.1999999999999" y="939.1999999999999">6370</text><text fill="#666666" font-size="8.2" text-anchor="middle" x="1339.3" y="939.1999999999999">1365</text><text fill="#666666" font-size="8.2" text-anchor="middle" x="1475.8" y="939.1999999999999">910</text><line stroke="#7a7a7a" stroke-width="1.0" x1="220.0" x2="1530.4" y1="911.2" y2="911.2" /><line stroke="#7a7a7a" stroke-width="0.8" x1="220.0" x2="220.0" y1="875.2" y2="911.2" /><line stroke="#7a7a7a" stroke-width="1.0" x1="220.0" x2="220.0" y1="908.2" y2="914.2" /><line stroke="#7a7a7a" stroke-width="0.8" x1="274.6" x2="274.6" y1="875.2" y2="911.2" /><line stroke="#7a7a7a" stroke-width="1.0" x1="274.6" x2="274.6" y1="908.2" y2="914.2" /><line stroke="#7a7a7a" stroke-width="0.8" x1="383.8" x2="383.8" y1="875.2" y2="911.2" /><line stroke="#7a7a7a" stroke-width="1.0" x1="383.8" x2="383.8" y1="908.2" y2="914.2" /><line stroke="#7a7a7a" stroke-width="0.8" x1="602.2" x2="602.2" y1="875.2" y2="911.2" /><line stroke="#7a7a7a" stroke-width="1.0" x1="602.2" x2="602.2" y1="908.2" y2="914.2" /><line stroke="#7a7a7a" stroke-width="0.8" x1="820.6" x2="820.6" y1="875.2" y2="911.2" /><line stroke="#7a7a7a" stroke-width="1.0" x1="820.6" x2="820.6" y1="908.2" y2="914.2" /><line stroke="#7a7a7a" stroke-width="0.8" x1="929.8" x2="929.8" y1="875.2" y2="911.2" /><line stroke="#7a7a7a" stroke-width="1.0" x1="929.8" x2="929.8" y1="908.2" y2="914.2" /><line stroke="#7a7a7a" stroke-width="0.8" x1="1148.2" x2="1148.2" y1="875.2" y2="911.2" /><line stroke="#7a7a7a" stroke-width="1.0" x1="1148.2" x2="1148.2" y1="908.2" y2="914.2" /><line stroke="#7a7a7a" stroke-width="0.8" x1="1312.0" x2="1312.0" y1="875.2" y2="911.2" /><line stroke="#7a7a7a" stroke-width="1.0" x1="1312.0" x2="1312.0" y1="908.2" y2="914.2" /><line stroke="#7a7a7a" stroke-width="0.8" x1="1366.6" x2="1366.6" y1="875.2" y2="911.2" /><line stroke="#7a7a7a" stroke-width="1.0" x1="1366.6" x2="1366.6" y1="908.2" y2="914.2" /><line stroke="#7a7a7a" stroke-width="0.8" x1="1530.4" x2="1530.4" y1="875.2" y2="911.2" /><line stroke="#7a7a7a" stroke-width="1.0" x1="1530.4" x2="1530.4" y1="908.2" y2="914.2" /><text fill="#7a7a7a" font-size="7.8" text-anchor="middle" x="329.2" y="921.1999999999999">910</text><text fill="#7a7a7a" font-size="7.8" text-anchor="middle" x="493.0" y="921.1999999999999">1820</text><text fill="#7a7a7a" font-size="7.8" text-anchor="middle" x="711.4" y="921.1999999999999">1820</text><text fill="#7a7a7a" font-size="7.8" text-anchor="middle" x="875.1999999999999" y="921.1999999999999">910</text><text fill="#7a7a7a" font-size="7.8" text-anchor="middle" x="1039.0" y="921.1999999999999">1820</text><text fill="#7a7a7a" font-size="7.8" text-anchor="middle" x="1230.1" y="921.1999999999999">1365</text><text fill="#7a7a7a" font-size="7.8" text-anchor="middle" x="1448.5" y="921.1999999999999">1365</text><line stroke="#545454" stroke-width="1.0" x1="148.0" x2="148.0" y1="220.0" y2="875.2" /><line stroke="#545454" stroke-width="0.8" x1="220.0" x2="148.0" y1="220.0" y2="220.0" /><line stroke="#545454" stroke-width="1.0" x1="145.0" x2="151.0" y1="220.0" y2="220.0" /><line stroke="#545454" stroke-width="0.8" x1="220.0" x2="148.0" y1="875.2" y2="875.2" /><line stroke="#545454" stroke-width="1.0" x1="145.0" x2="151.0" y1="875.2" y2="875.2" /><text fill="#545454" font-size="8.8" x="144.0" y="547.5999999999999">5460mm</text><line stroke="#666666" stroke-width="1.0" x1="166.0" x2="166.0" y1="220.0" y2="875.2" /><line stroke="#666666" stroke-width="0.8" x1="220.0" x2="166.0" y1="220.0" y2="220.0" /><line stroke="#666666" stroke-width="1.0" x1="163.0" x2="169.0" y1="220.0" y2="220.0" /><line stroke="#666666" stroke-width="0.8" x1="220.0" x2="166.0" y1="875.2" y2="875.2" /><line stroke="#666666" stroke-width="1.0" x1="163.0" x2="169.0" y1="875.2" y2="875.2" /><text fill="#666666" font-size="8.2" x="162.0" y="547.5999999999999">5460</text><line stroke="#7a7a7a" stroke-width="1.0" x1="184.0" x2="184.0" y1="220.0" y2="875.2" /><line stroke="#7a7a7a" stroke-width="0.8" x1="220.0" x2="184.0" y1="220.0" y2="220.0" /><line stroke="#7a7a7a" stroke-width="1.0" x1="181.0" x2="187.0" y1="220.0" y2="220.0" /><line stroke="#7a7a7a" stroke-width="0.8" x1="220.0" x2="184.0" y1="329.2" y2="329.2" /><line stroke="#7a7a7a" stroke-width="1.0" x1="181.0" x2="187.0" y1="329.2" y2="329.2" /><line stroke="#7a7a7a" stroke-width="0.8" x1="220.0" x2="184.0" y1="493.0" y2="493.0" /><line stroke="#7a7a7a" stroke-width="1.0" x1="181.0" x2="187.0" y1="493.0" y2="493.0" /><line stroke="#7a7a7a" stroke-width="0.8" x1="220.0" x2="184.0" y1="602.2" y2="602.2" /><line stroke="#7a7a7a" stroke-width="1.0" x1="181.0" x2="187.0" y1="602.2" y2="602.2" /><line stroke="#7a7a7a" stroke-width="0.8" x1="220.0" x2="184.0" y1="766.0" y2="766.0" /><line stroke="#7a7a7a" stroke-width="1.0" x1="181.0" x2="187.0" y1="766.0" y2="766.0" /><line stroke="#7a7a7a" stroke-width="0.8" x1="220.0" x2="184.0" y1="875.2" y2="875.2" /><line stroke="#7a7a7a" stroke-width="1.0" x1="181.0" x2="187.0" y1="875.2" y2="875.2" /><text fill="#7a7a7a" font-size="7.8" x="180.0" y="274.6">910</text><text fill="#7a7a7a" font-size="7.8" x="180.0" y="411.1">1365</text><text fill="#7a7a7a" font-size="7.8" x="180.0" y="547.5999999999999">910</text><text fill="#7a7a7a" font-size="7.8" x="180.0" y="684.0999999999999">1365</text><text fill="#7a7a7a" font-size="7.8" x="180.0" y="820.6">910</text><line stroke="#545454" stroke-width="1.0" x1="1602.4" x2="1602.4" y1="220.0" y2="875.2" /><line stroke="#545454" stroke-width="0.8" x1="1530.4" x2="1602.4" y1="220.0" y2="220.0" /><line stroke="#545454" stroke-width="1.0" x1="1599.4" x2="1605.4" y1="220.0" y2="220.0" /><line stroke="#545454" stroke-width="0.8" x1="1530.4" x2="1602.4" y1="875.2" y2="875.2" /><line stroke="#545454" stroke-width="1.0" x1="1599.4" x2="1605.4" y1="875.2" y2="875.2" /><text fill="#545454" font-size="8.8" x="1607.3999999999999" y="547.5999999999999">5460mm</text><line stroke="#666666" stroke-width="1.0" x1="1584.4" x2="1584.4" y1="220.0" y2="875.2" /><line stroke="#666666" stroke-width="0.8" x1="1530.4" x2="1584.4" y1="220.0" y2="220.0" /><line stroke="#666666" stroke-width="1.0" x1="1581.4" x2="1587.4" y1="220.0" y2="220.0" /><line stroke="#666666" stroke-width="0.8" x1="1530.4" x2="1584.4" y1="329.2" y2="329.2" /><line stroke="#666666" stroke-width="1.0" x1="1581.4" x2="1587.4" y1="329.2" y2="329.2" /><line stroke="#666666" stroke-width="0.8" x1="1530.4" x2="1584.4" y1="493.0" y2="493.0" /><line stroke="#666666" stroke-width="1.0" x1="1581.4" x2="1587.4" y1="493.0" y2="493.0" /><line stroke="#666666" stroke-width="0.8" x1="1530.4" x2="1584.4" y1="656.8" y2="656.8" /><line stroke="#666666" stroke-width="1.0" x1="1581.4" x2="1587.4" y1="656.8" y2="656.8" /><line stroke="#666666" stroke-width="0.8" x1="1530.4" x2="1584.4" y1="875.2" y2="875.2" /><line stroke="#666666" stroke-width="1.0" x1="1581.4" x2="1587.4" y1="875.2" y2="875.2" /><text fill="#666666" font-size="8.2" x="1589.3999999999999" y="274.6">910</text><text fill="#666666" font-size="8.2" x="1589.3999999999999" y="411.1">1365</text><text fill="#666666" font-size="8.2" x="1589.3999999999999" y="574.9">1365</text><text fill="#666666" font-size="8.2" x="1589.3999999999999" y="766.0">1820</text></svg>