<?xml version="1.0" encoding="utf-8" ?>
<svg baseProfile="tiny" height="1095.1999999999998px" version="1.2" width="1750.3999999999999px" xmlns="http://www.w3.org/2000/svg" xmlns:ev="http://www.w3.org/2001/xml-events" xmlns:xlink="http://www.w3.org/1999/xlink"><defs /><rect fill="#fafafa" height="1095.2" width="1750.4" x="0" y="0" /><line stroke="#ececec" stroke-width="0.7" x1="220.0" x2="220.0" y1="220.0" y2="875.2" /><line stroke="#ececec" stroke-width="0.7" x1="274.6" x2="274.6" y1="220.0" y2="875.2" /><line stroke="#ececec" stroke-width="0.7" x1="329.2" x2="329.2" y1="220.0" y2="875.2" /><line stroke="#ececec" stroke-width="0.7" x1="383.8" x2="383.8" y1="220.0" y2="875.2" /><line stroke="#ececec" stroke-width="0.7" x1="438.4" x2="438.4" y1="220.0" y2="875.2" /><line stroke="#ececec" stroke-width="0.7" x1="493.0" x2="493.0" y1="220.0" y2="875.2" /><line stroke="#ececec" stroke-width="0.7" x1="547.6" x2="547.6" y1="220.0" y2="875.2" /><line stroke="#ececec" stroke-width="0.7" x1="602.2" x2="602.2" y1="220.0" y2="875.2" /><line stroke="#ececec" stroke-width="0.7" x1="656.8" x2="656.8" y1="220.0" y2="875.2" /><line stroke="#ececec" stroke-width="0.7" x1="711.4" x2="711.4" y1="220.0" y2="875.2" /><line stroke="#ececec" stroke-width="0.7" x1="766.0" x2="766.0" y1="220.0" y2="875.2" /><line stroke="#ececec" stroke-width="0.7" x1="820.6" x2="820.6" y1="220.0" y2="875.2" /><line stroke="#ececec" stroke-width="0.7" x1="875.2" x2="875.2" y1="220.0" y2="875.2" /><line stroke="#ececec" stroke-width="0.7" x1="929.8" x2="929.8" y1="220.0" y2="875.2" /><line stroke="#ececec" stroke-width="0.7" x1="984.4" x2="984.4" y1="220.0" y2="875.2" /><line stroke="#ececec" stroke-width="0.7" x1="1039.0" x2="1039.0" y1="220.0" y2="875.2" /><line stroke="#ececec" stroke-width="0.7" x1="1093.6" x2="1093.6" y1="220.0" y2="875.2" /><line stroke="#ececec" stroke-width="0.7" x1="1148.2" x2="1148.2" y1="220.0" y2="875.2" /><line stroke="#ececec" stroke-width="0.7" x1="1202.8" x2="1202.8" y1="220.0" y2="875.2" /><line stroke="#ececec" stroke-width="0.7" x1="1257.4" x2="1257.4" y1="220.0" y2="875.2" /><line stroke="#ececec" stroke-width="0.7" x1="1312.0" x2="1312.0" y1="220.0" y2="875.2" /><line stroke="#ececec" stroke-width="0.7" x1="1366.6" x2="1366.6" y1="220.0" y2="875.2" /><line stroke="#ececec" stroke-width="0.7" x1="1421.2" x2="1421.2" y1="220.0" y2="875.2" /><line stroke="#ececec" stroke-width="0.7" x1="1475.8" x2="1475.8" y1="220.0" y2="875.2" /><line stroke="#ececec" stroke-width="0.7" x1="1530.4" x2="1530.4" y1="220.0" y2="875.2" /><line stroke="#d1d1d1" stroke-width="1.1" x1="220.0" x2="220.0" y1="220.0" y2="875.2" /><line stroke="#d1d1d1" stroke-width="1.1" x1="329.2" x2="329.2" y1="220.0" y2="875.2" /><line stroke="#d1d1d1" stroke-width="1.1" x1="438.4" x2="438.4" y1="220.0" y2="875.2" /><line stroke="#d1d1d1" stroke-width="1.1" x1="547.6" x2="547.6" y1="220.0" y2="875.2" /><line stroke="#d1d1d1" stroke-width="1.1" x1="656.8" x2="656.8" y1="220.0" y2="875.2" /><line stroke="#d1d1d1" stroke-width="1.1" x1="766.0" x2="766.0" y1="220.0" y2="875.2" /><line stroke="#d1d1d1" stroke-width="1.1" x1="875.2" x2="875.2" y1="220.0" y2="875.2" /><line stroke="#d1d1d1" stroke-width="1.1" x1="984.4" x2="984.4" y1="220.0" y2="875.2" /><line stroke="#d1d1d1" stroke-width="1.1" x1="1093.6" x2="1093.6" y1="220.0" y2="875.2" /><line stroke="#d1d1d1" stroke-width="1.1" x1="1202.8" x2="1202.8" y1="220.0" y2="875.2" /><line stroke="#d1d1d1" stroke-width="1.1" x1="1312.0" x2="1312.0" y1="220.0" y2="875.2" /><line stroke="#d1d1d1" stroke-width="1.1" x1="1421.2" x2="1421.2" y1="220.0" y2="875.2" /><line stroke="#d1d1d1" stroke-width="1.1" x1="1530.4" x2="1530.4" y1="220.0" y2="875.2" /><line stroke="#d1d1d1" stroke-width="1.1" x1="220.0" x2="1530.4" y1="220.0" y2="220.0" /><line stroke="#d1d1d1" stroke-width="1.1" x1="220.0" x2="1530.4" y1="329.2" y2="329.2" /><line stroke="#d1d1d1" stroke-width="1.1" x1="220.0" x2="1530.4" y1="438.4" y2="438.4" /><line stroke="#d1d1d1" stroke-width="1.1" x1="220.0" x2="1530.4" y1="547.6" y2="547.6" /><line stroke="#d1d1d1" stroke-width="1.1" x1="220.0" x2="1530.4" y1="656.8" y2="656.8" /><line stroke="#d1d1d1" stroke-width="1.1" x1="220.0" x2="1530.4" y1="766.0" y2="766.0" /><line stroke="#d1d1d1" stroke-width="1.1" x1="220.0" x2="1530.4" y1="875.2" y2="875.2" /><line stroke="#ececec" stroke-width="0.7" x1="220.0" x2="1530.4" y1="220.0" y2="220.0" /><line stroke="#ececec" stroke-width="0.7" x1="220.0" x2="1530.4" y1="274.6" y2="274.6" /><line stroke="#ececec" stroke-width="0.7" x1="220.0" x2="1530.4" y1="329.2" y2="329.2" /><line stroke="#ececec" stroke-width="0.7" x1="220.0" x2="1530.4" y1="383.8" y2="383.8" /><line stroke="#ececec" stroke-width="0.7" x1="220.0" x2="1530.4" y1="438.4" y2="438.4" /><line stroke="#ececec" stroke-width="0.7" x1="220.0" x2="1530.4" y1="493.0" y2="493.0" /><line stroke="#ececec" stroke-width="0.7" x1="220.0" x2="1530.4" y1="547.6" y2="547.6" /><line stroke="#ececec" stroke-width="0.7" x1="220.0" x2="1530.4" y1="602.2" y2="602.2" /><line stroke="#ececec" stroke-width="0.7" x1="220.0" x2="1530.4" y1="656.8" y2="656.8" /><line stroke="#ececec" stroke-width="0.7" x1="220.0" x2="1530.4" y1="711.4" y2="711.4" /><line stroke="#ececec" stroke-width="0.7" x1="220.0" x2="1530.4" y1="766.0" y2="766.0" /><line stroke="#ececec" stroke-width="0.7" x1="220.0" x2="1530.4" y1="820.6" y2="820.6" /><line stroke="#ececec" stroke-width="0.7" x1="220.0" x2="1530.4" y1="875.2" y2="875.2" /><rect fill="none" height="655.2" stroke="#6a6a6a" stroke-dasharray="8,4" stroke-width="2" width="1310.4" x="220.0" y="220.0" /><rect fill="none" height="655.2" stroke="#1f1f1f" stroke-width="3.5" width="1310.4" x="220.0" y="220.0" /><text fill="#555555" font-size="10" x="222.0" y="160.0">Site Envelope = Building Footprint</text><rect fill="#dcecff" height="218.4" stroke="none" width="218.4" x="220.0" y="656.8" /><line stroke="#2f2f2f" stroke-width="2.2" x1="220.0" x2="438.4" y1="875.2" y2="875.2" /><line stroke="#2f2f2f" stroke-width="2.2" x1="220.0" x2="438.4" y1="656.8" y2="656.8" /><line stroke="#2f2f2f" stroke-width="2.2" x1="438.4" x2="438.4" y1="656.8" y2="875.2" /><line stroke="#2f2f2f" stroke-width="2.2" x1="220.0" x2="220.0" y1="656.8" y2="875.2" /><rect fill="#f8f0d9" height="218.4" stroke="none" width="218.4" x="220.0" y="438.4" /><line stroke="#2f2f2f" stroke-width="2.2" x1="220.0" x2="438.4" y1="438.4" y2="438.4" /><line stroke="#2f2f2f" stroke-width="2.2" x1="220.0" x2="438.4" y1="656.8" y2="656.8" /><line stroke="#2f2f2f" stroke-width="2.2" x1="220.0" x2="220.0" y1="438.4" y2="656.8" /><line stroke="#2f2f2f" stroke-width="2.2" x1="438.4" x2="438.4" y1="438.4" y2="656.8" /><rect fill="#efe9ff" height="109.2" stroke="none" width="109.2" x="329.2" y="329.2" /><rect fill="#efe9ff" height="109.2" stroke="none" width="163.8" x="329.2" y="220.0" /><rect fill="#efe9ff" height="327.6" stroke="none" width="218.4" x="438.4" y="329.2" /><line stroke="#2f2f2f" stroke-width="2.2" x1="438.4" x2="656.8" y1="656.8" y2="656.8" /><line stroke="#2f2f2f" stroke-width="2.2" x1="329.2" x2="438.4" y1="438.4" y2="438.4" /><line stroke="#2f2f2f" stroke-width="2.2" x1="493.0" x2="656.8" y1="329.2" y2="329.2" /><line stroke="#2f2f2f" stroke-width="2.2" x1="329.2" x2="493.0" y1="220.0" y2="220.0" /><line stroke="#2f2f2f" stroke-width="2.2" x1="656.8" x2="656.8" y1="329.2" y2="656.8" /><line stroke="#2f2f2f" stroke-width="2.2" x1="329.2" x2="329.2" y1="220.0" y2="438.4" /><line stroke="#2f2f2f" stroke-width="2.2" x1="438.4" x2="438.4" y1="438.4" y2="656.8" /><line stroke="#2f2f2f" stroke-width="2.2" x1="493.0" x2="493.0" y1="220.0" y2="329.2" /><rect fill="#ffe2b8" height="382.2" stroke="none" width="873.6" x="656.8" y="493.0" /><line stroke="#2f2f2f" stroke-width="2.2" x1="656.8" x2="1530.4" y1="493.0" y2="493.0" /><line stroke="#2f2f2f" stroke-width="2.2" x1="656.8" x2="1530.4" y1="875.2" y2="875.2" /><line stroke="#2f2f2f" stroke-width="2.2" x1="656.8" x2="656.8" y1="493.0" y2="875.2" /><line stroke="#2f2f2f" stroke-width="2.2" x1="1530.4" x2="1530.4" y1="493.0" y2="875.2" /><rect fill="#f0f0f0" height="273.0" stroke="none" width="218.4" x="1312.0" y="220.0" /><line stroke="#2f2f2f" stroke-width="2.2" x1="1312.0" x2="1530.4" y1="493.0" y2="493.0" /><line stroke="#2f2f2f" stroke-width="2.2" x1="1312.0" x2="1530.4" y1="220.0" y2="220.0" /><line stroke="#2f2f2f" stroke-width="2.2" x1="1312.0" x2="1312.0" y1="220.0" y2="493.0" /><line stroke="#2f2f2f" stroke-width="2.2" x1="1530.4" x2="1530.4" y1="220.0" y2="493.0" /><rect fill="#d9f2ff" height="273.0" stroke="none" width="546.0" x="766.0" y="220.0" /><line stroke="#2f2f2f" stroke-width="2.2" x1="766.0" x2="1312.0" y1="493.0" y2="493.0" /><line stroke="#2f2f2f" stroke-width="2.2" x1="766.0" x2="1312.0" y1="220.0" y2="220.0" /><line stroke="#2f2f2f" stroke-width="2.2" x1="766.0" x2="766.0" y1="220.0" y2="493.0" /><line stroke="#2f2f2f" stroke-width="2.2" x1="1312.0" x2="1312.0" y1="220.0" y2="493.0" /><rect fill="#fbe7e6" height="218.4" stroke="none" width="109.2" x="220.0" y="220.0" /><line stroke="#2f2f2f" stroke-width="2.2" x1="220.0" x2="329.2" y1="220.0" y2="220.0" /><line stroke="#2f2f2f" stroke-width="2.2" x1="220.0" x2="329.2" y1="438.4" y2="438.4" /><line stroke="#2f2f2f" stroke-width="2.2" x1="329.2" x2="329.2" y1="220.0" y2="438.4" /><line stroke="#2f2f2f" stroke-width="2.2" x1="220.0" x2="220.0" y1="220.0" y2="438.4" /><rect fill="#e7fbfb" height="218.4" stroke="none" width="218.4" x="438.4" y="656.8" /><line stroke="#2f2f2f" stroke-width="2.2" x1="438.4" x2="656.8" y1="875.2" y2="875.2" /><line stroke="#2f2f2f" stroke-width="2.2" x1="438.4" x2="656.8" y1="656.8" y2="656.8" /><line stroke="#2f2f2f" stroke-width="2.2" x1="438.4" x2="438.4" y1="656.8" y2="875.2" /><line stroke="#2f2f2f" stroke-width="2.2" x1="656.8" x2="656.8" y1="656.8" y2="875.2" /><rect fill="#f7f3ea" fill-opacity="0.35" height="273.0" stroke="#9a9a9a" stroke-dasharray="4,3" stroke-width="0.9" width="109.2" x="766.0" y="220.0" /><line stroke="#9c9c9c" stroke-opacity="0.7" stroke-width="0.8" x1="766.0" x2="785.2" y1="473.8" y2="493.0" /><line stroke="#9c9c9c" stroke-opacity="0.7" stroke-width="0.8" x1="766.0" x2="804.4" y1="454.6" y2="493.0" /><line stroke="#9c9c9c" stroke-opacity="0.7" stroke-width="0.8" x1="766.0" x2="823.6" y1="435.4" y2="493.0" /><line stroke="#9c9c9c" stroke-opacity="0.7" stroke-width="0.8" x1="766.0" x2="842.8" y1="416.2" y2="493.0" /><line stroke="#9c9c9c" stroke-opacity="0.7" stroke-width="0.8" x1="766.0" x2="862.0" y1="397.0" y2="493.0" /><line stroke="#9c9c9c" stroke-opacity="0.7" stroke-width="0.8" x1="766.0" x2="875.2" y1="377.8" y2="487.0" /><line stroke="#9c9c9c" stroke-opacity="0.7" stroke-width="0.8" x1="766.0" x2="875.2" y1="358.6" y2="467.8" /><line stroke="#9c9c9c" stroke-opacity="0.7" stroke-width="0.8" x1="766.0" x2="875.2" y1="339.4" y2="448.6" /><line stroke="#9c9c9c" stroke-opacity="0.7" stroke-width="0.8" x1="766.0" x2="875.2" y1="320.2" y2="429.4" /><line stroke="#9c9c9c" stroke-opacity="0.7" stroke-width="0.8" x1="766.0" x2="875.2" y1="301.0" y2="410.2" /><line stroke="#9c9c9c" stroke-opacity="0.7" stroke-width="0.8" x1="766.0" x2="875.2" y1="281.8" y2="391.0" /><line stroke="#9c9c9c" stroke-opacity="0.7" stroke-width="0.8" x1="766.0" x2="875.2" y1="262.6" y2="371.8" /><line stroke="#9c9c9c" stroke-opacity="0.7" stroke-width="0.8" x1="766.0" x2="875.2" y1="243.4" y2="352.6" /><line stroke="#9c9c9c" stroke-opacity="0.7" stroke-width="0.8" x1="766.0" x2="875.2" y1="224.2" y2="333.4" /><line stroke="#9c9c9c" stroke-opacity="0.7" stroke-width="0.8" x1="781.0" x2="875.2" y1="220.0" y2="314.2" /><line stroke="#9c9c9c" stroke-opacity="0.7" stroke-width="0.8" x1="800.2" x2="875.2" y1="220.0" y2="295.0" /><line stroke="#9c9c9c" stroke-opacity="0.7" stroke-width="0.8" x1="819.4" x2="875.2" y1="220.0" y2="275.8" /><line stroke="#9c9c9c" stroke-opacity="0.7" stroke-width="0.8" x1="838.6" x2="875.2" y1="220.0" y2="256.6" /><line stroke="#9c9c9c" stroke-opacity="0.7" stroke-width="0.8" x1="857.8" x2="875.2" y1="220.0" y2="237.4" /><rect fill="none" height="38.22" stroke="#8a6b4a" stroke-width="1.0" width="273.6" x="1128.544" y="531.22" /><rect fill="none" height="84.084" stroke="#8a6b4a" stroke-width="1.0" width="34.398" x="1367.746" y="531.22" /><circle cx="1213.504" cy="550.33" fill="none" r="8.4" stroke="#8a6b4a" stroke-width="0.9" /><circle cx="1235.104" cy="550.33" fill="none" r="8.4" stroke="#8a6b4a" stroke-width="0.9" /><rect fill="none" height="20.1802" stroke="#8a6b4a" stroke-width="0.9" width="23.3906" x="1372.9057" y="566.5353" /><rect fill="none" height="45.864" stroke="#8a6b4a" stroke-width="1.0" width="163.8" x="1006.24" y="653.524" /><rect fill="none" height="92.82" stroke="#7f7f7f" stroke-width="1.1" width="218.4" x="929.8" y="269.14" /><line stroke="#7f7f7f" stroke-width="0.9" x1="929.8" x2="1148.2" y1="301.627" y2="301.627" /><rect fill="none" height="48.048" stroke="#6f6f6f" stroke-width="1.0" width="74.256" x="477.712" y="696.112" /><rect fill="none" height="48.048" stroke="#6f6f6f" stroke-width="1.0" width="74.256" x="565.072" y="696.112" /><line stroke="#8f8f8f" stroke-width="0.8" x1="468.976" x2="626.224" y1="681.712" y2="681.712" /><circle cx="630.4" cy="683.2" fill="none" r="8.4" stroke="#7c7c7c" stroke-width="0.9" /><line stroke="#7c7c7c" stroke-width="0.8" x1="619.6" x2="641.2" y1="683.2" y2="683.2" /><line stroke="#7c7c7c" stroke-width="0.8" x1="630.4" x2="630.4" y1="672.4" y2="694.0" /><rect fill="none" height="109.2" rx="6" ry="6" stroke="#6f6f6f" stroke-width="1.0" width="135.408" x="263.68" y="704.848" /><circle cx="412.0" cy="683.2" fill="none" r="8.4" stroke="#7c7c7c" stroke-width="0.9" /><line stroke="#7c7c7c" stroke-width="0.8" x1="401.2" x2="422.8" y1="683.2" y2="683.2" /><line stroke="#7c7c7c" stroke-width="0.8" x1="412.0" x2="412.0" y1="672.4" y2="694.0" /><line stroke="#9a9a9a" stroke-width="0.9" x1="1338.208" x2="1504.192" y1="269.14" y2="269.14" /><line stroke="#9a9a9a" stroke-width="0.9" x1="1338.208" x2="1504.192" y1="443.86" y2="443.86" /><rect fill="#ffffff" height="109.2" stroke="#202020" stroke-dasharray="8,4" stroke-width="2.6" width="163.8" x="493.0" y="220.0" /><rect fill="#ffffff" height="109.2" stroke="#202020" stroke-dasharray="8,4" stroke-width="2.6" width="109.2" x="656.8" y="220.0" /><rect fill="#ffffff" height="163.8" stroke="#202020" stroke-dasharray="8,4" stroke-width="2.6" width="109.2" x="656.8" y="329.2" /><line stroke="#2a2a2a" stroke-width="1.4" x1="516.4" x2="516.4" y1="220.0" y2="329.2" /><line stroke="#2a2a2a" stroke-width="1.4" x1="539.8" x2="539.8" y1="220.0" y2="329.2" /><line stroke="#2a2a2a" stroke-width="1.4" x1="563.2" x2="563.2" y1="220.0" y2="329.2" /><line stroke="#2a2a2a" stroke-width="1.4" x1="586.6" x2="586.6" y1="220.0" y2="329.2" /><line stroke="#2a2a2a" stroke-width="1.4" x1="610.0" x2="610.0" y1="220.0" y2="329.2" /><line stroke="#2a2a2a" stroke-width="1.4" x1="633.4" x2="633.4" y1="220.0" y2="329.2" /><line stroke="#2a2a2a" stroke-width="1.4" x1="656.8" x2="766.0" y1="352.6" y2="352.6" /><line stroke="#2a2a2a" stroke-width="1.4" x1="656.8" x2="766.0" y1="376.0" y2="376.0" /><line stroke="#2a2a2a" stroke-width="1.4" x1="656.8" x2="766.0" y1="399.4" y2="399.4" /><line stroke="#2a2a2a" stroke-width="1.4" x1="656.8" x2="766.0" y1="422.8" y2="422.8" /><line stroke="#2a2a2a" stroke-width="1.4" x1="656.8" x2="766.0" y1="446.2" y2="446.2" /><line stroke="#2a2a2a" stroke-width="1.4" x1="656.8" x2="766.0" y1="469.6" y2="469.6" /><text fill="#202020" font-size="11" text-anchor="middle" x="574.9" y="274.6">Stair (UP)</text><text fill="#3a3a3a" font-size="9.0" text-anchor="middle" x="574.9" y="289.0">13R/12T</text><text fill="#4a4a4a" font-size="7.8" text-anchor="middle" x="574.9" y="297.4">H2730 R210 T228</text><line stroke="#ffffff" stroke-width="7" x1="493.0" x2="493.0" y1="220.0" y2="329.2" /><line stroke="#5e5e5e" stroke-width="1.0" x1="493.0" x2="493.0" y1="220.0" y2="329.2" /><line stroke="#ffffff" stroke-width="6" x1="438.4" x2="438.4" y1="498.46" y2="596.74" /><line stroke="#595959" stroke-width="1.2" x1="438.4" x2="502.282" y1="498.46" y2="562.342" /><path d="M 438.4,562.342 A 63.882,63.882 0 0 1 502.282,562.342" fill="none" stroke="#7a7a7a" stroke-width="1.0" /><line stroke="#ffffff" stroke-width="6" x1="656.8" x2="656.8" y1="529.3" y2="620.5" /><line stroke="#595959" stroke-width="1.2" x1="656.8" x2="597.52" y1="529.3" y2="588.58" /><path d="M 656.8,588.5799999999999 A 59.28,59.28 0 0 1 597.52,588.5799999999999" fill="none" stroke="#7a7a7a" stroke-width="1.0" /><line stroke="#ffffff" stroke-width="6" x1="329.2" x2="329.2" y1="338.2" y2="429.4" /><line stroke="#ffffff" stroke-width="6" x1="498.46" x2="596.74" y1="656.8" y2="656.8" /><line stroke="#595959" stroke-width="1.2" x1="498.46" x2="562.342" y1="656.8" y2="592.918" /><path d="M 562.342,656.8 A 63.882,63.882 0 0 1 562.342,592.918" fill="none" stroke="#7a7a7a" stroke-width="1.0" /><line stroke="#ffffff" stroke-width="6" x1="438.4" x2="438.4" y1="716.86" y2="815.14" /><line stroke="#595959" stroke-width="1.2" x1="438.4" x2="374.518" y1="716.86" y2="780.742" /><path d="M 438.4,780.7420000000001 A 63.882,63.882 0 0 1 374.51800000000003,780.7420000000001" fill="none" stroke="#7a7a7a" stroke-width="1.0" /><line stroke="#ffffff" stroke-width="6" x1="1034.8" x2="1152.4" y1="493.0" y2="493.0" /><line stroke="#595959" stroke-width="1.2" x1="1034.8" x2="1111.24" y1="493.0" y2="569.44" /><path d="M 1111.24,493.0 A 76.44,76.44 0 0 1 1111.24,569.44" fill="none" stroke="#7a7a7a" stroke-width="1.0" /><line stroke="#ffffff" stroke-width="6" x1="1372.06" x2="1470.34" y1="493.0" y2="493.0" /><line stroke="#595959" stroke-width="1.2" x1="1372.06" x2="1435.942" y1="493.0" y2="429.118" /><path d="M 1435.942,493.0 A 63.882,63.882 0 0 1 1435.942,429.118" fill="none" stroke="#7a7a7a" stroke-width="1.0" /><line stroke="#ffffff" stroke-width="7" x1="220.0" x2="220.0" y1="498.46" y2="596.74" /><line stroke="#595959" stroke-width="1.2" x1="220.0" x2="283.882" y1="498.46" y2="562.342" /><path d="M 220.0,562.342 A 63.882,63.882 0 0 1 283.882,562.342" fill="none" stroke="#7a7a7a" stroke-width="1.0" /><line stroke="#66a7ff" stroke-width="2.2" x1="1527.76" x2="1527.76" y1="619.18" y2="749.02" /><line stroke="#66a7ff" stroke-width="2.2" x1="1533.04" x2="1533.04" y1="619.18" y2="749.02" /><line stroke="#66a7ff" stroke-width="2.2" x1="805.408" x2="997.408" y1="872.56" y2="872.56" /><line stroke="#66a7ff" stroke-width="2.2" x1="805.408" x2="997.408" y1="877.84" y2="877.84" /><line stroke="#66a7ff" stroke-width="2.2" x1="1189.792" x2="1381.792" y1="872.56" y2="872.56" /><line stroke="#66a7ff" stroke-width="2.2" x1="1189.792" x2="1381.792" y1="877.84" y2="877.84" /><line stroke="#66a7ff" stroke-width="2.2" x1="826.06" x2="1011.7" y1="217.36" y2="217.36" /><line stroke="#66a7ff" stroke-width="2.2" x1="826.06" x2="1011.7" y1="222.64" y2="222.64" /><line stroke="#66a7ff" stroke-width="2.2" x1="1066.3" x2="1251.94" y1="217.36" y2="217.36" /><line stroke="#66a7ff" stroke-width="2.2" x1="1066.3" x2="1251.94" y1="222.64" y2="222.64" /><line stroke="#9a9a9a" stroke-width="0.8" x1="446.8" x2="648.4" y1="337.6" y2="337.6" /><line stroke="#9a9a9a" stroke-width="0.8" x1="446.8" x2="446.8" y1="334.24" y2="340.96" /><line stroke="#9a9a9a" stroke-width="0.8" x1="648.4" x2="648.4" y1="334.24" y2="340.96" /><text fill="#8a8a8a" font-size="7.6" text-anchor="start" x="453.52" y="334.96">1820mm</text><line stroke="#9a9a9a" stroke-width="0.8" x1="446.8" x2="446.8" y1="337.6" y2="648.4" /><line stroke="#9a9a9a" stroke-width="0.8" x1="443.44" x2="450.16" y1="337.6" y2="337.6" /><line stroke="#9a9a9a" stroke-width="0.8" x1="443.44" x2="450.16" y1="648.4" y2="648.4" /><text fill="#8a8a8a" font-size="7.6" text-anchor="start" x="450.88" y="345.28">2730mm</text><text fill="#1b1b1b" font-size="10" text-anchor="middle" x="329.2" y="751.6">Bath 1</text><text fill="#1b1b1b" font-size="10" text-anchor="middle" x="329.2" y="762.4">1820x1820mm</text><text fill="#1b1b1b" font-size="10" text-anchor="middle" x="329.2" y="773.1999999999999">3.3sqm / 2.0jo</text><text fill="#1b1b1b" font-size="10" text-anchor="middle" x="329.2" y="533.2">Entry</text><text fill="#1b1b1b" font-size="10" text-anchor="middle" x="329.2" y="544.0">1820x1820mm</text><text fill="#1b1b1b" font-size="10" text-anchor="middle" x="329.2" y="554.8">3.3sqm / 2.0jo</text><text fill="#1b1b1b" font-size="9" text-anchor="middle" x="504.2411764705882" y="427.21176470588233">Hall 1</text><text fill="#1b1b1b" font-size="9" text-anchor="middle" x="504.2411764705882" y="438.01176470588234">7.0sqm / 4.3jo</text><text fill="#1b1b1b" font-size="10" text-anchor="middle" x="1093.6" y="669.7">Ldk</text><text fill="#1b1b1b" font-size="10" text-anchor="middle" x="1093.6" y="680.5">7280x3185mm</text><text fill="#1b1b1b" font-size="10" text-anchor="middle" x="1093.6" y="691.3">23.2sqm / 14.3jo</text><text fill="#1b1b1b" font-size="10" text-anchor="middle" x="1421.2" y="342.1">Pantry 1</text><text fill="#1b1b1b" font-size="10" text-anchor="middle" x="1421.2" y="352.9">1820x2275mm</text><text fill="#1b1b1b" font-size="10" text-anchor="middle" x="1421.2" y="363.7">4.1sqm / 2.6jo</text><text fill="#1b1b1b" font-size="10" text-anchor="middle" x="1039.0" y="342.1">Study 1</text><text fill="#1b1b1b" font-size="10" text-anchor="middle" x="1039.0" y="352.9">4550x2275mm</text><text fill="#1b1b1b" font-size="10" text-anchor="middle" x="1039.0" y="363.7">10.4sqm / 6.4jo</text><text fill="#1b1b1b" font-size="10" text-anchor="middle" x="274.6" y="314.8">Toilet 1</text><text fill="#1b1b1b" font-size="10" text-anchor="middle" x="274.6" y="325.6">910x1820mm</text><text fill="#1b1b1b" font-size="10" text-anchor="middle" x="274.6" y="336.4">1.7sqm / 1.0jo</text><text fill="#1b1b1b" font-size="10" text-anchor="middle" x="547.5999999999999" y="751.6">Wash 1</text><text fill="#1b1b1b" font-size="10" text-anchor="middle" x="547.5999999999999" y="762.4">1820x1820mm</text><text fill="#1b1b1b" font-size="10" text-anchor="middle" x="547.5999999999999" y="773.1999999999999">3.3sqm / 2.0jo</text><text fill="#4a4a4a" font-size="10" text-anchor="middle" x="820.6" y="356.5">CL</text><text fill="#111111" font-size="14" x="220.0" y="180.0">F1 Plan  (10920 x 5460 mm)</text><text fill="#444444" font-size="10" x="220.0" y="198.0">Scale: 1px=8.3mm</text><rect fill="#ffffff" height="216" stroke="#777777" stroke-width="1" width="170" x="1618.4" y="150.0" /><text fill="#111111" font-size="11" x="1626.3999999999999" y="164.0">Legend</text><rect fill="#f8f0d9" height="12" stroke="#333333" stroke-width="1" width="12" x="1626.4" y="174.0" /><text fill="#222222" font-size="10" x="1644.3999999999999" y="184.0">Entry</text><rect fill="#efe9ff" height="12" stroke="#333333" stroke-width="1" width="12" x="1626.4" y="192.0" /><text fill="#222222" font-size="10" x="1644.3999999999999" y="202.0">Hall</text><rect fill="#ffe2b8" height="12" stroke="#333333" stroke-width="1" width="12" x="1626.4" y="210.0" /><text fill="#222222" font-size="10" x="1644.3999999999999" y="220.0">Ldk</text><rect fill="#d9f2ff" height="12" stroke="#333333" stroke-width="1" width="12" x="1626.4" y="228.0" /><text fill="#222222" font-size="10" x="1644.3999999999999" y="238.0">Bedroom</text><rect fill="#fbe7e6" height="12" stroke="#333333" stroke-width="1" width="12" x="1626.4" y="246.0" /><text fill="#222222" font-size="10" x="1644.3999999999999" y="256.0">Toilet</text><rect fill="#e7fbfb" height="12" stroke="#333333" stroke-width="1" width="12" x="1626.4" y="264.0" /><text fill="#222222" font-size="10" x="1644.3999999999999" y="274.0">Washroom</text><rect fill="#dcecff" height="12" stroke="#333333" stroke-width="1" width="12" x="1626.4" y="282.0" /><text fill="#222222" font-size="10" x="1644.3999999999999" y="292.0">Bath</text><rect fill="#f7f3ea" height="12" stroke="#333333" stroke-width="1" width="12" x="1626.4" y="300.0" /><text fill="#222222" font-size="10" x="1644.3999999999999" y="310.0">Closet</text><rect fill="#f0f0f0" height="12" stroke="#333333" stroke-width="1" width="12" x="1626.4" y="318.0" /><text fill="#222222" font-size="10" x="1644.3999999999999" y="328.0">Storage</text><line stroke="#6aa4ff" stroke-width="4" x1="1626.4" x2="1653.4" y1="348.0" y2="348.0" /><text fill="#222222" font-size="10" x="1660.3999999999999" y="351.0">Window</text><line stroke="#666666" stroke-width="2.4" x1="1626.4" x2="1653.4" y1="364.0" y2="364.0" /><path d="M 1626.3999999999999,364.0 A 10,10 0 0 1 1636.3999999999999,354.0" fill="none" stroke="#666666" stroke-width="1.2" /><text fill="#222222" font-size="10" x="1660.3999999999999" y="367.0">Door</text><rect fill="#ffffff" height="84" stroke="#777777" stroke-width="1" width="200" x="1618.4" y="520.0" /><text fill="#111111" font-size="10" x="1626.3999999999999" y="533.0">Area (F1)</text><text fill="#222222" font-size="9" x="1626.3999999999999" y="550.0">F1: in 59.6 sqm (18.0 tsubo), out 0.0 sqm (0.0 tsubo)</text><text fill="#222222" font-size="9" x="1626.3999999999999" y="566.0">F2: in 59.6 sqm (18.0 tsubo), out 0.0 sqm (0.0 tsubo)</text><text fill="#222222" font-size="9" x="1626.3999999999999" y="582.0">Total indoor: 119.2 sqm (36.1 tsubo)</text><text fill="#222222" font-size="9" x="1626.3999999999999" y="598.0">Total outdoor: 0.0 sqm (0.0 tsubo)</text><line stroke="#111111" stroke-width="2" x1="175.0" x2="175.0" y1="238.0" y2="208.0" /><polygon fill="#111111" points="175.0,208.0 181.0,214.0 169.0,214.0" /><text fill="#111111" font-size="12" x="170.0" y="202.0">N</text><line stroke="#545454" stroke-width="1.0" x1="220.0" x2="1530.4" y1="148.0" y2="148.0" /><line stroke="#545454" stroke-width="0.8" x1="220.0" x2="220.0" y1="220.0" y2="148.0" /><line stroke="#545454" stroke-width="1.0" x1="220.0" x2="220.0" y1="145.0" y2="151.0" /><line stroke="#545454" stroke-width="0.8" x1="1530.4" x2="1530.4" y1="220.0" y2="148.0" /><line stroke="#545454" stroke-width="1.0" x1="1530.4" x2="1530.4" y1="145.0" y2="151.0" /><text fill="#545454" font-size="8.8" text-anchor="middle" x="875.1999999999999" y="145.0">10920mm</text><line stroke="#666666" stroke-width="1.0" x1="220.0" x2="1530.4" y1="166.0" y2="166.0" /><line stroke="#666666" stroke-width="0.8" x1="220.0" x2="220.0" y1="220.0" y2="166.0" /><line stroke="#666666" stroke-width="1.0" x1="220.0" x2="220.0" y1="163.0" y2="169.0" /><line stroke="#666666" stroke-width="0.8" x1="329.2" x2="329.2" y1="220.0" y2="166.0" /><line stroke="#666666" stroke-width="1.0" x1="329.2" x2="329.2" y1="163.0" y2="169.0" /><line stroke="#666666" stroke-width="0.8" x1="493.0" x2="493.0" y1="220.0" y2="166.0" /><line stroke="#666666" stroke-width="1.0" x1="493.0" x2="493.0" y1="163.0" y2="169.0" /><line stroke="#666666" stroke-width="0.8" x1="656.8" x2="656.8" y1="220.0" y2="166.0" /><line stroke="#666666" stroke-width="1.0" x1="656.8" x2="656.8" y1="163.0" y2="169.0" /><line stroke="#666666" stroke-width="0.8" x1="766.0" x2="766.0" y1="220.0" y2="166.0" /><line stroke="#666666" stroke-width="1.0" x1="766.0" x2="766.0" y1="163.0" y2="169.0" /><line stroke="#666666" stroke-width="0.8" x1="1312.0" x2="1312.0" y1="220.0" y2="166.0" /><line stroke="#666666" stroke-width="1.0" x1="1312.0" x2="1312.0" y1="163.0" y2="169.0" /><line stroke="#666666" stroke-width="0.8" x1="1530.4" x2="1530.4" y1="220.0" y2="166.0" /><line stroke="#666666" stroke-width="1.0" x1="1530.4" x2="1530.4" y1="163.0" y2="169.0" /><text fill="#666666" font-size="8.2" text-anchor="middle" x="274.6" y="163.0">910</text><text fill="#666666" font-size="8.2" text-anchor="middle" x="411.1" y="163.0">1365</text><text fill="#666666" font-size="8.2" text-anchor="middle" x="574.9" y="163.0">1365</text><text fill="#666666" font-size="8.2" text-anchor="middle" x="711.4" y="163.0">910</text><text fill="#666666" font-size="8.2" text-anchor="middle" x="1039.0" y="163.0">4550</text><text fill="#666666" font-size="8.2" text-anchor="middle" x="1421.2" y="163.0">1820</text><line stroke="#7a7a7a" stroke-width="1.0" x1="220.0" x2="1530.4" y1="184.0" y2="184.0" /><line stroke="#7a7a7a" stroke-width="0.8" x1="220.0" x2="220.0" y1="220.0" y2="184.0" /><line stroke="#7a7a7a" stroke-width="1.0" x1="220.0" x2="220.0" y1="181.0" y2="187.0" /><line stroke="#7a7a7a" stroke-width="0.8" x1="820.6" x2="820.6" y1="220.0" y2="184.0" /><line stroke="#7a7a7a" stroke-width="1.0" x1="820.6" x2="820.6" y1="181.0" y2="187.0" /><line stroke="#7a7a7a" stroke-width="0.8" x1="1039.0" x2="1039.0" y1="220.0" y2="184.0" /><line stroke="#7a7a7a" stroke-width="1.0" x1="1039.0" x2="1039.0" y1="181.0" y2="187.0" /><line stroke="#7a7a7a" stroke-width="0.8" x1="1257.4" x2="1257.4" y1="220.0" y2="184.0" /><line stroke="#7a7a7a" stroke-width="1.0" x1="1257.4" x2="1257.4" y1="181.0" y2="187.0" /><line stroke="#7a7a7a" stroke-width="0.8" x1="1530.4" x2="1530.4" y1="220.0" y2="184.0" /><line stroke="#7a7a7a" stroke-width="1.0" x1="1530.4" x2="1530.4" y1="181.0" y2="187.0" /><text fill="#7a7a7a" font-size="7.8" text-anchor="middle" x="520.3" y="181.0">5005</text><text fill="#7a7a7a" font-size="7.8" text-anchor="middle" x="929.8" y="181.0">1820</text><text fill="#7a7a7a" font-size="7.8" text-anchor="middle" x="1148.1999999999998" y="181.0">1820</text><text fill="#7a7a7a" font-size="7.8" text-anchor="middle" x="1393.8999999999999" y="181.0">2275</text><line stroke="#545454" stroke-width="1.0" x1="220.0" x2="1530.4" y1="947.2" y2="947.2" /><line stroke="#545454" stroke-width="0.8" x1="220.0" x2="220.0" y1="875.2" y2="947.2" /><line stroke="#545454" stroke-width="1.0" x1="220.0" x2="220.0" y1="944.2" y2="950.2" /><line stroke="#545454" stroke-width="0.8" x1="1530.4" x2="1530.4" y1="875.2" y2="947.2" /><line stroke="#545454" stroke-width="1.0" x1="1530.4" x2="1530.4" y1="944.2" y2="950.2" /><text fill="#545454" font-size="8.8" text-anchor="middle" x="875.1999999999999" y="957.1999999999999">10920mm</text><line stroke="#666666" stroke-width="1.0" x1="220.0" x2="1530.4" y1="929.2" y2="929.2" /><line stroke="#666666" stroke-width="0.8" x1="220.0" x2="220.0" y1="875.2" y2="929.2" /><line stroke="#666666" stroke-width="1.0" x1="220.0" x2="220.0" y1="926.2" y2="932.2" /><line stroke="#666666" stroke-width="0.8" x1="438.4" x2="438.4" y1="875.2" y2="929.2" /><line stroke="#666666" stroke-width="1.0" x1="438.4" x2="438.4" y1="926.2" y2="932.2" /><line stroke="#666666" stroke-width="0.8" x1="656.8" x2="656.8" y1="875.2" y2="929.2" /><line stroke="#666666" stroke-width="1.0" x1="656.8" x2="656.8" y1="926.2" y2="932.2" /><line stroke="#666666" stroke-width="0.8" x1="1530.4" x2="1530.4" y1="875.2" y2="929.2" /><line stroke="#666666" stroke-width="1.0" x1="1530.4" x2="1530.4" y1="926.2" y2="932.2" /><text fill="#666666" font-size="8.2" text-anchor="middle" x="329.2" y="939.1999999999999">1820</text><text fill="#666666" font-size="8.2" text-anchor="middle" x="547.5999999999999" y="939.1999999999999">1820</text><text fill="#666666" font-size="8.2" text-anchor="middle" x="1093.6" y="939.1999999999999">7280</text><line stroke="#7a7a7a" stroke-width="1.0" x1="220.0" x2="1530.4" y1="911.2" y2="911.2" /><line stroke="#7a7a7a" stroke-width="0.8" x1="220.0" x2="220.0" y1="875.2" y2="911.2" /><line stroke="#7a7a7a" stroke-width="1.0" x1="220.0" x2="220.0" y1="908.2" y2="914.2" /><line stroke="#7a7a7a" stroke-width="0.8" x1="820.6" x2="820.6" y1="875.2" y2="911.2" /><line stroke="#7a7a7a" stroke-width="1.0" x1="820.6" x2="820.6" y1="908.2" y2="914.2" /><line stroke="#7a7a7a" stroke-width="0.8" x1="984.4" x2="984.4" y1="875.2" y2="911.2" /><line stroke="#7a7a7a" stroke-width="1.0" x1="984.4" x2="984.4" y1="908.2" y2="914.2" /><line stroke="#7a7a7a" stroke-width="0.8" x1="1202.8" x2="1202.8" y1="875.2" y2="911.2" /><line stroke="#7a7a7a" stroke-width="1.0" x1="1202.8" x2="1202.8" y1="908.2" y2="914.2" /><line stroke="#7a7a7a" stroke-width="0.8" x1="1366.6" x2="1366.6" y1="875.2" y2="911.2" /><line stroke="#7a7a7a" stroke-width="1.0" x1="1366.6" x2="1366.6" y1="908.2" y2="914.2" /><line stroke="#7a7a7a" stroke-width="0.8" x1="1530.4" x2="1530.4" y1="875.2" y2="911.2" /><line stroke="#7a7a7a" stroke-width="1.0" x1="1530.4" x2="1530.4" y1="908.2" y2="914.2" /><text fill="#7a7a7a" font-size="7.8" text-anchor="middle" x="520.3" y="921.1999999999999">5005</text><text fill="#7a7a7a" font-size="7.8" text-anchor="middle" x="902.5" y="921.1999999999999">1365</text><text fill="#7a7a7a" font-size="7.8" text-anchor="middle" x="1093.6" y="921.1999999999999">1820</text><text fill="#7a7a7a" font-size="7.8" text-anchor="middle" x="1284.7" y="921.1999999999999">1365</text><text fill="#7a7a7a" font-size="7.8" text-anchor="middle" x="1448.5" y="921.1999999999999">1365</text><line stroke="#545454" stroke-width="1.0" x1="148.0" x2="148.0" y1="220.0" y2="875.2" /><line stroke="#545454" stroke-width="0.8" x1="220.0" x2="148.0" y1="220.0" y2="220.0" /><line stroke="#545454" stroke-width="1.0" x1="145.0" x2="151.0" y1="220.0" y2="220.0" /><line stroke="#545454" stroke-width="0.8" x1="220.0" x2="148.0" y1="875.2" y2="875.2" /><line stroke="#545454" stroke-width="1.0" x1="145.0" x2="151.0" y1="875.2" y2="875.2" /><text fill="#545454" font-size="8.8" x="144.0" y="547.5999999999999">5460mm</text><line stroke="#666666" stroke-width="1.0" x1="166.0" x2="166.0" y1="220.0" y2="875.2" /><line stroke="#666666" stroke-width="0.8" x1="220.0" x2="166.0" y1="220.0" y2="220.0" /><line stroke="#666666" stroke-width="1.0" x1="163.0" x2="169.0" y1="220.0" y2="220.0" /><line stroke="#666666" stroke-width="0.8" x1="220.0" x2="166.0" y1="438.4" y2="438.4" /><line stroke="#666666" stroke-width="1.0" x1="163.0" x2="169.0" y1="438.4" y2="438.4" /><line stroke="#666666" stroke-width="0.8" x1="220.0" x2="166.0" y1="656.8" y2="656.8" /><line stroke="#666666" stroke-width="1.0" x1="163.0" x2="169.0" y1="656.8" y2="656.8" /><line stroke="#666666" stroke-width="0.8" x1="220.0" x2="166.0" y1="875.2" y2="875.2" /><line stroke="#666666" stroke-width="1.0" x1="163.0" x2="169.0" y1="875.2" y2="875.2" /><text fill="#666666" font-size="8.2" x="162.0" y="329.2">1820</text><text fill="#666666" font-size="8.2" x="162.0" y="547.5999999999999">1820</text><text fill="#666666" font-size="8.2" x="162.0" y="766.0">1820</text><line stroke="#7a7a7a" stroke-width="1.0" x1="184.0" x2="184.0" y1="220.0" y2="875.2" /><line stroke="#7a7a7a" stroke-width="0.8" x1="220.0" x2="184.0" y1="220.0" y2="220.0" /><line stroke="#7a7a7a" stroke-width="1.0" x1="181.0" x2="187.0" y1="220.0" y2="220.0" /><line stroke="#7a7a7a" stroke-width="0.8" x1="220.0" x2="184.0" y1="493.0" y2="493.0" /><line stroke="#7a7a7a" stroke-width="1.0" x1="181.0" x2="187.0" y1="493.0" y2="493.0" /><line stroke="#7a7a7a" stroke-width="0.8" x1="220.0" x2="184.0" y1="602.2" y2="602.2" /><line stroke="#7a7a7a" stroke-width="1.0" x1="181.0" x2="187.0" y1="602.2" y2="602.2" /><line stroke="#7a7a7a" stroke-width="0.8" x1="220.0" x2="184.0" y1="875.2" y2="875.2" /><line stroke="#7a7a7a" stroke-width="1.0" x1="181.0" x2="187.0" y1="875.2" y2="875.2" /><text fill="#7a7a7a" font-size="7.8" x="180.0" y="356.5">2275</text><text fill="#7a7a7a" font-size="7.8" x="180.0" y="547.5999999999999">910</text><text fill="#7a7a7a" font-size="7.8" x="180.0" y="738.6999999999999">2275</text><line stroke="#545454" stroke-width="1.0" x1="1602.4" x2="1602.4" y1="220.0" y2="875.2" /><line stroke="#545454" stroke-width="0.8" x1="1530.4" x2="1602.4" y1="220.0" y2="220.0" /><line stroke="#545454" stroke-width="1.0" x1="1599.4" x2="1605.4" y1="220.0" y2="220.0" /><line stroke="#545454" stroke-width="0.8" x1="1530.4" x2="1602.4" y1="875.2" y2="875.2" /><line stroke="#545454" stroke-width="1.0" x1="1599.4" x2="1605.4" y1="875.2" y2="875.2" /><text fill="#545454" font-size="8.8" x="1607.3999999999999" y="547.5999999999999">5460mm</text><line stroke="#666666" stroke-width="1.0" x1="1584.4" x2="1584.4" y1="220.0" y2="875.2" /><line stroke="#666666" stroke-width="0.8" x1="1530.4" x2="1584.4" y1="220.0" y2="220.0" /><line stroke="#666666" stroke-width="1.0" x1="1581.4" x2="1587.4" y1="220.0" y2="220.0" /><line stroke="#666666" stroke-width="0.8" x1="1530.4" x2="1584.4" y1="493.0" y2="493.0" /><line stroke="#666666" stroke-width="1.0" x1="1581.4" x2="1587.4" y1="493.0" y2="493.0" /><line stroke="#666666" stroke-width="0.8" x1="1530.4" x2="1584.4" y1="875.2" y2="875.2" /><line stroke="#666666" stroke-width="1.0" x1="1581.4" x2="1587.4" y1="875.2" y2="875.2" /><text fill="#666666" font-size="8.2" x="1589.3999999999999" y="356.5">2275</text><text fill="#666666" font-size="8.2" x="1589.3999999999999" y="684.0999999999999">3185</text><line stroke="#7a7a7a" stroke-width="1.0" x1="1566.4" x2="1566.4" y1="220.0" y2="875.2" /><line stroke="#7a7a7a" stroke-width="0.8" x1="1530.4" x2="1566.4" y1="220.0" y2="220.0" /><line stroke="#7a7a7a" stroke-width="1.0" x1="1563.4" x2="1569.4" y1="220.0" y2="220.0" /><line stroke="#7a7a7a" stroke-width="0.8" x1="1530.4" x2="1566.4" y1="602.2" y2="602.2" /><line stroke="#7a7a7a" stroke-width="1.0" x1="1563.4" x2="1569.4" y1="602.2" y2="602.2" /><line stroke="#7a7a7a" stroke-width="0.8" x1="1530.4" x2="1566.4" y1="766.0" y2="766.0" /><line stroke="#7a7a7a" stroke-width="1.0" x1="1563.4" x2="1569.4" y1="766.0" y2="766.0" /><line stroke="#7a7a7a" stroke-width="0.8" x1="1530.4" x2="1566.4" y1="875.2" y2="875.2" /><line stroke="#7a7a7a" stroke-width="1.0" x1="1563.4" x2="1569.4" y1="875.2" y2="875.2" /><text fill="#7a7a7a" font-size="7.8" x="1571.3999999999999" y="411.1">3185</text><text fill="#7a7a7a" font-size="7.8" x="1571.3999999999999" y="684.0999999999999">1365</text><text fill="#7a7a7a" font-size="7.8" x="1571.3999999999999" y="820.6">910</text></svg>