<?xml version="1.0" encoding="utf-8" ?>
<svg baseProfile="tiny" height="1095.1999999999998px" version="1.2" width="1750.3999999999999px" xmlns="http://www.w3.org/2000/svg" xmlns:ev="http://www.w3.org/2001/xml-events" xmlns:xlink="http://www.w3.org/1999/xlink"><defs /><rect fill="#fafafa" height="1095.2" width="1750.4" x="0" y="0" /><line stroke="#ececec" stroke-width="0.7" x1="220.0" x2="220.0" y1="220.0" y2="875.2" /><line stroke="#ececec" stroke-width="0.7" x1="274.6" x2="274.6" y1="220.0" y2="875.2" /><line stroke="#ececec" stroke-width="0.7" x1="329.2" x2="329.2" y1="220.0" y2="875.2" /><line stroke="#ececec" stroke-width="0.7" x1="383.8" x2="383.8" y1="220.0" y2="875.2" /><line stroke="#ececec" stroke-width="0.7" x1="438.4" x2="438.4" y1="220.0" y2="875.2" /><line stroke="#ececec" stroke-width="0.7" x1="493.0" x2="493.0" y1="220.0" y2="875.2" /><line stroke="#ececec" stroke-width="0.7" x1="547.6" x2="547.6" y1="220.0" y2="875.2" /><line stroke="#ececec" stroke-width="0.7" x1="602.2" x2="602.2" y1="220.0" y2="875.2" /><line stroke="#ececec" stroke-width="0.7" x1="656.8" x2="656.8" y1="220.0" y2="875.2" /><line stroke="#ececec" stroke-width="0.7" x1="711.4" x2="711.4" y1="220.0" y2="875.2" /><line stroke="#ececec" stroke-width="0.7" x1="766.0" x2="766.0" y1="220.0" y2="875.2" /><line stroke="#ececec" stroke-width="0.7" x1="820.6" x2="820.6" y1="220.0" y2="875.2" /><line stroke="#ececec" stroke-width="0.7" x1="875.2" x2="875.2" y1="220.0" y2="875.2" /><line stroke="#ececec" stroke-width="0.7" x1="929.8" x2="929.8" y1="220.0" y2="875.2" /><line stroke="#ececec" stroke-width="0.7" x1="984.4" x2="984.4" y1="220.0" y2="875.2" /><line stroke="#ececec" stroke-width="0.7" x1="1039.0" x2="1039.0" y1="220.0" y2="875.2" /><line stroke="#ececec" stroke-width="0.7" x1="1093.6" x2="1093.6" y1="220.0" y2="875.2" /><line stroke="#ececec" stroke-width="0.7" x1="1148.2" x2="1148.2" y1="220.0" y2="875.2" /><line stroke="#ececec" stroke-width="0.7" x1="1202.8" x2="1202.8" y1="220.0" y2="875.2" /><line stroke="#ececec" stroke-width="0.7" x1="1257.4" x2="1257.4" y1="220.0" y2="875.2" /><line stroke="#ececec" stroke-width="0.7" x1="1312.0" x2="1312.0" y1="220.0" y2="875.2" /><line stroke="#ececec" stroke-width="0.7" x1="1366.6" x2="1366.6" y1="220.0" y2="875.2" /><line stroke="#ececec" stroke-width="0.7" x1="1421.2" x2="1421.2" y1="220.0" y2="875.2" /><line stroke="#ececec" stroke-width="0.7" x1="1475.8" x2="1475.8" y1="220.0" y2="875.2" /><line stroke="#ececec" stroke-width="0.7" x1="1530.4" x2="1530.4" y1="220.0" y2="875.2" /><line stroke="#d1d1d1" stroke-width="1.1" x1="220.0" x2="220.0" y1="220.0" y2="875.2" /><line stroke="#d1d1d1" stroke-width="1.1" x1="329.2" x2="329.2" y1="220.0" y2="875.2" /><line stroke="#d1d1d1" stroke-width="1.1" x1="438.4" x2="438.4" y1="220.0" y2="875.2" /><line stroke="#d1d1d1" stroke-width="1.1" x1="547.6" x2="547.6" y1="220.0" y2="875.2" /><line stroke="#d1d1d1" stroke-width="1.1" x1="656.8" x2="656.8" y1="220.0" y2="875.2" /><line stroke="#d1d1d1" stroke-width="1.1" x1="766.0" x2="766.0" y1="220.0" y2="875.2" /><line stroke="#d1d1d1" stroke-width="1.1" x1="875.2" x2="875.2" y1="220.0" y2="875.2" /><line stroke="#d1d1d1" stroke-width="1.1" x1="984.4" x2="984.4" y1="220.0" y2="875.2" /><line stroke="#d1d1d1" stroke-width="1.1" x1="1093.6" x2="1093.6" y1="220.0" y2="875.2" /><line stroke="#d1d1d1" stroke-width="1.1" x1="1202.8" x2="1202.8" y1="220.0" y2="875.2" /><line stroke="#d1d1d1" stroke-width="1.1" x1="1312.0" x2="1312.0" y1="220.0" y2="875.2" /><line stroke="#d1d1d1" stroke-width="1.1" x1="1421.2" x2="1421.2" y1="220.0" y2="875.2" /><line stroke="#d1d1d1" stroke-width="1.1" x1="1530.4" x2="1530.4" y1="220.0" y2="875.2" /><line stroke="#d1d1d1" stroke-width="1.1" x1="220.0" x2="1530.4" y1="220.0" y2="220.0" /><line stroke="#d1d1d1" stroke-width="1.1" x1="220.0" x2="1530.4" y1="329.2" y2="329.2" /><line stroke="#d1d1d1" stroke-width="1.1" x1="220.0" x2="1530.4" y1="438.4" y2="438.4" /><line stroke="#d1d1d1" stroke-width="1.1" x1="220.0" x2="1530.4" y1="547.6" y2="547.6" /><line stroke="#d1d1d1" stroke-width="1.1" x1="220.0" x2="1530.4" y1="656.8" y2="656.8" /><line stroke="#d1d1d1" stroke-width="1.1" x1="220.0" x2="1530.4" y1="766.0" y2="766.0" /><line stroke="#d1d1d1" stroke-width="1.1" x1="220.0" x2="1530.4" y1="875.2" y2="875.2" /><line stroke="#ececec" stroke-width="0.7" x1="220.0" x2="1530.4" y1="220.0" y2="220.0" /><line stroke="#ececec" stroke-width="0.7" x1="220.0" x2="1530.4" y1="274.6" y2="274.6" /><line stroke="#ececec" stroke-width="0.7" x1="220.0" x2="1530.4" y1="329.2" y2="329.2" /><line stroke="#ececec" stroke-width="0.7" x1="220.0" x2="1530.4" y1="383.8" y2="383.8" /><line stroke="#ececec" stroke-width="0.7" x1="220.0" x2="1530.4" y1="438.4" y2="438.4" /><line stroke="#ececec" stroke-width="0.7" x1="220.0" x2="1530.4" y1="493.0" y2="493.0" /><line stroke="#ececec" stroke-width="0.7" x1="220.0" x2="1530.4" y1="547.6" y2="547.6" /><line stroke="#ececec" stroke-width="0.7" x1="220.0" x2="1530.4" y1="602.2" y2="602.2" /><line stroke="#ececec" stroke-width="0.7" x1="220.0" x2="1530.4" y1="656.8" y2="656.8" /><line stroke="#ececec" stroke-width="0.7" x1="220.0" x2="1530.4" y1="711.4" y2="711.4" /><line stroke="#ececec" stroke-width="0.7" x1="220.0" x2="1530.4" y1="766.0" y2="766.0" /><line stroke="#ececec" stroke-width="0.7" x1="220.0" x2="1530.4" y1="820.6" y2="820.6" /><line stroke="#ececec" stroke-width="0.7" x1="220.0" x2="1530.4" y1="875.2" y2="875.2" /><rect fill="none" height="655.2" stroke="#6a6a6a" stroke-dasharray="8,4" stroke-width="2" width="1310.4" x="220.0" y="220.0" /><rect fill="none" height="655.2" stroke="#1f1f1f" stroke-width="3.5" width="1310.4" x="220.0" y="220.0" /><text fill="#555555" font-size="10" x="222.0" y="160.0">Site Envelope = Building Footprint</text><rect fill="#d9f2ff" height="327.6" stroke="none" width="491.4" x="220.0" y="220.0" /><line stroke="#2f2f2f" stroke-width="2.2" x1="220.0" x2="711.4" y1="547.6" y2="547.6" /><line stroke="#2f2f2f" stroke-width="2.2" x1="220.0" x2="711.4" y1="220.0" y2="220.0" /><line stroke="#2f2f2f" stroke-width="2.2" x1="220.0" x2="220.0" y1="220.0" y2="547.6" /><line stroke="#2f2f2f" stroke-width="2.2" x1="711.4" x2="711.4" y1="220.0" y2="547.6" /><rect fill="#d9f2ff" height="327.6" stroke="none" width="491.4" x="220.0" y="547.6" /><line stroke="#2f2f2f" stroke-width="2.2" x1="220.0" x2="711.4" y1="547.6" y2="547.6" /><line stroke="#2f2f2f" stroke-width="2.2" x1="220.0" x2="711.4" y1="875.2" y2="875.2" /><line stroke="#2f2f2f" stroke-width="2.2" x1="220.0" x2="220.0" y1="547.6" y2="875.2" /><line stroke="#2f2f2f" stroke-width="2.2" x1="711.4" x2="711.4" y1="547.6" y2="875.2" /><rect fill="#d9f2ff" height="327.6" stroke="none" width="436.8" x="1093.6" y="220.0" /><line stroke="#2f2f2f" stroke-width="2.2" x1="1093.6" x2="1530.4" y1="547.6" y2="547.6" /><line stroke="#2f2f2f" stroke-width="2.2" x1="1093.6" x2="1530.4" y1="220.0" y2="220.0" /><line stroke="#2f2f2f" stroke-width="2.2" x1="1093.6" x2="1093.6" y1="220.0" y2="547.6" /><line stroke="#2f2f2f" stroke-width="2.2" x1="1530.4" x2="1530.4" y1="220.0" y2="547.6" /><rect fill="#efe9ff" height="327.6" stroke="none" width="109.2" x="984.4" y="220.0" /><rect fill="#efe9ff" height="163.8" stroke="none" width="109.2" x="875.2" y="493.0" /><rect fill="#efe9ff" height="327.6" stroke="none" width="163.8" x="711.4" y="329.2" /><line stroke="#2f2f2f" stroke-width="2.2" x1="711.4" x2="875.2" y1="329.2" y2="329.2" /><line stroke="#2f2f2f" stroke-width="2.2" x1="875.2" x2="984.4" y1="493.0" y2="493.0" /><line stroke="#2f2f2f" stroke-width="2.2" x1="711.4" x2="984.4" y1="656.8" y2="656.8" /><line stroke="#2f2f2f" stroke-width="2.2" x1="984.4" x2="1093.6" y1="220.0" y2="220.0" /><line stroke="#2f2f2f" stroke-width="2.2" x1="984.4" x2="1093.6" y1="547.6" y2="547.6" /><line stroke="#2f2f2f" stroke-width="2.2" x1="984.4" x2="984.4" y1="220.0" y2="493.0" /><line stroke="#2f2f2f" stroke-width="2.2" x1="984.4" x2="984.4" y1="547.6" y2="656.8" /><line stroke="#2f2f2f" stroke-width="2.2" x1="875.2" x2="875.2" y1="329.2" y2="493.0" /><line stroke="#2f2f2f" stroke-width="2.2" x1="1093.6" x2="1093.6" y1="220.0" y2="547.6" /><line stroke="#2f2f2f" stroke-width="2.2" x1="711.4" x2="711.4" y1="329.2" y2="656.8" /><rect fill="#c5e8ff" height="327.6" stroke="none" width="546.0" x="984.4" y="547.6" /><line stroke="#2f2f2f" stroke-width="2.2" x1="984.4" x2="1530.4" y1="875.2" y2="875.2" /><line stroke="#2f2f2f" stroke-width="2.2" x1="984.4" x2="1530.4" y1="547.6" y2="547.6" /><line stroke="#2f2f2f" stroke-width="2.2" x1="984.4" x2="984.4" y1="547.6" y2="875.2" /><line stroke="#2f2f2f" stroke-width="2.2" x1="1530.4" x2="1530.4" y1="547.6" y2="875.2" /><rect fill="#ece7dd" height="218.4" stroke="none" width="273.0" x="711.4" y="656.8" /><line stroke="#2f2f2f" stroke-width="2.2" x1="711.4" x2="984.4" y1="656.8" y2="656.8" /><line stroke="#2f2f2f" stroke-width="2.2" x1="711.4" x2="984.4" y1="875.2" y2="875.2" /><line stroke="#2f2f2f" stroke-width="2.2" x1="984.4" x2="984.4" y1="656.8" y2="875.2" /><line stroke="#2f2f2f" stroke-width="2.2" x1="711.4" x2="711.4" y1="656.8" y2="875.2" /><rect fill="#f7f3ea" fill-opacity="0.35" height="109.2" stroke="#9a9a9a" stroke-dasharray="4,3" stroke-width="0.9" width="218.4" x="220.0" y="438.4" /><line stroke="#9c9c9c" stroke-opacity="0.7" stroke-width="0.8" x1="220.0" x2="239.2" y1="528.4" y2="547.6" /><line stroke="#9c9c9c" stroke-opacity="0.7" stroke-width="0.8" x1="220.0" x2="258.4" y1="509.2" y2="547.6" /><line stroke="#9c9c9c" stroke-opacity="0.7" stroke-width="0.8" x1="220.0" x2="277.6" y1="490.0" y2="547.6" /><line stroke="#9c9c9c" stroke-opacity="0.7" stroke-width="0.8" x1="220.0" x2="296.8" y1="470.8" y2="547.6" /><line stroke="#9c9c9c" stroke-opacity="0.7" stroke-width="0.8" x1="220.0" x2="316.0" y1="451.6" y2="547.6" /><line stroke="#9c9c9c" stroke-opacity="0.7" stroke-width="0.8" x1="226.0" x2="335.2" y1="438.4" y2="547.6" /><line stroke="#9c9c9c" stroke-opacity="0.7" stroke-width="0.8" x1="245.2" x2="354.4" y1="438.4" y2="547.6" /><line stroke="#9c9c9c" stroke-opacity="0.7" stroke-width="0.8" x1="264.4" x2="373.6" y1="438.4" y2="547.6" /><line stroke="#9c9c9c" stroke-opacity="0.7" stroke-width="0.8" x1="283.6" x2="392.8" y1="438.4" y2="547.6" /><line stroke="#9c9c9c" stroke-opacity="0.7" stroke-width="0.8" x1="302.8" x2="412.0" y1="438.4" y2="547.6" /><line stroke="#9c9c9c" stroke-opacity="0.7" stroke-width="0.8" x1="322.0" x2="431.2" y1="438.4" y2="547.6" /><line stroke="#9c9c9c" stroke-opacity="0.7" stroke-width="0.8" x1="341.2" x2="438.4" y1="438.4" y2="535.6" /><line stroke="#9c9c9c" stroke-opacity="0.7" stroke-width="0.8" x1="360.4" x2="438.4" y1="438.4" y2="516.4" /><line stroke="#9c9c9c" stroke-opacity="0.7" stroke-width="0.8" x1="379.6" x2="438.4" y1="438.4" y2="497.2" /><line stroke="#9c9c9c" stroke-opacity="0.7" stroke-width="0.8" x1="398.8" x2="438.4" y1="438.4" y2="478.0" /><line stroke="#9c9c9c" stroke-opacity="0.7" stroke-width="0.8" x1="418.0" x2="438.4" y1="438.4" y2="458.8" /><line stroke="#9c9c9c" stroke-opacity="0.7" stroke-width="0.8" x1="437.2" x2="438.4" y1="438.4" y2="439.6" /><rect fill="#f7f3ea" fill-opacity="0.35" height="109.2" stroke="#9a9a9a" stroke-dasharray="4,3" stroke-width="0.9" width="218.4" x="220.0" y="547.6" /><line stroke="#9c9c9c" stroke-opacity="0.7" stroke-width="0.8" x1="220.0" x2="239.2" y1="637.6" y2="656.8" /><line stroke="#9c9c9c" stroke-opacity="0.7" stroke-width="0.8" x1="220.0" x2="258.4" y1="618.4" y2="656.8" /><line stroke="#9c9c9c" stroke-opacity="0.7" stroke-width="0.8" x1="220.0" x2="277.6" y1="599.2" y2="656.8" /><line stroke="#9c9c9c" stroke-opacity="0.7" stroke-width="0.8" x1="220.0" x2="296.8" y1="580.0" y2="656.8" /><line stroke="#9c9c9c" stroke-opacity="0.7" stroke-width="0.8" x1="220.0" x2="316.0" y1="560.8" y2="656.8" /><line stroke="#9c9c9c" stroke-opacity="0.7" stroke-width="0.8" x1="226.0" x2="335.2" y1="547.6" y2="656.8" /><line stroke="#9c9c9c" stroke-opacity="0.7" stroke-width="0.8" x1="245.2" x2="354.4" y1="547.6" y2="656.8" /><line stroke="#9c9c9c" stroke-opacity="0.7" stroke-width="0.8" x1="264.4" x2="373.6" y1="547.6" y2="656.8" /><line stroke="#9c9c9c" stroke-opacity="0.7" stroke-width="0.8" x1="283.6" x2="392.8" y1="547.6" y2="656.8" /><line stroke="#9c9c9c" stroke-opacity="0.7" stroke-width="0.8" x1="302.8" x2="412.0" y1="547.6" y2="656.8" /><line stroke="#9c9c9c" stroke-opacity="0.7" stroke-width="0.8" x1="322.0" x2="431.2" y1="547.6" y2="656.8" /><line stroke="#9c9c9c" stroke-opacity="0.7" stroke-width="0.8" x1="341.2" x2="438.4" y1="547.6" y2="644.8" /><line stroke="#9c9c9c" stroke-opacity="0.7" stroke-width="0.8" x1="360.4" x2="438.4" y1="547.6" y2="625.6" /><line stroke="#9c9c9c" stroke-opacity="0.7" stroke-width="0.8" x1="379.6" x2="438.4" y1="547.6" y2="606.4" /><line stroke="#9c9c9c" stroke-opacity="0.7" stroke-width="0.8" x1="398.8" x2="438.4" y1="547.6" y2="587.2" /><line stroke="#9c9c9c" stroke-opacity="0.7" stroke-width="0.8" x1="418.0" x2="438.4" y1="547.6" y2="568.0" /><line stroke="#9c9c9c" stroke-opacity="0.7" stroke-width="0.8" x1="437.2" x2="438.4" y1="547.6" y2="548.8" /><rect fill="#f7f3ea" fill-opacity="0.35" height="109.2" stroke="#9a9a9a" stroke-dasharray="4,3" stroke-width="0.9" width="436.8" x="1093.6" y="438.4" /><line stroke="#9c9c9c" stroke-opacity="0.7" stroke-width="0.8" x1="1093.6" x2="1112.8" y1="528.4" y2="547.6" /><line stroke="#9c9c9c" stroke-opacity="0.7" stroke-width="0.8" x1="1093.6" x2="1132.0" y1="509.2" y2="547.6" /><line stroke="#9c9c9c" stroke-opacity="0.7" stroke-width="0.8" x1="1093.6" x2="1151.2" y1="490.0" y2="547.6" /><line stroke="#9c9c9c" stroke-opacity="0.7" stroke-width="0.8" x1="1093.6" x2="1170.4" y1="470.8" y2="547.6" /><line stroke="#9c9c9c" stroke-opacity="0.7" stroke-width="0.8" x1="1093.6" x2="1189.6" y1="451.6" y2="547.6" /><line stroke="#9c9c9c" stroke-opacity="0.7" stroke-width="0.8" x1="1099.6" x2="1208.8" y1="438.4" y2="547.6" /><line stroke="#9c9c9c" stroke-opacity="0.7" stroke-width="0.8" x1="1118.8" x2="1228.0" y1="438.4" y2="547.6" /><line stroke="#9c9c9c" stroke-opacity="0.7" stroke-width="0.8" x1="1138.0" x2="1247.2" y1="438.4" y2="547.6" /><line stroke="#9c9c9c" stroke-opacity="0.7" stroke-width="0.8" x1="1157.2" x2="1266.4" y1="438.4" y2="547.6" /><line stroke="#9c9c9c" stroke-opacity="0.7" stroke-width="0.8" x1="1176.4" x2="1285.6" y1="438.4" y2="547.6" /><line stroke="#9c9c9c" stroke-opacity="0.7" stroke-width="0.8" x1="1195.6" x2="1304.8" y1="438.4" y2="547.6" /><line stroke="#9c9c9c" stroke-opacity="0.7" stroke-width="0.8" x1="1214.8" x2="1324.0" y1="438.4" y2="547.6" /><line stroke="#9c9c9c" stroke-opacity="0.7" stroke-width="0.8" x1="1234.0" x2="1343.2" y1="438.4" y2="547.6" /><line stroke="#9c9c9c" stroke-opacity="0.7" stroke-width="0.8" x1="1253.2" x2="1362.4" y1="438.4" y2="547.6" /><line stroke="#9c9c9c" stroke-opacity="0.7" stroke-width="0.8" x1="1272.4" x2="1381.6" y1="438.4" y2="547.6" /><line stroke="#9c9c9c" stroke-opacity="0.7" stroke-width="0.8" x1="1291.6" x2="1400.8" y1="438.4" y2="547.6" /><line stroke="#9c9c9c" stroke-opacity="0.7" stroke-width="0.8" x1="1310.8" x2="1420.0" y1="438.4" y2="547.6" /><line stroke="#9c9c9c" stroke-opacity="0.7" stroke-width="0.8" x1="1330.0" x2="1439.2" y1="438.4" y2="547.6" /><line stroke="#9c9c9c" stroke-opacity="0.7" stroke-width="0.8" x1="1349.2" x2="1458.4" y1="438.4" y2="547.6" /><line stroke="#9c9c9c" stroke-opacity="0.7" stroke-width="0.8" x1="1368.4" x2="1477.6" y1="438.4" y2="547.6" /><line stroke="#9c9c9c" stroke-opacity="0.7" stroke-width="0.8" x1="1387.6" x2="1496.8" y1="438.4" y2="547.6" /><line stroke="#9c9c9c" stroke-opacity="0.7" stroke-width="0.8" x1="1406.8" x2="1516.0" y1="438.4" y2="547.6" /><line stroke="#9c9c9c" stroke-opacity="0.7" stroke-width="0.8" x1="1426.0" x2="1530.4" y1="438.4" y2="542.8" /><line stroke="#9c9c9c" stroke-opacity="0.7" stroke-width="0.8" x1="1445.2" x2="1530.4" y1="438.4" y2="523.6" /><line stroke="#9c9c9c" stroke-opacity="0.7" stroke-width="0.8" x1="1464.4" x2="1530.4" y1="438.4" y2="504.4" /><line stroke="#9c9c9c" stroke-opacity="0.7" stroke-width="0.8" x1="1483.6" x2="1530.4" y1="438.4" y2="485.2" /><line stroke="#9c9c9c" stroke-opacity="0.7" stroke-width="0.8" x1="1502.8" x2="1530.4" y1="438.4" y2="466.0" /><line stroke="#9c9c9c" stroke-opacity="0.7" stroke-width="0.8" x1="1522.0" x2="1530.4" y1="438.4" y2="446.8" /><rect fill="none" height="111.384" stroke="#7f7f7f" stroke-width="1.1" width="218.4" x="1148.2" y="606.568" /><line stroke="#7f7f7f" stroke-width="0.9" x1="1148.2" x2="1366.6" y1="645.5524" y2="645.5524" /><rect fill="none" height="111.384" stroke="#7f7f7f" stroke-width="1.1" width="218.4" x="356.5" y="278.968" /><line stroke="#7f7f7f" stroke-width="0.9" x1="356.5" x2="574.9" y1="317.9524" y2="317.9524" /><rect fill="none" height="111.384" stroke="#7f7f7f" stroke-width="1.1" width="218.4" x="356.5" y="606.568" /><line stroke="#7f7f7f" stroke-width="0.9" x1="356.5" x2="574.9" y1="645.5524" y2="645.5524" /><rect fill="none" height="111.384" stroke="#7f7f7f" stroke-width="1.1" width="218.4" x="1202.8" y="278.968" /><line stroke="#7f7f7f" stroke-width="0.9" x1="1202.8" x2="1421.2" y1="317.9524" y2="317.9524" /><line stroke="#9a9a9a" stroke-width="0.9" x1="744.16" x2="951.64" y1="696.112" y2="696.112" /><line stroke="#9a9a9a" stroke-width="0.9" x1="744.16" x2="951.64" y1="835.888" y2="835.888" /><line stroke="#9a9a9a" stroke-dasharray="5,3" stroke-width="0.7" x1="744.16" x2="951.64" y1="766.0" y2="766.0" /><rect fill="#f4f4f4" height="109.2" stroke="#202020" stroke-dasharray="4,3" stroke-width="2.6" width="163.8" x="711.4" y="220.0" /><line stroke="#b8b8b8" stroke-width="0.9" x1="716.8" x2="869.8" y1="229.6" y2="229.6" /><line stroke="#b8b8b8" stroke-width="0.9" x1="716.8" x2="869.8" y1="248.8" y2="248.8" /><line stroke="#b8b8b8" stroke-width="0.9" x1="716.8" x2="869.8" y1="268.0" y2="268.0" /><line stroke="#b8b8b8" stroke-width="0.9" x1="716.8" x2="869.8" y1="287.2" y2="287.2" /><line stroke="#b8b8b8" stroke-width="0.9" x1="716.8" x2="869.8" y1="306.4" y2="306.4" /><line stroke="#b8b8b8" stroke-width="0.9" x1="716.8" x2="869.8" y1="325.6" y2="325.6" /><rect fill="#f4f4f4" height="109.2" stroke="#202020" stroke-dasharray="4,3" stroke-width="2.6" width="109.2" x="875.2" y="220.0" /><line stroke="#b8b8b8" stroke-width="0.9" x1="880.6" x2="979.0" y1="229.6" y2="229.6" /><line stroke="#b8b8b8" stroke-width="0.9" x1="880.6" x2="979.0" y1="248.8" y2="248.8" /><line stroke="#b8b8b8" stroke-width="0.9" x1="880.6" x2="979.0" y1="268.0" y2="268.0" /><line stroke="#b8b8b8" stroke-width="0.9" x1="880.6" x2="979.0" y1="287.2" y2="287.2" /><line stroke="#b8b8b8" stroke-width="0.9" x1="880.6" x2="979.0" y1="306.4" y2="306.4" /><line stroke="#b8b8b8" stroke-width="0.9" x1="880.6" x2="979.0" y1="325.6" y2="325.6" /><rect fill="#ffffff" height="163.8" stroke="#202020" stroke-dasharray="8,4" stroke-width="2.6" width="109.2" x="875.2" y="329.2" /><text fill="#555555" font-size="9" text-anchor="middle" x="847.9" y="274.6">Open To Below</text><rect fill="none" height="109.2" stroke="#7e7e7e" stroke-dasharray="3,2" stroke-width="2.0" width="273.0" x="711.4" y="220.0" /><text fill="#666666" font-size="8.5" text-anchor="middle" x="847.9" y="234.4">Guardrail</text><line stroke="#2a2a2a" stroke-width="1.4" x1="875.2" x2="984.4" y1="352.6" y2="352.6" /><line stroke="#2a2a2a" stroke-width="1.4" x1="875.2" x2="984.4" y1="376.0" y2="376.0" /><line stroke="#2a2a2a" stroke-width="1.4" x1="875.2" x2="984.4" y1="399.4" y2="399.4" /><line stroke="#2a2a2a" stroke-width="1.4" x1="875.2" x2="984.4" y1="422.8" y2="422.8" /><line stroke="#2a2a2a" stroke-width="1.4" x1="875.2" x2="984.4" y1="446.2" y2="446.2" /><line stroke="#2a2a2a" stroke-width="1.4" x1="875.2" x2="984.4" y1="469.6" y2="469.6" /><text fill="#202020" font-size="11" text-anchor="middle" x="929.8" y="411.1">Stair (DN)</text><text fill="#3a3a3a" font-size="9.0" text-anchor="middle" x="929.8" y="425.5">13R/12T</text><text fill="#4a4a4a" font-size="7.8" text-anchor="middle" x="929.8" y="433.9">H2730 R210 T228</text><line stroke="#ffffff" stroke-width="7" x1="875.2" x2="984.4" y1="493.0" y2="493.0" /><line stroke="#5e5e5e" stroke-width="1.0" x1="875.2" x2="984.4" y1="493.0" y2="493.0" /><line stroke="#ffffff" stroke-width="6" x1="993.4" x2="1084.6" y1="547.6" y2="547.6" /><line stroke="#595959" stroke-width="1.2" x1="993.4" x2="1052.68" y1="547.6" y2="488.32" /><path d="M 1052.6799999999998,547.5999999999999 A 59.28,59.28 0 0 1 1052.6799999999998,488.32" fill="none" stroke="#7a7a7a" stroke-width="1.0" /><line stroke="#ffffff" stroke-width="6" x1="711.4" x2="711.4" y1="389.26" y2="487.54" /><line stroke="#595959" stroke-width="1.2" x1="711.4" x2="775.282" y1="389.26" y2="453.142" /><path d="M 711.4,453.14199999999994 A 63.882,63.882 0 0 1 775.282,453.14199999999994" fill="none" stroke="#7a7a7a" stroke-width="1.0" /><line stroke="#ffffff" stroke-width="6" x1="711.4" x2="711.4" y1="556.6" y2="647.8" /><line stroke="#595959" stroke-width="1.2" x1="711.4" x2="652.12" y1="556.6" y2="615.88" /><path d="M 711.4,615.88 A 59.28,59.28 0 0 1 652.12,615.88" fill="none" stroke="#7a7a7a" stroke-width="1.0" /><line stroke="#ffffff" stroke-width="6" x1="1093.6" x2="1093.6" y1="325.0" y2="442.6" /><line stroke="#595959" stroke-width="1.2" x1="1093.6" x2="1170.04" y1="325.0" y2="401.44" /><path d="M 1093.6,401.44 A 76.44,76.44 0 0 1 1170.04,401.44" fill="none" stroke="#7a7a7a" stroke-width="1.0" /><line stroke="#ffffff" stroke-width="6" x1="984.4" x2="984.4" y1="716.86" y2="815.14" /><line stroke="#595959" stroke-width="1.2" x1="984.4" x2="920.518" y1="716.86" y2="780.742" /><path d="M 984.4,780.7420000000001 A 63.882,63.882 0 0 1 920.5179999999999,780.7420000000001" fill="none" stroke="#7a7a7a" stroke-width="1.0" /><line stroke="#66a7ff" stroke-width="2.2" x1="1527.76" x2="1527.76" y1="655.72" y2="767.08" /><line stroke="#66a7ff" stroke-width="2.2" x1="1533.04" x2="1533.04" y1="655.72" y2="767.08" /><line stroke="#66a7ff" stroke-width="2.2" x1="1044.46" x2="1230.1" y1="872.56" y2="872.56" /><line stroke="#66a7ff" stroke-width="2.2" x1="1044.46" x2="1230.1" y1="877.84" y2="877.84" /><line stroke="#66a7ff" stroke-width="2.2" x1="1284.7" x2="1470.34" y1="872.56" y2="872.56" /><line stroke="#66a7ff" stroke-width="2.2" x1="1284.7" x2="1470.34" y1="877.84" y2="877.84" /><line stroke="#66a7ff" stroke-width="2.2" x1="217.36" x2="217.36" y1="328.12" y2="439.48" /><line stroke="#66a7ff" stroke-width="2.2" x1="222.64" x2="222.64" y1="328.12" y2="439.48" /><line stroke="#66a7ff" stroke-width="2.2" x1="274.072" x2="441.112" y1="217.36" y2="217.36" /><line stroke="#66a7ff" stroke-width="2.2" x1="274.072" x2="441.112" y1="222.64" y2="222.64" /><line stroke="#66a7ff" stroke-width="2.2" x1="490.288" x2="657.328" y1="217.36" y2="217.36" /><line stroke="#66a7ff" stroke-width="2.2" x1="490.288" x2="657.328" y1="222.64" y2="222.64" /><line stroke="#66a7ff" stroke-width="2.2" x1="217.36" x2="217.36" y1="655.72" y2="767.08" /><line stroke="#66a7ff" stroke-width="2.2" x1="222.64" x2="222.64" y1="655.72" y2="767.08" /><line stroke="#66a7ff" stroke-width="2.2" x1="274.072" x2="441.112" y1="872.56" y2="872.56" /><line stroke="#66a7ff" stroke-width="2.2" x1="274.072" x2="441.112" y1="877.84" y2="877.84" /><line stroke="#66a7ff" stroke-width="2.2" x1="490.288" x2="657.328" y1="872.56" y2="872.56" /><line stroke="#66a7ff" stroke-width="2.2" x1="490.288" x2="657.328" y1="877.84" y2="877.84" /><line stroke="#66a7ff" stroke-width="2.2" x1="1527.76" x2="1527.76" y1="328.12" y2="439.48" /><line stroke="#66a7ff" stroke-width="2.2" x1="1533.04" x2="1533.04" y1="328.12" y2="439.48" /><line stroke="#66a7ff" stroke-width="2.2" x1="1141.684" x2="1290.124" y1="217.36" y2="217.36" /><line stroke="#66a7ff" stroke-width="2.2" x1="1141.684" x2="1290.124" y1="222.64" y2="222.64" /><line stroke="#66a7ff" stroke-width="2.2" x1="1333.876" x2="1482.316" y1="217.36" y2="217.36" /><line stroke="#66a7ff" stroke-width="2.2" x1="1333.876" x2="1482.316" y1="222.64" y2="222.64" /><line stroke="#9a9a9a" stroke-width="0.8" x1="992.8" x2="1085.2" y1="228.4" y2="228.4" /><line stroke="#9a9a9a" stroke-width="0.8" x1="992.8" x2="992.8" y1="225.04" y2="231.76" /><line stroke="#9a9a9a" stroke-width="0.8" x1="1085.2" x2="1085.2" y1="225.04" y2="231.76" /><text fill="#8a8a8a" font-size="7.6" text-anchor="start" x="999.52" y="225.76">910mm</text><line stroke="#9a9a9a" stroke-width="0.8" x1="992.8" x2="992.8" y1="228.4" y2="539.2" /><line stroke="#9a9a9a" stroke-width="0.8" x1="989.44" x2="996.16" y1="228.4" y2="228.4" /><line stroke="#9a9a9a" stroke-width="0.8" x1="989.44" x2="996.16" y1="539.2" y2="539.2" /><text fill="#8a8a8a" font-size="7.6" text-anchor="start" x="996.88" y="236.07999999999998">2730mm</text><line stroke="#9a9a9a" stroke-width="0.8" x1="883.6" x2="976.0" y1="501.4" y2="501.4" /><line stroke="#9a9a9a" stroke-width="0.8" x1="883.6" x2="883.6" y1="498.04" y2="504.76" /><line stroke="#9a9a9a" stroke-width="0.8" x1="976.0" x2="976.0" y1="498.04" y2="504.76" /><text fill="#8a8a8a" font-size="7.6" text-anchor="start" x="890.3199999999999" y="498.76">910mm</text><line stroke="#9a9a9a" stroke-width="0.8" x1="883.6" x2="883.6" y1="501.4" y2="648.4" /><line stroke="#9a9a9a" stroke-width="0.8" x1="880.24" x2="886.96" y1="501.4" y2="501.4" /><line stroke="#9a9a9a" stroke-width="0.8" x1="880.24" x2="886.96" y1="648.4" y2="648.4" /><text fill="#8a8a8a" font-size="7.6" text-anchor="start" x="887.68" y="509.08">1365mm</text><line stroke="#9a9a9a" stroke-width="0.8" x1="719.8" x2="866.8" y1="337.6" y2="337.6" /><line stroke="#9a9a9a" stroke-width="0.8" x1="719.8" x2="719.8" y1="334.24" y2="340.96" /><line stroke="#9a9a9a" stroke-width="0.8" x1="866.8" x2="866.8" y1="334.24" y2="340.96" /><text fill="#8a8a8a" font-size="7.6" text-anchor="start" x="726.52" y="334.96">1365mm</text><line stroke="#9a9a9a" stroke-width="0.8" x1="719.8" x2="719.8" y1="337.6" y2="648.4" /><line stroke="#9a9a9a" stroke-width="0.8" x1="716.44" x2="723.16" y1="337.6" y2="337.6" /><line stroke="#9a9a9a" stroke-width="0.8" x1="716.44" x2="723.16" y1="648.4" y2="648.4" /><text fill="#8a8a8a" font-size="7.6" text-anchor="start" x="723.88" y="345.28">2730mm</text><text fill="#1b1b1b" font-size="10" text-anchor="middle" x="465.7" y="369.4">Bedroom 2</text><text fill="#1b1b1b" font-size="10" text-anchor="middle" x="465.7" y="380.2">4095x2730mm</text><text fill="#1b1b1b" font-size="10" text-anchor="middle" x="465.7" y="391.0">11.2sqm / 6.9jo</text><text fill="#1b1b1b" font-size="10" text-anchor="middle" x="465.7" y="697.0">Bedroom 3</text><text fill="#1b1b1b" font-size="10" text-anchor="middle" x="465.7" y="707.8">4095x2730mm</text><text fill="#1b1b1b" font-size="10" text-anchor="middle" x="465.7" y="718.5999999999999">11.2sqm / 6.9jo</text><text fill="#1b1b1b" font-size="10" text-anchor="middle" x="1312.0" y="369.4">Bedroom 4</text><text fill="#1b1b1b" font-size="10" text-anchor="middle" x="1312.0" y="380.2">3640x2730mm</text><text fill="#1b1b1b" font-size="10" text-anchor="middle" x="1312.0" y="391.0">9.9sqm / 6.1jo</text><text fill="#1b1b1b" font-size="9" text-anchor="middle" x="897.9499999999999" y="455.84999999999997">Hall 2</text><text fill="#1b1b1b" font-size="9" text-anchor="middle" x="897.9499999999999" y="466.65">7.5sqm / 4.6jo</text><text fill="#1b1b1b" font-size="10" text-anchor="middle" x="1257.3999999999999" y="697.0">Master</text><text fill="#1b1b1b" font-size="10" text-anchor="middle" x="1257.3999999999999" y="707.8">4550x2730mm</text><text fill="#1b1b1b" font-size="10" text-anchor="middle" x="1257.3999999999999" y="718.5999999999999">12.4sqm / 7.7jo</text><text fill="#1b1b1b" font-size="10" text-anchor="middle" x="847.9" y="751.6">W.I.C</text><text fill="#1b1b1b" font-size="10" text-anchor="middle" x="847.9" y="762.4">to master</text><text fill="#1b1b1b" font-size="10" text-anchor="middle" x="847.9" y="773.1999999999999">2275x1820mm</text><text fill="#1b1b1b" font-size="10" text-anchor="middle" x="847.9" y="784.0">4.1sqm / 2.6jo</text><text fill="#4a4a4a" font-size="10" text-anchor="middle" x="329.2" y="493.0">CL</text><text fill="#4a4a4a" font-size="10" text-anchor="middle" x="329.2" y="602.2">CL</text><text fill="#4a4a4a" font-size="10" text-anchor="middle" x="1312.0" y="493.0">CL</text><text fill="#111111" font-size="14" x="220.0" y="180.0">F2 Plan  (10920 x 5460 mm)</text><text fill="#444444" font-size="10" x="220.0" y="198.0">Scale: 1px=8.3mm</text><rect fill="#ffffff" height="144" stroke="#777777" stroke-width="1" width="170" x="1618.4" y="150.0" /><text fill="#111111" font-size="11" x="1626.3999999999999" y="164.0">Legend</text><rect fill="#efe9ff" height="12" stroke="#333333" stroke-width="1" width="12" x="1626.4" y="174.0" /><text fill="#222222" font-size="10" x="1644.3999999999999" y="184.0">Hall</text><rect fill="#c5e8ff" height="12" stroke="#333333" stroke-width="1" width="12" x="1626.4" y="192.0" /><text fill="#222222" font-size="10" x="1644.3999999999999" y="202.0">Master Bedroom</text><rect fill="#d9f2ff" height="12" stroke="#333333" stroke-width="1" width="12" x="1626.4" y="210.0" /><text fill="#222222" font-size="10" x="1644.3999999999999" y="220.0">Bedroom</text><rect fill="#f7f3ea" height="12" stroke="#333333" stroke-width="1" width="12" x="1626.4" y="228.0" /><text fill="#222222" font-size="10" x="1644.3999999999999" y="238.0">Closet</text><rect fill="#ece7dd" height="12" stroke="#333333" stroke-width="1" width="12" x="1626.4" y="246.0" /><text fill="#222222" font-size="10" x="1644.3999999999999" y="256.0">Wic</text><line stroke="#6aa4ff" stroke-width="4" x1="1626.4" x2="1653.4" y1="276.0" y2="276.0" /><text fill="#222222" font-size="10" x="1660.3999999999999" y="279.0">Window</text><line stroke="#666666" stroke-width="2.4" x1="1626.4" x2="1653.4" y1="292.0" y2="292.0" /><path d="M 1626.3999999999999,292.0 A 10,10 0 0 1 1636.3999999999999,282.0" fill="none" stroke="#666666" stroke-width="1.2" /><text fill="#222222" font-size="10" x="1660.3999999999999" y="295.0">Door</text><rect fill="#ffffff" height="84" stroke="#777777" stroke-width="1" width="200" x="1618.4" y="520.0" /><text fill="#111111" font-size="10" x="1626.3999999999999" y="533.0">Area (F2)</text><text fill="#222222" font-size="9" x="1626.3999999999999" y="550.0">F1: in 59.6 sqm (18.0 tsubo), out 0.0 sqm (0.0 tsubo)</text><text fill="#222222" font-size="9" x="1626.3999999999999" y="566.0">F2: in 59.6 sqm (18.0 tsubo), out 0.0 sqm (0.0 tsubo)</text><text fill="#222222" font-size="9" x="1626.3999999999999" y="582.0">Total indoor: 119.2 sqm (36.1 tsubo)</text><text fill="#222222" font-size="9" x="1626.3999999999999" y="598.0">Total outdoor: 0.0 sqm (0.0 tsubo)</text><line stroke="#111111" stroke-width="2" x1="175.0" x2="175.0" y1="238.0" y2="208.0" /><polygon fill="#111111" points="175.0,208.0 181.0,214.0 169.0,214.0" /><text fill="#111111" font-size="12" x="170.0" y="202.0">N</text><line stroke="#545454" stroke-width="1.0" x1="220.0" x2="1530.4" y1="148.0" y2="148.0" /><line stroke="#545454" stroke-width="0.8" x1="220.0" x2="220.0" y1="220.0" y2="148.0" /><line stroke="#545454" stroke-width="1.0" x1="220.0" x2="220.0" y1="145.0" y2="151.0" /><line stroke="#545454" stroke-width="0.8" x1="1530.4" x2="1530.4" y1="220.0" y2="148.0" /><line stroke="#545454" stroke-width="1.0" x1="1530.4" x2="1530.4" y1="145.0" y2="151.0" /><text fill="#545454" font-size="8.8" text-anchor="middle" x="875.1999999999999" y="145.0">10920mm</text><line stroke="#666666" stroke-width="1.0" x1="220.0" x2="1530.4" y1="166.0" y2="166.0" /><line stroke="#666666" stroke-width="0.8" x1="220.0" x2="220.0" y1="220.0" y2="166.0" /><line stroke="#666666" stroke-width="1.0" x1="220.0" x2="220.0" y1="163.0" y2="169.0" /><line stroke="#666666" stroke-width="0.8" x1="711.4" x2="711.4" y1="220.0" y2="166.0" /><line stroke="#666666" stroke-width="1.0" x1="711.4" x2="711.4" y1="163.0" y2="169.0" /><line stroke="#666666" stroke-width="0.8" x1="875.2" x2="875.2" y1="220.0" y2="166.0" /><line stroke="#666666" stroke-width="1.0" x1="875.2" x2="875.2" y1="163.0" y2="169.0" /><line stroke="#666666" stroke-width="0.8" x1="984.4" x2="984.4" y1="220.0" y2="166.0" /><line stroke="#666666" stroke-width="1.0" x1="984.4" x2="984.4" y1="163.0" y2="169.0" /><line stroke="#666666" stroke-width="0.8" x1="1093.6" x2="1093.6" y1="220.0" y2="166.0" /><line stroke="#666666" stroke-width="1.0" x1="1093.6" x2="1093.6" y1="163.0" y2="169.0" /><line stroke="#666666" stroke-width="0.8" x1="1530.4" x2="1530.4" y1="220.0" y2="166.0" /><line stroke="#666666" stroke-width="1.0" x1="1530.4" x2="1530.4" y1="163.0" y2="169.0" /><text fill="#666666" font-size="8.2" text-anchor="middle" x="465.7" y="163.0">4095</text><text fill="#666666" font-size="8.2" text-anchor="middle" x="793.3" y="163.0">1365</text><text fill="#666666" font-size="8.2" text-anchor="middle" x="929.8" y="163.0">910</text><text fill="#666666" font-size="8.2" text-anchor="middle" x="1039.0" y="163.0">910</text><text fill="#666666" font-size="8.2" text-anchor="middle" x="1312.0" y="163.0">3640</text><line stroke="#7a7a7a" stroke-width="1.0" x1="220.0" x2="1530.4" y1="184.0" y2="184.0" /><line stroke="#7a7a7a" stroke-width="0.8" x1="220.0" x2="220.0" y1="220.0" y2="184.0" /><line stroke="#7a7a7a" stroke-width="1.0" x1="220.0" x2="220.0" y1="181.0" y2="187.0" /><line stroke="#7a7a7a" stroke-width="0.8" x1="274.6" x2="274.6" y1="220.0" y2="184.0" /><line stroke="#7a7a7a" stroke-width="1.0" x1="274.6" x2="274.6" y1="181.0" y2="187.0" /><line stroke="#7a7a7a" stroke-width="0.8" x1="438.4" x2="438.4" y1="220.0" y2="184.0" /><line stroke="#7a7a7a" stroke-width="1.0" x1="438.4" x2="438.4" y1="181.0" y2="187.0" /><line stroke="#7a7a7a" stroke-width="0.8" x1="493.0" x2="493.0" y1="220.0" y2="184.0" /><line stroke="#7a7a7a" stroke-width="1.0" x1="493.0" x2="493.0" y1="181.0" y2="187.0" /><line stroke="#7a7a7a" stroke-width="0.8" x1="656.8" x2="656.8" y1="220.0" y2="184.0" /><line stroke="#7a7a7a" stroke-width="1.0" x1="656.8" x2="656.8" y1="181.0" y2="187.0" /><line stroke="#7a7a7a" stroke-width="0.8" x1="1148.2" x2="1148.2" y1="220.0" y2="184.0" /><line stroke="#7a7a7a" stroke-width="1.0" x1="1148.2" x2="1148.2" y1="181.0" y2="187.0" /><line stroke="#7a7a7a" stroke-width="0.8" x1="1312.0" x2="1312.0" y1="220.0" y2="184.0" /><line stroke="#7a7a7a" stroke-width="1.0" x1="1312.0" x2="1312.0" y1="181.0" y2="187.0" /><line stroke="#7a7a7a" stroke-width="0.8" x1="1475.8" x2="1475.8" y1="220.0" y2="184.0" /><line stroke="#7a7a7a" stroke-width="1.0" x1="1475.8" x2="1475.8" y1="181.0" y2="187.0" /><line stroke="#7a7a7a" stroke-width="0.8" x1="1530.4" x2="1530.4" y1="220.0" y2="184.0" /><line stroke="#7a7a7a" stroke-width="1.0" x1="1530.4" x2="1530.4" y1="181.0" y2="187.0" /><text fill="#7a7a7a" font-size="7.8" text-anchor="middle" x="356.5" y="181.0">1365</text><text fill="#7a7a7a" font-size="7.8" text-anchor="middle" x="574.9" y="181.0">1365</text><text fill="#7a7a7a" font-size="7.8" text-anchor="middle" x="902.5" y="181.0">4095</text><text fill="#7a7a7a" font-size="7.8" text-anchor="middle" x="1230.1" y="181.0">1365</text><text fill="#7a7a7a" font-size="7.8" text-anchor="middle" x="1393.8999999999999" y="181.0">1365</text><line stroke="#545454" stroke-width="1.0" x1="220.0" x2="1530.4" y1="947.2" y2="947.2" /><line stroke="#545454" stroke-width="0.8" x1="220.0" x2="220.0" y1="875.2" y2="947.2" /><line stroke="#545454" stroke-width="1.0" x1="220.0" x2="220.0" y1="944.2" y2="950.2" /><line stroke="#545454" stroke-width="0.8" x1="1530.4" x2="1530.4" y1="875.2" y2="947.2" /><line stroke="#545454" stroke-width="1.0" x1="1530.4" x2="1530.4" y1="944.2" y2="950.2" /><text fill="#545454" font-size="8.8" text-anchor="middle" x="875.1999999999999" y="957.1999999999999">10920mm</text><line stroke="#666666" stroke-width="1.0" x1="220.0" x2="1530.4" y1="929.2" y2="929.2" /><line stroke="#666666" stroke-width="0.8" x1="220.0" x2="220.0" y1="875.2" y2="929.2" /><line stroke="#666666" stroke-width="1.0" x1="220.0" x2="220.0" y1="926.2" y2="932.2" /><line stroke="#666666" stroke-width="0.8" x1="711.4" x2="711.4" y1="875.2" y2="929.2" /><line stroke="#666666" stroke-width="1.0" x1="711.4" x2="711.4" y1="926.2" y2="932.2" /><line stroke="#666666" stroke-width="0.8" x1="984.4" x2="984.4" y1="875.2" y2="929.2" /><line stroke="#666666" stroke-width="1.0" x1="984.4" x2="984.4" y1="926.2" y2="932.2" /><line stroke="#666666" stroke-width="0.8" x1="1530.4" x2="1530.4" y1="875.2" y2="929.2" /><line stroke="#666666" stroke-width="1.0" x1="1530.4" x2="1530.4" y1="926.2" y2="932.2" /><text fill="#666666" font-size="8.2" text-anchor="middle" x="465.7" y="939.1999999999999">4095</text><text fill="#666666" font-size="8.2" text-anchor="middle" x="847.9" y="939.1999999999999">2275</text><text fill="#666666" font-size="8.2" text-anchor="middle" x="1257.3999999999999" y="939.1999999999999">4550</text><line stroke="#7a7a7a" stroke-width="1.0" x1="220.0" x2="1530.4" y1="911.2" y2="911.2" /><line stroke="#7a7a7a" stroke-width="0.8" x1="220.0" x2="220.0" y1="875.2" y2="911.2" /><line stroke="#7a7a7a" stroke-width="1.0" x1="220.0" x2="220.0" y1="908.2" y2="914.2" /><line stroke="#7a7a7a" stroke-width="0.8" x1="274.6" x2="274.6" y1="875.2" y2="911.2" /><line stroke="#7a7a7a" stroke-width="1.0" x1="274.6" x2="274.6" y1="908.2" y2="914.2" /><line stroke="#7a7a7a" stroke-width="0.8" x1="438.4" x2="438.4" y1="875.2" y2="911.2" /><line stroke="#7a7a7a" stroke-width="1.0" x1="438.4" x2="438.4" y1="908.2" y2="914.2" /><line stroke="#7a7a7a" stroke-width="0.8" x1="493.0" x2="493.0" y1="875.2" y2="911.2" /><line stroke="#7a7a7a" stroke-width="1.0" x1="493.0" x2="493.0" y1="908.2" y2="914.2" /><line stroke="#7a7a7a" stroke-width="0.8" x1="656.8" x2="656.8" y1="875.2" y2="911.2" /><line stroke="#7a7a7a" stroke-width="1.0" x1="656.8" x2="656.8" y1="908.2" y2="914.2" /><line stroke="#7a7a7a" stroke-width="0.8" x1="1039.0" x2="1039.0" y1="875.2" y2="911.2" /><line stroke="#7a7a7a" stroke-width="1.0" x1="1039.0" x2="1039.0" y1="908.2" y2="914.2" /><line stroke="#7a7a7a" stroke-width="0.8" x1="1257.4" x2="1257.4" y1="875.2" y2="911.2" /><line stroke="#7a7a7a" stroke-width="1.0" x1="1257.4" x2="1257.4" y1="908.2" y2="914.2" /><line stroke="#7a7a7a" stroke-width="0.8" x1="1475.8" x2="1475.8" y1="875.2" y2="911.2" /><line stroke="#7a7a7a" stroke-width="1.0" x1="1475.8" x2="1475.8" y1="908.2" y2="914.2" /><line stroke="#7a7a7a" stroke-width="0.8" x1="1530.4" x2="1530.4" y1="875.2" y2="911.2" /><line stroke="#7a7a7a" stroke-width="1.0" x1="1530.4" x2="1530.4" y1="908.2" y2="914.2" /><text fill="#7a7a7a" font-size="7.8" text-anchor="middle" x="356.5" y="921.1999999999999">1365</text><text fill="#7a7a7a" font-size="7.8" text-anchor="middle" x="574.9" y="921.1999999999999">1365</text><text fill="#7a7a7a" font-size="7.8" text-anchor="middle" x="847.9" y="921.1999999999999">3185</text><text fill="#7a7a7a" font-size="7.8" text-anchor="middle" x="1148.1999999999998" y="921.1999999999999">1820</text><text fill="#7a7a7a" font-size="7.8" text-anchor="middle" x="1366.6" y="921.1999999999999">1820</text><line stroke="#545454" stroke-width="1.0" x1="148.0" x2="148.0" y1="220.0" y2="875.2" /><line stroke="#545454" stroke-width="0.8" x1="220.0" x2="148.0" y1="220.0" y2="220.0" /><line stroke="#545454" stroke-width="1.0" x1="145.0" x2="151.0" y1="220.0" y2="220.0" /><line stroke="#545454" stroke-width="0.8" x1="220.0" x2="148.0" y1="875.2" y2="875.2" /><line stroke="#545454" stroke-width="1.0" x1="145.0" x2="151.0" y1="875.2" y2="875.2" /><text fill="#545454" font-size="8.8" x="144.0" y="547.5999999999999">5460mm</text><line stroke="#666666" stroke-width="1.0" x1="166.0" x2="166.0" y1="220.0" y2="875.2" /><line stroke="#666666" stroke-width="0.8" x1="220.0" x2="166.0" y1="220.0" y2="220.0" /><line stroke="#666666" stroke-width="1.0" x1="163.0" x2="169.0" y1="220.0" y2="220.0" /><line stroke="#666666" stroke-width="0.8" x1="220.0" x2="166.0" y1="547.6" y2="547.6" /><line stroke="#666666" stroke-width="1.0" x1="163.0" x2="169.0" y1="547.6" y2="547.6" /><line stroke="#666666" stroke-width="0.8" x1="220.0" x2="166.0" y1="875.2" y2="875.2" /><line stroke="#666666" stroke-width="1.0" x1="163.0" x2="169.0" y1="875.2" y2="875.2" /><text fill="#666666" font-size="8.2" x="162.0" y="383.79999999999995">2730</text><text fill="#666666" font-size="8.2" x="162.0" y="711.4">2730</text><line stroke="#7a7a7a" stroke-width="1.0" x1="184.0" x2="184.0" y1="220.0" y2="875.2" /><line stroke="#7a7a7a" stroke-width="0.8" x1="220.0" x2="184.0" y1="220.0" y2="220.0" /><line stroke="#7a7a7a" stroke-width="1.0" x1="181.0" x2="187.0" y1="220.0" y2="220.0" /><line stroke="#7a7a7a" stroke-width="0.8" x1="220.0" x2="184.0" y1="329.2" y2="329.2" /><line stroke="#7a7a7a" stroke-width="1.0" x1="181.0" x2="187.0" y1="329.2" y2="329.2" /><line stroke="#7a7a7a" stroke-width="0.8" x1="220.0" x2="184.0" y1="438.4" y2="438.4" /><line stroke="#7a7a7a" stroke-width="1.0" x1="181.0" x2="187.0" y1="438.4" y2="438.4" /><line stroke="#7a7a7a" stroke-width="0.8" x1="220.0" x2="184.0" y1="656.8" y2="656.8" /><line stroke="#7a7a7a" stroke-width="1.0" x1="181.0" x2="187.0" y1="656.8" y2="656.8" /><line stroke="#7a7a7a" stroke-width="0.8" x1="220.0" x2="184.0" y1="766.0" y2="766.0" /><line stroke="#7a7a7a" stroke-width="1.0" x1="181.0" x2="187.0" y1="766.0" y2="766.0" /><line stroke="#7a7a7a" stroke-width="0.8" x1="220.0" x2="184.0" y1="875.2" y2="875.2" /><line stroke="#7a7a7a" stroke-width="1.0" x1="181.0" x2="187.0" y1="875.2" y2="875.2" /><text fill="#7a7a7a" font-size="7.8" x="180.0" y="274.6">910</text><text fill="#7a7a7a" font-size="7.8" x="180.0" y="383.79999999999995">910</text><text fill="#7a7a7a" font-size="7.8" x="180.0" y="547.5999999999999">1820</text><text fill="#7a7a7a" font-size="7.8" x="180.0" y="711.4">910</text><text fill="#7a7a7a" font-size="7.8" x="180.0" y="820.6">910</text><line stroke="#545454" stroke-width="1.0" x1="1602.4" x2="1602.4" y1="220.0" y2="875.2" /><line stroke="#545454" stroke-width="0.8" x1="1530.4" x2="1602.4" y1="220.0" y2="220.0" /><line stroke="#545454" stroke-width="1.0" x1="1599.4" x2="1605.4" y1="220.0" y2="220.0" /><line stroke="#545454" stroke-width="0.8" x1="1530.4" x2="1602.4" y1="875.2" y2="875.2" /><line stroke="#545454" stroke-width="1.0" x1="1599.4" x2="1605.4" y1="875.2" y2="875.2" /><text fill="#545454" font-size="8.8" x="1607.3999999999999" y="547.5999999999999">5460mm</text><line stroke="#666666" stroke-width="1.0" x1="1584.4" x2="1584.4" y1="220.0" y2="875.2" /><line stroke="#666666" stroke-width="0.8" x1="1530.4" x2="1584.4" y1="220.0" y2="220.0" /><line stroke="#666666" stroke-width="1.0" x1="1581.4" x2="1587.4" y1="220.0" y2="220.0" /><line stroke="#666666" stroke-width="0.8" x1="1530.4" x2="1584.4" y1="547.6" y2="547.6" /><line stroke="#666666" stroke-width="1.0" x1="1581.4" x2="1587.4" y1="547.6" y2="547.6" /><line stroke="#666666" stroke-width="0.8" x1="1530.4" x2="1584.4" y1="875.2" y2="875.2" /><line stroke="#666666" stroke-width="1.0" x1="1581.4" x2="1587.4" y1="875.2" y2="875.2" /><text fill="#666666" font-size="8.2" x="1589.3999999999999" y="383.79999999999995">2730</text><text fill="#666666" font-size="8.2" x="1589.3999999999999" y="711.4">2730</text><line stroke="#7a7a7a" stroke-width="1.0" x1="1566.4" x2="1566.4" y1="220.0" y2="875.2" /><line stroke="#7a7a7a" stroke-width="0.8" x1="1530.4" x2="1566.4" y1="220.0" y2="220.0" /><line stroke="#7a7a7a" stroke-width="1.0" x1="1563.4" x2="1569.4" y1="220.0" y2="220.0" /><line stroke="#7a7a7a" stroke-width="0.8" x1="1530.4" x2="1566.4" y1="329.2" y2="329.2" /><line stroke="#7a7a7a" stroke-width="1.0" x1="1563.4" x2="1569.4" y1="329.2" y2="329.2" /><line stroke="#7a7a7a" stroke-width="0.8" x1="1530.4" x2="1566.4" y1="438.4" y2="438.4" /><line stroke="#7a7a7a" stroke-width="1.0" x1="1563.4" x2="1569.4" y1="438.4" y2="438.4" /><line stroke="#7a7a7a" stroke-width="0.8" x1="1530.4" x2="1566.4" y1="656.8" y2="656.8" /><line stroke="#7a7a7a" stroke-width="1.0" x1="1563.4" x2="1569.4" y1="656.8" y2="656.8" /><line stroke="#7a7a7a" stroke-width="0.8" x1="1530.4" x2="1566.4" y1="766.0" y2="766.0" /><line stroke="#7a7a7a" stroke-width="1.0" x1="1563.4" x2="1569.4" y1="766.0" y2="766.0" /><line stroke="#7a7a7a" stroke-width="0.8" x1="1530.4" x2="1566.4" y1="875.2" y2="875.2" /><line stroke="#7a7a7a" stroke-width="1.0" x1="1563.4" x2="1569.4" y1="875.2" y2="875.2" /><text fill="#7a7a7a" font-size="7.8" x="1571.3999999999999" y="274.6">910</text><text fill="#7a7a7a" font-size="7.8" x="1571.3999999999999" y="383.79999999999995">910</text><text fill="#7a7a7a" font-size="7.8" x="1571.3999999999999" y="547.5999999999999">1820</text><text fill="#7a7a7a" font-size="7.8" x="1571.3999999999999" y="711.4">910</text><text fill="#7a7a7a" font-size="7.8" x="1571.3999999999999" y="820.6">910</text></svg>