<?xml version="1.0" encoding="utf-8" ?>
<svg baseProfile="tiny" height="1095.1999999999998px" version="1.2" width="1750.3999999999999px" xmlns="http://www.w3.org/2000/svg" xmlns:ev="http://www.w3.org/2001/xml-events" xmlns:xlink="http://www.w3.org/1999/xlink"><defs /><rect fill="#fafafa" height="1095.2" width="1750.4" x="0" y="0" /><line stroke="#ececec" stroke-width="0.7" x1="220.0" x2="220.0" y1="220.0" y2="875.2" /><line stroke="#ececec" stroke-width="0.7" x1="274.6" x2="274.6" y1="220.0" y2="875.2" /><line stroke="#ececec" stroke-width="0.7" x1="329.2" x2="329.2" y1="220.0" y2="875.2" /><line stroke="#ececec" stroke-width="0.7" x1="383.8" x2="383.8" y1="220.0" y2="875.2" /><line stroke="#ececec" stroke-width="0.7" x1="438.4" x2="438.4" y1="220.0" y2="875.2" /><line stroke="#ececec" stroke-width="0.7" x1="493.0" x2="493.0" y1="220.0" y2="875.2" /><line stroke="#ececec" stroke-width="0.7" x1="547.6" x2="547.6" y1="220.0" y2="875.2" /><line stroke="#ececec" stroke-width="0.7" x1="602.2" x2="602.2" y1="220.0" y2="875.2" /><line stroke="#ececec" stroke-width="0.7" x1="656.8" x2="656.8" y1="220.0" y2="875.2" /><line stroke="#ececec" stroke-width="0.7" x1="711.4" x2="711.4" y1="220.0" y2="875.2" /><line stroke="#ececec" stroke-width="0.7" x1="766.0" x2="766.0" y1="220.0" y2="875.2" /><line stroke="#ececec" stroke-width="0.7" x1="820.6" x2="820.6" y1="220.0" y2="875.2" /><line stroke="#ececec" stroke-width="0.7" x1="875.2" x2="875.2" y1="220.0" y2="875.2" /><line stroke="#ececec" stroke-width="0.7" x1="929.8" x2="929.8" y1="220.0" y2="875.2" /><line stroke="#ececec" stroke-width="0.7" x1="984.4" x2="984.4" y1="220.0" y2="875.2" /><line stroke="#ececec" stroke-width="0.7" x1="1039.0" x2="1039.0" y1="220.0" y2="875.2" /><line stroke="#ececec" stroke-width="0.7" x1="1093.6" x2="1093.6" y1="220.0" y2="875.2" /><line stroke="#ececec" stroke-width="0.7" x1="1148.2" x2="1148.2" y1="220.0" y2="875.2" /><line stroke="#ececec" stroke-width="0.7" x1="1202.8" x2="1202.8" y1="220.0" y2="875.2" /><line stroke="#ececec" stroke-width="0.7" x1="1257.4" x2="1257.4" y1="220.0" y2="875.2" /><line stroke="#ececec" stroke-width="0.7" x1="1312.0" x2="1312.0" y1="220.0" y2="875.2" /><line stroke="#ececec" stroke-width="0.7" x1="1366.6" x2="1366.6" y1="220.0" y2="875.2" /><line stroke="#ececec" stroke-width="0.7" x1="1421.2" x2="1421.2" y1="220.0" y2="875.2" /><line stroke="#ececec" stroke-width="0.7" x1="1475.8" x2="1475.8" y1="220.0" y2="875.2" /><line stroke="#ececec" stroke-width="0.7" x1="1530.4" x2="1530.4" y1="220.0" y2="875.2" /><line stroke="#d1d1d1" stroke-width="1.1" x1="220.0" x2="220.0" y1="220.0" y2="875.2" /><line stroke="#d1d1d1" stroke-width="1.1" x1="329.2" x2="329.2" y1="220.0" y2="875.2" /><line stroke="#d1d1d1" stroke-width="1.1" x1="438.4" x2="438.4" y1="220.0" y2="875.2" /><line stroke="#d1d1d1" stroke-width="1.1" x1="547.6" x2="547.6" y1="220.0" y2="875.2" /><line stroke="#d1d1d1" stroke-width="1.1" x1="656.8" x2="656.8" y1="220.0" y2="875.2" /><line stroke="#d1d1d1" stroke-width="1.1" x1="766.0" x2="766.0" y1="220.0" y2="875.2" /><line stroke="#d1d1d1" stroke-width="1.1" x1="875.2" x2="875.2" y1="220.0" y2="875.2" /><line stroke="#d1d1d1" stroke-width="1.1" x1="984.4" x2="984.4" y1="220.0" y2="875.2" /><line stroke="#d1d1d1" stroke-width="1.1" x1="1093.6" x2="1093.6" y1="220.0" y2="875.2" /><line stroke="#d1d1d1" stroke-width="1.1" x1="1202.8" x2="1202.8" y1="220.0" y2="875.2" /><line stroke="#d1d1d1" stroke-width="1.1" x1="1312.0" x2="1312.0" y1="220.0" y2="875.2" /><line stroke="#d1d1d1" stroke-width="1.1" x1="1421.2" x2="1421.2" y1="220.0" y2="875.2" /><line stroke="#d1d1d1" stroke-width="1.1" x1="1530.4" x2="1530.4" y1="220.0" y2="875.2" /><line stroke="#d1d1d1" stroke-width="1.1" x1="220.0" x2="1530.4" y1="220.0" y2="220.0" /><line stroke="#d1d1d1" stroke-width="1.1" x1="220.0" x2="1530.4" y1="329.2" y2="329.2" /><line stroke="#d1d1d1" stroke-width="1.1" x1="220.0" x2="1530.4" y1="438.4" y2="438.4" /><line stroke="#d1d1d1" stroke-width="1.1" x1="220.0" x2="1530.4" y1="547.6" y2="547.6" /><line stroke="#d1d1d1" stroke-width="1.1" x1="220.0" x2="1530.4" y1="656.8" y2="656.8" /><line stroke="#d1d1d1" stroke-width="1.1" x1="220.0" x2="1530.4" y1="766.0" y2="766.0" /><line stroke="#d1d1d1" stroke-width="1.1" x1="220.0" x2="1530.4" y1="875.2" y2="875.2" /><line stroke="#ececec" stroke-width="0.7" x1="220.0" x2="1530.4" y1="220.0" y2="220.0" /><line stroke="#ececec" stroke-width="0.7" x1="220.0" x2="1530.4" y1="274.6" y2="274.6" /><line stroke="#ececec" stroke-width="0.7" x1="220.0" x2="1530.4" y1="329.2" y2="329.2" /><line stroke="#ececec" stroke-width="0.7" x1="220.0" x2="1530.4" y1="383.8" y2="383.8" /><line stroke="#ececec" stroke-width="0.7" x1="220.0" x2="1530.4" y1="438.4" y2="438.4" /><line stroke="#ececec" stroke-width="0.7" x1="220.0" x2="1530.4" y1="493.0" y2="493.0" /><line stroke="#ececec" stroke-width="0.7" x1="220.0" x2="1530.4" y1="547.6" y2="547.6" /><line stroke="#ececec" stroke-width="0.7" x1="220.0" x2="1530.4" y1="602.2" y2="602.2" /><line stroke="#ececec" stroke-width="0.7" x1="220.0" x2="1530.4" y1="656.8" y2="656.8" /><line stroke="#ececec" stroke-width="0.7" x1="220.0" x2="1530.4" y1="711.4" y2="711.4" /><line stroke="#ececec" stroke-width="0.7" x1="220.0" x2="1530.4" y1="766.0" y2="766.0" /><line stroke="#ececec" stroke-width="0.7" x1="220.0" x2="1530.4" y1="820.6" y2="820.6" /><line stroke="#ececec" stroke-width="0.7" x1="220.0" x2="1530.4" y1="875.2" y2="875.2" /><rect fill="none" height="655.2" stroke="#6a6a6a" stroke-dasharray="8,4" stroke-width="2" width="1310.4" x="220.0" y="220.0" /><rect fill="none" height="655.2" stroke="#1f1f1f" stroke-width="3.5" width="1310.4" x="220.0" y="220.0" /><text fill="#555555" font-size="10" x="222.0" y="160.0">Site Envelope = Building Footprint</text><rect fill="#d9f2ff" height="436.8" stroke="none" width="327.6" x="1202.8" y="438.4" /><line stroke="#2f2f2f" stroke-width="2.2" x1="1202.8" x2="1530.4" y1="438.4" y2="438.4" /><line stroke="#2f2f2f" stroke-width="2.2" x1="1202.8" x2="1530.4" y1="875.2" y2="875.2" /><line stroke="#2f2f2f" stroke-width="2.2" x1="1202.8" x2="1202.8" y1="438.4" y2="875.2" /><line stroke="#2f2f2f" stroke-width="2.2" x1="1530.4" x2="1530.4" y1="438.4" y2="875.2" /><rect fill="#d9f2ff" height="218.4" stroke="none" width="546.0" x="984.4" y="220.0" /><line stroke="#2f2f2f" stroke-width="2.2" x1="984.4" x2="1530.4" y1="438.4" y2="438.4" /><line stroke="#2f2f2f" stroke-width="2.2" x1="984.4" x2="1530.4" y1="220.0" y2="220.0" /><line stroke="#2f2f2f" stroke-width="2.2" x1="984.4" x2="984.4" y1="220.0" y2="438.4" /><line stroke="#2f2f2f" stroke-width="2.2" x1="1530.4" x2="1530.4" y1="220.0" y2="438.4" /><rect fill="#d9f2ff" height="327.6" stroke="none" width="436.8" x="220.0" y="547.6" /><line stroke="#2f2f2f" stroke-width="2.2" x1="220.0" x2="656.8" y1="547.6" y2="547.6" /><line stroke="#2f2f2f" stroke-width="2.2" x1="220.0" x2="656.8" y1="875.2" y2="875.2" /><line stroke="#2f2f2f" stroke-width="2.2" x1="220.0" x2="220.0" y1="547.6" y2="875.2" /><line stroke="#2f2f2f" stroke-width="2.2" x1="656.8" x2="656.8" y1="547.6" y2="875.2" /><rect fill="#efe9ff" height="109.2" stroke="none" width="109.2" x="984.4" y="438.4" /><rect fill="#efe9ff" height="218.4" stroke="none" width="163.8" x="929.8" y="547.6" /><rect fill="#efe9ff" height="109.2" stroke="none" width="546.0" x="656.8" y="766.0" /><line stroke="#2f2f2f" stroke-width="2.2" x1="656.8" x2="929.8" y1="766.0" y2="766.0" /><line stroke="#2f2f2f" stroke-width="2.2" x1="1093.6" x2="1202.8" y1="766.0" y2="766.0" /><line stroke="#2f2f2f" stroke-width="2.2" x1="984.4" x2="1093.6" y1="438.4" y2="438.4" /><line stroke="#2f2f2f" stroke-width="2.2" x1="656.8" x2="1202.8" y1="875.2" y2="875.2" /><line stroke="#2f2f2f" stroke-width="2.2" x1="929.8" x2="984.4" y1="547.6" y2="547.6" /><line stroke="#2f2f2f" stroke-width="2.2" x1="929.8" x2="929.8" y1="547.6" y2="766.0" /><line stroke="#2f2f2f" stroke-width="2.2" x1="1093.6" x2="1093.6" y1="438.4" y2="766.0" /><line stroke="#2f2f2f" stroke-width="2.2" x1="656.8" x2="656.8" y1="766.0" y2="875.2" /><line stroke="#2f2f2f" stroke-width="2.2" x1="984.4" x2="984.4" y1="438.4" y2="547.6" /><line stroke="#2f2f2f" stroke-width="2.2" x1="1202.8" x2="1202.8" y1="766.0" y2="875.2" /><rect fill="#c5e8ff" height="327.6" stroke="none" width="764.4" x="220.0" y="220.0" /><line stroke="#2f2f2f" stroke-width="2.2" x1="220.0" x2="984.4" y1="547.6" y2="547.6" /><line stroke="#2f2f2f" stroke-width="2.2" x1="220.0" x2="984.4" y1="220.0" y2="220.0" /><line stroke="#2f2f2f" stroke-width="2.2" x1="220.0" x2="220.0" y1="220.0" y2="547.6" /><line stroke="#2f2f2f" stroke-width="2.2" x1="984.4" x2="984.4" y1="220.0" y2="547.6" /><rect fill="#f0f0f0" height="218.4" stroke="none" width="273.0" x="656.8" y="547.6" /><line stroke="#2f2f2f" stroke-width="2.2" x1="656.8" x2="929.8" y1="547.6" y2="547.6" /><line stroke="#2f2f2f" stroke-width="2.2" x1="656.8" x2="929.8" y1="766.0" y2="766.0" /><line stroke="#2f2f2f" stroke-width="2.2" x1="929.8" x2="929.8" y1="547.6" y2="766.0" /><line stroke="#2f2f2f" stroke-width="2.2" x1="656.8" x2="656.8" y1="547.6" y2="766.0" /><rect fill="none" height="111.384" stroke="#7f7f7f" stroke-width="1.1" width="218.4" x="493.0" y="278.968" /><line stroke="#7f7f7f" stroke-width="0.9" x1="493.0" x2="711.4" y1="317.9524" y2="317.9524" /><rect fill="none" height="148.512" stroke="#7f7f7f" stroke-width="1.1" width="183.456" x="1274.872" y="517.024" /><line stroke="#7f7f7f" stroke-width="0.9" x1="1274.872" x2="1458.328" y1="569.0032" y2="569.0032" /><rect fill="none" height="74.256" stroke="#7f7f7f" stroke-width="1.1" width="218.4" x="1148.2" y="259.312" /><line stroke="#7f7f7f" stroke-width="0.9" x1="1148.2" x2="1366.6" y1="285.3016" y2="285.3016" /><rect fill="none" height="111.384" stroke="#7f7f7f" stroke-width="1.1" width="218.4" x="329.2" y="606.568" /><line stroke="#7f7f7f" stroke-width="0.9" x1="329.2" x2="547.6" y1="645.5524" y2="645.5524" /><line stroke="#9a9a9a" stroke-width="0.9" x1="689.56" x2="897.04" y1="586.912" y2="586.912" /><line stroke="#9a9a9a" stroke-width="0.9" x1="689.56" x2="897.04" y1="726.688" y2="726.688" /><rect fill="#ffffff" height="327.6" stroke="#202020" stroke-dasharray="8,4" stroke-width="2.6" width="109.2" x="1093.6" y="438.4" /><line stroke="#2a2a2a" stroke-width="1.4" x1="1106.704" x2="1189.696" y1="463.6" y2="463.6" /><line stroke="#2a2a2a" stroke-width="1.4" x1="1106.704" x2="1189.696" y1="488.8" y2="488.8" /><line stroke="#2a2a2a" stroke-width="1.4" x1="1106.704" x2="1189.696" y1="514.0" y2="514.0" /><line stroke="#2a2a2a" stroke-width="1.4" x1="1106.704" x2="1189.696" y1="539.2" y2="539.2" /><line stroke="#2a2a2a" stroke-width="1.4" x1="1106.704" x2="1189.696" y1="564.4" y2="564.4" /><line stroke="#2a2a2a" stroke-width="1.4" x1="1106.704" x2="1189.696" y1="589.6" y2="589.6" /><line stroke="#2a2a2a" stroke-width="1.4" x1="1106.704" x2="1189.696" y1="614.8" y2="614.8" /><line stroke="#2a2a2a" stroke-width="1.4" x1="1106.704" x2="1189.696" y1="640.0" y2="640.0" /><line stroke="#2a2a2a" stroke-width="1.4" x1="1106.704" x2="1189.696" y1="665.2" y2="665.2" /><line stroke="#2a2a2a" stroke-width="1.4" x1="1106.704" x2="1189.696" y1="690.4" y2="690.4" /><line stroke="#2a2a2a" stroke-width="1.4" x1="1106.704" x2="1189.696" y1="715.6" y2="715.6" /><line stroke="#2a2a2a" stroke-width="1.4" x1="1106.704" x2="1189.696" y1="740.8" y2="740.8" /><text fill="#202020" font-size="11" text-anchor="middle" x="1148.1999999999998" y="602.2">Stair (DN)</text><text fill="#3a3a3a" font-size="9.0" text-anchor="middle" x="1148.1999999999998" y="616.5999999999999">13R/12T</text><text fill="#4a4a4a" font-size="7.8" text-anchor="middle" x="1148.1999999999998" y="625.0">H2730 R210 T228</text><line stroke="#ffffff" stroke-width="7" x1="1093.6" x2="1202.8" y1="766.0" y2="766.0" /><line stroke="#5e5e5e" stroke-width="1.0" x1="1093.6" x2="1202.8" y1="766.0" y2="766.0" /><line stroke="#ffffff" stroke-width="6" x1="984.4" x2="984.4" y1="447.4" y2="538.6" /><line stroke="#595959" stroke-width="1.2" x1="984.4" x2="925.12" y1="447.4" y2="506.68" /><path d="M 984.4,506.68 A 59.28,59.28 0 0 1 925.12,506.68" fill="none" stroke="#7a7a7a" stroke-width="1.0" /><line stroke="#ffffff" stroke-width="6" x1="1202.8" x2="1202.8" y1="775.0" y2="866.2" /><line stroke="#595959" stroke-width="1.2" x1="1202.8" x2="1262.08" y1="775.0" y2="834.28" /><path d="M 1202.8,834.28 A 59.28,59.28 0 0 1 1262.08,834.28" fill="none" stroke="#7a7a7a" stroke-width="1.0" /><line stroke="#ffffff" stroke-width="6" x1="993.4" x2="1084.6" y1="438.4" y2="438.4" /><line stroke="#595959" stroke-width="1.2" x1="993.4" x2="1052.68" y1="438.4" y2="379.12" /><path d="M 1052.6799999999998,438.4 A 59.28,59.28 0 0 1 1052.6799999999998,379.12" fill="none" stroke="#7a7a7a" stroke-width="1.0" /><line stroke="#ffffff" stroke-width="6" x1="656.8" x2="656.8" y1="775.0" y2="866.2" /><line stroke="#595959" stroke-width="1.2" x1="656.8" x2="716.08" y1="775.0" y2="834.28" /><path d="M 656.8,834.28 A 59.28,59.28 0 0 1 716.0799999999999,834.28" fill="none" stroke="#7a7a7a" stroke-width="1.0" /><line stroke="#ffffff" stroke-width="6" x1="1307.8" x2="1425.4" y1="438.4" y2="438.4" /><line stroke="#595959" stroke-width="1.2" x1="1307.8" x2="1384.24" y1="438.4" y2="361.96" /><path d="M 1384.24,438.4 A 76.44,76.44 0 0 1 1384.24,361.96000000000004" fill="none" stroke="#7a7a7a" stroke-width="1.0" /><line stroke="#ffffff" stroke-width="6" x1="379.6" x2="497.2" y1="547.6" y2="547.6" /><line stroke="#595959" stroke-width="1.2" x1="379.6" x2="456.04" y1="547.6" y2="624.04" /><path d="M 456.03999999999996,547.5999999999999 A 76.44,76.44 0 0 1 456.03999999999996,624.04" fill="none" stroke="#7a7a7a" stroke-width="1.0" /><line stroke="#ffffff" stroke-width="6" x1="734.5" x2="852.1" y1="547.6" y2="547.6" /><line stroke="#595959" stroke-width="1.2" x1="734.5" x2="810.94" y1="547.6" y2="471.16" /><path d="M 810.9399999999999,547.5999999999999 A 76.44,76.44 0 0 1 810.9399999999999,471.15999999999997" fill="none" stroke="#7a7a7a" stroke-width="1.0" /><line stroke="#66a7ff" stroke-width="2.2" x1="217.36" x2="217.36" y1="328.12" y2="439.48" /><line stroke="#66a7ff" stroke-width="2.2" x1="222.64" x2="222.64" y1="328.12" y2="439.48" /><line stroke="#66a7ff" stroke-width="2.2" x1="338.032" x2="530.032" y1="217.36" y2="217.36" /><line stroke="#66a7ff" stroke-width="2.2" x1="338.032" x2="530.032" y1="222.64" y2="222.64" /><line stroke="#66a7ff" stroke-width="2.2" x1="674.368" x2="866.368" y1="217.36" y2="217.36" /><line stroke="#66a7ff" stroke-width="2.2" x1="674.368" x2="866.368" y1="222.64" y2="222.64" /><line stroke="#66a7ff" stroke-width="2.2" x1="1527.76" x2="1527.76" y1="486.484" y2="634.924" /><line stroke="#66a7ff" stroke-width="2.2" x1="1533.04" x2="1533.04" y1="486.484" y2="634.924" /><line stroke="#66a7ff" stroke-width="2.2" x1="1527.76" x2="1527.76" y1="678.676" y2="827.116" /><line stroke="#66a7ff" stroke-width="2.2" x1="1533.04" x2="1533.04" y1="678.676" y2="827.116" /><line stroke="#66a7ff" stroke-width="2.2" x1="1310.92" x2="1422.28" y1="872.56" y2="872.56" /><line stroke="#66a7ff" stroke-width="2.2" x1="1310.92" x2="1422.28" y1="877.84" y2="877.84" /><line stroke="#66a7ff" stroke-width="2.2" x1="1527.76" x2="1527.76" y1="274.6" y2="383.8" /><line stroke="#66a7ff" stroke-width="2.2" x1="1533.04" x2="1533.04" y1="274.6" y2="383.8" /><line stroke="#66a7ff" stroke-width="2.2" x1="1044.46" x2="1230.1" y1="217.36" y2="217.36" /><line stroke="#66a7ff" stroke-width="2.2" x1="1044.46" x2="1230.1" y1="222.64" y2="222.64" /><line stroke="#66a7ff" stroke-width="2.2" x1="1284.7" x2="1470.34" y1="217.36" y2="217.36" /><line stroke="#66a7ff" stroke-width="2.2" x1="1284.7" x2="1470.34" y1="222.64" y2="222.64" /><line stroke="#66a7ff" stroke-width="2.2" x1="217.36" x2="217.36" y1="655.72" y2="767.08" /><line stroke="#66a7ff" stroke-width="2.2" x1="222.64" x2="222.64" y1="655.72" y2="767.08" /><line stroke="#66a7ff" stroke-width="2.2" x1="268.084" x2="416.524" y1="872.56" y2="872.56" /><line stroke="#66a7ff" stroke-width="2.2" x1="268.084" x2="416.524" y1="877.84" y2="877.84" /><line stroke="#66a7ff" stroke-width="2.2" x1="460.276" x2="608.716" y1="872.56" y2="872.56" /><line stroke="#66a7ff" stroke-width="2.2" x1="460.276" x2="608.716" y1="877.84" y2="877.84" /><line stroke="#9a9a9a" stroke-width="0.8" x1="938.2" x2="1085.2" y1="556.0" y2="556.0" /><line stroke="#9a9a9a" stroke-width="0.8" x1="938.2" x2="938.2" y1="552.64" y2="559.36" /><line stroke="#9a9a9a" stroke-width="0.8" x1="1085.2" x2="1085.2" y1="552.64" y2="559.36" /><text fill="#8a8a8a" font-size="7.6" text-anchor="start" x="944.92" y="553.36">1365mm</text><line stroke="#9a9a9a" stroke-width="0.8" x1="938.2" x2="938.2" y1="556.0" y2="757.6" /><line stroke="#9a9a9a" stroke-width="0.8" x1="934.84" x2="941.56" y1="556.0" y2="556.0" /><line stroke="#9a9a9a" stroke-width="0.8" x1="934.84" x2="941.56" y1="757.6" y2="757.6" /><text fill="#8a8a8a" font-size="7.6" text-anchor="start" x="942.28" y="563.6800000000001">1820mm</text><text fill="#1b1b1b" font-size="10" text-anchor="middle" x="1366.6" y="642.4">Bedroom 2</text><text fill="#1b1b1b" font-size="10" text-anchor="middle" x="1366.6" y="653.2">2730x3640mm</text><text fill="#1b1b1b" font-size="10" text-anchor="middle" x="1366.6" y="664.0">9.9sqm / 6.1jo</text><text fill="#1b1b1b" font-size="10" text-anchor="middle" x="1257.3999999999999" y="314.8">Bedroom 3</text><text fill="#1b1b1b" font-size="10" text-anchor="middle" x="1257.3999999999999" y="325.6">4550x1820mm</text><text fill="#1b1b1b" font-size="10" text-anchor="middle" x="1257.3999999999999" y="336.4">8.3sqm / 5.1jo</text><text fill="#1b1b1b" font-size="10" text-anchor="middle" x="438.4" y="697.0">Bedroom 4</text><text fill="#1b1b1b" font-size="10" text-anchor="middle" x="438.4" y="707.8">3640x2730mm</text><text fill="#1b1b1b" font-size="10" text-anchor="middle" x="438.4" y="718.5999999999999">9.9sqm / 6.1jo</text><text fill="#1b1b1b" font-size="9" text-anchor="middle" x="969.2333333333333" y="715.2">Hall 2</text><text fill="#1b1b1b" font-size="9" text-anchor="middle" x="969.2333333333333" y="726.0">7.5sqm / 4.6jo</text><text fill="#1b1b1b" font-size="10" text-anchor="middle" x="602.2" y="369.4">Master</text><text fill="#1b1b1b" font-size="10" text-anchor="middle" x="602.2" y="380.2">6370x2730mm</text><text fill="#1b1b1b" font-size="10" text-anchor="middle" x="602.2" y="391.0">17.4sqm / 10.7jo</text><text fill="#1b1b1b" font-size="10" text-anchor="middle" x="793.3" y="642.4">Wic 1</text><text fill="#1b1b1b" font-size="10" text-anchor="middle" x="793.3" y="653.2">2275x1820mm</text><text fill="#1b1b1b" font-size="10" text-anchor="middle" x="793.3" y="664.0">4.1sqm / 2.6jo</text><text fill="#111111" font-size="14" x="220.0" y="180.0">F2 Plan  (10920 x 5460 mm)</text><text fill="#444444" font-size="10" x="220.0" y="198.0">Scale: 1px=8.3mm</text><rect fill="#ffffff" height="126" stroke="#777777" stroke-width="1" width="170" x="1618.4" y="150.0" /><text fill="#111111" font-size="11" x="1626.3999999999999" y="164.0">Legend</text><rect fill="#efe9ff" height="12" stroke="#333333" stroke-width="1" width="12" x="1626.4" y="174.0" /><text fill="#222222" font-size="10" x="1644.3999999999999" y="184.0">Hall</text><rect fill="#c5e8ff" height="12" stroke="#333333" stroke-width="1" width="12" x="1626.4" y="192.0" /><text fill="#222222" font-size="10" x="1644.3999999999999" y="202.0">Master Bedroom</text><rect fill="#d9f2ff" height="12" stroke="#333333" stroke-width="1" width="12" x="1626.4" y="210.0" /><text fill="#222222" font-size="10" x="1644.3999999999999" y="220.0">Bedroom</text><rect fill="#f0f0f0" height="12" stroke="#333333" stroke-width="1" width="12" x="1626.4" y="228.0" /><text fill="#222222" font-size="10" x="1644.3999999999999" y="238.0">Storage</text><line stroke="#6aa4ff" stroke-width="4" x1="1626.4" x2="1653.4" y1="258.0" y2="258.0" /><text fill="#222222" font-size="10" x="1660.3999999999999" y="261.0">Window</text><line stroke="#666666" stroke-width="2.4" x1="1626.4" x2="1653.4" y1="274.0" y2="274.0" /><path d="M 1626.3999999999999,274.0 A 10,10 0 0 1 1636.3999999999999,264.0" fill="none" stroke="#666666" stroke-width="1.2" /><text fill="#222222" font-size="10" x="1660.3999999999999" y="277.0">Door</text><rect fill="#ffffff" height="84" stroke="#777777" stroke-width="1" width="200" x="1618.4" y="520.0" /><text fill="#111111" font-size="10" x="1626.3999999999999" y="533.0">Area (F2)</text><text fill="#222222" font-size="9" x="1626.3999999999999" y="550.0">F1: in 59.6 sqm (18.0 tsubo), out 0.0 sqm (0.0 tsubo)</text><text fill="#222222" font-size="9" x="1626.3999999999999" y="566.0">F2: in 59.6 sqm (18.0 tsubo), out 0.0 sqm (0.0 tsubo)</text><text fill="#222222" font-size="9" x="1626.3999999999999" y="582.0">Total indoor: 119.2 sqm (36.1 tsubo)</text><text fill="#222222" font-size="9" x="1626.3999999999999" y="598.0">Total outdoor: 0.0 sqm (0.0 tsubo)</text><line stroke="#111111" stroke-width="2" x1="175.0" x2="175.0" y1="238.0" y2="208.0" /><polygon fill="#111111" points="175.0,208.0 181.0,214.0 169.0,214.0" /><text fill="#111111" font-size="12" x="170.0" y="202.0">N</text><line stroke="#545454" stroke-width="1.0" x1="220.0" x2="1530.4" y1="148.0" y2="148.0" /><line stroke="#545454" stroke-width="0.8" x1="220.0" x2="220.0" y1="220.0" y2="148.0" /><line stroke="#545454" stroke-width="1.0" x1="220.0" x2="220.0" y1="145.0" y2="151.0" /><line stroke="#545454" stroke-width="0.8" x1="1530.4" x2="1530.4" y1="220.0" y2="148.0" /><line stroke="#545454" stroke-width="1.0" x1="1530.4" x2="1530.4" y1="145.0" y2="151.0" /><text fill="#545454" font-size="8.8" text-anchor="middle" x="875.1999999999999" y="145.0">10920mm</text><line stroke="#666666" stroke-width="1.0" x1="220.0" x2="1530.4" y1="166.0" y2="166.0" /><line stroke="#666666" stroke-width="0.8" x1="220.0" x2="220.0" y1="220.0" y2="166.0" /><line stroke="#666666" stroke-width="1.0" x1="220.0" x2="220.0" y1="163.0" y2="169.0" /><line stroke="#666666" stroke-width="0.8" x1="984.4" x2="984.4" y1="220.0" y2="166.0" /><line stroke="#666666" stroke-width="1.0" x1="984.4" x2="984.4" y1="163.0" y2="169.0" /><line stroke="#666666" stroke-width="0.8" x1="1530.4" x2="1530.4" y1="220.0" y2="166.0" /><line stroke="#666666" stroke-width="1.0" x1="1530.4" x2="1530.4" y1="163.0" y2="169.0" /><text fill="#666666" font-size="8.2" text-anchor="middle" x="602.2" y="163.0">6370</text><text fill="#666666" font-size="8.2" text-anchor="middle" x="1257.3999999999999" y="163.0">4550</text><line stroke="#7a7a7a" stroke-width="1.0" x1="220.0" x2="1530.4" y1="184.0" y2="184.0" /><line stroke="#7a7a7a" stroke-width="0.8" x1="220.0" x2="220.0" y1="220.0" y2="184.0" /><line stroke="#7a7a7a" stroke-width="1.0" x1="220.0" x2="220.0" y1="181.0" y2="187.0" /><line stroke="#7a7a7a" stroke-width="0.8" x1="329.2" x2="329.2" y1="220.0" y2="184.0" /><line stroke="#7a7a7a" stroke-width="1.0" x1="329.2" x2="329.2" y1="181.0" y2="187.0" /><line stroke="#7a7a7a" stroke-width="0.8" x1="547.6" x2="547.6" y1="220.0" y2="184.0" /><line stroke="#7a7a7a" stroke-width="1.0" x1="547.6" x2="547.6" y1="181.0" y2="187.0" /><line stroke="#7a7a7a" stroke-width="0.8" x1="656.8" x2="656.8" y1="220.0" y2="184.0" /><line stroke="#7a7a7a" stroke-width="1.0" x1="656.8" x2="656.8" y1="181.0" y2="187.0" /><line stroke="#7a7a7a" stroke-width="0.8" x1="875.2" x2="875.2" y1="220.0" y2="184.0" /><line stroke="#7a7a7a" stroke-width="1.0" x1="875.2" x2="875.2" y1="181.0" y2="187.0" /><line stroke="#7a7a7a" stroke-width="0.8" x1="1039.0" x2="1039.0" y1="220.0" y2="184.0" /><line stroke="#7a7a7a" stroke-width="1.0" x1="1039.0" x2="1039.0" y1="181.0" y2="187.0" /><line stroke="#7a7a7a" stroke-width="0.8" x1="1257.4" x2="1257.4" y1="220.0" y2="184.0" /><line stroke="#7a7a7a" stroke-width="1.0" x1="1257.4" x2="1257.4" y1="181.0" y2="187.0" /><line stroke="#7a7a7a" stroke-width="0.8" x1="1475.8" x2="1475.8" y1="220.0" y2="184.0" /><line stroke="#7a7a7a" stroke-width="1.0" x1="1475.8" x2="1475.8" y1="181.0" y2="187.0" /><line stroke="#7a7a7a" stroke-width="0.8" x1="1530.4" x2="1530.4" y1="220.0" y2="184.0" /><line stroke="#7a7a7a" stroke-width="1.0" x1="1530.4" x2="1530.4" y1="181.0" y2="187.0" /><text fill="#7a7a7a" font-size="7.8" text-anchor="middle" x="274.6" y="181.0">910</text><text fill="#7a7a7a" font-size="7.8" text-anchor="middle" x="438.4" y="181.0">1820</text><text fill="#7a7a7a" font-size="7.8" text-anchor="middle" x="602.2" y="181.0">910</text><text fill="#7a7a7a" font-size="7.8" text-anchor="middle" x="766.0" y="181.0">1820</text><text fill="#7a7a7a" font-size="7.8" text-anchor="middle" x="957.1" y="181.0">1365</text><text fill="#7a7a7a" font-size="7.8" text-anchor="middle" x="1148.1999999999998" y="181.0">1820</text><text fill="#7a7a7a" font-size="7.8" text-anchor="middle" x="1366.6" y="181.0">1820</text><line stroke="#545454" stroke-width="1.0" x1="220.0" x2="1530.4" y1="947.2" y2="947.2" /><line stroke="#545454" stroke-width="0.8" x1="220.0" x2="220.0" y1="875.2" y2="947.2" /><line stroke="#545454" stroke-width="1.0" x1="220.0" x2="220.0" y1="944.2" y2="950.2" /><line stroke="#545454" stroke-width="0.8" x1="1530.4" x2="1530.4" y1="875.2" y2="947.2" /><line stroke="#545454" stroke-width="1.0" x1="1530.4" x2="1530.4" y1="944.2" y2="950.2" /><text fill="#545454" font-size="8.8" text-anchor="middle" x="875.1999999999999" y="957.1999999999999">10920mm</text><line stroke="#666666" stroke-width="1.0" x1="220.0" x2="1530.4" y1="929.2" y2="929.2" /><line stroke="#666666" stroke-width="0.8" x1="220.0" x2="220.0" y1="875.2" y2="929.2" /><line stroke="#666666" stroke-width="1.0" x1="220.0" x2="220.0" y1="926.2" y2="932.2" /><line stroke="#666666" stroke-width="0.8" x1="656.8" x2="656.8" y1="875.2" y2="929.2" /><line stroke="#666666" stroke-width="1.0" x1="656.8" x2="656.8" y1="926.2" y2="932.2" /><line stroke="#666666" stroke-width="0.8" x1="1202.8" x2="1202.8" y1="875.2" y2="929.2" /><line stroke="#666666" stroke-width="1.0" x1="1202.8" x2="1202.8" y1="926.2" y2="932.2" /><line stroke="#666666" stroke-width="0.8" x1="1530.4" x2="1530.4" y1="875.2" y2="929.2" /><line stroke="#666666" stroke-width="1.0" x1="1530.4" x2="1530.4" y1="926.2" y2="932.2" /><text fill="#666666" font-size="8.2" text-anchor="middle" x="438.4" y="939.1999999999999">3640</text><text fill="#666666" font-size="8.2" text-anchor="middle" x="929.8" y="939.1999999999999">4550</text><text fill="#666666" font-size="8.2" text-anchor="middle" x="1366.6" y="939.1999999999999">2730</text><line stroke="#7a7a7a" stroke-width="1.0" x1="220.0" x2="1530.4" y1="911.2" y2="911.2" /><line stroke="#7a7a7a" stroke-width="0.8" x1="220.0" x2="220.0" y1="875.2" y2="911.2" /><line stroke="#7a7a7a" stroke-width="1.0" x1="220.0" x2="220.0" y1="908.2" y2="914.2" /><line stroke="#7a7a7a" stroke-width="0.8" x1="274.6" x2="274.6" y1="875.2" y2="911.2" /><line stroke="#7a7a7a" stroke-width="1.0" x1="274.6" x2="274.6" y1="908.2" y2="914.2" /><line stroke="#7a7a7a" stroke-width="0.8" x1="438.4" x2="438.4" y1="875.2" y2="911.2" /><line stroke="#7a7a7a" stroke-width="1.0" x1="438.4" x2="438.4" y1="908.2" y2="914.2" /><line stroke="#7a7a7a" stroke-width="0.8" x1="602.2" x2="602.2" y1="875.2" y2="911.2" /><line stroke="#7a7a7a" stroke-width="1.0" x1="602.2" x2="602.2" y1="908.2" y2="914.2" /><line stroke="#7a7a7a" stroke-width="0.8" x1="1312.0" x2="1312.0" y1="875.2" y2="911.2" /><line stroke="#7a7a7a" stroke-width="1.0" x1="1312.0" x2="1312.0" y1="908.2" y2="914.2" /><line stroke="#7a7a7a" stroke-width="0.8" x1="1421.2" x2="1421.2" y1="875.2" y2="911.2" /><line stroke="#7a7a7a" stroke-width="1.0" x1="1421.2" x2="1421.2" y1="908.2" y2="914.2" /><line stroke="#7a7a7a" stroke-width="0.8" x1="1530.4" x2="1530.4" y1="875.2" y2="911.2" /><line stroke="#7a7a7a" stroke-width="1.0" x1="1530.4" x2="1530.4" y1="908.2" y2="914.2" /><text fill="#7a7a7a" font-size="7.8" text-anchor="middle" x="356.5" y="921.1999999999999">1365</text><text fill="#7a7a7a" font-size="7.8" text-anchor="middle" x="520.3" y="921.1999999999999">1365</text><text fill="#7a7a7a" font-size="7.8" text-anchor="middle" x="957.1" y="921.1999999999999">5915</text><text fill="#7a7a7a" font-size="7.8" text-anchor="middle" x="1366.6" y="921.1999999999999">910</text><text fill="#7a7a7a" font-size="7.8" text-anchor="middle" x="1475.8" y="921.1999999999999">910</text><line stroke="#545454" stroke-width="1.0" x1="148.0" x2="148.0" y1="220.0" y2="875.2" /><line stroke="#545454" stroke-width="0.8" x1="220.0" x2="148.0" y1="220.0" y2="220.0" /><line stroke="#545454" stroke-width="1.0" x1="145.0" x2="151.0" y1="220.0" y2="220.0" /><line stroke="#545454" stroke-width="0.8" x1="220.0" x2="148.0" y1="875.2" y2="875.2" /><line stroke="#545454" stroke-width="1.0" x1="145.0" x2="151.0" y1="875.2" y2="875.2" /><text fill="#545454" font-size="8.8" x="144.0" y="547.5999999999999">5460mm</text><line stroke="#666666" stroke-width="1.0" x1="166.0" x2="166.0" y1="220.0" y2="875.2" /><line stroke="#666666" stroke-width="0.8" x1="220.0" x2="166.0" y1="220.0" y2="220.0" /><line stroke="#666666" stroke-width="1.0" x1="163.0" x2="169.0" y1="220.0" y2="220.0" /><line stroke="#666666" stroke-width="0.8" x1="220.0" x2="166.0" y1="547.6" y2="547.6" /><line stroke="#666666" stroke-width="1.0" x1="163.0" x2="169.0" y1="547.6" y2="547.6" /><line stroke="#666666" stroke-width="0.8" x1="220.0" x2="166.0" y1="875.2" y2="875.2" /><line stroke="#666666" stroke-width="1.0" x1="163.0" x2="169.0" y1="875.2" y2="875.2" /><text fill="#666666" font-size="8.2" x="162.0" y="383.79999999999995">2730</text><text fill="#666666" font-size="8.2" x="162.0" y="711.4">2730</text><line stroke="#7a7a7a" stroke-width="1.0" x1="184.0" x2="184.0" y1="220.0" y2="875.2" /><line stroke="#7a7a7a" stroke-width="0.8" x1="220.0" x2="184.0" y1="220.0" y2="220.0" /><line stroke="#7a7a7a" stroke-width="1.0" x1="181.0" x2="187.0" y1="220.0" y2="220.0" /><line stroke="#7a7a7a" stroke-width="0.8" x1="220.0" x2="184.0" y1="329.2" y2="329.2" /><line stroke="#7a7a7a" stroke-width="1.0" x1="181.0" x2="187.0" y1="329.2" y2="329.2" /><line stroke="#7a7a7a" stroke-width="0.8" x1="220.0" x2="184.0" y1="438.4" y2="438.4" /><line stroke="#7a7a7a" stroke-width="1.0" x1="181.0" x2="187.0" y1="438.4" y2="438.4" /><line stroke="#7a7a7a" stroke-width="0.8" x1="220.0" x2="184.0" y1="656.8" y2="656.8" /><line stroke="#7a7a7a" stroke-width="1.0" x1="181.0" x2="187.0" y1="656.8" y2="656.8" /><line stroke="#7a7a7a" stroke-width="0.8" x1="220.0" x2="184.0" y1="766.0" y2="766.0" /><line stroke="#7a7a7a" stroke-width="1.0" x1="181.0" x2="187.0" y1="766.0" y2="766.0" /><line stroke="#7a7a7a" stroke-width="0.8" x1="220.0" x2="184.0" y1="875.2" y2="875.2" /><line stroke="#7a7a7a" stroke-width="1.0" x1="181.0" x2="187.0" y1="875.2" y2="875.2" /><text fill="#7a7a7a" font-size="7.8" x="180.0" y="274.6">910</text><text fill="#7a7a7a" font-size="7.8" x="180.0" y="383.79999999999995">910</text><text fill="#7a7a7a" font-size="7.8" x="180.0" y="547.5999999999999">1820</text><text fill="#7a7a7a" font-size="7.8" x="180.0" y="711.4">910</text><text fill="#7a7a7a" font-size="7.8" x="180.0" y="820.6">910</text><line stroke="#545454" stroke-width="1.0" x1="1602.4" x2="1602.4" y1="220.0" y2="875.2" /><line stroke="#545454" stroke-width="0.8" x1="1530.4" x2="1602.4" y1="220.0" y2="220.0" /><line stroke="#545454" stroke-width="1.0" x1="1599.4" x2="1605.4" y1="220.0" y2="220.0" /><line stroke="#545454" stroke-width="0.8" x1="1530.4" x2="1602.4" y1="875.2" y2="875.2" /><line stroke="#545454" stroke-width="1.0" x1="1599.4" x2="1605.4" y1="875.2" y2="875.2" /><text fill="#545454" font-size="8.8" x="1607.3999999999999" y="547.5999999999999">5460mm</text><line stroke="#666666" stroke-width="1.0" x1="1584.4" x2="1584.4" y1="220.0" y2="875.2" /><line stroke="#666666" stroke-width="0.8" x1="1530.4" x2="1584.4" y1="220.0" y2="220.0" /><line stroke="#666666" stroke-width="1.0" x1="1581.4" x2="1587.4" y1="220.0" y2="220.0" /><line stroke="#666666" stroke-width="0.8" x1="1530.4" x2="1584.4" y1="438.4" y2="438.4" /><line stroke="#666666" stroke-width="1.0" x1="1581.4" x2="1587.4" y1="438.4" y2="438.4" /><line stroke="#666666" stroke-width="0.8" x1="1530.4" x2="1584.4" y1="875.2" y2="875.2" /><line stroke="#666666" stroke-width="1.0" x1="1581.4" x2="1587.4" y1="875.2" y2="875.2" /><text fill="#666666" font-size="8.2" x="1589.3999999999999" y="329.2">1820</text><text fill="#666666" font-size="8.2" x="1589.3999999999999" y="656.8">3640</text><line stroke="#7a7a7a" stroke-width="1.0" x1="1566.4" x2="1566.4" y1="220.0" y2="875.2" /><line stroke="#7a7a7a" stroke-width="0.8" x1="1530.4" x2="1566.4" y1="220.0" y2="220.0" /><line stroke="#7a7a7a" stroke-width="1.0" x1="1563.4" x2="1569.4" y1="220.0" y2="220.0" /><line stroke="#7a7a7a" stroke-width="0.8" x1="1530.4" x2="1566.4" y1="274.6" y2="274.6" /><line stroke="#7a7a7a" stroke-width="1.0" x1="1563.4" x2="1569.4" y1="274.6" y2="274.6" /><line stroke="#7a7a7a" stroke-width="0.8" x1="1530.4" x2="1566.4" y1="383.8" y2="383.8" /><line stroke="#7a7a7a" stroke-width="1.0" x1="1563.4" x2="1569.4" y1="383.8" y2="383.8" /><line stroke="#7a7a7a" stroke-width="0.8" x1="1530.4" x2="1566.4" y1="493.0" y2="493.0" /><line stroke="#7a7a7a" stroke-width="1.0" x1="1563.4" x2="1569.4" y1="493.0" y2="493.0" /><line stroke="#7a7a7a" stroke-width="0.8" x1="1530.4" x2="1566.4" y1="656.8" y2="656.8" /><line stroke="#7a7a7a" stroke-width="1.0" x1="1563.4" x2="1569.4" y1="656.8" y2="656.8" /><line stroke="#7a7a7a" stroke-width="0.8" x1="1530.4" x2="1566.4" y1="820.6" y2="820.6" /><line stroke="#7a7a7a" stroke-width="1.0" x1="1563.4" x2="1569.4" y1="820.6" y2="820.6" /><line stroke="#7a7a7a" stroke-width="0.8" x1="1530.4" x2="1566.4" y1="875.2" y2="875.2" /><line stroke="#7a7a7a" stroke-width="1.0" x1="1563.4" x2="1569.4" y1="875.2" y2="875.2" /><text fill="#7a7a7a" font-size="7.8" x="1571.3999999999999" y="329.2">910</text><text fill="#7a7a7a" font-size="7.8" x="1571.3999999999999" y="438.4">910</text><text fill="#7a7a7a" font-size="7.8" x="1571.3999999999999" y="574.9">1365</text><text fill="#7a7a7a" font-size="7.8" x="1571.3999999999999" y="738.6999999999999">1365</text></svg>