<?xml version="1.0" encoding="utf-8" ?>
<svg baseProfile="tiny" height="1095.1999999999998px" version="1.2" width="1750.3999999999999px" xmlns="http://www.w3.org/2000/svg" xmlns:ev="http://www.w3.org/2001/xml-events" xmlns:xlink="http://www.w3.org/1999/xlink"><defs /><rect fill="#fafafa" height="1095.2" width="1750.4" x="0" y="0" /><line stroke="#ececec" stroke-width="0.7" x1="220.0" x2="220.0" y1="220.0" y2="875.2" /><line stroke="#ececec" stroke-width="0.7" x1="274.6" x2="274.6" y1="220.0" y2="875.2" /><line stroke="#ececec" stroke-width="0.7" x1="329.2" x2="329.2" y1="220.0" y2="875.2" /><line stroke="#ececec" stroke-width="0.7" x1="383.8" x2="383.8" y1="220.0" y2="875.2" /><line stroke="#ececec" stroke-width="0.7" x1="438.4" x2="438.4" y1="220.0" y2="875.2" /><line stroke="#ececec" stroke-width="0.7" x1="493.0" x2="493.0" y1="220.0" y2="875.2" /><line stroke="#ececec" stroke-width="0.7" x1="547.6" x2="547.6" y1="220.0" y2="875.2" /><line stroke="#ececec" stroke-width="0.7" x1="602.2" x2="602.2" y1="220.0" y2="875.2" /><line stroke="#ececec" stroke-width="0.7" x1="656.8" x2="656.8" y1="220.0" y2="875.2" /><line stroke="#ececec" stroke-width="0.7" x1="711.4" x2="711.4" y1="220.0" y2="875.2" /><line stroke="#ececec" stroke-width="0.7" x1="766.0" x2="766.0" y1="220.0" y2="875.2" /><line stroke="#ececec" stroke-width="0.7" x1="820.6" x2="820.6" y1="220.0" y2="875.2" /><line stroke="#ececec" stroke-width="0.7" x1="875.2" x2="875.2" y1="220.0" y2="875.2" /><line stroke="#ececec" stroke-width="0.7" x1="929.8" x2="929.8" y1="220.0" y2="875.2" /><line stroke="#ececec" stroke-width="0.7" x1="984.4" x2="984.4" y1="220.0" y2="875.2" /><line stroke="#ececec" stroke-width="0.7" x1="1039.0" x2="1039.0" y1="220.0" y2="875.2" /><line stroke="#ececec" stroke-width="0.7" x1="1093.6" x2="1093.6" y1="220.0" y2="875.2" /><line stroke="#ececec" stroke-width="0.7" x1="1148.2" x2="1148.2" y1="220.0" y2="875.2" /><line stroke="#ececec" stroke-width="0.7" x1="1202.8" x2="1202.8" y1="220.0" y2="875.2" /><line stroke="#ececec" stroke-width="0.7" x1="1257.4" x2="1257.4" y1="220.0" y2="875.2" /><line stroke="#ececec" stroke-width="0.7" x1="1312.0" x2="1312.0" y1="220.0" y2="875.2" /><line stroke="#ececec" stroke-width="0.7" x1="1366.6" x2="1366.6" y1="220.0" y2="875.2" /><line stroke="#ececec" stroke-width="0.7" x1="1421.2" x2="1421.2" y1="220.0" y2="875.2" /><line stroke="#ececec" stroke-width="0.7" x1="1475.8" x2="1475.8" y1="220.0" y2="875.2" /><line stroke="#ececec" stroke-width="0.7" x1="1530.4" x2="1530.4" y1="220.0" y2="875.2" /><line stroke="#d1d1d1" stroke-width="1.1" x1="220.0" x2="220.0" y1="220.0" y2="875.2" /><line stroke="#d1d1d1" stroke-width="1.1" x1="329.2" x2="329.2" y1="220.0" y2="875.2" /><line stroke="#d1d1d1" stroke-width="1.1" x1="438.4" x2="438.4" y1="220.0" y2="875.2" /><line stroke="#d1d1d1" stroke-width="1.1" x1="547.6" x2="547.6" y1="220.0" y2="875.2" /><line stroke="#d1d1d1" stroke-width="1.1" x1="656.8" x2="656.8" y1="220.0" y2="875.2" /><line stroke="#d1d1d1" stroke-width="1.1" x1="766.0" x2="766.0" y1="220.0" y2="875.2" /><line stroke="#d1d1d1" stroke-width="1.1" x1="875.2" x2="875.2" y1="220.0" y2="875.2" /><line stroke="#d1d1d1" stroke-width="1.1" x1="984.4" x2="984.4" y1="220.0" y2="875.2" /><line stroke="#d1d1d1" stroke-width="1.1" x1="1093.6" x2="1093.6" y1="220.0" y2="875.2" /><line stroke="#d1d1d1" stroke-width="1.1" x1="1202.8" x2="1202.8" y1="220.0" y2="875.2" /><line stroke="#d1d1d1" stroke-width="1.1" x1="1312.0" x2="1312.0" y1="220.0" y2="875.2" /><line stroke="#d1d1d1" stroke-width="1.1" x1="1421.2" x2="1421.2" y1="220.0" y2="875.2" /><line stroke="#d1d1d1" stroke-width="1.1" x1="1530.4" x2="1530.4" y1="220.0" y2="875.2" /><line stroke="#d1d1d1" stroke-width="1.1" x1="220.0" x2="1530.4" y1="220.0" y2="220.0" /><line stroke="#d1d1d1" stroke-width="1.1" x1="220.0" x2="1530.4" y1="329.2" y2="329.2" /><line stroke="#d1d1d1" stroke-width="1.1" x1="220.0" x2="1530.4" y1="438.4" y2="438.4" /><line stroke="#d1d1d1" stroke-width="1.1" x1="220.0" x2="1530.4" y1="547.6" y2="547.6" /><line stroke="#d1d1d1" stroke-width="1.1" x1="220.0" x2="1530.4" y1="656.8" y2="656.8" /><line stroke="#d1d1d1" stroke-width="1.1" x1="220.0" x2="1530.4" y1="766.0" y2="766.0" /><line stroke="#d1d1d1" stroke-width="1.1" x1="220.0" x2="1530.4" y1="875.2" y2="875.2" /><line stroke="#ececec" stroke-width="0.7" x1="220.0" x2="1530.4" y1="220.0" y2="220.0" /><line stroke="#ececec" stroke-width="0.7" x1="220.0" x2="1530.4" y1="274.6" y2="274.6" /><line stroke="#ececec" stroke-width="0.7" x1="220.0" x2="1530.4" y1="329.2" y2="329.2" /><line stroke="#ececec" stroke-width="0.7" x1="220.0" x2="1530.4" y1="383.8" y2="383.8" /><line stroke="#ececec" stroke-width="0.7" x1="220.0" x2="1530.4" y1="438.4" y2="438.4" /><line stroke="#ececec" stroke-width="0.7" x1="220.0" x2="1530.4" y1="493.0" y2="493.0" /><line stroke="#ececec" stroke-width="0.7" x1="220.0" x2="1530.4" y1="547.6" y2="547.6" /><line stroke="#ececec" stroke-width="0.7" x1="220.0" x2="1530.4" y1="602.2" y2="602.2" /><line stroke="#ececec" stroke-width="0.7" x1="220.0" x2="1530.4" y1="656.8" y2="656.8" /><line stroke="#ececec" stroke-width="0.7" x1="220.0" x2="1530.4" y1="711.4" y2="711.4" /><line stroke="#ececec" stroke-width="0.7" x1="220.0" x2="1530.4" y1="766.0" y2="766.0" /><line stroke="#ececec" stroke-width="0.7" x1="220.0" x2="1530.4" y1="820.6" y2="820.6" /><line stroke="#ececec" stroke-width="0.7" x1="220.0" x2="1530.4" y1="875.2" y2="875.2" /><rect fill="none" height="655.2" stroke="#6a6a6a" stroke-dasharray="8,4" stroke-width="2" width="1310.4" x="220.0" y="220.0" /><rect fill="none" height="655.2" stroke="#1f1f1f" stroke-width="3.5" width="1310.4" x="220.0" y="220.0" /><text fill="#555555" font-size="10" x="222.0" y="160.0">Site Envelope = Building Footprint</text><rect fill="#d9f2ff" height="273.0" stroke="none" width="546.0" x="984.4" y="602.2" /><line stroke="#2f2f2f" stroke-width="2.2" x1="984.4" x2="1530.4" y1="875.2" y2="875.2" /><line stroke="#2f2f2f" stroke-width="2.2" x1="984.4" x2="1530.4" y1="602.2" y2="602.2" /><line stroke="#2f2f2f" stroke-width="2.2" x1="984.4" x2="984.4" y1="602.2" y2="875.2" /><line stroke="#2f2f2f" stroke-width="2.2" x1="1530.4" x2="1530.4" y1="602.2" y2="875.2" /><rect fill="#d9f2ff" height="273.0" stroke="none" width="546.0" x="438.4" y="602.2" /><line stroke="#2f2f2f" stroke-width="2.2" x1="438.4" x2="984.4" y1="602.2" y2="602.2" /><line stroke="#2f2f2f" stroke-width="2.2" x1="438.4" x2="984.4" y1="875.2" y2="875.2" /><line stroke="#2f2f2f" stroke-width="2.2" x1="984.4" x2="984.4" y1="602.2" y2="875.2" /><line stroke="#2f2f2f" stroke-width="2.2" x1="438.4" x2="438.4" y1="602.2" y2="875.2" /><rect fill="#d9f2ff" height="273.0" stroke="none" width="491.4" x="766.0" y="220.0" /><line stroke="#2f2f2f" stroke-width="2.2" x1="766.0" x2="1257.4" y1="493.0" y2="493.0" /><line stroke="#2f2f2f" stroke-width="2.2" x1="766.0" x2="1257.4" y1="220.0" y2="220.0" /><line stroke="#2f2f2f" stroke-width="2.2" x1="1257.4" x2="1257.4" y1="220.0" y2="493.0" /><line stroke="#2f2f2f" stroke-width="2.2" x1="766.0" x2="766.0" y1="220.0" y2="493.0" /><rect fill="#efe9ff" height="109.2" stroke="none" width="109.2" x="766.0" y="493.0" /><rect fill="#efe9ff" height="109.2" stroke="none" width="655.2" x="875.2" y="493.0" /><rect fill="#efe9ff" height="163.8" stroke="none" width="163.8" x="1257.4" y="329.2" /><line stroke="#2f2f2f" stroke-width="2.2" x1="766.0" x2="1257.4" y1="493.0" y2="493.0" /><line stroke="#2f2f2f" stroke-width="2.2" x1="1421.2" x2="1530.4" y1="493.0" y2="493.0" /><line stroke="#2f2f2f" stroke-width="2.2" x1="766.0" x2="1530.4" y1="602.2" y2="602.2" /><line stroke="#2f2f2f" stroke-width="2.2" x1="1257.4" x2="1421.2" y1="329.2" y2="329.2" /><line stroke="#2f2f2f" stroke-width="2.2" x1="1421.2" x2="1421.2" y1="329.2" y2="493.0" /><line stroke="#2f2f2f" stroke-width="2.2" x1="1530.4" x2="1530.4" y1="493.0" y2="602.2" /><line stroke="#2f2f2f" stroke-width="2.2" x1="1257.4" x2="1257.4" y1="329.2" y2="493.0" /><line stroke="#2f2f2f" stroke-width="2.2" x1="766.0" x2="766.0" y1="493.0" y2="602.2" /><rect fill="#c5e8ff" height="382.2" stroke="none" width="546.0" x="220.0" y="220.0" /><line stroke="#2f2f2f" stroke-width="2.2" x1="220.0" x2="766.0" y1="602.2" y2="602.2" /><line stroke="#2f2f2f" stroke-width="2.2" x1="220.0" x2="766.0" y1="220.0" y2="220.0" /><line stroke="#2f2f2f" stroke-width="2.2" x1="220.0" x2="220.0" y1="220.0" y2="602.2" /><line stroke="#2f2f2f" stroke-width="2.2" x1="766.0" x2="766.0" y1="220.0" y2="602.2" /><rect fill="#f0f0f0" height="273.0" stroke="none" width="218.4" x="220.0" y="602.2" /><line stroke="#2f2f2f" stroke-width="2.2" x1="220.0" x2="438.4" y1="875.2" y2="875.2" /><line stroke="#2f2f2f" stroke-width="2.2" x1="220.0" x2="438.4" y1="602.2" y2="602.2" /><line stroke="#2f2f2f" stroke-width="2.2" x1="438.4" x2="438.4" y1="602.2" y2="875.2" /><line stroke="#2f2f2f" stroke-width="2.2" x1="220.0" x2="220.0" y1="602.2" y2="875.2" /><rect fill="none" height="129.948" stroke="#7f7f7f" stroke-width="1.1" width="218.4" x="383.8" y="288.796" /><line stroke="#7f7f7f" stroke-width="0.9" x1="383.8" x2="602.2" y1="334.2778" y2="334.2778" /><rect fill="none" height="92.82" stroke="#7f7f7f" stroke-width="1.1" width="218.4" x="1148.2" y="651.34" /><line stroke="#7f7f7f" stroke-width="0.9" x1="1148.2" x2="1366.6" y1="683.827" y2="683.827" /><rect fill="none" height="92.82" stroke="#7f7f7f" stroke-width="1.1" width="218.4" x="602.2" y="651.34" /><line stroke="#7f7f7f" stroke-width="0.9" x1="602.2" x2="820.6" y1="683.827" y2="683.827" /><rect fill="none" height="92.82" stroke="#7f7f7f" stroke-width="1.1" width="218.4" x="902.5" y="269.14" /><line stroke="#7f7f7f" stroke-width="0.9" x1="902.5" x2="1120.9" y1="301.627" y2="301.627" /><line stroke="#9a9a9a" stroke-width="0.9" x1="246.208" x2="412.192" y1="651.34" y2="651.34" /><line stroke="#9a9a9a" stroke-width="0.9" x1="246.208" x2="412.192" y1="826.06" y2="826.06" /><rect fill="#f4f4f4" height="109.2" stroke="#202020" stroke-dasharray="4,3" stroke-width="2.6" width="163.8" x="1257.4" y="220.0" /><line stroke="#b8b8b8" stroke-width="0.9" x1="1262.8" x2="1415.8" y1="229.6" y2="229.6" /><line stroke="#b8b8b8" stroke-width="0.9" x1="1262.8" x2="1415.8" y1="248.8" y2="248.8" /><line stroke="#b8b8b8" stroke-width="0.9" x1="1262.8" x2="1415.8" y1="268.0" y2="268.0" /><line stroke="#b8b8b8" stroke-width="0.9" x1="1262.8" x2="1415.8" y1="287.2" y2="287.2" /><line stroke="#b8b8b8" stroke-width="0.9" x1="1262.8" x2="1415.8" y1="306.4" y2="306.4" /><line stroke="#b8b8b8" stroke-width="0.9" x1="1262.8" x2="1415.8" y1="325.6" y2="325.6" /><rect fill="#f4f4f4" height="109.2" stroke="#202020" stroke-dasharray="4,3" stroke-width="2.6" width="109.2" x="1421.2" y="220.0" /><line stroke="#b8b8b8" stroke-width="0.9" x1="1426.6" x2="1525.0" y1="229.6" y2="229.6" /><line stroke="#b8b8b8" stroke-width="0.9" x1="1426.6" x2="1525.0" y1="248.8" y2="248.8" /><line stroke="#b8b8b8" stroke-width="0.9" x1="1426.6" x2="1525.0" y1="268.0" y2="268.0" /><line stroke="#b8b8b8" stroke-width="0.9" x1="1426.6" x2="1525.0" y1="287.2" y2="287.2" /><line stroke="#b8b8b8" stroke-width="0.9" x1="1426.6" x2="1525.0" y1="306.4" y2="306.4" /><line stroke="#b8b8b8" stroke-width="0.9" x1="1426.6" x2="1525.0" y1="325.6" y2="325.6" /><rect fill="#ffffff" height="163.8" stroke="#202020" stroke-dasharray="8,4" stroke-width="2.6" width="109.2" x="1421.2" y="329.2" /><text fill="#555555" font-size="9" text-anchor="middle" x="1393.8999999999999" y="274.6">Open To Below</text><rect fill="none" height="109.2" stroke="#7e7e7e" stroke-dasharray="3,2" stroke-width="2.0" width="273.0" x="1257.4" y="220.0" /><text fill="#666666" font-size="8.5" text-anchor="middle" x="1393.8999999999999" y="234.4">Guardrail</text><line stroke="#2a2a2a" stroke-width="1.4" x1="1421.2" x2="1530.4" y1="352.6" y2="352.6" /><line stroke="#2a2a2a" stroke-width="1.4" x1="1421.2" x2="1530.4" y1="376.0" y2="376.0" /><line stroke="#2a2a2a" stroke-width="1.4" x1="1421.2" x2="1530.4" y1="399.4" y2="399.4" /><line stroke="#2a2a2a" stroke-width="1.4" x1="1421.2" x2="1530.4" y1="422.8" y2="422.8" /><line stroke="#2a2a2a" stroke-width="1.4" x1="1421.2" x2="1530.4" y1="446.2" y2="446.2" /><line stroke="#2a2a2a" stroke-width="1.4" x1="1421.2" x2="1530.4" y1="469.6" y2="469.6" /><text fill="#202020" font-size="11" text-anchor="middle" x="1475.8" y="411.1">Stair (DN)</text><text fill="#3a3a3a" font-size="9.0" text-anchor="middle" x="1475.8" y="425.5">13R/12T</text><text fill="#4a4a4a" font-size="7.8" text-anchor="middle" x="1475.8" y="433.9">H2730 R210 T228</text><line stroke="#ffffff" stroke-width="7" x1="1421.2" x2="1530.4" y1="493.0" y2="493.0" /><line stroke="#5e5e5e" stroke-width="1.0" x1="1421.2" x2="1530.4" y1="493.0" y2="493.0" /><line stroke="#ffffff" stroke-width="6" x1="766.0" x2="766.0" y1="502.0" y2="593.2" /><line stroke="#595959" stroke-width="1.2" x1="766.0" x2="706.72" y1="502.0" y2="561.28" /><path d="M 766.0,561.28 A 59.28,59.28 0 0 1 706.72,561.28" fill="none" stroke="#7a7a7a" stroke-width="1.0" /><line stroke="#ffffff" stroke-width="6" x1="1198.6" x2="1316.2" y1="602.2" y2="602.2" /><line stroke="#ffffff" stroke-width="6" x1="775.0" x2="866.2" y1="602.2" y2="602.2" /><line stroke="#ffffff" stroke-width="6" x1="1007.5" x2="1125.1" y1="493.0" y2="493.0" /><line stroke="#595959" stroke-width="1.2" x1="1007.5" x2="1083.94" y1="493.0" y2="569.44" /><path d="M 1083.94,493.0 A 76.44,76.44 0 0 1 1083.94,569.44" fill="none" stroke="#7a7a7a" stroke-width="1.0" /><line stroke="#ffffff" stroke-width="6" x1="984.4" x2="984.4" y1="679.9" y2="797.5" /><line stroke="#595959" stroke-width="1.2" x1="984.4" x2="907.96" y1="679.9" y2="756.34" /><path d="M 984.4,756.34 A 76.44,76.44 0 0 1 907.9599999999999,756.34" fill="none" stroke="#7a7a7a" stroke-width="1.0" /><line stroke="#ffffff" stroke-width="6" x1="766.0" x2="766.0" y1="297.7" y2="415.3" /><line stroke="#595959" stroke-width="1.2" x1="766.0" x2="842.44" y1="297.7" y2="374.14" /><path d="M 766.0,374.14 A 76.44,76.44 0 0 1 842.4399999999999,374.14" fill="none" stroke="#7a7a7a" stroke-width="1.0" /><line stroke="#ffffff" stroke-width="6" x1="280.06" x2="378.34" y1="602.2" y2="602.2" /><line stroke="#66a7ff" stroke-width="2.2" x1="217.36" x2="217.36" y1="346.18" y2="476.02" /><line stroke="#66a7ff" stroke-width="2.2" x1="222.64" x2="222.64" y1="346.18" y2="476.02" /><line stroke="#66a7ff" stroke-width="2.2" x1="280.06" x2="465.7" y1="217.36" y2="217.36" /><line stroke="#66a7ff" stroke-width="2.2" x1="280.06" x2="465.7" y1="222.64" y2="222.64" /><line stroke="#66a7ff" stroke-width="2.2" x1="520.3" x2="705.94" y1="217.36" y2="217.36" /><line stroke="#66a7ff" stroke-width="2.2" x1="520.3" x2="705.94" y1="222.64" y2="222.64" /><line stroke="#66a7ff" stroke-width="2.2" x1="1527.76" x2="1527.76" y1="684.1" y2="793.3" /><line stroke="#66a7ff" stroke-width="2.2" x1="1533.04" x2="1533.04" y1="684.1" y2="793.3" /><line stroke="#66a7ff" stroke-width="2.2" x1="1044.46" x2="1230.1" y1="872.56" y2="872.56" /><line stroke="#66a7ff" stroke-width="2.2" x1="1044.46" x2="1230.1" y1="877.84" y2="877.84" /><line stroke="#66a7ff" stroke-width="2.2" x1="1284.7" x2="1470.34" y1="872.56" y2="872.56" /><line stroke="#66a7ff" stroke-width="2.2" x1="1284.7" x2="1470.34" y1="877.84" y2="877.84" /><line stroke="#66a7ff" stroke-width="2.2" x1="498.46" x2="684.1" y1="872.56" y2="872.56" /><line stroke="#66a7ff" stroke-width="2.2" x1="498.46" x2="684.1" y1="877.84" y2="877.84" /><line stroke="#66a7ff" stroke-width="2.2" x1="738.7" x2="924.34" y1="872.56" y2="872.56" /><line stroke="#66a7ff" stroke-width="2.2" x1="738.7" x2="924.34" y1="877.84" y2="877.84" /><line stroke="#66a7ff" stroke-width="2.2" x1="820.072" x2="987.112" y1="217.36" y2="217.36" /><line stroke="#66a7ff" stroke-width="2.2" x1="820.072" x2="987.112" y1="222.64" y2="222.64" /><line stroke="#66a7ff" stroke-width="2.2" x1="1036.288" x2="1203.328" y1="217.36" y2="217.36" /><line stroke="#66a7ff" stroke-width="2.2" x1="1036.288" x2="1203.328" y1="222.64" y2="222.64" /><line stroke="#9a9a9a" stroke-width="0.8" x1="1265.8" x2="1412.8" y1="337.6" y2="337.6" /><line stroke="#9a9a9a" stroke-width="0.8" x1="1265.8" x2="1265.8" y1="334.24" y2="340.96" /><line stroke="#9a9a9a" stroke-width="0.8" x1="1412.8" x2="1412.8" y1="334.24" y2="340.96" /><text fill="#8a8a8a" font-size="7.6" text-anchor="start" x="1272.52" y="334.96">1365mm</text><line stroke="#9a9a9a" stroke-width="0.8" x1="1265.8" x2="1265.8" y1="337.6" y2="484.6" /><line stroke="#9a9a9a" stroke-width="0.8" x1="1262.44" x2="1269.16" y1="337.6" y2="337.6" /><line stroke="#9a9a9a" stroke-width="0.8" x1="1262.44" x2="1269.16" y1="484.6" y2="484.6" /><text fill="#8a8a8a" font-size="7.6" text-anchor="start" x="1269.8799999999999" y="345.28">1365mm</text><text fill="#1b1b1b" font-size="10" text-anchor="middle" x="1257.3999999999999" y="724.3">Bedroom 2</text><text fill="#1b1b1b" font-size="10" text-anchor="middle" x="1257.3999999999999" y="735.1">4550x2275mm</text><text fill="#1b1b1b" font-size="10" text-anchor="middle" x="1257.3999999999999" y="745.9">10.4sqm / 6.4jo</text><text fill="#1b1b1b" font-size="10" text-anchor="middle" x="711.4" y="724.3">Bedroom 3</text><text fill="#1b1b1b" font-size="10" text-anchor="middle" x="711.4" y="735.1">4550x2275mm</text><text fill="#1b1b1b" font-size="10" text-anchor="middle" x="711.4" y="745.9">10.4sqm / 6.4jo</text><text fill="#1b1b1b" font-size="10" text-anchor="middle" x="1011.6999999999999" y="342.1">Bedroom 4</text><text fill="#1b1b1b" font-size="10" text-anchor="middle" x="1011.6999999999999" y="352.9">4095x2275mm</text><text fill="#1b1b1b" font-size="10" text-anchor="middle" x="1011.6999999999999" y="363.7">9.3sqm / 5.8jo</text><text fill="#1b1b1b" font-size="9" text-anchor="middle" x="1194.6837837837838" y="499.9972972972973">Hall 2</text><text fill="#1b1b1b" font-size="9" text-anchor="middle" x="1194.6837837837838" y="510.7972972972973">7.7sqm / 4.7jo</text><text fill="#1b1b1b" font-size="10" text-anchor="middle" x="493.0" y="396.7">Master</text><text fill="#1b1b1b" font-size="10" text-anchor="middle" x="493.0" y="407.5">4550x3185mm</text><text fill="#1b1b1b" font-size="10" text-anchor="middle" x="493.0" y="418.29999999999995">14.5sqm / 8.9jo</text><text fill="#1b1b1b" font-size="10" text-anchor="middle" x="329.2" y="724.3">Wic 1</text><text fill="#1b1b1b" font-size="10" text-anchor="middle" x="329.2" y="735.1">1820x2275mm</text><text fill="#1b1b1b" font-size="10" text-anchor="middle" x="329.2" y="745.9">4.1sqm / 2.6jo</text><text fill="#111111" font-size="14" x="220.0" y="180.0">F2 Plan  (10920 x 5460 mm)</text><text fill="#444444" font-size="10" x="220.0" y="198.0">Scale: 1px=8.3mm</text><rect fill="#ffffff" height="126" stroke="#777777" stroke-width="1" width="170" x="1618.4" y="150.0" /><text fill="#111111" font-size="11" x="1626.3999999999999" y="164.0">Legend</text><rect fill="#efe9ff" height="12" stroke="#333333" stroke-width="1" width="12" x="1626.4" y="174.0" /><text fill="#222222" font-size="10" x="1644.3999999999999" y="184.0">Hall</text><rect fill="#c5e8ff" height="12" stroke="#333333" stroke-width="1" width="12" x="1626.4" y="192.0" /><text fill="#222222" font-size="10" x="1644.3999999999999" y="202.0">Master Bedroom</text><rect fill="#d9f2ff" height="12" stroke="#333333" stroke-width="1" width="12" x="1626.4" y="210.0" /><text fill="#222222" font-size="10" x="1644.3999999999999" y="220.0">Bedroom</text><rect fill="#f0f0f0" height="12" stroke="#333333" stroke-width="1" width="12" x="1626.4" y="228.0" /><text fill="#222222" font-size="10" x="1644.3999999999999" y="238.0">Storage</text><line stroke="#6aa4ff" stroke-width="4" x1="1626.4" x2="1653.4" y1="258.0" y2="258.0" /><text fill="#222222" font-size="10" x="1660.3999999999999" y="261.0">Window</text><line stroke="#666666" stroke-width="2.4" x1="1626.4" x2="1653.4" y1="274.0" y2="274.0" /><path d="M 1626.3999999999999,274.0 A 10,10 0 0 1 1636.3999999999999,264.0" fill="none" stroke="#666666" stroke-width="1.2" /><text fill="#222222" font-size="10" x="1660.3999999999999" y="277.0">Door</text><rect fill="#ffffff" height="84" stroke="#777777" stroke-width="1" width="200" x="1618.4" y="520.0" /><text fill="#111111" font-size="10" x="1626.3999999999999" y="533.0">Area (F2)</text><text fill="#222222" font-size="9" x="1626.3999999999999" y="550.0">F1: in 59.6 sqm (18.0 tsubo), out 0.0 sqm (0.0 tsubo)</text><text fill="#222222" font-size="9" x="1626.3999999999999" y="566.0">F2: in 59.6 sqm (18.0 tsubo), out 0.0 sqm (0.0 tsubo)</text><text fill="#222222" font-size="9" x="1626.3999999999999" y="582.0">Total indoor: 119.2 sqm (36.1 tsubo)</text><text fill="#222222" font-size="9" x="1626.3999999999999" y="598.0">Total outdoor: 0.0 sqm (0.0 tsubo)</text><line stroke="#111111" stroke-width="2" x1="175.0" x2="175.0" y1="238.0" y2="208.0" /><polygon fill="#111111" points="175.0,208.0 181.0,214.0 169.0,214.0" /><text fill="#111111" font-size="12" x="170.0" y="202.0">N</text><line stroke="#545454" stroke-width="1.0" x1="220.0" x2="1530.4" y1="148.0" y2="148.0" /><line stroke="#545454" stroke-width="0.8" x1="220.0" x2="220.0" y1="220.0" y2="148.0" /><line stroke="#545454" stroke-width="1.0" x1="220.0" x2="220.0" y1="145.0" y2="151.0" /><line stroke="#545454" stroke-width="0.8" x1="1530.4" x2="1530.4" y1="220.0" y2="148.0" /><line stroke="#545454" stroke-width="1.0" x1="1530.4" x2="1530.4" y1="145.0" y2="151.0" /><text fill="#545454" font-size="8.8" text-anchor="middle" x="875.1999999999999" y="145.0">10920mm</text><line stroke="#666666" stroke-width="1.0" x1="220.0" x2="1530.4" y1="166.0" y2="166.0" /><line stroke="#666666" stroke-width="0.8" x1="220.0" x2="220.0" y1="220.0" y2="166.0" /><line stroke="#666666" stroke-width="1.0" x1="220.0" x2="220.0" y1="163.0" y2="169.0" /><line stroke="#666666" stroke-width="0.8" x1="766.0" x2="766.0" y1="220.0" y2="166.0" /><line stroke="#666666" stroke-width="1.0" x1="766.0" x2="766.0" y1="163.0" y2="169.0" /><line stroke="#666666" stroke-width="0.8" x1="1257.4" x2="1257.4" y1="220.0" y2="166.0" /><line stroke="#666666" stroke-width="1.0" x1="1257.4" x2="1257.4" y1="163.0" y2="169.0" /><line stroke="#666666" stroke-width="0.8" x1="1421.2" x2="1421.2" y1="220.0" y2="166.0" /><line stroke="#666666" stroke-width="1.0" x1="1421.2" x2="1421.2" y1="163.0" y2="169.0" /><line stroke="#666666" stroke-width="0.8" x1="1530.4" x2="1530.4" y1="220.0" y2="166.0" /><line stroke="#666666" stroke-width="1.0" x1="1530.4" x2="1530.4" y1="163.0" y2="169.0" /><text fill="#666666" font-size="8.2" text-anchor="middle" x="493.0" y="163.0">4550</text><text fill="#666666" font-size="8.2" text-anchor="middle" x="1011.6999999999999" y="163.0">4095</text><text fill="#666666" font-size="8.2" text-anchor="middle" x="1339.3" y="163.0">1365</text><text fill="#666666" font-size="8.2" text-anchor="middle" x="1475.8" y="163.0">910</text><line stroke="#7a7a7a" stroke-width="1.0" x1="220.0" x2="1530.4" y1="184.0" y2="184.0" /><line stroke="#7a7a7a" stroke-width="0.8" x1="220.0" x2="220.0" y1="220.0" y2="184.0" /><line stroke="#7a7a7a" stroke-width="1.0" x1="220.0" x2="220.0" y1="181.0" y2="187.0" /><line stroke="#7a7a7a" stroke-width="0.8" x1="274.6" x2="274.6" y1="220.0" y2="184.0" /><line stroke="#7a7a7a" stroke-width="1.0" x1="274.6" x2="274.6" y1="181.0" y2="187.0" /><line stroke="#7a7a7a" stroke-width="0.8" x1="493.0" x2="493.0" y1="220.0" y2="184.0" /><line stroke="#7a7a7a" stroke-width="1.0" x1="493.0" x2="493.0" y1="181.0" y2="187.0" /><line stroke="#7a7a7a" stroke-width="0.8" x1="711.4" x2="711.4" y1="220.0" y2="184.0" /><line stroke="#7a7a7a" stroke-width="1.0" x1="711.4" x2="711.4" y1="181.0" y2="187.0" /><line stroke="#7a7a7a" stroke-width="0.8" x1="820.6" x2="820.6" y1="220.0" y2="184.0" /><line stroke="#7a7a7a" stroke-width="1.0" x1="820.6" x2="820.6" y1="181.0" y2="187.0" /><line stroke="#7a7a7a" stroke-width="0.8" x1="984.4" x2="984.4" y1="220.0" y2="184.0" /><line stroke="#7a7a7a" stroke-width="1.0" x1="984.4" x2="984.4" y1="181.0" y2="187.0" /><line stroke="#7a7a7a" stroke-width="0.8" x1="1039.0" x2="1039.0" y1="220.0" y2="184.0" /><line stroke="#7a7a7a" stroke-width="1.0" x1="1039.0" x2="1039.0" y1="181.0" y2="187.0" /><line stroke="#7a7a7a" stroke-width="0.8" x1="1202.8" x2="1202.8" y1="220.0" y2="184.0" /><line stroke="#7a7a7a" stroke-width="1.0" x1="1202.8" x2="1202.8" y1="181.0" y2="187.0" /><line stroke="#7a7a7a" stroke-width="0.8" x1="1530.4" x2="1530.4" y1="220.0" y2="184.0" /><line stroke="#7a7a7a" stroke-width="1.0" x1="1530.4" x2="1530.4" y1="181.0" y2="187.0" /><text fill="#7a7a7a" font-size="7.8" text-anchor="middle" x="383.79999999999995" y="181.0">1820</text><text fill="#7a7a7a" font-size="7.8" text-anchor="middle" x="602.2" y="181.0">1820</text><text fill="#7a7a7a" font-size="7.8" text-anchor="middle" x="766.0" y="181.0">910</text><text fill="#7a7a7a" font-size="7.8" text-anchor="middle" x="902.5" y="181.0">1365</text><text fill="#7a7a7a" font-size="7.8" text-anchor="middle" x="1120.9" y="181.0">1365</text><text fill="#7a7a7a" font-size="7.8" text-anchor="middle" x="1366.6" y="181.0">2730</text><line stroke="#545454" stroke-width="1.0" x1="220.0" x2="1530.4" y1="947.2" y2="947.2" /><line stroke="#545454" stroke-width="0.8" x1="220.0" x2="220.0" y1="875.2" y2="947.2" /><line stroke="#545454" stroke-width="1.0" x1="220.0" x2="220.0" y1="944.2" y2="950.2" /><line stroke="#545454" stroke-width="0.8" x1="1530.4" x2="1530.4" y1="875.2" y2="947.2" /><line stroke="#545454" stroke-width="1.0" x1="1530.4" x2="1530.4" y1="944.2" y2="950.2" /><text fill="#545454" font-size="8.8" text-anchor="middle" x="875.1999999999999" y="957.1999999999999">10920mm</text><line stroke="#666666" stroke-width="1.0" x1="220.0" x2="1530.4" y1="929.2" y2="929.2" /><line stroke="#666666" stroke-width="0.8" x1="220.0" x2="220.0" y1="875.2" y2="929.2" /><line stroke="#666666" stroke-width="1.0" x1="220.0" x2="220.0" y1="926.2" y2="932.2" /><line stroke="#666666" stroke-width="0.8" x1="438.4" x2="438.4" y1="875.2" y2="929.2" /><line stroke="#666666" stroke-width="1.0" x1="438.4" x2="438.4" y1="926.2" y2="932.2" /><line stroke="#666666" stroke-width="0.8" x1="984.4" x2="984.4" y1="875.2" y2="929.2" /><line stroke="#666666" stroke-width="1.0" x1="984.4" x2="984.4" y1="926.2" y2="932.2" /><line stroke="#666666" stroke-width="0.8" x1="1530.4" x2="1530.4" y1="875.2" y2="929.2" /><line stroke="#666666" stroke-width="1.0" x1="1530.4" x2="1530.4" y1="926.2" y2="932.2" /><text fill="#666666" font-size="8.2" text-anchor="middle" x="329.2" y="939.1999999999999">1820</text><text fill="#666666" font-size="8.2" text-anchor="middle" x="711.4" y="939.1999999999999">4550</text><text fill="#666666" font-size="8.2" text-anchor="middle" x="1257.3999999999999" y="939.1999999999999">4550</text><line stroke="#7a7a7a" stroke-width="1.0" x1="220.0" x2="1530.4" y1="911.2" y2="911.2" /><line stroke="#7a7a7a" stroke-width="0.8" x1="220.0" x2="220.0" y1="875.2" y2="911.2" /><line stroke="#7a7a7a" stroke-width="1.0" x1="220.0" x2="220.0" y1="908.2" y2="914.2" /><line stroke="#7a7a7a" stroke-width="0.8" x1="493.0" x2="493.0" y1="875.2" y2="911.2" /><line stroke="#7a7a7a" stroke-width="1.0" x1="493.0" x2="493.0" y1="908.2" y2="914.2" /><line stroke="#7a7a7a" stroke-width="0.8" x1="711.4" x2="711.4" y1="875.2" y2="911.2" /><line stroke="#7a7a7a" stroke-width="1.0" x1="711.4" x2="711.4" y1="908.2" y2="914.2" /><line stroke="#7a7a7a" stroke-width="0.8" x1="929.8" x2="929.8" y1="875.2" y2="911.2" /><line stroke="#7a7a7a" stroke-width="1.0" x1="929.8" x2="929.8" y1="908.2" y2="914.2" /><line stroke="#7a7a7a" stroke-width="0.8" x1="1039.0" x2="1039.0" y1="875.2" y2="911.2" /><line stroke="#7a7a7a" stroke-width="1.0" x1="1039.0" x2="1039.0" y1="908.2" y2="914.2" /><line stroke="#7a7a7a" stroke-width="0.8" x1="1257.4" x2="1257.4" y1="875.2" y2="911.2" /><line stroke="#7a7a7a" stroke-width="1.0" x1="1257.4" x2="1257.4" y1="908.2" y2="914.2" /><line stroke="#7a7a7a" stroke-width="0.8" x1="1475.8" x2="1475.8" y1="875.2" y2="911.2" /><line stroke="#7a7a7a" stroke-width="1.0" x1="1475.8" x2="1475.8" y1="908.2" y2="914.2" /><line stroke="#7a7a7a" stroke-width="0.8" x1="1530.4" x2="1530.4" y1="875.2" y2="911.2" /><line stroke="#7a7a7a" stroke-width="1.0" x1="1530.4" x2="1530.4" y1="908.2" y2="914.2" /><text fill="#7a7a7a" font-size="7.8" text-anchor="middle" x="356.5" y="921.1999999999999">2275</text><text fill="#7a7a7a" font-size="7.8" text-anchor="middle" x="602.2" y="921.1999999999999">1820</text><text fill="#7a7a7a" font-size="7.8" text-anchor="middle" x="820.6" y="921.1999999999999">1820</text><text fill="#7a7a7a" font-size="7.8" text-anchor="middle" x="984.4" y="921.1999999999999">910</text><text fill="#7a7a7a" font-size="7.8" text-anchor="middle" x="1148.1999999999998" y="921.1999999999999">1820</text><text fill="#7a7a7a" font-size="7.8" text-anchor="middle" x="1366.6" y="921.1999999999999">1820</text><line stroke="#545454" stroke-width="1.0" x1="148.0" x2="148.0" y1="220.0" y2="875.2" /><line stroke="#545454" stroke-width="0.8" x1="220.0" x2="148.0" y1="220.0" y2="220.0" /><line stroke="#545454" stroke-width="1.0" x1="145.0" x2="151.0" y1="220.0" y2="220.0" /><line stroke="#545454" stroke-width="0.8" x1="220.0" x2="148.0" y1="875.2" y2="875.2" /><line stroke="#545454" stroke-width="1.0" x1="145.0" x2="151.0" y1="875.2" y2="875.2" /><text fill="#545454" font-size="8.8" x="144.0" y="547.5999999999999">5460mm</text><line stroke="#666666" stroke-width="1.0" x1="166.0" x2="166.0" y1="220.0" y2="875.2" /><line stroke="#666666" stroke-width="0.8" x1="220.0" x2="166.0" y1="220.0" y2="220.0" /><line stroke="#666666" stroke-width="1.0" x1="163.0" x2="169.0" y1="220.0" y2="220.0" /><line stroke="#666666" stroke-width="0.8" x1="220.0" x2="166.0" y1="602.2" y2="602.2" /><line stroke="#666666" stroke-width="1.0" x1="163.0" x2="169.0" y1="602.2" y2="602.2" /><line stroke="#666666" stroke-width="0.8" x1="220.0" x2="166.0" y1="875.2" y2="875.2" /><line stroke="#666666" stroke-width="1.0" x1="163.0" x2="169.0" y1="875.2" y2="875.2" /><text fill="#666666" font-size="8.2" x="162.0" y="411.1">3185</text><text fill="#666666" font-size="8.2" x="162.0" y="738.6999999999999">2275</text><line stroke="#7a7a7a" stroke-width="1.0" x1="184.0" x2="184.0" y1="220.0" y2="875.2" /><line stroke="#7a7a7a" stroke-width="0.8" x1="220.0" x2="184.0" y1="220.0" y2="220.0" /><line stroke="#7a7a7a" stroke-width="1.0" x1="181.0" x2="187.0" y1="220.0" y2="220.0" /><line stroke="#7a7a7a" stroke-width="0.8" x1="220.0" x2="184.0" y1="329.2" y2="329.2" /><line stroke="#7a7a7a" stroke-width="1.0" x1="181.0" x2="187.0" y1="329.2" y2="329.2" /><line stroke="#7a7a7a" stroke-width="0.8" x1="220.0" x2="184.0" y1="493.0" y2="493.0" /><line stroke="#7a7a7a" stroke-width="1.0" x1="181.0" x2="187.0" y1="493.0" y2="493.0" /><line stroke="#7a7a7a" stroke-width="0.8" x1="220.0" x2="184.0" y1="875.2" y2="875.2" /><line stroke="#7a7a7a" stroke-width="1.0" x1="181.0" x2="187.0" y1="875.2" y2="875.2" /><text fill="#7a7a7a" font-size="7.8" x="180.0" y="274.6">910</text><text fill="#7a7a7a" font-size="7.8" x="180.0" y="411.1">1365</text><text fill="#7a7a7a" font-size="7.8" x="180.0" y="684.0999999999999">3185</text><line stroke="#545454" stroke-width="1.0" x1="1602.4" x2="1602.4" y1="220.0" y2="875.2" /><line stroke="#545454" stroke-width="0.8" x1="1530.4" x2="1602.4" y1="220.0" y2="220.0" /><line stroke="#545454" stroke-width="1.0" x1="1599.4" x2="1605.4" y1="220.0" y2="220.0" /><line stroke="#545454" stroke-width="0.8" x1="1530.4" x2="1602.4" y1="875.2" y2="875.2" /><line stroke="#545454" stroke-width="1.0" x1="1599.4" x2="1605.4" y1="875.2" y2="875.2" /><text fill="#545454" font-size="8.8" x="1607.3999999999999" y="547.5999999999999">5460mm</text><line stroke="#666666" stroke-width="1.0" x1="1584.4" x2="1584.4" y1="220.0" y2="875.2" /><line stroke="#666666" stroke-width="0.8" x1="1530.4" x2="1584.4" y1="220.0" y2="220.0" /><line stroke="#666666" stroke-width="1.0" x1="1581.4" x2="1587.4" y1="220.0" y2="220.0" /><line stroke="#666666" stroke-width="0.8" x1="1530.4" x2="1584.4" y1="329.2" y2="329.2" /><line stroke="#666666" stroke-width="1.0" x1="1581.4" x2="1587.4" y1="329.2" y2="329.2" /><line stroke="#666666" stroke-width="0.8" x1="1530.4" x2="1584.4" y1="493.0" y2="493.0" /><line stroke="#666666" stroke-width="1.0" x1="1581.4" x2="1587.4" y1="493.0" y2="493.0" /><line stroke="#666666" stroke-width="0.8" x1="1530.4" x2="1584.4" y1="602.2" y2="602.2" /><line stroke="#666666" stroke-width="1.0" x1="1581.4" x2="1587.4" y1="602.2" y2="602.2" /><line stroke="#666666" stroke-width="0.8" x1="1530.4" x2="1584.4" y1="875.2" y2="875.2" /><line stroke="#666666" stroke-width="1.0" x1="1581.4" x2="1587.4" y1="875.2" y2="875.2" /><text fill="#666666" font-size="8.2" x="1589.3999999999999" y="274.6">910</text><text fill="#666666" font-size="8.2" x="1589.3999999999999" y="411.1">1365</text><text fill="#666666" font-size="8.2" x="1589.3999999999999" y="547.5999999999999">910</text><text fill="#666666" font-size="8.2" x="1589.3999999999999" y="738.6999999999999">2275</text><line stroke="#7a7a7a" stroke-width="1.0" x1="1566.4" x2="1566.4" y1="220.0" y2="875.2" /><line stroke="#7a7a7a" stroke-width="0.8" x1="1530.4" x2="1566.4" y1="220.0" y2="220.0" /><line stroke="#7a7a7a" stroke-width="1.0" x1="1563.4" x2="1569.4" y1="220.0" y2="220.0" /><line stroke="#7a7a7a" stroke-width="0.8" x1="1530.4" x2="1566.4" y1="711.4" y2="711.4" /><line stroke="#7a7a7a" stroke-width="1.0" x1="1563.4" x2="1569.4" y1="711.4" y2="711.4" /><line stroke="#7a7a7a" stroke-width="0.8" x1="1530.4" x2="1566.4" y1="820.6" y2="820.6" /><line stroke="#7a7a7a" stroke-width="1.0" x1="1563.4" x2="1569.4" y1="820.6" y2="820.6" /><line stroke="#7a7a7a" stroke-width="0.8" x1="1530.4" x2="1566.4" y1="875.2" y2="875.2" /><line stroke="#7a7a7a" stroke-width="1.0" x1="1563.4" x2="1569.4" y1="875.2" y2="875.2" /><text fill="#7a7a7a" font-size="7.8" x="1571.3999999999999" y="465.7">4095</text><text fill="#7a7a7a" font-size="7.8" x="1571.3999999999999" y="766.0">910</text></svg>