<?xml version="1.0" encoding="utf-8" ?>
<svg baseProfile="tiny" height="1204.4px" version="1.2" width="1532.0px" xmlns="http://www.w3.org/2000/svg" xmlns:ev="http://www.w3.org/2001/xml-events" xmlns:xlink="http://www.w3.org/1999/xlink"><defs /><rect fill="#fafafa" height="1204.4" width="1532.0" x="0" y="0" /><line stroke="#ececec" stroke-width="0.7" x1="220.0" x2="220.0" y1="220.0" y2="984.4" /><line stroke="#ececec" stroke-width="0.7" x1="274.6" x2="274.6" y1="220.0" y2="984.4" /><line stroke="#ececec" stroke-width="0.7" x1="329.2" x2="329.2" y1="220.0" y2="984.4" /><line stroke="#ececec" stroke-width="0.7" x1="383.8" x2="383.8" y1="220.0" y2="984.4" /><line stroke="#ececec" stroke-width="0.7" x1="438.4" x2="438.4" y1="220.0" y2="984.4" /><line stroke="#ececec" stroke-width="0.7" x1="493.0" x2="493.0" y1="220.0" y2="984.4" /><line stroke="#ececec" stroke-width="0.7" x1="547.6" x2="547.6" y1="220.0" y2="984.4" /><line stroke="#ececec" stroke-width="0.7" x1="602.2" x2="602.2" y1="220.0" y2="984.4" /><line stroke="#ececec" stroke-width="0.7" x1="656.8" x2="656.8" y1="220.0" y2="984.4" /><line stroke="#ececec" stroke-width="0.7" x1="711.4" x2="711.4" y1="220.0" y2="984.4" /><line stroke="#ececec" stroke-width="0.7" x1="766.0" x2="766.0" y1="220.0" y2="984.4" /><line stroke="#ececec" stroke-width="0.7" x1="820.6" x2="820.6" y1="220.0" y2="984.4" /><line stroke="#ececec" stroke-width="0.7" x1="875.2" x2="875.2" y1="220.0" y2="984.4" /><line stroke="#ececec" stroke-width="0.7" x1="929.8" x2="929.8" y1="220.0" y2="984.4" /><line stroke="#ececec" stroke-width="0.7" x1="984.4" x2="984.4" y1="220.0" y2="984.4" /><line stroke="#ececec" stroke-width="0.7" x1="1039.0" x2="1039.0" y1="220.0" y2="984.4" /><line stroke="#ececec" stroke-width="0.7" x1="1093.6" x2="1093.6" y1="220.0" y2="984.4" /><line stroke="#ececec" stroke-width="0.7" x1="1148.2" x2="1148.2" y1="220.0" y2="984.4" /><line stroke="#ececec" stroke-width="0.7" x1="1202.8" x2="1202.8" y1="220.0" y2="984.4" /><line stroke="#ececec" stroke-width="0.7" x1="1257.4" x2="1257.4" y1="220.0" y2="984.4" /><line stroke="#ececec" stroke-width="0.7" x1="1312.0" x2="1312.0" y1="220.0" y2="984.4" /><line stroke="#d1d1d1" stroke-width="1.1" x1="220.0" x2="220.0" y1="220.0" y2="984.4" /><line stroke="#d1d1d1" stroke-width="1.1" x1="329.2" x2="329.2" y1="220.0" y2="984.4" /><line stroke="#d1d1d1" stroke-width="1.1" x1="438.4" x2="438.4" y1="220.0" y2="984.4" /><line stroke="#d1d1d1" stroke-width="1.1" x1="547.6" x2="547.6" y1="220.0" y2="984.4" /><line stroke="#d1d1d1" stroke-width="1.1" x1="656.8" x2="656.8" y1="220.0" y2="984.4" /><line stroke="#d1d1d1" stroke-width="1.1" x1="766.0" x2="766.0" y1="220.0" y2="984.4" /><line stroke="#d1d1d1" stroke-width="1.1" x1="875.2" x2="875.2" y1="220.0" y2="984.4" /><line stroke="#d1d1d1" stroke-width="1.1" x1="984.4" x2="984.4" y1="220.0" y2="984.4" /><line stroke="#d1d1d1" stroke-width="1.1" x1="1093.6" x2="1093.6" y1="220.0" y2="984.4" /><line stroke="#d1d1d1" stroke-width="1.1" x1="1202.8" x2="1202.8" y1="220.0" y2="984.4" /><line stroke="#d1d1d1" stroke-width="1.1" x1="1312.0" x2="1312.0" y1="220.0" y2="984.4" /><line stroke="#d1d1d1" stroke-width="1.1" x1="220.0" x2="1312.0" y1="220.0" y2="220.0" /><line stroke="#d1d1d1" stroke-width="1.1" x1="220.0" x2="1312.0" y1="329.2" y2="329.2" /><line stroke="#d1d1d1" stroke-width="1.1" x1="220.0" x2="1312.0" y1="438.4" y2="438.4" /><line stroke="#d1d1d1" stroke-width="1.1" x1="220.0" x2="1312.0" y1="547.6" y2="547.6" /><line stroke="#d1d1d1" stroke-width="1.1" x1="220.0" x2="1312.0" y1="656.8" y2="656.8" /><line stroke="#d1d1d1" stroke-width="1.1" x1="220.0" x2="1312.0" y1="766.0" y2="766.0" /><line stroke="#d1d1d1" stroke-width="1.1" x1="220.0" x2="1312.0" y1="875.2" y2="875.2" /><line stroke="#d1d1d1" stroke-width="1.1" x1="220.0" x2="1312.0" y1="984.4" y2="984.4" /><line stroke="#ececec" stroke-width="0.7" x1="220.0" x2="1312.0" y1="220.0" y2="220.0" /><line stroke="#ececec" stroke-width="0.7" x1="220.0" x2="1312.0" y1="274.6" y2="274.6" /><line stroke="#ececec" stroke-width="0.7" x1="220.0" x2="1312.0" y1="329.2" y2="329.2" /><line stroke="#ececec" stroke-width="0.7" x1="220.0" x2="1312.0" y1="383.8" y2="383.8" /><line stroke="#ececec" stroke-width="0.7" x1="220.0" x2="1312.0" y1="438.4" y2="438.4" /><line stroke="#ececec" stroke-width="0.7" x1="220.0" x2="1312.0" y1="493.0" y2="493.0" /><line stroke="#ececec" stroke-width="0.7" x1="220.0" x2="1312.0" y1="547.6" y2="547.6" /><line stroke="#ececec" stroke-width="0.7" x1="220.0" x2="1312.0" y1="602.2" y2="602.2" /><line stroke="#ececec" stroke-width="0.7" x1="220.0" x2="1312.0" y1="656.8" y2="656.8" /><line stroke="#ececec" stroke-width="0.7" x1="220.0" x2="1312.0" y1="711.4" y2="711.4" /><line stroke="#ececec" stroke-width="0.7" x1="220.0" x2="1312.0" y1="766.0" y2="766.0" /><line stroke="#ececec" stroke-width="0.7" x1="220.0" x2="1312.0" y1="820.6" y2="820.6" /><line stroke="#ececec" stroke-width="0.7" x1="220.0" x2="1312.0" y1="875.2" y2="875.2" /><line stroke="#ececec" stroke-width="0.7" x1="220.0" x2="1312.0" y1="929.8" y2="929.8" /><line stroke="#ececec" stroke-width="0.7" x1="220.0" x2="1312.0" y1="984.4" y2="984.4" /><rect fill="none" height="764.4" stroke="#6a6a6a" stroke-dasharray="8,4" stroke-width="2" width="1092.0" x="220.0" y="220.0" /><rect fill="none" height="764.4" stroke="#1f1f1f" stroke-width="3.5" width="1092.0" x="220.0" y="220.0" /><text fill="#555555" font-size="10" x="222.0" y="160.0">Site Envelope = Building Footprint</text><rect fill="#dcecff" height="218.4" stroke="none" width="218.4" x="984.4" y="766.0" /><line stroke="#2f2f2f" stroke-width="2.2" x1="984.4" x2="1202.8" y1="984.4" y2="984.4" /><line stroke="#2f2f2f" stroke-width="2.2" x1="984.4" x2="1202.8" y1="766.0" y2="766.0" /><line stroke="#2f2f2f" stroke-width="2.2" x1="1202.8" x2="1202.8" y1="766.0" y2="984.4" /><line stroke="#2f2f2f" stroke-width="2.2" x1="984.4" x2="984.4" y1="766.0" y2="984.4" /><rect fill="#d9f2ff" height="327.6" stroke="none" width="436.8" x="220.0" y="220.0" /><line stroke="#2f2f2f" stroke-width="2.2" x1="220.0" x2="656.8" y1="547.6" y2="547.6" /><line stroke="#2f2f2f" stroke-width="2.2" x1="220.0" x2="656.8" y1="220.0" y2="220.0" /><line stroke="#2f2f2f" stroke-width="2.2" x1="656.8" x2="656.8" y1="220.0" y2="547.6" /><line stroke="#2f2f2f" stroke-width="2.2" x1="220.0" x2="220.0" y1="220.0" y2="547.6" /><rect fill="#f8f0d9" height="163.8" stroke="none" width="273.0" x="656.8" y="220.0" /><line stroke="#2f2f2f" stroke-width="2.2" x1="656.8" x2="929.8" y1="383.8" y2="383.8" /><line stroke="#2f2f2f" stroke-width="2.2" x1="656.8" x2="929.8" y1="220.0" y2="220.0" /><line stroke="#2f2f2f" stroke-width="2.2" x1="656.8" x2="656.8" y1="220.0" y2="383.8" /><line stroke="#2f2f2f" stroke-width="2.2" x1="929.8" x2="929.8" y1="220.0" y2="383.8" /><rect fill="#efe9ff" height="109.2" stroke="none" width="109.2" x="929.8" y="220.0" /><rect fill="#efe9ff" height="218.4" stroke="none" width="273.0" x="929.8" y="329.2" /><rect fill="#efe9ff" height="273.0" stroke="none" width="109.2" x="1202.8" y="493.0" /><line stroke="#2f2f2f" stroke-width="2.2" x1="1039.0" x2="1202.8" y1="329.2" y2="329.2" /><line stroke="#2f2f2f" stroke-width="2.2" x1="929.8" x2="1039.0" y1="220.0" y2="220.0" /><line stroke="#2f2f2f" stroke-width="2.2" x1="1202.8" x2="1312.0" y1="493.0" y2="493.0" /><line stroke="#2f2f2f" stroke-width="2.2" x1="1202.8" x2="1312.0" y1="766.0" y2="766.0" /><line stroke="#2f2f2f" stroke-width="2.2" x1="929.8" x2="1202.8" y1="547.6" y2="547.6" /><line stroke="#2f2f2f" stroke-width="2.2" x1="929.8" x2="929.8" y1="220.0" y2="547.6" /><line stroke="#2f2f2f" stroke-width="2.2" x1="1202.8" x2="1202.8" y1="329.2" y2="493.0" /><line stroke="#2f2f2f" stroke-width="2.2" x1="1202.8" x2="1202.8" y1="547.6" y2="766.0" /><line stroke="#2f2f2f" stroke-width="2.2" x1="1312.0" x2="1312.0" y1="493.0" y2="766.0" /><line stroke="#2f2f2f" stroke-width="2.2" x1="1039.0" x2="1039.0" y1="220.0" y2="329.2" /><rect fill="#ffe2b8" height="436.8" stroke="none" width="764.4" x="220.0" y="547.6" /><line stroke="#2f2f2f" stroke-width="2.2" x1="220.0" x2="984.4" y1="547.6" y2="547.6" /><line stroke="#2f2f2f" stroke-width="2.2" x1="220.0" x2="984.4" y1="984.4" y2="984.4" /><line stroke="#2f2f2f" stroke-width="2.2" x1="220.0" x2="220.0" y1="547.6" y2="984.4" /><line stroke="#2f2f2f" stroke-width="2.2" x1="984.4" x2="984.4" y1="547.6" y2="984.4" /><rect fill="#f0f0f0" height="163.8" stroke="none" width="273.0" x="656.8" y="383.8" /><line stroke="#2f2f2f" stroke-width="2.2" x1="656.8" x2="929.8" y1="547.6" y2="547.6" /><line stroke="#2f2f2f" stroke-width="2.2" x1="656.8" x2="929.8" y1="383.8" y2="383.8" /><line stroke="#2f2f2f" stroke-width="2.2" x1="656.8" x2="656.8" y1="383.8" y2="547.6" /><line stroke="#2f2f2f" stroke-width="2.2" x1="929.8" x2="929.8" y1="383.8" y2="547.6" /><rect fill="#fbe7e6" height="218.4" stroke="none" width="109.2" x="1202.8" y="766.0" /><line stroke="#2f2f2f" stroke-width="2.2" x1="1202.8" x2="1312.0" y1="984.4" y2="984.4" /><line stroke="#2f2f2f" stroke-width="2.2" x1="1202.8" x2="1312.0" y1="766.0" y2="766.0" /><line stroke="#2f2f2f" stroke-width="2.2" x1="1202.8" x2="1202.8" y1="766.0" y2="984.4" /><line stroke="#2f2f2f" stroke-width="2.2" x1="1312.0" x2="1312.0" y1="766.0" y2="984.4" /><rect fill="#e7fbfb" height="218.4" stroke="none" width="218.4" x="984.4" y="547.6" /><line stroke="#2f2f2f" stroke-width="2.2" x1="984.4" x2="1202.8" y1="766.0" y2="766.0" /><line stroke="#2f2f2f" stroke-width="2.2" x1="984.4" x2="1202.8" y1="547.6" y2="547.6" /><line stroke="#2f2f2f" stroke-width="2.2" x1="1202.8" x2="1202.8" y1="547.6" y2="766.0" /><line stroke="#2f2f2f" stroke-width="2.2" x1="984.4" x2="984.4" y1="547.6" y2="766.0" /><rect fill="#f7f3ea" fill-opacity="0.35" height="327.6" stroke="#9a9a9a" stroke-dasharray="4,3" stroke-width="0.9" width="109.2" x="547.6" y="220.0" /><line stroke="#9c9c9c" stroke-opacity="0.7" stroke-width="0.8" x1="547.6" x2="566.8" y1="528.4" y2="547.6" /><line stroke="#9c9c9c" stroke-opacity="0.7" stroke-width="0.8" x1="547.6" x2="586.0" y1="509.2" y2="547.6" /><line stroke="#9c9c9c" stroke-opacity="0.7" stroke-width="0.8" x1="547.6" x2="605.2" y1="490.0" y2="547.6" /><line stroke="#9c9c9c" stroke-opacity="0.7" stroke-width="0.8" x1="547.6" x2="624.4" y1="470.8" y2="547.6" /><line stroke="#9c9c9c" stroke-opacity="0.7" stroke-width="0.8" x1="547.6" x2="643.6" y1="451.6" y2="547.6" /><line stroke="#9c9c9c" stroke-opacity="0.7" stroke-width="0.8" x1="547.6" x2="656.8" y1="432.4" y2="541.6" /><line stroke="#9c9c9c" stroke-opacity="0.7" stroke-width="0.8" x1="547.6" x2="656.8" y1="413.2" y2="522.4" /><line stroke="#9c9c9c" stroke-opacity="0.7" stroke-width="0.8" x1="547.6" x2="656.8" y1="394.0" y2="503.2" /><line stroke="#9c9c9c" stroke-opacity="0.7" stroke-width="0.8" x1="547.6" x2="656.8" y1="374.8" y2="484.0" /><line stroke="#9c9c9c" stroke-opacity="0.7" stroke-width="0.8" x1="547.6" x2="656.8" y1="355.6" y2="464.8" /><line stroke="#9c9c9c" stroke-opacity="0.7" stroke-width="0.8" x1="547.6" x2="656.8" y1="336.4" y2="445.6" /><line stroke="#9c9c9c" stroke-opacity="0.7" stroke-width="0.8" x1="547.6" x2="656.8" y1="317.2" y2="426.4" /><line stroke="#9c9c9c" stroke-opacity="0.7" stroke-width="0.8" x1="547.6" x2="656.8" y1="298.0" y2="407.2" /><line stroke="#9c9c9c" stroke-opacity="0.7" stroke-width="0.8" x1="547.6" x2="656.8" y1="278.8" y2="388.0" /><line stroke="#9c9c9c" stroke-opacity="0.7" stroke-width="0.8" x1="547.6" x2="656.8" y1="259.6" y2="368.8" /><line stroke="#9c9c9c" stroke-opacity="0.7" stroke-width="0.8" x1="547.6" x2="656.8" y1="240.4" y2="349.6" /><line stroke="#9c9c9c" stroke-opacity="0.7" stroke-width="0.8" x1="547.6" x2="656.8" y1="221.2" y2="330.4" /><line stroke="#9c9c9c" stroke-opacity="0.7" stroke-width="0.8" x1="565.6" x2="656.8" y1="220.0" y2="311.2" /><line stroke="#9c9c9c" stroke-opacity="0.7" stroke-width="0.8" x1="584.8" x2="656.8" y1="220.0" y2="292.0" /><line stroke="#9c9c9c" stroke-opacity="0.7" stroke-width="0.8" x1="604.0" x2="656.8" y1="220.0" y2="272.8" /><line stroke="#9c9c9c" stroke-opacity="0.7" stroke-width="0.8" x1="623.2" x2="656.8" y1="220.0" y2="253.6" /><line stroke="#9c9c9c" stroke-opacity="0.7" stroke-width="0.8" x1="642.4" x2="656.8" y1="220.0" y2="234.4" /><rect fill="none" height="43.68" stroke="#8a6b4a" stroke-width="1.0" width="244.608" x="632.776" y="591.28" /><rect fill="none" height="96.096" stroke="#8a6b4a" stroke-width="1.0" width="39.312" x="838.072" y="591.28" /><circle cx="707.5888" cy="613.12" fill="none" r="8.4" stroke="#8a6b4a" stroke-width="0.9" /><circle cx="729.1888" cy="613.12" fill="none" r="8.4" stroke="#8a6b4a" stroke-width="0.9" /><rect fill="none" height="23.063" stroke="#8a6b4a" stroke-width="0.9" width="26.7322" x="843.9688" y="631.6403" /><rect fill="none" height="52.416" stroke="#8a6b4a" stroke-width="1.0" width="163.8" x="525.76" y="731.056" /><rect fill="none" height="111.384" stroke="#7f7f7f" stroke-width="1.1" width="218.4" x="329.2" y="278.968" /><line stroke="#7f7f7f" stroke-width="0.9" x1="329.2" x2="547.6" y1="317.9524" y2="317.9524" /><rect fill="none" height="48.048" stroke="#6f6f6f" stroke-width="1.0" width="74.256" x="1023.712" y="586.912" /><rect fill="none" height="48.048" stroke="#6f6f6f" stroke-width="1.0" width="74.256" x="1111.072" y="586.912" /><line stroke="#8f8f8f" stroke-width="0.8" x1="1014.976" x2="1172.224" y1="572.512" y2="572.512" /><circle cx="1176.4" cy="574.0" fill="none" r="8.4" stroke="#7c7c7c" stroke-width="0.9" /><line stroke="#7c7c7c" stroke-width="0.8" x1="1165.6" x2="1187.2" y1="574.0" y2="574.0" /><line stroke="#7c7c7c" stroke-width="0.8" x1="1176.4" x2="1176.4" y1="563.2" y2="584.8" /><rect fill="none" height="109.2" rx="6" ry="6" stroke="#6f6f6f" stroke-width="1.0" width="135.408" x="1028.08" y="814.048" /><circle cx="1176.4" cy="792.4" fill="none" r="8.4" stroke="#7c7c7c" stroke-width="0.9" /><line stroke="#7c7c7c" stroke-width="0.8" x1="1165.6" x2="1187.2" y1="792.4" y2="792.4" /><line stroke="#7c7c7c" stroke-width="0.8" x1="1176.4" x2="1176.4" y1="781.6" y2="803.2" /><line stroke="#9a9a9a" stroke-width="0.9" x1="689.56" x2="897.04" y1="413.284" y2="413.284" /><line stroke="#9a9a9a" stroke-width="0.9" x1="689.56" x2="897.04" y1="518.116" y2="518.116" /><rect fill="#ffffff" height="109.2" stroke="#202020" stroke-dasharray="8,4" stroke-width="2.6" width="163.8" x="1039.0" y="220.0" /><rect fill="#ffffff" height="109.2" stroke="#202020" stroke-dasharray="8,4" stroke-width="2.6" width="109.2" x="1202.8" y="220.0" /><rect fill="#ffffff" height="163.8" stroke="#202020" stroke-dasharray="8,4" stroke-width="2.6" width="109.2" x="1202.8" y="329.2" /><line stroke="#2a2a2a" stroke-width="1.4" x1="1062.4" x2="1062.4" y1="220.0" y2="329.2" /><line stroke="#2a2a2a" stroke-width="1.4" x1="1085.8" x2="1085.8" y1="220.0" y2="329.2" /><line stroke="#2a2a2a" stroke-width="1.4" x1="1109.2" x2="1109.2" y1="220.0" y2="329.2" /><line stroke="#2a2a2a" stroke-width="1.4" x1="1132.6" x2="1132.6" y1="220.0" y2="329.2" /><line stroke="#2a2a2a" stroke-width="1.4" x1="1156.0" x2="1156.0" y1="220.0" y2="329.2" /><line stroke="#2a2a2a" stroke-width="1.4" x1="1179.4" x2="1179.4" y1="220.0" y2="329.2" /><line stroke="#2a2a2a" stroke-width="1.4" x1="1202.8" x2="1312.0" y1="352.6" y2="352.6" /><line stroke="#2a2a2a" stroke-width="1.4" x1="1202.8" x2="1312.0" y1="376.0" y2="376.0" /><line stroke="#2a2a2a" stroke-width="1.4" x1="1202.8" x2="1312.0" y1="399.4" y2="399.4" /><line stroke="#2a2a2a" stroke-width="1.4" x1="1202.8" x2="1312.0" y1="422.8" y2="422.8" /><line stroke="#2a2a2a" stroke-width="1.4" x1="1202.8" x2="1312.0" y1="446.2" y2="446.2" /><line stroke="#2a2a2a" stroke-width="1.4" x1="1202.8" x2="1312.0" y1="469.6" y2="469.6" /><text fill="#202020" font-size="11" text-anchor="middle" x="1120.9" y="274.6">Stair (UP)</text><text fill="#3a3a3a" font-size="9.0" text-anchor="middle" x="1120.9" y="289.0">13R/12T</text><text fill="#4a4a4a" font-size="7.8" text-anchor="middle" x="1120.9" y="297.4">H2730 R210 T228</text><line stroke="#ffffff" stroke-width="7" x1="1039.0" x2="1039.0" y1="220.0" y2="329.2" /><line stroke="#5e5e5e" stroke-width="1.0" x1="1039.0" x2="1039.0" y1="220.0" y2="329.2" /><line stroke="#ffffff" stroke-width="6" x1="929.8" x2="929.8" y1="229.0" y2="320.2" /><line stroke="#ffffff" stroke-width="6" x1="911.5" x2="1002.7" y1="547.6" y2="547.6" /><line stroke="#ffffff" stroke-width="6" x1="1211.8" x2="1303.0" y1="766.0" y2="766.0" /><line stroke="#ffffff" stroke-width="6" x1="1044.46" x2="1142.74" y1="547.6" y2="547.6" /><line stroke="#ffffff" stroke-width="6" x1="1044.46" x2="1142.74" y1="766.0" y2="766.0" /><line stroke="#595959" stroke-width="1.2" x1="1044.46" x2="1108.342" y1="766.0" y2="702.118" /><path d="M 1108.342,766.0 A 63.882,63.882 0 0 1 1108.342,702.1179999999999" fill="none" stroke="#7a7a7a" stroke-width="1.0" /><line stroke="#ffffff" stroke-width="6" x1="379.6" x2="497.2" y1="547.6" y2="547.6" /><line stroke="#ffffff" stroke-width="6" x1="734.5" x2="852.1" y1="547.6" y2="547.6" /><line stroke="#ffffff" stroke-width="7" x1="734.5" x2="852.1" y1="220.0" y2="220.0" /><line stroke="#595959" stroke-width="1.2" x1="734.5" x2="810.94" y1="220.0" y2="296.44" /><path d="M 810.9399999999999,220.0 A 76.44,76.44 0 0 1 810.9399999999999,296.44" fill="none" stroke="#7a7a7a" stroke-width="1.0" /><line stroke="#66a7ff" stroke-width="2.2" x1="217.36" x2="217.36" y1="595.684" y2="744.124" /><line stroke="#66a7ff" stroke-width="2.2" x1="222.64" x2="222.64" y1="595.684" y2="744.124" /><line stroke="#66a7ff" stroke-width="2.2" x1="217.36" x2="217.36" y1="787.876" y2="936.316" /><line stroke="#66a7ff" stroke-width="2.2" x1="222.64" x2="222.64" y1="787.876" y2="936.316" /><line stroke="#66a7ff" stroke-width="2.2" x1="338.032" x2="530.032" y1="981.76" y2="981.76" /><line stroke="#66a7ff" stroke-width="2.2" x1="338.032" x2="530.032" y1="987.04" y2="987.04" /><line stroke="#66a7ff" stroke-width="2.2" x1="674.368" x2="866.368" y1="981.76" y2="981.76" /><line stroke="#66a7ff" stroke-width="2.2" x1="674.368" x2="866.368" y1="987.04" y2="987.04" /><line stroke="#66a7ff" stroke-width="2.2" x1="217.36" x2="217.36" y1="328.12" y2="439.48" /><line stroke="#66a7ff" stroke-width="2.2" x1="222.64" x2="222.64" y1="328.12" y2="439.48" /><line stroke="#66a7ff" stroke-width="2.2" x1="268.084" x2="416.524" y1="217.36" y2="217.36" /><line stroke="#66a7ff" stroke-width="2.2" x1="268.084" x2="416.524" y1="222.64" y2="222.64" /><line stroke="#66a7ff" stroke-width="2.2" x1="460.276" x2="608.716" y1="217.36" y2="217.36" /><line stroke="#66a7ff" stroke-width="2.2" x1="460.276" x2="608.716" y1="222.64" y2="222.64" /><line stroke="#9a9a9a" stroke-width="0.8" x1="938.2" x2="1194.4" y1="337.6" y2="337.6" /><line stroke="#9a9a9a" stroke-width="0.8" x1="938.2" x2="938.2" y1="334.24" y2="340.96" /><line stroke="#9a9a9a" stroke-width="0.8" x1="1194.4" x2="1194.4" y1="334.24" y2="340.96" /><text fill="#8a8a8a" font-size="7.6" text-anchor="start" x="944.92" y="334.96">2275mm</text><line stroke="#9a9a9a" stroke-width="0.8" x1="938.2" x2="938.2" y1="337.6" y2="539.2" /><line stroke="#9a9a9a" stroke-width="0.8" x1="934.84" x2="941.56" y1="337.6" y2="337.6" /><line stroke="#9a9a9a" stroke-width="0.8" x1="934.84" x2="941.56" y1="539.2" y2="539.2" /><text fill="#8a8a8a" font-size="7.6" text-anchor="start" x="942.28" y="345.28">1820mm</text><line stroke="#9a9a9a" stroke-width="0.8" x1="1211.2" x2="1303.6" y1="501.4" y2="501.4" /><line stroke="#9a9a9a" stroke-width="0.8" x1="1211.2" x2="1211.2" y1="498.04" y2="504.76" /><line stroke="#9a9a9a" stroke-width="0.8" x1="1303.6" x2="1303.6" y1="498.04" y2="504.76" /><text fill="#8a8a8a" font-size="7.6" text-anchor="start" x="1217.92" y="498.76">910mm</text><line stroke="#9a9a9a" stroke-width="0.8" x1="1211.2" x2="1211.2" y1="501.4" y2="757.6" /><line stroke="#9a9a9a" stroke-width="0.8" x1="1207.84" x2="1214.56" y1="501.4" y2="501.4" /><line stroke="#9a9a9a" stroke-width="0.8" x1="1207.84" x2="1214.56" y1="757.6" y2="757.6" /><text fill="#8a8a8a" font-size="7.6" text-anchor="start" x="1215.28" y="509.08">2275mm</text><text fill="#1b1b1b" font-size="10" text-anchor="middle" x="1093.6" y="860.8">Bath 1</text><text fill="#1b1b1b" font-size="10" text-anchor="middle" x="1093.6" y="871.6">1820x1820mm</text><text fill="#1b1b1b" font-size="10" text-anchor="middle" x="1093.6" y="882.4">3.3sqm / 2.0jo</text><text fill="#1b1b1b" font-size="10" text-anchor="middle" x="438.4" y="369.4">Bedroom 1</text><text fill="#1b1b1b" font-size="10" text-anchor="middle" x="438.4" y="380.2">3640x2730mm</text><text fill="#1b1b1b" font-size="10" text-anchor="middle" x="438.4" y="391.0">9.9sqm / 6.1jo</text><text fill="#1b1b1b" font-size="10" text-anchor="middle" x="793.3" y="287.5">Entry</text><text fill="#1b1b1b" font-size="10" text-anchor="middle" x="793.3" y="298.3">2275x1365mm</text><text fill="#1b1b1b" font-size="10" text-anchor="middle" x="793.3" y="309.1">3.1sqm / 1.9jo</text><text fill="#1b1b1b" font-size="9" text-anchor="middle" x="1112.8705882352942" y="460.93529411764706">Hall 1</text><text fill="#1b1b1b" font-size="9" text-anchor="middle" x="1112.8705882352942" y="471.7352941176471">7.0sqm / 4.3jo</text><text fill="#1b1b1b" font-size="10" text-anchor="middle" x="602.2" y="751.6">Ldk</text><text fill="#1b1b1b" font-size="10" text-anchor="middle" x="602.2" y="762.4">6370x3640mm</text><text fill="#1b1b1b" font-size="10" text-anchor="middle" x="602.2" y="773.1999999999999">23.2sqm / 14.3jo</text><text fill="#1b1b1b" font-size="10" text-anchor="middle" x="793.3" y="451.29999999999995">Pantry 1</text><text fill="#1b1b1b" font-size="10" text-anchor="middle" x="793.3" y="462.1">2275x1365mm</text><text fill="#1b1b1b" font-size="10" text-anchor="middle" x="793.3" y="472.9">3.1sqm / 1.9jo</text><text fill="#1b1b1b" font-size="10" text-anchor="middle" x="1257.3999999999999" y="860.8">Toilet 1</text><text fill="#1b1b1b" font-size="10" text-anchor="middle" x="1257.3999999999999" y="871.6">910x1820mm</text><text fill="#1b1b1b" font-size="10" text-anchor="middle" x="1257.3999999999999" y="882.4">1.7sqm / 1.0jo</text><text fill="#1b1b1b" font-size="10" text-anchor="middle" x="1093.6" y="642.4">Wash 1</text><text fill="#1b1b1b" font-size="10" text-anchor="middle" x="1093.6" y="653.2">1820x1820mm</text><text fill="#1b1b1b" font-size="10" text-anchor="middle" x="1093.6" y="664.0">3.3sqm / 2.0jo</text><text fill="#4a4a4a" font-size="10" text-anchor="middle" x="602.2" y="383.79999999999995">CL</text><text fill="#111111" font-size="14" x="220.0" y="180.0">F1 Plan  (9100 x 6370 mm)</text><text fill="#444444" font-size="10" x="220.0" y="198.0">Scale: 1px=8.3mm</text><rect fill="#ffffff" height="216" stroke="#777777" stroke-width="1" width="170" x="1400.0" y="150.0" /><text fill="#111111" font-size="11" x="1408.0" y="164.0">Legend</text><rect fill="#f8f0d9" height="12" stroke="#333333" stroke-width="1" width="12" x="1408.0" y="174.0" /><text fill="#222222" font-size="10" x="1426.0" y="184.0">Entry</text><rect fill="#efe9ff" height="12" stroke="#333333" stroke-width="1" width="12" x="1408.0" y="192.0" /><text fill="#222222" font-size="10" x="1426.0" y="202.0">Hall</text><rect fill="#ffe2b8" height="12" stroke="#333333" stroke-width="1" width="12" x="1408.0" y="210.0" /><text fill="#222222" font-size="10" x="1426.0" y="220.0">Ldk</text><rect fill="#d9f2ff" height="12" stroke="#333333" stroke-width="1" width="12" x="1408.0" y="228.0" /><text fill="#222222" font-size="10" x="1426.0" y="238.0">Bedroom</text><rect fill="#fbe7e6" height="12" stroke="#333333" stroke-width="1" width="12" x="1408.0" y="246.0" /><text fill="#222222" font-size="10" x="1426.0" y="256.0">Toilet</text><rect fill="#e7fbfb" height="12" stroke="#333333" stroke-width="1" width="12" x="1408.0" y="264.0" /><text fill="#222222" font-size="10" x="1426.0" y="274.0">Washroom</text><rect fill="#dcecff" height="12" stroke="#333333" stroke-width="1" width="12" x="1408.0" y="282.0" /><text fill="#222222" font-size="10" x="1426.0" y="292.0">Bath</text><rect fill="#f7f3ea" height="12" stroke="#333333" stroke-width="1" width="12" x="1408.0" y="300.0" /><text fill="#222222" font-size="10" x="1426.0" y="310.0">Closet</text><rect fill="#f0f0f0" height="12" stroke="#333333" stroke-width="1" width="12" x="1408.0" y="318.0" /><text fill="#222222" font-size="10" x="1426.0" y="328.0">Storage</text><line stroke="#6aa4ff" stroke-width="4" x1="1408.0" x2="1435.0" y1="348.0" y2="348.0" /><text fill="#222222" font-size="10" x="1442.0" y="351.0">Window</text><line stroke="#666666" stroke-width="2.4" x1="1408.0" x2="1435.0" y1="364.0" y2="364.0" /><path d="M 1408.0,364.0 A 10,10 0 0 1 1418.0,354.0" fill="none" stroke="#666666" stroke-width="1.2" /><text fill="#222222" font-size="10" x="1442.0" y="367.0">Door</text><rect fill="#ffffff" height="84" stroke="#777777" stroke-width="1" width="200" x="1400.0" y="520.0" /><text fill="#111111" font-size="10" x="1408.0" y="533.0">Area (F1)</text><text fill="#222222" font-size="9" x="1408.0" y="550.0">F1: in 58.0 sqm (17.5 tsubo), out 0.0 sqm (0.0 tsubo)</text><text fill="#222222" font-size="9" x="1408.0" y="566.0">F2: in 58.0 sqm (17.5 tsubo), out 0.0 sqm (0.0 tsubo)</text><text fill="#222222" font-size="9" x="1408.0" y="582.0">Total indoor: 115.9 sqm (35.1 tsubo)</text><text fill="#222222" font-size="9" x="1408.0" y="598.0">Total outdoor: 0.0 sqm (0.0 tsubo)</text><line stroke="#111111" stroke-width="2" x1="175.0" x2="175.0" y1="238.0" y2="208.0" /><polygon fill="#111111" points="175.0,208.0 181.0,214.0 169.0,214.0" /><text fill="#111111" font-size="12" x="170.0" y="202.0">N</text><line stroke="#545454" stroke-width="1.0" x1="220.0" x2="1312.0" y1="148.0" y2="148.0" /><line stroke="#545454" stroke-width="0.8" x1="220.0" x2="220.0" y1="220.0" y2="148.0" /><line stroke="#545454" stroke-width="1.0" x1="220.0" x2="220.0" y1="145.0" y2="151.0" /><line stroke="#545454" stroke-width="0.8" x1="1312.0" x2="1312.0" y1="220.0" y2="148.0" /><line stroke="#545454" stroke-width="1.0" x1="1312.0" x2="1312.0" y1="145.0" y2="151.0" /><text fill="#545454" font-size="8.8" text-anchor="middle" x="766.0" y="145.0">9100mm</text><line stroke="#666666" stroke-width="1.0" x1="220.0" x2="1312.0" y1="166.0" y2="166.0" /><line stroke="#666666" stroke-width="0.8" x1="220.0" x2="220.0" y1="220.0" y2="166.0" /><line stroke="#666666" stroke-width="1.0" x1="220.0" x2="220.0" y1="163.0" y2="169.0" /><line stroke="#666666" stroke-width="0.8" x1="656.8" x2="656.8" y1="220.0" y2="166.0" /><line stroke="#666666" stroke-width="1.0" x1="656.8" x2="656.8" y1="163.0" y2="169.0" /><line stroke="#666666" stroke-width="0.8" x1="929.8" x2="929.8" y1="220.0" y2="166.0" /><line stroke="#666666" stroke-width="1.0" x1="929.8" x2="929.8" y1="163.0" y2="169.0" /><line stroke="#666666" stroke-width="0.8" x1="1039.0" x2="1039.0" y1="220.0" y2="166.0" /><line stroke="#666666" stroke-width="1.0" x1="1039.0" x2="1039.0" y1="163.0" y2="169.0" /><line stroke="#666666" stroke-width="0.8" x1="1202.8" x2="1202.8" y1="220.0" y2="166.0" /><line stroke="#666666" stroke-width="1.0" x1="1202.8" x2="1202.8" y1="163.0" y2="169.0" /><line stroke="#666666" stroke-width="0.8" x1="1312.0" x2="1312.0" y1="220.0" y2="166.0" /><line stroke="#666666" stroke-width="1.0" x1="1312.0" x2="1312.0" y1="163.0" y2="169.0" /><text fill="#666666" font-size="8.2" text-anchor="middle" x="438.4" y="163.0">3640</text><text fill="#666666" font-size="8.2" text-anchor="middle" x="793.3" y="163.0">2275</text><text fill="#666666" font-size="8.2" text-anchor="middle" x="984.4" y="163.0">910</text><text fill="#666666" font-size="8.2" text-anchor="middle" x="1120.9" y="163.0">1365</text><text fill="#666666" font-size="8.2" text-anchor="middle" x="1257.3999999999999" y="163.0">910</text><line stroke="#7a7a7a" stroke-width="1.0" x1="220.0" x2="1312.0" y1="184.0" y2="184.0" /><line stroke="#7a7a7a" stroke-width="0.8" x1="220.0" x2="220.0" y1="220.0" y2="184.0" /><line stroke="#7a7a7a" stroke-width="1.0" x1="220.0" x2="220.0" y1="181.0" y2="187.0" /><line stroke="#7a7a7a" stroke-width="0.8" x1="274.6" x2="274.6" y1="220.0" y2="184.0" /><line stroke="#7a7a7a" stroke-width="1.0" x1="274.6" x2="274.6" y1="181.0" y2="187.0" /><line stroke="#7a7a7a" stroke-width="0.8" x1="438.4" x2="438.4" y1="220.0" y2="184.0" /><line stroke="#7a7a7a" stroke-width="1.0" x1="438.4" x2="438.4" y1="181.0" y2="187.0" /><line stroke="#7a7a7a" stroke-width="0.8" x1="602.2" x2="602.2" y1="220.0" y2="184.0" /><line stroke="#7a7a7a" stroke-width="1.0" x1="602.2" x2="602.2" y1="181.0" y2="187.0" /><line stroke="#7a7a7a" stroke-width="0.8" x1="711.4" x2="711.4" y1="220.0" y2="184.0" /><line stroke="#7a7a7a" stroke-width="1.0" x1="711.4" x2="711.4" y1="181.0" y2="187.0" /><line stroke="#7a7a7a" stroke-width="0.8" x1="875.2" x2="875.2" y1="220.0" y2="184.0" /><line stroke="#7a7a7a" stroke-width="1.0" x1="875.2" x2="875.2" y1="181.0" y2="187.0" /><line stroke="#7a7a7a" stroke-width="0.8" x1="1312.0" x2="1312.0" y1="220.0" y2="184.0" /><line stroke="#7a7a7a" stroke-width="1.0" x1="1312.0" x2="1312.0" y1="181.0" y2="187.0" /><text fill="#7a7a7a" font-size="7.8" text-anchor="middle" x="356.5" y="181.0">1365</text><text fill="#7a7a7a" font-size="7.8" text-anchor="middle" x="520.3" y="181.0">1365</text><text fill="#7a7a7a" font-size="7.8" text-anchor="middle" x="656.8" y="181.0">910</text><text fill="#7a7a7a" font-size="7.8" text-anchor="middle" x="793.3" y="181.0">1365</text><text fill="#7a7a7a" font-size="7.8" text-anchor="middle" x="1093.6" y="181.0">3640</text><line stroke="#545454" stroke-width="1.0" x1="220.0" x2="1312.0" y1="1056.4" y2="1056.4" /><line stroke="#545454" stroke-width="0.8" x1="220.0" x2="220.0" y1="984.4" y2="1056.4" /><line stroke="#545454" stroke-width="1.0" x1="220.0" x2="220.0" y1="1053.4" y2="1059.4" /><line stroke="#545454" stroke-width="0.8" x1="1312.0" x2="1312.0" y1="984.4" y2="1056.4" /><line stroke="#545454" stroke-width="1.0" x1="1312.0" x2="1312.0" y1="1053.4" y2="1059.4" /><text fill="#545454" font-size="8.8" text-anchor="middle" x="766.0" y="1066.4">9100mm</text><line stroke="#666666" stroke-width="1.0" x1="220.0" x2="1312.0" y1="1038.4" y2="1038.4" /><line stroke="#666666" stroke-width="0.8" x1="220.0" x2="220.0" y1="984.4" y2="1038.4" /><line stroke="#666666" stroke-width="1.0" x1="220.0" x2="220.0" y1="1035.4" y2="1041.4" /><line stroke="#666666" stroke-width="0.8" x1="984.4" x2="984.4" y1="984.4" y2="1038.4" /><line stroke="#666666" stroke-width="1.0" x1="984.4" x2="984.4" y1="1035.4" y2="1041.4" /><line stroke="#666666" stroke-width="0.8" x1="1202.8" x2="1202.8" y1="984.4" y2="1038.4" /><line stroke="#666666" stroke-width="1.0" x1="1202.8" x2="1202.8" y1="1035.4" y2="1041.4" /><line stroke="#666666" stroke-width="0.8" x1="1312.0" x2="1312.0" y1="984.4" y2="1038.4" /><line stroke="#666666" stroke-width="1.0" x1="1312.0" x2="1312.0" y1="1035.4" y2="1041.4" /><text fill="#666666" font-size="8.2" text-anchor="middle" x="602.2" y="1048.4">6370</text><text fill="#666666" font-size="8.2" text-anchor="middle" x="1093.6" y="1048.4">1820</text><text fill="#666666" font-size="8.2" text-anchor="middle" x="1257.3999999999999" y="1048.4">910</text><line stroke="#7a7a7a" stroke-width="1.0" x1="220.0" x2="1312.0" y1="1020.4" y2="1020.4" /><line stroke="#7a7a7a" stroke-width="0.8" x1="220.0" x2="220.0" y1="984.4" y2="1020.4" /><line stroke="#7a7a7a" stroke-width="1.0" x1="220.0" x2="220.0" y1="1017.4" y2="1023.4" /><line stroke="#7a7a7a" stroke-width="0.8" x1="329.2" x2="329.2" y1="984.4" y2="1020.4" /><line stroke="#7a7a7a" stroke-width="1.0" x1="329.2" x2="329.2" y1="1017.4" y2="1023.4" /><line stroke="#7a7a7a" stroke-width="0.8" x1="547.6" x2="547.6" y1="984.4" y2="1020.4" /><line stroke="#7a7a7a" stroke-width="1.0" x1="547.6" x2="547.6" y1="1017.4" y2="1023.4" /><line stroke="#7a7a7a" stroke-width="0.8" x1="656.8" x2="656.8" y1="984.4" y2="1020.4" /><line stroke="#7a7a7a" stroke-width="1.0" x1="656.8" x2="656.8" y1="1017.4" y2="1023.4" /><line stroke="#7a7a7a" stroke-width="0.8" x1="875.2" x2="875.2" y1="984.4" y2="1020.4" /><line stroke="#7a7a7a" stroke-width="1.0" x1="875.2" x2="875.2" y1="1017.4" y2="1023.4" /><line stroke="#7a7a7a" stroke-width="0.8" x1="1312.0" x2="1312.0" y1="984.4" y2="1020.4" /><line stroke="#7a7a7a" stroke-width="1.0" x1="1312.0" x2="1312.0" y1="1017.4" y2="1023.4" /><text fill="#7a7a7a" font-size="7.8" text-anchor="middle" x="274.6" y="1030.4">910</text><text fill="#7a7a7a" font-size="7.8" text-anchor="middle" x="438.4" y="1030.4">1820</text><text fill="#7a7a7a" font-size="7.8" text-anchor="middle" x="602.2" y="1030.4">910</text><text fill="#7a7a7a" font-size="7.8" text-anchor="middle" x="766.0" y="1030.4">1820</text><text fill="#7a7a7a" font-size="7.8" text-anchor="middle" x="1093.6" y="1030.4">3640</text><line stroke="#545454" stroke-width="1.0" x1="148.0" x2="148.0" y1="220.0" y2="984.4" /><line stroke="#545454" stroke-width="0.8" x1="220.0" x2="148.0" y1="220.0" y2="220.0" /><line stroke="#545454" stroke-width="1.0" x1="145.0" x2="151.0" y1="220.0" y2="220.0" /><line stroke="#545454" stroke-width="0.8" x1="220.0" x2="148.0" y1="984.4" y2="984.4" /><line stroke="#545454" stroke-width="1.0" x1="145.0" x2="151.0" y1="984.4" y2="984.4" /><text fill="#545454" font-size="8.8" x="144.0" y="602.2">6370mm</text><line stroke="#666666" stroke-width="1.0" x1="166.0" x2="166.0" y1="220.0" y2="984.4" /><line stroke="#666666" stroke-width="0.8" x1="220.0" x2="166.0" y1="220.0" y2="220.0" /><line stroke="#666666" stroke-width="1.0" x1="163.0" x2="169.0" y1="220.0" y2="220.0" /><line stroke="#666666" stroke-width="0.8" x1="220.0" x2="166.0" y1="547.6" y2="547.6" /><line stroke="#666666" stroke-width="1.0" x1="163.0" x2="169.0" y1="547.6" y2="547.6" /><line stroke="#666666" stroke-width="0.8" x1="220.0" x2="166.0" y1="984.4" y2="984.4" /><line stroke="#666666" stroke-width="1.0" x1="163.0" x2="169.0" y1="984.4" y2="984.4" /><text fill="#666666" font-size="8.2" x="162.0" y="383.79999999999995">2730</text><text fill="#666666" font-size="8.2" x="162.0" y="766.0">3640</text><line stroke="#7a7a7a" stroke-width="1.0" x1="184.0" x2="184.0" y1="220.0" y2="984.4" /><line stroke="#7a7a7a" stroke-width="0.8" x1="220.0" x2="184.0" y1="220.0" y2="220.0" /><line stroke="#7a7a7a" stroke-width="1.0" x1="181.0" x2="187.0" y1="220.0" y2="220.0" /><line stroke="#7a7a7a" stroke-width="0.8" x1="220.0" x2="184.0" y1="329.2" y2="329.2" /><line stroke="#7a7a7a" stroke-width="1.0" x1="181.0" x2="187.0" y1="329.2" y2="329.2" /><line stroke="#7a7a7a" stroke-width="0.8" x1="220.0" x2="184.0" y1="438.4" y2="438.4" /><line stroke="#7a7a7a" stroke-width="1.0" x1="181.0" x2="187.0" y1="438.4" y2="438.4" /><line stroke="#7a7a7a" stroke-width="0.8" x1="220.0" x2="184.0" y1="602.2" y2="602.2" /><line stroke="#7a7a7a" stroke-width="1.0" x1="181.0" x2="187.0" y1="602.2" y2="602.2" /><line stroke="#7a7a7a" stroke-width="0.8" x1="220.0" x2="184.0" y1="766.0" y2="766.0" /><line stroke="#7a7a7a" stroke-width="1.0" x1="181.0" x2="187.0" y1="766.0" y2="766.0" /><line stroke="#7a7a7a" stroke-width="0.8" x1="220.0" x2="184.0" y1="929.8" y2="929.8" /><line stroke="#7a7a7a" stroke-width="1.0" x1="181.0" x2="187.0" y1="929.8" y2="929.8" /><line stroke="#7a7a7a" stroke-width="0.8" x1="220.0" x2="184.0" y1="984.4" y2="984.4" /><line stroke="#7a7a7a" stroke-width="1.0" x1="181.0" x2="187.0" y1="984.4" y2="984.4" /><text fill="#7a7a7a" font-size="7.8" x="180.0" y="274.6">910</text><text fill="#7a7a7a" font-size="7.8" x="180.0" y="383.79999999999995">910</text><text fill="#7a7a7a" font-size="7.8" x="180.0" y="520.3">1365</text><text fill="#7a7a7a" font-size="7.8" x="180.0" y="684.0999999999999">1365</text><text fill="#7a7a7a" font-size="7.8" x="180.0" y="847.9">1365</text><line stroke="#545454" stroke-width="1.0" x1="1384.0" x2="1384.0" y1="220.0" y2="984.4" /><line stroke="#545454" stroke-width="0.8" x1="1312.0" x2="1384.0" y1="220.0" y2="220.0" /><line stroke="#545454" stroke-width="1.0" x1="1381.0" x2="1387.0" y1="220.0" y2="220.0" /><line stroke="#545454" stroke-width="0.8" x1="1312.0" x2="1384.0" y1="984.4" y2="984.4" /><line stroke="#545454" stroke-width="1.0" x1="1381.0" x2="1387.0" y1="984.4" y2="984.4" /><text fill="#545454" font-size="8.8" x="1389.0" y="602.2">6370mm</text><line stroke="#666666" stroke-width="1.0" x1="1366.0" x2="1366.0" y1="220.0" y2="984.4" /><line stroke="#666666" stroke-width="0.8" x1="1312.0" x2="1366.0" y1="220.0" y2="220.0" /><line stroke="#666666" stroke-width="1.0" x1="1363.0" x2="1369.0" y1="220.0" y2="220.0" /><line stroke="#666666" stroke-width="0.8" x1="1312.0" x2="1366.0" y1="329.2" y2="329.2" /><line stroke="#666666" stroke-width="1.0" x1="1363.0" x2="1369.0" y1="329.2" y2="329.2" /><line stroke="#666666" stroke-width="0.8" x1="1312.0" x2="1366.0" y1="493.0" y2="493.0" /><line stroke="#666666" stroke-width="1.0" x1="1363.0" x2="1369.0" y1="493.0" y2="493.0" /><line stroke="#666666" stroke-width="0.8" x1="1312.0" x2="1366.0" y1="766.0" y2="766.0" /><line stroke="#666666" stroke-width="1.0" x1="1363.0" x2="1369.0" y1="766.0" y2="766.0" /><line stroke="#666666" stroke-width="0.8" x1="1312.0" x2="1366.0" y1="984.4" y2="984.4" /><line stroke="#666666" stroke-width="1.0" x1="1363.0" x2="1369.0" y1="984.4" y2="984.4" /><text fill="#666666" font-size="8.2" x="1371.0" y="274.6">910</text><text fill="#666666" font-size="8.2" x="1371.0" y="411.1">1365</text><text fill="#666666" font-size="8.2" x="1371.0" y="629.5">2275</text><text fill="#666666" font-size="8.2" x="1371.0" y="875.1999999999999">1820</text></svg>